<?xml version="1.0" encoding="utf-8" standalone="no"?>
<!DOCTYPE svg PUBLIC "-//W3C//DTD SVG 1.1//EN"
  "http://www.w3.org/Graphics/SVG/1.1/DTD/svg11.dtd">
<svg xmlns:xlink="http://www.w3.org/1999/xlink" width="144.21075pt" height="108.879299pt" viewBox="0 0 144.21075 108.879299" xmlns="http://www.w3.org/2000/svg" version="1.1">
 <metadata>
  <rdf:RDF xmlns:dc="http://purl.org/dc/elements/1.1/" xmlns:cc="http://creativecommons.org/ns#" xmlns:rdf="http://www.w3.org/1999/02/22-rdf-syntax-ns#">
   <cc:Work>
    <dc:type rdf:resource="http://purl.org/dc/dcmitype/StillImage"/>
    <dc:date>2024-10-22T10:04:57.935094</dc:date>
    <dc:format>image/svg+xml</dc:format>
    <dc:creator>
     <cc:Agent>
      <dc:title>Matplotlib v3.8.0, https://matplotlib.org/</dc:title>
     </cc:Agent>
    </dc:creator>
   </cc:Work>
  </rdf:RDF>
 </metadata>
 <defs>
  <style type="text/css">*{stroke-linejoin: round; stroke-linecap: butt}</style>
 </defs>
 <g id="figure_1">
  <g id="patch_1">
   <path d="M 0 108.879299 
L 144.21075 108.879299 
L 144.21075 0 
L 0 0 
L 0 108.879299 
z
" style="fill: none"/>
  </g>
  <g id="axes_1">
   <g id="patch_2">
    <path d="M 36.57075 62.64 
L 137.01075 62.64 
L 137.01075 7.2 
L 36.57075 7.2 
L 36.57075 62.64 
z
" style="fill: none"/>
   </g>
   <g id="matplotlib.axis_1">
    <g id="xtick_1">
     <g id="line2d_1">
      <defs>
       <path id="m438bb6a07d" d="M 0 0 
L 0 1.5 
" style="stroke: #000000; stroke-width: 0.3"/>
      </defs>
      <g>
       <use xlink:href="#m438bb6a07d" x="43.745036" y="65.412" style="stroke: #000000; stroke-width: 0.3"/>
      </g>
     </g>
     <g id="text_1">
      <!-- ground -->
      <g transform="translate(33.702076 84.973233) rotate(-30) scale(0.06 -0.06)">
       <defs>
        <path id="DejaVuSans-67" d="M 2906 1791 
Q 2906 2416 2648 2759 
Q 2391 3103 1925 3103 
Q 1463 3103 1205 2759 
Q 947 2416 947 1791 
Q 947 1169 1205 825 
Q 1463 481 1925 481 
Q 2391 481 2648 825 
Q 2906 1169 2906 1791 
z
M 3481 434 
Q 3481 -459 3084 -895 
Q 2688 -1331 1869 -1331 
Q 1566 -1331 1297 -1286 
Q 1028 -1241 775 -1147 
L 775 -588 
Q 1028 -725 1275 -790 
Q 1522 -856 1778 -856 
Q 2344 -856 2625 -561 
Q 2906 -266 2906 331 
L 2906 616 
Q 2728 306 2450 153 
Q 2172 0 1784 0 
Q 1141 0 747 490 
Q 353 981 353 1791 
Q 353 2603 747 3093 
Q 1141 3584 1784 3584 
Q 2172 3584 2450 3431 
Q 2728 3278 2906 2969 
L 2906 3500 
L 3481 3500 
L 3481 434 
z
" transform="scale(0.015625)"/>
        <path id="DejaVuSans-72" d="M 2631 2963 
Q 2534 3019 2420 3045 
Q 2306 3072 2169 3072 
Q 1681 3072 1420 2755 
Q 1159 2438 1159 1844 
L 1159 0 
L 581 0 
L 581 3500 
L 1159 3500 
L 1159 2956 
Q 1341 3275 1631 3429 
Q 1922 3584 2338 3584 
Q 2397 3584 2469 3576 
Q 2541 3569 2628 3553 
L 2631 2963 
z
" transform="scale(0.015625)"/>
        <path id="DejaVuSans-6f" d="M 1959 3097 
Q 1497 3097 1228 2736 
Q 959 2375 959 1747 
Q 959 1119 1226 758 
Q 1494 397 1959 397 
Q 2419 397 2687 759 
Q 2956 1122 2956 1747 
Q 2956 2369 2687 2733 
Q 2419 3097 1959 3097 
z
M 1959 3584 
Q 2709 3584 3137 3096 
Q 3566 2609 3566 1747 
Q 3566 888 3137 398 
Q 2709 -91 1959 -91 
Q 1206 -91 779 398 
Q 353 888 353 1747 
Q 353 2609 779 3096 
Q 1206 3584 1959 3584 
z
" transform="scale(0.015625)"/>
        <path id="DejaVuSans-75" d="M 544 1381 
L 544 3500 
L 1119 3500 
L 1119 1403 
Q 1119 906 1312 657 
Q 1506 409 1894 409 
Q 2359 409 2629 706 
Q 2900 1003 2900 1516 
L 2900 3500 
L 3475 3500 
L 3475 0 
L 2900 0 
L 2900 538 
Q 2691 219 2414 64 
Q 2138 -91 1772 -91 
Q 1169 -91 856 284 
Q 544 659 544 1381 
z
M 1991 3584 
L 1991 3584 
z
" transform="scale(0.015625)"/>
        <path id="DejaVuSans-6e" d="M 3513 2113 
L 3513 0 
L 2938 0 
L 2938 2094 
Q 2938 2591 2744 2837 
Q 2550 3084 2163 3084 
Q 1697 3084 1428 2787 
Q 1159 2491 1159 1978 
L 1159 0 
L 581 0 
L 581 3500 
L 1159 3500 
L 1159 2956 
Q 1366 3272 1645 3428 
Q 1925 3584 2291 3584 
Q 2894 3584 3203 3211 
Q 3513 2838 3513 2113 
z
" transform="scale(0.015625)"/>
        <path id="DejaVuSans-64" d="M 2906 2969 
L 2906 4863 
L 3481 4863 
L 3481 0 
L 2906 0 
L 2906 525 
Q 2725 213 2448 61 
Q 2172 -91 1784 -91 
Q 1150 -91 751 415 
Q 353 922 353 1747 
Q 353 2572 751 3078 
Q 1150 3584 1784 3584 
Q 2172 3584 2448 3432 
Q 2725 3281 2906 2969 
z
M 947 1747 
Q 947 1113 1208 752 
Q 1469 391 1925 391 
Q 2381 391 2643 752 
Q 2906 1113 2906 1747 
Q 2906 2381 2643 2742 
Q 2381 3103 1925 3103 
Q 1469 3103 1208 2742 
Q 947 2381 947 1747 
z
" transform="scale(0.015625)"/>
       </defs>
       <use xlink:href="#DejaVuSans-67"/>
       <use xlink:href="#DejaVuSans-72" x="63.476562"/>
       <use xlink:href="#DejaVuSans-6f" x="102.339844"/>
       <use xlink:href="#DejaVuSans-75" x="163.521484"/>
       <use xlink:href="#DejaVuSans-6e" x="226.900391"/>
       <use xlink:href="#DejaVuSans-64" x="290.279297"/>
      </g>
      <!-- truth -->
      <g transform="translate(39.854351 89.179287) rotate(-30) scale(0.06 -0.06)">
       <defs>
        <path id="DejaVuSans-74" d="M 1172 4494 
L 1172 3500 
L 2356 3500 
L 2356 3053 
L 1172 3053 
L 1172 1153 
Q 1172 725 1289 603 
Q 1406 481 1766 481 
L 2356 481 
L 2356 0 
L 1766 0 
Q 1100 0 847 248 
Q 594 497 594 1153 
L 594 3053 
L 172 3053 
L 172 3500 
L 594 3500 
L 594 4494 
L 1172 4494 
z
" transform="scale(0.015625)"/>
        <path id="DejaVuSans-68" d="M 3513 2113 
L 3513 0 
L 2938 0 
L 2938 2094 
Q 2938 2591 2744 2837 
Q 2550 3084 2163 3084 
Q 1697 3084 1428 2787 
Q 1159 2491 1159 1978 
L 1159 0 
L 581 0 
L 581 4863 
L 1159 4863 
L 1159 2956 
Q 1366 3272 1645 3428 
Q 1925 3584 2291 3584 
Q 2894 3584 3203 3211 
Q 3513 2838 3513 2113 
z
" transform="scale(0.015625)"/>
       </defs>
       <use xlink:href="#DejaVuSans-74"/>
       <use xlink:href="#DejaVuSans-72" x="39.208984"/>
       <use xlink:href="#DejaVuSans-75" x="80.322266"/>
       <use xlink:href="#DejaVuSans-74" x="143.701172"/>
       <use xlink:href="#DejaVuSans-68" x="182.910156"/>
      </g>
     </g>
    </g>
    <g id="xtick_2">
     <g id="line2d_2">
      <g>
       <use xlink:href="#m438bb6a07d" x="58.093607" y="65.412" style="stroke: #000000; stroke-width: 0.3"/>
      </g>
     </g>
     <g id="text_2">
      <!-- KS4 -->
      <g transform="translate(53.915252 80.140889) rotate(-30) scale(0.06 -0.06)">
       <defs>
        <path id="DejaVuSans-4b" d="M 628 4666 
L 1259 4666 
L 1259 2694 
L 3353 4666 
L 4166 4666 
L 1850 2491 
L 4331 0 
L 3500 0 
L 1259 2247 
L 1259 0 
L 628 0 
L 628 4666 
z
" transform="scale(0.015625)"/>
        <path id="DejaVuSans-53" d="M 3425 4513 
L 3425 3897 
Q 3066 4069 2747 4153 
Q 2428 4238 2131 4238 
Q 1616 4238 1336 4038 
Q 1056 3838 1056 3469 
Q 1056 3159 1242 3001 
Q 1428 2844 1947 2747 
L 2328 2669 
Q 3034 2534 3370 2195 
Q 3706 1856 3706 1288 
Q 3706 609 3251 259 
Q 2797 -91 1919 -91 
Q 1588 -91 1214 -16 
Q 841 59 441 206 
L 441 856 
Q 825 641 1194 531 
Q 1563 422 1919 422 
Q 2459 422 2753 634 
Q 3047 847 3047 1241 
Q 3047 1584 2836 1778 
Q 2625 1972 2144 2069 
L 1759 2144 
Q 1053 2284 737 2584 
Q 422 2884 422 3419 
Q 422 4038 858 4394 
Q 1294 4750 2059 4750 
Q 2388 4750 2728 4690 
Q 3069 4631 3425 4513 
z
" transform="scale(0.015625)"/>
        <path id="DejaVuSans-34" d="M 2419 4116 
L 825 1625 
L 2419 1625 
L 2419 4116 
z
M 2253 4666 
L 3047 4666 
L 3047 1625 
L 3713 1625 
L 3713 1100 
L 3047 1100 
L 3047 0 
L 2419 0 
L 2419 1100 
L 313 1100 
L 313 1709 
L 2253 4666 
z
" transform="scale(0.015625)"/>
       </defs>
       <use xlink:href="#DejaVuSans-4b"/>
       <use xlink:href="#DejaVuSans-53" x="65.576172"/>
       <use xlink:href="#DejaVuSans-34" x="129.052734"/>
      </g>
     </g>
    </g>
    <g id="xtick_3">
     <g id="line2d_3">
      <g>
       <use xlink:href="#m438bb6a07d" x="72.442179" y="65.412" style="stroke: #000000; stroke-width: 0.3"/>
      </g>
     </g>
     <g id="text_3">
      <!-- KS3 -->
      <g transform="translate(68.263823 80.140889) rotate(-30) scale(0.06 -0.06)">
       <defs>
        <path id="DejaVuSans-33" d="M 2597 2516 
Q 3050 2419 3304 2112 
Q 3559 1806 3559 1356 
Q 3559 666 3084 287 
Q 2609 -91 1734 -91 
Q 1441 -91 1130 -33 
Q 819 25 488 141 
L 488 750 
Q 750 597 1062 519 
Q 1375 441 1716 441 
Q 2309 441 2620 675 
Q 2931 909 2931 1356 
Q 2931 1769 2642 2001 
Q 2353 2234 1838 2234 
L 1294 2234 
L 1294 2753 
L 1863 2753 
Q 2328 2753 2575 2939 
Q 2822 3125 2822 3475 
Q 2822 3834 2567 4026 
Q 2313 4219 1838 4219 
Q 1578 4219 1281 4162 
Q 984 4106 628 3988 
L 628 4550 
Q 988 4650 1302 4700 
Q 1616 4750 1894 4750 
Q 2613 4750 3031 4423 
Q 3450 4097 3450 3541 
Q 3450 3153 3228 2886 
Q 3006 2619 2597 2516 
z
" transform="scale(0.015625)"/>
       </defs>
       <use xlink:href="#DejaVuSans-4b"/>
       <use xlink:href="#DejaVuSans-53" x="65.576172"/>
       <use xlink:href="#DejaVuSans-33" x="129.052734"/>
      </g>
     </g>
    </g>
    <g id="xtick_4">
     <g id="line2d_4">
      <g>
       <use xlink:href="#m438bb6a07d" x="86.79075" y="65.412" style="stroke: #000000; stroke-width: 0.3"/>
      </g>
     </g>
     <g id="text_4">
      <!-- KS2.5 -->
      <g transform="translate(80.133667 83.003076) rotate(-30) scale(0.06 -0.06)">
       <defs>
        <path id="DejaVuSans-32" d="M 1228 531 
L 3431 531 
L 3431 0 
L 469 0 
L 469 531 
Q 828 903 1448 1529 
Q 2069 2156 2228 2338 
Q 2531 2678 2651 2914 
Q 2772 3150 2772 3378 
Q 2772 3750 2511 3984 
Q 2250 4219 1831 4219 
Q 1534 4219 1204 4116 
Q 875 4013 500 3803 
L 500 4441 
Q 881 4594 1212 4672 
Q 1544 4750 1819 4750 
Q 2544 4750 2975 4387 
Q 3406 4025 3406 3419 
Q 3406 3131 3298 2873 
Q 3191 2616 2906 2266 
Q 2828 2175 2409 1742 
Q 1991 1309 1228 531 
z
" transform="scale(0.015625)"/>
        <path id="DejaVuSans-2e" d="M 684 794 
L 1344 794 
L 1344 0 
L 684 0 
L 684 794 
z
" transform="scale(0.015625)"/>
        <path id="DejaVuSans-35" d="M 691 4666 
L 3169 4666 
L 3169 4134 
L 1269 4134 
L 1269 2991 
Q 1406 3038 1543 3061 
Q 1681 3084 1819 3084 
Q 2600 3084 3056 2656 
Q 3513 2228 3513 1497 
Q 3513 744 3044 326 
Q 2575 -91 1722 -91 
Q 1428 -91 1123 -41 
Q 819 9 494 109 
L 494 744 
Q 775 591 1075 516 
Q 1375 441 1709 441 
Q 2250 441 2565 725 
Q 2881 1009 2881 1497 
Q 2881 1984 2565 2268 
Q 2250 2553 1709 2553 
Q 1456 2553 1204 2497 
Q 953 2441 691 2322 
L 691 4666 
z
" transform="scale(0.015625)"/>
       </defs>
       <use xlink:href="#DejaVuSans-4b"/>
       <use xlink:href="#DejaVuSans-53" x="65.576172"/>
       <use xlink:href="#DejaVuSans-32" x="129.052734"/>
       <use xlink:href="#DejaVuSans-2e" x="192.675781"/>
       <use xlink:href="#DejaVuSans-35" x="224.462891"/>
      </g>
     </g>
    </g>
    <g id="xtick_5">
     <g id="line2d_5">
      <g>
       <use xlink:href="#m438bb6a07d" x="101.139321" y="65.412" style="stroke: #000000; stroke-width: 0.3"/>
      </g>
     </g>
     <g id="text_5">
      <!-- KS2 -->
      <g transform="translate(96.960966 80.140889) rotate(-30) scale(0.06 -0.06)">
       <use xlink:href="#DejaVuSans-4b"/>
       <use xlink:href="#DejaVuSans-53" x="65.576172"/>
       <use xlink:href="#DejaVuSans-32" x="129.052734"/>
      </g>
     </g>
    </g>
    <g id="xtick_6">
     <g id="line2d_6">
      <g>
       <use xlink:href="#m438bb6a07d" x="115.487893" y="65.412" style="stroke: #000000; stroke-width: 0.3"/>
      </g>
     </g>
     <g id="text_6">
      <!-- KS -->
      <g transform="translate(112.962563 78.232139) rotate(-30) scale(0.06 -0.06)">
       <use xlink:href="#DejaVuSans-4b"/>
       <use xlink:href="#DejaVuSans-53" x="65.576172"/>
      </g>
     </g>
    </g>
    <g id="xtick_7">
     <g id="line2d_7">
      <g>
       <use xlink:href="#m438bb6a07d" x="129.836464" y="65.412" style="stroke: #000000; stroke-width: 0.3"/>
      </g>
     </g>
     <g id="text_7">
      <!-- HS -->
      <g transform="translate(127.06107 78.520889) rotate(-30) scale(0.06 -0.06)">
       <defs>
        <path id="DejaVuSans-48" d="M 628 4666 
L 1259 4666 
L 1259 2753 
L 3553 2753 
L 3553 4666 
L 4184 4666 
L 4184 0 
L 3553 0 
L 3553 2222 
L 1259 2222 
L 1259 0 
L 628 0 
L 628 4666 
z
" transform="scale(0.015625)"/>
       </defs>
       <use xlink:href="#DejaVuSans-48"/>
       <use xlink:href="#DejaVuSans-53" x="75.195312"/>
      </g>
     </g>
    </g>
    <g id="text_8">
     <!-- Spike sorter -->
     <g transform="translate(68.833406 100.431487) scale(0.06 -0.06)">
      <defs>
       <path id="DejaVuSans-70" d="M 1159 525 
L 1159 -1331 
L 581 -1331 
L 581 3500 
L 1159 3500 
L 1159 2969 
Q 1341 3281 1617 3432 
Q 1894 3584 2278 3584 
Q 2916 3584 3314 3078 
Q 3713 2572 3713 1747 
Q 3713 922 3314 415 
Q 2916 -91 2278 -91 
Q 1894 -91 1617 61 
Q 1341 213 1159 525 
z
M 3116 1747 
Q 3116 2381 2855 2742 
Q 2594 3103 2138 3103 
Q 1681 3103 1420 2742 
Q 1159 2381 1159 1747 
Q 1159 1113 1420 752 
Q 1681 391 2138 391 
Q 2594 391 2855 752 
Q 3116 1113 3116 1747 
z
" transform="scale(0.015625)"/>
       <path id="DejaVuSans-69" d="M 603 3500 
L 1178 3500 
L 1178 0 
L 603 0 
L 603 3500 
z
M 603 4863 
L 1178 4863 
L 1178 4134 
L 603 4134 
L 603 4863 
z
" transform="scale(0.015625)"/>
       <path id="DejaVuSans-6b" d="M 581 4863 
L 1159 4863 
L 1159 1991 
L 2875 3500 
L 3609 3500 
L 1753 1863 
L 3688 0 
L 2938 0 
L 1159 1709 
L 1159 0 
L 581 0 
L 581 4863 
z
" transform="scale(0.015625)"/>
       <path id="DejaVuSans-65" d="M 3597 1894 
L 3597 1613 
L 953 1613 
Q 991 1019 1311 708 
Q 1631 397 2203 397 
Q 2534 397 2845 478 
Q 3156 559 3463 722 
L 3463 178 
Q 3153 47 2828 -22 
Q 2503 -91 2169 -91 
Q 1331 -91 842 396 
Q 353 884 353 1716 
Q 353 2575 817 3079 
Q 1281 3584 2069 3584 
Q 2775 3584 3186 3129 
Q 3597 2675 3597 1894 
z
M 3022 2063 
Q 3016 2534 2758 2815 
Q 2500 3097 2075 3097 
Q 1594 3097 1305 2825 
Q 1016 2553 972 2059 
L 3022 2063 
z
" transform="scale(0.015625)"/>
       <path id="DejaVuSans-20" transform="scale(0.015625)"/>
       <path id="DejaVuSans-73" d="M 2834 3397 
L 2834 2853 
Q 2591 2978 2328 3040 
Q 2066 3103 1784 3103 
Q 1356 3103 1142 2972 
Q 928 2841 928 2578 
Q 928 2378 1081 2264 
Q 1234 2150 1697 2047 
L 1894 2003 
Q 2506 1872 2764 1633 
Q 3022 1394 3022 966 
Q 3022 478 2636 193 
Q 2250 -91 1575 -91 
Q 1294 -91 989 -36 
Q 684 19 347 128 
L 347 722 
Q 666 556 975 473 
Q 1284 391 1588 391 
Q 1994 391 2212 530 
Q 2431 669 2431 922 
Q 2431 1156 2273 1281 
Q 2116 1406 1581 1522 
L 1381 1569 
Q 847 1681 609 1914 
Q 372 2147 372 2553 
Q 372 3047 722 3315 
Q 1072 3584 1716 3584 
Q 2034 3584 2315 3537 
Q 2597 3491 2834 3397 
z
" transform="scale(0.015625)"/>
      </defs>
      <use xlink:href="#DejaVuSans-53"/>
      <use xlink:href="#DejaVuSans-70" x="63.476562"/>
      <use xlink:href="#DejaVuSans-69" x="126.953125"/>
      <use xlink:href="#DejaVuSans-6b" x="154.736328"/>
      <use xlink:href="#DejaVuSans-65" x="209.021484"/>
      <use xlink:href="#DejaVuSans-20" x="270.544922"/>
      <use xlink:href="#DejaVuSans-73" x="302.332031"/>
      <use xlink:href="#DejaVuSans-6f" x="354.431641"/>
      <use xlink:href="#DejaVuSans-72" x="415.613281"/>
      <use xlink:href="#DejaVuSans-74" x="456.726562"/>
      <use xlink:href="#DejaVuSans-65" x="495.935547"/>
      <use xlink:href="#DejaVuSans-72" x="557.458984"/>
     </g>
    </g>
   </g>
   <g id="matplotlib.axis_2">
    <g id="ytick_1">
     <g id="line2d_8">
      <defs>
       <path id="m0f50cdaa3f" d="M 0 0 
L -1.5 0 
" style="stroke: #000000; stroke-width: 0.3"/>
      </defs>
      <g>
       <use xlink:href="#m0f50cdaa3f" x="31.54875" y="54.802022" style="stroke: #000000; stroke-width: 0.3"/>
      </g>
     </g>
     <g id="text_9">
      <!-- 0.7 -->
      <g transform="translate(17.006875 57.081553) scale(0.06 -0.06)">
       <defs>
        <path id="DejaVuSans-30" d="M 2034 4250 
Q 1547 4250 1301 3770 
Q 1056 3291 1056 2328 
Q 1056 1369 1301 889 
Q 1547 409 2034 409 
Q 2525 409 2770 889 
Q 3016 1369 3016 2328 
Q 3016 3291 2770 3770 
Q 2525 4250 2034 4250 
z
M 2034 4750 
Q 2819 4750 3233 4129 
Q 3647 3509 3647 2328 
Q 3647 1150 3233 529 
Q 2819 -91 2034 -91 
Q 1250 -91 836 529 
Q 422 1150 422 2328 
Q 422 3509 836 4129 
Q 1250 4750 2034 4750 
z
" transform="scale(0.015625)"/>
        <path id="DejaVuSans-37" d="M 525 4666 
L 3525 4666 
L 3525 4397 
L 1831 0 
L 1172 0 
L 2766 4134 
L 525 4134 
L 525 4666 
z
" transform="scale(0.015625)"/>
       </defs>
       <use xlink:href="#DejaVuSans-30"/>
       <use xlink:href="#DejaVuSans-2e" x="63.623047"/>
       <use xlink:href="#DejaVuSans-37" x="95.410156"/>
      </g>
     </g>
    </g>
    <g id="ytick_2">
     <g id="line2d_9">
      <g>
       <use xlink:href="#m0f50cdaa3f" x="31.54875" y="28.924907" style="stroke: #000000; stroke-width: 0.3"/>
      </g>
     </g>
     <g id="text_10">
      <!-- 0.8 -->
      <g transform="translate(17.006875 31.204439) scale(0.06 -0.06)">
       <defs>
        <path id="DejaVuSans-38" d="M 2034 2216 
Q 1584 2216 1326 1975 
Q 1069 1734 1069 1313 
Q 1069 891 1326 650 
Q 1584 409 2034 409 
Q 2484 409 2743 651 
Q 3003 894 3003 1313 
Q 3003 1734 2745 1975 
Q 2488 2216 2034 2216 
z
M 1403 2484 
Q 997 2584 770 2862 
Q 544 3141 544 3541 
Q 544 4100 942 4425 
Q 1341 4750 2034 4750 
Q 2731 4750 3128 4425 
Q 3525 4100 3525 3541 
Q 3525 3141 3298 2862 
Q 3072 2584 2669 2484 
Q 3125 2378 3379 2068 
Q 3634 1759 3634 1313 
Q 3634 634 3220 271 
Q 2806 -91 2034 -91 
Q 1263 -91 848 271 
Q 434 634 434 1313 
Q 434 1759 690 2068 
Q 947 2378 1403 2484 
z
M 1172 3481 
Q 1172 3119 1398 2916 
Q 1625 2713 2034 2713 
Q 2441 2713 2670 2916 
Q 2900 3119 2900 3481 
Q 2900 3844 2670 4047 
Q 2441 4250 2034 4250 
Q 1625 4250 1398 4047 
Q 1172 3844 1172 3481 
z
" transform="scale(0.015625)"/>
       </defs>
       <use xlink:href="#DejaVuSans-30"/>
       <use xlink:href="#DejaVuSans-2e" x="63.623047"/>
       <use xlink:href="#DejaVuSans-38" x="95.410156"/>
      </g>
     </g>
    </g>
    <g id="text_11">
     <!-- Manifold radius -->
     <g transform="translate(11.759063 57.938437) rotate(-90) scale(0.06 -0.06)">
      <defs>
       <path id="DejaVuSans-4d" d="M 628 4666 
L 1569 4666 
L 2759 1491 
L 3956 4666 
L 4897 4666 
L 4897 0 
L 4281 0 
L 4281 4097 
L 3078 897 
L 2444 897 
L 1241 4097 
L 1241 0 
L 628 0 
L 628 4666 
z
" transform="scale(0.015625)"/>
       <path id="DejaVuSans-61" d="M 2194 1759 
Q 1497 1759 1228 1600 
Q 959 1441 959 1056 
Q 959 750 1161 570 
Q 1363 391 1709 391 
Q 2188 391 2477 730 
Q 2766 1069 2766 1631 
L 2766 1759 
L 2194 1759 
z
M 3341 1997 
L 3341 0 
L 2766 0 
L 2766 531 
Q 2569 213 2275 61 
Q 1981 -91 1556 -91 
Q 1019 -91 701 211 
Q 384 513 384 1019 
Q 384 1609 779 1909 
Q 1175 2209 1959 2209 
L 2766 2209 
L 2766 2266 
Q 2766 2663 2505 2880 
Q 2244 3097 1772 3097 
Q 1472 3097 1187 3025 
Q 903 2953 641 2809 
L 641 3341 
Q 956 3463 1253 3523 
Q 1550 3584 1831 3584 
Q 2591 3584 2966 3190 
Q 3341 2797 3341 1997 
z
" transform="scale(0.015625)"/>
       <path id="DejaVuSans-66" d="M 2375 4863 
L 2375 4384 
L 1825 4384 
Q 1516 4384 1395 4259 
Q 1275 4134 1275 3809 
L 1275 3500 
L 2222 3500 
L 2222 3053 
L 1275 3053 
L 1275 0 
L 697 0 
L 697 3053 
L 147 3053 
L 147 3500 
L 697 3500 
L 697 3744 
Q 697 4328 969 4595 
Q 1241 4863 1831 4863 
L 2375 4863 
z
" transform="scale(0.015625)"/>
       <path id="DejaVuSans-6c" d="M 603 4863 
L 1178 4863 
L 1178 0 
L 603 0 
L 603 4863 
z
" transform="scale(0.015625)"/>
      </defs>
      <use xlink:href="#DejaVuSans-4d"/>
      <use xlink:href="#DejaVuSans-61" x="86.279297"/>
      <use xlink:href="#DejaVuSans-6e" x="147.558594"/>
      <use xlink:href="#DejaVuSans-69" x="210.9375"/>
      <use xlink:href="#DejaVuSans-66" x="238.720703"/>
      <use xlink:href="#DejaVuSans-6f" x="273.925781"/>
      <use xlink:href="#DejaVuSans-6c" x="335.107422"/>
      <use xlink:href="#DejaVuSans-64" x="362.890625"/>
      <use xlink:href="#DejaVuSans-20" x="426.367188"/>
      <use xlink:href="#DejaVuSans-72" x="458.154297"/>
      <use xlink:href="#DejaVuSans-61" x="499.267578"/>
      <use xlink:href="#DejaVuSans-64" x="560.546875"/>
      <use xlink:href="#DejaVuSans-69" x="624.023438"/>
      <use xlink:href="#DejaVuSans-75" x="651.806641"/>
      <use xlink:href="#DejaVuSans-73" x="715.185547"/>
     </g>
    </g>
   </g>
   <g id="LineCollection_1">
    <path d="M 36.57075 38.224414 
L 137.01075 38.224414 
" clip-path="url(#p139da41676)" style="fill: none; stroke-dasharray: 1.85,0.8; stroke-dashoffset: 0; stroke: #ff0000; stroke-width: 0.5"/>
   </g>
   <g id="patch_3">
    <path d="M 40.229636 39.819748 
L 47.260436 39.819748 
L 47.260436 38.721285 
L 45.502736 38.381766 
L 47.260436 38.042248 
L 47.260436 36.761456 
L 40.229636 36.761456 
L 40.229636 38.042248 
L 41.987336 38.381766 
L 40.229636 38.721285 
L 40.229636 39.819748 
z
" clip-path="url(#p139da41676)" style="fill: #ffffff; stroke: #999999; stroke-width: 0.5; stroke-linejoin: miter"/>
   </g>
   <g id="line2d_10">
    <path d="M 43.745036 39.819748 
L 43.745036 43.820452 
" clip-path="url(#p139da41676)" style="fill: none; stroke: #999999; stroke-width: 0.5"/>
   </g>
   <g id="line2d_11">
    <path d="M 43.745036 36.761456 
L 43.745036 32.81054 
" clip-path="url(#p139da41676)" style="fill: none; stroke: #999999; stroke-width: 0.5"/>
   </g>
   <g id="line2d_12">
    <path d="M 41.987336 43.820452 
L 45.502736 43.820452 
" clip-path="url(#p139da41676)" style="fill: none; stroke: #999999; stroke-width: 0.5; stroke-linecap: square"/>
   </g>
   <g id="line2d_13">
    <path d="M 41.987336 32.81054 
L 45.502736 32.81054 
" clip-path="url(#p139da41676)" style="fill: none; stroke: #999999; stroke-width: 0.5; stroke-linecap: square"/>
   </g>
   <g id="line2d_14">
    <defs>
     <path id="mdaa9b5b6d3" d="M 0 0.75 
C 0.198902 0.75 0.389685 0.670975 0.53033 0.53033 
C 0.670975 0.389685 0.75 0.198902 0.75 0 
C 0.75 -0.198902 0.670975 -0.389685 0.53033 -0.53033 
C 0.389685 -0.670975 0.198902 -0.75 0 -0.75 
C -0.198902 -0.75 -0.389685 -0.670975 -0.53033 -0.53033 
C -0.670975 -0.389685 -0.75 -0.198902 -0.75 0 
C -0.75 0.198902 -0.670975 0.389685 -0.53033 0.53033 
C -0.389685 0.670975 -0.198902 0.75 0 0.75 
z
" style="stroke: #999999; stroke-width: 0.5"/>
    </defs>
    <g clip-path="url(#p139da41676)">
     <use xlink:href="#mdaa9b5b6d3" x="43.745036" y="45.954792" style="fill: #ffffff; stroke: #999999; stroke-width: 0.5"/>
    </g>
   </g>
   <g id="patch_4">
    <path d="M 54.578207 26.324039 
L 61.609007 26.324039 
L 61.609007 25.075795 
L 59.851307 24.719816 
L 61.609007 24.363836 
L 61.609007 23.117473 
L 54.578207 23.117473 
L 54.578207 24.363836 
L 56.335907 24.719816 
L 54.578207 25.075795 
L 54.578207 26.324039 
z
" clip-path="url(#p139da41676)" style="fill: #ffffff; stroke: #999999; stroke-width: 0.5; stroke-linejoin: miter"/>
   </g>
   <g id="line2d_15">
    <path d="M 58.093607 26.324039 
L 58.093607 30.543201 
" clip-path="url(#p139da41676)" style="fill: none; stroke: #999999; stroke-width: 0.5"/>
   </g>
   <g id="line2d_16">
    <path d="M 58.093607 23.117473 
L 58.093607 18.991587 
" clip-path="url(#p139da41676)" style="fill: none; stroke: #999999; stroke-width: 0.5"/>
   </g>
   <g id="line2d_17">
    <path d="M 56.335907 30.543201 
L 59.851307 30.543201 
" clip-path="url(#p139da41676)" style="fill: none; stroke: #999999; stroke-width: 0.5; stroke-linecap: square"/>
   </g>
   <g id="line2d_18">
    <path d="M 56.335907 18.991587 
L 59.851307 18.991587 
" clip-path="url(#p139da41676)" style="fill: none; stroke: #999999; stroke-width: 0.5; stroke-linecap: square"/>
   </g>
   <g id="line2d_19">
    <g clip-path="url(#p139da41676)">
     <use xlink:href="#mdaa9b5b6d3" x="58.093607" y="16.94935" style="fill: #ffffff; stroke: #999999; stroke-width: 0.5"/>
    </g>
   </g>
   <g id="patch_5">
    <path d="M 68.926779 21.523251 
L 75.957579 21.523251 
L 75.957579 20.347203 
L 74.199879 20.002177 
L 75.957579 19.657152 
L 75.957579 18.415356 
L 68.926779 18.415356 
L 68.926779 19.657152 
L 70.684479 20.002177 
L 68.926779 20.347203 
L 68.926779 21.523251 
z
" clip-path="url(#p139da41676)" style="fill: #ffffff; stroke: #999999; stroke-width: 0.5; stroke-linejoin: miter"/>
   </g>
   <g id="line2d_20">
    <path d="M 72.442179 21.523251 
L 72.442179 26.077976 
" clip-path="url(#p139da41676)" style="fill: none; stroke: #999999; stroke-width: 0.5"/>
   </g>
   <g id="line2d_21">
    <path d="M 72.442179 18.415356 
L 72.442179 14.228569 
" clip-path="url(#p139da41676)" style="fill: none; stroke: #999999; stroke-width: 0.5"/>
   </g>
   <g id="line2d_22">
    <path d="M 70.684479 26.077976 
L 74.199879 26.077976 
" clip-path="url(#p139da41676)" style="fill: none; stroke: #999999; stroke-width: 0.5; stroke-linecap: square"/>
   </g>
   <g id="line2d_23">
    <path d="M 70.684479 14.228569 
L 74.199879 14.228569 
" clip-path="url(#p139da41676)" style="fill: none; stroke: #999999; stroke-width: 0.5; stroke-linecap: square"/>
   </g>
   <g id="line2d_24">
    <g clip-path="url(#p139da41676)">
     <use xlink:href="#mdaa9b5b6d3" x="72.442179" y="12.751056" style="fill: #ffffff; stroke: #999999; stroke-width: 0.5"/>
    </g>
   </g>
   <g id="patch_6">
    <path d="M 83.27535 19.39453 
L 90.30615 19.39453 
L 90.30615 18.203831 
L 88.54845 17.874286 
L 90.30615 17.54474 
L 90.30615 16.42607 
L 83.27535 16.42607 
L 83.27535 17.54474 
L 85.03305 17.874286 
L 83.27535 18.203831 
L 83.27535 19.39453 
z
" clip-path="url(#p139da41676)" style="fill: #ffffff; stroke: #999999; stroke-width: 0.5; stroke-linejoin: miter"/>
   </g>
   <g id="line2d_25">
    <path d="M 86.79075 19.39453 
L 86.79075 23.040388 
" clip-path="url(#p139da41676)" style="fill: none; stroke: #999999; stroke-width: 0.5"/>
   </g>
   <g id="line2d_26">
    <path d="M 86.79075 16.42607 
L 86.79075 12.27867 
" clip-path="url(#p139da41676)" style="fill: none; stroke: #999999; stroke-width: 0.5"/>
   </g>
   <g id="line2d_27">
    <path d="M 85.03305 23.040388 
L 88.54845 23.040388 
" clip-path="url(#p139da41676)" style="fill: none; stroke: #999999; stroke-width: 0.5; stroke-linecap: square"/>
   </g>
   <g id="line2d_28">
    <path d="M 85.03305 12.27867 
L 88.54845 12.27867 
" clip-path="url(#p139da41676)" style="fill: none; stroke: #999999; stroke-width: 0.5; stroke-linecap: square"/>
   </g>
   <g id="line2d_29">
    <g clip-path="url(#p139da41676)">
     <use xlink:href="#mdaa9b5b6d3" x="86.79075" y="10.510057" style="fill: #ffffff; stroke: #999999; stroke-width: 0.5"/>
     <use xlink:href="#mdaa9b5b6d3" x="86.79075" y="9.72" style="fill: #ffffff; stroke: #999999; stroke-width: 0.5"/>
    </g>
   </g>
   <g id="patch_7">
    <path d="M 97.623921 28.8666 
L 104.654721 28.8666 
L 104.654721 27.516455 
L 102.897021 27.112892 
L 104.654721 26.70933 
L 104.654721 25.231417 
L 97.623921 25.231417 
L 97.623921 26.70933 
L 99.381621 27.112892 
L 97.623921 27.516455 
L 97.623921 28.8666 
z
" clip-path="url(#p139da41676)" style="fill: #ffffff; stroke: #999999; stroke-width: 0.5; stroke-linejoin: miter"/>
   </g>
   <g id="line2d_30">
    <path d="M 101.139321 28.8666 
L 101.139321 33.169332 
" clip-path="url(#p139da41676)" style="fill: none; stroke: #999999; stroke-width: 0.5"/>
   </g>
   <g id="line2d_31">
    <path d="M 101.139321 25.231417 
L 101.139321 21.190707 
" clip-path="url(#p139da41676)" style="fill: none; stroke: #999999; stroke-width: 0.5"/>
   </g>
   <g id="line2d_32">
    <path d="M 99.381621 33.169332 
L 102.897021 33.169332 
" clip-path="url(#p139da41676)" style="fill: none; stroke: #999999; stroke-width: 0.5; stroke-linecap: square"/>
   </g>
   <g id="line2d_33">
    <path d="M 99.381621 21.190707 
L 102.897021 21.190707 
" clip-path="url(#p139da41676)" style="fill: none; stroke: #999999; stroke-width: 0.5; stroke-linecap: square"/>
   </g>
   <g id="line2d_34"/>
   <g id="patch_8">
    <path d="M 111.972493 47.724166 
L 119.003293 47.724166 
L 119.003293 45.425824 
L 117.245593 44.786375 
L 119.003293 44.146925 
L 119.003293 41.964177 
L 111.972493 41.964177 
L 111.972493 44.146925 
L 113.730193 44.786375 
L 111.972493 45.425824 
L 111.972493 47.724166 
z
" clip-path="url(#p139da41676)" style="fill: #ffffff; stroke: #999999; stroke-width: 0.5; stroke-linejoin: miter"/>
   </g>
   <g id="line2d_35">
    <path d="M 115.487893 47.724166 
L 115.487893 54.953991 
" clip-path="url(#p139da41676)" style="fill: none; stroke: #999999; stroke-width: 0.5"/>
   </g>
   <g id="line2d_36">
    <path d="M 115.487893 41.964177 
L 115.487893 34.051378 
" clip-path="url(#p139da41676)" style="fill: none; stroke: #999999; stroke-width: 0.5"/>
   </g>
   <g id="line2d_37">
    <path d="M 113.730193 54.953991 
L 117.245593 54.953991 
" clip-path="url(#p139da41676)" style="fill: none; stroke: #999999; stroke-width: 0.5; stroke-linecap: square"/>
   </g>
   <g id="line2d_38">
    <path d="M 113.730193 34.051378 
L 117.245593 34.051378 
" clip-path="url(#p139da41676)" style="fill: none; stroke: #999999; stroke-width: 0.5; stroke-linecap: square"/>
   </g>
   <g id="line2d_39">
    <g clip-path="url(#p139da41676)">
     <use xlink:href="#mdaa9b5b6d3" x="115.487893" y="58.518631" style="fill: #ffffff; stroke: #999999; stroke-width: 0.5"/>
     <use xlink:href="#mdaa9b5b6d3" x="115.487893" y="60.12" style="fill: #ffffff; stroke: #999999; stroke-width: 0.5"/>
    </g>
   </g>
   <g id="patch_9">
    <path d="M 126.321064 23.248152 
L 133.351864 23.248152 
L 133.351864 22.06665 
L 131.594164 21.743871 
L 133.351864 21.421093 
L 133.351864 20.34065 
L 126.321064 20.34065 
L 126.321064 21.421093 
L 128.078764 21.743871 
L 126.321064 22.06665 
L 126.321064 23.248152 
z
" clip-path="url(#p139da41676)" style="fill: #ffffff; stroke: #999999; stroke-width: 0.5; stroke-linejoin: miter"/>
   </g>
   <g id="line2d_40">
    <path d="M 129.836464 23.248152 
L 129.836464 27.428079 
" clip-path="url(#p139da41676)" style="fill: none; stroke: #999999; stroke-width: 0.5"/>
   </g>
   <g id="line2d_41">
    <path d="M 129.836464 20.34065 
L 129.836464 16.027352 
" clip-path="url(#p139da41676)" style="fill: none; stroke: #999999; stroke-width: 0.5"/>
   </g>
   <g id="line2d_42">
    <path d="M 128.078764 27.428079 
L 131.594164 27.428079 
" clip-path="url(#p139da41676)" style="fill: none; stroke: #999999; stroke-width: 0.5; stroke-linecap: square"/>
   </g>
   <g id="line2d_43">
    <path d="M 128.078764 16.027352 
L 131.594164 16.027352 
" clip-path="url(#p139da41676)" style="fill: none; stroke: #999999; stroke-width: 0.5; stroke-linecap: square"/>
   </g>
   <g id="line2d_44">
    <g clip-path="url(#p139da41676)">
     <use xlink:href="#mdaa9b5b6d3" x="129.836464" y="27.795922" style="fill: #ffffff; stroke: #999999; stroke-width: 0.5"/>
    </g>
   </g>
   <g id="line2d_45">
    <path d="M 41.987336 38.381766 
L 45.502736 38.381766 
" clip-path="url(#p139da41676)" style="fill: none; stroke: #999999; stroke-width: 0.5"/>
   </g>
   <g id="line2d_46">
    <path d="M 56.335907 24.719816 
L 59.851307 24.719816 
" clip-path="url(#p139da41676)" style="fill: none; stroke: #999999; stroke-width: 0.5"/>
   </g>
   <g id="line2d_47">
    <path d="M 70.684479 20.002177 
L 74.199879 20.002177 
" clip-path="url(#p139da41676)" style="fill: none; stroke: #999999; stroke-width: 0.5"/>
   </g>
   <g id="line2d_48">
    <path d="M 85.03305 17.874286 
L 88.54845 17.874286 
" clip-path="url(#p139da41676)" style="fill: none; stroke: #999999; stroke-width: 0.5"/>
   </g>
   <g id="line2d_49">
    <path d="M 99.381621 27.112892 
L 102.897021 27.112892 
" clip-path="url(#p139da41676)" style="fill: none; stroke: #999999; stroke-width: 0.5"/>
   </g>
   <g id="line2d_50">
    <path d="M 113.730193 44.786375 
L 117.245593 44.786375 
" clip-path="url(#p139da41676)" style="fill: none; stroke: #999999; stroke-width: 0.5"/>
   </g>
   <g id="line2d_51">
    <path d="M 128.078764 21.743871 
L 131.594164 21.743871 
" clip-path="url(#p139da41676)" style="fill: none; stroke: #999999; stroke-width: 0.5"/>
   </g>
   <g id="patch_10">
    <path d="M 31.54875 62.64 
L 31.54875 7.2 
" style="fill: none; stroke: #000000; stroke-width: 0.5; stroke-linejoin: miter; stroke-linecap: square"/>
   </g>
   <g id="patch_11">
    <path d="M 36.57075 65.412 
L 137.01075 65.412 
" style="fill: none; stroke: #000000; stroke-width: 0.5; stroke-linejoin: miter; stroke-linecap: square"/>
   </g>
   <g id="legend_1"/>
  </g>
 </g>
 <defs>
  <clipPath id="p139da41676">
   <rect x="36.57075" y="7.2" width="100.44" height="55.44"/>
  </clipPath>
 </defs>
</svg>
