<?xml version="1.0" encoding="utf-8" standalone="no"?>
<!DOCTYPE svg PUBLIC "-//W3C//DTD SVG 1.1//EN"
  "http://www.w3.org/Graphics/SVG/1.1/DTD/svg11.dtd">
<svg xmlns:xlink="http://www.w3.org/1999/xlink" width="160.183125pt" height="126.067779pt" viewBox="0 0 160.183125 126.067779" xmlns="http://www.w3.org/2000/svg" version="1.1">
 <metadata>
  <rdf:RDF xmlns:dc="http://purl.org/dc/elements/1.1/" xmlns:cc="http://creativecommons.org/ns#" xmlns:rdf="http://www.w3.org/1999/02/22-rdf-syntax-ns#">
   <cc:Work>
    <dc:type rdf:resource="http://purl.org/dc/dcmitype/StillImage"/>
    <dc:date>2025-09-09T12:23:53.007864</dc:date>
    <dc:format>image/svg+xml</dc:format>
    <dc:creator>
     <cc:Agent>
      <dc:title>Matplotlib v3.9.2, https://matplotlib.org/</dc:title>
     </cc:Agent>
    </dc:creator>
   </cc:Work>
  </rdf:RDF>
 </metadata>
 <defs>
  <style type="text/css">*{stroke-linejoin: round; stroke-linecap: butt}</style>
 </defs>
 <g id="figure_1">
  <g id="patch_1">
   <path d="M 0 126.067779 
L 160.183125 126.067779 
L 160.183125 0 
L 0 0 
L 0 126.067779 
z
" style="fill: none"/>
  </g>
  <g id="axes_1">
   <g id="patch_2">
    <path d="M 46.05 81.816 
L 129.75 81.816 
L 129.75 26.376 
L 46.05 26.376 
L 46.05 81.816 
z
" style="fill: none"/>
   </g>
   <g id="patch_3">
    <path d="M 49.742647 186.619796 
L 49.742647 186.619796 
L 49.742647 186.619796 
L 49.742647 186.619796 
z
" clip-path="url(#pc1a96b3dc3)" style="fill: #df2020; stroke: #4c4c4c; stroke-width: 0.5; stroke-linejoin: miter"/>
   </g>
   <g id="patch_4">
    <path d="M 49.742647 186.619796 
L 49.742647 186.619796 
L 49.742647 186.619796 
L 49.742647 186.619796 
z
" clip-path="url(#pc1a96b3dc3)" style="fill: #ffffff; stroke: #4c4c4c; stroke-width: 0.5; stroke-linejoin: miter"/>
   </g>
   <g id="matplotlib.axis_1">
    <g id="xtick_1">
     <g id="line2d_1">
      <defs>
       <path id="mc72027b62c" d="M 0 0 
L 0 1.5 
" style="stroke: #000000; stroke-width: 0.3"/>
      </defs>
      <g>
       <use xlink:href="#mc72027b62c" x="49.742647" y="84.588" style="stroke: #000000; stroke-width: 0.3"/>
      </g>
     </g>
     <g id="text_1">
      <!-- ground -->
      <g transform="translate(40.825137 102.647621) rotate(-30) scale(0.06 -0.06)">
       <defs>
        <path id="ArialMT-67" d="M 319 -275 
L 866 -356 
Q 900 -609 1056 -725 
Q 1266 -881 1628 -881 
Q 2019 -881 2231 -725 
Q 2444 -569 2519 -288 
Q 2563 -116 2559 434 
Q 2191 0 1641 0 
Q 956 0 581 494 
Q 206 988 206 1678 
Q 206 2153 378 2554 
Q 550 2956 876 3175 
Q 1203 3394 1644 3394 
Q 2231 3394 2613 2919 
L 2613 3319 
L 3131 3319 
L 3131 450 
Q 3131 -325 2973 -648 
Q 2816 -972 2473 -1159 
Q 2131 -1347 1631 -1347 
Q 1038 -1347 672 -1080 
Q 306 -813 319 -275 
z
M 784 1719 
Q 784 1066 1043 766 
Q 1303 466 1694 466 
Q 2081 466 2343 764 
Q 2606 1063 2606 1700 
Q 2606 2309 2336 2618 
Q 2066 2928 1684 2928 
Q 1309 2928 1046 2623 
Q 784 2319 784 1719 
z
" transform="scale(0.015625)"/>
        <path id="ArialMT-72" d="M 416 0 
L 416 3319 
L 922 3319 
L 922 2816 
Q 1116 3169 1280 3281 
Q 1444 3394 1641 3394 
Q 1925 3394 2219 3213 
L 2025 2691 
Q 1819 2813 1613 2813 
Q 1428 2813 1281 2702 
Q 1134 2591 1072 2394 
Q 978 2094 978 1738 
L 978 0 
L 416 0 
z
" transform="scale(0.015625)"/>
        <path id="ArialMT-6f" d="M 213 1659 
Q 213 2581 725 3025 
Q 1153 3394 1769 3394 
Q 2453 3394 2887 2945 
Q 3322 2497 3322 1706 
Q 3322 1066 3130 698 
Q 2938 331 2570 128 
Q 2203 -75 1769 -75 
Q 1072 -75 642 372 
Q 213 819 213 1659 
z
M 791 1659 
Q 791 1022 1069 705 
Q 1347 388 1769 388 
Q 2188 388 2466 706 
Q 2744 1025 2744 1678 
Q 2744 2294 2464 2611 
Q 2184 2928 1769 2928 
Q 1347 2928 1069 2612 
Q 791 2297 791 1659 
z
" transform="scale(0.015625)"/>
        <path id="ArialMT-75" d="M 2597 0 
L 2597 488 
Q 2209 -75 1544 -75 
Q 1250 -75 995 37 
Q 741 150 617 320 
Q 494 491 444 738 
Q 409 903 409 1263 
L 409 3319 
L 972 3319 
L 972 1478 
Q 972 1038 1006 884 
Q 1059 663 1231 536 
Q 1403 409 1656 409 
Q 1909 409 2131 539 
Q 2353 669 2445 892 
Q 2538 1116 2538 1541 
L 2538 3319 
L 3100 3319 
L 3100 0 
L 2597 0 
z
" transform="scale(0.015625)"/>
        <path id="ArialMT-6e" d="M 422 0 
L 422 3319 
L 928 3319 
L 928 2847 
Q 1294 3394 1984 3394 
Q 2284 3394 2536 3286 
Q 2788 3178 2913 3003 
Q 3038 2828 3088 2588 
Q 3119 2431 3119 2041 
L 3119 0 
L 2556 0 
L 2556 2019 
Q 2556 2363 2490 2533 
Q 2425 2703 2258 2804 
Q 2091 2906 1866 2906 
Q 1506 2906 1245 2678 
Q 984 2450 984 1813 
L 984 0 
L 422 0 
z
" transform="scale(0.015625)"/>
        <path id="ArialMT-64" d="M 2575 0 
L 2575 419 
Q 2259 -75 1647 -75 
Q 1250 -75 917 144 
Q 584 363 401 755 
Q 219 1147 219 1656 
Q 219 2153 384 2558 
Q 550 2963 881 3178 
Q 1213 3394 1622 3394 
Q 1922 3394 2156 3267 
Q 2391 3141 2538 2938 
L 2538 4581 
L 3097 4581 
L 3097 0 
L 2575 0 
z
M 797 1656 
Q 797 1019 1065 703 
Q 1334 388 1700 388 
Q 2069 388 2326 689 
Q 2584 991 2584 1609 
Q 2584 2291 2321 2609 
Q 2059 2928 1675 2928 
Q 1300 2928 1048 2622 
Q 797 2316 797 1656 
z
" transform="scale(0.015625)"/>
       </defs>
       <use xlink:href="#ArialMT-67"/>
       <use xlink:href="#ArialMT-72" x="55.615234"/>
       <use xlink:href="#ArialMT-6f" x="88.916016"/>
       <use xlink:href="#ArialMT-75" x="144.53125"/>
       <use xlink:href="#ArialMT-6e" x="200.146484"/>
       <use xlink:href="#ArialMT-64" x="255.761719"/>
      </g>
      <!-- truth -->
      <g transform="translate(46.924121 106.535434) rotate(-30) scale(0.06 -0.06)">
       <defs>
        <path id="ArialMT-74" d="M 1650 503 
L 1731 6 
Q 1494 -44 1306 -44 
Q 1000 -44 831 53 
Q 663 150 594 308 
Q 525 466 525 972 
L 525 2881 
L 113 2881 
L 113 3319 
L 525 3319 
L 525 4141 
L 1084 4478 
L 1084 3319 
L 1650 3319 
L 1650 2881 
L 1084 2881 
L 1084 941 
Q 1084 700 1114 631 
Q 1144 563 1211 522 
Q 1278 481 1403 481 
Q 1497 481 1650 503 
z
" transform="scale(0.015625)"/>
        <path id="ArialMT-68" d="M 422 0 
L 422 4581 
L 984 4581 
L 984 2938 
Q 1378 3394 1978 3394 
Q 2347 3394 2619 3248 
Q 2891 3103 3008 2847 
Q 3125 2591 3125 2103 
L 3125 0 
L 2563 0 
L 2563 2103 
Q 2563 2525 2380 2717 
Q 2197 2909 1863 2909 
Q 1613 2909 1392 2779 
Q 1172 2650 1078 2428 
Q 984 2206 984 1816 
L 984 0 
L 422 0 
z
" transform="scale(0.015625)"/>
       </defs>
       <use xlink:href="#ArialMT-74"/>
       <use xlink:href="#ArialMT-72" x="27.783203"/>
       <use xlink:href="#ArialMT-75" x="61.083984"/>
       <use xlink:href="#ArialMT-74" x="116.699219"/>
       <use xlink:href="#ArialMT-68" x="144.482422"/>
      </g>
     </g>
    </g>
    <g id="xtick_2">
     <g id="line2d_2">
      <g>
       <use xlink:href="#mc72027b62c" x="62.051471" y="84.588" style="stroke: #000000; stroke-width: 0.3"/>
      </g>
     </g>
     <g id="text_2">
      <!-- KS4 -->
      <g transform="translate(57.916247 98.977777) rotate(-30) scale(0.06 -0.06)">
       <defs>
        <path id="ArialMT-4b" d="M 469 0 
L 469 4581 
L 1075 4581 
L 1075 2309 
L 3350 4581 
L 4172 4581 
L 2250 2725 
L 4256 0 
L 3456 0 
L 1825 2319 
L 1075 1588 
L 1075 0 
L 469 0 
z
" transform="scale(0.015625)"/>
        <path id="ArialMT-53" d="M 288 1472 
L 859 1522 
Q 900 1178 1048 958 
Q 1197 738 1509 602 
Q 1822 466 2213 466 
Q 2559 466 2825 569 
Q 3091 672 3220 851 
Q 3350 1031 3350 1244 
Q 3350 1459 3225 1620 
Q 3100 1781 2813 1891 
Q 2628 1963 1997 2114 
Q 1366 2266 1113 2400 
Q 784 2572 623 2826 
Q 463 3081 463 3397 
Q 463 3744 659 4045 
Q 856 4347 1234 4503 
Q 1613 4659 2075 4659 
Q 2584 4659 2973 4495 
Q 3363 4331 3572 4012 
Q 3781 3694 3797 3291 
L 3216 3247 
Q 3169 3681 2898 3903 
Q 2628 4125 2100 4125 
Q 1550 4125 1298 3923 
Q 1047 3722 1047 3438 
Q 1047 3191 1225 3031 
Q 1400 2872 2139 2705 
Q 2878 2538 3153 2413 
Q 3553 2228 3743 1945 
Q 3934 1663 3934 1294 
Q 3934 928 3725 604 
Q 3516 281 3123 101 
Q 2731 -78 2241 -78 
Q 1619 -78 1198 103 
Q 778 284 539 648 
Q 300 1013 288 1472 
z
" transform="scale(0.015625)"/>
        <path id="ArialMT-34" d="M 2069 0 
L 2069 1097 
L 81 1097 
L 81 1613 
L 2172 4581 
L 2631 4581 
L 2631 1613 
L 3250 1613 
L 3250 1097 
L 2631 1097 
L 2631 0 
L 2069 0 
z
M 2069 1613 
L 2069 3678 
L 634 1613 
L 2069 1613 
z
" transform="scale(0.015625)"/>
       </defs>
       <use xlink:href="#ArialMT-4b"/>
       <use xlink:href="#ArialMT-53" x="66.699219"/>
       <use xlink:href="#ArialMT-34" x="133.398438"/>
      </g>
     </g>
    </g>
    <g id="xtick_3">
     <g id="line2d_3">
      <g>
       <use xlink:href="#mc72027b62c" x="74.360294" y="84.588" style="stroke: #000000; stroke-width: 0.3"/>
      </g>
     </g>
     <g id="text_3">
      <!-- KS3 -->
      <g transform="translate(70.225071 98.977777) rotate(-30) scale(0.06 -0.06)">
       <defs>
        <path id="ArialMT-33" d="M 269 1209 
L 831 1284 
Q 928 806 1161 595 
Q 1394 384 1728 384 
Q 2125 384 2398 659 
Q 2672 934 2672 1341 
Q 2672 1728 2419 1979 
Q 2166 2231 1775 2231 
Q 1616 2231 1378 2169 
L 1441 2663 
Q 1497 2656 1531 2656 
Q 1891 2656 2178 2843 
Q 2466 3031 2466 3422 
Q 2466 3731 2256 3934 
Q 2047 4138 1716 4138 
Q 1388 4138 1169 3931 
Q 950 3725 888 3313 
L 325 3413 
Q 428 3978 793 4289 
Q 1159 4600 1703 4600 
Q 2078 4600 2393 4439 
Q 2709 4278 2876 4000 
Q 3044 3722 3044 3409 
Q 3044 3113 2884 2869 
Q 2725 2625 2413 2481 
Q 2819 2388 3044 2092 
Q 3269 1797 3269 1353 
Q 3269 753 2831 336 
Q 2394 -81 1725 -81 
Q 1122 -81 723 278 
Q 325 638 269 1209 
z
" transform="scale(0.015625)"/>
       </defs>
       <use xlink:href="#ArialMT-4b"/>
       <use xlink:href="#ArialMT-53" x="66.699219"/>
       <use xlink:href="#ArialMT-33" x="133.398438"/>
      </g>
     </g>
    </g>
    <g id="xtick_4">
     <g id="line2d_4">
      <g>
       <use xlink:href="#mc72027b62c" x="86.669118" y="84.588" style="stroke: #000000; stroke-width: 0.3"/>
      </g>
     </g>
     <g id="text_4">
      <!-- KS2.5 -->
      <g transform="translate(80.367343 101.479496) rotate(-30) scale(0.06 -0.06)">
       <defs>
        <path id="ArialMT-32" d="M 3222 541 
L 3222 0 
L 194 0 
Q 188 203 259 391 
Q 375 700 629 1000 
Q 884 1300 1366 1694 
Q 2113 2306 2375 2664 
Q 2638 3022 2638 3341 
Q 2638 3675 2398 3904 
Q 2159 4134 1775 4134 
Q 1369 4134 1125 3890 
Q 881 3647 878 3216 
L 300 3275 
Q 359 3922 746 4261 
Q 1134 4600 1788 4600 
Q 2447 4600 2831 4234 
Q 3216 3869 3216 3328 
Q 3216 3053 3103 2787 
Q 2991 2522 2730 2228 
Q 2469 1934 1863 1422 
Q 1356 997 1212 845 
Q 1069 694 975 541 
L 3222 541 
z
" transform="scale(0.015625)"/>
        <path id="ArialMT-2e" d="M 581 0 
L 581 641 
L 1222 641 
L 1222 0 
L 581 0 
z
" transform="scale(0.015625)"/>
        <path id="ArialMT-35" d="M 266 1200 
L 856 1250 
Q 922 819 1161 601 
Q 1400 384 1738 384 
Q 2144 384 2425 690 
Q 2706 997 2706 1503 
Q 2706 1984 2436 2262 
Q 2166 2541 1728 2541 
Q 1456 2541 1237 2417 
Q 1019 2294 894 2097 
L 366 2166 
L 809 4519 
L 3088 4519 
L 3088 3981 
L 1259 3981 
L 1013 2750 
Q 1425 3038 1878 3038 
Q 2478 3038 2890 2622 
Q 3303 2206 3303 1553 
Q 3303 931 2941 478 
Q 2500 -78 1738 -78 
Q 1113 -78 717 272 
Q 322 622 266 1200 
z
" transform="scale(0.015625)"/>
       </defs>
       <use xlink:href="#ArialMT-4b"/>
       <use xlink:href="#ArialMT-53" x="66.699219"/>
       <use xlink:href="#ArialMT-32" x="133.398438"/>
       <use xlink:href="#ArialMT-2e" x="189.013672"/>
       <use xlink:href="#ArialMT-35" x="216.796875"/>
      </g>
     </g>
    </g>
    <g id="xtick_5">
     <g id="line2d_5">
      <g>
       <use xlink:href="#mc72027b62c" x="98.977941" y="84.588" style="stroke: #000000; stroke-width: 0.3"/>
      </g>
     </g>
     <g id="text_5">
      <!-- KS2 -->
      <g transform="translate(94.842718 98.977777) rotate(-30) scale(0.06 -0.06)">
       <use xlink:href="#ArialMT-4b"/>
       <use xlink:href="#ArialMT-53" x="66.699219"/>
       <use xlink:href="#ArialMT-32" x="133.398438"/>
      </g>
     </g>
    </g>
    <g id="xtick_6">
     <g id="line2d_6">
      <g>
       <use xlink:href="#mc72027b62c" x="111.286765" y="84.588" style="stroke: #000000; stroke-width: 0.3"/>
      </g>
     </g>
     <g id="text_6">
      <!-- KS -->
      <g transform="translate(108.596316 97.309496) rotate(-30) scale(0.06 -0.06)">
       <use xlink:href="#ArialMT-4b"/>
       <use xlink:href="#ArialMT-53" x="66.699219"/>
      </g>
     </g>
    </g>
    <g id="xtick_7">
     <g id="line2d_7">
      <g>
       <use xlink:href="#mc72027b62c" x="123.595588" y="84.588" style="stroke: #000000; stroke-width: 0.3"/>
      </g>
     </g>
     <g id="text_7">
      <!-- HS -->
      <g transform="translate(120.761839 97.474965) rotate(-30) scale(0.06 -0.06)">
       <defs>
        <path id="ArialMT-48" d="M 513 0 
L 513 4581 
L 1119 4581 
L 1119 2700 
L 3500 2700 
L 3500 4581 
L 4106 4581 
L 4106 0 
L 3500 0 
L 3500 2159 
L 1119 2159 
L 1119 0 
L 513 0 
z
" transform="scale(0.015625)"/>
       </defs>
       <use xlink:href="#ArialMT-48"/>
       <use xlink:href="#ArialMT-53" x="72.216797"/>
      </g>
     </g>
    </g>
    <g id="text_8">
     <!-- Sampling scheme applied to ground truth -->
     <g transform="translate(33.203906 117.604967) scale(0.06 -0.06)">
      <defs>
       <path id="ArialMT-61" d="M 2588 409 
Q 2275 144 1986 34 
Q 1697 -75 1366 -75 
Q 819 -75 525 192 
Q 231 459 231 875 
Q 231 1119 342 1320 
Q 453 1522 633 1644 
Q 813 1766 1038 1828 
Q 1203 1872 1538 1913 
Q 2219 1994 2541 2106 
Q 2544 2222 2544 2253 
Q 2544 2597 2384 2738 
Q 2169 2928 1744 2928 
Q 1347 2928 1158 2789 
Q 969 2650 878 2297 
L 328 2372 
Q 403 2725 575 2942 
Q 747 3159 1072 3276 
Q 1397 3394 1825 3394 
Q 2250 3394 2515 3294 
Q 2781 3194 2906 3042 
Q 3031 2891 3081 2659 
Q 3109 2516 3109 2141 
L 3109 1391 
Q 3109 606 3145 398 
Q 3181 191 3288 0 
L 2700 0 
Q 2613 175 2588 409 
z
M 2541 1666 
Q 2234 1541 1622 1453 
Q 1275 1403 1131 1340 
Q 988 1278 909 1158 
Q 831 1038 831 891 
Q 831 666 1001 516 
Q 1172 366 1500 366 
Q 1825 366 2078 508 
Q 2331 650 2450 897 
Q 2541 1088 2541 1459 
L 2541 1666 
z
" transform="scale(0.015625)"/>
       <path id="ArialMT-6d" d="M 422 0 
L 422 3319 
L 925 3319 
L 925 2853 
Q 1081 3097 1340 3245 
Q 1600 3394 1931 3394 
Q 2300 3394 2536 3241 
Q 2772 3088 2869 2813 
Q 3263 3394 3894 3394 
Q 4388 3394 4653 3120 
Q 4919 2847 4919 2278 
L 4919 0 
L 4359 0 
L 4359 2091 
Q 4359 2428 4304 2576 
Q 4250 2725 4106 2815 
Q 3963 2906 3769 2906 
Q 3419 2906 3187 2673 
Q 2956 2441 2956 1928 
L 2956 0 
L 2394 0 
L 2394 2156 
Q 2394 2531 2256 2718 
Q 2119 2906 1806 2906 
Q 1569 2906 1367 2781 
Q 1166 2656 1075 2415 
Q 984 2175 984 1722 
L 984 0 
L 422 0 
z
" transform="scale(0.015625)"/>
       <path id="ArialMT-70" d="M 422 -1272 
L 422 3319 
L 934 3319 
L 934 2888 
Q 1116 3141 1344 3267 
Q 1572 3394 1897 3394 
Q 2322 3394 2647 3175 
Q 2972 2956 3137 2557 
Q 3303 2159 3303 1684 
Q 3303 1175 3120 767 
Q 2938 359 2589 142 
Q 2241 -75 1856 -75 
Q 1575 -75 1351 44 
Q 1128 163 984 344 
L 984 -1272 
L 422 -1272 
z
M 931 1641 
Q 931 1000 1190 694 
Q 1450 388 1819 388 
Q 2194 388 2461 705 
Q 2728 1022 2728 1688 
Q 2728 2322 2467 2637 
Q 2206 2953 1844 2953 
Q 1484 2953 1207 2617 
Q 931 2281 931 1641 
z
" transform="scale(0.015625)"/>
       <path id="ArialMT-6c" d="M 409 0 
L 409 4581 
L 972 4581 
L 972 0 
L 409 0 
z
" transform="scale(0.015625)"/>
       <path id="ArialMT-69" d="M 425 3934 
L 425 4581 
L 988 4581 
L 988 3934 
L 425 3934 
z
M 425 0 
L 425 3319 
L 988 3319 
L 988 0 
L 425 0 
z
" transform="scale(0.015625)"/>
       <path id="ArialMT-20" transform="scale(0.015625)"/>
       <path id="ArialMT-73" d="M 197 991 
L 753 1078 
Q 800 744 1014 566 
Q 1228 388 1613 388 
Q 2000 388 2187 545 
Q 2375 703 2375 916 
Q 2375 1106 2209 1216 
Q 2094 1291 1634 1406 
Q 1016 1563 777 1677 
Q 538 1791 414 1992 
Q 291 2194 291 2438 
Q 291 2659 392 2848 
Q 494 3038 669 3163 
Q 800 3259 1026 3326 
Q 1253 3394 1513 3394 
Q 1903 3394 2198 3281 
Q 2494 3169 2634 2976 
Q 2775 2784 2828 2463 
L 2278 2388 
Q 2241 2644 2061 2787 
Q 1881 2931 1553 2931 
Q 1166 2931 1000 2803 
Q 834 2675 834 2503 
Q 834 2394 903 2306 
Q 972 2216 1119 2156 
Q 1203 2125 1616 2013 
Q 2213 1853 2448 1751 
Q 2684 1650 2818 1456 
Q 2953 1263 2953 975 
Q 2953 694 2789 445 
Q 2625 197 2315 61 
Q 2006 -75 1616 -75 
Q 969 -75 630 194 
Q 291 463 197 991 
z
" transform="scale(0.015625)"/>
       <path id="ArialMT-63" d="M 2588 1216 
L 3141 1144 
Q 3050 572 2676 248 
Q 2303 -75 1759 -75 
Q 1078 -75 664 370 
Q 250 816 250 1647 
Q 250 2184 428 2587 
Q 606 2991 970 3192 
Q 1334 3394 1763 3394 
Q 2303 3394 2647 3120 
Q 2991 2847 3088 2344 
L 2541 2259 
Q 2463 2594 2264 2762 
Q 2066 2931 1784 2931 
Q 1359 2931 1093 2626 
Q 828 2322 828 1663 
Q 828 994 1084 691 
Q 1341 388 1753 388 
Q 2084 388 2306 591 
Q 2528 794 2588 1216 
z
" transform="scale(0.015625)"/>
       <path id="ArialMT-65" d="M 2694 1069 
L 3275 997 
Q 3138 488 2766 206 
Q 2394 -75 1816 -75 
Q 1088 -75 661 373 
Q 234 822 234 1631 
Q 234 2469 665 2931 
Q 1097 3394 1784 3394 
Q 2450 3394 2872 2941 
Q 3294 2488 3294 1666 
Q 3294 1616 3291 1516 
L 816 1516 
Q 847 969 1125 678 
Q 1403 388 1819 388 
Q 2128 388 2347 550 
Q 2566 713 2694 1069 
z
M 847 1978 
L 2700 1978 
Q 2663 2397 2488 2606 
Q 2219 2931 1791 2931 
Q 1403 2931 1139 2672 
Q 875 2413 847 1978 
z
" transform="scale(0.015625)"/>
      </defs>
      <use xlink:href="#ArialMT-53"/>
      <use xlink:href="#ArialMT-61" x="66.699219"/>
      <use xlink:href="#ArialMT-6d" x="122.314453"/>
      <use xlink:href="#ArialMT-70" x="205.615234"/>
      <use xlink:href="#ArialMT-6c" x="261.230469"/>
      <use xlink:href="#ArialMT-69" x="283.447266"/>
      <use xlink:href="#ArialMT-6e" x="305.664062"/>
      <use xlink:href="#ArialMT-67" x="361.279297"/>
      <use xlink:href="#ArialMT-20" x="416.894531"/>
      <use xlink:href="#ArialMT-73" x="444.677734"/>
      <use xlink:href="#ArialMT-63" x="494.677734"/>
      <use xlink:href="#ArialMT-68" x="544.677734"/>
      <use xlink:href="#ArialMT-65" x="600.292969"/>
      <use xlink:href="#ArialMT-6d" x="655.908203"/>
      <use xlink:href="#ArialMT-65" x="739.208984"/>
      <use xlink:href="#ArialMT-20" x="794.824219"/>
      <use xlink:href="#ArialMT-61" x="822.607422"/>
      <use xlink:href="#ArialMT-70" x="878.222656"/>
      <use xlink:href="#ArialMT-70" x="933.837891"/>
      <use xlink:href="#ArialMT-6c" x="989.453125"/>
      <use xlink:href="#ArialMT-69" x="1011.669922"/>
      <use xlink:href="#ArialMT-65" x="1033.886719"/>
      <use xlink:href="#ArialMT-64" x="1089.501953"/>
      <use xlink:href="#ArialMT-20" x="1145.117188"/>
      <use xlink:href="#ArialMT-74" x="1172.900391"/>
      <use xlink:href="#ArialMT-6f" x="1200.683594"/>
      <use xlink:href="#ArialMT-20" x="1256.298828"/>
      <use xlink:href="#ArialMT-67" x="1284.082031"/>
      <use xlink:href="#ArialMT-72" x="1339.697266"/>
      <use xlink:href="#ArialMT-6f" x="1372.998047"/>
      <use xlink:href="#ArialMT-75" x="1428.613281"/>
      <use xlink:href="#ArialMT-6e" x="1484.228516"/>
      <use xlink:href="#ArialMT-64" x="1539.84375"/>
      <use xlink:href="#ArialMT-20" x="1595.458984"/>
      <use xlink:href="#ArialMT-74" x="1623.242188"/>
      <use xlink:href="#ArialMT-72" x="1651.025391"/>
      <use xlink:href="#ArialMT-75" x="1684.326172"/>
      <use xlink:href="#ArialMT-74" x="1739.941406"/>
      <use xlink:href="#ArialMT-68" x="1767.724609"/>
     </g>
    </g>
   </g>
   <g id="matplotlib.axis_2">
    <g id="ytick_1">
     <g id="line2d_8">
      <defs>
       <path id="m80d4f3a725" d="M 0 0 
L -1.5 0 
" style="stroke: #000000; stroke-width: 0.3"/>
      </defs>
      <g>
       <use xlink:href="#m80d4f3a725" x="41.865" y="80.757376" style="stroke: #000000; stroke-width: 0.3"/>
      </g>
     </g>
     <g id="text_9">
      <!-- 1.0 -->
      <g transform="translate(28.525 82.90472) scale(0.06 -0.06)">
       <defs>
        <path id="ArialMT-31" d="M 2384 0 
L 1822 0 
L 1822 3584 
Q 1619 3391 1289 3197 
Q 959 3003 697 2906 
L 697 3450 
Q 1169 3672 1522 3987 
Q 1875 4303 2022 4600 
L 2384 4600 
L 2384 0 
z
" transform="scale(0.015625)"/>
        <path id="ArialMT-30" d="M 266 2259 
Q 266 3072 433 3567 
Q 600 4063 929 4331 
Q 1259 4600 1759 4600 
Q 2128 4600 2406 4451 
Q 2684 4303 2865 4023 
Q 3047 3744 3150 3342 
Q 3253 2941 3253 2259 
Q 3253 1453 3087 958 
Q 2922 463 2592 192 
Q 2263 -78 1759 -78 
Q 1097 -78 719 397 
Q 266 969 266 2259 
z
M 844 2259 
Q 844 1131 1108 757 
Q 1372 384 1759 384 
Q 2147 384 2411 759 
Q 2675 1134 2675 2259 
Q 2675 3391 2411 3762 
Q 2147 4134 1753 4134 
Q 1366 4134 1134 3806 
Q 844 3388 844 2259 
z
" transform="scale(0.015625)"/>
       </defs>
       <use xlink:href="#ArialMT-31"/>
       <use xlink:href="#ArialMT-2e" x="55.615234"/>
       <use xlink:href="#ArialMT-30" x="83.398438"/>
      </g>
     </g>
    </g>
    <g id="ytick_2">
     <g id="line2d_9">
      <g>
       <use xlink:href="#m80d4f3a725" x="41.865" y="59.584892" style="stroke: #000000; stroke-width: 0.3"/>
      </g>
     </g>
     <g id="text_10">
      <!-- 1.2 -->
      <g transform="translate(28.525 61.732235) scale(0.06 -0.06)">
       <use xlink:href="#ArialMT-31"/>
       <use xlink:href="#ArialMT-2e" x="55.615234"/>
       <use xlink:href="#ArialMT-32" x="83.398438"/>
      </g>
     </g>
    </g>
    <g id="ytick_3">
     <g id="line2d_10">
      <g>
       <use xlink:href="#m80d4f3a725" x="41.865" y="38.412408" style="stroke: #000000; stroke-width: 0.3"/>
      </g>
     </g>
     <g id="text_11">
      <!-- 1.4 -->
      <g transform="translate(28.525 40.559751) scale(0.06 -0.06)">
       <use xlink:href="#ArialMT-31"/>
       <use xlink:href="#ArialMT-2e" x="55.615234"/>
       <use xlink:href="#ArialMT-34" x="83.398438"/>
      </g>
     </g>
    </g>
    <g id="text_12">
     <!-- Manifold capacity / lower bound  -->
     <g transform="translate(16.758 96.950062) rotate(-90) scale(0.06 -0.06)">
      <defs>
       <path id="ArialMT-4d" d="M 475 0 
L 475 4581 
L 1388 4581 
L 2472 1338 
Q 2622 884 2691 659 
Q 2769 909 2934 1394 
L 4031 4581 
L 4847 4581 
L 4847 0 
L 4263 0 
L 4263 3834 
L 2931 0 
L 2384 0 
L 1059 3900 
L 1059 0 
L 475 0 
z
" transform="scale(0.015625)"/>
       <path id="ArialMT-66" d="M 556 0 
L 556 2881 
L 59 2881 
L 59 3319 
L 556 3319 
L 556 3672 
Q 556 4006 616 4169 
Q 697 4388 901 4523 
Q 1106 4659 1475 4659 
Q 1713 4659 2000 4603 
L 1916 4113 
Q 1741 4144 1584 4144 
Q 1328 4144 1222 4034 
Q 1116 3925 1116 3625 
L 1116 3319 
L 1763 3319 
L 1763 2881 
L 1116 2881 
L 1116 0 
L 556 0 
z
" transform="scale(0.015625)"/>
       <path id="ArialMT-79" d="M 397 -1278 
L 334 -750 
Q 519 -800 656 -800 
Q 844 -800 956 -737 
Q 1069 -675 1141 -563 
Q 1194 -478 1313 -144 
Q 1328 -97 1363 -6 
L 103 3319 
L 709 3319 
L 1400 1397 
Q 1534 1031 1641 628 
Q 1738 1016 1872 1384 
L 2581 3319 
L 3144 3319 
L 1881 -56 
Q 1678 -603 1566 -809 
Q 1416 -1088 1222 -1217 
Q 1028 -1347 759 -1347 
Q 597 -1347 397 -1278 
z
" transform="scale(0.015625)"/>
       <path id="ArialMT-2f" d="M 0 -78 
L 1328 4659 
L 1778 4659 
L 453 -78 
L 0 -78 
z
" transform="scale(0.015625)"/>
       <path id="ArialMT-77" d="M 1034 0 
L 19 3319 
L 600 3319 
L 1128 1403 
L 1325 691 
Q 1338 744 1497 1375 
L 2025 3319 
L 2603 3319 
L 3100 1394 
L 3266 759 
L 3456 1400 
L 4025 3319 
L 4572 3319 
L 3534 0 
L 2950 0 
L 2422 1988 
L 2294 2553 
L 1622 0 
L 1034 0 
z
" transform="scale(0.015625)"/>
       <path id="ArialMT-62" d="M 941 0 
L 419 0 
L 419 4581 
L 981 4581 
L 981 2947 
Q 1338 3394 1891 3394 
Q 2197 3394 2470 3270 
Q 2744 3147 2920 2923 
Q 3097 2700 3197 2384 
Q 3297 2069 3297 1709 
Q 3297 856 2875 390 
Q 2453 -75 1863 -75 
Q 1275 -75 941 416 
L 941 0 
z
M 934 1684 
Q 934 1088 1097 822 
Q 1363 388 1816 388 
Q 2184 388 2453 708 
Q 2722 1028 2722 1663 
Q 2722 2313 2464 2622 
Q 2206 2931 1841 2931 
Q 1472 2931 1203 2611 
Q 934 2291 934 1684 
z
" transform="scale(0.015625)"/>
      </defs>
      <use xlink:href="#ArialMT-4d"/>
      <use xlink:href="#ArialMT-61" x="83.300781"/>
      <use xlink:href="#ArialMT-6e" x="138.916016"/>
      <use xlink:href="#ArialMT-69" x="194.53125"/>
      <use xlink:href="#ArialMT-66" x="216.748047"/>
      <use xlink:href="#ArialMT-6f" x="244.53125"/>
      <use xlink:href="#ArialMT-6c" x="300.146484"/>
      <use xlink:href="#ArialMT-64" x="322.363281"/>
      <use xlink:href="#ArialMT-20" x="377.978516"/>
      <use xlink:href="#ArialMT-63" x="405.761719"/>
      <use xlink:href="#ArialMT-61" x="455.761719"/>
      <use xlink:href="#ArialMT-70" x="511.376953"/>
      <use xlink:href="#ArialMT-61" x="566.992188"/>
      <use xlink:href="#ArialMT-63" x="622.607422"/>
      <use xlink:href="#ArialMT-69" x="672.607422"/>
      <use xlink:href="#ArialMT-74" x="694.824219"/>
      <use xlink:href="#ArialMT-79" x="722.607422"/>
      <use xlink:href="#ArialMT-20" x="772.607422"/>
      <use xlink:href="#ArialMT-2f" x="800.390625"/>
      <use xlink:href="#ArialMT-20" x="828.173828"/>
      <use xlink:href="#ArialMT-6c" x="855.957031"/>
      <use xlink:href="#ArialMT-6f" x="878.173828"/>
      <use xlink:href="#ArialMT-77" x="933.789062"/>
      <use xlink:href="#ArialMT-65" x="1006.005859"/>
      <use xlink:href="#ArialMT-72" x="1061.621094"/>
      <use xlink:href="#ArialMT-20" x="1094.921875"/>
      <use xlink:href="#ArialMT-62" x="1122.705078"/>
      <use xlink:href="#ArialMT-6f" x="1178.320312"/>
      <use xlink:href="#ArialMT-75" x="1233.935547"/>
      <use xlink:href="#ArialMT-6e" x="1289.550781"/>
      <use xlink:href="#ArialMT-64" x="1345.166016"/>
      <use xlink:href="#ArialMT-20" x="1400.78125"/>
     </g>
     <!-- (ratio) -->
     <g transform="translate(23.262188 61.929281) rotate(-90) scale(0.06 -0.06)">
      <defs>
       <path id="ArialMT-28" d="M 1497 -1347 
Q 1031 -759 709 28 
Q 388 816 388 1659 
Q 388 2403 628 3084 
Q 909 3875 1497 4659 
L 1900 4659 
Q 1522 4009 1400 3731 
Q 1209 3300 1100 2831 
Q 966 2247 966 1656 
Q 966 153 1900 -1347 
L 1497 -1347 
z
" transform="scale(0.015625)"/>
       <path id="ArialMT-29" d="M 791 -1347 
L 388 -1347 
Q 1322 153 1322 1656 
Q 1322 2244 1188 2822 
Q 1081 3291 891 3722 
Q 769 4003 388 4659 
L 791 4659 
Q 1378 3875 1659 3084 
Q 1900 2403 1900 1659 
Q 1900 816 1576 28 
Q 1253 -759 791 -1347 
z
" transform="scale(0.015625)"/>
      </defs>
      <use xlink:href="#ArialMT-28"/>
      <use xlink:href="#ArialMT-72" x="33.300781"/>
      <use xlink:href="#ArialMT-61" x="66.601562"/>
      <use xlink:href="#ArialMT-74" x="122.216797"/>
      <use xlink:href="#ArialMT-69" x="150"/>
      <use xlink:href="#ArialMT-6f" x="172.216797"/>
      <use xlink:href="#ArialMT-29" x="227.832031"/>
     </g>
    </g>
   </g>
   <g id="LineCollection_1">
    <path d="M 43.588235 80.757376 
L 129.75 80.757376 
" clip-path="url(#pc1a96b3dc3)" style="fill: none; stroke-dasharray: 1.85,0.8; stroke-dashoffset: 0; stroke: #00b2ff; stroke-width: 0.5"/>
   </g>
   <g id="LineCollection_2">
    <path d="M 43.588235 54.156695 
L 129.75 54.156695 
" clip-path="url(#pc1a96b3dc3)" style="fill: none; stroke-dasharray: 1.85,0.8; stroke-dashoffset: 0; stroke: #ff0000; stroke-width: 0.5"/>
   </g>
   <g id="patch_5">
    <path d="M 46.080772 57.42441 
L 49.096434 57.42441 
L 49.096434 55.100371 
L 48.342518 54.427664 
L 49.096434 53.754957 
L 49.096434 51.364847 
L 46.080772 51.364847 
L 46.080772 53.754957 
L 46.834688 54.427664 
L 46.080772 55.100371 
L 46.080772 57.42441 
z
" clip-path="url(#pc1a96b3dc3)" style="fill: #df2020; stroke: #4c4c4c; stroke-width: 0.5; stroke-linejoin: miter"/>
   </g>
   <g id="line2d_11">
    <path d="M 47.588603 57.42441 
L 47.588603 64.452939 
" clip-path="url(#pc1a96b3dc3)" style="fill: none; stroke: #4c4c4c; stroke-width: 0.5"/>
   </g>
   <g id="line2d_12">
    <path d="M 47.588603 51.364847 
L 47.588603 43.556996 
" clip-path="url(#pc1a96b3dc3)" style="fill: none; stroke: #4c4c4c; stroke-width: 0.5"/>
   </g>
   <g id="line2d_13">
    <path d="M 46.834688 64.452939 
L 48.342518 64.452939 
" clip-path="url(#pc1a96b3dc3)" style="fill: none; stroke: #4c4c4c; stroke-width: 0.5; stroke-linecap: square"/>
   </g>
   <g id="line2d_14">
    <path d="M 46.834688 43.556996 
L 48.342518 43.556996 
" clip-path="url(#pc1a96b3dc3)" style="fill: none; stroke: #4c4c4c; stroke-width: 0.5; stroke-linecap: square"/>
   </g>
   <g id="line2d_15"/>
   <g id="patch_6">
    <path d="M 58.389596 58.726106 
L 61.405257 58.726106 
L 61.405257 55.111686 
L 60.651342 54.160369 
L 61.405257 53.209051 
L 61.405257 50.156896 
L 58.389596 50.156896 
L 58.389596 53.209051 
L 59.143511 54.160369 
L 58.389596 55.111686 
L 58.389596 58.726106 
z
" clip-path="url(#pc1a96b3dc3)" style="fill: #df2020; stroke: #4c4c4c; stroke-width: 0.5; stroke-linejoin: miter"/>
   </g>
   <g id="line2d_16">
    <path d="M 59.897426 58.726106 
L 59.897426 69.594137 
" clip-path="url(#pc1a96b3dc3)" style="fill: none; stroke: #4c4c4c; stroke-width: 0.5"/>
   </g>
   <g id="line2d_17">
    <path d="M 59.897426 50.156896 
L 59.897426 39.420883 
" clip-path="url(#pc1a96b3dc3)" style="fill: none; stroke: #4c4c4c; stroke-width: 0.5"/>
   </g>
   <g id="line2d_18">
    <path d="M 59.143511 69.594137 
L 60.651342 69.594137 
" clip-path="url(#pc1a96b3dc3)" style="fill: none; stroke: #4c4c4c; stroke-width: 0.5; stroke-linecap: square"/>
   </g>
   <g id="line2d_19">
    <path d="M 59.143511 39.420883 
L 60.651342 39.420883 
" clip-path="url(#pc1a96b3dc3)" style="fill: none; stroke: #4c4c4c; stroke-width: 0.5; stroke-linecap: square"/>
   </g>
   <g id="line2d_20">
    <defs>
     <path id="m9ff44cba6a" d="M 0 0.75 
C 0.198902 0.75 0.389685 0.670975 0.53033 0.53033 
C 0.670975 0.389685 0.75 0.198902 0.75 0 
C 0.75 -0.198902 0.670975 -0.389685 0.53033 -0.53033 
C 0.389685 -0.670975 0.198902 -0.75 0 -0.75 
C -0.198902 -0.75 -0.389685 -0.670975 -0.53033 -0.53033 
C -0.670975 -0.389685 -0.75 -0.198902 -0.75 0 
C -0.75 0.198902 -0.670975 0.389685 -0.53033 0.53033 
C -0.389685 0.670975 -0.198902 0.75 0 0.75 
z
" style="stroke: #4c4c4c; stroke-width: 0.5"/>
    </defs>
    <g clip-path="url(#pc1a96b3dc3)">
     <use xlink:href="#m9ff44cba6a" x="59.897426" y="34.100113" style="fill: #ffffff; stroke: #4c4c4c; stroke-width: 0.5"/>
    </g>
   </g>
   <g id="patch_7">
    <path d="M 70.698419 58.810089 
L 73.714081 58.810089 
L 73.714081 55.171996 
L 72.960165 54.179336 
L 73.714081 53.186675 
L 73.714081 49.868472 
L 70.698419 49.868472 
L 70.698419 53.186675 
L 71.452335 54.179336 
L 70.698419 55.171996 
L 70.698419 58.810089 
z
" clip-path="url(#pc1a96b3dc3)" style="fill: #df2020; stroke: #4c4c4c; stroke-width: 0.5; stroke-linejoin: miter"/>
   </g>
   <g id="line2d_21">
    <path d="M 72.20625 58.810089 
L 72.20625 71.575538 
" clip-path="url(#pc1a96b3dc3)" style="fill: none; stroke: #4c4c4c; stroke-width: 0.5"/>
   </g>
   <g id="line2d_22">
    <path d="M 72.20625 49.868472 
L 72.20625 37.00869 
" clip-path="url(#pc1a96b3dc3)" style="fill: none; stroke: #4c4c4c; stroke-width: 0.5"/>
   </g>
   <g id="line2d_23">
    <path d="M 71.452335 71.575538 
L 72.960165 71.575538 
" clip-path="url(#pc1a96b3dc3)" style="fill: none; stroke: #4c4c4c; stroke-width: 0.5; stroke-linecap: square"/>
   </g>
   <g id="line2d_24">
    <path d="M 71.452335 37.00869 
L 72.960165 37.00869 
" clip-path="url(#pc1a96b3dc3)" style="fill: none; stroke: #4c4c4c; stroke-width: 0.5; stroke-linecap: square"/>
   </g>
   <g id="line2d_25"/>
   <g id="patch_8">
    <path d="M 83.007243 60.239674 
L 86.022904 60.239674 
L 86.022904 55.253347 
L 85.268989 53.849931 
L 86.022904 52.446515 
L 86.022904 47.598082 
L 83.007243 47.598082 
L 83.007243 52.446515 
L 83.761158 53.849931 
L 83.007243 55.253347 
L 83.007243 60.239674 
z
" clip-path="url(#pc1a96b3dc3)" style="fill: #df2020; stroke: #4c4c4c; stroke-width: 0.5; stroke-linejoin: miter"/>
   </g>
   <g id="line2d_26">
    <path d="M 84.515074 60.239674 
L 84.515074 73.115823 
" clip-path="url(#pc1a96b3dc3)" style="fill: none; stroke: #4c4c4c; stroke-width: 0.5"/>
   </g>
   <g id="line2d_27">
    <path d="M 84.515074 47.598082 
L 84.515074 31.890529 
" clip-path="url(#pc1a96b3dc3)" style="fill: none; stroke: #4c4c4c; stroke-width: 0.5"/>
   </g>
   <g id="line2d_28">
    <path d="M 83.761158 73.115823 
L 85.268989 73.115823 
" clip-path="url(#pc1a96b3dc3)" style="fill: none; stroke: #4c4c4c; stroke-width: 0.5; stroke-linecap: square"/>
   </g>
   <g id="line2d_29">
    <path d="M 83.761158 31.890529 
L 85.268989 31.890529 
" clip-path="url(#pc1a96b3dc3)" style="fill: none; stroke: #4c4c4c; stroke-width: 0.5; stroke-linecap: square"/>
   </g>
   <g id="line2d_30"/>
   <g id="patch_9">
    <path d="M 95.316066 58.385023 
L 98.331728 58.385023 
L 98.331728 54.229223 
L 97.577813 53.273948 
L 98.331728 52.318673 
L 98.331728 49.780166 
L 95.316066 49.780166 
L 95.316066 52.318673 
L 96.069982 53.273948 
L 95.316066 54.229223 
L 95.316066 58.385023 
z
" clip-path="url(#pc1a96b3dc3)" style="fill: #df2020; stroke: #4c4c4c; stroke-width: 0.5; stroke-linejoin: miter"/>
   </g>
   <g id="line2d_31">
    <path d="M 96.823897 58.385023 
L 96.823897 67.757137 
" clip-path="url(#pc1a96b3dc3)" style="fill: none; stroke: #4c4c4c; stroke-width: 0.5"/>
   </g>
   <g id="line2d_32">
    <path d="M 96.823897 49.780166 
L 96.823897 37.714293 
" clip-path="url(#pc1a96b3dc3)" style="fill: none; stroke: #4c4c4c; stroke-width: 0.5"/>
   </g>
   <g id="line2d_33">
    <path d="M 96.069982 67.757137 
L 97.577812 67.757137 
" clip-path="url(#pc1a96b3dc3)" style="fill: none; stroke: #4c4c4c; stroke-width: 0.5; stroke-linecap: square"/>
   </g>
   <g id="line2d_34">
    <path d="M 96.069982 37.714293 
L 97.577812 37.714293 
" clip-path="url(#pc1a96b3dc3)" style="fill: none; stroke: #4c4c4c; stroke-width: 0.5; stroke-linecap: square"/>
   </g>
   <g id="line2d_35">
    <g clip-path="url(#pc1a96b3dc3)">
     <use xlink:href="#m9ff44cba6a" x="96.823897" y="35.932305" style="fill: #ffffff; stroke: #4c4c4c; stroke-width: 0.5"/>
    </g>
   </g>
   <g id="patch_10">
    <path d="M 107.62489 57.189169 
L 110.640551 57.189169 
L 110.640551 54.702242 
L 109.886636 54.012147 
L 110.640551 53.322053 
L 110.640551 50.972985 
L 107.62489 50.972985 
L 107.62489 53.322053 
L 108.378805 54.012147 
L 107.62489 54.702242 
L 107.62489 57.189169 
z
" clip-path="url(#pc1a96b3dc3)" style="fill: #df2020; stroke: #4c4c4c; stroke-width: 0.5; stroke-linejoin: miter"/>
   </g>
   <g id="line2d_36">
    <path d="M 109.132721 57.189169 
L 109.132721 65.335516 
" clip-path="url(#pc1a96b3dc3)" style="fill: none; stroke: #4c4c4c; stroke-width: 0.5"/>
   </g>
   <g id="line2d_37">
    <path d="M 109.132721 50.972985 
L 109.132721 43.532514 
" clip-path="url(#pc1a96b3dc3)" style="fill: none; stroke: #4c4c4c; stroke-width: 0.5"/>
   </g>
   <g id="line2d_38">
    <path d="M 108.378805 65.335516 
L 109.886636 65.335516 
" clip-path="url(#pc1a96b3dc3)" style="fill: none; stroke: #4c4c4c; stroke-width: 0.5; stroke-linecap: square"/>
   </g>
   <g id="line2d_39">
    <path d="M 108.378805 43.532514 
L 109.886636 43.532514 
" clip-path="url(#pc1a96b3dc3)" style="fill: none; stroke: #4c4c4c; stroke-width: 0.5; stroke-linecap: square"/>
   </g>
   <g id="line2d_40">
    <g clip-path="url(#pc1a96b3dc3)">
     <use xlink:href="#m9ff44cba6a" x="109.132721" y="40.242242" style="fill: #ffffff; stroke: #4c4c4c; stroke-width: 0.5"/>
     <use xlink:href="#m9ff44cba6a" x="109.132721" y="40.405141" style="fill: #ffffff; stroke: #4c4c4c; stroke-width: 0.5"/>
    </g>
   </g>
   <g id="patch_11">
    <path d="M 119.933713 58.367838 
L 122.949375 58.367838 
L 122.949375 54.9435 
L 122.19546 53.975611 
L 122.949375 53.007723 
L 122.949375 49.649362 
L 119.933713 49.649362 
L 119.933713 53.007723 
L 120.687629 53.975611 
L 119.933713 54.9435 
L 119.933713 58.367838 
z
" clip-path="url(#pc1a96b3dc3)" style="fill: #df2020; stroke: #4c4c4c; stroke-width: 0.5; stroke-linejoin: miter"/>
   </g>
   <g id="line2d_41">
    <path d="M 121.441544 58.367838 
L 121.441544 70.638353 
" clip-path="url(#pc1a96b3dc3)" style="fill: none; stroke: #4c4c4c; stroke-width: 0.5"/>
   </g>
   <g id="line2d_42">
    <path d="M 121.441544 49.649362 
L 121.441544 38.724083 
" clip-path="url(#pc1a96b3dc3)" style="fill: none; stroke: #4c4c4c; stroke-width: 0.5"/>
   </g>
   <g id="line2d_43">
    <path d="M 120.687629 70.638353 
L 122.19546 70.638353 
" clip-path="url(#pc1a96b3dc3)" style="fill: none; stroke: #4c4c4c; stroke-width: 0.5; stroke-linecap: square"/>
   </g>
   <g id="line2d_44">
    <path d="M 120.687629 38.724083 
L 122.19546 38.724083 
" clip-path="url(#pc1a96b3dc3)" style="fill: none; stroke: #4c4c4c; stroke-width: 0.5; stroke-linecap: square"/>
   </g>
   <g id="line2d_45">
    <g clip-path="url(#pc1a96b3dc3)">
     <use xlink:href="#m9ff44cba6a" x="121.441544" y="72.79398" style="fill: #ffffff; stroke: #4c4c4c; stroke-width: 0.5"/>
     <use xlink:href="#m9ff44cba6a" x="121.441544" y="75.903243" style="fill: #ffffff; stroke: #4c4c4c; stroke-width: 0.5"/>
     <use xlink:href="#m9ff44cba6a" x="121.441544" y="33.815155" style="fill: #ffffff; stroke: #4c4c4c; stroke-width: 0.5"/>
     <use xlink:href="#m9ff44cba6a" x="121.441544" y="36.109511" style="fill: #ffffff; stroke: #4c4c4c; stroke-width: 0.5"/>
     <use xlink:href="#m9ff44cba6a" x="121.441544" y="28.825912" style="fill: #ffffff; stroke: #4c4c4c; stroke-width: 0.5"/>
    </g>
   </g>
   <g id="patch_12">
    <path d="M 62.697684 65.962787 
L 65.713346 65.962787 
L 65.713346 63.30887 
L 64.95943 62.412399 
L 65.713346 61.515927 
L 65.713346 57.887616 
L 62.697684 57.887616 
L 62.697684 61.515927 
L 63.451599 62.412399 
L 62.697684 63.30887 
L 62.697684 65.962787 
z
" clip-path="url(#pc1a96b3dc3)" style="fill: #ffffff; stroke: #4c4c4c; stroke-width: 0.5; stroke-linejoin: miter"/>
   </g>
   <g id="line2d_46">
    <path d="M 64.205515 65.962787 
L 64.205515 76.65819 
" clip-path="url(#pc1a96b3dc3)" style="fill: none; stroke: #4c4c4c; stroke-width: 0.5"/>
   </g>
   <g id="line2d_47">
    <path d="M 64.205515 57.887616 
L 64.205515 46.95773 
" clip-path="url(#pc1a96b3dc3)" style="fill: none; stroke: #4c4c4c; stroke-width: 0.5"/>
   </g>
   <g id="line2d_48">
    <path d="M 63.451599 76.65819 
L 64.95943 76.65819 
" clip-path="url(#pc1a96b3dc3)" style="fill: none; stroke: #4c4c4c; stroke-width: 0.5; stroke-linecap: square"/>
   </g>
   <g id="line2d_49">
    <path d="M 63.451599 46.95773 
L 64.95943 46.95773 
" clip-path="url(#pc1a96b3dc3)" style="fill: none; stroke: #4c4c4c; stroke-width: 0.5; stroke-linecap: square"/>
   </g>
   <g id="line2d_50">
    <g clip-path="url(#pc1a96b3dc3)">
     <use xlink:href="#m9ff44cba6a" x="64.205515" y="44.28679" style="fill: #ffffff; stroke: #4c4c4c; stroke-width: 0.5"/>
    </g>
   </g>
   <g id="patch_13">
    <path d="M 75.006507 63.015032 
L 78.022169 63.015032 
L 78.022169 60.11487 
L 77.268254 59.292709 
L 78.022169 58.470548 
L 78.022169 55.609229 
L 75.006507 55.609229 
L 75.006507 58.470548 
L 75.760423 59.292709 
L 75.006507 60.11487 
L 75.006507 63.015032 
z
" clip-path="url(#pc1a96b3dc3)" style="fill: #ffffff; stroke: #4c4c4c; stroke-width: 0.5; stroke-linejoin: miter"/>
   </g>
   <g id="line2d_51">
    <path d="M 76.514338 63.015032 
L 76.514338 69.862884 
" clip-path="url(#pc1a96b3dc3)" style="fill: none; stroke: #4c4c4c; stroke-width: 0.5"/>
   </g>
   <g id="line2d_52">
    <path d="M 76.514338 55.609229 
L 76.514338 44.788602 
" clip-path="url(#pc1a96b3dc3)" style="fill: none; stroke: #4c4c4c; stroke-width: 0.5"/>
   </g>
   <g id="line2d_53">
    <path d="M 75.760423 69.862884 
L 77.268254 69.862884 
" clip-path="url(#pc1a96b3dc3)" style="fill: none; stroke: #4c4c4c; stroke-width: 0.5; stroke-linecap: square"/>
   </g>
   <g id="line2d_54">
    <path d="M 75.760423 44.788602 
L 77.268254 44.788602 
" clip-path="url(#pc1a96b3dc3)" style="fill: none; stroke: #4c4c4c; stroke-width: 0.5; stroke-linecap: square"/>
   </g>
   <g id="line2d_55">
    <g clip-path="url(#pc1a96b3dc3)">
     <use xlink:href="#m9ff44cba6a" x="76.514338" y="44.144035" style="fill: #ffffff; stroke: #4c4c4c; stroke-width: 0.5"/>
     <use xlink:href="#m9ff44cba6a" x="76.514338" y="43.048141" style="fill: #ffffff; stroke: #4c4c4c; stroke-width: 0.5"/>
     <use xlink:href="#m9ff44cba6a" x="76.514338" y="42.430813" style="fill: #ffffff; stroke: #4c4c4c; stroke-width: 0.5"/>
    </g>
   </g>
   <g id="patch_14">
    <path d="M 87.315331 62.220678 
L 90.330993 62.220678 
L 90.330993 59.791167 
L 89.577077 58.991092 
L 90.330993 58.191017 
L 90.330993 55.01382 
L 87.315331 55.01382 
L 87.315331 58.191017 
L 88.069246 58.991092 
L 87.315331 59.791167 
L 87.315331 62.220678 
z
" clip-path="url(#pc1a96b3dc3)" style="fill: #ffffff; stroke: #4c4c4c; stroke-width: 0.5; stroke-linejoin: miter"/>
   </g>
   <g id="line2d_56">
    <path d="M 88.823162 62.220678 
L 88.823162 72.281525 
" clip-path="url(#pc1a96b3dc3)" style="fill: none; stroke: #4c4c4c; stroke-width: 0.5"/>
   </g>
   <g id="line2d_57">
    <path d="M 88.823162 55.01382 
L 88.823162 44.921282 
" clip-path="url(#pc1a96b3dc3)" style="fill: none; stroke: #4c4c4c; stroke-width: 0.5"/>
   </g>
   <g id="line2d_58">
    <path d="M 88.069246 72.281525 
L 89.577077 72.281525 
" clip-path="url(#pc1a96b3dc3)" style="fill: none; stroke: #4c4c4c; stroke-width: 0.5; stroke-linecap: square"/>
   </g>
   <g id="line2d_59">
    <path d="M 88.069246 44.921282 
L 89.577077 44.921282 
" clip-path="url(#pc1a96b3dc3)" style="fill: none; stroke: #4c4c4c; stroke-width: 0.5; stroke-linecap: square"/>
   </g>
   <g id="line2d_60">
    <g clip-path="url(#pc1a96b3dc3)">
     <use xlink:href="#m9ff44cba6a" x="88.823162" y="76.40116" style="fill: #ffffff; stroke: #4c4c4c; stroke-width: 0.5"/>
     <use xlink:href="#m9ff44cba6a" x="88.823162" y="73.684229" style="fill: #ffffff; stroke: #4c4c4c; stroke-width: 0.5"/>
     <use xlink:href="#m9ff44cba6a" x="88.823162" y="43.314889" style="fill: #ffffff; stroke: #4c4c4c; stroke-width: 0.5"/>
    </g>
   </g>
   <g id="patch_15">
    <path d="M 99.624154 65.58346 
L 102.639816 65.58346 
L 102.639816 63.194508 
L 101.885901 62.483129 
L 102.639816 61.771751 
L 102.639816 59.175555 
L 99.624154 59.175555 
L 99.624154 61.771751 
L 100.37807 62.483129 
L 99.624154 63.194508 
L 99.624154 65.58346 
z
" clip-path="url(#pc1a96b3dc3)" style="fill: #ffffff; stroke: #4c4c4c; stroke-width: 0.5; stroke-linejoin: miter"/>
   </g>
   <g id="line2d_61">
    <path d="M 101.131985 65.58346 
L 101.131985 75.060978 
" clip-path="url(#pc1a96b3dc3)" style="fill: none; stroke: #4c4c4c; stroke-width: 0.5"/>
   </g>
   <g id="line2d_62">
    <path d="M 101.131985 59.175555 
L 101.131985 51.588811 
" clip-path="url(#pc1a96b3dc3)" style="fill: none; stroke: #4c4c4c; stroke-width: 0.5"/>
   </g>
   <g id="line2d_63">
    <path d="M 100.37807 75.060978 
L 101.885901 75.060978 
" clip-path="url(#pc1a96b3dc3)" style="fill: none; stroke: #4c4c4c; stroke-width: 0.5; stroke-linecap: square"/>
   </g>
   <g id="line2d_64">
    <path d="M 100.37807 51.588811 
L 101.885901 51.588811 
" clip-path="url(#pc1a96b3dc3)" style="fill: none; stroke: #4c4c4c; stroke-width: 0.5; stroke-linecap: square"/>
   </g>
   <g id="line2d_65">
    <g clip-path="url(#pc1a96b3dc3)">
     <use xlink:href="#m9ff44cba6a" x="101.131985" y="77.824161" style="fill: #ffffff; stroke: #4c4c4c; stroke-width: 0.5"/>
     <use xlink:href="#m9ff44cba6a" x="101.131985" y="47.285263" style="fill: #ffffff; stroke: #4c4c4c; stroke-width: 0.5"/>
     <use xlink:href="#m9ff44cba6a" x="101.131985" y="47.986663" style="fill: #ffffff; stroke: #4c4c4c; stroke-width: 0.5"/>
     <use xlink:href="#m9ff44cba6a" x="101.131985" y="45.939149" style="fill: #ffffff; stroke: #4c4c4c; stroke-width: 0.5"/>
    </g>
   </g>
   <g id="patch_16">
    <path d="M 111.932978 60.970409 
L 114.94864 60.970409 
L 114.94864 58.469381 
L 114.194724 57.834935 
L 114.94864 57.200489 
L 114.94864 55.255492 
L 111.932978 55.255492 
L 111.932978 57.200489 
L 112.686893 57.834935 
L 111.932978 58.469381 
L 111.932978 60.970409 
z
" clip-path="url(#pc1a96b3dc3)" style="fill: #ffffff; stroke: #4c4c4c; stroke-width: 0.5; stroke-linejoin: miter"/>
   </g>
   <g id="line2d_66">
    <path d="M 113.440809 60.970409 
L 113.440809 69.165603 
" clip-path="url(#pc1a96b3dc3)" style="fill: none; stroke: #4c4c4c; stroke-width: 0.5"/>
   </g>
   <g id="line2d_67">
    <path d="M 113.440809 55.255492 
L 113.440809 47.702762 
" clip-path="url(#pc1a96b3dc3)" style="fill: none; stroke: #4c4c4c; stroke-width: 0.5"/>
   </g>
   <g id="line2d_68">
    <path d="M 112.686893 69.165603 
L 114.194724 69.165603 
" clip-path="url(#pc1a96b3dc3)" style="fill: none; stroke: #4c4c4c; stroke-width: 0.5; stroke-linecap: square"/>
   </g>
   <g id="line2d_69">
    <path d="M 112.686893 47.702762 
L 114.194724 47.702762 
" clip-path="url(#pc1a96b3dc3)" style="fill: none; stroke: #4c4c4c; stroke-width: 0.5; stroke-linecap: square"/>
   </g>
   <g id="line2d_70">
    <g clip-path="url(#pc1a96b3dc3)">
     <use xlink:href="#m9ff44cba6a" x="113.440809" y="46.219616" style="fill: #ffffff; stroke: #4c4c4c; stroke-width: 0.5"/>
    </g>
   </g>
   <g id="patch_17">
    <path d="M 124.241801 61.618316 
L 127.257463 61.618316 
L 127.257463 59.421753 
L 126.503548 58.582549 
L 127.257463 57.743344 
L 127.257463 54.058988 
L 124.241801 54.058988 
L 124.241801 57.743344 
L 124.995717 58.582549 
L 124.241801 59.421753 
L 124.241801 61.618316 
z
" clip-path="url(#pc1a96b3dc3)" style="fill: #ffffff; stroke: #4c4c4c; stroke-width: 0.5; stroke-linejoin: miter"/>
   </g>
   <g id="line2d_71">
    <path d="M 125.749632 61.618316 
L 125.749632 72.487017 
" clip-path="url(#pc1a96b3dc3)" style="fill: none; stroke: #4c4c4c; stroke-width: 0.5"/>
   </g>
   <g id="line2d_72">
    <path d="M 125.749632 54.058988 
L 125.749632 42.847839 
" clip-path="url(#pc1a96b3dc3)" style="fill: none; stroke: #4c4c4c; stroke-width: 0.5"/>
   </g>
   <g id="line2d_73">
    <path d="M 124.995717 72.487017 
L 126.503548 72.487017 
" clip-path="url(#pc1a96b3dc3)" style="fill: none; stroke: #4c4c4c; stroke-width: 0.5; stroke-linecap: square"/>
   </g>
   <g id="line2d_74">
    <path d="M 124.995717 42.847839 
L 126.503548 42.847839 
" clip-path="url(#pc1a96b3dc3)" style="fill: none; stroke: #4c4c4c; stroke-width: 0.5; stroke-linecap: square"/>
   </g>
   <g id="line2d_75">
    <g clip-path="url(#pc1a96b3dc3)">
     <use xlink:href="#m9ff44cba6a" x="125.749632" y="73.561509" style="fill: #ffffff; stroke: #4c4c4c; stroke-width: 0.5"/>
     <use xlink:href="#m9ff44cba6a" x="125.749632" y="36.450711" style="fill: #ffffff; stroke: #4c4c4c; stroke-width: 0.5"/>
     <use xlink:href="#m9ff44cba6a" x="125.749632" y="42.623562" style="fill: #ffffff; stroke: #4c4c4c; stroke-width: 0.5"/>
    </g>
   </g>
   <g id="line2d_76">
    <path d="M 46.834688 54.427664 
L 48.342518 54.427664 
" clip-path="url(#pc1a96b3dc3)" style="fill: none; stroke: #4c4c4c; stroke-width: 0.5"/>
   </g>
   <g id="line2d_77">
    <path d="M 59.143511 54.160369 
L 60.651342 54.160369 
" clip-path="url(#pc1a96b3dc3)" style="fill: none; stroke: #4c4c4c; stroke-width: 0.5"/>
   </g>
   <g id="line2d_78">
    <path d="M 71.452335 54.179336 
L 72.960165 54.179336 
" clip-path="url(#pc1a96b3dc3)" style="fill: none; stroke: #4c4c4c; stroke-width: 0.5"/>
   </g>
   <g id="line2d_79">
    <path d="M 83.761158 53.849931 
L 85.268989 53.849931 
" clip-path="url(#pc1a96b3dc3)" style="fill: none; stroke: #4c4c4c; stroke-width: 0.5"/>
   </g>
   <g id="line2d_80">
    <path d="M 96.069982 53.273948 
L 97.577813 53.273948 
" clip-path="url(#pc1a96b3dc3)" style="fill: none; stroke: #4c4c4c; stroke-width: 0.5"/>
   </g>
   <g id="line2d_81">
    <path d="M 108.378805 54.012147 
L 109.886636 54.012147 
" clip-path="url(#pc1a96b3dc3)" style="fill: none; stroke: #4c4c4c; stroke-width: 0.5"/>
   </g>
   <g id="line2d_82">
    <path d="M 120.687629 53.975611 
L 122.19546 53.975611 
" clip-path="url(#pc1a96b3dc3)" style="fill: none; stroke: #4c4c4c; stroke-width: 0.5"/>
   </g>
   <g id="line2d_83">
    <path d="M 63.451599 62.412399 
L 64.95943 62.412399 
" clip-path="url(#pc1a96b3dc3)" style="fill: none; stroke: #4c4c4c; stroke-width: 0.5"/>
   </g>
   <g id="line2d_84">
    <path d="M 75.760423 59.292709 
L 77.268254 59.292709 
" clip-path="url(#pc1a96b3dc3)" style="fill: none; stroke: #4c4c4c; stroke-width: 0.5"/>
   </g>
   <g id="line2d_85">
    <path d="M 88.069246 58.991092 
L 89.577077 58.991092 
" clip-path="url(#pc1a96b3dc3)" style="fill: none; stroke: #4c4c4c; stroke-width: 0.5"/>
   </g>
   <g id="line2d_86">
    <path d="M 100.37807 62.483129 
L 101.885901 62.483129 
" clip-path="url(#pc1a96b3dc3)" style="fill: none; stroke: #4c4c4c; stroke-width: 0.5"/>
   </g>
   <g id="line2d_87">
    <path d="M 112.686893 57.834935 
L 114.194724 57.834935 
" clip-path="url(#pc1a96b3dc3)" style="fill: none; stroke: #4c4c4c; stroke-width: 0.5"/>
   </g>
   <g id="line2d_88">
    <path d="M 124.995717 58.582549 
L 126.503548 58.582549 
" clip-path="url(#pc1a96b3dc3)" style="fill: none; stroke: #4c4c4c; stroke-width: 0.5"/>
   </g>
   <g id="patch_18">
    <path d="M 41.865 81.816 
L 41.865 26.376 
" style="fill: none; stroke: #000000; stroke-width: 0.5; stroke-linejoin: miter; stroke-linecap: square"/>
   </g>
   <g id="patch_19">
    <path d="M 46.05 84.588 
L 129.75 84.588 
" style="fill: none; stroke: #000000; stroke-width: 0.5; stroke-linejoin: miter; stroke-linecap: square"/>
   </g>
   <g id="legend_1">
    <g id="text_13">
     <!-- Sampling bias -->
     <g transform="translate(61.24875 13.967812) scale(0.06 -0.06)">
      <use xlink:href="#ArialMT-53"/>
      <use xlink:href="#ArialMT-61" x="66.699219"/>
      <use xlink:href="#ArialMT-6d" x="122.314453"/>
      <use xlink:href="#ArialMT-70" x="205.615234"/>
      <use xlink:href="#ArialMT-6c" x="261.230469"/>
      <use xlink:href="#ArialMT-69" x="283.447266"/>
      <use xlink:href="#ArialMT-6e" x="305.664062"/>
      <use xlink:href="#ArialMT-67" x="361.279297"/>
      <use xlink:href="#ArialMT-20" x="416.894531"/>
      <use xlink:href="#ArialMT-62" x="444.677734"/>
      <use xlink:href="#ArialMT-69" x="500.292969"/>
      <use xlink:href="#ArialMT-61" x="522.509766"/>
      <use xlink:href="#ArialMT-73" x="578.125"/>
     </g>
    </g>
    <g id="line2d_89">
     <path d="M 9.6 20.425312 
L 21.6 20.425312 
" style="fill: none; stroke-dasharray: 1.85,0.8; stroke-dashoffset: 0; stroke: #00b2ff; stroke-width: 0.5"/>
    </g>
    <g id="text_14">
     <!-- lower bound -->
     <g transform="translate(26.4 22.525312) scale(0.06 -0.06)">
      <use xlink:href="#ArialMT-6c"/>
      <use xlink:href="#ArialMT-6f" x="22.216797"/>
      <use xlink:href="#ArialMT-77" x="77.832031"/>
      <use xlink:href="#ArialMT-65" x="150.048828"/>
      <use xlink:href="#ArialMT-72" x="205.664062"/>
      <use xlink:href="#ArialMT-20" x="238.964844"/>
      <use xlink:href="#ArialMT-62" x="266.748047"/>
      <use xlink:href="#ArialMT-6f" x="322.363281"/>
      <use xlink:href="#ArialMT-75" x="377.978516"/>
      <use xlink:href="#ArialMT-6e" x="433.59375"/>
      <use xlink:href="#ArialMT-64" x="489.208984"/>
     </g>
    </g>
    <g id="line2d_90">
     <path d="M 9.6 28.9125 
L 21.6 28.9125 
" style="fill: none; stroke-dasharray: 1.85,0.8; stroke-dashoffset: 0; stroke: #ff0000; stroke-width: 0.5"/>
    </g>
    <g id="text_15">
     <!-- ground truth capacity -->
     <g transform="translate(26.4 31.0125) scale(0.06 -0.06)">
      <use xlink:href="#ArialMT-67"/>
      <use xlink:href="#ArialMT-72" x="55.615234"/>
      <use xlink:href="#ArialMT-6f" x="88.916016"/>
      <use xlink:href="#ArialMT-75" x="144.53125"/>
      <use xlink:href="#ArialMT-6e" x="200.146484"/>
      <use xlink:href="#ArialMT-64" x="255.761719"/>
      <use xlink:href="#ArialMT-20" x="311.376953"/>
      <use xlink:href="#ArialMT-74" x="339.160156"/>
      <use xlink:href="#ArialMT-72" x="366.943359"/>
      <use xlink:href="#ArialMT-75" x="400.244141"/>
      <use xlink:href="#ArialMT-74" x="455.859375"/>
      <use xlink:href="#ArialMT-68" x="483.642578"/>
      <use xlink:href="#ArialMT-20" x="539.257812"/>
      <use xlink:href="#ArialMT-63" x="567.041016"/>
      <use xlink:href="#ArialMT-61" x="617.041016"/>
      <use xlink:href="#ArialMT-70" x="672.65625"/>
      <use xlink:href="#ArialMT-61" x="728.271484"/>
      <use xlink:href="#ArialMT-63" x="783.886719"/>
      <use xlink:href="#ArialMT-69" x="833.886719"/>
      <use xlink:href="#ArialMT-74" x="856.103516"/>
      <use xlink:href="#ArialMT-79" x="883.886719"/>
     </g>
    </g>
    <g id="patch_20">
     <path d="M 94.42875 22.525312 
L 106.42875 22.525312 
L 106.42875 18.325312 
L 94.42875 18.325312 
z
" style="fill: #df2020; stroke: #4c4c4c; stroke-width: 0.5; stroke-linejoin: miter"/>
    </g>
    <g id="text_16">
     <!-- undersampling -->
     <g transform="translate(111.22875 22.525312) scale(0.06 -0.06)">
      <use xlink:href="#ArialMT-75"/>
      <use xlink:href="#ArialMT-6e" x="55.615234"/>
      <use xlink:href="#ArialMT-64" x="111.230469"/>
      <use xlink:href="#ArialMT-65" x="166.845703"/>
      <use xlink:href="#ArialMT-72" x="222.460938"/>
      <use xlink:href="#ArialMT-73" x="255.761719"/>
      <use xlink:href="#ArialMT-61" x="305.761719"/>
      <use xlink:href="#ArialMT-6d" x="361.376953"/>
      <use xlink:href="#ArialMT-70" x="444.677734"/>
      <use xlink:href="#ArialMT-6c" x="500.292969"/>
      <use xlink:href="#ArialMT-69" x="522.509766"/>
      <use xlink:href="#ArialMT-6e" x="544.726562"/>
      <use xlink:href="#ArialMT-67" x="600.341797"/>
     </g>
    </g>
    <g id="patch_21">
     <path d="M 94.42875 31.082813 
L 106.42875 31.082813 
L 106.42875 26.882813 
L 94.42875 26.882813 
z
" style="fill: #df2020; stroke: #4c4c4c; stroke-width: 0.5; stroke-linejoin: miter"/>
    </g>
    <g id="text_17">
     <!-- selection bias -->
     <g transform="translate(111.22875 31.082813) scale(0.06 -0.06)">
      <use xlink:href="#ArialMT-73"/>
      <use xlink:href="#ArialMT-65" x="50"/>
      <use xlink:href="#ArialMT-6c" x="105.615234"/>
      <use xlink:href="#ArialMT-65" x="127.832031"/>
      <use xlink:href="#ArialMT-63" x="183.447266"/>
      <use xlink:href="#ArialMT-74" x="233.447266"/>
      <use xlink:href="#ArialMT-69" x="261.230469"/>
      <use xlink:href="#ArialMT-6f" x="283.447266"/>
      <use xlink:href="#ArialMT-6e" x="339.0625"/>
      <use xlink:href="#ArialMT-20" x="394.677734"/>
      <use xlink:href="#ArialMT-62" x="422.460938"/>
      <use xlink:href="#ArialMT-69" x="478.076172"/>
      <use xlink:href="#ArialMT-61" x="500.292969"/>
      <use xlink:href="#ArialMT-73" x="555.908203"/>
     </g>
    </g>
   </g>
  </g>
 </g>
 <defs>
  <clipPath id="pc1a96b3dc3">
   <rect x="46.05" y="26.376" width="83.7" height="55.44"/>
  </clipPath>
 </defs>
</svg>
