<?xml version="1.0" encoding="utf-8" standalone="no"?>
<!DOCTYPE svg PUBLIC "-//W3C//DTD SVG 1.1//EN"
  "http://www.w3.org/Graphics/SVG/1.1/DTD/svg11.dtd">
<svg xmlns:xlink="http://www.w3.org/1999/xlink" width="169.844812pt" height="125.997467pt" viewBox="0 0 169.844812 125.997467" xmlns="http://www.w3.org/2000/svg" version="1.1">
 <metadata>
  <rdf:RDF xmlns:dc="http://purl.org/dc/elements/1.1/" xmlns:cc="http://creativecommons.org/ns#" xmlns:rdf="http://www.w3.org/1999/02/22-rdf-syntax-ns#">
   <cc:Work>
    <dc:type rdf:resource="http://purl.org/dc/dcmitype/StillImage"/>
    <dc:date>2025-09-09T12:41:08.395345</dc:date>
    <dc:format>image/svg+xml</dc:format>
    <dc:creator>
     <cc:Agent>
      <dc:title>Matplotlib v3.9.2, https://matplotlib.org/</dc:title>
     </cc:Agent>
    </dc:creator>
   </cc:Work>
  </rdf:RDF>
 </metadata>
 <defs>
  <style type="text/css">*{stroke-linejoin: round; stroke-linecap: butt}</style>
 </defs>
 <g id="figure_1">
  <g id="patch_1">
   <path d="M 0 125.997467 
L 169.844812 125.997467 
L 169.844812 0 
L 0 0 
L 0 125.997467 
z
" style="fill: none"/>
  </g>
  <g id="axes_1">
   <g id="patch_2">
    <path d="M 40.859813 81.816 
L 124.559813 81.816 
L 124.559813 26.376 
L 40.859813 26.376 
L 40.859813 81.816 
z
" style="fill: none"/>
   </g>
   <g id="patch_3">
    <path d="M 46.838384 107.202001 
L 46.838384 107.202001 
L 46.838384 107.202001 
L 46.838384 107.202001 
z
" clip-path="url(#pcdb1989d10)" style="fill: #808080; stroke: #4c4c4c; stroke-width: 0.5; stroke-linejoin: miter"/>
   </g>
   <g id="patch_4">
    <path d="M 46.838384 107.202001 
L 46.838384 107.202001 
L 46.838384 107.202001 
L 46.838384 107.202001 
z
" clip-path="url(#pcdb1989d10)" style="fill: #df2020; stroke: #4c4c4c; stroke-width: 0.5; stroke-linejoin: miter"/>
   </g>
   <g id="patch_5">
    <path d="M 46.838384 107.202001 
L 46.838384 107.202001 
L 46.838384 107.202001 
L 46.838384 107.202001 
z
" clip-path="url(#pcdb1989d10)" style="fill: #ffffff; stroke: #4c4c4c; stroke-width: 0.5; stroke-linejoin: miter"/>
   </g>
   <g id="matplotlib.axis_1">
    <g id="xtick_1">
     <g id="line2d_1">
      <defs>
       <path id="m2b11ba5241" d="M 0 0 
L 0 1.5 
" style="stroke: #000000; stroke-width: 0.3"/>
      </defs>
      <g>
       <use xlink:href="#m2b11ba5241" x="46.838384" y="84.588" style="stroke: #000000; stroke-width: 0.3"/>
      </g>
     </g>
     <g id="text_1">
      <!-- ground -->
      <g transform="translate(37.920874 102.647621) rotate(-30) scale(0.06 -0.06)">
       <defs>
        <path id="ArialMT-67" d="M 319 -275 
L 866 -356 
Q 900 -609 1056 -725 
Q 1266 -881 1628 -881 
Q 2019 -881 2231 -725 
Q 2444 -569 2519 -288 
Q 2563 -116 2559 434 
Q 2191 0 1641 0 
Q 956 0 581 494 
Q 206 988 206 1678 
Q 206 2153 378 2554 
Q 550 2956 876 3175 
Q 1203 3394 1644 3394 
Q 2231 3394 2613 2919 
L 2613 3319 
L 3131 3319 
L 3131 450 
Q 3131 -325 2973 -648 
Q 2816 -972 2473 -1159 
Q 2131 -1347 1631 -1347 
Q 1038 -1347 672 -1080 
Q 306 -813 319 -275 
z
M 784 1719 
Q 784 1066 1043 766 
Q 1303 466 1694 466 
Q 2081 466 2343 764 
Q 2606 1063 2606 1700 
Q 2606 2309 2336 2618 
Q 2066 2928 1684 2928 
Q 1309 2928 1046 2623 
Q 784 2319 784 1719 
z
" transform="scale(0.015625)"/>
        <path id="ArialMT-72" d="M 416 0 
L 416 3319 
L 922 3319 
L 922 2816 
Q 1116 3169 1280 3281 
Q 1444 3394 1641 3394 
Q 1925 3394 2219 3213 
L 2025 2691 
Q 1819 2813 1613 2813 
Q 1428 2813 1281 2702 
Q 1134 2591 1072 2394 
Q 978 2094 978 1738 
L 978 0 
L 416 0 
z
" transform="scale(0.015625)"/>
        <path id="ArialMT-6f" d="M 213 1659 
Q 213 2581 725 3025 
Q 1153 3394 1769 3394 
Q 2453 3394 2887 2945 
Q 3322 2497 3322 1706 
Q 3322 1066 3130 698 
Q 2938 331 2570 128 
Q 2203 -75 1769 -75 
Q 1072 -75 642 372 
Q 213 819 213 1659 
z
M 791 1659 
Q 791 1022 1069 705 
Q 1347 388 1769 388 
Q 2188 388 2466 706 
Q 2744 1025 2744 1678 
Q 2744 2294 2464 2611 
Q 2184 2928 1769 2928 
Q 1347 2928 1069 2612 
Q 791 2297 791 1659 
z
" transform="scale(0.015625)"/>
        <path id="ArialMT-75" d="M 2597 0 
L 2597 488 
Q 2209 -75 1544 -75 
Q 1250 -75 995 37 
Q 741 150 617 320 
Q 494 491 444 738 
Q 409 903 409 1263 
L 409 3319 
L 972 3319 
L 972 1478 
Q 972 1038 1006 884 
Q 1059 663 1231 536 
Q 1403 409 1656 409 
Q 1909 409 2131 539 
Q 2353 669 2445 892 
Q 2538 1116 2538 1541 
L 2538 3319 
L 3100 3319 
L 3100 0 
L 2597 0 
z
" transform="scale(0.015625)"/>
        <path id="ArialMT-6e" d="M 422 0 
L 422 3319 
L 928 3319 
L 928 2847 
Q 1294 3394 1984 3394 
Q 2284 3394 2536 3286 
Q 2788 3178 2913 3003 
Q 3038 2828 3088 2588 
Q 3119 2431 3119 2041 
L 3119 0 
L 2556 0 
L 2556 2019 
Q 2556 2363 2490 2533 
Q 2425 2703 2258 2804 
Q 2091 2906 1866 2906 
Q 1506 2906 1245 2678 
Q 984 2450 984 1813 
L 984 0 
L 422 0 
z
" transform="scale(0.015625)"/>
        <path id="ArialMT-64" d="M 2575 0 
L 2575 419 
Q 2259 -75 1647 -75 
Q 1250 -75 917 144 
Q 584 363 401 755 
Q 219 1147 219 1656 
Q 219 2153 384 2558 
Q 550 2963 881 3178 
Q 1213 3394 1622 3394 
Q 1922 3394 2156 3267 
Q 2391 3141 2538 2938 
L 2538 4581 
L 3097 4581 
L 3097 0 
L 2575 0 
z
M 797 1656 
Q 797 1019 1065 703 
Q 1334 388 1700 388 
Q 2069 388 2326 689 
Q 2584 991 2584 1609 
Q 2584 2291 2321 2609 
Q 2059 2928 1675 2928 
Q 1300 2928 1048 2622 
Q 797 2316 797 1656 
z
" transform="scale(0.015625)"/>
       </defs>
       <use xlink:href="#ArialMT-67"/>
       <use xlink:href="#ArialMT-72" x="55.615234"/>
       <use xlink:href="#ArialMT-6f" x="88.916016"/>
       <use xlink:href="#ArialMT-75" x="144.53125"/>
       <use xlink:href="#ArialMT-6e" x="200.146484"/>
       <use xlink:href="#ArialMT-64" x="255.761719"/>
      </g>
      <!-- truth -->
      <g transform="translate(44.019858 106.535434) rotate(-30) scale(0.06 -0.06)">
       <defs>
        <path id="ArialMT-74" d="M 1650 503 
L 1731 6 
Q 1494 -44 1306 -44 
Q 1000 -44 831 53 
Q 663 150 594 308 
Q 525 466 525 972 
L 525 2881 
L 113 2881 
L 113 3319 
L 525 3319 
L 525 4141 
L 1084 4478 
L 1084 3319 
L 1650 3319 
L 1650 2881 
L 1084 2881 
L 1084 941 
Q 1084 700 1114 631 
Q 1144 563 1211 522 
Q 1278 481 1403 481 
Q 1497 481 1650 503 
z
" transform="scale(0.015625)"/>
        <path id="ArialMT-68" d="M 422 0 
L 422 4581 
L 984 4581 
L 984 2938 
Q 1378 3394 1978 3394 
Q 2347 3394 2619 3248 
Q 2891 3103 3008 2847 
Q 3125 2591 3125 2103 
L 3125 0 
L 2563 0 
L 2563 2103 
Q 2563 2525 2380 2717 
Q 2197 2909 1863 2909 
Q 1613 2909 1392 2779 
Q 1172 2650 1078 2428 
Q 984 2206 984 1816 
L 984 0 
L 422 0 
z
" transform="scale(0.015625)"/>
       </defs>
       <use xlink:href="#ArialMT-74"/>
       <use xlink:href="#ArialMT-72" x="27.783203"/>
       <use xlink:href="#ArialMT-75" x="61.083984"/>
       <use xlink:href="#ArialMT-74" x="116.699219"/>
       <use xlink:href="#ArialMT-68" x="144.482422"/>
      </g>
     </g>
    </g>
    <g id="xtick_2">
     <g id="line2d_2">
      <g>
       <use xlink:href="#m2b11ba5241" x="58.795527" y="84.588" style="stroke: #000000; stroke-width: 0.3"/>
      </g>
     </g>
     <g id="text_2">
      <!-- KS4 -->
      <g transform="translate(54.660304 98.977777) rotate(-30) scale(0.06 -0.06)">
       <defs>
        <path id="ArialMT-4b" d="M 469 0 
L 469 4581 
L 1075 4581 
L 1075 2309 
L 3350 4581 
L 4172 4581 
L 2250 2725 
L 4256 0 
L 3456 0 
L 1825 2319 
L 1075 1588 
L 1075 0 
L 469 0 
z
" transform="scale(0.015625)"/>
        <path id="ArialMT-53" d="M 288 1472 
L 859 1522 
Q 900 1178 1048 958 
Q 1197 738 1509 602 
Q 1822 466 2213 466 
Q 2559 466 2825 569 
Q 3091 672 3220 851 
Q 3350 1031 3350 1244 
Q 3350 1459 3225 1620 
Q 3100 1781 2813 1891 
Q 2628 1963 1997 2114 
Q 1366 2266 1113 2400 
Q 784 2572 623 2826 
Q 463 3081 463 3397 
Q 463 3744 659 4045 
Q 856 4347 1234 4503 
Q 1613 4659 2075 4659 
Q 2584 4659 2973 4495 
Q 3363 4331 3572 4012 
Q 3781 3694 3797 3291 
L 3216 3247 
Q 3169 3681 2898 3903 
Q 2628 4125 2100 4125 
Q 1550 4125 1298 3923 
Q 1047 3722 1047 3438 
Q 1047 3191 1225 3031 
Q 1400 2872 2139 2705 
Q 2878 2538 3153 2413 
Q 3553 2228 3743 1945 
Q 3934 1663 3934 1294 
Q 3934 928 3725 604 
Q 3516 281 3123 101 
Q 2731 -78 2241 -78 
Q 1619 -78 1198 103 
Q 778 284 539 648 
Q 300 1013 288 1472 
z
" transform="scale(0.015625)"/>
        <path id="ArialMT-34" d="M 2069 0 
L 2069 1097 
L 81 1097 
L 81 1613 
L 2172 4581 
L 2631 4581 
L 2631 1613 
L 3250 1613 
L 3250 1097 
L 2631 1097 
L 2631 0 
L 2069 0 
z
M 2069 1613 
L 2069 3678 
L 634 1613 
L 2069 1613 
z
" transform="scale(0.015625)"/>
       </defs>
       <use xlink:href="#ArialMT-4b"/>
       <use xlink:href="#ArialMT-53" x="66.699219"/>
       <use xlink:href="#ArialMT-34" x="133.398438"/>
      </g>
     </g>
    </g>
    <g id="xtick_3">
     <g id="line2d_3">
      <g>
       <use xlink:href="#m2b11ba5241" x="70.75267" y="84.588" style="stroke: #000000; stroke-width: 0.3"/>
      </g>
     </g>
     <g id="text_3">
      <!-- KS3 -->
      <g transform="translate(66.617447 98.977777) rotate(-30) scale(0.06 -0.06)">
       <defs>
        <path id="ArialMT-33" d="M 269 1209 
L 831 1284 
Q 928 806 1161 595 
Q 1394 384 1728 384 
Q 2125 384 2398 659 
Q 2672 934 2672 1341 
Q 2672 1728 2419 1979 
Q 2166 2231 1775 2231 
Q 1616 2231 1378 2169 
L 1441 2663 
Q 1497 2656 1531 2656 
Q 1891 2656 2178 2843 
Q 2466 3031 2466 3422 
Q 2466 3731 2256 3934 
Q 2047 4138 1716 4138 
Q 1388 4138 1169 3931 
Q 950 3725 888 3313 
L 325 3413 
Q 428 3978 793 4289 
Q 1159 4600 1703 4600 
Q 2078 4600 2393 4439 
Q 2709 4278 2876 4000 
Q 3044 3722 3044 3409 
Q 3044 3113 2884 2869 
Q 2725 2625 2413 2481 
Q 2819 2388 3044 2092 
Q 3269 1797 3269 1353 
Q 3269 753 2831 336 
Q 2394 -81 1725 -81 
Q 1122 -81 723 278 
Q 325 638 269 1209 
z
" transform="scale(0.015625)"/>
       </defs>
       <use xlink:href="#ArialMT-4b"/>
       <use xlink:href="#ArialMT-53" x="66.699219"/>
       <use xlink:href="#ArialMT-33" x="133.398438"/>
      </g>
     </g>
    </g>
    <g id="xtick_4">
     <g id="line2d_4">
      <g>
       <use xlink:href="#m2b11ba5241" x="82.709812" y="84.588" style="stroke: #000000; stroke-width: 0.3"/>
      </g>
     </g>
     <g id="text_4">
      <!-- KS2.5 -->
      <g transform="translate(76.408037 101.479496) rotate(-30) scale(0.06 -0.06)">
       <defs>
        <path id="ArialMT-32" d="M 3222 541 
L 3222 0 
L 194 0 
Q 188 203 259 391 
Q 375 700 629 1000 
Q 884 1300 1366 1694 
Q 2113 2306 2375 2664 
Q 2638 3022 2638 3341 
Q 2638 3675 2398 3904 
Q 2159 4134 1775 4134 
Q 1369 4134 1125 3890 
Q 881 3647 878 3216 
L 300 3275 
Q 359 3922 746 4261 
Q 1134 4600 1788 4600 
Q 2447 4600 2831 4234 
Q 3216 3869 3216 3328 
Q 3216 3053 3103 2787 
Q 2991 2522 2730 2228 
Q 2469 1934 1863 1422 
Q 1356 997 1212 845 
Q 1069 694 975 541 
L 3222 541 
z
" transform="scale(0.015625)"/>
        <path id="ArialMT-2e" d="M 581 0 
L 581 641 
L 1222 641 
L 1222 0 
L 581 0 
z
" transform="scale(0.015625)"/>
        <path id="ArialMT-35" d="M 266 1200 
L 856 1250 
Q 922 819 1161 601 
Q 1400 384 1738 384 
Q 2144 384 2425 690 
Q 2706 997 2706 1503 
Q 2706 1984 2436 2262 
Q 2166 2541 1728 2541 
Q 1456 2541 1237 2417 
Q 1019 2294 894 2097 
L 366 2166 
L 809 4519 
L 3088 4519 
L 3088 3981 
L 1259 3981 
L 1013 2750 
Q 1425 3038 1878 3038 
Q 2478 3038 2890 2622 
Q 3303 2206 3303 1553 
Q 3303 931 2941 478 
Q 2500 -78 1738 -78 
Q 1113 -78 717 272 
Q 322 622 266 1200 
z
" transform="scale(0.015625)"/>
       </defs>
       <use xlink:href="#ArialMT-4b"/>
       <use xlink:href="#ArialMT-53" x="66.699219"/>
       <use xlink:href="#ArialMT-32" x="133.398438"/>
       <use xlink:href="#ArialMT-2e" x="189.013672"/>
       <use xlink:href="#ArialMT-35" x="216.796875"/>
      </g>
     </g>
    </g>
    <g id="xtick_5">
     <g id="line2d_5">
      <g>
       <use xlink:href="#m2b11ba5241" x="94.666955" y="84.588" style="stroke: #000000; stroke-width: 0.3"/>
      </g>
     </g>
     <g id="text_5">
      <!-- KS2 -->
      <g transform="translate(90.531732 98.977777) rotate(-30) scale(0.06 -0.06)">
       <use xlink:href="#ArialMT-4b"/>
       <use xlink:href="#ArialMT-53" x="66.699219"/>
       <use xlink:href="#ArialMT-32" x="133.398438"/>
      </g>
     </g>
    </g>
    <g id="xtick_6">
     <g id="line2d_6">
      <g>
       <use xlink:href="#m2b11ba5241" x="106.624098" y="84.588" style="stroke: #000000; stroke-width: 0.3"/>
      </g>
     </g>
     <g id="text_6">
      <!-- KS -->
      <g transform="translate(103.933649 97.309496) rotate(-30) scale(0.06 -0.06)">
       <use xlink:href="#ArialMT-4b"/>
       <use xlink:href="#ArialMT-53" x="66.699219"/>
      </g>
     </g>
    </g>
    <g id="xtick_7">
     <g id="line2d_7">
      <g>
       <use xlink:href="#m2b11ba5241" x="118.581241" y="84.588" style="stroke: #000000; stroke-width: 0.3"/>
      </g>
     </g>
     <g id="text_7">
      <!-- HS -->
      <g transform="translate(115.747492 97.474965) rotate(-30) scale(0.06 -0.06)">
       <defs>
        <path id="ArialMT-48" d="M 513 0 
L 513 4581 
L 1119 4581 
L 1119 2700 
L 3500 2700 
L 3500 4581 
L 4106 4581 
L 4106 0 
L 3500 0 
L 3500 2159 
L 1119 2159 
L 1119 0 
L 513 0 
z
" transform="scale(0.015625)"/>
       </defs>
       <use xlink:href="#ArialMT-48"/>
       <use xlink:href="#ArialMT-53" x="72.216797"/>
      </g>
     </g>
    </g>
    <g id="text_8">
     <!-- Spike sorter -->
     <g transform="translate(66.704344 117.604967) scale(0.06 -0.06)">
      <defs>
       <path id="ArialMT-70" d="M 422 -1272 
L 422 3319 
L 934 3319 
L 934 2888 
Q 1116 3141 1344 3267 
Q 1572 3394 1897 3394 
Q 2322 3394 2647 3175 
Q 2972 2956 3137 2557 
Q 3303 2159 3303 1684 
Q 3303 1175 3120 767 
Q 2938 359 2589 142 
Q 2241 -75 1856 -75 
Q 1575 -75 1351 44 
Q 1128 163 984 344 
L 984 -1272 
L 422 -1272 
z
M 931 1641 
Q 931 1000 1190 694 
Q 1450 388 1819 388 
Q 2194 388 2461 705 
Q 2728 1022 2728 1688 
Q 2728 2322 2467 2637 
Q 2206 2953 1844 2953 
Q 1484 2953 1207 2617 
Q 931 2281 931 1641 
z
" transform="scale(0.015625)"/>
       <path id="ArialMT-69" d="M 425 3934 
L 425 4581 
L 988 4581 
L 988 3934 
L 425 3934 
z
M 425 0 
L 425 3319 
L 988 3319 
L 988 0 
L 425 0 
z
" transform="scale(0.015625)"/>
       <path id="ArialMT-6b" d="M 425 0 
L 425 4581 
L 988 4581 
L 988 1969 
L 2319 3319 
L 3047 3319 
L 1778 2088 
L 3175 0 
L 2481 0 
L 1384 1697 
L 988 1316 
L 988 0 
L 425 0 
z
" transform="scale(0.015625)"/>
       <path id="ArialMT-65" d="M 2694 1069 
L 3275 997 
Q 3138 488 2766 206 
Q 2394 -75 1816 -75 
Q 1088 -75 661 373 
Q 234 822 234 1631 
Q 234 2469 665 2931 
Q 1097 3394 1784 3394 
Q 2450 3394 2872 2941 
Q 3294 2488 3294 1666 
Q 3294 1616 3291 1516 
L 816 1516 
Q 847 969 1125 678 
Q 1403 388 1819 388 
Q 2128 388 2347 550 
Q 2566 713 2694 1069 
z
M 847 1978 
L 2700 1978 
Q 2663 2397 2488 2606 
Q 2219 2931 1791 2931 
Q 1403 2931 1139 2672 
Q 875 2413 847 1978 
z
" transform="scale(0.015625)"/>
       <path id="ArialMT-20" transform="scale(0.015625)"/>
       <path id="ArialMT-73" d="M 197 991 
L 753 1078 
Q 800 744 1014 566 
Q 1228 388 1613 388 
Q 2000 388 2187 545 
Q 2375 703 2375 916 
Q 2375 1106 2209 1216 
Q 2094 1291 1634 1406 
Q 1016 1563 777 1677 
Q 538 1791 414 1992 
Q 291 2194 291 2438 
Q 291 2659 392 2848 
Q 494 3038 669 3163 
Q 800 3259 1026 3326 
Q 1253 3394 1513 3394 
Q 1903 3394 2198 3281 
Q 2494 3169 2634 2976 
Q 2775 2784 2828 2463 
L 2278 2388 
Q 2241 2644 2061 2787 
Q 1881 2931 1553 2931 
Q 1166 2931 1000 2803 
Q 834 2675 834 2503 
Q 834 2394 903 2306 
Q 972 2216 1119 2156 
Q 1203 2125 1616 2013 
Q 2213 1853 2448 1751 
Q 2684 1650 2818 1456 
Q 2953 1263 2953 975 
Q 2953 694 2789 445 
Q 2625 197 2315 61 
Q 2006 -75 1616 -75 
Q 969 -75 630 194 
Q 291 463 197 991 
z
" transform="scale(0.015625)"/>
      </defs>
      <use xlink:href="#ArialMT-53"/>
      <use xlink:href="#ArialMT-70" x="66.699219"/>
      <use xlink:href="#ArialMT-69" x="122.314453"/>
      <use xlink:href="#ArialMT-6b" x="144.53125"/>
      <use xlink:href="#ArialMT-65" x="194.53125"/>
      <use xlink:href="#ArialMT-20" x="250.146484"/>
      <use xlink:href="#ArialMT-73" x="277.929688"/>
      <use xlink:href="#ArialMT-6f" x="327.929688"/>
      <use xlink:href="#ArialMT-72" x="383.544922"/>
      <use xlink:href="#ArialMT-74" x="416.845703"/>
      <use xlink:href="#ArialMT-65" x="444.628906"/>
      <use xlink:href="#ArialMT-72" x="500.244141"/>
     </g>
    </g>
   </g>
   <g id="matplotlib.axis_2">
    <g id="ytick_1">
     <g id="line2d_8">
      <defs>
       <path id="m4f3268aab2" d="M 0 0 
L -1.5 0 
" style="stroke: #000000; stroke-width: 0.3"/>
      </defs>
      <g>
       <use xlink:href="#m4f3268aab2" x="36.674813" y="59.625736" style="stroke: #000000; stroke-width: 0.3"/>
      </g>
     </g>
     <g id="text_9">
      <!-- 1.0 -->
      <g transform="translate(23.334813 61.77308) scale(0.06 -0.06)">
       <defs>
        <path id="ArialMT-31" d="M 2384 0 
L 1822 0 
L 1822 3584 
Q 1619 3391 1289 3197 
Q 959 3003 697 2906 
L 697 3450 
Q 1169 3672 1522 3987 
Q 1875 4303 2022 4600 
L 2384 4600 
L 2384 0 
z
" transform="scale(0.015625)"/>
        <path id="ArialMT-30" d="M 266 2259 
Q 266 3072 433 3567 
Q 600 4063 929 4331 
Q 1259 4600 1759 4600 
Q 2128 4600 2406 4451 
Q 2684 4303 2865 4023 
Q 3047 3744 3150 3342 
Q 3253 2941 3253 2259 
Q 3253 1453 3087 958 
Q 2922 463 2592 192 
Q 2263 -78 1759 -78 
Q 1097 -78 719 397 
Q 266 969 266 2259 
z
M 844 2259 
Q 844 1131 1108 757 
Q 1372 384 1759 384 
Q 2147 384 2411 759 
Q 2675 1134 2675 2259 
Q 2675 3391 2411 3762 
Q 2147 4134 1753 4134 
Q 1366 4134 1134 3806 
Q 844 3388 844 2259 
z
" transform="scale(0.015625)"/>
       </defs>
       <use xlink:href="#ArialMT-31"/>
       <use xlink:href="#ArialMT-2e" x="55.615234"/>
       <use xlink:href="#ArialMT-30" x="83.398438"/>
      </g>
     </g>
    </g>
    <g id="ytick_2">
     <g id="line2d_9">
      <g>
       <use xlink:href="#m4f3268aab2" x="36.674813" y="35.837603" style="stroke: #000000; stroke-width: 0.3"/>
      </g>
     </g>
     <g id="text_10">
      <!-- 1.5 -->
      <g transform="translate(23.334813 37.984947) scale(0.06 -0.06)">
       <use xlink:href="#ArialMT-31"/>
       <use xlink:href="#ArialMT-2e" x="55.615234"/>
       <use xlink:href="#ArialMT-35" x="83.398438"/>
      </g>
     </g>
    </g>
    <g id="text_11">
     <!-- Manifold capacity /  -->
     <g transform="translate(11.567813 79.773187) rotate(-90) scale(0.06 -0.06)">
      <defs>
       <path id="ArialMT-4d" d="M 475 0 
L 475 4581 
L 1388 4581 
L 2472 1338 
Q 2622 884 2691 659 
Q 2769 909 2934 1394 
L 4031 4581 
L 4847 4581 
L 4847 0 
L 4263 0 
L 4263 3834 
L 2931 0 
L 2384 0 
L 1059 3900 
L 1059 0 
L 475 0 
z
" transform="scale(0.015625)"/>
       <path id="ArialMT-61" d="M 2588 409 
Q 2275 144 1986 34 
Q 1697 -75 1366 -75 
Q 819 -75 525 192 
Q 231 459 231 875 
Q 231 1119 342 1320 
Q 453 1522 633 1644 
Q 813 1766 1038 1828 
Q 1203 1872 1538 1913 
Q 2219 1994 2541 2106 
Q 2544 2222 2544 2253 
Q 2544 2597 2384 2738 
Q 2169 2928 1744 2928 
Q 1347 2928 1158 2789 
Q 969 2650 878 2297 
L 328 2372 
Q 403 2725 575 2942 
Q 747 3159 1072 3276 
Q 1397 3394 1825 3394 
Q 2250 3394 2515 3294 
Q 2781 3194 2906 3042 
Q 3031 2891 3081 2659 
Q 3109 2516 3109 2141 
L 3109 1391 
Q 3109 606 3145 398 
Q 3181 191 3288 0 
L 2700 0 
Q 2613 175 2588 409 
z
M 2541 1666 
Q 2234 1541 1622 1453 
Q 1275 1403 1131 1340 
Q 988 1278 909 1158 
Q 831 1038 831 891 
Q 831 666 1001 516 
Q 1172 366 1500 366 
Q 1825 366 2078 508 
Q 2331 650 2450 897 
Q 2541 1088 2541 1459 
L 2541 1666 
z
" transform="scale(0.015625)"/>
       <path id="ArialMT-66" d="M 556 0 
L 556 2881 
L 59 2881 
L 59 3319 
L 556 3319 
L 556 3672 
Q 556 4006 616 4169 
Q 697 4388 901 4523 
Q 1106 4659 1475 4659 
Q 1713 4659 2000 4603 
L 1916 4113 
Q 1741 4144 1584 4144 
Q 1328 4144 1222 4034 
Q 1116 3925 1116 3625 
L 1116 3319 
L 1763 3319 
L 1763 2881 
L 1116 2881 
L 1116 0 
L 556 0 
z
" transform="scale(0.015625)"/>
       <path id="ArialMT-6c" d="M 409 0 
L 409 4581 
L 972 4581 
L 972 0 
L 409 0 
z
" transform="scale(0.015625)"/>
       <path id="ArialMT-63" d="M 2588 1216 
L 3141 1144 
Q 3050 572 2676 248 
Q 2303 -75 1759 -75 
Q 1078 -75 664 370 
Q 250 816 250 1647 
Q 250 2184 428 2587 
Q 606 2991 970 3192 
Q 1334 3394 1763 3394 
Q 2303 3394 2647 3120 
Q 2991 2847 3088 2344 
L 2541 2259 
Q 2463 2594 2264 2762 
Q 2066 2931 1784 2931 
Q 1359 2931 1093 2626 
Q 828 2322 828 1663 
Q 828 994 1084 691 
Q 1341 388 1753 388 
Q 2084 388 2306 591 
Q 2528 794 2588 1216 
z
" transform="scale(0.015625)"/>
       <path id="ArialMT-79" d="M 397 -1278 
L 334 -750 
Q 519 -800 656 -800 
Q 844 -800 956 -737 
Q 1069 -675 1141 -563 
Q 1194 -478 1313 -144 
Q 1328 -97 1363 -6 
L 103 3319 
L 709 3319 
L 1400 1397 
Q 1534 1031 1641 628 
Q 1738 1016 1872 1384 
L 2581 3319 
L 3144 3319 
L 1881 -56 
Q 1678 -603 1566 -809 
Q 1416 -1088 1222 -1217 
Q 1028 -1347 759 -1347 
Q 597 -1347 397 -1278 
z
" transform="scale(0.015625)"/>
       <path id="ArialMT-2f" d="M 0 -78 
L 1328 4659 
L 1778 4659 
L 453 -78 
L 0 -78 
z
" transform="scale(0.015625)"/>
      </defs>
      <use xlink:href="#ArialMT-4d"/>
      <use xlink:href="#ArialMT-61" x="83.300781"/>
      <use xlink:href="#ArialMT-6e" x="138.916016"/>
      <use xlink:href="#ArialMT-69" x="194.53125"/>
      <use xlink:href="#ArialMT-66" x="216.748047"/>
      <use xlink:href="#ArialMT-6f" x="244.53125"/>
      <use xlink:href="#ArialMT-6c" x="300.146484"/>
      <use xlink:href="#ArialMT-64" x="322.363281"/>
      <use xlink:href="#ArialMT-20" x="377.978516"/>
      <use xlink:href="#ArialMT-63" x="405.761719"/>
      <use xlink:href="#ArialMT-61" x="455.761719"/>
      <use xlink:href="#ArialMT-70" x="511.376953"/>
      <use xlink:href="#ArialMT-61" x="566.992188"/>
      <use xlink:href="#ArialMT-63" x="622.607422"/>
      <use xlink:href="#ArialMT-69" x="672.607422"/>
      <use xlink:href="#ArialMT-74" x="694.824219"/>
      <use xlink:href="#ArialMT-79" x="722.607422"/>
      <use xlink:href="#ArialMT-20" x="772.607422"/>
      <use xlink:href="#ArialMT-2f" x="800.390625"/>
      <use xlink:href="#ArialMT-20" x="828.173828"/>
     </g>
     <!-- lower bound (ratio) -->
     <g transform="translate(18.072 79.106156) rotate(-90) scale(0.06 -0.06)">
      <defs>
       <path id="ArialMT-77" d="M 1034 0 
L 19 3319 
L 600 3319 
L 1128 1403 
L 1325 691 
Q 1338 744 1497 1375 
L 2025 3319 
L 2603 3319 
L 3100 1394 
L 3266 759 
L 3456 1400 
L 4025 3319 
L 4572 3319 
L 3534 0 
L 2950 0 
L 2422 1988 
L 2294 2553 
L 1622 0 
L 1034 0 
z
" transform="scale(0.015625)"/>
       <path id="ArialMT-62" d="M 941 0 
L 419 0 
L 419 4581 
L 981 4581 
L 981 2947 
Q 1338 3394 1891 3394 
Q 2197 3394 2470 3270 
Q 2744 3147 2920 2923 
Q 3097 2700 3197 2384 
Q 3297 2069 3297 1709 
Q 3297 856 2875 390 
Q 2453 -75 1863 -75 
Q 1275 -75 941 416 
L 941 0 
z
M 934 1684 
Q 934 1088 1097 822 
Q 1363 388 1816 388 
Q 2184 388 2453 708 
Q 2722 1028 2722 1663 
Q 2722 2313 2464 2622 
Q 2206 2931 1841 2931 
Q 1472 2931 1203 2611 
Q 934 2291 934 1684 
z
" transform="scale(0.015625)"/>
       <path id="ArialMT-28" d="M 1497 -1347 
Q 1031 -759 709 28 
Q 388 816 388 1659 
Q 388 2403 628 3084 
Q 909 3875 1497 4659 
L 1900 4659 
Q 1522 4009 1400 3731 
Q 1209 3300 1100 2831 
Q 966 2247 966 1656 
Q 966 153 1900 -1347 
L 1497 -1347 
z
" transform="scale(0.015625)"/>
       <path id="ArialMT-29" d="M 791 -1347 
L 388 -1347 
Q 1322 153 1322 1656 
Q 1322 2244 1188 2822 
Q 1081 3291 891 3722 
Q 769 4003 388 4659 
L 791 4659 
Q 1378 3875 1659 3084 
Q 1900 2403 1900 1659 
Q 1900 816 1576 28 
Q 1253 -759 791 -1347 
z
" transform="scale(0.015625)"/>
      </defs>
      <use xlink:href="#ArialMT-6c"/>
      <use xlink:href="#ArialMT-6f" x="22.216797"/>
      <use xlink:href="#ArialMT-77" x="77.832031"/>
      <use xlink:href="#ArialMT-65" x="150.048828"/>
      <use xlink:href="#ArialMT-72" x="205.664062"/>
      <use xlink:href="#ArialMT-20" x="238.964844"/>
      <use xlink:href="#ArialMT-62" x="266.748047"/>
      <use xlink:href="#ArialMT-6f" x="322.363281"/>
      <use xlink:href="#ArialMT-75" x="377.978516"/>
      <use xlink:href="#ArialMT-6e" x="433.59375"/>
      <use xlink:href="#ArialMT-64" x="489.208984"/>
      <use xlink:href="#ArialMT-20" x="544.824219"/>
      <use xlink:href="#ArialMT-28" x="572.607422"/>
      <use xlink:href="#ArialMT-72" x="605.908203"/>
      <use xlink:href="#ArialMT-61" x="639.208984"/>
      <use xlink:href="#ArialMT-74" x="694.824219"/>
      <use xlink:href="#ArialMT-69" x="722.607422"/>
      <use xlink:href="#ArialMT-6f" x="744.824219"/>
      <use xlink:href="#ArialMT-29" x="800.439453"/>
     </g>
    </g>
   </g>
   <g id="LineCollection_1">
    <path d="M 40.859813 59.625736 
L 124.559813 59.625736 
" clip-path="url(#pcdb1989d10)" style="fill: none; stroke-dasharray: 1.85,0.8; stroke-dashoffset: 0; stroke: #00b2ff; stroke-width: 0.5"/>
   </g>
   <g id="LineCollection_2">
    <path d="M 40.859813 47.670964 
L 130.538384 47.670964 
" clip-path="url(#pcdb1989d10)" style="fill: none; stroke-dasharray: 1.85,0.8; stroke-dashoffset: 0; stroke: #ff0000; stroke-width: 0.5"/>
   </g>
   <g id="patch_6">
    <path d="M 43.071884 49.139528 
L 45.024884 49.139528 
L 45.024884 48.095067 
L 44.536634 47.792742 
L 45.024884 47.490417 
L 45.024884 46.416263 
L 43.071884 46.416263 
L 43.071884 47.490417 
L 43.560134 47.792742 
L 43.071884 48.095067 
L 43.071884 49.139528 
z
" clip-path="url(#pcdb1989d10)" style="fill: #808080; stroke: #4c4c4c; stroke-width: 0.5; stroke-linejoin: miter"/>
   </g>
   <g id="line2d_10">
    <path d="M 44.048384 49.139528 
L 44.048384 52.298261 
" clip-path="url(#pcdb1989d10)" style="fill: none; stroke: #4c4c4c; stroke-width: 0.5"/>
   </g>
   <g id="line2d_11">
    <path d="M 44.048384 46.416263 
L 44.048384 42.90729 
" clip-path="url(#pcdb1989d10)" style="fill: none; stroke: #4c4c4c; stroke-width: 0.5"/>
   </g>
   <g id="line2d_12">
    <path d="M 43.560134 52.298261 
L 44.536634 52.298261 
" clip-path="url(#pcdb1989d10)" style="fill: none; stroke: #4c4c4c; stroke-width: 0.5; stroke-linecap: square"/>
   </g>
   <g id="line2d_13">
    <path d="M 43.560134 42.90729 
L 44.536634 42.90729 
" clip-path="url(#pcdb1989d10)" style="fill: none; stroke: #4c4c4c; stroke-width: 0.5; stroke-linecap: square"/>
   </g>
   <g id="line2d_14"/>
   <g id="patch_7">
    <path d="M 57.819027 52.852449 
L 59.772027 52.852449 
L 59.772027 51.877352 
L 59.283777 51.630413 
L 59.772027 51.383474 
L 59.772027 50.628088 
L 57.819027 50.628088 
L 57.819027 51.383474 
L 58.307277 51.630413 
L 57.819027 51.877352 
L 57.819027 52.852449 
z
" clip-path="url(#pcdb1989d10)" style="fill: #df2020; stroke: #4c4c4c; stroke-width: 0.5; stroke-linejoin: miter"/>
   </g>
   <g id="line2d_15">
    <path d="M 58.795527 52.852449 
L 58.795527 55.778017 
" clip-path="url(#pcdb1989d10)" style="fill: none; stroke: #4c4c4c; stroke-width: 0.5"/>
   </g>
   <g id="line2d_16">
    <path d="M 58.795527 50.628088 
L 58.795527 47.9754 
" clip-path="url(#pcdb1989d10)" style="fill: none; stroke: #4c4c4c; stroke-width: 0.5"/>
   </g>
   <g id="line2d_17">
    <path d="M 58.307277 55.778017 
L 59.283777 55.778017 
" clip-path="url(#pcdb1989d10)" style="fill: none; stroke: #4c4c4c; stroke-width: 0.5; stroke-linecap: square"/>
   </g>
   <g id="line2d_18">
    <path d="M 58.307277 47.9754 
L 59.283777 47.9754 
" clip-path="url(#pcdb1989d10)" style="fill: none; stroke: #4c4c4c; stroke-width: 0.5; stroke-linecap: square"/>
   </g>
   <g id="line2d_19">
    <defs>
     <path id="mdc38ddb793" d="M 0 0.75 
C 0.198902 0.75 0.389685 0.670975 0.53033 0.53033 
C 0.670975 0.389685 0.75 0.198902 0.75 0 
C 0.75 -0.198902 0.670975 -0.389685 0.53033 -0.53033 
C 0.389685 -0.670975 0.198902 -0.75 0 -0.75 
C -0.198902 -0.75 -0.389685 -0.670975 -0.53033 -0.53033 
C -0.670975 -0.389685 -0.75 -0.198902 -0.75 0 
C -0.75 0.198902 -0.670975 0.389685 -0.53033 0.53033 
C -0.389685 0.670975 -0.198902 0.75 0 0.75 
z
" style="stroke: #4c4c4c; stroke-width: 0.5"/>
    </defs>
    <g clip-path="url(#pcdb1989d10)">
     <use xlink:href="#mdc38ddb793" x="58.795527" y="46.751814" style="fill: #ffffff; stroke: #4c4c4c; stroke-width: 0.5"/>
     <use xlink:href="#mdc38ddb793" x="58.795527" y="46.941402" style="fill: #ffffff; stroke: #4c4c4c; stroke-width: 0.5"/>
    </g>
   </g>
   <g id="patch_8">
    <path d="M 69.77617 54.213049 
L 71.72917 54.213049 
L 71.72917 53.61255 
L 71.24092 53.40586 
L 71.72917 53.199171 
L 71.72917 52.351244 
L 69.77617 52.351244 
L 69.77617 53.199171 
L 70.26442 53.40586 
L 69.77617 53.61255 
L 69.77617 54.213049 
z
" clip-path="url(#pcdb1989d10)" style="fill: #df2020; stroke: #4c4c4c; stroke-width: 0.5; stroke-linejoin: miter"/>
   </g>
   <g id="line2d_20">
    <path d="M 70.75267 54.213049 
L 70.75267 56.990675 
" clip-path="url(#pcdb1989d10)" style="fill: none; stroke: #4c4c4c; stroke-width: 0.5"/>
   </g>
   <g id="line2d_21">
    <path d="M 70.75267 52.351244 
L 70.75267 49.592473 
" clip-path="url(#pcdb1989d10)" style="fill: none; stroke: #4c4c4c; stroke-width: 0.5"/>
   </g>
   <g id="line2d_22">
    <path d="M 70.26442 56.990675 
L 71.24092 56.990675 
" clip-path="url(#pcdb1989d10)" style="fill: none; stroke: #4c4c4c; stroke-width: 0.5; stroke-linecap: square"/>
   </g>
   <g id="line2d_23">
    <path d="M 70.26442 49.592473 
L 71.24092 49.592473 
" clip-path="url(#pcdb1989d10)" style="fill: none; stroke: #4c4c4c; stroke-width: 0.5; stroke-linecap: square"/>
   </g>
   <g id="line2d_24">
    <g clip-path="url(#pcdb1989d10)">
     <use xlink:href="#mdc38ddb793" x="70.75267" y="57.020016" style="fill: #ffffff; stroke: #4c4c4c; stroke-width: 0.5"/>
     <use xlink:href="#mdc38ddb793" x="70.75267" y="57.634376" style="fill: #ffffff; stroke: #4c4c4c; stroke-width: 0.5"/>
     <use xlink:href="#mdc38ddb793" x="70.75267" y="49.354091" style="fill: #ffffff; stroke: #4c4c4c; stroke-width: 0.5"/>
     <use xlink:href="#mdc38ddb793" x="70.75267" y="49.348568" style="fill: #ffffff; stroke: #4c4c4c; stroke-width: 0.5"/>
     <use xlink:href="#mdc38ddb793" x="70.75267" y="49.479755" style="fill: #ffffff; stroke: #4c4c4c; stroke-width: 0.5"/>
     <use xlink:href="#mdc38ddb793" x="70.75267" y="49.322301" style="fill: #ffffff; stroke: #4c4c4c; stroke-width: 0.5"/>
    </g>
   </g>
   <g id="patch_9">
    <path d="M 81.733313 53.421778 
L 83.686312 53.421778 
L 83.686312 52.582767 
L 83.198063 52.336316 
L 83.686312 52.089865 
L 83.686312 51.201813 
L 81.733313 51.201813 
L 81.733313 52.089865 
L 82.221563 52.336316 
L 81.733313 52.582767 
L 81.733313 53.421778 
z
" clip-path="url(#pcdb1989d10)" style="fill: #df2020; stroke: #4c4c4c; stroke-width: 0.5; stroke-linejoin: miter"/>
   </g>
   <g id="line2d_25">
    <path d="M 82.709812 53.421778 
L 82.709812 56.093619 
" clip-path="url(#pcdb1989d10)" style="fill: none; stroke: #4c4c4c; stroke-width: 0.5"/>
   </g>
   <g id="line2d_26">
    <path d="M 82.709812 51.201813 
L 82.709812 48.005847 
" clip-path="url(#pcdb1989d10)" style="fill: none; stroke: #4c4c4c; stroke-width: 0.5"/>
   </g>
   <g id="line2d_27">
    <path d="M 82.221563 56.093619 
L 83.198063 56.093619 
" clip-path="url(#pcdb1989d10)" style="fill: none; stroke: #4c4c4c; stroke-width: 0.5; stroke-linecap: square"/>
   </g>
   <g id="line2d_28">
    <path d="M 82.221563 48.005847 
L 83.198063 48.005847 
" clip-path="url(#pcdb1989d10)" style="fill: none; stroke: #4c4c4c; stroke-width: 0.5; stroke-linecap: square"/>
   </g>
   <g id="line2d_29">
    <g clip-path="url(#pcdb1989d10)">
     <use xlink:href="#mdc38ddb793" x="82.709812" y="62.750343" style="fill: #ffffff; stroke: #4c4c4c; stroke-width: 0.5"/>
     <use xlink:href="#mdc38ddb793" x="82.709812" y="56.904812" style="fill: #ffffff; stroke: #4c4c4c; stroke-width: 0.5"/>
     <use xlink:href="#mdc38ddb793" x="82.709812" y="47.595229" style="fill: #ffffff; stroke: #4c4c4c; stroke-width: 0.5"/>
    </g>
   </g>
   <g id="patch_10">
    <path d="M 93.690455 53.697572 
L 95.643455 53.697572 
L 95.643455 52.956189 
L 95.155205 52.725541 
L 95.643455 52.494893 
L 95.643455 51.619957 
L 93.690455 51.619957 
L 93.690455 52.494893 
L 94.178705 52.725541 
L 93.690455 52.956189 
L 93.690455 53.697572 
z
" clip-path="url(#pcdb1989d10)" style="fill: #df2020; stroke: #4c4c4c; stroke-width: 0.5; stroke-linejoin: miter"/>
   </g>
   <g id="line2d_30">
    <path d="M 94.666955 53.697572 
L 94.666955 56.704301 
" clip-path="url(#pcdb1989d10)" style="fill: none; stroke: #4c4c4c; stroke-width: 0.5"/>
   </g>
   <g id="line2d_31">
    <path d="M 94.666955 51.619957 
L 94.666955 48.653275 
" clip-path="url(#pcdb1989d10)" style="fill: none; stroke: #4c4c4c; stroke-width: 0.5"/>
   </g>
   <g id="line2d_32">
    <path d="M 94.178705 56.704301 
L 95.155205 56.704301 
" clip-path="url(#pcdb1989d10)" style="fill: none; stroke: #4c4c4c; stroke-width: 0.5; stroke-linecap: square"/>
   </g>
   <g id="line2d_33">
    <path d="M 94.178705 48.653275 
L 95.155205 48.653275 
" clip-path="url(#pcdb1989d10)" style="fill: none; stroke: #4c4c4c; stroke-width: 0.5; stroke-linecap: square"/>
   </g>
   <g id="line2d_34">
    <g clip-path="url(#pcdb1989d10)">
     <use xlink:href="#mdc38ddb793" x="94.666955" y="47.909964" style="fill: #ffffff; stroke: #4c4c4c; stroke-width: 0.5"/>
     <use xlink:href="#mdc38ddb793" x="94.666955" y="48.047316" style="fill: #ffffff; stroke: #4c4c4c; stroke-width: 0.5"/>
     <use xlink:href="#mdc38ddb793" x="94.666955" y="48.318889" style="fill: #ffffff; stroke: #4c4c4c; stroke-width: 0.5"/>
    </g>
   </g>
   <g id="patch_11">
    <path d="M 105.647598 51.441136 
L 107.600598 51.441136 
L 107.600598 50.677544 
L 107.112348 50.427032 
L 107.600598 50.176521 
L 107.600598 49.184592 
L 105.647598 49.184592 
L 105.647598 50.176521 
L 106.135848 50.427032 
L 105.647598 50.677544 
L 105.647598 51.441136 
z
" clip-path="url(#pcdb1989d10)" style="fill: #df2020; stroke: #4c4c4c; stroke-width: 0.5; stroke-linejoin: miter"/>
   </g>
   <g id="line2d_35">
    <path d="M 106.624098 51.441136 
L 106.624098 54.38521 
" clip-path="url(#pcdb1989d10)" style="fill: none; stroke: #4c4c4c; stroke-width: 0.5"/>
   </g>
   <g id="line2d_36">
    <path d="M 106.624098 49.184592 
L 106.624098 46.576359 
" clip-path="url(#pcdb1989d10)" style="fill: none; stroke: #4c4c4c; stroke-width: 0.5"/>
   </g>
   <g id="line2d_37">
    <path d="M 106.135848 54.38521 
L 107.112348 54.38521 
" clip-path="url(#pcdb1989d10)" style="fill: none; stroke: #4c4c4c; stroke-width: 0.5; stroke-linecap: square"/>
   </g>
   <g id="line2d_38">
    <path d="M 106.135848 46.576359 
L 107.112348 46.576359 
" clip-path="url(#pcdb1989d10)" style="fill: none; stroke: #4c4c4c; stroke-width: 0.5; stroke-linecap: square"/>
   </g>
   <g id="line2d_39"/>
   <g id="patch_12">
    <path d="M 117.604741 52.99523 
L 119.557741 52.99523 
L 119.557741 52.239754 
L 119.069491 51.998195 
L 119.557741 51.756635 
L 119.557741 50.819323 
L 117.604741 50.819323 
L 117.604741 51.756635 
L 118.092991 51.998195 
L 117.604741 52.239754 
L 117.604741 52.99523 
z
" clip-path="url(#pcdb1989d10)" style="fill: #df2020; stroke: #4c4c4c; stroke-width: 0.5; stroke-linejoin: miter"/>
   </g>
   <g id="line2d_40">
    <path d="M 118.581241 52.99523 
L 118.581241 56.076632 
" clip-path="url(#pcdb1989d10)" style="fill: none; stroke: #4c4c4c; stroke-width: 0.5"/>
   </g>
   <g id="line2d_41">
    <path d="M 118.581241 50.819323 
L 118.581241 48.582733 
" clip-path="url(#pcdb1989d10)" style="fill: none; stroke: #4c4c4c; stroke-width: 0.5"/>
   </g>
   <g id="line2d_42">
    <path d="M 118.092991 56.076632 
L 119.069491 56.076632 
" clip-path="url(#pcdb1989d10)" style="fill: none; stroke: #4c4c4c; stroke-width: 0.5; stroke-linecap: square"/>
   </g>
   <g id="line2d_43">
    <path d="M 118.092991 48.582733 
L 119.069491 48.582733 
" clip-path="url(#pcdb1989d10)" style="fill: none; stroke: #4c4c4c; stroke-width: 0.5; stroke-linecap: square"/>
   </g>
   <g id="line2d_44">
    <g clip-path="url(#pcdb1989d10)">
     <use xlink:href="#mdc38ddb793" x="118.581241" y="57.68833" style="fill: #ffffff; stroke: #4c4c4c; stroke-width: 0.5"/>
    </g>
   </g>
   <g id="patch_13">
    <path d="M 60.609027 56.364712 
L 62.562027 56.364712 
L 62.562027 53.108708 
L 62.073777 52.553192 
L 62.562027 51.997676 
L 62.562027 49.288077 
L 60.609027 49.288077 
L 60.609027 51.997676 
L 61.097277 52.553192 
L 60.609027 53.108708 
L 60.609027 56.364712 
z
" clip-path="url(#pcdb1989d10)" style="fill: #ffffff; stroke: #4c4c4c; stroke-width: 0.5; stroke-linejoin: miter"/>
   </g>
   <g id="line2d_45">
    <path d="M 61.585527 56.364712 
L 61.585527 59.473102 
" clip-path="url(#pcdb1989d10)" style="fill: none; stroke: #4c4c4c; stroke-width: 0.5"/>
   </g>
   <g id="line2d_46">
    <path d="M 61.585527 49.288077 
L 61.585527 44.194656 
" clip-path="url(#pcdb1989d10)" style="fill: none; stroke: #4c4c4c; stroke-width: 0.5"/>
   </g>
   <g id="line2d_47">
    <path d="M 61.097277 59.473102 
L 62.073777 59.473102 
" clip-path="url(#pcdb1989d10)" style="fill: none; stroke: #4c4c4c; stroke-width: 0.5; stroke-linecap: square"/>
   </g>
   <g id="line2d_48">
    <path d="M 61.097277 44.194656 
L 62.073777 44.194656 
" clip-path="url(#pcdb1989d10)" style="fill: none; stroke: #4c4c4c; stroke-width: 0.5; stroke-linecap: square"/>
   </g>
   <g id="line2d_49"/>
   <g id="patch_14">
    <path d="M 72.56617 66.9582 
L 74.51917 66.9582 
L 74.51917 57.133178 
L 74.03092 55.035102 
L 74.51917 52.937025 
L 74.51917 40.231113 
L 72.56617 40.231113 
L 72.56617 52.937025 
L 73.05442 55.035102 
L 72.56617 57.133178 
L 72.56617 66.9582 
z
" clip-path="url(#pcdb1989d10)" style="fill: #ffffff; stroke: #4c4c4c; stroke-width: 0.5; stroke-linejoin: miter"/>
   </g>
   <g id="line2d_50">
    <path d="M 73.54267 66.9582 
L 73.54267 69.594815 
" clip-path="url(#pcdb1989d10)" style="fill: none; stroke: #4c4c4c; stroke-width: 0.5"/>
   </g>
   <g id="line2d_51">
    <path d="M 73.54267 40.231113 
L 73.54267 35.141883 
" clip-path="url(#pcdb1989d10)" style="fill: none; stroke: #4c4c4c; stroke-width: 0.5"/>
   </g>
   <g id="line2d_52">
    <path d="M 73.05442 69.594815 
L 74.03092 69.594815 
" clip-path="url(#pcdb1989d10)" style="fill: none; stroke: #4c4c4c; stroke-width: 0.5; stroke-linecap: square"/>
   </g>
   <g id="line2d_53">
    <path d="M 73.05442 35.141883 
L 74.03092 35.141883 
" clip-path="url(#pcdb1989d10)" style="fill: none; stroke: #4c4c4c; stroke-width: 0.5; stroke-linecap: square"/>
   </g>
   <g id="line2d_54"/>
   <g id="patch_15">
    <path d="M 84.523313 55.99166 
L 86.476313 55.99166 
L 86.476313 53.552395 
L 85.988063 52.809306 
L 86.476313 52.066217 
L 86.476313 46.525558 
L 84.523313 46.525558 
L 84.523313 52.066217 
L 85.011562 52.809306 
L 84.523313 53.552395 
L 84.523313 55.99166 
z
" clip-path="url(#pcdb1989d10)" style="fill: #ffffff; stroke: #4c4c4c; stroke-width: 0.5; stroke-linejoin: miter"/>
   </g>
   <g id="line2d_55">
    <path d="M 85.499813 55.99166 
L 85.499813 58.739849 
" clip-path="url(#pcdb1989d10)" style="fill: none; stroke: #4c4c4c; stroke-width: 0.5"/>
   </g>
   <g id="line2d_56">
    <path d="M 85.499813 46.525558 
L 85.499813 41.280058 
" clip-path="url(#pcdb1989d10)" style="fill: none; stroke: #4c4c4c; stroke-width: 0.5"/>
   </g>
   <g id="line2d_57">
    <path d="M 85.011562 58.739849 
L 85.988063 58.739849 
" clip-path="url(#pcdb1989d10)" style="fill: none; stroke: #4c4c4c; stroke-width: 0.5; stroke-linecap: square"/>
   </g>
   <g id="line2d_58">
    <path d="M 85.011562 41.280058 
L 85.988063 41.280058 
" clip-path="url(#pcdb1989d10)" style="fill: none; stroke: #4c4c4c; stroke-width: 0.5; stroke-linecap: square"/>
   </g>
   <g id="line2d_59"/>
   <g id="patch_16">
    <path d="M 96.480455 58.659906 
L 98.433455 58.659906 
L 98.433455 53.523762 
L 97.945205 52.496125 
L 98.433455 51.468488 
L 98.433455 45.568989 
L 96.480455 45.568989 
L 96.480455 51.468488 
L 96.968705 52.496125 
L 96.480455 53.523762 
L 96.480455 58.659906 
z
" clip-path="url(#pcdb1989d10)" style="fill: #ffffff; stroke: #4c4c4c; stroke-width: 0.5; stroke-linejoin: miter"/>
   </g>
   <g id="line2d_60">
    <path d="M 97.456955 58.659906 
L 97.456955 61.823808 
" clip-path="url(#pcdb1989d10)" style="fill: none; stroke: #4c4c4c; stroke-width: 0.5"/>
   </g>
   <g id="line2d_61">
    <path d="M 97.456955 45.568989 
L 97.456955 40.109316 
" clip-path="url(#pcdb1989d10)" style="fill: none; stroke: #4c4c4c; stroke-width: 0.5"/>
   </g>
   <g id="line2d_62">
    <path d="M 96.968705 61.823808 
L 97.945205 61.823808 
" clip-path="url(#pcdb1989d10)" style="fill: none; stroke: #4c4c4c; stroke-width: 0.5; stroke-linecap: square"/>
   </g>
   <g id="line2d_63">
    <path d="M 96.968705 40.109316 
L 97.945205 40.109316 
" clip-path="url(#pcdb1989d10)" style="fill: none; stroke: #4c4c4c; stroke-width: 0.5; stroke-linecap: square"/>
   </g>
   <g id="line2d_64"/>
   <g id="patch_17">
    <path d="M 108.437598 77.203869 
L 110.390598 77.203869 
L 110.390598 62.380495 
L 109.902348 59.131844 
L 110.390598 55.883194 
L 110.390598 35.819784 
L 108.437598 35.819784 
L 108.437598 55.883194 
L 108.925848 59.131844 
L 108.437598 62.380495 
L 108.437598 77.203869 
z
" clip-path="url(#pcdb1989d10)" style="fill: #ffffff; stroke: #4c4c4c; stroke-width: 0.5; stroke-linejoin: miter"/>
   </g>
   <g id="line2d_65">
    <path d="M 109.414098 77.203869 
L 109.414098 79.296 
" clip-path="url(#pcdb1989d10)" style="fill: none; stroke: #4c4c4c; stroke-width: 0.5"/>
   </g>
   <g id="line2d_66">
    <path d="M 109.414098 35.819784 
L 109.414098 28.896 
" clip-path="url(#pcdb1989d10)" style="fill: none; stroke: #4c4c4c; stroke-width: 0.5"/>
   </g>
   <g id="line2d_67">
    <path d="M 108.925848 79.296 
L 109.902348 79.296 
" clip-path="url(#pcdb1989d10)" style="fill: none; stroke: #4c4c4c; stroke-width: 0.5; stroke-linecap: square"/>
   </g>
   <g id="line2d_68">
    <path d="M 108.925848 28.896 
L 109.902348 28.896 
" clip-path="url(#pcdb1989d10)" style="fill: none; stroke: #4c4c4c; stroke-width: 0.5; stroke-linecap: square"/>
   </g>
   <g id="line2d_69"/>
   <g id="patch_18">
    <path d="M 120.394741 54.622063 
L 122.347741 54.622063 
L 122.347741 53.282608 
L 121.859491 53.02275 
L 122.347741 52.762893 
L 122.347741 51.311781 
L 120.394741 51.311781 
L 120.394741 52.762893 
L 120.882991 53.02275 
L 120.394741 53.282608 
L 120.394741 54.622063 
z
" clip-path="url(#pcdb1989d10)" style="fill: #ffffff; stroke: #4c4c4c; stroke-width: 0.5; stroke-linejoin: miter"/>
   </g>
   <g id="line2d_70">
    <path d="M 121.371241 54.622063 
L 121.371241 58.302793 
" clip-path="url(#pcdb1989d10)" style="fill: none; stroke: #4c4c4c; stroke-width: 0.5"/>
   </g>
   <g id="line2d_71">
    <path d="M 121.371241 51.311781 
L 121.371241 47.867639 
" clip-path="url(#pcdb1989d10)" style="fill: none; stroke: #4c4c4c; stroke-width: 0.5"/>
   </g>
   <g id="line2d_72">
    <path d="M 120.882991 58.302793 
L 121.859491 58.302793 
" clip-path="url(#pcdb1989d10)" style="fill: none; stroke: #4c4c4c; stroke-width: 0.5; stroke-linecap: square"/>
   </g>
   <g id="line2d_73">
    <path d="M 120.882991 47.867639 
L 121.859491 47.867639 
" clip-path="url(#pcdb1989d10)" style="fill: none; stroke: #4c4c4c; stroke-width: 0.5; stroke-linecap: square"/>
   </g>
   <g id="line2d_74"/>
   <g id="line2d_75">
    <path d="M 43.560134 47.792742 
L 44.536634 47.792742 
" clip-path="url(#pcdb1989d10)" style="fill: none; stroke: #4c4c4c; stroke-width: 0.5"/>
   </g>
   <g id="line2d_76">
    <path d="M 58.307277 51.630413 
L 59.283777 51.630413 
" clip-path="url(#pcdb1989d10)" style="fill: none; stroke: #4c4c4c; stroke-width: 0.5"/>
   </g>
   <g id="line2d_77">
    <path d="M 70.26442 53.40586 
L 71.24092 53.40586 
" clip-path="url(#pcdb1989d10)" style="fill: none; stroke: #4c4c4c; stroke-width: 0.5"/>
   </g>
   <g id="line2d_78">
    <path d="M 82.221563 52.336316 
L 83.198063 52.336316 
" clip-path="url(#pcdb1989d10)" style="fill: none; stroke: #4c4c4c; stroke-width: 0.5"/>
   </g>
   <g id="line2d_79">
    <path d="M 94.178705 52.725541 
L 95.155205 52.725541 
" clip-path="url(#pcdb1989d10)" style="fill: none; stroke: #4c4c4c; stroke-width: 0.5"/>
   </g>
   <g id="line2d_80">
    <path d="M 106.135848 50.427032 
L 107.112348 50.427032 
" clip-path="url(#pcdb1989d10)" style="fill: none; stroke: #4c4c4c; stroke-width: 0.5"/>
   </g>
   <g id="line2d_81">
    <path d="M 118.092991 51.998195 
L 119.069491 51.998195 
" clip-path="url(#pcdb1989d10)" style="fill: none; stroke: #4c4c4c; stroke-width: 0.5"/>
   </g>
   <g id="line2d_82">
    <path d="M 61.097277 52.553192 
L 62.073777 52.553192 
" clip-path="url(#pcdb1989d10)" style="fill: none; stroke: #4c4c4c; stroke-width: 0.5"/>
   </g>
   <g id="line2d_83">
    <path d="M 73.05442 55.035102 
L 74.03092 55.035102 
" clip-path="url(#pcdb1989d10)" style="fill: none; stroke: #4c4c4c; stroke-width: 0.5"/>
   </g>
   <g id="line2d_84">
    <path d="M 85.011562 52.809306 
L 85.988063 52.809306 
" clip-path="url(#pcdb1989d10)" style="fill: none; stroke: #4c4c4c; stroke-width: 0.5"/>
   </g>
   <g id="line2d_85">
    <path d="M 96.968705 52.496125 
L 97.945205 52.496125 
" clip-path="url(#pcdb1989d10)" style="fill: none; stroke: #4c4c4c; stroke-width: 0.5"/>
   </g>
   <g id="line2d_86">
    <path d="M 108.925848 59.131844 
L 109.902348 59.131844 
" clip-path="url(#pcdb1989d10)" style="fill: none; stroke: #4c4c4c; stroke-width: 0.5"/>
   </g>
   <g id="line2d_87">
    <path d="M 120.882991 53.02275 
L 121.859491 53.02275 
" clip-path="url(#pcdb1989d10)" style="fill: none; stroke: #4c4c4c; stroke-width: 0.5"/>
   </g>
   <g id="patch_19">
    <path d="M 36.674813 81.816 
L 36.674813 26.376 
" style="fill: none; stroke: #000000; stroke-width: 0.5; stroke-linejoin: miter; stroke-linecap: square"/>
   </g>
   <g id="patch_20">
    <path d="M 40.859813 84.588 
L 124.559813 84.588 
" style="fill: none; stroke: #000000; stroke-width: 0.5; stroke-linejoin: miter; stroke-linecap: square"/>
   </g>
   <g id="legend_1">
    <g id="line2d_88">
     <path d="M 79.739813 11.794687 
L 91.739813 11.794687 
" style="fill: none; stroke-dasharray: 1.85,0.8; stroke-dashoffset: 0; stroke: #00b2ff; stroke-width: 0.5"/>
    </g>
    <g id="text_12">
     <!-- ground_truth -->
     <g transform="translate(96.539813 13.894687) scale(0.06 -0.06)">
      <defs>
       <path id="ArialMT-5f" d="M -97 -1272 
L -97 -866 
L 3631 -866 
L 3631 -1272 
L -97 -1272 
z
" transform="scale(0.015625)"/>
      </defs>
      <use xlink:href="#ArialMT-67"/>
      <use xlink:href="#ArialMT-72" x="55.615234"/>
      <use xlink:href="#ArialMT-6f" x="88.916016"/>
      <use xlink:href="#ArialMT-75" x="144.53125"/>
      <use xlink:href="#ArialMT-6e" x="200.146484"/>
      <use xlink:href="#ArialMT-64" x="255.761719"/>
      <use xlink:href="#ArialMT-5f" x="311.376953"/>
      <use xlink:href="#ArialMT-74" x="366.992188"/>
      <use xlink:href="#ArialMT-72" x="394.775391"/>
      <use xlink:href="#ArialMT-75" x="428.076172"/>
      <use xlink:href="#ArialMT-74" x="483.691406"/>
      <use xlink:href="#ArialMT-68" x="511.474609"/>
     </g>
    </g>
    <g id="line2d_89">
     <path d="M 79.739813 20.352187 
L 91.739813 20.352187 
" style="fill: none; stroke-dasharray: 1.85,0.8; stroke-dashoffset: 0; stroke: #ff0000; stroke-width: 0.5"/>
    </g>
    <g id="text_13">
     <!-- good + merged + partial -->
     <g transform="translate(96.539813 22.452187) scale(0.06 -0.06)">
      <defs>
       <path id="ArialMT-2b" d="M 1603 741 
L 1603 1997 
L 356 1997 
L 356 2522 
L 1603 2522 
L 1603 3769 
L 2134 3769 
L 2134 2522 
L 3381 2522 
L 3381 1997 
L 2134 1997 
L 2134 741 
L 1603 741 
z
" transform="scale(0.015625)"/>
       <path id="ArialMT-6d" d="M 422 0 
L 422 3319 
L 925 3319 
L 925 2853 
Q 1081 3097 1340 3245 
Q 1600 3394 1931 3394 
Q 2300 3394 2536 3241 
Q 2772 3088 2869 2813 
Q 3263 3394 3894 3394 
Q 4388 3394 4653 3120 
Q 4919 2847 4919 2278 
L 4919 0 
L 4359 0 
L 4359 2091 
Q 4359 2428 4304 2576 
Q 4250 2725 4106 2815 
Q 3963 2906 3769 2906 
Q 3419 2906 3187 2673 
Q 2956 2441 2956 1928 
L 2956 0 
L 2394 0 
L 2394 2156 
Q 2394 2531 2256 2718 
Q 2119 2906 1806 2906 
Q 1569 2906 1367 2781 
Q 1166 2656 1075 2415 
Q 984 2175 984 1722 
L 984 0 
L 422 0 
z
" transform="scale(0.015625)"/>
      </defs>
      <use xlink:href="#ArialMT-67"/>
      <use xlink:href="#ArialMT-6f" x="55.615234"/>
      <use xlink:href="#ArialMT-6f" x="111.230469"/>
      <use xlink:href="#ArialMT-64" x="166.845703"/>
      <use xlink:href="#ArialMT-20" x="222.460938"/>
      <use xlink:href="#ArialMT-2b" x="250.244141"/>
      <use xlink:href="#ArialMT-20" x="308.642578"/>
      <use xlink:href="#ArialMT-6d" x="336.425781"/>
      <use xlink:href="#ArialMT-65" x="419.726562"/>
      <use xlink:href="#ArialMT-72" x="475.341797"/>
      <use xlink:href="#ArialMT-67" x="508.642578"/>
      <use xlink:href="#ArialMT-65" x="564.257812"/>
      <use xlink:href="#ArialMT-64" x="619.873047"/>
      <use xlink:href="#ArialMT-20" x="675.488281"/>
      <use xlink:href="#ArialMT-2b" x="703.271484"/>
      <use xlink:href="#ArialMT-20" x="761.669922"/>
      <use xlink:href="#ArialMT-70" x="789.453125"/>
      <use xlink:href="#ArialMT-61" x="845.068359"/>
      <use xlink:href="#ArialMT-72" x="900.683594"/>
      <use xlink:href="#ArialMT-74" x="933.984375"/>
      <use xlink:href="#ArialMT-69" x="961.767578"/>
      <use xlink:href="#ArialMT-61" x="983.984375"/>
      <use xlink:href="#ArialMT-6c" x="1039.599609"/>
     </g>
    </g>
    <g id="patch_21">
     <path d="M 79.739813 31.009687 
L 91.739813 31.009687 
L 91.739813 26.809687 
L 79.739813 26.809687 
z
" style="fill: #808080; stroke: #4c4c4c; stroke-width: 0.5; stroke-linejoin: miter"/>
    </g>
    <g id="text_14">
     <!-- merged + partial -->
     <g transform="translate(96.539813 31.009687) scale(0.06 -0.06)">
      <use xlink:href="#ArialMT-6d"/>
      <use xlink:href="#ArialMT-65" x="83.300781"/>
      <use xlink:href="#ArialMT-72" x="138.916016"/>
      <use xlink:href="#ArialMT-67" x="172.216797"/>
      <use xlink:href="#ArialMT-65" x="227.832031"/>
      <use xlink:href="#ArialMT-64" x="283.447266"/>
      <use xlink:href="#ArialMT-20" x="339.0625"/>
      <use xlink:href="#ArialMT-2b" x="366.845703"/>
      <use xlink:href="#ArialMT-20" x="425.244141"/>
      <use xlink:href="#ArialMT-70" x="453.027344"/>
      <use xlink:href="#ArialMT-61" x="508.642578"/>
      <use xlink:href="#ArialMT-72" x="564.257812"/>
      <use xlink:href="#ArialMT-74" x="597.558594"/>
      <use xlink:href="#ArialMT-69" x="625.341797"/>
      <use xlink:href="#ArialMT-61" x="647.558594"/>
      <use xlink:href="#ArialMT-6c" x="703.173828"/>
     </g>
    </g>
   </g>
  </g>
 </g>
 <defs>
  <clipPath id="pcdb1989d10">
   <rect x="40.859813" y="26.376" width="83.7" height="55.44"/>
  </clipPath>
 </defs>
</svg>
