<?xml version="1.0" encoding="utf-8" standalone="no"?>
<!DOCTYPE svg PUBLIC "-//W3C//DTD SVG 1.1//EN"
  "http://www.w3.org/Graphics/SVG/1.1/DTD/svg11.dtd">
<svg xmlns:xlink="http://www.w3.org/1999/xlink" width="174.920625pt" height="168.249299pt" viewBox="0 0 174.920625 168.249299" xmlns="http://www.w3.org/2000/svg" version="1.1">
 <metadata>
  <rdf:RDF xmlns:dc="http://purl.org/dc/elements/1.1/" xmlns:cc="http://creativecommons.org/ns#" xmlns:rdf="http://www.w3.org/1999/02/22-rdf-syntax-ns#">
   <cc:Work>
    <dc:type rdf:resource="http://purl.org/dc/dcmitype/StillImage"/>
    <dc:date>2024-10-22T10:54:24.331367</dc:date>
    <dc:format>image/svg+xml</dc:format>
    <dc:creator>
     <cc:Agent>
      <dc:title>Matplotlib v3.8.0, https://matplotlib.org/</dc:title>
     </cc:Agent>
    </dc:creator>
   </cc:Work>
  </rdf:RDF>
 </metadata>
 <defs>
  <style type="text/css">*{stroke-linejoin: round; stroke-linecap: butt}</style>
 </defs>
 <g id="figure_1">
  <g id="patch_1">
   <path d="M 0 168.249299 
L 174.920625 168.249299 
L 174.920625 0 
L 0 0 
L 0 168.249299 
z
" style="fill: none"/>
  </g>
  <g id="axes_1">
   <g id="patch_2">
    <path d="M 54.42 120.624 
L 154.86 120.624 
L 154.86 37.464 
L 54.42 37.464 
L 54.42 120.624 
z
" style="fill: none"/>
   </g>
   <g id="patch_3">
    <path d="M 58.851176 277.829695 
L 58.851176 277.829695 
L 58.851176 277.829695 
L 58.851176 277.829695 
z
" clip-path="url(#p75cb1019ad)" style="fill: #df2020; stroke: #4c4c4c; stroke-width: 0.5; stroke-linejoin: miter"/>
   </g>
   <g id="patch_4">
    <path d="M 58.851176 277.829695 
L 58.851176 277.829695 
L 58.851176 277.829695 
L 58.851176 277.829695 
z
" clip-path="url(#p75cb1019ad)" style="fill: #ffffff; stroke: #4c4c4c; stroke-width: 0.5; stroke-linejoin: miter"/>
   </g>
   <g id="matplotlib.axis_1">
    <g id="xtick_1">
     <g id="line2d_1">
      <defs>
       <path id="m0aebe5d355" d="M 0 0 
L 0 1.5 
" style="stroke: #000000; stroke-width: 0.3"/>
      </defs>
      <g>
       <use xlink:href="#m0aebe5d355" x="58.851176" y="124.782" style="stroke: #000000; stroke-width: 0.3"/>
      </g>
     </g>
     <g id="text_1">
      <!-- ground -->
      <g transform="translate(48.808217 144.343233) rotate(-30) scale(0.06 -0.06)">
       <defs>
        <path id="DejaVuSans-67" d="M 2906 1791 
Q 2906 2416 2648 2759 
Q 2391 3103 1925 3103 
Q 1463 3103 1205 2759 
Q 947 2416 947 1791 
Q 947 1169 1205 825 
Q 1463 481 1925 481 
Q 2391 481 2648 825 
Q 2906 1169 2906 1791 
z
M 3481 434 
Q 3481 -459 3084 -895 
Q 2688 -1331 1869 -1331 
Q 1566 -1331 1297 -1286 
Q 1028 -1241 775 -1147 
L 775 -588 
Q 1028 -725 1275 -790 
Q 1522 -856 1778 -856 
Q 2344 -856 2625 -561 
Q 2906 -266 2906 331 
L 2906 616 
Q 2728 306 2450 153 
Q 2172 0 1784 0 
Q 1141 0 747 490 
Q 353 981 353 1791 
Q 353 2603 747 3093 
Q 1141 3584 1784 3584 
Q 2172 3584 2450 3431 
Q 2728 3278 2906 2969 
L 2906 3500 
L 3481 3500 
L 3481 434 
z
" transform="scale(0.015625)"/>
        <path id="DejaVuSans-72" d="M 2631 2963 
Q 2534 3019 2420 3045 
Q 2306 3072 2169 3072 
Q 1681 3072 1420 2755 
Q 1159 2438 1159 1844 
L 1159 0 
L 581 0 
L 581 3500 
L 1159 3500 
L 1159 2956 
Q 1341 3275 1631 3429 
Q 1922 3584 2338 3584 
Q 2397 3584 2469 3576 
Q 2541 3569 2628 3553 
L 2631 2963 
z
" transform="scale(0.015625)"/>
        <path id="DejaVuSans-6f" d="M 1959 3097 
Q 1497 3097 1228 2736 
Q 959 2375 959 1747 
Q 959 1119 1226 758 
Q 1494 397 1959 397 
Q 2419 397 2687 759 
Q 2956 1122 2956 1747 
Q 2956 2369 2687 2733 
Q 2419 3097 1959 3097 
z
M 1959 3584 
Q 2709 3584 3137 3096 
Q 3566 2609 3566 1747 
Q 3566 888 3137 398 
Q 2709 -91 1959 -91 
Q 1206 -91 779 398 
Q 353 888 353 1747 
Q 353 2609 779 3096 
Q 1206 3584 1959 3584 
z
" transform="scale(0.015625)"/>
        <path id="DejaVuSans-75" d="M 544 1381 
L 544 3500 
L 1119 3500 
L 1119 1403 
Q 1119 906 1312 657 
Q 1506 409 1894 409 
Q 2359 409 2629 706 
Q 2900 1003 2900 1516 
L 2900 3500 
L 3475 3500 
L 3475 0 
L 2900 0 
L 2900 538 
Q 2691 219 2414 64 
Q 2138 -91 1772 -91 
Q 1169 -91 856 284 
Q 544 659 544 1381 
z
M 1991 3584 
L 1991 3584 
z
" transform="scale(0.015625)"/>
        <path id="DejaVuSans-6e" d="M 3513 2113 
L 3513 0 
L 2938 0 
L 2938 2094 
Q 2938 2591 2744 2837 
Q 2550 3084 2163 3084 
Q 1697 3084 1428 2787 
Q 1159 2491 1159 1978 
L 1159 0 
L 581 0 
L 581 3500 
L 1159 3500 
L 1159 2956 
Q 1366 3272 1645 3428 
Q 1925 3584 2291 3584 
Q 2894 3584 3203 3211 
Q 3513 2838 3513 2113 
z
" transform="scale(0.015625)"/>
        <path id="DejaVuSans-64" d="M 2906 2969 
L 2906 4863 
L 3481 4863 
L 3481 0 
L 2906 0 
L 2906 525 
Q 2725 213 2448 61 
Q 2172 -91 1784 -91 
Q 1150 -91 751 415 
Q 353 922 353 1747 
Q 353 2572 751 3078 
Q 1150 3584 1784 3584 
Q 2172 3584 2448 3432 
Q 2725 3281 2906 2969 
z
M 947 1747 
Q 947 1113 1208 752 
Q 1469 391 1925 391 
Q 2381 391 2643 752 
Q 2906 1113 2906 1747 
Q 2906 2381 2643 2742 
Q 2381 3103 1925 3103 
Q 1469 3103 1208 2742 
Q 947 2381 947 1747 
z
" transform="scale(0.015625)"/>
       </defs>
       <use xlink:href="#DejaVuSans-67"/>
       <use xlink:href="#DejaVuSans-72" x="63.476562"/>
       <use xlink:href="#DejaVuSans-6f" x="102.339844"/>
       <use xlink:href="#DejaVuSans-75" x="163.521484"/>
       <use xlink:href="#DejaVuSans-6e" x="226.900391"/>
       <use xlink:href="#DejaVuSans-64" x="290.279297"/>
      </g>
      <!-- truth -->
      <g transform="translate(54.960492 148.549287) rotate(-30) scale(0.06 -0.06)">
       <defs>
        <path id="DejaVuSans-74" d="M 1172 4494 
L 1172 3500 
L 2356 3500 
L 2356 3053 
L 1172 3053 
L 1172 1153 
Q 1172 725 1289 603 
Q 1406 481 1766 481 
L 2356 481 
L 2356 0 
L 1766 0 
Q 1100 0 847 248 
Q 594 497 594 1153 
L 594 3053 
L 172 3053 
L 172 3500 
L 594 3500 
L 594 4494 
L 1172 4494 
z
" transform="scale(0.015625)"/>
        <path id="DejaVuSans-68" d="M 3513 2113 
L 3513 0 
L 2938 0 
L 2938 2094 
Q 2938 2591 2744 2837 
Q 2550 3084 2163 3084 
Q 1697 3084 1428 2787 
Q 1159 2491 1159 1978 
L 1159 0 
L 581 0 
L 581 4863 
L 1159 4863 
L 1159 2956 
Q 1366 3272 1645 3428 
Q 1925 3584 2291 3584 
Q 2894 3584 3203 3211 
Q 3513 2838 3513 2113 
z
" transform="scale(0.015625)"/>
       </defs>
       <use xlink:href="#DejaVuSans-74"/>
       <use xlink:href="#DejaVuSans-72" x="39.208984"/>
       <use xlink:href="#DejaVuSans-75" x="80.322266"/>
       <use xlink:href="#DejaVuSans-74" x="143.701172"/>
       <use xlink:href="#DejaVuSans-68" x="182.910156"/>
      </g>
     </g>
    </g>
    <g id="xtick_2">
     <g id="line2d_2">
      <g>
       <use xlink:href="#m0aebe5d355" x="73.621765" y="124.782" style="stroke: #000000; stroke-width: 0.3"/>
      </g>
     </g>
     <g id="text_2">
      <!-- KS4 -->
      <g transform="translate(69.443409 139.510889) rotate(-30) scale(0.06 -0.06)">
       <defs>
        <path id="DejaVuSans-4b" d="M 628 4666 
L 1259 4666 
L 1259 2694 
L 3353 4666 
L 4166 4666 
L 1850 2491 
L 4331 0 
L 3500 0 
L 1259 2247 
L 1259 0 
L 628 0 
L 628 4666 
z
" transform="scale(0.015625)"/>
        <path id="DejaVuSans-53" d="M 3425 4513 
L 3425 3897 
Q 3066 4069 2747 4153 
Q 2428 4238 2131 4238 
Q 1616 4238 1336 4038 
Q 1056 3838 1056 3469 
Q 1056 3159 1242 3001 
Q 1428 2844 1947 2747 
L 2328 2669 
Q 3034 2534 3370 2195 
Q 3706 1856 3706 1288 
Q 3706 609 3251 259 
Q 2797 -91 1919 -91 
Q 1588 -91 1214 -16 
Q 841 59 441 206 
L 441 856 
Q 825 641 1194 531 
Q 1563 422 1919 422 
Q 2459 422 2753 634 
Q 3047 847 3047 1241 
Q 3047 1584 2836 1778 
Q 2625 1972 2144 2069 
L 1759 2144 
Q 1053 2284 737 2584 
Q 422 2884 422 3419 
Q 422 4038 858 4394 
Q 1294 4750 2059 4750 
Q 2388 4750 2728 4690 
Q 3069 4631 3425 4513 
z
" transform="scale(0.015625)"/>
        <path id="DejaVuSans-34" d="M 2419 4116 
L 825 1625 
L 2419 1625 
L 2419 4116 
z
M 2253 4666 
L 3047 4666 
L 3047 1625 
L 3713 1625 
L 3713 1100 
L 3047 1100 
L 3047 0 
L 2419 0 
L 2419 1100 
L 313 1100 
L 313 1709 
L 2253 4666 
z
" transform="scale(0.015625)"/>
       </defs>
       <use xlink:href="#DejaVuSans-4b"/>
       <use xlink:href="#DejaVuSans-53" x="65.576172"/>
       <use xlink:href="#DejaVuSans-34" x="129.052734"/>
      </g>
     </g>
    </g>
    <g id="xtick_3">
     <g id="line2d_3">
      <g>
       <use xlink:href="#m0aebe5d355" x="88.392353" y="124.782" style="stroke: #000000; stroke-width: 0.3"/>
      </g>
     </g>
     <g id="text_3">
      <!-- KS3 -->
      <g transform="translate(84.213997 139.510889) rotate(-30) scale(0.06 -0.06)">
       <defs>
        <path id="DejaVuSans-33" d="M 2597 2516 
Q 3050 2419 3304 2112 
Q 3559 1806 3559 1356 
Q 3559 666 3084 287 
Q 2609 -91 1734 -91 
Q 1441 -91 1130 -33 
Q 819 25 488 141 
L 488 750 
Q 750 597 1062 519 
Q 1375 441 1716 441 
Q 2309 441 2620 675 
Q 2931 909 2931 1356 
Q 2931 1769 2642 2001 
Q 2353 2234 1838 2234 
L 1294 2234 
L 1294 2753 
L 1863 2753 
Q 2328 2753 2575 2939 
Q 2822 3125 2822 3475 
Q 2822 3834 2567 4026 
Q 2313 4219 1838 4219 
Q 1578 4219 1281 4162 
Q 984 4106 628 3988 
L 628 4550 
Q 988 4650 1302 4700 
Q 1616 4750 1894 4750 
Q 2613 4750 3031 4423 
Q 3450 4097 3450 3541 
Q 3450 3153 3228 2886 
Q 3006 2619 2597 2516 
z
" transform="scale(0.015625)"/>
       </defs>
       <use xlink:href="#DejaVuSans-4b"/>
       <use xlink:href="#DejaVuSans-53" x="65.576172"/>
       <use xlink:href="#DejaVuSans-33" x="129.052734"/>
      </g>
     </g>
    </g>
    <g id="xtick_4">
     <g id="line2d_4">
      <g>
       <use xlink:href="#m0aebe5d355" x="103.162941" y="124.782" style="stroke: #000000; stroke-width: 0.3"/>
      </g>
     </g>
     <g id="text_4">
      <!-- KS2.5 -->
      <g transform="translate(96.505858 142.373076) rotate(-30) scale(0.06 -0.06)">
       <defs>
        <path id="DejaVuSans-32" d="M 1228 531 
L 3431 531 
L 3431 0 
L 469 0 
L 469 531 
Q 828 903 1448 1529 
Q 2069 2156 2228 2338 
Q 2531 2678 2651 2914 
Q 2772 3150 2772 3378 
Q 2772 3750 2511 3984 
Q 2250 4219 1831 4219 
Q 1534 4219 1204 4116 
Q 875 4013 500 3803 
L 500 4441 
Q 881 4594 1212 4672 
Q 1544 4750 1819 4750 
Q 2544 4750 2975 4387 
Q 3406 4025 3406 3419 
Q 3406 3131 3298 2873 
Q 3191 2616 2906 2266 
Q 2828 2175 2409 1742 
Q 1991 1309 1228 531 
z
" transform="scale(0.015625)"/>
        <path id="DejaVuSans-2e" d="M 684 794 
L 1344 794 
L 1344 0 
L 684 0 
L 684 794 
z
" transform="scale(0.015625)"/>
        <path id="DejaVuSans-35" d="M 691 4666 
L 3169 4666 
L 3169 4134 
L 1269 4134 
L 1269 2991 
Q 1406 3038 1543 3061 
Q 1681 3084 1819 3084 
Q 2600 3084 3056 2656 
Q 3513 2228 3513 1497 
Q 3513 744 3044 326 
Q 2575 -91 1722 -91 
Q 1428 -91 1123 -41 
Q 819 9 494 109 
L 494 744 
Q 775 591 1075 516 
Q 1375 441 1709 441 
Q 2250 441 2565 725 
Q 2881 1009 2881 1497 
Q 2881 1984 2565 2268 
Q 2250 2553 1709 2553 
Q 1456 2553 1204 2497 
Q 953 2441 691 2322 
L 691 4666 
z
" transform="scale(0.015625)"/>
       </defs>
       <use xlink:href="#DejaVuSans-4b"/>
       <use xlink:href="#DejaVuSans-53" x="65.576172"/>
       <use xlink:href="#DejaVuSans-32" x="129.052734"/>
       <use xlink:href="#DejaVuSans-2e" x="192.675781"/>
       <use xlink:href="#DejaVuSans-35" x="224.462891"/>
      </g>
     </g>
    </g>
    <g id="xtick_5">
     <g id="line2d_5">
      <g>
       <use xlink:href="#m0aebe5d355" x="117.933529" y="124.782" style="stroke: #000000; stroke-width: 0.3"/>
      </g>
     </g>
     <g id="text_5">
      <!-- KS2 -->
      <g transform="translate(113.755174 139.510889) rotate(-30) scale(0.06 -0.06)">
       <use xlink:href="#DejaVuSans-4b"/>
       <use xlink:href="#DejaVuSans-53" x="65.576172"/>
       <use xlink:href="#DejaVuSans-32" x="129.052734"/>
      </g>
     </g>
    </g>
    <g id="xtick_6">
     <g id="line2d_6">
      <g>
       <use xlink:href="#m0aebe5d355" x="132.704118" y="124.782" style="stroke: #000000; stroke-width: 0.3"/>
      </g>
     </g>
     <g id="text_6">
      <!-- KS -->
      <g transform="translate(130.178788 137.602139) rotate(-30) scale(0.06 -0.06)">
       <use xlink:href="#DejaVuSans-4b"/>
       <use xlink:href="#DejaVuSans-53" x="65.576172"/>
      </g>
     </g>
    </g>
    <g id="xtick_7">
     <g id="line2d_7">
      <g>
       <use xlink:href="#m0aebe5d355" x="147.474706" y="124.782" style="stroke: #000000; stroke-width: 0.3"/>
      </g>
     </g>
     <g id="text_7">
      <!-- HS -->
      <g transform="translate(144.699311 137.890889) rotate(-30) scale(0.06 -0.06)">
       <defs>
        <path id="DejaVuSans-48" d="M 628 4666 
L 1259 4666 
L 1259 2753 
L 3553 2753 
L 3553 4666 
L 4184 4666 
L 4184 0 
L 3553 0 
L 3553 2222 
L 1259 2222 
L 1259 0 
L 628 0 
L 628 4666 
z
" transform="scale(0.015625)"/>
       </defs>
       <use xlink:href="#DejaVuSans-48"/>
       <use xlink:href="#DejaVuSans-53" x="75.195312"/>
      </g>
     </g>
    </g>
    <g id="text_8">
     <!-- Unit sample size -->
     <g transform="translate(79.902656 159.801487) scale(0.06 -0.06)">
      <defs>
       <path id="DejaVuSans-55" d="M 556 4666 
L 1191 4666 
L 1191 1831 
Q 1191 1081 1462 751 
Q 1734 422 2344 422 
Q 2950 422 3222 751 
Q 3494 1081 3494 1831 
L 3494 4666 
L 4128 4666 
L 4128 1753 
Q 4128 841 3676 375 
Q 3225 -91 2344 -91 
Q 1459 -91 1007 375 
Q 556 841 556 1753 
L 556 4666 
z
" transform="scale(0.015625)"/>
       <path id="DejaVuSans-69" d="M 603 3500 
L 1178 3500 
L 1178 0 
L 603 0 
L 603 3500 
z
M 603 4863 
L 1178 4863 
L 1178 4134 
L 603 4134 
L 603 4863 
z
" transform="scale(0.015625)"/>
       <path id="DejaVuSans-20" transform="scale(0.015625)"/>
       <path id="DejaVuSans-73" d="M 2834 3397 
L 2834 2853 
Q 2591 2978 2328 3040 
Q 2066 3103 1784 3103 
Q 1356 3103 1142 2972 
Q 928 2841 928 2578 
Q 928 2378 1081 2264 
Q 1234 2150 1697 2047 
L 1894 2003 
Q 2506 1872 2764 1633 
Q 3022 1394 3022 966 
Q 3022 478 2636 193 
Q 2250 -91 1575 -91 
Q 1294 -91 989 -36 
Q 684 19 347 128 
L 347 722 
Q 666 556 975 473 
Q 1284 391 1588 391 
Q 1994 391 2212 530 
Q 2431 669 2431 922 
Q 2431 1156 2273 1281 
Q 2116 1406 1581 1522 
L 1381 1569 
Q 847 1681 609 1914 
Q 372 2147 372 2553 
Q 372 3047 722 3315 
Q 1072 3584 1716 3584 
Q 2034 3584 2315 3537 
Q 2597 3491 2834 3397 
z
" transform="scale(0.015625)"/>
       <path id="DejaVuSans-61" d="M 2194 1759 
Q 1497 1759 1228 1600 
Q 959 1441 959 1056 
Q 959 750 1161 570 
Q 1363 391 1709 391 
Q 2188 391 2477 730 
Q 2766 1069 2766 1631 
L 2766 1759 
L 2194 1759 
z
M 3341 1997 
L 3341 0 
L 2766 0 
L 2766 531 
Q 2569 213 2275 61 
Q 1981 -91 1556 -91 
Q 1019 -91 701 211 
Q 384 513 384 1019 
Q 384 1609 779 1909 
Q 1175 2209 1959 2209 
L 2766 2209 
L 2766 2266 
Q 2766 2663 2505 2880 
Q 2244 3097 1772 3097 
Q 1472 3097 1187 3025 
Q 903 2953 641 2809 
L 641 3341 
Q 956 3463 1253 3523 
Q 1550 3584 1831 3584 
Q 2591 3584 2966 3190 
Q 3341 2797 3341 1997 
z
" transform="scale(0.015625)"/>
       <path id="DejaVuSans-6d" d="M 3328 2828 
Q 3544 3216 3844 3400 
Q 4144 3584 4550 3584 
Q 5097 3584 5394 3201 
Q 5691 2819 5691 2113 
L 5691 0 
L 5113 0 
L 5113 2094 
Q 5113 2597 4934 2840 
Q 4756 3084 4391 3084 
Q 3944 3084 3684 2787 
Q 3425 2491 3425 1978 
L 3425 0 
L 2847 0 
L 2847 2094 
Q 2847 2600 2669 2842 
Q 2491 3084 2119 3084 
Q 1678 3084 1418 2786 
Q 1159 2488 1159 1978 
L 1159 0 
L 581 0 
L 581 3500 
L 1159 3500 
L 1159 2956 
Q 1356 3278 1631 3431 
Q 1906 3584 2284 3584 
Q 2666 3584 2933 3390 
Q 3200 3197 3328 2828 
z
" transform="scale(0.015625)"/>
       <path id="DejaVuSans-70" d="M 1159 525 
L 1159 -1331 
L 581 -1331 
L 581 3500 
L 1159 3500 
L 1159 2969 
Q 1341 3281 1617 3432 
Q 1894 3584 2278 3584 
Q 2916 3584 3314 3078 
Q 3713 2572 3713 1747 
Q 3713 922 3314 415 
Q 2916 -91 2278 -91 
Q 1894 -91 1617 61 
Q 1341 213 1159 525 
z
M 3116 1747 
Q 3116 2381 2855 2742 
Q 2594 3103 2138 3103 
Q 1681 3103 1420 2742 
Q 1159 2381 1159 1747 
Q 1159 1113 1420 752 
Q 1681 391 2138 391 
Q 2594 391 2855 752 
Q 3116 1113 3116 1747 
z
" transform="scale(0.015625)"/>
       <path id="DejaVuSans-6c" d="M 603 4863 
L 1178 4863 
L 1178 0 
L 603 0 
L 603 4863 
z
" transform="scale(0.015625)"/>
       <path id="DejaVuSans-65" d="M 3597 1894 
L 3597 1613 
L 953 1613 
Q 991 1019 1311 708 
Q 1631 397 2203 397 
Q 2534 397 2845 478 
Q 3156 559 3463 722 
L 3463 178 
Q 3153 47 2828 -22 
Q 2503 -91 2169 -91 
Q 1331 -91 842 396 
Q 353 884 353 1716 
Q 353 2575 817 3079 
Q 1281 3584 2069 3584 
Q 2775 3584 3186 3129 
Q 3597 2675 3597 1894 
z
M 3022 2063 
Q 3016 2534 2758 2815 
Q 2500 3097 2075 3097 
Q 1594 3097 1305 2825 
Q 1016 2553 972 2059 
L 3022 2063 
z
" transform="scale(0.015625)"/>
       <path id="DejaVuSans-7a" d="M 353 3500 
L 3084 3500 
L 3084 2975 
L 922 459 
L 3084 459 
L 3084 0 
L 275 0 
L 275 525 
L 2438 3041 
L 353 3041 
L 353 3500 
z
" transform="scale(0.015625)"/>
      </defs>
      <use xlink:href="#DejaVuSans-55"/>
      <use xlink:href="#DejaVuSans-6e" x="73.193359"/>
      <use xlink:href="#DejaVuSans-69" x="136.572266"/>
      <use xlink:href="#DejaVuSans-74" x="164.355469"/>
      <use xlink:href="#DejaVuSans-20" x="203.564453"/>
      <use xlink:href="#DejaVuSans-73" x="235.351562"/>
      <use xlink:href="#DejaVuSans-61" x="287.451172"/>
      <use xlink:href="#DejaVuSans-6d" x="348.730469"/>
      <use xlink:href="#DejaVuSans-70" x="446.142578"/>
      <use xlink:href="#DejaVuSans-6c" x="509.619141"/>
      <use xlink:href="#DejaVuSans-65" x="537.402344"/>
      <use xlink:href="#DejaVuSans-20" x="598.925781"/>
      <use xlink:href="#DejaVuSans-73" x="630.712891"/>
      <use xlink:href="#DejaVuSans-69" x="682.8125"/>
      <use xlink:href="#DejaVuSans-7a" x="710.595703"/>
      <use xlink:href="#DejaVuSans-65" x="763.085938"/>
     </g>
    </g>
   </g>
   <g id="matplotlib.axis_2">
    <g id="ytick_1">
     <g id="line2d_8">
      <defs>
       <path id="mf15b1c1c38" d="M 0 0 
L -1.5 0 
" style="stroke: #000000; stroke-width: 0.3"/>
      </defs>
      <g>
       <use xlink:href="#mf15b1c1c38" x="49.398" y="119.036064" style="stroke: #000000; stroke-width: 0.3"/>
      </g>
     </g>
     <g id="text_9">
      <!-- 1.0 -->
      <g transform="translate(34.856125 121.315595) scale(0.06 -0.06)">
       <defs>
        <path id="DejaVuSans-31" d="M 794 531 
L 1825 531 
L 1825 4091 
L 703 3866 
L 703 4441 
L 1819 4666 
L 2450 4666 
L 2450 531 
L 3481 531 
L 3481 0 
L 794 0 
L 794 531 
z
" transform="scale(0.015625)"/>
        <path id="DejaVuSans-30" d="M 2034 4250 
Q 1547 4250 1301 3770 
Q 1056 3291 1056 2328 
Q 1056 1369 1301 889 
Q 1547 409 2034 409 
Q 2525 409 2770 889 
Q 3016 1369 3016 2328 
Q 3016 3291 2770 3770 
Q 2525 4250 2034 4250 
z
M 2034 4750 
Q 2819 4750 3233 4129 
Q 3647 3509 3647 2328 
Q 3647 1150 3233 529 
Q 2819 -91 2034 -91 
Q 1250 -91 836 529 
Q 422 1150 422 2328 
Q 422 3509 836 4129 
Q 1250 4750 2034 4750 
z
" transform="scale(0.015625)"/>
       </defs>
       <use xlink:href="#DejaVuSans-31"/>
       <use xlink:href="#DejaVuSans-2e" x="63.623047"/>
       <use xlink:href="#DejaVuSans-30" x="95.410156"/>
      </g>
     </g>
    </g>
    <g id="ytick_2">
     <g id="line2d_9">
      <g>
       <use xlink:href="#mf15b1c1c38" x="49.398" y="103.156701" style="stroke: #000000; stroke-width: 0.3"/>
      </g>
     </g>
     <g id="text_10">
      <!-- 1.1 -->
      <g transform="translate(34.856125 105.436232) scale(0.06 -0.06)">
       <use xlink:href="#DejaVuSans-31"/>
       <use xlink:href="#DejaVuSans-2e" x="63.623047"/>
       <use xlink:href="#DejaVuSans-31" x="95.410156"/>
      </g>
     </g>
    </g>
    <g id="ytick_3">
     <g id="line2d_10">
      <g>
       <use xlink:href="#mf15b1c1c38" x="49.398" y="87.277338" style="stroke: #000000; stroke-width: 0.3"/>
      </g>
     </g>
     <g id="text_11">
      <!-- 1.2 -->
      <g transform="translate(34.856125 89.556869) scale(0.06 -0.06)">
       <use xlink:href="#DejaVuSans-31"/>
       <use xlink:href="#DejaVuSans-2e" x="63.623047"/>
       <use xlink:href="#DejaVuSans-32" x="95.410156"/>
      </g>
     </g>
    </g>
    <g id="ytick_4">
     <g id="line2d_11">
      <g>
       <use xlink:href="#mf15b1c1c38" x="49.398" y="71.397974" style="stroke: #000000; stroke-width: 0.3"/>
      </g>
     </g>
     <g id="text_12">
      <!-- 1.3 -->
      <g transform="translate(34.856125 73.677506) scale(0.06 -0.06)">
       <use xlink:href="#DejaVuSans-31"/>
       <use xlink:href="#DejaVuSans-2e" x="63.623047"/>
       <use xlink:href="#DejaVuSans-33" x="95.410156"/>
      </g>
     </g>
    </g>
    <g id="ytick_5">
     <g id="line2d_12">
      <g>
       <use xlink:href="#mf15b1c1c38" x="49.398" y="55.518611" style="stroke: #000000; stroke-width: 0.3"/>
      </g>
     </g>
     <g id="text_13">
      <!-- 1.4 -->
      <g transform="translate(34.856125 57.798143) scale(0.06 -0.06)">
       <use xlink:href="#DejaVuSans-31"/>
       <use xlink:href="#DejaVuSans-2e" x="63.623047"/>
       <use xlink:href="#DejaVuSans-34" x="95.410156"/>
      </g>
     </g>
    </g>
    <g id="ytick_6">
     <g id="line2d_13">
      <g>
       <use xlink:href="#mf15b1c1c38" x="49.398" y="39.639248" style="stroke: #000000; stroke-width: 0.3"/>
      </g>
     </g>
     <g id="text_14">
      <!-- 1.5 -->
      <g transform="translate(34.856125 41.918779) scale(0.06 -0.06)">
       <use xlink:href="#DejaVuSans-31"/>
       <use xlink:href="#DejaVuSans-2e" x="63.623047"/>
       <use xlink:href="#DejaVuSans-35" x="95.410156"/>
      </g>
     </g>
    </g>
    <g id="text_15">
     <!-- Normalized capacity (ratio) -->
     <g transform="translate(29.608313 119.887594) rotate(-90) scale(0.06 -0.06)">
      <defs>
       <path id="DejaVuSans-4e" d="M 628 4666 
L 1478 4666 
L 3547 763 
L 3547 4666 
L 4159 4666 
L 4159 0 
L 3309 0 
L 1241 3903 
L 1241 0 
L 628 0 
L 628 4666 
z
" transform="scale(0.015625)"/>
       <path id="DejaVuSans-63" d="M 3122 3366 
L 3122 2828 
Q 2878 2963 2633 3030 
Q 2388 3097 2138 3097 
Q 1578 3097 1268 2742 
Q 959 2388 959 1747 
Q 959 1106 1268 751 
Q 1578 397 2138 397 
Q 2388 397 2633 464 
Q 2878 531 3122 666 
L 3122 134 
Q 2881 22 2623 -34 
Q 2366 -91 2075 -91 
Q 1284 -91 818 406 
Q 353 903 353 1747 
Q 353 2603 823 3093 
Q 1294 3584 2113 3584 
Q 2378 3584 2631 3529 
Q 2884 3475 3122 3366 
z
" transform="scale(0.015625)"/>
       <path id="DejaVuSans-79" d="M 2059 -325 
Q 1816 -950 1584 -1140 
Q 1353 -1331 966 -1331 
L 506 -1331 
L 506 -850 
L 844 -850 
Q 1081 -850 1212 -737 
Q 1344 -625 1503 -206 
L 1606 56 
L 191 3500 
L 800 3500 
L 1894 763 
L 2988 3500 
L 3597 3500 
L 2059 -325 
z
" transform="scale(0.015625)"/>
       <path id="DejaVuSans-28" d="M 1984 4856 
Q 1566 4138 1362 3434 
Q 1159 2731 1159 2009 
Q 1159 1288 1364 580 
Q 1569 -128 1984 -844 
L 1484 -844 
Q 1016 -109 783 600 
Q 550 1309 550 2009 
Q 550 2706 781 3412 
Q 1013 4119 1484 4856 
L 1984 4856 
z
" transform="scale(0.015625)"/>
       <path id="DejaVuSans-29" d="M 513 4856 
L 1013 4856 
Q 1481 4119 1714 3412 
Q 1947 2706 1947 2009 
Q 1947 1309 1714 600 
Q 1481 -109 1013 -844 
L 513 -844 
Q 928 -128 1133 580 
Q 1338 1288 1338 2009 
Q 1338 2731 1133 3434 
Q 928 4138 513 4856 
z
" transform="scale(0.015625)"/>
      </defs>
      <use xlink:href="#DejaVuSans-4e"/>
      <use xlink:href="#DejaVuSans-6f" x="74.804688"/>
      <use xlink:href="#DejaVuSans-72" x="135.986328"/>
      <use xlink:href="#DejaVuSans-6d" x="175.349609"/>
      <use xlink:href="#DejaVuSans-61" x="272.761719"/>
      <use xlink:href="#DejaVuSans-6c" x="334.041016"/>
      <use xlink:href="#DejaVuSans-69" x="361.824219"/>
      <use xlink:href="#DejaVuSans-7a" x="389.607422"/>
      <use xlink:href="#DejaVuSans-65" x="442.097656"/>
      <use xlink:href="#DejaVuSans-64" x="503.621094"/>
      <use xlink:href="#DejaVuSans-20" x="567.097656"/>
      <use xlink:href="#DejaVuSans-63" x="598.884766"/>
      <use xlink:href="#DejaVuSans-61" x="653.865234"/>
      <use xlink:href="#DejaVuSans-70" x="715.144531"/>
      <use xlink:href="#DejaVuSans-61" x="778.621094"/>
      <use xlink:href="#DejaVuSans-63" x="839.900391"/>
      <use xlink:href="#DejaVuSans-69" x="894.880859"/>
      <use xlink:href="#DejaVuSans-74" x="922.664062"/>
      <use xlink:href="#DejaVuSans-79" x="961.873047"/>
      <use xlink:href="#DejaVuSans-20" x="1021.052734"/>
      <use xlink:href="#DejaVuSans-28" x="1052.839844"/>
      <use xlink:href="#DejaVuSans-72" x="1091.853516"/>
      <use xlink:href="#DejaVuSans-61" x="1132.966797"/>
      <use xlink:href="#DejaVuSans-74" x="1194.246094"/>
      <use xlink:href="#DejaVuSans-69" x="1233.455078"/>
      <use xlink:href="#DejaVuSans-6f" x="1261.238281"/>
      <use xlink:href="#DejaVuSans-29" x="1322.419922"/>
     </g>
    </g>
   </g>
   <g id="LineCollection_1">
    <path d="M 51.465882 119.036064 
L 154.86 119.036064 
" clip-path="url(#p75cb1019ad)" style="fill: none; stroke-dasharray: 1.85,0.8; stroke-dashoffset: 0; stroke: #00b2ff; stroke-width: 0.5"/>
   </g>
   <g id="LineCollection_2">
    <path d="M 51.465882 79.135042 
L 154.86 79.135042 
" clip-path="url(#p75cb1019ad)" style="fill: none; stroke-dasharray: 1.85,0.8; stroke-dashoffset: 0; stroke: #ff0000; stroke-width: 0.5"/>
   </g>
   <g id="patch_5">
    <path d="M 54.456926 84.036615 
L 58.075721 84.036615 
L 58.075721 80.550557 
L 57.171022 79.541496 
L 58.075721 78.532436 
L 58.075721 74.94727 
L 54.456926 74.94727 
L 54.456926 78.532436 
L 55.361625 79.541496 
L 54.456926 80.550557 
L 54.456926 84.036615 
z
" clip-path="url(#p75cb1019ad)" style="fill: #df2020; stroke: #4c4c4c; stroke-width: 0.5; stroke-linejoin: miter"/>
   </g>
   <g id="line2d_14">
    <path d="M 56.266324 84.036615 
L 56.266324 94.579408 
" clip-path="url(#p75cb1019ad)" style="fill: none; stroke: #4c4c4c; stroke-width: 0.5"/>
   </g>
   <g id="line2d_15">
    <path d="M 56.266324 74.94727 
L 56.266324 63.235494 
" clip-path="url(#p75cb1019ad)" style="fill: none; stroke: #4c4c4c; stroke-width: 0.5"/>
   </g>
   <g id="line2d_16">
    <path d="M 55.361625 94.579408 
L 57.171022 94.579408 
" clip-path="url(#p75cb1019ad)" style="fill: none; stroke: #4c4c4c; stroke-width: 0.5; stroke-linecap: square"/>
   </g>
   <g id="line2d_17">
    <path d="M 55.361625 63.235494 
L 57.171022 63.235494 
" clip-path="url(#p75cb1019ad)" style="fill: none; stroke: #4c4c4c; stroke-width: 0.5; stroke-linecap: square"/>
   </g>
   <g id="line2d_18"/>
   <g id="patch_6">
    <path d="M 69.227515 85.989159 
L 72.846309 85.989159 
L 72.846309 80.567529 
L 71.94161 79.140553 
L 72.846309 77.713577 
L 72.846309 73.135344 
L 69.227515 73.135344 
L 69.227515 77.713577 
L 70.132213 79.140553 
L 69.227515 80.567529 
L 69.227515 85.989159 
z
" clip-path="url(#p75cb1019ad)" style="fill: #df2020; stroke: #4c4c4c; stroke-width: 0.5; stroke-linejoin: miter"/>
   </g>
   <g id="line2d_19">
    <path d="M 71.036912 85.989159 
L 71.036912 102.291206 
" clip-path="url(#p75cb1019ad)" style="fill: none; stroke: #4c4c4c; stroke-width: 0.5"/>
   </g>
   <g id="line2d_20">
    <path d="M 71.036912 73.135344 
L 71.036912 57.031324 
" clip-path="url(#p75cb1019ad)" style="fill: none; stroke: #4c4c4c; stroke-width: 0.5"/>
   </g>
   <g id="line2d_21">
    <path d="M 70.132213 102.291206 
L 71.94161 102.291206 
" clip-path="url(#p75cb1019ad)" style="fill: none; stroke: #4c4c4c; stroke-width: 0.5; stroke-linecap: square"/>
   </g>
   <g id="line2d_22">
    <path d="M 70.132213 57.031324 
L 71.94161 57.031324 
" clip-path="url(#p75cb1019ad)" style="fill: none; stroke: #4c4c4c; stroke-width: 0.5; stroke-linecap: square"/>
   </g>
   <g id="line2d_23">
    <defs>
     <path id="m6e3504a8cd" d="M 0 0.75 
C 0.198902 0.75 0.389685 0.670975 0.53033 0.53033 
C 0.670975 0.389685 0.75 0.198902 0.75 0 
C 0.75 -0.198902 0.670975 -0.389685 0.53033 -0.53033 
C 0.389685 -0.670975 0.198902 -0.75 0 -0.75 
C -0.198902 -0.75 -0.389685 -0.670975 -0.53033 -0.53033 
C -0.670975 -0.389685 -0.75 -0.198902 -0.75 0 
C -0.75 0.198902 -0.670975 0.389685 -0.53033 0.53033 
C -0.389685 0.670975 -0.198902 0.75 0 0.75 
z
" style="stroke: #4c4c4c; stroke-width: 0.5"/>
    </defs>
    <g clip-path="url(#p75cb1019ad)">
     <use xlink:href="#m6e3504a8cd" x="71.036912" y="49.050169" style="fill: #ffffff; stroke: #4c4c4c; stroke-width: 0.5"/>
    </g>
   </g>
   <g id="patch_7">
    <path d="M 83.998103 86.115133 
L 87.616897 86.115133 
L 87.616897 80.657994 
L 86.712199 79.169003 
L 87.616897 77.680013 
L 87.616897 72.702708 
L 83.998103 72.702708 
L 83.998103 77.680013 
L 84.902801 79.169003 
L 83.998103 80.657994 
L 83.998103 86.115133 
z
" clip-path="url(#p75cb1019ad)" style="fill: #df2020; stroke: #4c4c4c; stroke-width: 0.5; stroke-linejoin: miter"/>
   </g>
   <g id="line2d_24">
    <path d="M 85.8075 86.115133 
L 85.8075 105.263306 
" clip-path="url(#p75cb1019ad)" style="fill: none; stroke: #4c4c4c; stroke-width: 0.5"/>
   </g>
   <g id="line2d_25">
    <path d="M 85.8075 72.702708 
L 85.8075 53.413034 
" clip-path="url(#p75cb1019ad)" style="fill: none; stroke: #4c4c4c; stroke-width: 0.5"/>
   </g>
   <g id="line2d_26">
    <path d="M 84.902801 105.263306 
L 86.712199 105.263306 
" clip-path="url(#p75cb1019ad)" style="fill: none; stroke: #4c4c4c; stroke-width: 0.5; stroke-linecap: square"/>
   </g>
   <g id="line2d_27">
    <path d="M 84.902801 53.413034 
L 86.712199 53.413034 
" clip-path="url(#p75cb1019ad)" style="fill: none; stroke: #4c4c4c; stroke-width: 0.5; stroke-linecap: square"/>
   </g>
   <g id="line2d_28"/>
   <g id="patch_8">
    <path d="M 98.768691 88.259511 
L 102.387485 88.259511 
L 102.387485 80.780021 
L 101.482787 78.674897 
L 102.387485 76.569773 
L 102.387485 69.297123 
L 98.768691 69.297123 
L 98.768691 76.569773 
L 99.67339 78.674897 
L 98.768691 80.780021 
L 98.768691 88.259511 
z
" clip-path="url(#p75cb1019ad)" style="fill: #df2020; stroke: #4c4c4c; stroke-width: 0.5; stroke-linejoin: miter"/>
   </g>
   <g id="line2d_29">
    <path d="M 100.578088 88.259511 
L 100.578088 107.573734 
" clip-path="url(#p75cb1019ad)" style="fill: none; stroke: #4c4c4c; stroke-width: 0.5"/>
   </g>
   <g id="line2d_30">
    <path d="M 100.578088 69.297123 
L 100.578088 45.735793 
" clip-path="url(#p75cb1019ad)" style="fill: none; stroke: #4c4c4c; stroke-width: 0.5"/>
   </g>
   <g id="line2d_31">
    <path d="M 99.67339 107.573734 
L 101.482787 107.573734 
" clip-path="url(#p75cb1019ad)" style="fill: none; stroke: #4c4c4c; stroke-width: 0.5; stroke-linecap: square"/>
   </g>
   <g id="line2d_32">
    <path d="M 99.67339 45.735793 
L 101.482787 45.735793 
" clip-path="url(#p75cb1019ad)" style="fill: none; stroke: #4c4c4c; stroke-width: 0.5; stroke-linecap: square"/>
   </g>
   <g id="line2d_33"/>
   <g id="patch_9">
    <path d="M 113.539279 85.477535 
L 117.158074 85.477535 
L 117.158074 79.243834 
L 116.253375 77.810922 
L 117.158074 76.37801 
L 117.158074 72.570248 
L 113.539279 72.570248 
L 113.539279 76.37801 
L 114.443978 77.810922 
L 113.539279 79.243834 
L 113.539279 85.477535 
z
" clip-path="url(#p75cb1019ad)" style="fill: #df2020; stroke: #4c4c4c; stroke-width: 0.5; stroke-linejoin: miter"/>
   </g>
   <g id="line2d_34">
    <path d="M 115.348676 85.477535 
L 115.348676 99.535706 
" clip-path="url(#p75cb1019ad)" style="fill: none; stroke: #4c4c4c; stroke-width: 0.5"/>
   </g>
   <g id="line2d_35">
    <path d="M 115.348676 72.570248 
L 115.348676 54.47144 
" clip-path="url(#p75cb1019ad)" style="fill: none; stroke: #4c4c4c; stroke-width: 0.5"/>
   </g>
   <g id="line2d_36">
    <path d="M 114.443978 99.535706 
L 116.253375 99.535706 
" clip-path="url(#p75cb1019ad)" style="fill: none; stroke: #4c4c4c; stroke-width: 0.5; stroke-linecap: square"/>
   </g>
   <g id="line2d_37">
    <path d="M 114.443978 54.47144 
L 116.253375 54.47144 
" clip-path="url(#p75cb1019ad)" style="fill: none; stroke: #4c4c4c; stroke-width: 0.5; stroke-linecap: square"/>
   </g>
   <g id="line2d_38">
    <g clip-path="url(#p75cb1019ad)">
     <use xlink:href="#m6e3504a8cd" x="115.348676" y="51.798457" style="fill: #ffffff; stroke: #4c4c4c; stroke-width: 0.5"/>
    </g>
   </g>
   <g id="patch_10">
    <path d="M 128.309868 83.683754 
L 131.928662 83.683754 
L 131.928662 79.953362 
L 131.023963 78.918221 
L 131.928662 77.883079 
L 131.928662 74.359478 
L 128.309868 74.359478 
L 128.309868 77.883079 
L 129.214566 78.918221 
L 128.309868 79.953362 
L 128.309868 83.683754 
z
" clip-path="url(#p75cb1019ad)" style="fill: #df2020; stroke: #4c4c4c; stroke-width: 0.5; stroke-linejoin: miter"/>
   </g>
   <g id="line2d_39">
    <path d="M 130.119265 83.683754 
L 130.119265 95.903274 
" clip-path="url(#p75cb1019ad)" style="fill: none; stroke: #4c4c4c; stroke-width: 0.5"/>
   </g>
   <g id="line2d_40">
    <path d="M 130.119265 74.359478 
L 130.119265 63.19877 
" clip-path="url(#p75cb1019ad)" style="fill: none; stroke: #4c4c4c; stroke-width: 0.5"/>
   </g>
   <g id="line2d_41">
    <path d="M 129.214566 95.903274 
L 131.023963 95.903274 
" clip-path="url(#p75cb1019ad)" style="fill: none; stroke: #4c4c4c; stroke-width: 0.5; stroke-linecap: square"/>
   </g>
   <g id="line2d_42">
    <path d="M 129.214566 63.19877 
L 131.023963 63.19877 
" clip-path="url(#p75cb1019ad)" style="fill: none; stroke: #4c4c4c; stroke-width: 0.5; stroke-linecap: square"/>
   </g>
   <g id="line2d_43">
    <g clip-path="url(#p75cb1019ad)">
     <use xlink:href="#m6e3504a8cd" x="130.119265" y="58.263363" style="fill: #ffffff; stroke: #4c4c4c; stroke-width: 0.5"/>
     <use xlink:href="#m6e3504a8cd" x="130.119265" y="58.507712" style="fill: #ffffff; stroke: #4c4c4c; stroke-width: 0.5"/>
    </g>
   </g>
   <g id="patch_11">
    <path d="M 143.080456 85.451757 
L 146.69925 85.451757 
L 146.69925 80.31525 
L 145.794551 78.863417 
L 146.69925 77.411585 
L 146.69925 72.374042 
L 143.080456 72.374042 
L 143.080456 77.411585 
L 143.985154 78.863417 
L 143.080456 80.31525 
L 143.080456 85.451757 
z
" clip-path="url(#p75cb1019ad)" style="fill: #df2020; stroke: #4c4c4c; stroke-width: 0.5; stroke-linejoin: miter"/>
   </g>
   <g id="line2d_44">
    <path d="M 144.889853 85.451757 
L 144.889853 103.85753 
" clip-path="url(#p75cb1019ad)" style="fill: none; stroke: #4c4c4c; stroke-width: 0.5"/>
   </g>
   <g id="line2d_45">
    <path d="M 144.889853 72.374042 
L 144.889853 55.986124 
" clip-path="url(#p75cb1019ad)" style="fill: none; stroke: #4c4c4c; stroke-width: 0.5"/>
   </g>
   <g id="line2d_46">
    <path d="M 143.985154 103.85753 
L 145.794551 103.85753 
" clip-path="url(#p75cb1019ad)" style="fill: none; stroke: #4c4c4c; stroke-width: 0.5; stroke-linecap: square"/>
   </g>
   <g id="line2d_47">
    <path d="M 143.985154 55.986124 
L 145.794551 55.986124 
" clip-path="url(#p75cb1019ad)" style="fill: none; stroke: #4c4c4c; stroke-width: 0.5; stroke-linecap: square"/>
   </g>
   <g id="line2d_48">
    <g clip-path="url(#p75cb1019ad)">
     <use xlink:href="#m6e3504a8cd" x="144.889853" y="107.090971" style="fill: #ffffff; stroke: #4c4c4c; stroke-width: 0.5"/>
     <use xlink:href="#m6e3504a8cd" x="144.889853" y="111.754864" style="fill: #ffffff; stroke: #4c4c4c; stroke-width: 0.5"/>
     <use xlink:href="#m6e3504a8cd" x="144.889853" y="48.622733" style="fill: #ffffff; stroke: #4c4c4c; stroke-width: 0.5"/>
     <use xlink:href="#m6e3504a8cd" x="144.889853" y="52.064266" style="fill: #ffffff; stroke: #4c4c4c; stroke-width: 0.5"/>
     <use xlink:href="#m6e3504a8cd" x="144.889853" y="41.138869" style="fill: #ffffff; stroke: #4c4c4c; stroke-width: 0.5"/>
    </g>
   </g>
   <g id="patch_12">
    <path d="M 74.397221 96.844181 
L 78.016015 96.844181 
L 78.016015 92.863305 
L 77.111316 91.518598 
L 78.016015 90.173891 
L 78.016015 84.731424 
L 74.397221 84.731424 
L 74.397221 90.173891 
L 75.301919 91.518598 
L 74.397221 92.863305 
L 74.397221 96.844181 
z
" clip-path="url(#p75cb1019ad)" style="fill: #ffffff; stroke: #4c4c4c; stroke-width: 0.5; stroke-linejoin: miter"/>
   </g>
   <g id="line2d_49">
    <path d="M 76.206618 96.844181 
L 76.206618 112.887285 
" clip-path="url(#p75cb1019ad)" style="fill: none; stroke: #4c4c4c; stroke-width: 0.5"/>
   </g>
   <g id="line2d_50">
    <path d="M 76.206618 84.731424 
L 76.206618 68.336595 
" clip-path="url(#p75cb1019ad)" style="fill: none; stroke: #4c4c4c; stroke-width: 0.5"/>
   </g>
   <g id="line2d_51">
    <path d="M 75.301919 112.887285 
L 77.111316 112.887285 
" clip-path="url(#p75cb1019ad)" style="fill: none; stroke: #4c4c4c; stroke-width: 0.5; stroke-linecap: square"/>
   </g>
   <g id="line2d_52">
    <path d="M 75.301919 68.336595 
L 77.111316 68.336595 
" clip-path="url(#p75cb1019ad)" style="fill: none; stroke: #4c4c4c; stroke-width: 0.5; stroke-linecap: square"/>
   </g>
   <g id="line2d_53">
    <g clip-path="url(#p75cb1019ad)">
     <use xlink:href="#m6e3504a8cd" x="76.206618" y="64.330184" style="fill: #ffffff; stroke: #4c4c4c; stroke-width: 0.5"/>
    </g>
   </g>
   <g id="patch_13">
    <path d="M 89.167809 92.422548 
L 92.786603 92.422548 
L 92.786603 88.072305 
L 91.881904 86.839064 
L 92.786603 85.605823 
L 92.786603 81.313843 
L 89.167809 81.313843 
L 89.167809 85.605823 
L 90.072507 86.839064 
L 89.167809 88.072305 
L 89.167809 92.422548 
z
" clip-path="url(#p75cb1019ad)" style="fill: #ffffff; stroke: #4c4c4c; stroke-width: 0.5; stroke-linejoin: miter"/>
   </g>
   <g id="line2d_54">
    <path d="M 90.977206 92.422548 
L 90.977206 102.694326 
" clip-path="url(#p75cb1019ad)" style="fill: none; stroke: #4c4c4c; stroke-width: 0.5"/>
   </g>
   <g id="line2d_55">
    <path d="M 90.977206 81.313843 
L 90.977206 65.082903 
" clip-path="url(#p75cb1019ad)" style="fill: none; stroke: #4c4c4c; stroke-width: 0.5"/>
   </g>
   <g id="line2d_56">
    <path d="M 90.072507 102.694326 
L 91.881904 102.694326 
" clip-path="url(#p75cb1019ad)" style="fill: none; stroke: #4c4c4c; stroke-width: 0.5; stroke-linecap: square"/>
   </g>
   <g id="line2d_57">
    <path d="M 90.072507 65.082903 
L 91.881904 65.082903 
" clip-path="url(#p75cb1019ad)" style="fill: none; stroke: #4c4c4c; stroke-width: 0.5; stroke-linecap: square"/>
   </g>
   <g id="line2d_58">
    <g clip-path="url(#p75cb1019ad)">
     <use xlink:href="#m6e3504a8cd" x="90.977206" y="64.116053" style="fill: #ffffff; stroke: #4c4c4c; stroke-width: 0.5"/>
     <use xlink:href="#m6e3504a8cd" x="90.977206" y="62.472212" style="fill: #ffffff; stroke: #4c4c4c; stroke-width: 0.5"/>
     <use xlink:href="#m6e3504a8cd" x="90.977206" y="61.546219" style="fill: #ffffff; stroke: #4c4c4c; stroke-width: 0.5"/>
    </g>
   </g>
   <g id="patch_14">
    <path d="M 103.938397 91.231017 
L 107.557191 91.231017 
L 107.557191 87.586751 
L 106.652493 86.386639 
L 107.557191 85.186526 
L 107.557191 80.42073 
L 103.938397 80.42073 
L 103.938397 85.186526 
L 104.843096 86.386639 
L 103.938397 87.586751 
L 103.938397 91.231017 
z
" clip-path="url(#p75cb1019ad)" style="fill: #ffffff; stroke: #4c4c4c; stroke-width: 0.5; stroke-linejoin: miter"/>
   </g>
   <g id="line2d_59">
    <path d="M 105.747794 91.231017 
L 105.747794 106.322288 
" clip-path="url(#p75cb1019ad)" style="fill: none; stroke: #4c4c4c; stroke-width: 0.5"/>
   </g>
   <g id="line2d_60">
    <path d="M 105.747794 80.42073 
L 105.747794 65.281923 
" clip-path="url(#p75cb1019ad)" style="fill: none; stroke: #4c4c4c; stroke-width: 0.5"/>
   </g>
   <g id="line2d_61">
    <path d="M 104.843096 106.322288 
L 106.652493 106.322288 
" clip-path="url(#p75cb1019ad)" style="fill: none; stroke: #4c4c4c; stroke-width: 0.5; stroke-linecap: square"/>
   </g>
   <g id="line2d_62">
    <path d="M 104.843096 65.281923 
L 106.652493 65.281923 
" clip-path="url(#p75cb1019ad)" style="fill: none; stroke: #4c4c4c; stroke-width: 0.5; stroke-linecap: square"/>
   </g>
   <g id="line2d_63">
    <g clip-path="url(#p75cb1019ad)">
     <use xlink:href="#m6e3504a8cd" x="105.747794" y="112.50174" style="fill: #ffffff; stroke: #4c4c4c; stroke-width: 0.5"/>
     <use xlink:href="#m6e3504a8cd" x="105.747794" y="108.426344" style="fill: #ffffff; stroke: #4c4c4c; stroke-width: 0.5"/>
     <use xlink:href="#m6e3504a8cd" x="105.747794" y="62.872333" style="fill: #ffffff; stroke: #4c4c4c; stroke-width: 0.5"/>
    </g>
   </g>
   <g id="patch_15">
    <path d="M 118.708985 96.27519 
L 122.327779 96.27519 
L 122.327779 92.691761 
L 121.423081 91.624694 
L 122.327779 90.557626 
L 122.327779 86.663332 
L 118.708985 86.663332 
L 118.708985 90.557626 
L 119.613684 91.624694 
L 118.708985 92.691761 
L 118.708985 96.27519 
z
" clip-path="url(#p75cb1019ad)" style="fill: #ffffff; stroke: #4c4c4c; stroke-width: 0.5; stroke-linejoin: miter"/>
   </g>
   <g id="line2d_64">
    <path d="M 120.518382 96.27519 
L 120.518382 110.491467 
" clip-path="url(#p75cb1019ad)" style="fill: none; stroke: #4c4c4c; stroke-width: 0.5"/>
   </g>
   <g id="line2d_65">
    <path d="M 120.518382 86.663332 
L 120.518382 75.283216 
" clip-path="url(#p75cb1019ad)" style="fill: none; stroke: #4c4c4c; stroke-width: 0.5"/>
   </g>
   <g id="line2d_66">
    <path d="M 119.613684 110.491467 
L 121.423081 110.491467 
" clip-path="url(#p75cb1019ad)" style="fill: none; stroke: #4c4c4c; stroke-width: 0.5; stroke-linecap: square"/>
   </g>
   <g id="line2d_67">
    <path d="M 119.613684 75.283216 
L 121.423081 75.283216 
" clip-path="url(#p75cb1019ad)" style="fill: none; stroke: #4c4c4c; stroke-width: 0.5; stroke-linecap: square"/>
   </g>
   <g id="line2d_68">
    <g clip-path="url(#p75cb1019ad)">
     <use xlink:href="#m6e3504a8cd" x="120.518382" y="114.636241" style="fill: #ffffff; stroke: #4c4c4c; stroke-width: 0.5"/>
     <use xlink:href="#m6e3504a8cd" x="120.518382" y="68.827894" style="fill: #ffffff; stroke: #4c4c4c; stroke-width: 0.5"/>
     <use xlink:href="#m6e3504a8cd" x="120.518382" y="69.879995" style="fill: #ffffff; stroke: #4c4c4c; stroke-width: 0.5"/>
     <use xlink:href="#m6e3504a8cd" x="120.518382" y="66.808724" style="fill: #ffffff; stroke: #4c4c4c; stroke-width: 0.5"/>
    </g>
   </g>
   <g id="patch_16">
    <path d="M 133.479574 89.355614 
L 137.098368 89.355614 
L 137.098368 85.604071 
L 136.193669 84.652402 
L 137.098368 83.700734 
L 137.098368 80.783238 
L 133.479574 80.783238 
L 133.479574 83.700734 
L 134.384272 84.652402 
L 133.479574 85.604071 
L 133.479574 89.355614 
z
" clip-path="url(#p75cb1019ad)" style="fill: #ffffff; stroke: #4c4c4c; stroke-width: 0.5; stroke-linejoin: miter"/>
   </g>
   <g id="line2d_69">
    <path d="M 135.288971 89.355614 
L 135.288971 101.648405 
" clip-path="url(#p75cb1019ad)" style="fill: none; stroke: #4c4c4c; stroke-width: 0.5"/>
   </g>
   <g id="line2d_70">
    <path d="M 135.288971 80.783238 
L 135.288971 69.454143 
" clip-path="url(#p75cb1019ad)" style="fill: none; stroke: #4c4c4c; stroke-width: 0.5"/>
   </g>
   <g id="line2d_71">
    <path d="M 134.384272 101.648405 
L 136.193669 101.648405 
" clip-path="url(#p75cb1019ad)" style="fill: none; stroke: #4c4c4c; stroke-width: 0.5; stroke-linecap: square"/>
   </g>
   <g id="line2d_72">
    <path d="M 134.384272 69.454143 
L 136.193669 69.454143 
" clip-path="url(#p75cb1019ad)" style="fill: none; stroke: #4c4c4c; stroke-width: 0.5; stroke-linecap: square"/>
   </g>
   <g id="line2d_73">
    <g clip-path="url(#p75cb1019ad)">
     <use xlink:href="#m6e3504a8cd" x="135.288971" y="67.229424" style="fill: #ffffff; stroke: #4c4c4c; stroke-width: 0.5"/>
    </g>
   </g>
   <g id="patch_17">
    <path d="M 148.250162 90.327474 
L 151.868956 90.327474 
L 151.868956 87.03263 
L 150.964257 85.773823 
L 151.868956 84.515016 
L 151.868956 78.988481 
L 148.250162 78.988481 
L 148.250162 84.515016 
L 149.15486 85.773823 
L 148.250162 87.03263 
L 148.250162 90.327474 
z
" clip-path="url(#p75cb1019ad)" style="fill: #ffffff; stroke: #4c4c4c; stroke-width: 0.5; stroke-linejoin: miter"/>
   </g>
   <g id="line2d_74">
    <path d="M 150.059559 90.327474 
L 150.059559 106.630525 
" clip-path="url(#p75cb1019ad)" style="fill: none; stroke: #4c4c4c; stroke-width: 0.5"/>
   </g>
   <g id="line2d_75">
    <path d="M 150.059559 78.988481 
L 150.059559 62.171759 
" clip-path="url(#p75cb1019ad)" style="fill: none; stroke: #4c4c4c; stroke-width: 0.5"/>
   </g>
   <g id="line2d_76">
    <path d="M 149.15486 106.630525 
L 150.964257 106.630525 
" clip-path="url(#p75cb1019ad)" style="fill: none; stroke: #4c4c4c; stroke-width: 0.5; stroke-linecap: square"/>
   </g>
   <g id="line2d_77">
    <path d="M 149.15486 62.171759 
L 150.964257 62.171759 
" clip-path="url(#p75cb1019ad)" style="fill: none; stroke: #4c4c4c; stroke-width: 0.5; stroke-linecap: square"/>
   </g>
   <g id="line2d_78">
    <g clip-path="url(#p75cb1019ad)">
     <use xlink:href="#m6e3504a8cd" x="150.059559" y="108.242264" style="fill: #ffffff; stroke: #4c4c4c; stroke-width: 0.5"/>
     <use xlink:href="#m6e3504a8cd" x="150.059559" y="52.576067" style="fill: #ffffff; stroke: #4c4c4c; stroke-width: 0.5"/>
     <use xlink:href="#m6e3504a8cd" x="150.059559" y="61.835344" style="fill: #ffffff; stroke: #4c4c4c; stroke-width: 0.5"/>
    </g>
   </g>
   <g id="line2d_79">
    <path d="M 55.361625 79.541496 
L 57.171022 79.541496 
" clip-path="url(#p75cb1019ad)" style="fill: none; stroke: #4c4c4c; stroke-width: 0.5"/>
   </g>
   <g id="line2d_80">
    <path d="M 70.132213 79.140553 
L 71.94161 79.140553 
" clip-path="url(#p75cb1019ad)" style="fill: none; stroke: #4c4c4c; stroke-width: 0.5"/>
   </g>
   <g id="line2d_81">
    <path d="M 84.902801 79.169003 
L 86.712199 79.169003 
" clip-path="url(#p75cb1019ad)" style="fill: none; stroke: #4c4c4c; stroke-width: 0.5"/>
   </g>
   <g id="line2d_82">
    <path d="M 99.67339 78.674897 
L 101.482787 78.674897 
" clip-path="url(#p75cb1019ad)" style="fill: none; stroke: #4c4c4c; stroke-width: 0.5"/>
   </g>
   <g id="line2d_83">
    <path d="M 114.443978 77.810922 
L 116.253375 77.810922 
" clip-path="url(#p75cb1019ad)" style="fill: none; stroke: #4c4c4c; stroke-width: 0.5"/>
   </g>
   <g id="line2d_84">
    <path d="M 129.214566 78.918221 
L 131.023963 78.918221 
" clip-path="url(#p75cb1019ad)" style="fill: none; stroke: #4c4c4c; stroke-width: 0.5"/>
   </g>
   <g id="line2d_85">
    <path d="M 143.985154 78.863417 
L 145.794551 78.863417 
" clip-path="url(#p75cb1019ad)" style="fill: none; stroke: #4c4c4c; stroke-width: 0.5"/>
   </g>
   <g id="line2d_86">
    <path d="M 75.301919 91.518598 
L 77.111316 91.518598 
" clip-path="url(#p75cb1019ad)" style="fill: none; stroke: #4c4c4c; stroke-width: 0.5"/>
   </g>
   <g id="line2d_87">
    <path d="M 90.072507 86.839064 
L 91.881904 86.839064 
" clip-path="url(#p75cb1019ad)" style="fill: none; stroke: #4c4c4c; stroke-width: 0.5"/>
   </g>
   <g id="line2d_88">
    <path d="M 104.843096 86.386639 
L 106.652493 86.386639 
" clip-path="url(#p75cb1019ad)" style="fill: none; stroke: #4c4c4c; stroke-width: 0.5"/>
   </g>
   <g id="line2d_89">
    <path d="M 119.613684 91.624694 
L 121.423081 91.624694 
" clip-path="url(#p75cb1019ad)" style="fill: none; stroke: #4c4c4c; stroke-width: 0.5"/>
   </g>
   <g id="line2d_90">
    <path d="M 134.384272 84.652402 
L 136.193669 84.652402 
" clip-path="url(#p75cb1019ad)" style="fill: none; stroke: #4c4c4c; stroke-width: 0.5"/>
   </g>
   <g id="line2d_91">
    <path d="M 149.15486 85.773823 
L 150.964257 85.773823 
" clip-path="url(#p75cb1019ad)" style="fill: none; stroke: #4c4c4c; stroke-width: 0.5"/>
   </g>
   <g id="patch_18">
    <path d="M 49.398 120.624 
L 49.398 37.464 
" style="fill: none; stroke: #000000; stroke-width: 0.5; stroke-linejoin: miter; stroke-linecap: square"/>
   </g>
   <g id="patch_19">
    <path d="M 54.42 124.782 
L 154.86 124.782 
" style="fill: none; stroke: #000000; stroke-width: 0.5; stroke-linejoin: miter; stroke-linecap: square"/>
   </g>
   <g id="legend_1">
    <g id="text_16">
     <!-- Sampling bias -->
     <g transform="translate(66.325312 14.159062) scale(0.06 -0.06)">
      <defs>
       <path id="DejaVuSans-62" d="M 3116 1747 
Q 3116 2381 2855 2742 
Q 2594 3103 2138 3103 
Q 1681 3103 1420 2742 
Q 1159 2381 1159 1747 
Q 1159 1113 1420 752 
Q 1681 391 2138 391 
Q 2594 391 2855 752 
Q 3116 1113 3116 1747 
z
M 1159 2969 
Q 1341 3281 1617 3432 
Q 1894 3584 2278 3584 
Q 2916 3584 3314 3078 
Q 3713 2572 3713 1747 
Q 3713 922 3314 415 
Q 2916 -91 2278 -91 
Q 1894 -91 1617 61 
Q 1341 213 1159 525 
L 1159 0 
L 581 0 
L 581 4863 
L 1159 4863 
L 1159 2969 
z
" transform="scale(0.015625)"/>
      </defs>
      <use xlink:href="#DejaVuSans-53"/>
      <use xlink:href="#DejaVuSans-61" x="63.476562"/>
      <use xlink:href="#DejaVuSans-6d" x="124.755859"/>
      <use xlink:href="#DejaVuSans-70" x="222.167969"/>
      <use xlink:href="#DejaVuSans-6c" x="285.644531"/>
      <use xlink:href="#DejaVuSans-69" x="313.427734"/>
      <use xlink:href="#DejaVuSans-6e" x="341.210938"/>
      <use xlink:href="#DejaVuSans-67" x="404.589844"/>
      <use xlink:href="#DejaVuSans-20" x="468.066406"/>
      <use xlink:href="#DejaVuSans-62" x="499.853516"/>
      <use xlink:href="#DejaVuSans-69" x="563.330078"/>
      <use xlink:href="#DejaVuSans-61" x="591.113281"/>
      <use xlink:href="#DejaVuSans-73" x="652.392578"/>
     </g>
    </g>
    <g id="line2d_92">
     <path d="M 9.6 20.865937 
L 21.6 20.865937 
" style="fill: none; stroke-dasharray: 1.85,0.8; stroke-dashoffset: 0; stroke: #00b2ff; stroke-width: 0.5"/>
    </g>
    <g id="text_17">
     <!-- lower bound -->
     <g transform="translate(26.4 22.965937) scale(0.06 -0.06)">
      <defs>
       <path id="DejaVuSans-77" d="M 269 3500 
L 844 3500 
L 1563 769 
L 2278 3500 
L 2956 3500 
L 3675 769 
L 4391 3500 
L 4966 3500 
L 4050 0 
L 3372 0 
L 2619 2869 
L 1863 0 
L 1184 0 
L 269 3500 
z
" transform="scale(0.015625)"/>
      </defs>
      <use xlink:href="#DejaVuSans-6c"/>
      <use xlink:href="#DejaVuSans-6f" x="27.783203"/>
      <use xlink:href="#DejaVuSans-77" x="88.964844"/>
      <use xlink:href="#DejaVuSans-65" x="170.751953"/>
      <use xlink:href="#DejaVuSans-72" x="232.275391"/>
      <use xlink:href="#DejaVuSans-20" x="273.388672"/>
      <use xlink:href="#DejaVuSans-62" x="305.175781"/>
      <use xlink:href="#DejaVuSans-6f" x="368.652344"/>
      <use xlink:href="#DejaVuSans-75" x="429.833984"/>
      <use xlink:href="#DejaVuSans-6e" x="493.212891"/>
      <use xlink:href="#DejaVuSans-64" x="556.591797"/>
     </g>
    </g>
    <g id="line2d_93">
     <path d="M 9.6 29.672812 
L 21.6 29.672812 
" style="fill: none; stroke-dasharray: 1.85,0.8; stroke-dashoffset: 0; stroke: #ff0000; stroke-width: 0.5"/>
    </g>
    <g id="text_18">
     <!-- ground truth capacity -->
     <g transform="translate(26.4 31.772812) scale(0.06 -0.06)">
      <use xlink:href="#DejaVuSans-67"/>
      <use xlink:href="#DejaVuSans-72" x="63.476562"/>
      <use xlink:href="#DejaVuSans-6f" x="102.339844"/>
      <use xlink:href="#DejaVuSans-75" x="163.521484"/>
      <use xlink:href="#DejaVuSans-6e" x="226.900391"/>
      <use xlink:href="#DejaVuSans-64" x="290.279297"/>
      <use xlink:href="#DejaVuSans-20" x="353.755859"/>
      <use xlink:href="#DejaVuSans-74" x="385.542969"/>
      <use xlink:href="#DejaVuSans-72" x="424.751953"/>
      <use xlink:href="#DejaVuSans-75" x="465.865234"/>
      <use xlink:href="#DejaVuSans-74" x="529.244141"/>
      <use xlink:href="#DejaVuSans-68" x="568.453125"/>
      <use xlink:href="#DejaVuSans-20" x="631.832031"/>
      <use xlink:href="#DejaVuSans-63" x="663.619141"/>
      <use xlink:href="#DejaVuSans-61" x="718.599609"/>
      <use xlink:href="#DejaVuSans-70" x="779.878906"/>
      <use xlink:href="#DejaVuSans-61" x="843.355469"/>
      <use xlink:href="#DejaVuSans-63" x="904.634766"/>
      <use xlink:href="#DejaVuSans-69" x="959.615234"/>
      <use xlink:href="#DejaVuSans-74" x="987.398438"/>
      <use xlink:href="#DejaVuSans-79" x="1026.607422"/>
     </g>
    </g>
    <g id="patch_20">
     <path d="M 103.546875 22.965937 
L 115.546875 22.965937 
L 115.546875 18.765937 
L 103.546875 18.765937 
z
" style="fill: #df2020; stroke: #4c4c4c; stroke-width: 0.5; stroke-linejoin: miter"/>
    </g>
    <g id="text_19">
     <!-- undersampling -->
     <g transform="translate(120.346875 22.965937) scale(0.06 -0.06)">
      <use xlink:href="#DejaVuSans-75"/>
      <use xlink:href="#DejaVuSans-6e" x="63.378906"/>
      <use xlink:href="#DejaVuSans-64" x="126.757812"/>
      <use xlink:href="#DejaVuSans-65" x="190.234375"/>
      <use xlink:href="#DejaVuSans-72" x="251.757812"/>
      <use xlink:href="#DejaVuSans-73" x="292.871094"/>
      <use xlink:href="#DejaVuSans-61" x="344.970703"/>
      <use xlink:href="#DejaVuSans-6d" x="406.25"/>
      <use xlink:href="#DejaVuSans-70" x="503.662109"/>
      <use xlink:href="#DejaVuSans-6c" x="567.138672"/>
      <use xlink:href="#DejaVuSans-69" x="594.921875"/>
      <use xlink:href="#DejaVuSans-6e" x="622.705078"/>
      <use xlink:href="#DejaVuSans-67" x="686.083984"/>
     </g>
    </g>
    <g id="line2d_94">
     <path d="M 103.546875 29.672812 
L 109.546875 29.672812 
L 115.546875 29.672812 
" style="fill: none; stroke: #4c4c4c; stroke-width: 0.5"/>
    </g>
    <g id="text_20">
     <!-- unit type bias -->
     <g transform="translate(120.346875 31.772812) scale(0.06 -0.06)">
      <use xlink:href="#DejaVuSans-75"/>
      <use xlink:href="#DejaVuSans-6e" x="63.378906"/>
      <use xlink:href="#DejaVuSans-69" x="126.757812"/>
      <use xlink:href="#DejaVuSans-74" x="154.541016"/>
      <use xlink:href="#DejaVuSans-20" x="193.75"/>
      <use xlink:href="#DejaVuSans-74" x="225.537109"/>
      <use xlink:href="#DejaVuSans-79" x="264.746094"/>
      <use xlink:href="#DejaVuSans-70" x="323.925781"/>
      <use xlink:href="#DejaVuSans-65" x="387.402344"/>
      <use xlink:href="#DejaVuSans-20" x="448.925781"/>
      <use xlink:href="#DejaVuSans-62" x="480.712891"/>
      <use xlink:href="#DejaVuSans-69" x="544.189453"/>
      <use xlink:href="#DejaVuSans-61" x="571.972656"/>
      <use xlink:href="#DejaVuSans-73" x="633.251953"/>
     </g>
    </g>
   </g>
  </g>
 </g>
 <defs>
  <clipPath id="p75cb1019ad">
   <rect x="54.42" y="37.464" width="100.44" height="83.16"/>
  </clipPath>
 </defs>
</svg>
