<?xml version="1.0" encoding="utf-8" standalone="no"?>
<!DOCTYPE svg PUBLIC "-//W3C//DTD SVG 1.1//EN"
  "http://www.w3.org/Graphics/SVG/1.1/DTD/svg11.dtd">
<svg xmlns:xlink="http://www.w3.org/1999/xlink" width="190.432312pt" height="168.249299pt" viewBox="0 0 190.432312 168.249299" xmlns="http://www.w3.org/2000/svg" version="1.1">
 <metadata>
  <rdf:RDF xmlns:dc="http://purl.org/dc/elements/1.1/" xmlns:cc="http://creativecommons.org/ns#" xmlns:rdf="http://www.w3.org/1999/02/22-rdf-syntax-ns#">
   <cc:Work>
    <dc:type rdf:resource="http://purl.org/dc/dcmitype/StillImage"/>
    <dc:date>2024-10-22T11:23:11.818091</dc:date>
    <dc:format>image/svg+xml</dc:format>
    <dc:creator>
     <cc:Agent>
      <dc:title>Matplotlib v3.8.0, https://matplotlib.org/</dc:title>
     </cc:Agent>
    </dc:creator>
   </cc:Work>
  </rdf:RDF>
 </metadata>
 <defs>
  <style type="text/css">*{stroke-linejoin: round; stroke-linecap: butt}</style>
 </defs>
 <g id="figure_1">
  <g id="patch_1">
   <path d="M 0 168.249299 
L 190.432312 168.249299 
L 190.432312 0 
L 0 0 
L 0 168.249299 
z
" style="fill: none"/>
  </g>
  <g id="axes_1">
   <g id="patch_2">
    <path d="M 43.289437 120.624 
L 143.729437 120.624 
L 143.729437 37.464 
L 43.289437 37.464 
L 43.289437 120.624 
z
" style="fill: none"/>
   </g>
   <g id="patch_3">
    <path d="M 50.463723 158.703002 
L 50.463723 158.703002 
L 50.463723 158.703002 
L 50.463723 158.703002 
z
" clip-path="url(#pd51eb8e9a3)" style="fill: #808080; stroke: #4c4c4c; stroke-width: 0.5; stroke-linejoin: miter"/>
   </g>
   <g id="patch_4">
    <path d="M 50.463723 158.703002 
L 50.463723 158.703002 
L 50.463723 158.703002 
L 50.463723 158.703002 
z
" clip-path="url(#pd51eb8e9a3)" style="fill: #df2020; stroke: #4c4c4c; stroke-width: 0.5; stroke-linejoin: miter"/>
   </g>
   <g id="patch_5">
    <path d="M 50.463723 158.703002 
L 50.463723 158.703002 
L 50.463723 158.703002 
L 50.463723 158.703002 
z
" clip-path="url(#pd51eb8e9a3)" style="fill: #ffffff; stroke: #4c4c4c; stroke-width: 0.5; stroke-linejoin: miter"/>
   </g>
   <g id="matplotlib.axis_1">
    <g id="xtick_1">
     <g id="line2d_1">
      <defs>
       <path id="mcc9e35f3a5" d="M 0 0 
L 0 1.5 
" style="stroke: #000000; stroke-width: 0.3"/>
      </defs>
      <g>
       <use xlink:href="#mcc9e35f3a5" x="50.463723" y="124.782" style="stroke: #000000; stroke-width: 0.3"/>
      </g>
     </g>
     <g id="text_1">
      <!-- ground -->
      <g transform="translate(40.420763 144.343233) rotate(-30) scale(0.06 -0.06)">
       <defs>
        <path id="DejaVuSans-67" d="M 2906 1791 
Q 2906 2416 2648 2759 
Q 2391 3103 1925 3103 
Q 1463 3103 1205 2759 
Q 947 2416 947 1791 
Q 947 1169 1205 825 
Q 1463 481 1925 481 
Q 2391 481 2648 825 
Q 2906 1169 2906 1791 
z
M 3481 434 
Q 3481 -459 3084 -895 
Q 2688 -1331 1869 -1331 
Q 1566 -1331 1297 -1286 
Q 1028 -1241 775 -1147 
L 775 -588 
Q 1028 -725 1275 -790 
Q 1522 -856 1778 -856 
Q 2344 -856 2625 -561 
Q 2906 -266 2906 331 
L 2906 616 
Q 2728 306 2450 153 
Q 2172 0 1784 0 
Q 1141 0 747 490 
Q 353 981 353 1791 
Q 353 2603 747 3093 
Q 1141 3584 1784 3584 
Q 2172 3584 2450 3431 
Q 2728 3278 2906 2969 
L 2906 3500 
L 3481 3500 
L 3481 434 
z
" transform="scale(0.015625)"/>
        <path id="DejaVuSans-72" d="M 2631 2963 
Q 2534 3019 2420 3045 
Q 2306 3072 2169 3072 
Q 1681 3072 1420 2755 
Q 1159 2438 1159 1844 
L 1159 0 
L 581 0 
L 581 3500 
L 1159 3500 
L 1159 2956 
Q 1341 3275 1631 3429 
Q 1922 3584 2338 3584 
Q 2397 3584 2469 3576 
Q 2541 3569 2628 3553 
L 2631 2963 
z
" transform="scale(0.015625)"/>
        <path id="DejaVuSans-6f" d="M 1959 3097 
Q 1497 3097 1228 2736 
Q 959 2375 959 1747 
Q 959 1119 1226 758 
Q 1494 397 1959 397 
Q 2419 397 2687 759 
Q 2956 1122 2956 1747 
Q 2956 2369 2687 2733 
Q 2419 3097 1959 3097 
z
M 1959 3584 
Q 2709 3584 3137 3096 
Q 3566 2609 3566 1747 
Q 3566 888 3137 398 
Q 2709 -91 1959 -91 
Q 1206 -91 779 398 
Q 353 888 353 1747 
Q 353 2609 779 3096 
Q 1206 3584 1959 3584 
z
" transform="scale(0.015625)"/>
        <path id="DejaVuSans-75" d="M 544 1381 
L 544 3500 
L 1119 3500 
L 1119 1403 
Q 1119 906 1312 657 
Q 1506 409 1894 409 
Q 2359 409 2629 706 
Q 2900 1003 2900 1516 
L 2900 3500 
L 3475 3500 
L 3475 0 
L 2900 0 
L 2900 538 
Q 2691 219 2414 64 
Q 2138 -91 1772 -91 
Q 1169 -91 856 284 
Q 544 659 544 1381 
z
M 1991 3584 
L 1991 3584 
z
" transform="scale(0.015625)"/>
        <path id="DejaVuSans-6e" d="M 3513 2113 
L 3513 0 
L 2938 0 
L 2938 2094 
Q 2938 2591 2744 2837 
Q 2550 3084 2163 3084 
Q 1697 3084 1428 2787 
Q 1159 2491 1159 1978 
L 1159 0 
L 581 0 
L 581 3500 
L 1159 3500 
L 1159 2956 
Q 1366 3272 1645 3428 
Q 1925 3584 2291 3584 
Q 2894 3584 3203 3211 
Q 3513 2838 3513 2113 
z
" transform="scale(0.015625)"/>
        <path id="DejaVuSans-64" d="M 2906 2969 
L 2906 4863 
L 3481 4863 
L 3481 0 
L 2906 0 
L 2906 525 
Q 2725 213 2448 61 
Q 2172 -91 1784 -91 
Q 1150 -91 751 415 
Q 353 922 353 1747 
Q 353 2572 751 3078 
Q 1150 3584 1784 3584 
Q 2172 3584 2448 3432 
Q 2725 3281 2906 2969 
z
M 947 1747 
Q 947 1113 1208 752 
Q 1469 391 1925 391 
Q 2381 391 2643 752 
Q 2906 1113 2906 1747 
Q 2906 2381 2643 2742 
Q 2381 3103 1925 3103 
Q 1469 3103 1208 2742 
Q 947 2381 947 1747 
z
" transform="scale(0.015625)"/>
       </defs>
       <use xlink:href="#DejaVuSans-67"/>
       <use xlink:href="#DejaVuSans-72" x="63.476562"/>
       <use xlink:href="#DejaVuSans-6f" x="102.339844"/>
       <use xlink:href="#DejaVuSans-75" x="163.521484"/>
       <use xlink:href="#DejaVuSans-6e" x="226.900391"/>
       <use xlink:href="#DejaVuSans-64" x="290.279297"/>
      </g>
      <!-- truth -->
      <g transform="translate(46.573039 148.549287) rotate(-30) scale(0.06 -0.06)">
       <defs>
        <path id="DejaVuSans-74" d="M 1172 4494 
L 1172 3500 
L 2356 3500 
L 2356 3053 
L 1172 3053 
L 1172 1153 
Q 1172 725 1289 603 
Q 1406 481 1766 481 
L 2356 481 
L 2356 0 
L 1766 0 
Q 1100 0 847 248 
Q 594 497 594 1153 
L 594 3053 
L 172 3053 
L 172 3500 
L 594 3500 
L 594 4494 
L 1172 4494 
z
" transform="scale(0.015625)"/>
        <path id="DejaVuSans-68" d="M 3513 2113 
L 3513 0 
L 2938 0 
L 2938 2094 
Q 2938 2591 2744 2837 
Q 2550 3084 2163 3084 
Q 1697 3084 1428 2787 
Q 1159 2491 1159 1978 
L 1159 0 
L 581 0 
L 581 4863 
L 1159 4863 
L 1159 2956 
Q 1366 3272 1645 3428 
Q 1925 3584 2291 3584 
Q 2894 3584 3203 3211 
Q 3513 2838 3513 2113 
z
" transform="scale(0.015625)"/>
       </defs>
       <use xlink:href="#DejaVuSans-74"/>
       <use xlink:href="#DejaVuSans-72" x="39.208984"/>
       <use xlink:href="#DejaVuSans-75" x="80.322266"/>
       <use xlink:href="#DejaVuSans-74" x="143.701172"/>
       <use xlink:href="#DejaVuSans-68" x="182.910156"/>
      </g>
     </g>
    </g>
    <g id="xtick_2">
     <g id="line2d_2">
      <g>
       <use xlink:href="#mcc9e35f3a5" x="64.812295" y="124.782" style="stroke: #000000; stroke-width: 0.3"/>
      </g>
     </g>
     <g id="text_2">
      <!-- KS4 -->
      <g transform="translate(60.633939 139.510889) rotate(-30) scale(0.06 -0.06)">
       <defs>
        <path id="DejaVuSans-4b" d="M 628 4666 
L 1259 4666 
L 1259 2694 
L 3353 4666 
L 4166 4666 
L 1850 2491 
L 4331 0 
L 3500 0 
L 1259 2247 
L 1259 0 
L 628 0 
L 628 4666 
z
" transform="scale(0.015625)"/>
        <path id="DejaVuSans-53" d="M 3425 4513 
L 3425 3897 
Q 3066 4069 2747 4153 
Q 2428 4238 2131 4238 
Q 1616 4238 1336 4038 
Q 1056 3838 1056 3469 
Q 1056 3159 1242 3001 
Q 1428 2844 1947 2747 
L 2328 2669 
Q 3034 2534 3370 2195 
Q 3706 1856 3706 1288 
Q 3706 609 3251 259 
Q 2797 -91 1919 -91 
Q 1588 -91 1214 -16 
Q 841 59 441 206 
L 441 856 
Q 825 641 1194 531 
Q 1563 422 1919 422 
Q 2459 422 2753 634 
Q 3047 847 3047 1241 
Q 3047 1584 2836 1778 
Q 2625 1972 2144 2069 
L 1759 2144 
Q 1053 2284 737 2584 
Q 422 2884 422 3419 
Q 422 4038 858 4394 
Q 1294 4750 2059 4750 
Q 2388 4750 2728 4690 
Q 3069 4631 3425 4513 
z
" transform="scale(0.015625)"/>
        <path id="DejaVuSans-34" d="M 2419 4116 
L 825 1625 
L 2419 1625 
L 2419 4116 
z
M 2253 4666 
L 3047 4666 
L 3047 1625 
L 3713 1625 
L 3713 1100 
L 3047 1100 
L 3047 0 
L 2419 0 
L 2419 1100 
L 313 1100 
L 313 1709 
L 2253 4666 
z
" transform="scale(0.015625)"/>
       </defs>
       <use xlink:href="#DejaVuSans-4b"/>
       <use xlink:href="#DejaVuSans-53" x="65.576172"/>
       <use xlink:href="#DejaVuSans-34" x="129.052734"/>
      </g>
     </g>
    </g>
    <g id="xtick_3">
     <g id="line2d_3">
      <g>
       <use xlink:href="#mcc9e35f3a5" x="79.160866" y="124.782" style="stroke: #000000; stroke-width: 0.3"/>
      </g>
     </g>
     <g id="text_3">
      <!-- KS3 -->
      <g transform="translate(74.98251 139.510889) rotate(-30) scale(0.06 -0.06)">
       <defs>
        <path id="DejaVuSans-33" d="M 2597 2516 
Q 3050 2419 3304 2112 
Q 3559 1806 3559 1356 
Q 3559 666 3084 287 
Q 2609 -91 1734 -91 
Q 1441 -91 1130 -33 
Q 819 25 488 141 
L 488 750 
Q 750 597 1062 519 
Q 1375 441 1716 441 
Q 2309 441 2620 675 
Q 2931 909 2931 1356 
Q 2931 1769 2642 2001 
Q 2353 2234 1838 2234 
L 1294 2234 
L 1294 2753 
L 1863 2753 
Q 2328 2753 2575 2939 
Q 2822 3125 2822 3475 
Q 2822 3834 2567 4026 
Q 2313 4219 1838 4219 
Q 1578 4219 1281 4162 
Q 984 4106 628 3988 
L 628 4550 
Q 988 4650 1302 4700 
Q 1616 4750 1894 4750 
Q 2613 4750 3031 4423 
Q 3450 4097 3450 3541 
Q 3450 3153 3228 2886 
Q 3006 2619 2597 2516 
z
" transform="scale(0.015625)"/>
       </defs>
       <use xlink:href="#DejaVuSans-4b"/>
       <use xlink:href="#DejaVuSans-53" x="65.576172"/>
       <use xlink:href="#DejaVuSans-33" x="129.052734"/>
      </g>
     </g>
    </g>
    <g id="xtick_4">
     <g id="line2d_4">
      <g>
       <use xlink:href="#mcc9e35f3a5" x="93.509437" y="124.782" style="stroke: #000000; stroke-width: 0.3"/>
      </g>
     </g>
     <g id="text_4">
      <!-- KS2.5 -->
      <g transform="translate(86.852355 142.373076) rotate(-30) scale(0.06 -0.06)">
       <defs>
        <path id="DejaVuSans-32" d="M 1228 531 
L 3431 531 
L 3431 0 
L 469 0 
L 469 531 
Q 828 903 1448 1529 
Q 2069 2156 2228 2338 
Q 2531 2678 2651 2914 
Q 2772 3150 2772 3378 
Q 2772 3750 2511 3984 
Q 2250 4219 1831 4219 
Q 1534 4219 1204 4116 
Q 875 4013 500 3803 
L 500 4441 
Q 881 4594 1212 4672 
Q 1544 4750 1819 4750 
Q 2544 4750 2975 4387 
Q 3406 4025 3406 3419 
Q 3406 3131 3298 2873 
Q 3191 2616 2906 2266 
Q 2828 2175 2409 1742 
Q 1991 1309 1228 531 
z
" transform="scale(0.015625)"/>
        <path id="DejaVuSans-2e" d="M 684 794 
L 1344 794 
L 1344 0 
L 684 0 
L 684 794 
z
" transform="scale(0.015625)"/>
        <path id="DejaVuSans-35" d="M 691 4666 
L 3169 4666 
L 3169 4134 
L 1269 4134 
L 1269 2991 
Q 1406 3038 1543 3061 
Q 1681 3084 1819 3084 
Q 2600 3084 3056 2656 
Q 3513 2228 3513 1497 
Q 3513 744 3044 326 
Q 2575 -91 1722 -91 
Q 1428 -91 1123 -41 
Q 819 9 494 109 
L 494 744 
Q 775 591 1075 516 
Q 1375 441 1709 441 
Q 2250 441 2565 725 
Q 2881 1009 2881 1497 
Q 2881 1984 2565 2268 
Q 2250 2553 1709 2553 
Q 1456 2553 1204 2497 
Q 953 2441 691 2322 
L 691 4666 
z
" transform="scale(0.015625)"/>
       </defs>
       <use xlink:href="#DejaVuSans-4b"/>
       <use xlink:href="#DejaVuSans-53" x="65.576172"/>
       <use xlink:href="#DejaVuSans-32" x="129.052734"/>
       <use xlink:href="#DejaVuSans-2e" x="192.675781"/>
       <use xlink:href="#DejaVuSans-35" x="224.462891"/>
      </g>
     </g>
    </g>
    <g id="xtick_5">
     <g id="line2d_5">
      <g>
       <use xlink:href="#mcc9e35f3a5" x="107.858009" y="124.782" style="stroke: #000000; stroke-width: 0.3"/>
      </g>
     </g>
     <g id="text_5">
      <!-- KS2 -->
      <g transform="translate(103.679653 139.510889) rotate(-30) scale(0.06 -0.06)">
       <use xlink:href="#DejaVuSans-4b"/>
       <use xlink:href="#DejaVuSans-53" x="65.576172"/>
       <use xlink:href="#DejaVuSans-32" x="129.052734"/>
      </g>
     </g>
    </g>
    <g id="xtick_6">
     <g id="line2d_6">
      <g>
       <use xlink:href="#mcc9e35f3a5" x="122.20658" y="124.782" style="stroke: #000000; stroke-width: 0.3"/>
      </g>
     </g>
     <g id="text_6">
      <!-- KS -->
      <g transform="translate(119.681251 137.602139) rotate(-30) scale(0.06 -0.06)">
       <use xlink:href="#DejaVuSans-4b"/>
       <use xlink:href="#DejaVuSans-53" x="65.576172"/>
      </g>
     </g>
    </g>
    <g id="xtick_7">
     <g id="line2d_7">
      <g>
       <use xlink:href="#mcc9e35f3a5" x="136.555152" y="124.782" style="stroke: #000000; stroke-width: 0.3"/>
      </g>
     </g>
     <g id="text_7">
      <!-- HS -->
      <g transform="translate(133.779757 137.890889) rotate(-30) scale(0.06 -0.06)">
       <defs>
        <path id="DejaVuSans-48" d="M 628 4666 
L 1259 4666 
L 1259 2753 
L 3553 2753 
L 3553 4666 
L 4184 4666 
L 4184 0 
L 3553 0 
L 3553 2222 
L 1259 2222 
L 1259 0 
L 628 0 
L 628 4666 
z
" transform="scale(0.015625)"/>
       </defs>
       <use xlink:href="#DejaVuSans-48"/>
       <use xlink:href="#DejaVuSans-53" x="75.195312"/>
      </g>
     </g>
    </g>
    <g id="text_8">
     <!-- Spike sorter -->
     <g transform="translate(75.552094 159.801487) scale(0.06 -0.06)">
      <defs>
       <path id="DejaVuSans-70" d="M 1159 525 
L 1159 -1331 
L 581 -1331 
L 581 3500 
L 1159 3500 
L 1159 2969 
Q 1341 3281 1617 3432 
Q 1894 3584 2278 3584 
Q 2916 3584 3314 3078 
Q 3713 2572 3713 1747 
Q 3713 922 3314 415 
Q 2916 -91 2278 -91 
Q 1894 -91 1617 61 
Q 1341 213 1159 525 
z
M 3116 1747 
Q 3116 2381 2855 2742 
Q 2594 3103 2138 3103 
Q 1681 3103 1420 2742 
Q 1159 2381 1159 1747 
Q 1159 1113 1420 752 
Q 1681 391 2138 391 
Q 2594 391 2855 752 
Q 3116 1113 3116 1747 
z
" transform="scale(0.015625)"/>
       <path id="DejaVuSans-69" d="M 603 3500 
L 1178 3500 
L 1178 0 
L 603 0 
L 603 3500 
z
M 603 4863 
L 1178 4863 
L 1178 4134 
L 603 4134 
L 603 4863 
z
" transform="scale(0.015625)"/>
       <path id="DejaVuSans-6b" d="M 581 4863 
L 1159 4863 
L 1159 1991 
L 2875 3500 
L 3609 3500 
L 1753 1863 
L 3688 0 
L 2938 0 
L 1159 1709 
L 1159 0 
L 581 0 
L 581 4863 
z
" transform="scale(0.015625)"/>
       <path id="DejaVuSans-65" d="M 3597 1894 
L 3597 1613 
L 953 1613 
Q 991 1019 1311 708 
Q 1631 397 2203 397 
Q 2534 397 2845 478 
Q 3156 559 3463 722 
L 3463 178 
Q 3153 47 2828 -22 
Q 2503 -91 2169 -91 
Q 1331 -91 842 396 
Q 353 884 353 1716 
Q 353 2575 817 3079 
Q 1281 3584 2069 3584 
Q 2775 3584 3186 3129 
Q 3597 2675 3597 1894 
z
M 3022 2063 
Q 3016 2534 2758 2815 
Q 2500 3097 2075 3097 
Q 1594 3097 1305 2825 
Q 1016 2553 972 2059 
L 3022 2063 
z
" transform="scale(0.015625)"/>
       <path id="DejaVuSans-20" transform="scale(0.015625)"/>
       <path id="DejaVuSans-73" d="M 2834 3397 
L 2834 2853 
Q 2591 2978 2328 3040 
Q 2066 3103 1784 3103 
Q 1356 3103 1142 2972 
Q 928 2841 928 2578 
Q 928 2378 1081 2264 
Q 1234 2150 1697 2047 
L 1894 2003 
Q 2506 1872 2764 1633 
Q 3022 1394 3022 966 
Q 3022 478 2636 193 
Q 2250 -91 1575 -91 
Q 1294 -91 989 -36 
Q 684 19 347 128 
L 347 722 
Q 666 556 975 473 
Q 1284 391 1588 391 
Q 1994 391 2212 530 
Q 2431 669 2431 922 
Q 2431 1156 2273 1281 
Q 2116 1406 1581 1522 
L 1381 1569 
Q 847 1681 609 1914 
Q 372 2147 372 2553 
Q 372 3047 722 3315 
Q 1072 3584 1716 3584 
Q 2034 3584 2315 3537 
Q 2597 3491 2834 3397 
z
" transform="scale(0.015625)"/>
      </defs>
      <use xlink:href="#DejaVuSans-53"/>
      <use xlink:href="#DejaVuSans-70" x="63.476562"/>
      <use xlink:href="#DejaVuSans-69" x="126.953125"/>
      <use xlink:href="#DejaVuSans-6b" x="154.736328"/>
      <use xlink:href="#DejaVuSans-65" x="209.021484"/>
      <use xlink:href="#DejaVuSans-20" x="270.544922"/>
      <use xlink:href="#DejaVuSans-73" x="302.332031"/>
      <use xlink:href="#DejaVuSans-6f" x="354.431641"/>
      <use xlink:href="#DejaVuSans-72" x="415.613281"/>
      <use xlink:href="#DejaVuSans-74" x="456.726562"/>
      <use xlink:href="#DejaVuSans-65" x="495.935547"/>
      <use xlink:href="#DejaVuSans-72" x="557.458984"/>
     </g>
    </g>
   </g>
   <g id="matplotlib.axis_2">
    <g id="ytick_1">
     <g id="line2d_8">
      <defs>
       <path id="ma10ed7840f" d="M 0 0 
L -1.5 0 
" style="stroke: #000000; stroke-width: 0.3"/>
      </defs>
      <g>
       <use xlink:href="#ma10ed7840f" x="38.267437" y="115.884363" style="stroke: #000000; stroke-width: 0.3"/>
      </g>
     </g>
     <g id="text_9">
      <!-- 0.6 -->
      <g transform="translate(23.725562 118.163894) scale(0.06 -0.06)">
       <defs>
        <path id="DejaVuSans-30" d="M 2034 4250 
Q 1547 4250 1301 3770 
Q 1056 3291 1056 2328 
Q 1056 1369 1301 889 
Q 1547 409 2034 409 
Q 2525 409 2770 889 
Q 3016 1369 3016 2328 
Q 3016 3291 2770 3770 
Q 2525 4250 2034 4250 
z
M 2034 4750 
Q 2819 4750 3233 4129 
Q 3647 3509 3647 2328 
Q 3647 1150 3233 529 
Q 2819 -91 2034 -91 
Q 1250 -91 836 529 
Q 422 1150 422 2328 
Q 422 3509 836 4129 
Q 1250 4750 2034 4750 
z
" transform="scale(0.015625)"/>
        <path id="DejaVuSans-36" d="M 2113 2584 
Q 1688 2584 1439 2293 
Q 1191 2003 1191 1497 
Q 1191 994 1439 701 
Q 1688 409 2113 409 
Q 2538 409 2786 701 
Q 3034 994 3034 1497 
Q 3034 2003 2786 2293 
Q 2538 2584 2113 2584 
z
M 3366 4563 
L 3366 3988 
Q 3128 4100 2886 4159 
Q 2644 4219 2406 4219 
Q 1781 4219 1451 3797 
Q 1122 3375 1075 2522 
Q 1259 2794 1537 2939 
Q 1816 3084 2150 3084 
Q 2853 3084 3261 2657 
Q 3669 2231 3669 1497 
Q 3669 778 3244 343 
Q 2819 -91 2113 -91 
Q 1303 -91 875 529 
Q 447 1150 447 2328 
Q 447 3434 972 4092 
Q 1497 4750 2381 4750 
Q 2619 4750 2861 4703 
Q 3103 4656 3366 4563 
z
" transform="scale(0.015625)"/>
       </defs>
       <use xlink:href="#DejaVuSans-30"/>
       <use xlink:href="#DejaVuSans-2e" x="63.623047"/>
       <use xlink:href="#DejaVuSans-36" x="95.410156"/>
      </g>
     </g>
    </g>
    <g id="ytick_2">
     <g id="line2d_9">
      <g>
       <use xlink:href="#ma10ed7840f" x="38.267437" y="101.611483" style="stroke: #000000; stroke-width: 0.3"/>
      </g>
     </g>
     <g id="text_10">
      <!-- 0.8 -->
      <g transform="translate(23.725562 103.891015) scale(0.06 -0.06)">
       <defs>
        <path id="DejaVuSans-38" d="M 2034 2216 
Q 1584 2216 1326 1975 
Q 1069 1734 1069 1313 
Q 1069 891 1326 650 
Q 1584 409 2034 409 
Q 2484 409 2743 651 
Q 3003 894 3003 1313 
Q 3003 1734 2745 1975 
Q 2488 2216 2034 2216 
z
M 1403 2484 
Q 997 2584 770 2862 
Q 544 3141 544 3541 
Q 544 4100 942 4425 
Q 1341 4750 2034 4750 
Q 2731 4750 3128 4425 
Q 3525 4100 3525 3541 
Q 3525 3141 3298 2862 
Q 3072 2584 2669 2484 
Q 3125 2378 3379 2068 
Q 3634 1759 3634 1313 
Q 3634 634 3220 271 
Q 2806 -91 2034 -91 
Q 1263 -91 848 271 
Q 434 634 434 1313 
Q 434 1759 690 2068 
Q 947 2378 1403 2484 
z
M 1172 3481 
Q 1172 3119 1398 2916 
Q 1625 2713 2034 2713 
Q 2441 2713 2670 2916 
Q 2900 3119 2900 3481 
Q 2900 3844 2670 4047 
Q 2441 4250 2034 4250 
Q 1625 4250 1398 4047 
Q 1172 3844 1172 3481 
z
" transform="scale(0.015625)"/>
       </defs>
       <use xlink:href="#DejaVuSans-30"/>
       <use xlink:href="#DejaVuSans-2e" x="63.623047"/>
       <use xlink:href="#DejaVuSans-38" x="95.410156"/>
      </g>
     </g>
    </g>
    <g id="ytick_3">
     <g id="line2d_10">
      <g>
       <use xlink:href="#ma10ed7840f" x="38.267437" y="87.338604" style="stroke: #000000; stroke-width: 0.3"/>
      </g>
     </g>
     <g id="text_11">
      <!-- 1.0 -->
      <g transform="translate(23.725562 89.618135) scale(0.06 -0.06)">
       <defs>
        <path id="DejaVuSans-31" d="M 794 531 
L 1825 531 
L 1825 4091 
L 703 3866 
L 703 4441 
L 1819 4666 
L 2450 4666 
L 2450 531 
L 3481 531 
L 3481 0 
L 794 0 
L 794 531 
z
" transform="scale(0.015625)"/>
       </defs>
       <use xlink:href="#DejaVuSans-31"/>
       <use xlink:href="#DejaVuSans-2e" x="63.623047"/>
       <use xlink:href="#DejaVuSans-30" x="95.410156"/>
      </g>
     </g>
    </g>
    <g id="ytick_4">
     <g id="line2d_11">
      <g>
       <use xlink:href="#ma10ed7840f" x="38.267437" y="73.065724" style="stroke: #000000; stroke-width: 0.3"/>
      </g>
     </g>
     <g id="text_12">
      <!-- 1.2 -->
      <g transform="translate(23.725562 75.345255) scale(0.06 -0.06)">
       <use xlink:href="#DejaVuSans-31"/>
       <use xlink:href="#DejaVuSans-2e" x="63.623047"/>
       <use xlink:href="#DejaVuSans-32" x="95.410156"/>
      </g>
     </g>
    </g>
    <g id="ytick_5">
     <g id="line2d_12">
      <g>
       <use xlink:href="#ma10ed7840f" x="38.267437" y="58.792844" style="stroke: #000000; stroke-width: 0.3"/>
      </g>
     </g>
     <g id="text_13">
      <!-- 1.4 -->
      <g transform="translate(23.725562 61.072375) scale(0.06 -0.06)">
       <use xlink:href="#DejaVuSans-31"/>
       <use xlink:href="#DejaVuSans-2e" x="63.623047"/>
       <use xlink:href="#DejaVuSans-34" x="95.410156"/>
      </g>
     </g>
    </g>
    <g id="ytick_6">
     <g id="line2d_13">
      <g>
       <use xlink:href="#ma10ed7840f" x="38.267437" y="44.519965" style="stroke: #000000; stroke-width: 0.3"/>
      </g>
     </g>
     <g id="text_14">
      <!-- 1.6 -->
      <g transform="translate(23.725562 46.799496) scale(0.06 -0.06)">
       <use xlink:href="#DejaVuSans-31"/>
       <use xlink:href="#DejaVuSans-2e" x="63.623047"/>
       <use xlink:href="#DejaVuSans-36" x="95.410156"/>
      </g>
     </g>
    </g>
    <g id="text_15">
     <!-- Manifold capacity /  -->
     <g transform="translate(11.759062 108.371812) rotate(-90) scale(0.06 -0.06)">
      <defs>
       <path id="DejaVuSans-4d" d="M 628 4666 
L 1569 4666 
L 2759 1491 
L 3956 4666 
L 4897 4666 
L 4897 0 
L 4281 0 
L 4281 4097 
L 3078 897 
L 2444 897 
L 1241 4097 
L 1241 0 
L 628 0 
L 628 4666 
z
" transform="scale(0.015625)"/>
       <path id="DejaVuSans-61" d="M 2194 1759 
Q 1497 1759 1228 1600 
Q 959 1441 959 1056 
Q 959 750 1161 570 
Q 1363 391 1709 391 
Q 2188 391 2477 730 
Q 2766 1069 2766 1631 
L 2766 1759 
L 2194 1759 
z
M 3341 1997 
L 3341 0 
L 2766 0 
L 2766 531 
Q 2569 213 2275 61 
Q 1981 -91 1556 -91 
Q 1019 -91 701 211 
Q 384 513 384 1019 
Q 384 1609 779 1909 
Q 1175 2209 1959 2209 
L 2766 2209 
L 2766 2266 
Q 2766 2663 2505 2880 
Q 2244 3097 1772 3097 
Q 1472 3097 1187 3025 
Q 903 2953 641 2809 
L 641 3341 
Q 956 3463 1253 3523 
Q 1550 3584 1831 3584 
Q 2591 3584 2966 3190 
Q 3341 2797 3341 1997 
z
" transform="scale(0.015625)"/>
       <path id="DejaVuSans-66" d="M 2375 4863 
L 2375 4384 
L 1825 4384 
Q 1516 4384 1395 4259 
Q 1275 4134 1275 3809 
L 1275 3500 
L 2222 3500 
L 2222 3053 
L 1275 3053 
L 1275 0 
L 697 0 
L 697 3053 
L 147 3053 
L 147 3500 
L 697 3500 
L 697 3744 
Q 697 4328 969 4595 
Q 1241 4863 1831 4863 
L 2375 4863 
z
" transform="scale(0.015625)"/>
       <path id="DejaVuSans-6c" d="M 603 4863 
L 1178 4863 
L 1178 0 
L 603 0 
L 603 4863 
z
" transform="scale(0.015625)"/>
       <path id="DejaVuSans-63" d="M 3122 3366 
L 3122 2828 
Q 2878 2963 2633 3030 
Q 2388 3097 2138 3097 
Q 1578 3097 1268 2742 
Q 959 2388 959 1747 
Q 959 1106 1268 751 
Q 1578 397 2138 397 
Q 2388 397 2633 464 
Q 2878 531 3122 666 
L 3122 134 
Q 2881 22 2623 -34 
Q 2366 -91 2075 -91 
Q 1284 -91 818 406 
Q 353 903 353 1747 
Q 353 2603 823 3093 
Q 1294 3584 2113 3584 
Q 2378 3584 2631 3529 
Q 2884 3475 3122 3366 
z
" transform="scale(0.015625)"/>
       <path id="DejaVuSans-79" d="M 2059 -325 
Q 1816 -950 1584 -1140 
Q 1353 -1331 966 -1331 
L 506 -1331 
L 506 -850 
L 844 -850 
Q 1081 -850 1212 -737 
Q 1344 -625 1503 -206 
L 1606 56 
L 191 3500 
L 800 3500 
L 1894 763 
L 2988 3500 
L 3597 3500 
L 2059 -325 
z
" transform="scale(0.015625)"/>
       <path id="DejaVuSans-2f" d="M 1625 4666 
L 2156 4666 
L 531 -594 
L 0 -594 
L 1625 4666 
z
" transform="scale(0.015625)"/>
      </defs>
      <use xlink:href="#DejaVuSans-4d"/>
      <use xlink:href="#DejaVuSans-61" x="86.279297"/>
      <use xlink:href="#DejaVuSans-6e" x="147.558594"/>
      <use xlink:href="#DejaVuSans-69" x="210.9375"/>
      <use xlink:href="#DejaVuSans-66" x="238.720703"/>
      <use xlink:href="#DejaVuSans-6f" x="273.925781"/>
      <use xlink:href="#DejaVuSans-6c" x="335.107422"/>
      <use xlink:href="#DejaVuSans-64" x="362.890625"/>
      <use xlink:href="#DejaVuSans-20" x="426.367188"/>
      <use xlink:href="#DejaVuSans-63" x="458.154297"/>
      <use xlink:href="#DejaVuSans-61" x="513.134766"/>
      <use xlink:href="#DejaVuSans-70" x="574.414062"/>
      <use xlink:href="#DejaVuSans-61" x="637.890625"/>
      <use xlink:href="#DejaVuSans-63" x="699.169922"/>
      <use xlink:href="#DejaVuSans-69" x="754.150391"/>
      <use xlink:href="#DejaVuSans-74" x="781.933594"/>
      <use xlink:href="#DejaVuSans-79" x="821.142578"/>
      <use xlink:href="#DejaVuSans-20" x="880.322266"/>
      <use xlink:href="#DejaVuSans-2f" x="912.109375"/>
      <use xlink:href="#DejaVuSans-20" x="945.800781"/>
     </g>
     <!-- lower bound (ratio) -->
     <g transform="translate(18.47775 107.857594) rotate(-90) scale(0.06 -0.06)">
      <defs>
       <path id="DejaVuSans-77" d="M 269 3500 
L 844 3500 
L 1563 769 
L 2278 3500 
L 2956 3500 
L 3675 769 
L 4391 3500 
L 4966 3500 
L 4050 0 
L 3372 0 
L 2619 2869 
L 1863 0 
L 1184 0 
L 269 3500 
z
" transform="scale(0.015625)"/>
       <path id="DejaVuSans-62" d="M 3116 1747 
Q 3116 2381 2855 2742 
Q 2594 3103 2138 3103 
Q 1681 3103 1420 2742 
Q 1159 2381 1159 1747 
Q 1159 1113 1420 752 
Q 1681 391 2138 391 
Q 2594 391 2855 752 
Q 3116 1113 3116 1747 
z
M 1159 2969 
Q 1341 3281 1617 3432 
Q 1894 3584 2278 3584 
Q 2916 3584 3314 3078 
Q 3713 2572 3713 1747 
Q 3713 922 3314 415 
Q 2916 -91 2278 -91 
Q 1894 -91 1617 61 
Q 1341 213 1159 525 
L 1159 0 
L 581 0 
L 581 4863 
L 1159 4863 
L 1159 2969 
z
" transform="scale(0.015625)"/>
       <path id="DejaVuSans-28" d="M 1984 4856 
Q 1566 4138 1362 3434 
Q 1159 2731 1159 2009 
Q 1159 1288 1364 580 
Q 1569 -128 1984 -844 
L 1484 -844 
Q 1016 -109 783 600 
Q 550 1309 550 2009 
Q 550 2706 781 3412 
Q 1013 4119 1484 4856 
L 1984 4856 
z
" transform="scale(0.015625)"/>
       <path id="DejaVuSans-29" d="M 513 4856 
L 1013 4856 
Q 1481 4119 1714 3412 
Q 1947 2706 1947 2009 
Q 1947 1309 1714 600 
Q 1481 -109 1013 -844 
L 513 -844 
Q 928 -128 1133 580 
Q 1338 1288 1338 2009 
Q 1338 2731 1133 3434 
Q 928 4138 513 4856 
z
" transform="scale(0.015625)"/>
      </defs>
      <use xlink:href="#DejaVuSans-6c"/>
      <use xlink:href="#DejaVuSans-6f" x="27.783203"/>
      <use xlink:href="#DejaVuSans-77" x="88.964844"/>
      <use xlink:href="#DejaVuSans-65" x="170.751953"/>
      <use xlink:href="#DejaVuSans-72" x="232.275391"/>
      <use xlink:href="#DejaVuSans-20" x="273.388672"/>
      <use xlink:href="#DejaVuSans-62" x="305.175781"/>
      <use xlink:href="#DejaVuSans-6f" x="368.652344"/>
      <use xlink:href="#DejaVuSans-75" x="429.833984"/>
      <use xlink:href="#DejaVuSans-6e" x="493.212891"/>
      <use xlink:href="#DejaVuSans-64" x="556.591797"/>
      <use xlink:href="#DejaVuSans-20" x="620.068359"/>
      <use xlink:href="#DejaVuSans-28" x="651.855469"/>
      <use xlink:href="#DejaVuSans-72" x="690.869141"/>
      <use xlink:href="#DejaVuSans-61" x="731.982422"/>
      <use xlink:href="#DejaVuSans-74" x="793.261719"/>
      <use xlink:href="#DejaVuSans-69" x="832.470703"/>
      <use xlink:href="#DejaVuSans-6f" x="860.253906"/>
      <use xlink:href="#DejaVuSans-29" x="921.435547"/>
     </g>
    </g>
   </g>
   <g id="LineCollection_1">
    <path d="M 43.289437 87.338604 
L 143.729437 87.338604 
" clip-path="url(#pd51eb8e9a3)" style="fill: none; stroke-dasharray: 1.85,0.8; stroke-dashoffset: 0; stroke: #00b2ff; stroke-width: 0.5"/>
   </g>
   <g id="LineCollection_2">
    <path d="M 43.289437 69.406446 
L 150.903723 69.406446 
" clip-path="url(#pd51eb8e9a3)" style="fill: none; stroke-dasharray: 1.85,0.8; stroke-dashoffset: 0; stroke: #ff0000; stroke-width: 0.5"/>
   </g>
   <g id="patch_6">
    <path d="M 45.943923 71.609291 
L 48.287523 71.609291 
L 48.287523 70.042601 
L 47.701623 69.589113 
L 48.287523 69.135625 
L 48.287523 67.524394 
L 45.943923 67.524394 
L 45.943923 69.135625 
L 46.529823 69.589113 
L 45.943923 70.042601 
L 45.943923 71.609291 
z
" clip-path="url(#pd51eb8e9a3)" style="fill: #808080; stroke: #4c4c4c; stroke-width: 0.5; stroke-linejoin: miter"/>
   </g>
   <g id="line2d_14">
    <path d="M 47.115723 71.609291 
L 47.115723 76.347391 
" clip-path="url(#pd51eb8e9a3)" style="fill: none; stroke: #4c4c4c; stroke-width: 0.5"/>
   </g>
   <g id="line2d_15">
    <path d="M 47.115723 67.524394 
L 47.115723 62.260935 
" clip-path="url(#pd51eb8e9a3)" style="fill: none; stroke: #4c4c4c; stroke-width: 0.5"/>
   </g>
   <g id="line2d_16">
    <path d="M 46.529823 76.347391 
L 47.701623 76.347391 
" clip-path="url(#pd51eb8e9a3)" style="fill: none; stroke: #4c4c4c; stroke-width: 0.5; stroke-linecap: square"/>
   </g>
   <g id="line2d_17">
    <path d="M 46.529823 62.260935 
L 47.701623 62.260935 
" clip-path="url(#pd51eb8e9a3)" style="fill: none; stroke: #4c4c4c; stroke-width: 0.5; stroke-linecap: square"/>
   </g>
   <g id="line2d_18"/>
   <g id="patch_7">
    <path d="M 63.640495 77.178674 
L 65.984095 77.178674 
L 65.984095 75.716028 
L 65.398195 75.345619 
L 65.984095 74.975211 
L 65.984095 73.842133 
L 63.640495 73.842133 
L 63.640495 74.975211 
L 64.226395 75.345619 
L 63.640495 75.716028 
L 63.640495 77.178674 
z
" clip-path="url(#pd51eb8e9a3)" style="fill: #df2020; stroke: #4c4c4c; stroke-width: 0.5; stroke-linejoin: miter"/>
   </g>
   <g id="line2d_19">
    <path d="M 64.812295 77.178674 
L 64.812295 81.567026 
" clip-path="url(#pd51eb8e9a3)" style="fill: none; stroke: #4c4c4c; stroke-width: 0.5"/>
   </g>
   <g id="line2d_20">
    <path d="M 64.812295 73.842133 
L 64.812295 69.8631 
" clip-path="url(#pd51eb8e9a3)" style="fill: none; stroke: #4c4c4c; stroke-width: 0.5"/>
   </g>
   <g id="line2d_21">
    <path d="M 64.226395 81.567026 
L 65.398195 81.567026 
" clip-path="url(#pd51eb8e9a3)" style="fill: none; stroke: #4c4c4c; stroke-width: 0.5; stroke-linecap: square"/>
   </g>
   <g id="line2d_22">
    <path d="M 64.226395 69.8631 
L 65.398195 69.8631 
" clip-path="url(#pd51eb8e9a3)" style="fill: none; stroke: #4c4c4c; stroke-width: 0.5; stroke-linecap: square"/>
   </g>
   <g id="line2d_23">
    <defs>
     <path id="macabdabe43" d="M 0 0.75 
C 0.198902 0.75 0.389685 0.670975 0.53033 0.53033 
C 0.670975 0.389685 0.75 0.198902 0.75 0 
C 0.75 -0.198902 0.670975 -0.389685 0.53033 -0.53033 
C 0.389685 -0.670975 0.198902 -0.75 0 -0.75 
C -0.198902 -0.75 -0.389685 -0.670975 -0.53033 -0.53033 
C -0.670975 -0.389685 -0.75 -0.198902 -0.75 0 
C -0.75 0.198902 -0.670975 0.389685 -0.53033 0.53033 
C -0.389685 0.670975 -0.198902 0.75 0 0.75 
z
" style="stroke: #4c4c4c; stroke-width: 0.5"/>
    </defs>
    <g clip-path="url(#pd51eb8e9a3)">
     <use xlink:href="#macabdabe43" x="64.812295" y="68.027721" style="fill: #ffffff; stroke: #4c4c4c; stroke-width: 0.5"/>
     <use xlink:href="#macabdabe43" x="64.812295" y="68.312102" style="fill: #ffffff; stroke: #4c4c4c; stroke-width: 0.5"/>
    </g>
   </g>
   <g id="patch_8">
    <path d="M 77.989066 79.219573 
L 80.332666 79.219573 
L 80.332666 78.318825 
L 79.746766 78.008791 
L 80.332666 77.698756 
L 80.332666 76.426865 
L 77.989066 76.426865 
L 77.989066 77.698756 
L 78.574966 78.008791 
L 77.989066 78.318825 
L 77.989066 79.219573 
z
" clip-path="url(#pd51eb8e9a3)" style="fill: #df2020; stroke: #4c4c4c; stroke-width: 0.5; stroke-linejoin: miter"/>
   </g>
   <g id="line2d_24">
    <path d="M 79.160866 79.219573 
L 79.160866 83.386013 
" clip-path="url(#pd51eb8e9a3)" style="fill: none; stroke: #4c4c4c; stroke-width: 0.5"/>
   </g>
   <g id="line2d_25">
    <path d="M 79.160866 76.426865 
L 79.160866 72.28871 
" clip-path="url(#pd51eb8e9a3)" style="fill: none; stroke: #4c4c4c; stroke-width: 0.5"/>
   </g>
   <g id="line2d_26">
    <path d="M 78.574966 83.386013 
L 79.746766 83.386013 
" clip-path="url(#pd51eb8e9a3)" style="fill: none; stroke: #4c4c4c; stroke-width: 0.5; stroke-linecap: square"/>
   </g>
   <g id="line2d_27">
    <path d="M 78.574966 72.28871 
L 79.746766 72.28871 
" clip-path="url(#pd51eb8e9a3)" style="fill: none; stroke: #4c4c4c; stroke-width: 0.5; stroke-linecap: square"/>
   </g>
   <g id="line2d_28">
    <g clip-path="url(#pd51eb8e9a3)">
     <use xlink:href="#macabdabe43" x="79.160866" y="83.430025" style="fill: #ffffff; stroke: #4c4c4c; stroke-width: 0.5"/>
     <use xlink:href="#macabdabe43" x="79.160866" y="84.351564" style="fill: #ffffff; stroke: #4c4c4c; stroke-width: 0.5"/>
     <use xlink:href="#macabdabe43" x="79.160866" y="71.931136" style="fill: #ffffff; stroke: #4c4c4c; stroke-width: 0.5"/>
     <use xlink:href="#macabdabe43" x="79.160866" y="71.922853" style="fill: #ffffff; stroke: #4c4c4c; stroke-width: 0.5"/>
     <use xlink:href="#macabdabe43" x="79.160866" y="72.119632" style="fill: #ffffff; stroke: #4c4c4c; stroke-width: 0.5"/>
     <use xlink:href="#macabdabe43" x="79.160866" y="71.883452" style="fill: #ffffff; stroke: #4c4c4c; stroke-width: 0.5"/>
    </g>
   </g>
   <g id="patch_9">
    <path d="M 92.337637 78.032668 
L 94.681237 78.032668 
L 94.681237 76.774151 
L 94.095337 76.404474 
L 94.681237 76.034797 
L 94.681237 74.702719 
L 92.337637 74.702719 
L 92.337637 76.034797 
L 92.923537 76.404474 
L 92.337637 76.774151 
L 92.337637 78.032668 
z
" clip-path="url(#pd51eb8e9a3)" style="fill: #df2020; stroke: #4c4c4c; stroke-width: 0.5; stroke-linejoin: miter"/>
   </g>
   <g id="line2d_29">
    <path d="M 93.509437 78.032668 
L 93.509437 82.040428 
" clip-path="url(#pd51eb8e9a3)" style="fill: none; stroke: #4c4c4c; stroke-width: 0.5"/>
   </g>
   <g id="line2d_30">
    <path d="M 93.509437 74.702719 
L 93.509437 69.90877 
" clip-path="url(#pd51eb8e9a3)" style="fill: none; stroke: #4c4c4c; stroke-width: 0.5"/>
   </g>
   <g id="line2d_31">
    <path d="M 92.923537 82.040428 
L 94.095337 82.040428 
" clip-path="url(#pd51eb8e9a3)" style="fill: none; stroke: #4c4c4c; stroke-width: 0.5; stroke-linecap: square"/>
   </g>
   <g id="line2d_32">
    <path d="M 92.923537 69.90877 
L 94.095337 69.90877 
" clip-path="url(#pd51eb8e9a3)" style="fill: none; stroke: #4c4c4c; stroke-width: 0.5; stroke-linecap: square"/>
   </g>
   <g id="line2d_33">
    <g clip-path="url(#pd51eb8e9a3)">
     <use xlink:href="#macabdabe43" x="93.509437" y="92.025514" style="fill: #ffffff; stroke: #4c4c4c; stroke-width: 0.5"/>
     <use xlink:href="#macabdabe43" x="93.509437" y="83.257218" style="fill: #ffffff; stroke: #4c4c4c; stroke-width: 0.5"/>
     <use xlink:href="#macabdabe43" x="93.509437" y="69.292844" style="fill: #ffffff; stroke: #4c4c4c; stroke-width: 0.5"/>
    </g>
   </g>
   <g id="patch_10">
    <path d="M 106.686209 78.446358 
L 109.029809 78.446358 
L 109.029809 77.334283 
L 108.443909 76.988311 
L 109.029809 76.642339 
L 109.029809 75.329936 
L 106.686209 75.329936 
L 106.686209 76.642339 
L 107.272109 76.988311 
L 106.686209 77.334283 
L 106.686209 78.446358 
z
" clip-path="url(#pd51eb8e9a3)" style="fill: #df2020; stroke: #4c4c4c; stroke-width: 0.5; stroke-linejoin: miter"/>
   </g>
   <g id="line2d_34">
    <path d="M 107.858009 78.446358 
L 107.858009 82.956451 
" clip-path="url(#pd51eb8e9a3)" style="fill: none; stroke: #4c4c4c; stroke-width: 0.5"/>
   </g>
   <g id="line2d_35">
    <path d="M 107.858009 75.329936 
L 107.858009 70.879913 
" clip-path="url(#pd51eb8e9a3)" style="fill: none; stroke: #4c4c4c; stroke-width: 0.5"/>
   </g>
   <g id="line2d_36">
    <path d="M 107.272109 82.956451 
L 108.443909 82.956451 
" clip-path="url(#pd51eb8e9a3)" style="fill: none; stroke: #4c4c4c; stroke-width: 0.5; stroke-linecap: square"/>
   </g>
   <g id="line2d_37">
    <path d="M 107.272109 70.879913 
L 108.443909 70.879913 
" clip-path="url(#pd51eb8e9a3)" style="fill: none; stroke: #4c4c4c; stroke-width: 0.5; stroke-linecap: square"/>
   </g>
   <g id="line2d_38">
    <g clip-path="url(#pd51eb8e9a3)">
     <use xlink:href="#macabdabe43" x="107.858009" y="69.764946" style="fill: #ffffff; stroke: #4c4c4c; stroke-width: 0.5"/>
     <use xlink:href="#macabdabe43" x="107.858009" y="69.970974" style="fill: #ffffff; stroke: #4c4c4c; stroke-width: 0.5"/>
     <use xlink:href="#macabdabe43" x="107.858009" y="70.378333" style="fill: #ffffff; stroke: #4c4c4c; stroke-width: 0.5"/>
    </g>
   </g>
   <g id="patch_11">
    <path d="M 121.03478 75.061703 
L 123.37838 75.061703 
L 123.37838 73.916317 
L 122.79248 73.540549 
L 123.37838 73.164781 
L 123.37838 71.676888 
L 121.03478 71.676888 
L 121.03478 73.164781 
L 121.62068 73.540549 
L 121.03478 73.916317 
L 121.03478 75.061703 
z
" clip-path="url(#pd51eb8e9a3)" style="fill: #df2020; stroke: #4c4c4c; stroke-width: 0.5; stroke-linejoin: miter"/>
   </g>
   <g id="line2d_39">
    <path d="M 122.20658 75.061703 
L 122.20658 79.477814 
" clip-path="url(#pd51eb8e9a3)" style="fill: none; stroke: #4c4c4c; stroke-width: 0.5"/>
   </g>
   <g id="line2d_40">
    <path d="M 122.20658 71.676888 
L 122.20658 67.764538 
" clip-path="url(#pd51eb8e9a3)" style="fill: none; stroke: #4c4c4c; stroke-width: 0.5"/>
   </g>
   <g id="line2d_41">
    <path d="M 121.62068 79.477814 
L 122.79248 79.477814 
" clip-path="url(#pd51eb8e9a3)" style="fill: none; stroke: #4c4c4c; stroke-width: 0.5; stroke-linecap: square"/>
   </g>
   <g id="line2d_42">
    <path d="M 121.62068 67.764538 
L 122.79248 67.764538 
" clip-path="url(#pd51eb8e9a3)" style="fill: none; stroke: #4c4c4c; stroke-width: 0.5; stroke-linecap: square"/>
   </g>
   <g id="line2d_43"/>
   <g id="patch_12">
    <path d="M 135.383352 77.392844 
L 137.726952 77.392844 
L 137.726952 76.259632 
L 137.141052 75.897292 
L 137.726952 75.534952 
L 137.726952 74.128985 
L 135.383352 74.128985 
L 135.383352 75.534952 
L 135.969252 75.897292 
L 135.383352 76.259632 
L 135.383352 77.392844 
z
" clip-path="url(#pd51eb8e9a3)" style="fill: #df2020; stroke: #4c4c4c; stroke-width: 0.5; stroke-linejoin: miter"/>
   </g>
   <g id="line2d_44">
    <path d="M 136.555152 77.392844 
L 136.555152 82.014949 
" clip-path="url(#pd51eb8e9a3)" style="fill: none; stroke: #4c4c4c; stroke-width: 0.5"/>
   </g>
   <g id="line2d_45">
    <path d="M 136.555152 74.128985 
L 136.555152 70.7741 
" clip-path="url(#pd51eb8e9a3)" style="fill: none; stroke: #4c4c4c; stroke-width: 0.5"/>
   </g>
   <g id="line2d_46">
    <path d="M 135.969252 82.014949 
L 137.141052 82.014949 
" clip-path="url(#pd51eb8e9a3)" style="fill: none; stroke: #4c4c4c; stroke-width: 0.5; stroke-linecap: square"/>
   </g>
   <g id="line2d_47">
    <path d="M 135.969252 70.7741 
L 137.141052 70.7741 
" clip-path="url(#pd51eb8e9a3)" style="fill: none; stroke: #4c4c4c; stroke-width: 0.5; stroke-linecap: square"/>
   </g>
   <g id="line2d_48">
    <g clip-path="url(#pd51eb8e9a3)">
     <use xlink:href="#macabdabe43" x="136.555152" y="84.432496" style="fill: #ffffff; stroke: #4c4c4c; stroke-width: 0.5"/>
    </g>
   </g>
   <g id="patch_13">
    <path d="M 66.988495 82.447069 
L 69.332095 82.447069 
L 69.332095 77.563062 
L 68.746195 76.729788 
L 69.332095 75.896515 
L 69.332095 71.832116 
L 66.988495 71.832116 
L 66.988495 75.896515 
L 67.574395 76.729788 
L 66.988495 77.563062 
L 66.988495 82.447069 
z
" clip-path="url(#pd51eb8e9a3)" style="fill: #ffffff; stroke: #4c4c4c; stroke-width: 0.5; stroke-linejoin: miter"/>
   </g>
   <g id="line2d_49">
    <path d="M 68.160295 82.447069 
L 68.160295 87.109653 
" clip-path="url(#pd51eb8e9a3)" style="fill: none; stroke: #4c4c4c; stroke-width: 0.5"/>
   </g>
   <g id="line2d_50">
    <path d="M 68.160295 71.832116 
L 68.160295 64.191984 
" clip-path="url(#pd51eb8e9a3)" style="fill: none; stroke: #4c4c4c; stroke-width: 0.5"/>
   </g>
   <g id="line2d_51">
    <path d="M 67.574395 87.109653 
L 68.746195 87.109653 
" clip-path="url(#pd51eb8e9a3)" style="fill: none; stroke: #4c4c4c; stroke-width: 0.5; stroke-linecap: square"/>
   </g>
   <g id="line2d_52">
    <path d="M 67.574395 64.191984 
L 68.746195 64.191984 
" clip-path="url(#pd51eb8e9a3)" style="fill: none; stroke: #4c4c4c; stroke-width: 0.5; stroke-linecap: square"/>
   </g>
   <g id="line2d_53"/>
   <g id="patch_14">
    <path d="M 81.337066 98.3373 
L 83.680666 98.3373 
L 83.680666 83.599767 
L 83.094766 80.452653 
L 83.680666 77.305538 
L 83.680666 58.24667 
L 81.337066 58.24667 
L 81.337066 77.305538 
L 81.922966 80.452653 
L 81.337066 83.599767 
L 81.337066 98.3373 
z
" clip-path="url(#pd51eb8e9a3)" style="fill: #ffffff; stroke: #4c4c4c; stroke-width: 0.5; stroke-linejoin: miter"/>
   </g>
   <g id="line2d_54">
    <path d="M 82.508866 98.3373 
L 82.508866 102.292222 
" clip-path="url(#pd51eb8e9a3)" style="fill: none; stroke: #4c4c4c; stroke-width: 0.5"/>
   </g>
   <g id="line2d_55">
    <path d="M 82.508866 58.24667 
L 82.508866 50.612824 
" clip-path="url(#pd51eb8e9a3)" style="fill: none; stroke: #4c4c4c; stroke-width: 0.5"/>
   </g>
   <g id="line2d_56">
    <path d="M 81.922966 102.292222 
L 83.094766 102.292222 
" clip-path="url(#pd51eb8e9a3)" style="fill: none; stroke: #4c4c4c; stroke-width: 0.5; stroke-linecap: square"/>
   </g>
   <g id="line2d_57">
    <path d="M 81.922966 50.612824 
L 83.094766 50.612824 
" clip-path="url(#pd51eb8e9a3)" style="fill: none; stroke: #4c4c4c; stroke-width: 0.5; stroke-linecap: square"/>
   </g>
   <g id="line2d_58"/>
   <g id="patch_15">
    <path d="M 95.685637 81.887491 
L 98.029237 81.887491 
L 98.029237 78.228592 
L 97.443337 77.113958 
L 98.029237 75.999325 
L 98.029237 67.688337 
L 95.685637 67.688337 
L 95.685637 75.999325 
L 96.271537 77.113958 
L 95.685637 78.228592 
L 95.685637 81.887491 
z
" clip-path="url(#pd51eb8e9a3)" style="fill: #ffffff; stroke: #4c4c4c; stroke-width: 0.5; stroke-linejoin: miter"/>
   </g>
   <g id="line2d_59">
    <path d="M 96.857437 81.887491 
L 96.857437 86.009774 
" clip-path="url(#pd51eb8e9a3)" style="fill: none; stroke: #4c4c4c; stroke-width: 0.5"/>
   </g>
   <g id="line2d_60">
    <path d="M 96.857437 67.688337 
L 96.857437 59.820087 
" clip-path="url(#pd51eb8e9a3)" style="fill: none; stroke: #4c4c4c; stroke-width: 0.5"/>
   </g>
   <g id="line2d_61">
    <path d="M 96.271537 86.009774 
L 97.443337 86.009774 
" clip-path="url(#pd51eb8e9a3)" style="fill: none; stroke: #4c4c4c; stroke-width: 0.5; stroke-linecap: square"/>
   </g>
   <g id="line2d_62">
    <path d="M 96.271537 59.820087 
L 97.443337 59.820087 
" clip-path="url(#pd51eb8e9a3)" style="fill: none; stroke: #4c4c4c; stroke-width: 0.5; stroke-linecap: square"/>
   </g>
   <g id="line2d_63"/>
   <g id="patch_16">
    <path d="M 110.034209 85.889859 
L 112.377809 85.889859 
L 112.377809 78.185643 
L 111.791909 76.644188 
L 112.377809 75.102732 
L 112.377809 66.253483 
L 110.034209 66.253483 
L 110.034209 75.102732 
L 110.620109 76.644188 
L 110.034209 78.185643 
L 110.034209 85.889859 
z
" clip-path="url(#pd51eb8e9a3)" style="fill: #ffffff; stroke: #4c4c4c; stroke-width: 0.5; stroke-linejoin: miter"/>
   </g>
   <g id="line2d_64">
    <path d="M 111.206009 85.889859 
L 111.206009 90.635712 
" clip-path="url(#pd51eb8e9a3)" style="fill: none; stroke: #4c4c4c; stroke-width: 0.5"/>
   </g>
   <g id="line2d_65">
    <path d="M 111.206009 66.253483 
L 111.206009 58.063974 
" clip-path="url(#pd51eb8e9a3)" style="fill: none; stroke: #4c4c4c; stroke-width: 0.5"/>
   </g>
   <g id="line2d_66">
    <path d="M 110.620109 90.635712 
L 111.791909 90.635712 
" clip-path="url(#pd51eb8e9a3)" style="fill: none; stroke: #4c4c4c; stroke-width: 0.5; stroke-linecap: square"/>
   </g>
   <g id="line2d_67">
    <path d="M 110.620109 58.063974 
L 111.791909 58.063974 
" clip-path="url(#pd51eb8e9a3)" style="fill: none; stroke: #4c4c4c; stroke-width: 0.5; stroke-linecap: square"/>
   </g>
   <g id="line2d_68"/>
   <g id="patch_17">
    <path d="M 124.38278 113.705803 
L 126.72638 113.705803 
L 126.72638 91.470742 
L 126.14048 86.597766 
L 126.72638 81.72479 
L 126.72638 51.629676 
L 124.38278 51.629676 
L 124.38278 81.72479 
L 124.96868 86.597766 
L 124.38278 91.470742 
L 124.38278 113.705803 
z
" clip-path="url(#pd51eb8e9a3)" style="fill: #ffffff; stroke: #4c4c4c; stroke-width: 0.5; stroke-linejoin: miter"/>
   </g>
   <g id="line2d_69">
    <path d="M 125.55458 113.705803 
L 125.55458 116.844 
" clip-path="url(#pd51eb8e9a3)" style="fill: none; stroke: #4c4c4c; stroke-width: 0.5"/>
   </g>
   <g id="line2d_70">
    <path d="M 125.55458 51.629676 
L 125.55458 41.244 
" clip-path="url(#pd51eb8e9a3)" style="fill: none; stroke: #4c4c4c; stroke-width: 0.5"/>
   </g>
   <g id="line2d_71">
    <path d="M 124.96868 116.844 
L 126.14048 116.844 
" clip-path="url(#pd51eb8e9a3)" style="fill: none; stroke: #4c4c4c; stroke-width: 0.5; stroke-linecap: square"/>
   </g>
   <g id="line2d_72">
    <path d="M 124.96868 41.244 
L 126.14048 41.244 
" clip-path="url(#pd51eb8e9a3)" style="fill: none; stroke: #4c4c4c; stroke-width: 0.5; stroke-linecap: square"/>
   </g>
   <g id="line2d_73"/>
   <g id="patch_18">
    <path d="M 138.731352 79.833094 
L 141.074952 79.833094 
L 141.074952 77.823911 
L 140.489052 77.434126 
L 141.074952 77.04434 
L 141.074952 74.867672 
L 138.731352 74.867672 
L 138.731352 77.04434 
L 139.317252 77.434126 
L 138.731352 77.823911 
L 138.731352 79.833094 
z
" clip-path="url(#pd51eb8e9a3)" style="fill: #ffffff; stroke: #4c4c4c; stroke-width: 0.5; stroke-linejoin: miter"/>
   </g>
   <g id="line2d_74">
    <path d="M 139.903152 79.833094 
L 139.903152 85.35419 
" clip-path="url(#pd51eb8e9a3)" style="fill: none; stroke: #4c4c4c; stroke-width: 0.5"/>
   </g>
   <g id="line2d_75">
    <path d="M 139.903152 74.867672 
L 139.903152 69.701459 
" clip-path="url(#pd51eb8e9a3)" style="fill: none; stroke: #4c4c4c; stroke-width: 0.5"/>
   </g>
   <g id="line2d_76">
    <path d="M 139.317252 85.35419 
L 140.489052 85.35419 
" clip-path="url(#pd51eb8e9a3)" style="fill: none; stroke: #4c4c4c; stroke-width: 0.5; stroke-linecap: square"/>
   </g>
   <g id="line2d_77">
    <path d="M 139.317252 69.701459 
L 140.489052 69.701459 
" clip-path="url(#pd51eb8e9a3)" style="fill: none; stroke: #4c4c4c; stroke-width: 0.5; stroke-linecap: square"/>
   </g>
   <g id="line2d_78"/>
   <g id="line2d_79">
    <path d="M 46.529823 69.589113 
L 47.701623 69.589113 
" clip-path="url(#pd51eb8e9a3)" style="fill: none; stroke: #4c4c4c; stroke-width: 0.5"/>
   </g>
   <g id="line2d_80">
    <path d="M 64.226395 75.345619 
L 65.398195 75.345619 
" clip-path="url(#pd51eb8e9a3)" style="fill: none; stroke: #4c4c4c; stroke-width: 0.5"/>
   </g>
   <g id="line2d_81">
    <path d="M 78.574966 78.008791 
L 79.746766 78.008791 
" clip-path="url(#pd51eb8e9a3)" style="fill: none; stroke: #4c4c4c; stroke-width: 0.5"/>
   </g>
   <g id="line2d_82">
    <path d="M 92.923537 76.404474 
L 94.095337 76.404474 
" clip-path="url(#pd51eb8e9a3)" style="fill: none; stroke: #4c4c4c; stroke-width: 0.5"/>
   </g>
   <g id="line2d_83">
    <path d="M 107.272109 76.988311 
L 108.443909 76.988311 
" clip-path="url(#pd51eb8e9a3)" style="fill: none; stroke: #4c4c4c; stroke-width: 0.5"/>
   </g>
   <g id="line2d_84">
    <path d="M 121.62068 73.540549 
L 122.79248 73.540549 
" clip-path="url(#pd51eb8e9a3)" style="fill: none; stroke: #4c4c4c; stroke-width: 0.5"/>
   </g>
   <g id="line2d_85">
    <path d="M 135.969252 75.897292 
L 137.141052 75.897292 
" clip-path="url(#pd51eb8e9a3)" style="fill: none; stroke: #4c4c4c; stroke-width: 0.5"/>
   </g>
   <g id="line2d_86">
    <path d="M 67.574395 76.729788 
L 68.746195 76.729788 
" clip-path="url(#pd51eb8e9a3)" style="fill: none; stroke: #4c4c4c; stroke-width: 0.5"/>
   </g>
   <g id="line2d_87">
    <path d="M 81.922966 80.452653 
L 83.094766 80.452653 
" clip-path="url(#pd51eb8e9a3)" style="fill: none; stroke: #4c4c4c; stroke-width: 0.5"/>
   </g>
   <g id="line2d_88">
    <path d="M 96.271537 77.113958 
L 97.443337 77.113958 
" clip-path="url(#pd51eb8e9a3)" style="fill: none; stroke: #4c4c4c; stroke-width: 0.5"/>
   </g>
   <g id="line2d_89">
    <path d="M 110.620109 76.644188 
L 111.791909 76.644188 
" clip-path="url(#pd51eb8e9a3)" style="fill: none; stroke: #4c4c4c; stroke-width: 0.5"/>
   </g>
   <g id="line2d_90">
    <path d="M 124.96868 86.597766 
L 126.14048 86.597766 
" clip-path="url(#pd51eb8e9a3)" style="fill: none; stroke: #4c4c4c; stroke-width: 0.5"/>
   </g>
   <g id="line2d_91">
    <path d="M 139.317252 77.434126 
L 140.489052 77.434126 
" clip-path="url(#pd51eb8e9a3)" style="fill: none; stroke: #4c4c4c; stroke-width: 0.5"/>
   </g>
   <g id="patch_19">
    <path d="M 38.267437 120.624 
L 38.267437 37.464 
" style="fill: none; stroke: #000000; stroke-width: 0.5; stroke-linejoin: miter; stroke-linecap: square"/>
   </g>
   <g id="patch_20">
    <path d="M 43.289437 124.782 
L 143.729437 124.782 
" style="fill: none; stroke: #000000; stroke-width: 0.5; stroke-linejoin: miter; stroke-linecap: square"/>
   </g>
   <g id="legend_1">
    <g id="line2d_92">
     <path d="M 88.865437 12.059062 
L 100.865437 12.059062 
" style="fill: none; stroke-dasharray: 1.85,0.8; stroke-dashoffset: 0; stroke: #00b2ff; stroke-width: 0.5"/>
    </g>
    <g id="text_16">
     <!-- ground_truth -->
     <g transform="translate(105.665437 14.159062) scale(0.06 -0.06)">
      <defs>
       <path id="DejaVuSans-5f" d="M 3263 -1063 
L 3263 -1509 
L -63 -1509 
L -63 -1063 
L 3263 -1063 
z
" transform="scale(0.015625)"/>
      </defs>
      <use xlink:href="#DejaVuSans-67"/>
      <use xlink:href="#DejaVuSans-72" x="63.476562"/>
      <use xlink:href="#DejaVuSans-6f" x="102.339844"/>
      <use xlink:href="#DejaVuSans-75" x="163.521484"/>
      <use xlink:href="#DejaVuSans-6e" x="226.900391"/>
      <use xlink:href="#DejaVuSans-64" x="290.279297"/>
      <use xlink:href="#DejaVuSans-5f" x="353.755859"/>
      <use xlink:href="#DejaVuSans-74" x="403.755859"/>
      <use xlink:href="#DejaVuSans-72" x="442.964844"/>
      <use xlink:href="#DejaVuSans-75" x="484.078125"/>
      <use xlink:href="#DejaVuSans-74" x="547.457031"/>
      <use xlink:href="#DejaVuSans-68" x="586.666016"/>
     </g>
    </g>
    <g id="line2d_93">
     <path d="M 88.865437 21.032812 
L 100.865437 21.032812 
" style="fill: none; stroke-dasharray: 1.85,0.8; stroke-dashoffset: 0; stroke: #ff0000; stroke-width: 0.5"/>
    </g>
    <g id="text_17">
     <!-- good + merged + partial -->
     <g transform="translate(105.665437 23.132812) scale(0.06 -0.06)">
      <defs>
       <path id="DejaVuSans-2b" d="M 2944 4013 
L 2944 2272 
L 4684 2272 
L 4684 1741 
L 2944 1741 
L 2944 0 
L 2419 0 
L 2419 1741 
L 678 1741 
L 678 2272 
L 2419 2272 
L 2419 4013 
L 2944 4013 
z
" transform="scale(0.015625)"/>
       <path id="DejaVuSans-6d" d="M 3328 2828 
Q 3544 3216 3844 3400 
Q 4144 3584 4550 3584 
Q 5097 3584 5394 3201 
Q 5691 2819 5691 2113 
L 5691 0 
L 5113 0 
L 5113 2094 
Q 5113 2597 4934 2840 
Q 4756 3084 4391 3084 
Q 3944 3084 3684 2787 
Q 3425 2491 3425 1978 
L 3425 0 
L 2847 0 
L 2847 2094 
Q 2847 2600 2669 2842 
Q 2491 3084 2119 3084 
Q 1678 3084 1418 2786 
Q 1159 2488 1159 1978 
L 1159 0 
L 581 0 
L 581 3500 
L 1159 3500 
L 1159 2956 
Q 1356 3278 1631 3431 
Q 1906 3584 2284 3584 
Q 2666 3584 2933 3390 
Q 3200 3197 3328 2828 
z
" transform="scale(0.015625)"/>
      </defs>
      <use xlink:href="#DejaVuSans-67"/>
      <use xlink:href="#DejaVuSans-6f" x="63.476562"/>
      <use xlink:href="#DejaVuSans-6f" x="124.658203"/>
      <use xlink:href="#DejaVuSans-64" x="185.839844"/>
      <use xlink:href="#DejaVuSans-20" x="249.316406"/>
      <use xlink:href="#DejaVuSans-2b" x="281.103516"/>
      <use xlink:href="#DejaVuSans-20" x="364.892578"/>
      <use xlink:href="#DejaVuSans-6d" x="396.679688"/>
      <use xlink:href="#DejaVuSans-65" x="494.091797"/>
      <use xlink:href="#DejaVuSans-72" x="555.615234"/>
      <use xlink:href="#DejaVuSans-67" x="594.978516"/>
      <use xlink:href="#DejaVuSans-65" x="658.455078"/>
      <use xlink:href="#DejaVuSans-64" x="719.978516"/>
      <use xlink:href="#DejaVuSans-20" x="783.455078"/>
      <use xlink:href="#DejaVuSans-2b" x="815.242188"/>
      <use xlink:href="#DejaVuSans-20" x="899.03125"/>
      <use xlink:href="#DejaVuSans-70" x="930.818359"/>
      <use xlink:href="#DejaVuSans-61" x="994.294922"/>
      <use xlink:href="#DejaVuSans-72" x="1055.574219"/>
      <use xlink:href="#DejaVuSans-74" x="1096.6875"/>
      <use xlink:href="#DejaVuSans-69" x="1135.896484"/>
      <use xlink:href="#DejaVuSans-61" x="1163.679688"/>
      <use xlink:href="#DejaVuSans-6c" x="1224.958984"/>
     </g>
    </g>
    <g id="patch_21">
     <path d="M 88.865437 31.939687 
L 100.865437 31.939687 
L 100.865437 27.739687 
L 88.865437 27.739687 
z
" style="fill: #808080; stroke: #4c4c4c; stroke-width: 0.5; stroke-linejoin: miter"/>
    </g>
    <g id="text_18">
     <!-- merged + partial -->
     <g transform="translate(105.665437 31.939687) scale(0.06 -0.06)">
      <use xlink:href="#DejaVuSans-6d"/>
      <use xlink:href="#DejaVuSans-65" x="97.412109"/>
      <use xlink:href="#DejaVuSans-72" x="158.935547"/>
      <use xlink:href="#DejaVuSans-67" x="198.298828"/>
      <use xlink:href="#DejaVuSans-65" x="261.775391"/>
      <use xlink:href="#DejaVuSans-64" x="323.298828"/>
      <use xlink:href="#DejaVuSans-20" x="386.775391"/>
      <use xlink:href="#DejaVuSans-2b" x="418.5625"/>
      <use xlink:href="#DejaVuSans-20" x="502.351562"/>
      <use xlink:href="#DejaVuSans-70" x="534.138672"/>
      <use xlink:href="#DejaVuSans-61" x="597.615234"/>
      <use xlink:href="#DejaVuSans-72" x="658.894531"/>
      <use xlink:href="#DejaVuSans-74" x="700.007812"/>
      <use xlink:href="#DejaVuSans-69" x="739.216797"/>
      <use xlink:href="#DejaVuSans-61" x="767"/>
      <use xlink:href="#DejaVuSans-6c" x="828.279297"/>
     </g>
    </g>
   </g>
  </g>
 </g>
 <defs>
  <clipPath id="pd51eb8e9a3">
   <rect x="43.289437" y="37.464" width="100.44" height="83.16"/>
  </clipPath>
 </defs>
</svg>
