<?xml version="1.0" encoding="utf-8" standalone="no"?>
<!DOCTYPE svg PUBLIC "-//W3C//DTD SVG 1.1//EN"
  "http://www.w3.org/Graphics/SVG/1.1/DTD/svg11.dtd">
<svg xmlns:xlink="http://www.w3.org/1999/xlink" width="148.02825pt" height="112.093232pt" viewBox="0 0 148.02825 112.093232" xmlns="http://www.w3.org/2000/svg" version="1.1">
 <metadata>
  <rdf:RDF xmlns:dc="http://purl.org/dc/elements/1.1/" xmlns:cc="http://creativecommons.org/ns#" xmlns:rdf="http://www.w3.org/1999/02/22-rdf-syntax-ns#">
   <cc:Work>
    <dc:type rdf:resource="http://purl.org/dc/dcmitype/StillImage"/>
    <dc:date>2024-10-22T10:00:16.933049</dc:date>
    <dc:format>image/svg+xml</dc:format>
    <dc:creator>
     <cc:Agent>
      <dc:title>Matplotlib v3.8.0, https://matplotlib.org/</dc:title>
     </cc:Agent>
    </dc:creator>
   </cc:Work>
  </rdf:RDF>
 </metadata>
 <defs>
  <style type="text/css">*{stroke-linejoin: round; stroke-linecap: butt}</style>
 </defs>
 <g id="figure_1">
  <g id="patch_1">
   <path d="M 0 112.093232 
L 148.02825 112.093232 
L 148.02825 0 
L 0 0 
L 0 112.093232 
z
" style="fill: none"/>
  </g>
  <g id="axes_1">
   <g id="patch_2">
    <path d="M 40.38825 62.64 
L 140.82825 62.64 
L 140.82825 7.2 
L 40.38825 7.2 
L 40.38825 62.64 
z
" style="fill: none"/>
   </g>
   <g id="matplotlib.axis_1">
    <g id="xtick_1">
     <g id="line2d_1">
      <defs>
       <path id="m127d6ebf64" d="M 0 0 
L 0 1.5 
" style="stroke: #000000; stroke-width: 0.3"/>
      </defs>
      <g>
       <use xlink:href="#m127d6ebf64" x="47.562536" y="65.412" style="stroke: #000000; stroke-width: 0.3"/>
      </g>
     </g>
     <g id="text_1">
      <!-- ground_truth -->
      <g transform="translate(31.460322 93.861201) rotate(-30) scale(0.06 -0.06)">
       <defs>
        <path id="DejaVuSans-67" d="M 2906 1791 
Q 2906 2416 2648 2759 
Q 2391 3103 1925 3103 
Q 1463 3103 1205 2759 
Q 947 2416 947 1791 
Q 947 1169 1205 825 
Q 1463 481 1925 481 
Q 2391 481 2648 825 
Q 2906 1169 2906 1791 
z
M 3481 434 
Q 3481 -459 3084 -895 
Q 2688 -1331 1869 -1331 
Q 1566 -1331 1297 -1286 
Q 1028 -1241 775 -1147 
L 775 -588 
Q 1028 -725 1275 -790 
Q 1522 -856 1778 -856 
Q 2344 -856 2625 -561 
Q 2906 -266 2906 331 
L 2906 616 
Q 2728 306 2450 153 
Q 2172 0 1784 0 
Q 1141 0 747 490 
Q 353 981 353 1791 
Q 353 2603 747 3093 
Q 1141 3584 1784 3584 
Q 2172 3584 2450 3431 
Q 2728 3278 2906 2969 
L 2906 3500 
L 3481 3500 
L 3481 434 
z
" transform="scale(0.015625)"/>
        <path id="DejaVuSans-72" d="M 2631 2963 
Q 2534 3019 2420 3045 
Q 2306 3072 2169 3072 
Q 1681 3072 1420 2755 
Q 1159 2438 1159 1844 
L 1159 0 
L 581 0 
L 581 3500 
L 1159 3500 
L 1159 2956 
Q 1341 3275 1631 3429 
Q 1922 3584 2338 3584 
Q 2397 3584 2469 3576 
Q 2541 3569 2628 3553 
L 2631 2963 
z
" transform="scale(0.015625)"/>
        <path id="DejaVuSans-6f" d="M 1959 3097 
Q 1497 3097 1228 2736 
Q 959 2375 959 1747 
Q 959 1119 1226 758 
Q 1494 397 1959 397 
Q 2419 397 2687 759 
Q 2956 1122 2956 1747 
Q 2956 2369 2687 2733 
Q 2419 3097 1959 3097 
z
M 1959 3584 
Q 2709 3584 3137 3096 
Q 3566 2609 3566 1747 
Q 3566 888 3137 398 
Q 2709 -91 1959 -91 
Q 1206 -91 779 398 
Q 353 888 353 1747 
Q 353 2609 779 3096 
Q 1206 3584 1959 3584 
z
" transform="scale(0.015625)"/>
        <path id="DejaVuSans-75" d="M 544 1381 
L 544 3500 
L 1119 3500 
L 1119 1403 
Q 1119 906 1312 657 
Q 1506 409 1894 409 
Q 2359 409 2629 706 
Q 2900 1003 2900 1516 
L 2900 3500 
L 3475 3500 
L 3475 0 
L 2900 0 
L 2900 538 
Q 2691 219 2414 64 
Q 2138 -91 1772 -91 
Q 1169 -91 856 284 
Q 544 659 544 1381 
z
M 1991 3584 
L 1991 3584 
z
" transform="scale(0.015625)"/>
        <path id="DejaVuSans-6e" d="M 3513 2113 
L 3513 0 
L 2938 0 
L 2938 2094 
Q 2938 2591 2744 2837 
Q 2550 3084 2163 3084 
Q 1697 3084 1428 2787 
Q 1159 2491 1159 1978 
L 1159 0 
L 581 0 
L 581 3500 
L 1159 3500 
L 1159 2956 
Q 1366 3272 1645 3428 
Q 1925 3584 2291 3584 
Q 2894 3584 3203 3211 
Q 3513 2838 3513 2113 
z
" transform="scale(0.015625)"/>
        <path id="DejaVuSans-64" d="M 2906 2969 
L 2906 4863 
L 3481 4863 
L 3481 0 
L 2906 0 
L 2906 525 
Q 2725 213 2448 61 
Q 2172 -91 1784 -91 
Q 1150 -91 751 415 
Q 353 922 353 1747 
Q 353 2572 751 3078 
Q 1150 3584 1784 3584 
Q 2172 3584 2448 3432 
Q 2725 3281 2906 2969 
z
M 947 1747 
Q 947 1113 1208 752 
Q 1469 391 1925 391 
Q 2381 391 2643 752 
Q 2906 1113 2906 1747 
Q 2906 2381 2643 2742 
Q 2381 3103 1925 3103 
Q 1469 3103 1208 2742 
Q 947 2381 947 1747 
z
" transform="scale(0.015625)"/>
        <path id="DejaVuSans-5f" d="M 3263 -1063 
L 3263 -1509 
L -63 -1509 
L -63 -1063 
L 3263 -1063 
z
" transform="scale(0.015625)"/>
        <path id="DejaVuSans-74" d="M 1172 4494 
L 1172 3500 
L 2356 3500 
L 2356 3053 
L 1172 3053 
L 1172 1153 
Q 1172 725 1289 603 
Q 1406 481 1766 481 
L 2356 481 
L 2356 0 
L 1766 0 
Q 1100 0 847 248 
Q 594 497 594 1153 
L 594 3053 
L 172 3053 
L 172 3500 
L 594 3500 
L 594 4494 
L 1172 4494 
z
" transform="scale(0.015625)"/>
        <path id="DejaVuSans-68" d="M 3513 2113 
L 3513 0 
L 2938 0 
L 2938 2094 
Q 2938 2591 2744 2837 
Q 2550 3084 2163 3084 
Q 1697 3084 1428 2787 
Q 1159 2491 1159 1978 
L 1159 0 
L 581 0 
L 581 4863 
L 1159 4863 
L 1159 2956 
Q 1366 3272 1645 3428 
Q 1925 3584 2291 3584 
Q 2894 3584 3203 3211 
Q 3513 2838 3513 2113 
z
" transform="scale(0.015625)"/>
       </defs>
       <use xlink:href="#DejaVuSans-67"/>
       <use xlink:href="#DejaVuSans-72" x="63.476562"/>
       <use xlink:href="#DejaVuSans-6f" x="102.339844"/>
       <use xlink:href="#DejaVuSans-75" x="163.521484"/>
       <use xlink:href="#DejaVuSans-6e" x="226.900391"/>
       <use xlink:href="#DejaVuSans-64" x="290.279297"/>
       <use xlink:href="#DejaVuSans-5f" x="353.755859"/>
       <use xlink:href="#DejaVuSans-74" x="403.755859"/>
       <use xlink:href="#DejaVuSans-72" x="442.964844"/>
       <use xlink:href="#DejaVuSans-75" x="484.078125"/>
       <use xlink:href="#DejaVuSans-74" x="547.457031"/>
       <use xlink:href="#DejaVuSans-68" x="586.666016"/>
      </g>
     </g>
    </g>
    <g id="xtick_2">
     <g id="line2d_2">
      <g>
       <use xlink:href="#m127d6ebf64" x="61.911107" y="65.412" style="stroke: #000000; stroke-width: 0.3"/>
      </g>
     </g>
     <g id="text_2">
      <!-- KS4 -->
      <g transform="translate(57.732752 80.140889) rotate(-30) scale(0.06 -0.06)">
       <defs>
        <path id="DejaVuSans-4b" d="M 628 4666 
L 1259 4666 
L 1259 2694 
L 3353 4666 
L 4166 4666 
L 1850 2491 
L 4331 0 
L 3500 0 
L 1259 2247 
L 1259 0 
L 628 0 
L 628 4666 
z
" transform="scale(0.015625)"/>
        <path id="DejaVuSans-53" d="M 3425 4513 
L 3425 3897 
Q 3066 4069 2747 4153 
Q 2428 4238 2131 4238 
Q 1616 4238 1336 4038 
Q 1056 3838 1056 3469 
Q 1056 3159 1242 3001 
Q 1428 2844 1947 2747 
L 2328 2669 
Q 3034 2534 3370 2195 
Q 3706 1856 3706 1288 
Q 3706 609 3251 259 
Q 2797 -91 1919 -91 
Q 1588 -91 1214 -16 
Q 841 59 441 206 
L 441 856 
Q 825 641 1194 531 
Q 1563 422 1919 422 
Q 2459 422 2753 634 
Q 3047 847 3047 1241 
Q 3047 1584 2836 1778 
Q 2625 1972 2144 2069 
L 1759 2144 
Q 1053 2284 737 2584 
Q 422 2884 422 3419 
Q 422 4038 858 4394 
Q 1294 4750 2059 4750 
Q 2388 4750 2728 4690 
Q 3069 4631 3425 4513 
z
" transform="scale(0.015625)"/>
        <path id="DejaVuSans-34" d="M 2419 4116 
L 825 1625 
L 2419 1625 
L 2419 4116 
z
M 2253 4666 
L 3047 4666 
L 3047 1625 
L 3713 1625 
L 3713 1100 
L 3047 1100 
L 3047 0 
L 2419 0 
L 2419 1100 
L 313 1100 
L 313 1709 
L 2253 4666 
z
" transform="scale(0.015625)"/>
       </defs>
       <use xlink:href="#DejaVuSans-4b"/>
       <use xlink:href="#DejaVuSans-53" x="65.576172"/>
       <use xlink:href="#DejaVuSans-34" x="129.052734"/>
      </g>
     </g>
    </g>
    <g id="xtick_3">
     <g id="line2d_3">
      <g>
       <use xlink:href="#m127d6ebf64" x="76.259679" y="65.412" style="stroke: #000000; stroke-width: 0.3"/>
      </g>
     </g>
     <g id="text_3">
      <!-- KS3 -->
      <g transform="translate(72.081323 80.140889) rotate(-30) scale(0.06 -0.06)">
       <defs>
        <path id="DejaVuSans-33" d="M 2597 2516 
Q 3050 2419 3304 2112 
Q 3559 1806 3559 1356 
Q 3559 666 3084 287 
Q 2609 -91 1734 -91 
Q 1441 -91 1130 -33 
Q 819 25 488 141 
L 488 750 
Q 750 597 1062 519 
Q 1375 441 1716 441 
Q 2309 441 2620 675 
Q 2931 909 2931 1356 
Q 2931 1769 2642 2001 
Q 2353 2234 1838 2234 
L 1294 2234 
L 1294 2753 
L 1863 2753 
Q 2328 2753 2575 2939 
Q 2822 3125 2822 3475 
Q 2822 3834 2567 4026 
Q 2313 4219 1838 4219 
Q 1578 4219 1281 4162 
Q 984 4106 628 3988 
L 628 4550 
Q 988 4650 1302 4700 
Q 1616 4750 1894 4750 
Q 2613 4750 3031 4423 
Q 3450 4097 3450 3541 
Q 3450 3153 3228 2886 
Q 3006 2619 2597 2516 
z
" transform="scale(0.015625)"/>
       </defs>
       <use xlink:href="#DejaVuSans-4b"/>
       <use xlink:href="#DejaVuSans-53" x="65.576172"/>
       <use xlink:href="#DejaVuSans-33" x="129.052734"/>
      </g>
     </g>
    </g>
    <g id="xtick_4">
     <g id="line2d_4">
      <g>
       <use xlink:href="#m127d6ebf64" x="90.60825" y="65.412" style="stroke: #000000; stroke-width: 0.3"/>
      </g>
     </g>
     <g id="text_4">
      <!-- KS2.5 -->
      <g transform="translate(83.951167 83.003076) rotate(-30) scale(0.06 -0.06)">
       <defs>
        <path id="DejaVuSans-32" d="M 1228 531 
L 3431 531 
L 3431 0 
L 469 0 
L 469 531 
Q 828 903 1448 1529 
Q 2069 2156 2228 2338 
Q 2531 2678 2651 2914 
Q 2772 3150 2772 3378 
Q 2772 3750 2511 3984 
Q 2250 4219 1831 4219 
Q 1534 4219 1204 4116 
Q 875 4013 500 3803 
L 500 4441 
Q 881 4594 1212 4672 
Q 1544 4750 1819 4750 
Q 2544 4750 2975 4387 
Q 3406 4025 3406 3419 
Q 3406 3131 3298 2873 
Q 3191 2616 2906 2266 
Q 2828 2175 2409 1742 
Q 1991 1309 1228 531 
z
" transform="scale(0.015625)"/>
        <path id="DejaVuSans-2e" d="M 684 794 
L 1344 794 
L 1344 0 
L 684 0 
L 684 794 
z
" transform="scale(0.015625)"/>
        <path id="DejaVuSans-35" d="M 691 4666 
L 3169 4666 
L 3169 4134 
L 1269 4134 
L 1269 2991 
Q 1406 3038 1543 3061 
Q 1681 3084 1819 3084 
Q 2600 3084 3056 2656 
Q 3513 2228 3513 1497 
Q 3513 744 3044 326 
Q 2575 -91 1722 -91 
Q 1428 -91 1123 -41 
Q 819 9 494 109 
L 494 744 
Q 775 591 1075 516 
Q 1375 441 1709 441 
Q 2250 441 2565 725 
Q 2881 1009 2881 1497 
Q 2881 1984 2565 2268 
Q 2250 2553 1709 2553 
Q 1456 2553 1204 2497 
Q 953 2441 691 2322 
L 691 4666 
z
" transform="scale(0.015625)"/>
       </defs>
       <use xlink:href="#DejaVuSans-4b"/>
       <use xlink:href="#DejaVuSans-53" x="65.576172"/>
       <use xlink:href="#DejaVuSans-32" x="129.052734"/>
       <use xlink:href="#DejaVuSans-2e" x="192.675781"/>
       <use xlink:href="#DejaVuSans-35" x="224.462891"/>
      </g>
     </g>
    </g>
    <g id="xtick_5">
     <g id="line2d_5">
      <g>
       <use xlink:href="#m127d6ebf64" x="104.956821" y="65.412" style="stroke: #000000; stroke-width: 0.3"/>
      </g>
     </g>
     <g id="text_5">
      <!-- KS2 -->
      <g transform="translate(100.778466 80.140889) rotate(-30) scale(0.06 -0.06)">
       <use xlink:href="#DejaVuSans-4b"/>
       <use xlink:href="#DejaVuSans-53" x="65.576172"/>
       <use xlink:href="#DejaVuSans-32" x="129.052734"/>
      </g>
     </g>
    </g>
    <g id="xtick_6">
     <g id="line2d_6">
      <g>
       <use xlink:href="#m127d6ebf64" x="119.305393" y="65.412" style="stroke: #000000; stroke-width: 0.3"/>
      </g>
     </g>
     <g id="text_6">
      <!-- KS -->
      <g transform="translate(116.780063 78.232139) rotate(-30) scale(0.06 -0.06)">
       <use xlink:href="#DejaVuSans-4b"/>
       <use xlink:href="#DejaVuSans-53" x="65.576172"/>
      </g>
     </g>
    </g>
    <g id="xtick_7">
     <g id="line2d_7">
      <g>
       <use xlink:href="#m127d6ebf64" x="133.653964" y="65.412" style="stroke: #000000; stroke-width: 0.3"/>
      </g>
     </g>
     <g id="text_7">
      <!-- HS -->
      <g transform="translate(130.87857 78.520889) rotate(-30) scale(0.06 -0.06)">
       <defs>
        <path id="DejaVuSans-48" d="M 628 4666 
L 1259 4666 
L 1259 2753 
L 3553 2753 
L 3553 4666 
L 4184 4666 
L 4184 0 
L 3553 0 
L 3553 2222 
L 1259 2222 
L 1259 0 
L 628 0 
L 628 4666 
z
" transform="scale(0.015625)"/>
       </defs>
       <use xlink:href="#DejaVuSans-48"/>
       <use xlink:href="#DejaVuSans-53" x="75.195312"/>
      </g>
     </g>
    </g>
    <g id="text_8">
     <!-- Spike sorter -->
     <g transform="translate(72.650906 103.645419) scale(0.06 -0.06)">
      <defs>
       <path id="DejaVuSans-70" d="M 1159 525 
L 1159 -1331 
L 581 -1331 
L 581 3500 
L 1159 3500 
L 1159 2969 
Q 1341 3281 1617 3432 
Q 1894 3584 2278 3584 
Q 2916 3584 3314 3078 
Q 3713 2572 3713 1747 
Q 3713 922 3314 415 
Q 2916 -91 2278 -91 
Q 1894 -91 1617 61 
Q 1341 213 1159 525 
z
M 3116 1747 
Q 3116 2381 2855 2742 
Q 2594 3103 2138 3103 
Q 1681 3103 1420 2742 
Q 1159 2381 1159 1747 
Q 1159 1113 1420 752 
Q 1681 391 2138 391 
Q 2594 391 2855 752 
Q 3116 1113 3116 1747 
z
" transform="scale(0.015625)"/>
       <path id="DejaVuSans-69" d="M 603 3500 
L 1178 3500 
L 1178 0 
L 603 0 
L 603 3500 
z
M 603 4863 
L 1178 4863 
L 1178 4134 
L 603 4134 
L 603 4863 
z
" transform="scale(0.015625)"/>
       <path id="DejaVuSans-6b" d="M 581 4863 
L 1159 4863 
L 1159 1991 
L 2875 3500 
L 3609 3500 
L 1753 1863 
L 3688 0 
L 2938 0 
L 1159 1709 
L 1159 0 
L 581 0 
L 581 4863 
z
" transform="scale(0.015625)"/>
       <path id="DejaVuSans-65" d="M 3597 1894 
L 3597 1613 
L 953 1613 
Q 991 1019 1311 708 
Q 1631 397 2203 397 
Q 2534 397 2845 478 
Q 3156 559 3463 722 
L 3463 178 
Q 3153 47 2828 -22 
Q 2503 -91 2169 -91 
Q 1331 -91 842 396 
Q 353 884 353 1716 
Q 353 2575 817 3079 
Q 1281 3584 2069 3584 
Q 2775 3584 3186 3129 
Q 3597 2675 3597 1894 
z
M 3022 2063 
Q 3016 2534 2758 2815 
Q 2500 3097 2075 3097 
Q 1594 3097 1305 2825 
Q 1016 2553 972 2059 
L 3022 2063 
z
" transform="scale(0.015625)"/>
       <path id="DejaVuSans-20" transform="scale(0.015625)"/>
       <path id="DejaVuSans-73" d="M 2834 3397 
L 2834 2853 
Q 2591 2978 2328 3040 
Q 2066 3103 1784 3103 
Q 1356 3103 1142 2972 
Q 928 2841 928 2578 
Q 928 2378 1081 2264 
Q 1234 2150 1697 2047 
L 1894 2003 
Q 2506 1872 2764 1633 
Q 3022 1394 3022 966 
Q 3022 478 2636 193 
Q 2250 -91 1575 -91 
Q 1294 -91 989 -36 
Q 684 19 347 128 
L 347 722 
Q 666 556 975 473 
Q 1284 391 1588 391 
Q 1994 391 2212 530 
Q 2431 669 2431 922 
Q 2431 1156 2273 1281 
Q 2116 1406 1581 1522 
L 1381 1569 
Q 847 1681 609 1914 
Q 372 2147 372 2553 
Q 372 3047 722 3315 
Q 1072 3584 1716 3584 
Q 2034 3584 2315 3537 
Q 2597 3491 2834 3397 
z
" transform="scale(0.015625)"/>
      </defs>
      <use xlink:href="#DejaVuSans-53"/>
      <use xlink:href="#DejaVuSans-70" x="63.476562"/>
      <use xlink:href="#DejaVuSans-69" x="126.953125"/>
      <use xlink:href="#DejaVuSans-6b" x="154.736328"/>
      <use xlink:href="#DejaVuSans-65" x="209.021484"/>
      <use xlink:href="#DejaVuSans-20" x="270.544922"/>
      <use xlink:href="#DejaVuSans-73" x="302.332031"/>
      <use xlink:href="#DejaVuSans-6f" x="354.431641"/>
      <use xlink:href="#DejaVuSans-72" x="415.613281"/>
      <use xlink:href="#DejaVuSans-74" x="456.726562"/>
      <use xlink:href="#DejaVuSans-65" x="495.935547"/>
      <use xlink:href="#DejaVuSans-72" x="557.458984"/>
     </g>
    </g>
   </g>
   <g id="matplotlib.axis_2">
    <g id="ytick_1">
     <g id="line2d_8">
      <defs>
       <path id="m3165b309e5" d="M 0 0 
L -1.5 0 
" style="stroke: #000000; stroke-width: 0.3"/>
      </defs>
      <g>
       <use xlink:href="#m3165b309e5" x="35.36625" y="49.749778" style="stroke: #000000; stroke-width: 0.3"/>
      </g>
     </g>
     <g id="text_9">
      <!-- 0.14 -->
      <g transform="translate(17.006875 52.029309) scale(0.06 -0.06)">
       <defs>
        <path id="DejaVuSans-30" d="M 2034 4250 
Q 1547 4250 1301 3770 
Q 1056 3291 1056 2328 
Q 1056 1369 1301 889 
Q 1547 409 2034 409 
Q 2525 409 2770 889 
Q 3016 1369 3016 2328 
Q 3016 3291 2770 3770 
Q 2525 4250 2034 4250 
z
M 2034 4750 
Q 2819 4750 3233 4129 
Q 3647 3509 3647 2328 
Q 3647 1150 3233 529 
Q 2819 -91 2034 -91 
Q 1250 -91 836 529 
Q 422 1150 422 2328 
Q 422 3509 836 4129 
Q 1250 4750 2034 4750 
z
" transform="scale(0.015625)"/>
        <path id="DejaVuSans-31" d="M 794 531 
L 1825 531 
L 1825 4091 
L 703 3866 
L 703 4441 
L 1819 4666 
L 2450 4666 
L 2450 531 
L 3481 531 
L 3481 0 
L 794 0 
L 794 531 
z
" transform="scale(0.015625)"/>
       </defs>
       <use xlink:href="#DejaVuSans-30"/>
       <use xlink:href="#DejaVuSans-2e" x="63.623047"/>
       <use xlink:href="#DejaVuSans-31" x="95.410156"/>
       <use xlink:href="#DejaVuSans-34" x="159.033203"/>
      </g>
     </g>
    </g>
    <g id="ytick_2">
     <g id="line2d_9">
      <g>
       <use xlink:href="#m3165b309e5" x="35.36625" y="24.827184" style="stroke: #000000; stroke-width: 0.3"/>
      </g>
     </g>
     <g id="text_10">
      <!-- 0.15 -->
      <g transform="translate(17.006875 27.106715) scale(0.06 -0.06)">
       <use xlink:href="#DejaVuSans-30"/>
       <use xlink:href="#DejaVuSans-2e" x="63.623047"/>
       <use xlink:href="#DejaVuSans-31" x="95.410156"/>
       <use xlink:href="#DejaVuSans-35" x="159.033203"/>
      </g>
     </g>
    </g>
    <g id="text_11">
     <!-- Center correlation -->
     <g transform="translate(11.759062 62.066719) rotate(-90) scale(0.06 -0.06)">
      <defs>
       <path id="DejaVuSans-43" d="M 4122 4306 
L 4122 3641 
Q 3803 3938 3442 4084 
Q 3081 4231 2675 4231 
Q 1875 4231 1450 3742 
Q 1025 3253 1025 2328 
Q 1025 1406 1450 917 
Q 1875 428 2675 428 
Q 3081 428 3442 575 
Q 3803 722 4122 1019 
L 4122 359 
Q 3791 134 3420 21 
Q 3050 -91 2638 -91 
Q 1578 -91 968 557 
Q 359 1206 359 2328 
Q 359 3453 968 4101 
Q 1578 4750 2638 4750 
Q 3056 4750 3426 4639 
Q 3797 4528 4122 4306 
z
" transform="scale(0.015625)"/>
       <path id="DejaVuSans-63" d="M 3122 3366 
L 3122 2828 
Q 2878 2963 2633 3030 
Q 2388 3097 2138 3097 
Q 1578 3097 1268 2742 
Q 959 2388 959 1747 
Q 959 1106 1268 751 
Q 1578 397 2138 397 
Q 2388 397 2633 464 
Q 2878 531 3122 666 
L 3122 134 
Q 2881 22 2623 -34 
Q 2366 -91 2075 -91 
Q 1284 -91 818 406 
Q 353 903 353 1747 
Q 353 2603 823 3093 
Q 1294 3584 2113 3584 
Q 2378 3584 2631 3529 
Q 2884 3475 3122 3366 
z
" transform="scale(0.015625)"/>
       <path id="DejaVuSans-6c" d="M 603 4863 
L 1178 4863 
L 1178 0 
L 603 0 
L 603 4863 
z
" transform="scale(0.015625)"/>
       <path id="DejaVuSans-61" d="M 2194 1759 
Q 1497 1759 1228 1600 
Q 959 1441 959 1056 
Q 959 750 1161 570 
Q 1363 391 1709 391 
Q 2188 391 2477 730 
Q 2766 1069 2766 1631 
L 2766 1759 
L 2194 1759 
z
M 3341 1997 
L 3341 0 
L 2766 0 
L 2766 531 
Q 2569 213 2275 61 
Q 1981 -91 1556 -91 
Q 1019 -91 701 211 
Q 384 513 384 1019 
Q 384 1609 779 1909 
Q 1175 2209 1959 2209 
L 2766 2209 
L 2766 2266 
Q 2766 2663 2505 2880 
Q 2244 3097 1772 3097 
Q 1472 3097 1187 3025 
Q 903 2953 641 2809 
L 641 3341 
Q 956 3463 1253 3523 
Q 1550 3584 1831 3584 
Q 2591 3584 2966 3190 
Q 3341 2797 3341 1997 
z
" transform="scale(0.015625)"/>
      </defs>
      <use xlink:href="#DejaVuSans-43"/>
      <use xlink:href="#DejaVuSans-65" x="69.824219"/>
      <use xlink:href="#DejaVuSans-6e" x="131.347656"/>
      <use xlink:href="#DejaVuSans-74" x="194.726562"/>
      <use xlink:href="#DejaVuSans-65" x="233.935547"/>
      <use xlink:href="#DejaVuSans-72" x="295.458984"/>
      <use xlink:href="#DejaVuSans-20" x="336.572266"/>
      <use xlink:href="#DejaVuSans-63" x="368.359375"/>
      <use xlink:href="#DejaVuSans-6f" x="423.339844"/>
      <use xlink:href="#DejaVuSans-72" x="484.521484"/>
      <use xlink:href="#DejaVuSans-72" x="523.884766"/>
      <use xlink:href="#DejaVuSans-65" x="562.748047"/>
      <use xlink:href="#DejaVuSans-6c" x="624.271484"/>
      <use xlink:href="#DejaVuSans-61" x="652.054688"/>
      <use xlink:href="#DejaVuSans-74" x="713.333984"/>
      <use xlink:href="#DejaVuSans-69" x="752.542969"/>
      <use xlink:href="#DejaVuSans-6f" x="780.326172"/>
      <use xlink:href="#DejaVuSans-6e" x="841.507812"/>
     </g>
    </g>
   </g>
   <g id="LineCollection_1">
    <path clip-path="url(#p66d2fe77cc)" style="fill: none; stroke-dasharray: 1.85,0.8; stroke-dashoffset: 0; stroke: #ff0000; stroke-width: 0.5"/>
   </g>
   <g id="patch_3">
    <path d="M 44.047136 51.257546 
L 51.077936 51.257546 
L 51.077936 49.153456 
L 49.320236 48.065778 
L 51.077936 46.978099 
L 51.077936 41.460032 
L 44.047136 41.460032 
L 44.047136 46.978099 
L 45.804836 48.065778 
L 44.047136 49.153456 
L 44.047136 51.257546 
z
" clip-path="url(#p66d2fe77cc)" style="fill: #ffffff; stroke: #999999; stroke-width: 0.5; stroke-linejoin: miter"/>
   </g>
   <g id="line2d_10">
    <path d="M 47.562536 51.257546 
L 47.562536 60.12 
" clip-path="url(#p66d2fe77cc)" style="fill: none; stroke: #999999; stroke-width: 0.5"/>
   </g>
   <g id="line2d_11">
    <path d="M 47.562536 41.460032 
L 47.562536 27.093934 
" clip-path="url(#p66d2fe77cc)" style="fill: none; stroke: #999999; stroke-width: 0.5"/>
   </g>
   <g id="line2d_12">
    <path d="M 45.804836 60.12 
L 49.320236 60.12 
" clip-path="url(#p66d2fe77cc)" style="fill: none; stroke: #999999; stroke-width: 0.5; stroke-linecap: square"/>
   </g>
   <g id="line2d_13">
    <path d="M 45.804836 27.093934 
L 49.320236 27.093934 
" clip-path="url(#p66d2fe77cc)" style="fill: none; stroke: #999999; stroke-width: 0.5; stroke-linecap: square"/>
   </g>
   <g id="line2d_14">
    <defs>
     <path id="m8534678eef" d="M 0 0.75 
C 0.198902 0.75 0.389685 0.670975 0.53033 0.53033 
C 0.670975 0.389685 0.75 0.198902 0.75 0 
C 0.75 -0.198902 0.670975 -0.389685 0.53033 -0.53033 
C 0.389685 -0.670975 0.198902 -0.75 0 -0.75 
C -0.198902 -0.75 -0.389685 -0.670975 -0.53033 -0.53033 
C -0.670975 -0.389685 -0.75 -0.198902 -0.75 0 
C -0.75 0.198902 -0.670975 0.389685 -0.53033 0.53033 
C -0.389685 0.670975 -0.198902 0.75 0 0.75 
z
" style="stroke: #999999; stroke-width: 0.5"/>
    </defs>
    <g clip-path="url(#p66d2fe77cc)">
     <use xlink:href="#m8534678eef" x="47.562536" y="25.18444" style="fill: #ffffff; stroke: #999999; stroke-width: 0.5"/>
     <use xlink:href="#m8534678eef" x="47.562536" y="25.001844" style="fill: #ffffff; stroke: #999999; stroke-width: 0.5"/>
     <use xlink:href="#m8534678eef" x="47.562536" y="23.364595" style="fill: #ffffff; stroke: #999999; stroke-width: 0.5"/>
     <use xlink:href="#m8534678eef" x="47.562536" y="13.719416" style="fill: #ffffff; stroke: #999999; stroke-width: 0.5"/>
    </g>
   </g>
   <g id="patch_4">
    <path d="M 58.395707 49.209433 
L 65.426507 49.209433 
L 65.426507 47.36004 
L 63.668807 46.512278 
L 65.426507 45.664516 
L 65.426507 41.573022 
L 58.395707 41.573022 
L 58.395707 45.664516 
L 60.153407 46.512278 
L 58.395707 47.36004 
L 58.395707 49.209433 
z
" clip-path="url(#p66d2fe77cc)" style="fill: #ffffff; stroke: #999999; stroke-width: 0.5; stroke-linejoin: miter"/>
   </g>
   <g id="line2d_15">
    <path d="M 61.911107 49.209433 
L 61.911107 53.622239 
" clip-path="url(#p66d2fe77cc)" style="fill: none; stroke: #999999; stroke-width: 0.5"/>
   </g>
   <g id="line2d_16">
    <path d="M 61.911107 41.573022 
L 61.911107 30.29621 
" clip-path="url(#p66d2fe77cc)" style="fill: none; stroke: #999999; stroke-width: 0.5"/>
   </g>
   <g id="line2d_17">
    <path d="M 60.153407 53.622239 
L 63.668807 53.622239 
" clip-path="url(#p66d2fe77cc)" style="fill: none; stroke: #999999; stroke-width: 0.5; stroke-linecap: square"/>
   </g>
   <g id="line2d_18">
    <path d="M 60.153407 30.29621 
L 63.668807 30.29621 
" clip-path="url(#p66d2fe77cc)" style="fill: none; stroke: #999999; stroke-width: 0.5; stroke-linecap: square"/>
   </g>
   <g id="line2d_19">
    <g clip-path="url(#p66d2fe77cc)">
     <use xlink:href="#m8534678eef" x="61.911107" y="30.109418" style="fill: #ffffff; stroke: #999999; stroke-width: 0.5"/>
     <use xlink:href="#m8534678eef" x="61.911107" y="25.486863" style="fill: #ffffff; stroke: #999999; stroke-width: 0.5"/>
     <use xlink:href="#m8534678eef" x="61.911107" y="20.238325" style="fill: #ffffff; stroke: #999999; stroke-width: 0.5"/>
     <use xlink:href="#m8534678eef" x="61.911107" y="10.781311" style="fill: #ffffff; stroke: #999999; stroke-width: 0.5"/>
     <use xlink:href="#m8534678eef" x="61.911107" y="25.516174" style="fill: #ffffff; stroke: #999999; stroke-width: 0.5"/>
     <use xlink:href="#m8534678eef" x="61.911107" y="29.900608" style="fill: #ffffff; stroke: #999999; stroke-width: 0.5"/>
    </g>
   </g>
   <g id="patch_5">
    <path d="M 72.744279 48.738753 
L 79.775079 48.738753 
L 79.775079 47.240865 
L 78.017379 46.465067 
L 79.775079 45.689269 
L 79.775079 41.750575 
L 72.744279 41.750575 
L 72.744279 45.689269 
L 74.501979 46.465067 
L 72.744279 47.240865 
L 72.744279 48.738753 
z
" clip-path="url(#p66d2fe77cc)" style="fill: #ffffff; stroke: #999999; stroke-width: 0.5; stroke-linejoin: miter"/>
   </g>
   <g id="line2d_20">
    <path d="M 76.259679 48.738753 
L 76.259679 55.328051 
" clip-path="url(#p66d2fe77cc)" style="fill: none; stroke: #999999; stroke-width: 0.5"/>
   </g>
   <g id="line2d_21">
    <path d="M 76.259679 41.750575 
L 76.259679 31.385252 
" clip-path="url(#p66d2fe77cc)" style="fill: none; stroke: #999999; stroke-width: 0.5"/>
   </g>
   <g id="line2d_22">
    <path d="M 74.501979 55.328051 
L 78.017379 55.328051 
" clip-path="url(#p66d2fe77cc)" style="fill: none; stroke: #999999; stroke-width: 0.5; stroke-linecap: square"/>
   </g>
   <g id="line2d_23">
    <path d="M 74.501979 31.385252 
L 78.017379 31.385252 
" clip-path="url(#p66d2fe77cc)" style="fill: none; stroke: #999999; stroke-width: 0.5; stroke-linecap: square"/>
   </g>
   <g id="line2d_24">
    <g clip-path="url(#p66d2fe77cc)">
     <use xlink:href="#m8534678eef" x="76.259679" y="25.100432" style="fill: #ffffff; stroke: #999999; stroke-width: 0.5"/>
     <use xlink:href="#m8534678eef" x="76.259679" y="23.522684" style="fill: #ffffff; stroke: #999999; stroke-width: 0.5"/>
     <use xlink:href="#m8534678eef" x="76.259679" y="28.690297" style="fill: #ffffff; stroke: #999999; stroke-width: 0.5"/>
     <use xlink:href="#m8534678eef" x="76.259679" y="24.330098" style="fill: #ffffff; stroke: #999999; stroke-width: 0.5"/>
     <use xlink:href="#m8534678eef" x="76.259679" y="28.978596" style="fill: #ffffff; stroke: #999999; stroke-width: 0.5"/>
     <use xlink:href="#m8534678eef" x="76.259679" y="25.406193" style="fill: #ffffff; stroke: #999999; stroke-width: 0.5"/>
     <use xlink:href="#m8534678eef" x="76.259679" y="25.10214" style="fill: #ffffff; stroke: #999999; stroke-width: 0.5"/>
     <use xlink:href="#m8534678eef" x="76.259679" y="19.808489" style="fill: #ffffff; stroke: #999999; stroke-width: 0.5"/>
     <use xlink:href="#m8534678eef" x="76.259679" y="29.827104" style="fill: #ffffff; stroke: #999999; stroke-width: 0.5"/>
     <use xlink:href="#m8534678eef" x="76.259679" y="29.370162" style="fill: #ffffff; stroke: #999999; stroke-width: 0.5"/>
     <use xlink:href="#m8534678eef" x="76.259679" y="24.215843" style="fill: #ffffff; stroke: #999999; stroke-width: 0.5"/>
     <use xlink:href="#m8534678eef" x="76.259679" y="28.683579" style="fill: #ffffff; stroke: #999999; stroke-width: 0.5"/>
    </g>
   </g>
   <g id="patch_6">
    <path d="M 87.09285 52.835398 
L 94.12365 52.835398 
L 94.12365 50.2006 
L 92.36595 48.858801 
L 94.12365 47.517002 
L 94.12365 40.748836 
L 87.09285 40.748836 
L 87.09285 47.517002 
L 88.85055 48.858801 
L 87.09285 50.2006 
L 87.09285 52.835398 
z
" clip-path="url(#p66d2fe77cc)" style="fill: #ffffff; stroke: #999999; stroke-width: 0.5; stroke-linejoin: miter"/>
   </g>
   <g id="line2d_25">
    <path d="M 90.60825 52.835398 
L 90.60825 59.941025 
" clip-path="url(#p66d2fe77cc)" style="fill: none; stroke: #999999; stroke-width: 0.5"/>
   </g>
   <g id="line2d_26">
    <path d="M 90.60825 40.748836 
L 90.60825 24.13006 
" clip-path="url(#p66d2fe77cc)" style="fill: none; stroke: #999999; stroke-width: 0.5"/>
   </g>
   <g id="line2d_27">
    <path d="M 88.85055 59.941025 
L 92.36595 59.941025 
" clip-path="url(#p66d2fe77cc)" style="fill: none; stroke: #999999; stroke-width: 0.5; stroke-linecap: square"/>
   </g>
   <g id="line2d_28">
    <path d="M 88.85055 24.13006 
L 92.36595 24.13006 
" clip-path="url(#p66d2fe77cc)" style="fill: none; stroke: #999999; stroke-width: 0.5; stroke-linecap: square"/>
   </g>
   <g id="line2d_29">
    <g clip-path="url(#p66d2fe77cc)">
     <use xlink:href="#m8534678eef" x="90.60825" y="16.432191" style="fill: #ffffff; stroke: #999999; stroke-width: 0.5"/>
     <use xlink:href="#m8534678eef" x="90.60825" y="15.459077" style="fill: #ffffff; stroke: #999999; stroke-width: 0.5"/>
     <use xlink:href="#m8534678eef" x="90.60825" y="10.771141" style="fill: #ffffff; stroke: #999999; stroke-width: 0.5"/>
     <use xlink:href="#m8534678eef" x="90.60825" y="12.579534" style="fill: #ffffff; stroke: #999999; stroke-width: 0.5"/>
    </g>
   </g>
   <g id="patch_7">
    <path d="M 101.441421 47.535505 
L 108.472221 47.535505 
L 108.472221 46.015435 
L 106.714521 45.389138 
L 108.472221 44.762841 
L 108.472221 41.893989 
L 101.441421 41.893989 
L 101.441421 44.762841 
L 103.199121 45.389138 
L 101.441421 46.015435 
L 101.441421 47.535505 
z
" clip-path="url(#p66d2fe77cc)" style="fill: #ffffff; stroke: #999999; stroke-width: 0.5; stroke-linejoin: miter"/>
   </g>
   <g id="line2d_30">
    <path d="M 104.956821 47.535505 
L 104.956821 52.25454 
" clip-path="url(#p66d2fe77cc)" style="fill: none; stroke: #999999; stroke-width: 0.5"/>
   </g>
   <g id="line2d_31">
    <path d="M 104.956821 41.893989 
L 104.956821 33.61071 
" clip-path="url(#p66d2fe77cc)" style="fill: none; stroke: #999999; stroke-width: 0.5"/>
   </g>
   <g id="line2d_32">
    <path d="M 103.199121 52.25454 
L 106.714521 52.25454 
" clip-path="url(#p66d2fe77cc)" style="fill: none; stroke: #999999; stroke-width: 0.5; stroke-linecap: square"/>
   </g>
   <g id="line2d_33">
    <path d="M 103.199121 33.61071 
L 106.714521 33.61071 
" clip-path="url(#p66d2fe77cc)" style="fill: none; stroke: #999999; stroke-width: 0.5; stroke-linecap: square"/>
   </g>
   <g id="line2d_34">
    <g clip-path="url(#p66d2fe77cc)">
     <use xlink:href="#m8534678eef" x="104.956821" y="30.757919" style="fill: #ffffff; stroke: #999999; stroke-width: 0.5"/>
     <use xlink:href="#m8534678eef" x="104.956821" y="24.490929" style="fill: #ffffff; stroke: #999999; stroke-width: 0.5"/>
     <use xlink:href="#m8534678eef" x="104.956821" y="30.197178" style="fill: #ffffff; stroke: #999999; stroke-width: 0.5"/>
     <use xlink:href="#m8534678eef" x="104.956821" y="28.427227" style="fill: #ffffff; stroke: #999999; stroke-width: 0.5"/>
     <use xlink:href="#m8534678eef" x="104.956821" y="21.896533" style="fill: #ffffff; stroke: #999999; stroke-width: 0.5"/>
     <use xlink:href="#m8534678eef" x="104.956821" y="32.554996" style="fill: #ffffff; stroke: #999999; stroke-width: 0.5"/>
     <use xlink:href="#m8534678eef" x="104.956821" y="32.164391" style="fill: #ffffff; stroke: #999999; stroke-width: 0.5"/>
     <use xlink:href="#m8534678eef" x="104.956821" y="33.230125" style="fill: #ffffff; stroke: #999999; stroke-width: 0.5"/>
     <use xlink:href="#m8534678eef" x="104.956821" y="32.94141" style="fill: #ffffff; stroke: #999999; stroke-width: 0.5"/>
     <use xlink:href="#m8534678eef" x="104.956821" y="24.945688" style="fill: #ffffff; stroke: #999999; stroke-width: 0.5"/>
     <use xlink:href="#m8534678eef" x="104.956821" y="26.21309" style="fill: #ffffff; stroke: #999999; stroke-width: 0.5"/>
     <use xlink:href="#m8534678eef" x="104.956821" y="28.114747" style="fill: #ffffff; stroke: #999999; stroke-width: 0.5"/>
    </g>
   </g>
   <g id="patch_8">
    <path d="M 115.789993 43.992733 
L 122.820793 43.992733 
L 122.820793 43.995495 
L 121.063093 43.422376 
L 122.820793 42.849257 
L 122.820793 38.830233 
L 115.789993 38.830233 
L 115.789993 42.849257 
L 117.547693 43.422376 
L 115.789993 43.995495 
L 115.789993 43.992733 
z
" clip-path="url(#p66d2fe77cc)" style="fill: #ffffff; stroke: #999999; stroke-width: 0.5; stroke-linejoin: miter"/>
   </g>
   <g id="line2d_35">
    <path d="M 119.305393 43.992733 
L 119.305393 46.587458 
" clip-path="url(#p66d2fe77cc)" style="fill: none; stroke: #999999; stroke-width: 0.5"/>
   </g>
   <g id="line2d_36">
    <path d="M 119.305393 38.830233 
L 119.305393 31.748917 
" clip-path="url(#p66d2fe77cc)" style="fill: none; stroke: #999999; stroke-width: 0.5"/>
   </g>
   <g id="line2d_37">
    <path d="M 117.547693 46.587458 
L 121.063093 46.587458 
" clip-path="url(#p66d2fe77cc)" style="fill: none; stroke: #999999; stroke-width: 0.5; stroke-linecap: square"/>
   </g>
   <g id="line2d_38">
    <path d="M 117.547693 31.748917 
L 121.063093 31.748917 
" clip-path="url(#p66d2fe77cc)" style="fill: none; stroke: #999999; stroke-width: 0.5; stroke-linecap: square"/>
   </g>
   <g id="line2d_39">
    <g clip-path="url(#p66d2fe77cc)">
     <use xlink:href="#m8534678eef" x="119.305393" y="29.046769" style="fill: #ffffff; stroke: #999999; stroke-width: 0.5"/>
     <use xlink:href="#m8534678eef" x="119.305393" y="24.566271" style="fill: #ffffff; stroke: #999999; stroke-width: 0.5"/>
     <use xlink:href="#m8534678eef" x="119.305393" y="20.847337" style="fill: #ffffff; stroke: #999999; stroke-width: 0.5"/>
     <use xlink:href="#m8534678eef" x="119.305393" y="29.170882" style="fill: #ffffff; stroke: #999999; stroke-width: 0.5"/>
     <use xlink:href="#m8534678eef" x="119.305393" y="24.310478" style="fill: #ffffff; stroke: #999999; stroke-width: 0.5"/>
     <use xlink:href="#m8534678eef" x="119.305393" y="25.828414" style="fill: #ffffff; stroke: #999999; stroke-width: 0.5"/>
     <use xlink:href="#m8534678eef" x="119.305393" y="26.397974" style="fill: #ffffff; stroke: #999999; stroke-width: 0.5"/>
     <use xlink:href="#m8534678eef" x="119.305393" y="15.898978" style="fill: #ffffff; stroke: #999999; stroke-width: 0.5"/>
     <use xlink:href="#m8534678eef" x="119.305393" y="25.973141" style="fill: #ffffff; stroke: #999999; stroke-width: 0.5"/>
     <use xlink:href="#m8534678eef" x="119.305393" y="28.591869" style="fill: #ffffff; stroke: #999999; stroke-width: 0.5"/>
     <use xlink:href="#m8534678eef" x="119.305393" y="29.477015" style="fill: #ffffff; stroke: #999999; stroke-width: 0.5"/>
     <use xlink:href="#m8534678eef" x="119.305393" y="25.96013" style="fill: #ffffff; stroke: #999999; stroke-width: 0.5"/>
     <use xlink:href="#m8534678eef" x="119.305393" y="29.4779" style="fill: #ffffff; stroke: #999999; stroke-width: 0.5"/>
     <use xlink:href="#m8534678eef" x="119.305393" y="20.305066" style="fill: #ffffff; stroke: #999999; stroke-width: 0.5"/>
     <use xlink:href="#m8534678eef" x="119.305393" y="31.023559" style="fill: #ffffff; stroke: #999999; stroke-width: 0.5"/>
    </g>
   </g>
   <g id="patch_9">
    <path d="M 130.138564 50.828618 
L 137.169364 50.828618 
L 137.169364 47.060256 
L 135.411664 45.836705 
L 137.169364 44.613153 
L 137.169364 39.807199 
L 130.138564 39.807199 
L 130.138564 44.613153 
L 131.896264 45.836705 
L 130.138564 47.060256 
L 130.138564 50.828618 
z
" clip-path="url(#p66d2fe77cc)" style="fill: #ffffff; stroke: #999999; stroke-width: 0.5; stroke-linejoin: miter"/>
   </g>
   <g id="line2d_40">
    <path d="M 133.653964 50.828618 
L 133.653964 58.649251 
" clip-path="url(#p66d2fe77cc)" style="fill: none; stroke: #999999; stroke-width: 0.5"/>
   </g>
   <g id="line2d_41">
    <path d="M 133.653964 39.807199 
L 133.653964 23.953055 
" clip-path="url(#p66d2fe77cc)" style="fill: none; stroke: #999999; stroke-width: 0.5"/>
   </g>
   <g id="line2d_42">
    <path d="M 131.896264 58.649251 
L 135.411664 58.649251 
" clip-path="url(#p66d2fe77cc)" style="fill: none; stroke: #999999; stroke-width: 0.5; stroke-linecap: square"/>
   </g>
   <g id="line2d_43">
    <path d="M 131.896264 23.953055 
L 135.411664 23.953055 
" clip-path="url(#p66d2fe77cc)" style="fill: none; stroke: #999999; stroke-width: 0.5; stroke-linecap: square"/>
   </g>
   <g id="line2d_44">
    <g clip-path="url(#p66d2fe77cc)">
     <use xlink:href="#m8534678eef" x="133.653964" y="21.408297" style="fill: #ffffff; stroke: #999999; stroke-width: 0.5"/>
     <use xlink:href="#m8534678eef" x="133.653964" y="9.72" style="fill: #ffffff; stroke: #999999; stroke-width: 0.5"/>
     <use xlink:href="#m8534678eef" x="133.653964" y="16.483261" style="fill: #ffffff; stroke: #999999; stroke-width: 0.5"/>
     <use xlink:href="#m8534678eef" x="133.653964" y="22.203258" style="fill: #ffffff; stroke: #999999; stroke-width: 0.5"/>
     <use xlink:href="#m8534678eef" x="133.653964" y="22.29693" style="fill: #ffffff; stroke: #999999; stroke-width: 0.5"/>
    </g>
   </g>
   <g id="line2d_45">
    <path d="M 45.804836 48.065778 
L 49.320236 48.065778 
" clip-path="url(#p66d2fe77cc)" style="fill: none; stroke: #999999; stroke-width: 0.5"/>
   </g>
   <g id="line2d_46">
    <path d="M 60.153407 46.512278 
L 63.668807 46.512278 
" clip-path="url(#p66d2fe77cc)" style="fill: none; stroke: #999999; stroke-width: 0.5"/>
   </g>
   <g id="line2d_47">
    <path d="M 74.501979 46.465067 
L 78.017379 46.465067 
" clip-path="url(#p66d2fe77cc)" style="fill: none; stroke: #999999; stroke-width: 0.5"/>
   </g>
   <g id="line2d_48">
    <path d="M 88.85055 48.858801 
L 92.36595 48.858801 
" clip-path="url(#p66d2fe77cc)" style="fill: none; stroke: #999999; stroke-width: 0.5"/>
   </g>
   <g id="line2d_49">
    <path d="M 103.199121 45.389138 
L 106.714521 45.389138 
" clip-path="url(#p66d2fe77cc)" style="fill: none; stroke: #999999; stroke-width: 0.5"/>
   </g>
   <g id="line2d_50">
    <path d="M 117.547693 43.422376 
L 121.063093 43.422376 
" clip-path="url(#p66d2fe77cc)" style="fill: none; stroke: #999999; stroke-width: 0.5"/>
   </g>
   <g id="line2d_51">
    <path d="M 131.896264 45.836705 
L 135.411664 45.836705 
" clip-path="url(#p66d2fe77cc)" style="fill: none; stroke: #999999; stroke-width: 0.5"/>
   </g>
   <g id="patch_10">
    <path d="M 35.36625 62.64 
L 35.36625 7.2 
" style="fill: none; stroke: #000000; stroke-width: 0.5; stroke-linejoin: miter; stroke-linecap: square"/>
   </g>
   <g id="patch_11">
    <path d="M 40.38825 65.412 
L 140.82825 65.412 
" style="fill: none; stroke: #000000; stroke-width: 0.5; stroke-linejoin: miter; stroke-linecap: square"/>
   </g>
   <g id="legend_1"/>
  </g>
 </g>
 <defs>
  <clipPath id="p66d2fe77cc">
   <rect x="40.38825" y="7.2" width="100.44" height="55.44"/>
  </clipPath>
 </defs>
</svg>
