<?xml version="1.0" encoding="utf-8" standalone="no"?>
<!DOCTYPE svg PUBLIC "-//W3C//DTD SVG 1.1//EN"
  "http://www.w3.org/Graphics/SVG/1.1/DTD/svg11.dtd">
<svg xmlns:xlink="http://www.w3.org/1999/xlink" width="158.4pt" height="158.4pt" viewBox="0 0 158.4 158.4" xmlns="http://www.w3.org/2000/svg" version="1.1">
 <metadata>
  <rdf:RDF xmlns:dc="http://purl.org/dc/elements/1.1/" xmlns:cc="http://creativecommons.org/ns#" xmlns:rdf="http://www.w3.org/1999/02/22-rdf-syntax-ns#">
   <cc:Work>
    <dc:type rdf:resource="http://purl.org/dc/dcmitype/StillImage"/>
    <dc:date>2025-08-25T18:57:43.429181</dc:date>
    <dc:format>image/svg+xml</dc:format>
    <dc:creator>
     <cc:Agent>
      <dc:title>Matplotlib v3.8.4, https://matplotlib.org/</dc:title>
     </cc:Agent>
    </dc:creator>
   </cc:Work>
  </rdf:RDF>
 </metadata>
 <defs>
  <style type="text/css">*{stroke-linejoin: round; stroke-linecap: butt}</style>
 </defs>
 <g id="figure_1">
  <g id="patch_1">
   <path d="M 0 158.4 
L 158.4 158.4 
L 158.4 0 
L 0 0 
L 0 158.4 
z
" style="fill: none"/>
  </g>
  <g id="axes_1">
   <g id="PathCollection_1">
    <defs>
     <path id="me2ea9c3da1" d="M 0 2.236068 
C 0.593012 2.236068 1.161816 2.000462 1.581139 1.581139 
C 2.000462 1.161816 2.236068 0.593012 2.236068 0 
C 2.236068 -0.593012 2.000462 -1.161816 1.581139 -1.581139 
C 1.161816 -2.000462 0.593012 -2.236068 0 -2.236068 
C -0.593012 -2.236068 -1.161816 -2.000462 -1.581139 -1.581139 
C -2.000462 -1.161816 -2.236068 -0.593012 -2.236068 0 
C -2.236068 0.593012 -2.000462 1.161816 -1.581139 1.581139 
C -1.161816 2.000462 -0.593012 2.236068 0 2.236068 
z
" style="stroke: #ffffff"/>
    </defs>
    <g clip-path="url(#pece126a047)">
     <use xlink:href="#me2ea9c3da1" x="104.838433" y="93.031823" style="fill: #e6b24c; stroke: #ffffff"/>
     <use xlink:href="#me2ea9c3da1" x="106.6621" y="86.196165" style="fill: #e6b24c; stroke: #ffffff"/>
     <use xlink:href="#me2ea9c3da1" x="106.349059" y="85.935638" style="fill: #e6b24c; stroke: #ffffff"/>
     <use xlink:href="#me2ea9c3da1" x="106.754243" y="93.21186" style="fill: #e6b24c; stroke: #ffffff"/>
     <use xlink:href="#me2ea9c3da1" x="104.547036" y="93.992311" style="fill: #e6b24c; stroke: #ffffff"/>
     <use xlink:href="#me2ea9c3da1" x="104.909582" y="94.262353" style="fill: #e6b24c; stroke: #ffffff"/>
     <use xlink:href="#me2ea9c3da1" x="108.47944" y="84.719165" style="fill: #e6b24c; stroke: #ffffff"/>
     <use xlink:href="#me2ea9c3da1" x="110.062009" y="92.080616" style="fill: #e6b24c; stroke: #ffffff"/>
     <use xlink:href="#me2ea9c3da1" x="107.624501" y="89.776083" style="fill: #e6b24c; stroke: #ffffff"/>
     <use xlink:href="#me2ea9c3da1" x="106.42478" y="84.237703" style="fill: #e6b24c; stroke: #ffffff"/>
     <use xlink:href="#me2ea9c3da1" x="110.257474" y="91.540771" style="fill: #e6b24c; stroke: #ffffff"/>
     <use xlink:href="#me2ea9c3da1" x="105.783043" y="84.126326" style="fill: #e6b24c; stroke: #ffffff"/>
     <use xlink:href="#me2ea9c3da1" x="107.37021" y="95.766391" style="fill: #e6b24c; stroke: #ffffff"/>
     <use xlink:href="#me2ea9c3da1" x="106.493802" y="89.426263" style="fill: #e6b24c; stroke: #ffffff"/>
     <use xlink:href="#me2ea9c3da1" x="104.548272" y="94.171482" style="fill: #e6b24c; stroke: #ffffff"/>
     <use xlink:href="#me2ea9c3da1" x="109.108852" y="97.610346" style="fill: #e6b24c; stroke: #ffffff"/>
     <use xlink:href="#me2ea9c3da1" x="105.557207" y="91.168837" style="fill: #e6b24c; stroke: #ffffff"/>
     <use xlink:href="#me2ea9c3da1" x="110.642395" y="90.452171" style="fill: #e6b24c; stroke: #ffffff"/>
     <use xlink:href="#me2ea9c3da1" x="109.315384" y="86.408352" style="fill: #e6b24c; stroke: #ffffff"/>
     <use xlink:href="#me2ea9c3da1" x="108.634628" y="96.470013" style="fill: #e6b24c; stroke: #ffffff"/>
     <use xlink:href="#me2ea9c3da1" x="108.590182" y="96.519754" style="fill: #e6b24c; stroke: #ffffff"/>
     <use xlink:href="#me2ea9c3da1" x="110.734568" y="91.556829" style="fill: #e6b24c; stroke: #ffffff"/>
     <use xlink:href="#me2ea9c3da1" x="111.75345" y="93.029144" style="fill: #e6b24c; stroke: #ffffff"/>
     <use xlink:href="#me2ea9c3da1" x="105.584959" y="92.674247" style="fill: #e6b24c; stroke: #ffffff"/>
     <use xlink:href="#me2ea9c3da1" x="111.988414" y="93.765565" style="fill: #e6b24c; stroke: #ffffff"/>
     <use xlink:href="#me2ea9c3da1" x="106.182702" y="87.103721" style="fill: #e6b24c; stroke: #ffffff"/>
    </g>
   </g>
   <g id="PathCollection_2">
    <defs>
     <path id="m6dde1c07f1" d="M 0 2.236068 
C 0.593012 2.236068 1.161816 2.000462 1.581139 1.581139 
C 2.000462 1.161816 2.236068 0.593012 2.236068 0 
C 2.236068 -0.593012 2.000462 -1.161816 1.581139 -1.581139 
C 1.161816 -2.000462 0.593012 -2.236068 0 -2.236068 
C -0.593012 -2.236068 -1.161816 -2.000462 -1.581139 -1.581139 
C -2.000462 -1.161816 -2.236068 -0.593012 -2.236068 0 
C -2.236068 0.593012 -2.000462 1.161816 -1.581139 1.581139 
C -1.161816 2.000462 -0.593012 2.236068 0 2.236068 
z
" style="stroke: #ffffff"/>
    </defs>
    <g clip-path="url(#pece126a047)">
     <use xlink:href="#m6dde1c07f1" x="108.142304" y="31.025683" style="fill: #ccb233; stroke: #ffffff"/>
     <use xlink:href="#m6dde1c07f1" x="110.372186" y="33.352874" style="fill: #ccb233; stroke: #ffffff"/>
     <use xlink:href="#m6dde1c07f1" x="105.677837" y="28.234699" style="fill: #ccb233; stroke: #ffffff"/>
     <use xlink:href="#m6dde1c07f1" x="101.675757" y="26.476445" style="fill: #ccb233; stroke: #ffffff"/>
     <use xlink:href="#m6dde1c07f1" x="97.719442" y="28.769338" style="fill: #ccb233; stroke: #ffffff"/>
     <use xlink:href="#m6dde1c07f1" x="104.553348" y="29.204554" style="fill: #ccb233; stroke: #ffffff"/>
     <use xlink:href="#m6dde1c07f1" x="107.363229" y="28.649192" style="fill: #ccb233; stroke: #ffffff"/>
     <use xlink:href="#m6dde1c07f1" x="99.28834" y="26.029963" style="fill: #ccb233; stroke: #ffffff"/>
     <use xlink:href="#m6dde1c07f1" x="100.571304" y="25.348685" style="fill: #ccb233; stroke: #ffffff"/>
     <use xlink:href="#m6dde1c07f1" x="106.882794" y="31.954644" style="fill: #ccb233; stroke: #ffffff"/>
     <use xlink:href="#m6dde1c07f1" x="108.842654" y="34.344631" style="fill: #ccb233; stroke: #ffffff"/>
     <use xlink:href="#m6dde1c07f1" x="105.437914" y="27.755689" style="fill: #ccb233; stroke: #ffffff"/>
     <use xlink:href="#m6dde1c07f1" x="100.29273" y="24.8051" style="fill: #ccb233; stroke: #ffffff"/>
     <use xlink:href="#m6dde1c07f1" x="102.804619" y="37.248034" style="fill: #ccb233; stroke: #ffffff"/>
     <use xlink:href="#m6dde1c07f1" x="111.212349" y="40.522796" style="fill: #ccb233; stroke: #ffffff"/>
     <use xlink:href="#m6dde1c07f1" x="107.544294" y="36.990039" style="fill: #ccb233; stroke: #ffffff"/>
     <use xlink:href="#m6dde1c07f1" x="106.497149" y="29.811446" style="fill: #ccb233; stroke: #ffffff"/>
     <use xlink:href="#m6dde1c07f1" x="99.33509" y="24.637976" style="fill: #ccb233; stroke: #ffffff"/>
     <use xlink:href="#m6dde1c07f1" x="96.653284" y="28.139001" style="fill: #ccb233; stroke: #ffffff"/>
     <use xlink:href="#m6dde1c07f1" x="102.848924" y="25.88649" style="fill: #ccb233; stroke: #ffffff"/>
     <use xlink:href="#m6dde1c07f1" x="107.66055" y="40.447653" style="fill: #ccb233; stroke: #ffffff"/>
     <use xlink:href="#m6dde1c07f1" x="106.963378" y="35.783657" style="fill: #ccb233; stroke: #ffffff"/>
     <use xlink:href="#m6dde1c07f1" x="110.27353" y="32.796156" style="fill: #ccb233; stroke: #ffffff"/>
     <use xlink:href="#m6dde1c07f1" x="99.581971" y="26.601761" style="fill: #ccb233; stroke: #ffffff"/>
     <use xlink:href="#m6dde1c07f1" x="97.171169" y="28.081386" style="fill: #ccb233; stroke: #ffffff"/>
     <use xlink:href="#m6dde1c07f1" x="110.378159" y="31.504614" style="fill: #ccb233; stroke: #ffffff"/>
     <use xlink:href="#m6dde1c07f1" x="106.519274" y="34.406071" style="fill: #ccb233; stroke: #ffffff"/>
     <use xlink:href="#m6dde1c07f1" x="100.28135" y="33.905198" style="fill: #ccb233; stroke: #ffffff"/>
     <use xlink:href="#m6dde1c07f1" x="105.638903" y="32.554635" style="fill: #ccb233; stroke: #ffffff"/>
     <use xlink:href="#m6dde1c07f1" x="101.769727" y="25.736352" style="fill: #ccb233; stroke: #ffffff"/>
     <use xlink:href="#m6dde1c07f1" x="98.128057" y="25.947202" style="fill: #ccb233; stroke: #ffffff"/>
     <use xlink:href="#m6dde1c07f1" x="102.730183" y="36.370053" style="fill: #ccb233; stroke: #ffffff"/>
     <use xlink:href="#m6dde1c07f1" x="106.293735" y="27.295602" style="fill: #ccb233; stroke: #ffffff"/>
     <use xlink:href="#m6dde1c07f1" x="110.866728" y="34.984327" style="fill: #ccb233; stroke: #ffffff"/>
     <use xlink:href="#m6dde1c07f1" x="100.401566" y="24.552" style="fill: #ccb233; stroke: #ffffff"/>
     <use xlink:href="#m6dde1c07f1" x="105.880987" y="33.59116" style="fill: #ccb233; stroke: #ffffff"/>
     <use xlink:href="#m6dde1c07f1" x="97.819837" y="25.582469" style="fill: #ccb233; stroke: #ffffff"/>
     <use xlink:href="#m6dde1c07f1" x="108.076907" y="48.485137" style="fill: #ccb233; stroke: #ffffff"/>
     <use xlink:href="#m6dde1c07f1" x="104.631386" y="36.237924" style="fill: #ccb233; stroke: #ffffff"/>
     <use xlink:href="#m6dde1c07f1" x="110.814465" y="34.672107" style="fill: #ccb233; stroke: #ffffff"/>
     <use xlink:href="#m6dde1c07f1" x="108.968337" y="29.202677" style="fill: #ccb233; stroke: #ffffff"/>
     <use xlink:href="#m6dde1c07f1" x="108.648021" y="30.278817" style="fill: #ccb233; stroke: #ffffff"/>
    </g>
   </g>
   <g id="PathCollection_3">
    <defs>
     <path id="m9d93e4bf30" d="M 0 2.236068 
C 0.593012 2.236068 1.161816 2.000462 1.581139 1.581139 
C 2.000462 1.161816 2.236068 0.593012 2.236068 0 
C 2.236068 -0.593012 2.000462 -1.161816 1.581139 -1.581139 
C 1.161816 -2.000462 0.593012 -2.236068 0 -2.236068 
C -0.593012 -2.236068 -1.161816 -2.000462 -1.581139 -1.581139 
C -2.000462 -1.161816 -2.236068 -0.593012 -2.236068 0 
C -2.236068 0.593012 -2.000462 1.161816 -1.581139 1.581139 
C -1.161816 2.000462 -0.593012 2.236068 0 2.236068 
z
" style="stroke: #ffffff"/>
    </defs>
    <g clip-path="url(#pece126a047)">
     <use xlink:href="#m9d93e4bf30" x="136.782352" y="69.385907" style="fill: #ccbf33; stroke: #ffffff"/>
     <use xlink:href="#m9d93e4bf30" x="112.382411" y="56.964531" style="fill: #ccbf33; stroke: #ffffff"/>
     <use xlink:href="#m9d93e4bf30" x="131.949587" y="75.642454" style="fill: #ccbf33; stroke: #ffffff"/>
     <use xlink:href="#m9d93e4bf30" x="136.572996" y="69.051127" style="fill: #ccbf33; stroke: #ffffff"/>
     <use xlink:href="#m9d93e4bf30" x="111.216746" y="45.841637" style="fill: #ccbf33; stroke: #ffffff"/>
     <use xlink:href="#m9d93e4bf30" x="136.98" y="68.785887" style="fill: #ccbf33; stroke: #ffffff"/>
     <use xlink:href="#m9d93e4bf30" x="132.756621" y="71.931036" style="fill: #ccbf33; stroke: #ffffff"/>
     <use xlink:href="#m9d93e4bf30" x="110.856819" y="47.547161" style="fill: #ccbf33; stroke: #ffffff"/>
     <use xlink:href="#m9d93e4bf30" x="133.167424" y="71.531995" style="fill: #ccbf33; stroke: #ffffff"/>
     <use xlink:href="#m9d93e4bf30" x="131.772127" y="68.575735" style="fill: #ccbf33; stroke: #ffffff"/>
     <use xlink:href="#m9d93e4bf30" x="135.415818" y="76.192689" style="fill: #ccbf33; stroke: #ffffff"/>
     <use xlink:href="#m9d93e4bf30" x="132.077443" y="75.768242" style="fill: #ccbf33; stroke: #ffffff"/>
     <use xlink:href="#m9d93e4bf30" x="110.165969" y="48.472456" style="fill: #ccbf33; stroke: #ffffff"/>
     <use xlink:href="#m9d93e4bf30" x="132.288934" y="69.705775" style="fill: #ccbf33; stroke: #ffffff"/>
     <use xlink:href="#m9d93e4bf30" x="134.571294" y="74.896734" style="fill: #ccbf33; stroke: #ffffff"/>
     <use xlink:href="#m9d93e4bf30" x="135.545037" y="79.00472" style="fill: #ccbf33; stroke: #ffffff"/>
     <use xlink:href="#m9d93e4bf30" x="134.243404" y="77.416569" style="fill: #ccbf33; stroke: #ffffff"/>
     <use xlink:href="#m9d93e4bf30" x="135.745359" y="78.330677" style="fill: #ccbf33; stroke: #ffffff"/>
     <use xlink:href="#m9d93e4bf30" x="109.538191" y="49.681807" style="fill: #ccbf33; stroke: #ffffff"/>
     <use xlink:href="#m9d93e4bf30" x="136.479212" y="69.439532" style="fill: #ccbf33; stroke: #ffffff"/>
     <use xlink:href="#m9d93e4bf30" x="134.400609" y="71.500691" style="fill: #ccbf33; stroke: #ffffff"/>
     <use xlink:href="#m9d93e4bf30" x="135.596774" y="70.278202" style="fill: #ccbf33; stroke: #ffffff"/>
     <use xlink:href="#m9d93e4bf30" x="111.261717" y="56.512466" style="fill: #ccbf33; stroke: #ffffff"/>
     <use xlink:href="#m9d93e4bf30" x="110.448195" y="54.50063" style="fill: #ccbf33; stroke: #ffffff"/>
     <use xlink:href="#m9d93e4bf30" x="134.93733" y="77.776342" style="fill: #ccbf33; stroke: #ffffff"/>
     <use xlink:href="#m9d93e4bf30" x="136.17523" y="70.707363" style="fill: #ccbf33; stroke: #ffffff"/>
     <use xlink:href="#m9d93e4bf30" x="135.513573" y="77.838804" style="fill: #ccbf33; stroke: #ffffff"/>
     <use xlink:href="#m9d93e4bf30" x="134.9364" y="77.162849" style="fill: #ccbf33; stroke: #ffffff"/>
     <use xlink:href="#m9d93e4bf30" x="131.864358" y="72.903742" style="fill: #ccbf33; stroke: #ffffff"/>
    </g>
   </g>
   <g id="PathCollection_4">
    <defs>
     <path id="md91823addf" d="M 0 2.236068 
C 0.593012 2.236068 1.161816 2.000462 1.581139 1.581139 
C 2.000462 1.161816 2.236068 0.593012 2.236068 0 
C 2.236068 -0.593012 2.000462 -1.161816 1.581139 -1.581139 
C 1.161816 -2.000462 0.593012 -2.236068 0 -2.236068 
C -0.593012 -2.236068 -1.161816 -2.000462 -1.581139 -1.581139 
C -2.000462 -1.161816 -2.236068 -0.593012 -2.236068 0 
C -2.236068 0.593012 -2.000462 1.161816 -1.581139 1.581139 
C -1.161816 2.000462 -0.593012 2.236068 0 2.236068 
z
" style="stroke: #ffffff"/>
    </defs>
    <g clip-path="url(#pece126a047)">
     <use xlink:href="#md91823addf" x="98.101677" y="44.412176" style="fill: #ff0000; stroke: #ffffff"/>
     <use xlink:href="#md91823addf" x="97.123791" y="42.222923" style="fill: #ff0000; stroke: #ffffff"/>
     <use xlink:href="#md91823addf" x="98.492815" y="41.275717" style="fill: #ff0000; stroke: #ffffff"/>
     <use xlink:href="#md91823addf" x="96.500607" y="43.496643" style="fill: #ff0000; stroke: #ffffff"/>
     <use xlink:href="#md91823addf" x="99.21827" y="36.718389" style="fill: #ff0000; stroke: #ffffff"/>
     <use xlink:href="#md91823addf" x="95.821021" y="46.737539" style="fill: #ff0000; stroke: #ffffff"/>
     <use xlink:href="#md91823addf" x="100.515119" y="39.666293" style="fill: #ff0000; stroke: #ffffff"/>
     <use xlink:href="#md91823addf" x="100.181549" y="46.875546" style="fill: #ff0000; stroke: #ffffff"/>
     <use xlink:href="#md91823addf" x="102.114539" y="44.590566" style="fill: #ff0000; stroke: #ffffff"/>
     <use xlink:href="#md91823addf" x="100.126288" y="40.423952" style="fill: #ff0000; stroke: #ffffff"/>
     <use xlink:href="#md91823addf" x="97.809279" y="49.656061" style="fill: #ff0000; stroke: #ffffff"/>
     <use xlink:href="#md91823addf" x="98.352337" y="32.860809" style="fill: #ff0000; stroke: #ffffff"/>
     <use xlink:href="#md91823addf" x="98.404219" y="46.905794" style="fill: #ff0000; stroke: #ffffff"/>
     <use xlink:href="#md91823addf" x="98.610284" y="47.730211" style="fill: #ff0000; stroke: #ffffff"/>
     <use xlink:href="#md91823addf" x="98.619285" y="37.050505" style="fill: #ff0000; stroke: #ffffff"/>
     <use xlink:href="#md91823addf" x="100.593789" y="39.963669" style="fill: #ff0000; stroke: #ffffff"/>
     <use xlink:href="#md91823addf" x="99.845005" y="38.162536" style="fill: #ff0000; stroke: #ffffff"/>
     <use xlink:href="#md91823addf" x="96.969303" y="39.417282" style="fill: #ff0000; stroke: #ffffff"/>
     <use xlink:href="#md91823addf" x="97.870261" y="48.648831" style="fill: #ff0000; stroke: #ffffff"/>
    </g>
   </g>
   <g id="PathCollection_5">
    <defs>
     <path id="mfb465f0ccb" d="M 0 2.236068 
C 0.593012 2.236068 1.161816 2.000462 1.581139 1.581139 
C 2.000462 1.161816 2.236068 0.593012 2.236068 0 
C 2.236068 -0.593012 2.000462 -1.161816 1.581139 -1.581139 
C 1.161816 -2.000462 0.593012 -2.236068 0 -2.236068 
C -0.593012 -2.236068 -1.161816 -2.000462 -1.581139 -1.581139 
C -2.000462 -1.161816 -2.236068 -0.593012 -2.236068 0 
C -2.236068 0.593012 -2.000462 1.161816 -1.581139 1.581139 
C -1.161816 2.000462 -0.593012 2.236068 0 2.236068 
z
" style="stroke: #ffffff"/>
    </defs>
    <g clip-path="url(#pece126a047)">
     <use xlink:href="#mfb465f0ccb" x="96.002272" y="36.173781" style="fill: #544a94; stroke: #ffffff"/>
     <use xlink:href="#mfb465f0ccb" x="95.203235" y="32.17384" style="fill: #544a94; stroke: #ffffff"/>
     <use xlink:href="#mfb465f0ccb" x="90.380801" y="35.34675" style="fill: #544a94; stroke: #ffffff"/>
     <use xlink:href="#mfb465f0ccb" x="86.654335" y="36.322553" style="fill: #544a94; stroke: #ffffff"/>
     <use xlink:href="#mfb465f0ccb" x="93.712097" y="29.726866" style="fill: #544a94; stroke: #ffffff"/>
     <use xlink:href="#mfb465f0ccb" x="95.193602" y="31.235746" style="fill: #544a94; stroke: #ffffff"/>
     <use xlink:href="#mfb465f0ccb" x="89.785339" y="38.038448" style="fill: #544a94; stroke: #ffffff"/>
     <use xlink:href="#mfb465f0ccb" x="87.218347" y="37.841901" style="fill: #544a94; stroke: #ffffff"/>
     <use xlink:href="#mfb465f0ccb" x="86.108626" y="37.016865" style="fill: #544a94; stroke: #ffffff"/>
     <use xlink:href="#mfb465f0ccb" x="86.578289" y="44.028422" style="fill: #544a94; stroke: #ffffff"/>
     <use xlink:href="#mfb465f0ccb" x="85.874178" y="37.002238" style="fill: #544a94; stroke: #ffffff"/>
     <use xlink:href="#mfb465f0ccb" x="86.089525" y="39.10986" style="fill: #544a94; stroke: #ffffff"/>
     <use xlink:href="#mfb465f0ccb" x="86.329725" y="44.130244" style="fill: #544a94; stroke: #ffffff"/>
     <use xlink:href="#mfb465f0ccb" x="93.21851" y="32.726626" style="fill: #544a94; stroke: #ffffff"/>
     <use xlink:href="#mfb465f0ccb" x="86.229843" y="38.219197" style="fill: #544a94; stroke: #ffffff"/>
     <use xlink:href="#mfb465f0ccb" x="86.105634" y="43.122542" style="fill: #544a94; stroke: #ffffff"/>
     <use xlink:href="#mfb465f0ccb" x="91.66298" y="32.511097" style="fill: #544a94; stroke: #ffffff"/>
     <use xlink:href="#mfb465f0ccb" x="86.51491" y="37.367335" style="fill: #544a94; stroke: #ffffff"/>
     <use xlink:href="#mfb465f0ccb" x="94.065633" y="34.28738" style="fill: #544a94; stroke: #ffffff"/>
     <use xlink:href="#mfb465f0ccb" x="92.608592" y="29.892438" style="fill: #544a94; stroke: #ffffff"/>
     <use xlink:href="#mfb465f0ccb" x="94.544795" y="28.820092" style="fill: #544a94; stroke: #ffffff"/>
     <use xlink:href="#mfb465f0ccb" x="91.764782" y="32.022227" style="fill: #544a94; stroke: #ffffff"/>
     <use xlink:href="#mfb465f0ccb" x="93.138413" y="36.230758" style="fill: #544a94; stroke: #ffffff"/>
     <use xlink:href="#mfb465f0ccb" x="92.872677" y="41.824148" style="fill: #544a94; stroke: #ffffff"/>
     <use xlink:href="#mfb465f0ccb" x="94.417755" y="37.051537" style="fill: #544a94; stroke: #ffffff"/>
     <use xlink:href="#mfb465f0ccb" x="92.391341" y="29.252457" style="fill: #544a94; stroke: #ffffff"/>
     <use xlink:href="#mfb465f0ccb" x="93.453401" y="46.431925" style="fill: #544a94; stroke: #ffffff"/>
     <use xlink:href="#mfb465f0ccb" x="97.809115" y="34.927243" style="fill: #544a94; stroke: #ffffff"/>
     <use xlink:href="#mfb465f0ccb" x="89.845121" y="44.4589" style="fill: #544a94; stroke: #ffffff"/>
     <use xlink:href="#mfb465f0ccb" x="93.305203" y="36.942391" style="fill: #544a94; stroke: #ffffff"/>
     <use xlink:href="#mfb465f0ccb" x="89.62443" y="44.207441" style="fill: #544a94; stroke: #ffffff"/>
     <use xlink:href="#mfb465f0ccb" x="88.030005" y="42.555954" style="fill: #544a94; stroke: #ffffff"/>
     <use xlink:href="#mfb465f0ccb" x="93.563528" y="35.281988" style="fill: #544a94; stroke: #ffffff"/>
     <use xlink:href="#mfb465f0ccb" x="91.845019" y="33.405377" style="fill: #544a94; stroke: #ffffff"/>
     <use xlink:href="#mfb465f0ccb" x="88.716336" y="36.859404" style="fill: #544a94; stroke: #ffffff"/>
     <use xlink:href="#mfb465f0ccb" x="95.184047" y="38.030476" style="fill: #544a94; stroke: #ffffff"/>
     <use xlink:href="#mfb465f0ccb" x="94.641509" y="38.454003" style="fill: #544a94; stroke: #ffffff"/>
     <use xlink:href="#mfb465f0ccb" x="88.532731" y="37.688215" style="fill: #544a94; stroke: #ffffff"/>
     <use xlink:href="#mfb465f0ccb" x="96.408942" y="36.929042" style="fill: #544a94; stroke: #ffffff"/>
     <use xlink:href="#mfb465f0ccb" x="86.957571" y="42.737952" style="fill: #544a94; stroke: #ffffff"/>
     <use xlink:href="#mfb465f0ccb" x="96.312769" y="36.956458" style="fill: #544a94; stroke: #ffffff"/>
    </g>
   </g>
   <g id="PathCollection_6">
    <defs>
     <path id="mbc1b9b1f22" d="M 0 2.236068 
C 0.593012 2.236068 1.161816 2.000462 1.581139 1.581139 
C 2.000462 1.161816 2.236068 0.593012 2.236068 0 
C 2.236068 -0.593012 2.000462 -1.161816 1.581139 -1.581139 
C 1.161816 -2.000462 0.593012 -2.236068 0 -2.236068 
C -0.593012 -2.236068 -1.161816 -2.000462 -1.581139 -1.581139 
C -2.000462 -1.161816 -2.236068 -0.593012 -2.236068 0 
C -2.236068 0.593012 -2.000462 1.161816 -1.581139 1.581139 
C -1.161816 2.000462 -0.593012 2.236068 0 2.236068 
z
" style="stroke: #ffffff"/>
    </defs>
    <g clip-path="url(#pece126a047)">
     <use xlink:href="#mbc1b9b1f22" x="104.163158" y="71.617199" style="fill: #70a6c9; stroke: #ffffff"/>
     <use xlink:href="#mbc1b9b1f22" x="107.096267" y="73.595966" style="fill: #70a6c9; stroke: #ffffff"/>
     <use xlink:href="#mbc1b9b1f22" x="106.684956" y="75.689226" style="fill: #70a6c9; stroke: #ffffff"/>
     <use xlink:href="#mbc1b9b1f22" x="103.908857" y="70.931704" style="fill: #70a6c9; stroke: #ffffff"/>
     <use xlink:href="#mbc1b9b1f22" x="109.31284" y="75.798829" style="fill: #70a6c9; stroke: #ffffff"/>
     <use xlink:href="#mbc1b9b1f22" x="108.442213" y="75.84683" style="fill: #70a6c9; stroke: #ffffff"/>
     <use xlink:href="#mbc1b9b1f22" x="101.059905" y="61.367652" style="fill: #70a6c9; stroke: #ffffff"/>
     <use xlink:href="#mbc1b9b1f22" x="103.48381" y="53.53105" style="fill: #70a6c9; stroke: #ffffff"/>
     <use xlink:href="#mbc1b9b1f22" x="99.569902" y="58.971816" style="fill: #70a6c9; stroke: #ffffff"/>
     <use xlink:href="#mbc1b9b1f22" x="99.191594" y="57.852825" style="fill: #70a6c9; stroke: #ffffff"/>
     <use xlink:href="#mbc1b9b1f22" x="110.598093" y="63.62607" style="fill: #70a6c9; stroke: #ffffff"/>
     <use xlink:href="#mbc1b9b1f22" x="99.823939" y="59.590838" style="fill: #70a6c9; stroke: #ffffff"/>
     <use xlink:href="#mbc1b9b1f22" x="106.418719" y="53.815361" style="fill: #70a6c9; stroke: #ffffff"/>
     <use xlink:href="#mbc1b9b1f22" x="110.376241" y="68.472409" style="fill: #70a6c9; stroke: #ffffff"/>
     <use xlink:href="#mbc1b9b1f22" x="109.555795" y="75.073305" style="fill: #70a6c9; stroke: #ffffff"/>
     <use xlink:href="#mbc1b9b1f22" x="108.024305" y="53.879366" style="fill: #70a6c9; stroke: #ffffff"/>
     <use xlink:href="#mbc1b9b1f22" x="96.133482" y="58.070546" style="fill: #70a6c9; stroke: #ffffff"/>
     <use xlink:href="#mbc1b9b1f22" x="109.966379" y="77.336521" style="fill: #70a6c9; stroke: #ffffff"/>
     <use xlink:href="#mbc1b9b1f22" x="105.184963" y="74.878341" style="fill: #70a6c9; stroke: #ffffff"/>
     <use xlink:href="#mbc1b9b1f22" x="120.029824" y="78.612477" style="fill: #70a6c9; stroke: #ffffff"/>
     <use xlink:href="#mbc1b9b1f22" x="107.455103" y="71.071747" style="fill: #70a6c9; stroke: #ffffff"/>
     <use xlink:href="#mbc1b9b1f22" x="96.604612" y="58.967628" style="fill: #70a6c9; stroke: #ffffff"/>
     <use xlink:href="#mbc1b9b1f22" x="96.140083" y="59.437535" style="fill: #70a6c9; stroke: #ffffff"/>
     <use xlink:href="#mbc1b9b1f22" x="107.733961" y="63.709628" style="fill: #70a6c9; stroke: #ffffff"/>
     <use xlink:href="#mbc1b9b1f22" x="100.618501" y="56.895503" style="fill: #70a6c9; stroke: #ffffff"/>
     <use xlink:href="#mbc1b9b1f22" x="105.645132" y="77.470719" style="fill: #70a6c9; stroke: #ffffff"/>
     <use xlink:href="#mbc1b9b1f22" x="97.71131" y="56.23596" style="fill: #70a6c9; stroke: #ffffff"/>
     <use xlink:href="#mbc1b9b1f22" x="101.413326" y="62.297419" style="fill: #70a6c9; stroke: #ffffff"/>
     <use xlink:href="#mbc1b9b1f22" x="108.988651" y="81.438963" style="fill: #70a6c9; stroke: #ffffff"/>
     <use xlink:href="#mbc1b9b1f22" x="109.407942" y="79.930378" style="fill: #70a6c9; stroke: #ffffff"/>
     <use xlink:href="#mbc1b9b1f22" x="96.649422" y="53.249727" style="fill: #70a6c9; stroke: #ffffff"/>
    </g>
   </g>
   <g id="PathCollection_7">
    <defs>
     <path id="m108a0b9b51" d="M 0 2.236068 
C 0.593012 2.236068 1.161816 2.000462 1.581139 1.581139 
C 2.000462 1.161816 2.236068 0.593012 2.236068 0 
C 2.236068 -0.593012 2.000462 -1.161816 1.581139 -1.581139 
C 1.161816 -2.000462 0.593012 -2.236068 0 -2.236068 
C -0.593012 -2.236068 -1.161816 -2.000462 -1.581139 -1.581139 
C -2.000462 -1.161816 -2.236068 -0.593012 -2.236068 0 
C -2.236068 0.593012 -2.000462 1.161816 -1.581139 1.581139 
C -1.161816 2.000462 -0.593012 2.236068 0 2.236068 
z
" style="stroke: #ffffff"/>
    </defs>
    <g clip-path="url(#pece126a047)">
     <use xlink:href="#m108a0b9b51" x="124.031363" y="134.865384" style="fill: #8abfe3; stroke: #ffffff"/>
     <use xlink:href="#m108a0b9b51" x="123.941689" y="134.711847" style="fill: #8abfe3; stroke: #ffffff"/>
     <use xlink:href="#m108a0b9b51" x="124.278223" y="135.432" style="fill: #8abfe3; stroke: #ffffff"/>
     <use xlink:href="#m108a0b9b51" x="123.862154" y="134.515661" style="fill: #8abfe3; stroke: #ffffff"/>
     <use xlink:href="#m108a0b9b51" x="124.185409" y="135.242449" style="fill: #8abfe3; stroke: #ffffff"/>
    </g>
   </g>
   <g id="PathCollection_8">
    <defs>
     <path id="m6e5cdc7baf" d="M 0 2.236068 
C 0.593012 2.236068 1.161816 2.000462 1.581139 1.581139 
C 2.000462 1.161816 2.236068 0.593012 2.236068 0 
C 2.236068 -0.593012 2.000462 -1.161816 1.581139 -1.581139 
C 1.161816 -2.000462 0.593012 -2.236068 0 -2.236068 
C -0.593012 -2.236068 -1.161816 -2.000462 -1.581139 -1.581139 
C -2.000462 -1.161816 -2.236068 -0.593012 -2.236068 0 
C -2.236068 0.593012 -2.000462 1.161816 -1.581139 1.581139 
C -1.161816 2.000462 -0.593012 2.236068 0 2.236068 
z
" style="stroke: #ffffff"/>
    </defs>
    <g clip-path="url(#pece126a047)">
     <use xlink:href="#m6e5cdc7baf" x="125.857042" y="81.356649" style="fill: #a3d9fc; stroke: #ffffff"/>
     <use xlink:href="#m6e5cdc7baf" x="128.17" y="74.421833" style="fill: #a3d9fc; stroke: #ffffff"/>
     <use xlink:href="#m6e5cdc7baf" x="125.930709" y="81.56279" style="fill: #a3d9fc; stroke: #ffffff"/>
     <use xlink:href="#m6e5cdc7baf" x="127.044677" y="80.993287" style="fill: #a3d9fc; stroke: #ffffff"/>
     <use xlink:href="#m6e5cdc7baf" x="128.024544" y="80.174204" style="fill: #a3d9fc; stroke: #ffffff"/>
     <use xlink:href="#m6e5cdc7baf" x="126.561049" y="74.851298" style="fill: #a3d9fc; stroke: #ffffff"/>
     <use xlink:href="#m6e5cdc7baf" x="123.387753" y="76.124256" style="fill: #a3d9fc; stroke: #ffffff"/>
     <use xlink:href="#m6e5cdc7baf" x="122.693134" y="79.59895" style="fill: #a3d9fc; stroke: #ffffff"/>
     <use xlink:href="#m6e5cdc7baf" x="112.560059" y="85.118525" style="fill: #a3d9fc; stroke: #ffffff"/>
     <use xlink:href="#m6e5cdc7baf" x="108.215132" y="48.810303" style="fill: #a3d9fc; stroke: #ffffff"/>
     <use xlink:href="#m6e5cdc7baf" x="126.438911" y="85.547057" style="fill: #a3d9fc; stroke: #ffffff"/>
     <use xlink:href="#m6e5cdc7baf" x="126.241793" y="82.657765" style="fill: #a3d9fc; stroke: #ffffff"/>
     <use xlink:href="#m6e5cdc7baf" x="113.730067" y="84.704415" style="fill: #a3d9fc; stroke: #ffffff"/>
     <use xlink:href="#m6e5cdc7baf" x="126.176102" y="76.095866" style="fill: #a3d9fc; stroke: #ffffff"/>
     <use xlink:href="#m6e5cdc7baf" x="125.664323" y="85.606378" style="fill: #a3d9fc; stroke: #ffffff"/>
     <use xlink:href="#m6e5cdc7baf" x="126.913475" y="74.500637" style="fill: #a3d9fc; stroke: #ffffff"/>
     <use xlink:href="#m6e5cdc7baf" x="125.917548" y="81.939703" style="fill: #a3d9fc; stroke: #ffffff"/>
     <use xlink:href="#m6e5cdc7baf" x="127.351272" y="74.516154" style="fill: #a3d9fc; stroke: #ffffff"/>
     <use xlink:href="#m6e5cdc7baf" x="121.406408" y="77.052092" style="fill: #a3d9fc; stroke: #ffffff"/>
     <use xlink:href="#m6e5cdc7baf" x="127.454918" y="74.860632" style="fill: #a3d9fc; stroke: #ffffff"/>
     <use xlink:href="#m6e5cdc7baf" x="125.17331" y="73.276389" style="fill: #a3d9fc; stroke: #ffffff"/>
     <use xlink:href="#m6e5cdc7baf" x="120.997734" y="78.491967" style="fill: #a3d9fc; stroke: #ffffff"/>
    </g>
   </g>
   <g id="PathCollection_9">
    <defs>
     <path id="m0d4b51d150" d="M 0 2.236068 
C 0.593012 2.236068 1.161816 2.000462 1.581139 1.581139 
C 2.000462 1.161816 2.236068 0.593012 2.236068 0 
C 2.236068 -0.593012 2.000462 -1.161816 1.581139 -1.581139 
C 1.161816 -2.000462 0.593012 -2.236068 0 -2.236068 
C -0.593012 -2.236068 -1.161816 -2.000462 -1.581139 -1.581139 
C -2.000462 -1.161816 -2.236068 -0.593012 -2.236068 0 
C -2.236068 0.593012 -2.000462 1.161816 -1.581139 1.581139 
C -1.161816 2.000462 -0.593012 2.236068 0 2.236068 
z
" style="stroke: #ffffff"/>
    </defs>
    <g clip-path="url(#pece126a047)">
     <use xlink:href="#m0d4b51d150" x="25.609745" y="68.912864" style="fill: #feebe2; stroke: #ffffff"/>
     <use xlink:href="#m0d4b51d150" x="25.38" y="69.402285" style="fill: #feebe2; stroke: #ffffff"/>
     <use xlink:href="#m0d4b51d150" x="25.544631" y="69.051943" style="fill: #feebe2; stroke: #ffffff"/>
     <use xlink:href="#m0d4b51d150" x="25.573482" y="68.994495" style="fill: #feebe2; stroke: #ffffff"/>
    </g>
   </g>
   <g id="PathCollection_10">
    <defs>
     <path id="m36f86f90af" d="M 0 2.236068 
C 0.593012 2.236068 1.161816 2.000462 1.581139 1.581139 
C 2.000462 1.161816 2.236068 0.593012 2.236068 0 
C 2.236068 -0.593012 2.000462 -1.161816 1.581139 -1.581139 
C 1.161816 -2.000462 0.593012 -2.236068 0 -2.236068 
C -0.593012 -2.236068 -1.161816 -2.000462 -1.581139 -1.581139 
C -2.000462 -1.161816 -2.236068 -0.593012 -2.236068 0 
C -2.236068 0.593012 -2.000462 1.161816 -1.581139 1.581139 
C -1.161816 2.000462 -0.593012 2.236068 0 2.236068 
z
" style="stroke: #ffffff"/>
    </defs>
    <g clip-path="url(#pece126a047)">
     <use xlink:href="#m36f86f90af" x="118.101529" y="64.276363" style="fill: #fcc5c0; stroke: #ffffff"/>
     <use xlink:href="#m36f86f90af" x="117.215625" y="62.526573" style="fill: #fcc5c0; stroke: #ffffff"/>
     <use xlink:href="#m36f86f90af" x="117.860055" y="63.635095" style="fill: #fcc5c0; stroke: #ffffff"/>
     <use xlink:href="#m36f86f90af" x="118.251227" y="64.078932" style="fill: #fcc5c0; stroke: #ffffff"/>
     <use xlink:href="#m36f86f90af" x="130.47592" y="89.580421" style="fill: #fcc5c0; stroke: #ffffff"/>
     <use xlink:href="#m36f86f90af" x="128.304966" y="88.006593" style="fill: #fcc5c0; stroke: #ffffff"/>
     <use xlink:href="#m36f86f90af" x="130.105811" y="90.171904" style="fill: #fcc5c0; stroke: #ffffff"/>
     <use xlink:href="#m36f86f90af" x="130.308165" y="89.994645" style="fill: #fcc5c0; stroke: #ffffff"/>
     <use xlink:href="#m36f86f90af" x="130.415177" y="90.331356" style="fill: #fcc5c0; stroke: #ffffff"/>
    </g>
   </g>
   <g id="legend_1">
    <g id="PathCollection_11">
     <g>
      <use xlink:href="#me2ea9c3da1" x="155.86" y="16.284169" style="fill: #e6b24c; stroke: #ffffff"/>
     </g>
    </g>
    <g id="text_1">
     <!-- 0 -->
     <g transform="translate(163.56 18.121669) scale(0.07 -0.07)">
      <defs>
       <path id="ArialMT-30" d="M 266 2259 
Q 266 3072 433 3567 
Q 600 4063 929 4331 
Q 1259 4600 1759 4600 
Q 2128 4600 2406 4451 
Q 2684 4303 2865 4023 
Q 3047 3744 3150 3342 
Q 3253 2941 3253 2259 
Q 3253 1453 3087 958 
Q 2922 463 2592 192 
Q 2263 -78 1759 -78 
Q 1097 -78 719 397 
Q 266 969 266 2259 
z
M 844 2259 
Q 844 1131 1108 757 
Q 1372 384 1759 384 
Q 2147 384 2411 759 
Q 2675 1134 2675 2259 
Q 2675 3391 2411 3762 
Q 2147 4134 1753 4134 
Q 1366 4134 1134 3806 
Q 844 3388 844 2259 
z
" transform="scale(0.015625)"/>
      </defs>
      <use xlink:href="#ArialMT-30"/>
     </g>
    </g>
    <g id="PathCollection_12">
     <g>
      <use xlink:href="#m6dde1c07f1" x="155.86" y="23.385888" style="fill: #ccb233; stroke: #ffffff"/>
     </g>
    </g>
    <g id="text_2">
     <!-- 1 -->
     <g transform="translate(163.56 25.223388) scale(0.07 -0.07)">
      <defs>
       <path id="ArialMT-31" d="M 2384 0 
L 1822 0 
L 1822 3584 
Q 1619 3391 1289 3197 
Q 959 3003 697 2906 
L 697 3450 
Q 1169 3672 1522 3987 
Q 1875 4303 2022 4600 
L 2384 4600 
L 2384 0 
z
" transform="scale(0.015625)"/>
      </defs>
      <use xlink:href="#ArialMT-31"/>
     </g>
    </g>
    <g id="PathCollection_13">
     <g>
      <use xlink:href="#m9d93e4bf30" x="155.86" y="30.487606" style="fill: #ccbf33; stroke: #ffffff"/>
     </g>
    </g>
    <g id="text_3">
     <!-- 2 -->
     <g transform="translate(163.56 32.325106) scale(0.07 -0.07)">
      <defs>
       <path id="ArialMT-32" d="M 3222 541 
L 3222 0 
L 194 0 
Q 188 203 259 391 
Q 375 700 629 1000 
Q 884 1300 1366 1694 
Q 2113 2306 2375 2664 
Q 2638 3022 2638 3341 
Q 2638 3675 2398 3904 
Q 2159 4134 1775 4134 
Q 1369 4134 1125 3890 
Q 881 3647 878 3216 
L 300 3275 
Q 359 3922 746 4261 
Q 1134 4600 1788 4600 
Q 2447 4600 2831 4234 
Q 3216 3869 3216 3328 
Q 3216 3053 3103 2787 
Q 2991 2522 2730 2228 
Q 2469 1934 1863 1422 
Q 1356 997 1212 845 
Q 1069 694 975 541 
L 3222 541 
z
" transform="scale(0.015625)"/>
      </defs>
      <use xlink:href="#ArialMT-32"/>
     </g>
    </g>
    <g id="PathCollection_14">
     <g>
      <use xlink:href="#md91823addf" x="155.86" y="37.589325" style="fill: #ff0000; stroke: #ffffff"/>
     </g>
    </g>
    <g id="text_4">
     <!-- 3 -->
     <g transform="translate(163.56 39.426825) scale(0.07 -0.07)">
      <defs>
       <path id="ArialMT-33" d="M 269 1209 
L 831 1284 
Q 928 806 1161 595 
Q 1394 384 1728 384 
Q 2125 384 2398 659 
Q 2672 934 2672 1341 
Q 2672 1728 2419 1979 
Q 2166 2231 1775 2231 
Q 1616 2231 1378 2169 
L 1441 2663 
Q 1497 2656 1531 2656 
Q 1891 2656 2178 2843 
Q 2466 3031 2466 3422 
Q 2466 3731 2256 3934 
Q 2047 4138 1716 4138 
Q 1388 4138 1169 3931 
Q 950 3725 888 3313 
L 325 3413 
Q 428 3978 793 4289 
Q 1159 4600 1703 4600 
Q 2078 4600 2393 4439 
Q 2709 4278 2876 4000 
Q 3044 3722 3044 3409 
Q 3044 3113 2884 2869 
Q 2725 2625 2413 2481 
Q 2819 2388 3044 2092 
Q 3269 1797 3269 1353 
Q 3269 753 2831 336 
Q 2394 -81 1725 -81 
Q 1122 -81 723 278 
Q 325 638 269 1209 
z
" transform="scale(0.015625)"/>
      </defs>
      <use xlink:href="#ArialMT-33"/>
     </g>
    </g>
    <g id="PathCollection_15">
     <g>
      <use xlink:href="#mfb465f0ccb" x="155.86" y="44.691044" style="fill: #544a94; stroke: #ffffff"/>
     </g>
    </g>
    <g id="text_5">
     <!-- 4 -->
     <g transform="translate(163.56 46.528544) scale(0.07 -0.07)">
      <defs>
       <path id="ArialMT-34" d="M 2069 0 
L 2069 1097 
L 81 1097 
L 81 1613 
L 2172 4581 
L 2631 4581 
L 2631 1613 
L 3250 1613 
L 3250 1097 
L 2631 1097 
L 2631 0 
L 2069 0 
z
M 2069 1613 
L 2069 3678 
L 634 1613 
L 2069 1613 
z
" transform="scale(0.015625)"/>
      </defs>
      <use xlink:href="#ArialMT-34"/>
     </g>
    </g>
    <g id="PathCollection_16">
     <g>
      <use xlink:href="#mbc1b9b1f22" x="155.86" y="51.792763" style="fill: #70a6c9; stroke: #ffffff"/>
     </g>
    </g>
    <g id="text_6">
     <!-- 5 -->
     <g transform="translate(163.56 53.630263) scale(0.07 -0.07)">
      <defs>
       <path id="ArialMT-35" d="M 266 1200 
L 856 1250 
Q 922 819 1161 601 
Q 1400 384 1738 384 
Q 2144 384 2425 690 
Q 2706 997 2706 1503 
Q 2706 1984 2436 2262 
Q 2166 2541 1728 2541 
Q 1456 2541 1237 2417 
Q 1019 2294 894 2097 
L 366 2166 
L 809 4519 
L 3088 4519 
L 3088 3981 
L 1259 3981 
L 1013 2750 
Q 1425 3038 1878 3038 
Q 2478 3038 2890 2622 
Q 3303 2206 3303 1553 
Q 3303 931 2941 478 
Q 2500 -78 1738 -78 
Q 1113 -78 717 272 
Q 322 622 266 1200 
z
" transform="scale(0.015625)"/>
      </defs>
      <use xlink:href="#ArialMT-35"/>
     </g>
    </g>
    <g id="PathCollection_17">
     <g>
      <use xlink:href="#m108a0b9b51" x="155.86" y="58.894481" style="fill: #8abfe3; stroke: #ffffff"/>
     </g>
    </g>
    <g id="text_7">
     <!-- 6 -->
     <g transform="translate(163.56 60.731981) scale(0.07 -0.07)">
      <defs>
       <path id="ArialMT-36" d="M 3184 3459 
L 2625 3416 
Q 2550 3747 2413 3897 
Q 2184 4138 1850 4138 
Q 1581 4138 1378 3988 
Q 1113 3794 959 3422 
Q 806 3050 800 2363 
Q 1003 2672 1297 2822 
Q 1591 2972 1913 2972 
Q 2475 2972 2870 2558 
Q 3266 2144 3266 1488 
Q 3266 1056 3080 686 
Q 2894 316 2569 119 
Q 2244 -78 1831 -78 
Q 1128 -78 684 439 
Q 241 956 241 2144 
Q 241 3472 731 4075 
Q 1159 4600 1884 4600 
Q 2425 4600 2770 4297 
Q 3116 3994 3184 3459 
z
M 888 1484 
Q 888 1194 1011 928 
Q 1134 663 1356 523 
Q 1578 384 1822 384 
Q 2178 384 2434 671 
Q 2691 959 2691 1453 
Q 2691 1928 2437 2201 
Q 2184 2475 1800 2475 
Q 1419 2475 1153 2201 
Q 888 1928 888 1484 
z
" transform="scale(0.015625)"/>
      </defs>
      <use xlink:href="#ArialMT-36"/>
     </g>
    </g>
    <g id="PathCollection_18">
     <g>
      <use xlink:href="#m6e5cdc7baf" x="155.86" y="65.9962" style="fill: #a3d9fc; stroke: #ffffff"/>
     </g>
    </g>
    <g id="text_8">
     <!-- 7 -->
     <g transform="translate(163.56 67.8337) scale(0.07 -0.07)">
      <defs>
       <path id="ArialMT-37" d="M 303 3981 
L 303 4522 
L 3269 4522 
L 3269 4084 
Q 2831 3619 2401 2847 
Q 1972 2075 1738 1259 
Q 1569 684 1522 0 
L 944 0 
Q 953 541 1156 1306 
Q 1359 2072 1739 2783 
Q 2119 3494 2547 3981 
L 303 3981 
z
" transform="scale(0.015625)"/>
      </defs>
      <use xlink:href="#ArialMT-37"/>
     </g>
    </g>
    <g id="PathCollection_19">
     <g>
      <use xlink:href="#m0d4b51d150" x="155.86" y="73.097919" style="fill: #feebe2; stroke: #ffffff"/>
     </g>
    </g>
    <g id="text_9">
     <!-- 8 -->
     <g transform="translate(163.56 74.935419) scale(0.07 -0.07)">
      <defs>
       <path id="ArialMT-38" d="M 1131 2484 
Q 781 2613 612 2850 
Q 444 3088 444 3419 
Q 444 3919 803 4259 
Q 1163 4600 1759 4600 
Q 2359 4600 2725 4251 
Q 3091 3903 3091 3403 
Q 3091 3084 2923 2848 
Q 2756 2613 2416 2484 
Q 2838 2347 3058 2040 
Q 3278 1734 3278 1309 
Q 3278 722 2862 322 
Q 2447 -78 1769 -78 
Q 1091 -78 675 323 
Q 259 725 259 1325 
Q 259 1772 486 2073 
Q 713 2375 1131 2484 
z
M 1019 3438 
Q 1019 3113 1228 2906 
Q 1438 2700 1772 2700 
Q 2097 2700 2305 2904 
Q 2513 3109 2513 3406 
Q 2513 3716 2298 3927 
Q 2084 4138 1766 4138 
Q 1444 4138 1231 3931 
Q 1019 3725 1019 3438 
z
M 838 1322 
Q 838 1081 952 856 
Q 1066 631 1291 507 
Q 1516 384 1775 384 
Q 2178 384 2440 643 
Q 2703 903 2703 1303 
Q 2703 1709 2433 1975 
Q 2163 2241 1756 2241 
Q 1359 2241 1098 1978 
Q 838 1716 838 1322 
z
" transform="scale(0.015625)"/>
      </defs>
      <use xlink:href="#ArialMT-38"/>
     </g>
    </g>
    <g id="PathCollection_20">
     <g>
      <use xlink:href="#m36f86f90af" x="155.86" y="80.199638" style="fill: #fcc5c0; stroke: #ffffff"/>
     </g>
    </g>
    <g id="text_10">
     <!-- 9 -->
     <g transform="translate(163.56 82.037138) scale(0.07 -0.07)">
      <defs>
       <path id="ArialMT-39" d="M 350 1059 
L 891 1109 
Q 959 728 1153 556 
Q 1347 384 1650 384 
Q 1909 384 2104 503 
Q 2300 622 2425 820 
Q 2550 1019 2634 1356 
Q 2719 1694 2719 2044 
Q 2719 2081 2716 2156 
Q 2547 1888 2255 1720 
Q 1963 1553 1622 1553 
Q 1053 1553 659 1965 
Q 266 2378 266 3053 
Q 266 3750 677 4175 
Q 1088 4600 1706 4600 
Q 2153 4600 2523 4359 
Q 2894 4119 3086 3673 
Q 3278 3228 3278 2384 
Q 3278 1506 3087 986 
Q 2897 466 2520 194 
Q 2144 -78 1638 -78 
Q 1100 -78 759 220 
Q 419 519 350 1059 
z
M 2653 3081 
Q 2653 3566 2395 3850 
Q 2138 4134 1775 4134 
Q 1400 4134 1122 3828 
Q 844 3522 844 3034 
Q 844 2597 1108 2323 
Q 1372 2050 1759 2050 
Q 2150 2050 2401 2323 
Q 2653 2597 2653 3081 
z
" transform="scale(0.015625)"/>
      </defs>
      <use xlink:href="#ArialMT-39"/>
     </g>
    </g>
   </g>
  </g>
 </g>
 <defs>
  <clipPath id="pece126a047">
   <rect x="19.8" y="19.008" width="122.76" height="121.968"/>
  </clipPath>
 </defs>
</svg>
