<?xml version="1.0" encoding="utf-8" standalone="no"?>
<!DOCTYPE svg PUBLIC "-//W3C//DTD SVG 1.1//EN"
  "http://www.w3.org/Graphics/SVG/1.1/DTD/svg11.dtd">
<svg xmlns:xlink="http://www.w3.org/1999/xlink" width="158.4pt" height="158.4pt" viewBox="0 0 158.4 158.4" xmlns="http://www.w3.org/2000/svg" version="1.1">
 <metadata>
  <rdf:RDF xmlns:dc="http://purl.org/dc/elements/1.1/" xmlns:cc="http://creativecommons.org/ns#" xmlns:rdf="http://www.w3.org/1999/02/22-rdf-syntax-ns#">
   <cc:Work>
    <dc:type rdf:resource="http://purl.org/dc/dcmitype/StillImage"/>
    <dc:date>2025-08-25T18:57:20.504355</dc:date>
    <dc:format>image/svg+xml</dc:format>
    <dc:creator>
     <cc:Agent>
      <dc:title>Matplotlib v3.8.4, https://matplotlib.org/</dc:title>
     </cc:Agent>
    </dc:creator>
   </cc:Work>
  </rdf:RDF>
 </metadata>
 <defs>
  <style type="text/css">*{stroke-linejoin: round; stroke-linecap: butt}</style>
 </defs>
 <g id="figure_1">
  <g id="patch_1">
   <path d="M 0 158.4 
L 158.4 158.4 
L 158.4 0 
L 0 0 
L 0 158.4 
z
" style="fill: none"/>
  </g>
  <g id="axes_1">
   <g id="PathCollection_1">
    <defs>
     <path id="m08e4c5915a" d="M 0 2.236068 
C 0.593012 2.236068 1.161816 2.000462 1.581139 1.581139 
C 2.000462 1.161816 2.236068 0.593012 2.236068 0 
C 2.236068 -0.593012 2.000462 -1.161816 1.581139 -1.581139 
C 1.161816 -2.000462 0.593012 -2.236068 0 -2.236068 
C -0.593012 -2.236068 -1.161816 -2.000462 -1.581139 -1.581139 
C -2.000462 -1.161816 -2.236068 -0.593012 -2.236068 0 
C -2.236068 0.593012 -2.000462 1.161816 -1.581139 1.581139 
C -1.161816 2.000462 -0.593012 2.236068 0 2.236068 
z
" style="stroke: #ffffff"/>
    </defs>
    <g clip-path="url(#p96be9be56f)">
     <use xlink:href="#m08e4c5915a" x="82.141477" y="68.266582" style="fill: #e6b24c; stroke: #ffffff"/>
     <use xlink:href="#m08e4c5915a" x="82.237719" y="71.087626" style="fill: #e6b24c; stroke: #ffffff"/>
     <use xlink:href="#m08e4c5915a" x="76.925415" y="72.02594" style="fill: #e6b24c; stroke: #ffffff"/>
     <use xlink:href="#m08e4c5915a" x="81.719472" y="69.269718" style="fill: #e6b24c; stroke: #ffffff"/>
     <use xlink:href="#m08e4c5915a" x="81.996064" y="75.217075" style="fill: #e6b24c; stroke: #ffffff"/>
     <use xlink:href="#m08e4c5915a" x="75.775285" y="70.102998" style="fill: #e6b24c; stroke: #ffffff"/>
     <use xlink:href="#m08e4c5915a" x="79.262187" y="86.568379" style="fill: #e6b24c; stroke: #ffffff"/>
     <use xlink:href="#m08e4c5915a" x="70.612458" y="72.716951" style="fill: #e6b24c; stroke: #ffffff"/>
     <use xlink:href="#m08e4c5915a" x="58.893337" y="67.366487" style="fill: #e6b24c; stroke: #ffffff"/>
     <use xlink:href="#m08e4c5915a" x="64.036859" y="67.769337" style="fill: #e6b24c; stroke: #ffffff"/>
     <use xlink:href="#m08e4c5915a" x="70.348905" y="68.326033" style="fill: #e6b24c; stroke: #ffffff"/>
     <use xlink:href="#m08e4c5915a" x="64.490973" y="78.855798" style="fill: #e6b24c; stroke: #ffffff"/>
     <use xlink:href="#m08e4c5915a" x="62.522275" y="76.699676" style="fill: #e6b24c; stroke: #ffffff"/>
     <use xlink:href="#m08e4c5915a" x="78.36289" y="79.466972" style="fill: #e6b24c; stroke: #ffffff"/>
     <use xlink:href="#m08e4c5915a" x="58.070938" y="69.095744" style="fill: #e6b24c; stroke: #ffffff"/>
     <use xlink:href="#m08e4c5915a" x="78.535379" y="76.539633" style="fill: #e6b24c; stroke: #ffffff"/>
     <use xlink:href="#m08e4c5915a" x="77.772842" y="70.419611" style="fill: #e6b24c; stroke: #ffffff"/>
     <use xlink:href="#m08e4c5915a" x="59.097305" y="72.937734" style="fill: #e6b24c; stroke: #ffffff"/>
     <use xlink:href="#m08e4c5915a" x="69.015827" y="75.800167" style="fill: #e6b24c; stroke: #ffffff"/>
    </g>
   </g>
   <g id="PathCollection_2">
    <defs>
     <path id="m787ab69d14" d="M 0 2.236068 
C 0.593012 2.236068 1.161816 2.000462 1.581139 1.581139 
C 2.000462 1.161816 2.236068 0.593012 2.236068 0 
C 2.236068 -0.593012 2.000462 -1.161816 1.581139 -1.581139 
C 1.161816 -2.000462 0.593012 -2.236068 0 -2.236068 
C -0.593012 -2.236068 -1.161816 -2.000462 -1.581139 -1.581139 
C -2.000462 -1.161816 -2.236068 -0.593012 -2.236068 0 
C -2.236068 0.593012 -2.000462 1.161816 -1.581139 1.581139 
C -1.161816 2.000462 -0.593012 2.236068 0 2.236068 
z
" style="stroke: #ffffff"/>
    </defs>
    <g clip-path="url(#p96be9be56f)">
     <use xlink:href="#m787ab69d14" x="50.080911" y="66.059831" style="fill: #ccb233; stroke: #ffffff"/>
     <use xlink:href="#m787ab69d14" x="29.254005" y="91.529608" style="fill: #ccb233; stroke: #ffffff"/>
     <use xlink:href="#m787ab69d14" x="25.38" y="96.243207" style="fill: #ccb233; stroke: #ffffff"/>
     <use xlink:href="#m787ab69d14" x="27.935758" y="92.881727" style="fill: #ccb233; stroke: #ffffff"/>
     <use xlink:href="#m787ab69d14" x="26.087514" y="94.911728" style="fill: #ccb233; stroke: #ffffff"/>
     <use xlink:href="#m787ab69d14" x="33.161298" y="80.424219" style="fill: #ccb233; stroke: #ffffff"/>
     <use xlink:href="#m787ab69d14" x="51.178591" y="66.936972" style="fill: #ccb233; stroke: #ffffff"/>
     <use xlink:href="#m787ab69d14" x="51.890563" y="66.141486" style="fill: #ccb233; stroke: #ffffff"/>
     <use xlink:href="#m787ab69d14" x="37.046626" y="65.747991" style="fill: #ccb233; stroke: #ffffff"/>
     <use xlink:href="#m787ab69d14" x="39.493768" y="69.312574" style="fill: #ccb233; stroke: #ffffff"/>
     <use xlink:href="#m787ab69d14" x="40.471537" y="67.90949" style="fill: #ccb233; stroke: #ffffff"/>
     <use xlink:href="#m787ab69d14" x="30.347755" y="85.03399" style="fill: #ccb233; stroke: #ffffff"/>
     <use xlink:href="#m787ab69d14" x="38.018591" y="74.240905" style="fill: #ccb233; stroke: #ffffff"/>
     <use xlink:href="#m787ab69d14" x="36.885765" y="67.359987" style="fill: #ccb233; stroke: #ffffff"/>
     <use xlink:href="#m787ab69d14" x="43.498391" y="67.647233" style="fill: #ccb233; stroke: #ffffff"/>
     <use xlink:href="#m787ab69d14" x="40.825825" y="64.749588" style="fill: #ccb233; stroke: #ffffff"/>
     <use xlink:href="#m787ab69d14" x="45.059512" y="68.548987" style="fill: #ccb233; stroke: #ffffff"/>
     <use xlink:href="#m787ab69d14" x="42.672717" y="67.133958" style="fill: #ccb233; stroke: #ffffff"/>
     <use xlink:href="#m787ab69d14" x="28.878876" y="86.212019" style="fill: #ccb233; stroke: #ffffff"/>
    </g>
   </g>
   <g id="PathCollection_3">
    <defs>
     <path id="md4ee2b367d" d="M 0 2.236068 
C 0.593012 2.236068 1.161816 2.000462 1.581139 1.581139 
C 2.000462 1.161816 2.236068 0.593012 2.236068 0 
C 2.236068 -0.593012 2.000462 -1.161816 1.581139 -1.581139 
C 1.161816 -2.000462 0.593012 -2.236068 0 -2.236068 
C -0.593012 -2.236068 -1.161816 -2.000462 -1.581139 -1.581139 
C -2.000462 -1.161816 -2.236068 -0.593012 -2.236068 0 
C -2.236068 0.593012 -2.000462 1.161816 -1.581139 1.581139 
C -1.161816 2.000462 -0.593012 2.236068 0 2.236068 
z
" style="stroke: #ffffff"/>
    </defs>
    <g clip-path="url(#p96be9be56f)">
     <use xlink:href="#md4ee2b367d" x="77.728636" y="98.88807" style="fill: #ccbf33; stroke: #ffffff"/>
     <use xlink:href="#md4ee2b367d" x="75.065196" y="106.379493" style="fill: #ccbf33; stroke: #ffffff"/>
     <use xlink:href="#md4ee2b367d" x="47.732175" y="80.461599" style="fill: #ccbf33; stroke: #ffffff"/>
     <use xlink:href="#md4ee2b367d" x="50.132087" y="84.954859" style="fill: #ccbf33; stroke: #ffffff"/>
     <use xlink:href="#md4ee2b367d" x="70.010129" y="110.818639" style="fill: #ccbf33; stroke: #ffffff"/>
     <use xlink:href="#md4ee2b367d" x="73.003109" y="101.995605" style="fill: #ccbf33; stroke: #ffffff"/>
     <use xlink:href="#md4ee2b367d" x="75.344651" y="99.587887" style="fill: #ccbf33; stroke: #ffffff"/>
     <use xlink:href="#md4ee2b367d" x="51.701985" y="90.138102" style="fill: #ccbf33; stroke: #ffffff"/>
     <use xlink:href="#md4ee2b367d" x="69.126695" y="111.443798" style="fill: #ccbf33; stroke: #ffffff"/>
     <use xlink:href="#md4ee2b367d" x="47.459532" y="81.532709" style="fill: #ccbf33; stroke: #ffffff"/>
     <use xlink:href="#md4ee2b367d" x="48.787171" y="86.655903" style="fill: #ccbf33; stroke: #ffffff"/>
     <use xlink:href="#md4ee2b367d" x="48.164062" y="86.68785" style="fill: #ccbf33; stroke: #ffffff"/>
     <use xlink:href="#md4ee2b367d" x="72.490133" y="107.848032" style="fill: #ccbf33; stroke: #ffffff"/>
     <use xlink:href="#md4ee2b367d" x="46.774406" y="84.821636" style="fill: #ccbf33; stroke: #ffffff"/>
     <use xlink:href="#md4ee2b367d" x="56.973172" y="77.996429" style="fill: #ccbf33; stroke: #ffffff"/>
    </g>
   </g>
   <g id="PathCollection_4">
    <defs>
     <path id="mc2f0739d94" d="M 0 2.236068 
C 0.593012 2.236068 1.161816 2.000462 1.581139 1.581139 
C 2.000462 1.161816 2.236068 0.593012 2.236068 0 
C 2.236068 -0.593012 2.000462 -1.161816 1.581139 -1.581139 
C 1.161816 -2.000462 0.593012 -2.236068 0 -2.236068 
C -0.593012 -2.236068 -1.161816 -2.000462 -1.581139 -1.581139 
C -2.000462 -1.161816 -2.236068 -0.593012 -2.236068 0 
C -2.236068 0.593012 -2.000462 1.161816 -1.581139 1.581139 
C -1.161816 2.000462 -0.593012 2.236068 0 2.236068 
z
" style="stroke: #ffffff"/>
    </defs>
    <g clip-path="url(#p96be9be56f)">
     <use xlink:href="#mc2f0739d94" x="62.879695" y="95.24852" style="fill: #ff0000; stroke: #ffffff"/>
     <use xlink:href="#mc2f0739d94" x="66.215717" y="95.648444" style="fill: #ff0000; stroke: #ffffff"/>
     <use xlink:href="#mc2f0739d94" x="63.675782" y="90.723299" style="fill: #ff0000; stroke: #ffffff"/>
     <use xlink:href="#mc2f0739d94" x="65.451036" y="88.262113" style="fill: #ff0000; stroke: #ffffff"/>
     <use xlink:href="#mc2f0739d94" x="63.177855" y="89.774837" style="fill: #ff0000; stroke: #ffffff"/>
     <use xlink:href="#mc2f0739d94" x="64.685957" y="87.003746" style="fill: #ff0000; stroke: #ffffff"/>
     <use xlink:href="#mc2f0739d94" x="63.835294" y="90.800872" style="fill: #ff0000; stroke: #ffffff"/>
     <use xlink:href="#mc2f0739d94" x="70.047142" y="96.00114" style="fill: #ff0000; stroke: #ffffff"/>
    </g>
   </g>
   <g id="PathCollection_5">
    <defs>
     <path id="m0991d7d03f" d="M 0 2.236068 
C 0.593012 2.236068 1.161816 2.000462 1.581139 1.581139 
C 2.000462 1.161816 2.236068 0.593012 2.236068 0 
C 2.236068 -0.593012 2.000462 -1.161816 1.581139 -1.581139 
C 1.161816 -2.000462 0.593012 -2.236068 0 -2.236068 
C -0.593012 -2.236068 -1.161816 -2.000462 -1.581139 -1.581139 
C -2.000462 -1.161816 -2.236068 -0.593012 -2.236068 0 
C -2.236068 0.593012 -2.000462 1.161816 -1.581139 1.581139 
C -1.161816 2.000462 -0.593012 2.236068 0 2.236068 
z
" style="stroke: #ffffff"/>
    </defs>
    <g clip-path="url(#p96be9be56f)">
     <use xlink:href="#m0991d7d03f" x="79.181676" y="128.235701" style="fill: #544a94; stroke: #ffffff"/>
     <use xlink:href="#m0991d7d03f" x="55.955922" y="127.477687" style="fill: #544a94; stroke: #ffffff"/>
     <use xlink:href="#m0991d7d03f" x="57.322614" y="126.642157" style="fill: #544a94; stroke: #ffffff"/>
     <use xlink:href="#m0991d7d03f" x="51.247729" y="129.300531" style="fill: #544a94; stroke: #ffffff"/>
     <use xlink:href="#m0991d7d03f" x="77.76295" y="125.728126" style="fill: #544a94; stroke: #ffffff"/>
     <use xlink:href="#m0991d7d03f" x="80.093939" y="124.336789" style="fill: #544a94; stroke: #ffffff"/>
     <use xlink:href="#m0991d7d03f" x="79.039767" y="125.749828" style="fill: #544a94; stroke: #ffffff"/>
     <use xlink:href="#m0991d7d03f" x="73.34684" y="123.753047" style="fill: #544a94; stroke: #ffffff"/>
     <use xlink:href="#m0991d7d03f" x="55.673101" y="125.700112" style="fill: #544a94; stroke: #ffffff"/>
     <use xlink:href="#m0991d7d03f" x="61.858677" y="121.81176" style="fill: #544a94; stroke: #ffffff"/>
     <use xlink:href="#m0991d7d03f" x="66.272899" y="128.244177" style="fill: #544a94; stroke: #ffffff"/>
     <use xlink:href="#m0991d7d03f" x="70.71027" y="120.238898" style="fill: #544a94; stroke: #ffffff"/>
     <use xlink:href="#m0991d7d03f" x="55.434635" y="130.744285" style="fill: #544a94; stroke: #ffffff"/>
     <use xlink:href="#m0991d7d03f" x="59.151803" y="129.041109" style="fill: #544a94; stroke: #ffffff"/>
     <use xlink:href="#m0991d7d03f" x="63.411516" y="134.863151" style="fill: #544a94; stroke: #ffffff"/>
     <use xlink:href="#m0991d7d03f" x="62.10011" y="135.432" style="fill: #544a94; stroke: #ffffff"/>
     <use xlink:href="#m0991d7d03f" x="62.624057" y="131.320344" style="fill: #544a94; stroke: #ffffff"/>
     <use xlink:href="#m0991d7d03f" x="65.889127" y="122.602499" style="fill: #544a94; stroke: #ffffff"/>
     <use xlink:href="#m0991d7d03f" x="71.626169" y="131.698428" style="fill: #544a94; stroke: #ffffff"/>
     <use xlink:href="#m0991d7d03f" x="62.605604" y="129.174675" style="fill: #544a94; stroke: #ffffff"/>
     <use xlink:href="#m0991d7d03f" x="66.30594" y="128.829905" style="fill: #544a94; stroke: #ffffff"/>
     <use xlink:href="#m0991d7d03f" x="80.80613" y="125.919034" style="fill: #544a94; stroke: #ffffff"/>
     <use xlink:href="#m0991d7d03f" x="68.934561" y="128.049705" style="fill: #544a94; stroke: #ffffff"/>
     <use xlink:href="#m0991d7d03f" x="78.138133" y="124.497696" style="fill: #544a94; stroke: #ffffff"/>
     <use xlink:href="#m0991d7d03f" x="55.594485" y="122.910231" style="fill: #544a94; stroke: #ffffff"/>
     <use xlink:href="#m0991d7d03f" x="60.754231" y="130.149109" style="fill: #544a94; stroke: #ffffff"/>
     <use xlink:href="#m0991d7d03f" x="76.154821" y="128.457128" style="fill: #544a94; stroke: #ffffff"/>
    </g>
   </g>
   <g id="PathCollection_6">
    <defs>
     <path id="mde62710aa7" d="M 0 2.236068 
C 0.593012 2.236068 1.161816 2.000462 1.581139 1.581139 
C 2.000462 1.161816 2.236068 0.593012 2.236068 0 
C 2.236068 -0.593012 2.000462 -1.161816 1.581139 -1.581139 
C 1.161816 -2.000462 0.593012 -2.236068 0 -2.236068 
C -0.593012 -2.236068 -1.161816 -2.000462 -1.581139 -1.581139 
C -2.000462 -1.161816 -2.236068 -0.593012 -2.236068 0 
C -2.236068 0.593012 -2.000462 1.161816 -1.581139 1.581139 
C -1.161816 2.000462 -0.593012 2.236068 0 2.236068 
z
" style="stroke: #ffffff"/>
    </defs>
    <g clip-path="url(#p96be9be56f)">
     <use xlink:href="#mde62710aa7" x="136.087517" y="27.345761" style="fill: #70a6c9; stroke: #ffffff"/>
     <use xlink:href="#mde62710aa7" x="133.188382" y="28.472365" style="fill: #70a6c9; stroke: #ffffff"/>
     <use xlink:href="#mde62710aa7" x="133.532599" y="29.547261" style="fill: #70a6c9; stroke: #ffffff"/>
     <use xlink:href="#mde62710aa7" x="131.23628" y="27.166505" style="fill: #70a6c9; stroke: #ffffff"/>
     <use xlink:href="#mde62710aa7" x="131.113782" y="27.642953" style="fill: #70a6c9; stroke: #ffffff"/>
     <use xlink:href="#mde62710aa7" x="134.764747" y="24.552" style="fill: #70a6c9; stroke: #ffffff"/>
     <use xlink:href="#mde62710aa7" x="136.403238" y="28.287119" style="fill: #70a6c9; stroke: #ffffff"/>
     <use xlink:href="#mde62710aa7" x="136.98" y="26.706381" style="fill: #70a6c9; stroke: #ffffff"/>
    </g>
   </g>
   <g id="PathCollection_7">
    <defs>
     <path id="ma6aedbd788" d="M 0 2.236068 
C 0.593012 2.236068 1.161816 2.000462 1.581139 1.581139 
C 2.000462 1.161816 2.236068 0.593012 2.236068 0 
C 2.236068 -0.593012 2.000462 -1.161816 1.581139 -1.581139 
C 1.161816 -2.000462 0.593012 -2.236068 0 -2.236068 
C -0.593012 -2.236068 -1.161816 -2.000462 -1.581139 -1.581139 
C -2.000462 -1.161816 -2.236068 -0.593012 -2.236068 0 
C -2.236068 0.593012 -2.000462 1.161816 -1.581139 1.581139 
C -1.161816 2.000462 -0.593012 2.236068 0 2.236068 
z
" style="stroke: #ffffff"/>
    </defs>
    <g clip-path="url(#p96be9be56f)">
     <use xlink:href="#ma6aedbd788" x="32.106679" y="104.156253" style="fill: #8abfe3; stroke: #ffffff"/>
     <use xlink:href="#ma6aedbd788" x="36.012933" y="112.554996" style="fill: #8abfe3; stroke: #ffffff"/>
     <use xlink:href="#ma6aedbd788" x="32.713942" y="118.488143" style="fill: #8abfe3; stroke: #ffffff"/>
     <use xlink:href="#ma6aedbd788" x="33.155585" y="102.520589" style="fill: #8abfe3; stroke: #ffffff"/>
     <use xlink:href="#ma6aedbd788" x="41.590313" y="114.520676" style="fill: #8abfe3; stroke: #ffffff"/>
     <use xlink:href="#ma6aedbd788" x="44.400531" y="118.049863" style="fill: #8abfe3; stroke: #ffffff"/>
     <use xlink:href="#ma6aedbd788" x="36.962274" y="115.781105" style="fill: #8abfe3; stroke: #ffffff"/>
     <use xlink:href="#ma6aedbd788" x="38.661873" y="120.425381" style="fill: #8abfe3; stroke: #ffffff"/>
     <use xlink:href="#ma6aedbd788" x="30.084372" y="117.109804" style="fill: #8abfe3; stroke: #ffffff"/>
     <use xlink:href="#ma6aedbd788" x="27.626383" y="109.198272" style="fill: #8abfe3; stroke: #ffffff"/>
     <use xlink:href="#ma6aedbd788" x="37.760261" y="107.952359" style="fill: #8abfe3; stroke: #ffffff"/>
     <use xlink:href="#ma6aedbd788" x="30.53108" y="111.397082" style="fill: #8abfe3; stroke: #ffffff"/>
     <use xlink:href="#ma6aedbd788" x="26.079269" y="110.064642" style="fill: #8abfe3; stroke: #ffffff"/>
     <use xlink:href="#ma6aedbd788" x="44.816055" y="122.567389" style="fill: #8abfe3; stroke: #ffffff"/>
     <use xlink:href="#ma6aedbd788" x="38.32189" y="119.56819" style="fill: #8abfe3; stroke: #ffffff"/>
     <use xlink:href="#ma6aedbd788" x="32.71585" y="110.299843" style="fill: #8abfe3; stroke: #ffffff"/>
     <use xlink:href="#ma6aedbd788" x="38.769416" y="116.697308" style="fill: #8abfe3; stroke: #ffffff"/>
     <use xlink:href="#ma6aedbd788" x="26.073493" y="102.898489" style="fill: #8abfe3; stroke: #ffffff"/>
     <use xlink:href="#ma6aedbd788" x="26.982647" y="102.431359" style="fill: #8abfe3; stroke: #ffffff"/>
     <use xlink:href="#ma6aedbd788" x="43.487212" y="122.579498" style="fill: #8abfe3; stroke: #ffffff"/>
     <use xlink:href="#ma6aedbd788" x="28.809709" y="105.271573" style="fill: #8abfe3; stroke: #ffffff"/>
     <use xlink:href="#ma6aedbd788" x="32.709427" y="114.666287" style="fill: #8abfe3; stroke: #ffffff"/>
     <use xlink:href="#ma6aedbd788" x="50.231283" y="123.680578" style="fill: #8abfe3; stroke: #ffffff"/>
     <use xlink:href="#ma6aedbd788" x="26.558386" y="106.077123" style="fill: #8abfe3; stroke: #ffffff"/>
     <use xlink:href="#ma6aedbd788" x="40.873463" y="116.905864" style="fill: #8abfe3; stroke: #ffffff"/>
     <use xlink:href="#ma6aedbd788" x="29.140045" y="101.133766" style="fill: #8abfe3; stroke: #ffffff"/>
    </g>
   </g>
   <g id="legend_1">
    <g id="PathCollection_8">
     <g>
      <use xlink:href="#m08e4c5915a" x="155.86" y="16.284169" style="fill: #e6b24c; stroke: #ffffff"/>
     </g>
    </g>
    <g id="text_1">
     <!-- 0 -->
     <g transform="translate(163.56 18.121669) scale(0.07 -0.07)">
      <defs>
       <path id="ArialMT-30" d="M 266 2259 
Q 266 3072 433 3567 
Q 600 4063 929 4331 
Q 1259 4600 1759 4600 
Q 2128 4600 2406 4451 
Q 2684 4303 2865 4023 
Q 3047 3744 3150 3342 
Q 3253 2941 3253 2259 
Q 3253 1453 3087 958 
Q 2922 463 2592 192 
Q 2263 -78 1759 -78 
Q 1097 -78 719 397 
Q 266 969 266 2259 
z
M 844 2259 
Q 844 1131 1108 757 
Q 1372 384 1759 384 
Q 2147 384 2411 759 
Q 2675 1134 2675 2259 
Q 2675 3391 2411 3762 
Q 2147 4134 1753 4134 
Q 1366 4134 1134 3806 
Q 844 3388 844 2259 
z
" transform="scale(0.015625)"/>
      </defs>
      <use xlink:href="#ArialMT-30"/>
     </g>
    </g>
    <g id="PathCollection_9">
     <g>
      <use xlink:href="#m787ab69d14" x="155.86" y="23.385888" style="fill: #ccb233; stroke: #ffffff"/>
     </g>
    </g>
    <g id="text_2">
     <!-- 1 -->
     <g transform="translate(163.56 25.223388) scale(0.07 -0.07)">
      <defs>
       <path id="ArialMT-31" d="M 2384 0 
L 1822 0 
L 1822 3584 
Q 1619 3391 1289 3197 
Q 959 3003 697 2906 
L 697 3450 
Q 1169 3672 1522 3987 
Q 1875 4303 2022 4600 
L 2384 4600 
L 2384 0 
z
" transform="scale(0.015625)"/>
      </defs>
      <use xlink:href="#ArialMT-31"/>
     </g>
    </g>
    <g id="PathCollection_10">
     <g>
      <use xlink:href="#md4ee2b367d" x="155.86" y="30.487606" style="fill: #ccbf33; stroke: #ffffff"/>
     </g>
    </g>
    <g id="text_3">
     <!-- 2 -->
     <g transform="translate(163.56 32.325106) scale(0.07 -0.07)">
      <defs>
       <path id="ArialMT-32" d="M 3222 541 
L 3222 0 
L 194 0 
Q 188 203 259 391 
Q 375 700 629 1000 
Q 884 1300 1366 1694 
Q 2113 2306 2375 2664 
Q 2638 3022 2638 3341 
Q 2638 3675 2398 3904 
Q 2159 4134 1775 4134 
Q 1369 4134 1125 3890 
Q 881 3647 878 3216 
L 300 3275 
Q 359 3922 746 4261 
Q 1134 4600 1788 4600 
Q 2447 4600 2831 4234 
Q 3216 3869 3216 3328 
Q 3216 3053 3103 2787 
Q 2991 2522 2730 2228 
Q 2469 1934 1863 1422 
Q 1356 997 1212 845 
Q 1069 694 975 541 
L 3222 541 
z
" transform="scale(0.015625)"/>
      </defs>
      <use xlink:href="#ArialMT-32"/>
     </g>
    </g>
    <g id="PathCollection_11">
     <g>
      <use xlink:href="#mc2f0739d94" x="155.86" y="37.589325" style="fill: #ff0000; stroke: #ffffff"/>
     </g>
    </g>
    <g id="text_4">
     <!-- 3 -->
     <g transform="translate(163.56 39.426825) scale(0.07 -0.07)">
      <defs>
       <path id="ArialMT-33" d="M 269 1209 
L 831 1284 
Q 928 806 1161 595 
Q 1394 384 1728 384 
Q 2125 384 2398 659 
Q 2672 934 2672 1341 
Q 2672 1728 2419 1979 
Q 2166 2231 1775 2231 
Q 1616 2231 1378 2169 
L 1441 2663 
Q 1497 2656 1531 2656 
Q 1891 2656 2178 2843 
Q 2466 3031 2466 3422 
Q 2466 3731 2256 3934 
Q 2047 4138 1716 4138 
Q 1388 4138 1169 3931 
Q 950 3725 888 3313 
L 325 3413 
Q 428 3978 793 4289 
Q 1159 4600 1703 4600 
Q 2078 4600 2393 4439 
Q 2709 4278 2876 4000 
Q 3044 3722 3044 3409 
Q 3044 3113 2884 2869 
Q 2725 2625 2413 2481 
Q 2819 2388 3044 2092 
Q 3269 1797 3269 1353 
Q 3269 753 2831 336 
Q 2394 -81 1725 -81 
Q 1122 -81 723 278 
Q 325 638 269 1209 
z
" transform="scale(0.015625)"/>
      </defs>
      <use xlink:href="#ArialMT-33"/>
     </g>
    </g>
    <g id="PathCollection_12">
     <g>
      <use xlink:href="#m0991d7d03f" x="155.86" y="44.691044" style="fill: #544a94; stroke: #ffffff"/>
     </g>
    </g>
    <g id="text_5">
     <!-- 4 -->
     <g transform="translate(163.56 46.528544) scale(0.07 -0.07)">
      <defs>
       <path id="ArialMT-34" d="M 2069 0 
L 2069 1097 
L 81 1097 
L 81 1613 
L 2172 4581 
L 2631 4581 
L 2631 1613 
L 3250 1613 
L 3250 1097 
L 2631 1097 
L 2631 0 
L 2069 0 
z
M 2069 1613 
L 2069 3678 
L 634 1613 
L 2069 1613 
z
" transform="scale(0.015625)"/>
      </defs>
      <use xlink:href="#ArialMT-34"/>
     </g>
    </g>
    <g id="PathCollection_13">
     <g>
      <use xlink:href="#mde62710aa7" x="155.86" y="51.792763" style="fill: #70a6c9; stroke: #ffffff"/>
     </g>
    </g>
    <g id="text_6">
     <!-- 5 -->
     <g transform="translate(163.56 53.630263) scale(0.07 -0.07)">
      <defs>
       <path id="ArialMT-35" d="M 266 1200 
L 856 1250 
Q 922 819 1161 601 
Q 1400 384 1738 384 
Q 2144 384 2425 690 
Q 2706 997 2706 1503 
Q 2706 1984 2436 2262 
Q 2166 2541 1728 2541 
Q 1456 2541 1237 2417 
Q 1019 2294 894 2097 
L 366 2166 
L 809 4519 
L 3088 4519 
L 3088 3981 
L 1259 3981 
L 1013 2750 
Q 1425 3038 1878 3038 
Q 2478 3038 2890 2622 
Q 3303 2206 3303 1553 
Q 3303 931 2941 478 
Q 2500 -78 1738 -78 
Q 1113 -78 717 272 
Q 322 622 266 1200 
z
" transform="scale(0.015625)"/>
      </defs>
      <use xlink:href="#ArialMT-35"/>
     </g>
    </g>
    <g id="PathCollection_14">
     <g>
      <use xlink:href="#ma6aedbd788" x="155.86" y="58.894481" style="fill: #8abfe3; stroke: #ffffff"/>
     </g>
    </g>
    <g id="text_7">
     <!-- 6 -->
     <g transform="translate(163.56 60.731981) scale(0.07 -0.07)">
      <defs>
       <path id="ArialMT-36" d="M 3184 3459 
L 2625 3416 
Q 2550 3747 2413 3897 
Q 2184 4138 1850 4138 
Q 1581 4138 1378 3988 
Q 1113 3794 959 3422 
Q 806 3050 800 2363 
Q 1003 2672 1297 2822 
Q 1591 2972 1913 2972 
Q 2475 2972 2870 2558 
Q 3266 2144 3266 1488 
Q 3266 1056 3080 686 
Q 2894 316 2569 119 
Q 2244 -78 1831 -78 
Q 1128 -78 684 439 
Q 241 956 241 2144 
Q 241 3472 731 4075 
Q 1159 4600 1884 4600 
Q 2425 4600 2770 4297 
Q 3116 3994 3184 3459 
z
M 888 1484 
Q 888 1194 1011 928 
Q 1134 663 1356 523 
Q 1578 384 1822 384 
Q 2178 384 2434 671 
Q 2691 959 2691 1453 
Q 2691 1928 2437 2201 
Q 2184 2475 1800 2475 
Q 1419 2475 1153 2201 
Q 888 1928 888 1484 
z
" transform="scale(0.015625)"/>
      </defs>
      <use xlink:href="#ArialMT-36"/>
     </g>
    </g>
   </g>
  </g>
 </g>
 <defs>
  <clipPath id="p96be9be56f">
   <rect x="19.8" y="19.008" width="122.76" height="121.968"/>
  </clipPath>
 </defs>
</svg>
