<?xml version="1.0" encoding="utf-8" standalone="no"?>
<!DOCTYPE svg PUBLIC "-//W3C//DTD SVG 1.1//EN"
  "http://www.w3.org/Graphics/SVG/1.1/DTD/svg11.dtd">
<svg xmlns:xlink="http://www.w3.org/1999/xlink" width="260.850715pt" height="112.867825pt" viewBox="0 0 260.850715 112.867825" xmlns="http://www.w3.org/2000/svg" version="1.1">
 <metadata>
  <rdf:RDF xmlns:dc="http://purl.org/dc/elements/1.1/" xmlns:cc="http://creativecommons.org/ns#" xmlns:rdf="http://www.w3.org/1999/02/22-rdf-syntax-ns#">
   <cc:Work>
    <dc:type rdf:resource="http://purl.org/dc/dcmitype/StillImage"/>
    <dc:date>2024-10-25T10:43:31.784434</dc:date>
    <dc:format>image/svg+xml</dc:format>
    <dc:creator>
     <cc:Agent>
      <dc:title>Matplotlib v3.8.4, https://matplotlib.org/</dc:title>
     </cc:Agent>
    </dc:creator>
   </cc:Work>
  </rdf:RDF>
 </metadata>
 <defs>
  <style type="text/css">*{stroke-linejoin: round; stroke-linecap: butt}</style>
 </defs>
 <g id="figure_1">
  <g id="patch_1">
   <path d="M 0 112.867825 
L 260.850715 112.867825 
L 260.850715 0 
L 0 0 
L 0 112.867825 
z
" style="fill: none"/>
  </g>
  <g id="axes_1">
   <g id="patch_2">
    <path d="M 40.181831 79.654875 
L 89.493459 79.654875 
L 89.493459 18.670875 
L 40.181831 18.670875 
L 40.181831 79.654875 
z
" style="fill: none"/>
   </g>
   <g id="matplotlib.axis_1">
    <g id="xtick_1">
     <g id="line2d_1">
      <defs>
       <path id="mfbb69323fc" d="M 0 0 
L 0 3.85 
" style="stroke: #000000; stroke-width: 0.5"/>
      </defs>
      <g>
       <use xlink:href="#mfbb69323fc" x="40.181831" y="82.704075" style="stroke: #000000; stroke-width: 0.5"/>
      </g>
     </g>
     <g id="text_1">
      <!-- 0 -->
      <g transform="translate(38.273081 94.613137) scale(0.06 -0.06)">
       <defs>
        <path id="DejaVuSans-30" d="M 2034 4250 
Q 1547 4250 1301 3770 
Q 1056 3291 1056 2328 
Q 1056 1369 1301 889 
Q 1547 409 2034 409 
Q 2525 409 2770 889 
Q 3016 1369 3016 2328 
Q 3016 3291 2770 3770 
Q 2525 4250 2034 4250 
z
M 2034 4750 
Q 2819 4750 3233 4129 
Q 3647 3509 3647 2328 
Q 3647 1150 3233 529 
Q 2819 -91 2034 -91 
Q 1250 -91 836 529 
Q 422 1150 422 2328 
Q 422 3509 836 4129 
Q 1250 4750 2034 4750 
z
" transform="scale(0.015625)"/>
       </defs>
       <use xlink:href="#DejaVuSans-30"/>
      </g>
     </g>
    </g>
    <g id="xtick_2">
     <g id="line2d_2">
      <g>
       <use xlink:href="#mfbb69323fc" x="77.903482" y="82.704075" style="stroke: #000000; stroke-width: 0.5"/>
      </g>
     </g>
     <g id="text_2">
      <!-- 200 -->
      <g transform="translate(72.177232 94.613137) scale(0.06 -0.06)">
       <defs>
        <path id="DejaVuSans-32" d="M 1228 531 
L 3431 531 
L 3431 0 
L 469 0 
L 469 531 
Q 828 903 1448 1529 
Q 2069 2156 2228 2338 
Q 2531 2678 2651 2914 
Q 2772 3150 2772 3378 
Q 2772 3750 2511 3984 
Q 2250 4219 1831 4219 
Q 1534 4219 1204 4116 
Q 875 4013 500 3803 
L 500 4441 
Q 881 4594 1212 4672 
Q 1544 4750 1819 4750 
Q 2544 4750 2975 4387 
Q 3406 4025 3406 3419 
Q 3406 3131 3298 2873 
Q 3191 2616 2906 2266 
Q 2828 2175 2409 1742 
Q 1991 1309 1228 531 
z
" transform="scale(0.015625)"/>
       </defs>
       <use xlink:href="#DejaVuSans-32"/>
       <use xlink:href="#DejaVuSans-30" x="63.623047"/>
       <use xlink:href="#DejaVuSans-30" x="127.246094"/>
      </g>
     </g>
    </g>
   </g>
   <g id="matplotlib.axis_2">
    <g id="ytick_1">
     <g id="line2d_3">
      <defs>
       <path id="m4e84363689" d="M 0 0 
L -3.85 0 
" style="stroke: #000000; stroke-width: 0.5"/>
      </defs>
      <g>
       <use xlink:href="#m4e84363689" x="37.71625" y="79.654875" style="stroke: #000000; stroke-width: 0.5"/>
      </g>
     </g>
     <g id="text_3">
      <!-- 0.00 -->
      <g transform="translate(17.006875 81.934406) scale(0.06 -0.06)">
       <defs>
        <path id="DejaVuSans-2e" d="M 684 794 
L 1344 794 
L 1344 0 
L 684 0 
L 684 794 
z
" transform="scale(0.015625)"/>
       </defs>
       <use xlink:href="#DejaVuSans-30"/>
       <use xlink:href="#DejaVuSans-2e" x="63.623047"/>
       <use xlink:href="#DejaVuSans-30" x="95.410156"/>
       <use xlink:href="#DejaVuSans-30" x="159.033203"/>
      </g>
     </g>
    </g>
    <g id="ytick_2">
     <g id="line2d_4">
      <g>
       <use xlink:href="#m4e84363689" x="37.71625" y="65.129679" style="stroke: #000000; stroke-width: 0.5"/>
      </g>
     </g>
     <g id="text_4">
      <!-- 0.25 -->
      <g transform="translate(17.006875 67.40921) scale(0.06 -0.06)">
       <defs>
        <path id="DejaVuSans-35" d="M 691 4666 
L 3169 4666 
L 3169 4134 
L 1269 4134 
L 1269 2991 
Q 1406 3038 1543 3061 
Q 1681 3084 1819 3084 
Q 2600 3084 3056 2656 
Q 3513 2228 3513 1497 
Q 3513 744 3044 326 
Q 2575 -91 1722 -91 
Q 1428 -91 1123 -41 
Q 819 9 494 109 
L 494 744 
Q 775 591 1075 516 
Q 1375 441 1709 441 
Q 2250 441 2565 725 
Q 2881 1009 2881 1497 
Q 2881 1984 2565 2268 
Q 2250 2553 1709 2553 
Q 1456 2553 1204 2497 
Q 953 2441 691 2322 
L 691 4666 
z
" transform="scale(0.015625)"/>
       </defs>
       <use xlink:href="#DejaVuSans-30"/>
       <use xlink:href="#DejaVuSans-2e" x="63.623047"/>
       <use xlink:href="#DejaVuSans-32" x="95.410156"/>
       <use xlink:href="#DejaVuSans-35" x="159.033203"/>
      </g>
     </g>
    </g>
    <g id="ytick_3">
     <g id="line2d_5">
      <g>
       <use xlink:href="#m4e84363689" x="37.71625" y="50.604483" style="stroke: #000000; stroke-width: 0.5"/>
      </g>
     </g>
     <g id="text_5">
      <!-- 0.50 -->
      <g transform="translate(17.006875 52.884014) scale(0.06 -0.06)">
       <use xlink:href="#DejaVuSans-30"/>
       <use xlink:href="#DejaVuSans-2e" x="63.623047"/>
       <use xlink:href="#DejaVuSans-35" x="95.410156"/>
       <use xlink:href="#DejaVuSans-30" x="159.033203"/>
      </g>
     </g>
    </g>
    <g id="ytick_4">
     <g id="line2d_6">
      <g>
       <use xlink:href="#m4e84363689" x="37.71625" y="36.079287" style="stroke: #000000; stroke-width: 0.5"/>
      </g>
     </g>
     <g id="text_6">
      <!-- 0.75 -->
      <g transform="translate(17.006875 38.358818) scale(0.06 -0.06)">
       <defs>
        <path id="DejaVuSans-37" d="M 525 4666 
L 3525 4666 
L 3525 4397 
L 1831 0 
L 1172 0 
L 2766 4134 
L 525 4134 
L 525 4666 
z
" transform="scale(0.015625)"/>
       </defs>
       <use xlink:href="#DejaVuSans-30"/>
       <use xlink:href="#DejaVuSans-2e" x="63.623047"/>
       <use xlink:href="#DejaVuSans-37" x="95.410156"/>
       <use xlink:href="#DejaVuSans-35" x="159.033203"/>
      </g>
     </g>
    </g>
    <g id="ytick_5">
     <g id="line2d_7">
      <g>
       <use xlink:href="#m4e84363689" x="37.71625" y="21.554091" style="stroke: #000000; stroke-width: 0.5"/>
      </g>
     </g>
     <g id="text_7">
      <!-- 1.00 -->
      <g transform="translate(17.006875 23.833622) scale(0.06 -0.06)">
       <defs>
        <path id="DejaVuSans-31" d="M 794 531 
L 1825 531 
L 1825 4091 
L 703 3866 
L 703 4441 
L 1819 4666 
L 2450 4666 
L 2450 531 
L 3481 531 
L 3481 0 
L 794 0 
L 794 531 
z
" transform="scale(0.015625)"/>
       </defs>
       <use xlink:href="#DejaVuSans-31"/>
       <use xlink:href="#DejaVuSans-2e" x="63.623047"/>
       <use xlink:href="#DejaVuSans-30" x="95.410156"/>
       <use xlink:href="#DejaVuSans-30" x="159.033203"/>
      </g>
     </g>
    </g>
    <g id="text_8">
     <!-- Sorting accuracy (ratio) -->
     <g transform="translate(11.759062 84.651938) rotate(-90) scale(0.06 -0.06)">
      <defs>
       <path id="DejaVuSans-53" d="M 3425 4513 
L 3425 3897 
Q 3066 4069 2747 4153 
Q 2428 4238 2131 4238 
Q 1616 4238 1336 4038 
Q 1056 3838 1056 3469 
Q 1056 3159 1242 3001 
Q 1428 2844 1947 2747 
L 2328 2669 
Q 3034 2534 3370 2195 
Q 3706 1856 3706 1288 
Q 3706 609 3251 259 
Q 2797 -91 1919 -91 
Q 1588 -91 1214 -16 
Q 841 59 441 206 
L 441 856 
Q 825 641 1194 531 
Q 1563 422 1919 422 
Q 2459 422 2753 634 
Q 3047 847 3047 1241 
Q 3047 1584 2836 1778 
Q 2625 1972 2144 2069 
L 1759 2144 
Q 1053 2284 737 2584 
Q 422 2884 422 3419 
Q 422 4038 858 4394 
Q 1294 4750 2059 4750 
Q 2388 4750 2728 4690 
Q 3069 4631 3425 4513 
z
" transform="scale(0.015625)"/>
       <path id="DejaVuSans-6f" d="M 1959 3097 
Q 1497 3097 1228 2736 
Q 959 2375 959 1747 
Q 959 1119 1226 758 
Q 1494 397 1959 397 
Q 2419 397 2687 759 
Q 2956 1122 2956 1747 
Q 2956 2369 2687 2733 
Q 2419 3097 1959 3097 
z
M 1959 3584 
Q 2709 3584 3137 3096 
Q 3566 2609 3566 1747 
Q 3566 888 3137 398 
Q 2709 -91 1959 -91 
Q 1206 -91 779 398 
Q 353 888 353 1747 
Q 353 2609 779 3096 
Q 1206 3584 1959 3584 
z
" transform="scale(0.015625)"/>
       <path id="DejaVuSans-72" d="M 2631 2963 
Q 2534 3019 2420 3045 
Q 2306 3072 2169 3072 
Q 1681 3072 1420 2755 
Q 1159 2438 1159 1844 
L 1159 0 
L 581 0 
L 581 3500 
L 1159 3500 
L 1159 2956 
Q 1341 3275 1631 3429 
Q 1922 3584 2338 3584 
Q 2397 3584 2469 3576 
Q 2541 3569 2628 3553 
L 2631 2963 
z
" transform="scale(0.015625)"/>
       <path id="DejaVuSans-74" d="M 1172 4494 
L 1172 3500 
L 2356 3500 
L 2356 3053 
L 1172 3053 
L 1172 1153 
Q 1172 725 1289 603 
Q 1406 481 1766 481 
L 2356 481 
L 2356 0 
L 1766 0 
Q 1100 0 847 248 
Q 594 497 594 1153 
L 594 3053 
L 172 3053 
L 172 3500 
L 594 3500 
L 594 4494 
L 1172 4494 
z
" transform="scale(0.015625)"/>
       <path id="DejaVuSans-69" d="M 603 3500 
L 1178 3500 
L 1178 0 
L 603 0 
L 603 3500 
z
M 603 4863 
L 1178 4863 
L 1178 4134 
L 603 4134 
L 603 4863 
z
" transform="scale(0.015625)"/>
       <path id="DejaVuSans-6e" d="M 3513 2113 
L 3513 0 
L 2938 0 
L 2938 2094 
Q 2938 2591 2744 2837 
Q 2550 3084 2163 3084 
Q 1697 3084 1428 2787 
Q 1159 2491 1159 1978 
L 1159 0 
L 581 0 
L 581 3500 
L 1159 3500 
L 1159 2956 
Q 1366 3272 1645 3428 
Q 1925 3584 2291 3584 
Q 2894 3584 3203 3211 
Q 3513 2838 3513 2113 
z
" transform="scale(0.015625)"/>
       <path id="DejaVuSans-67" d="M 2906 1791 
Q 2906 2416 2648 2759 
Q 2391 3103 1925 3103 
Q 1463 3103 1205 2759 
Q 947 2416 947 1791 
Q 947 1169 1205 825 
Q 1463 481 1925 481 
Q 2391 481 2648 825 
Q 2906 1169 2906 1791 
z
M 3481 434 
Q 3481 -459 3084 -895 
Q 2688 -1331 1869 -1331 
Q 1566 -1331 1297 -1286 
Q 1028 -1241 775 -1147 
L 775 -588 
Q 1028 -725 1275 -790 
Q 1522 -856 1778 -856 
Q 2344 -856 2625 -561 
Q 2906 -266 2906 331 
L 2906 616 
Q 2728 306 2450 153 
Q 2172 0 1784 0 
Q 1141 0 747 490 
Q 353 981 353 1791 
Q 353 2603 747 3093 
Q 1141 3584 1784 3584 
Q 2172 3584 2450 3431 
Q 2728 3278 2906 2969 
L 2906 3500 
L 3481 3500 
L 3481 434 
z
" transform="scale(0.015625)"/>
       <path id="DejaVuSans-20" transform="scale(0.015625)"/>
       <path id="DejaVuSans-61" d="M 2194 1759 
Q 1497 1759 1228 1600 
Q 959 1441 959 1056 
Q 959 750 1161 570 
Q 1363 391 1709 391 
Q 2188 391 2477 730 
Q 2766 1069 2766 1631 
L 2766 1759 
L 2194 1759 
z
M 3341 1997 
L 3341 0 
L 2766 0 
L 2766 531 
Q 2569 213 2275 61 
Q 1981 -91 1556 -91 
Q 1019 -91 701 211 
Q 384 513 384 1019 
Q 384 1609 779 1909 
Q 1175 2209 1959 2209 
L 2766 2209 
L 2766 2266 
Q 2766 2663 2505 2880 
Q 2244 3097 1772 3097 
Q 1472 3097 1187 3025 
Q 903 2953 641 2809 
L 641 3341 
Q 956 3463 1253 3523 
Q 1550 3584 1831 3584 
Q 2591 3584 2966 3190 
Q 3341 2797 3341 1997 
z
" transform="scale(0.015625)"/>
       <path id="DejaVuSans-63" d="M 3122 3366 
L 3122 2828 
Q 2878 2963 2633 3030 
Q 2388 3097 2138 3097 
Q 1578 3097 1268 2742 
Q 959 2388 959 1747 
Q 959 1106 1268 751 
Q 1578 397 2138 397 
Q 2388 397 2633 464 
Q 2878 531 3122 666 
L 3122 134 
Q 2881 22 2623 -34 
Q 2366 -91 2075 -91 
Q 1284 -91 818 406 
Q 353 903 353 1747 
Q 353 2603 823 3093 
Q 1294 3584 2113 3584 
Q 2378 3584 2631 3529 
Q 2884 3475 3122 3366 
z
" transform="scale(0.015625)"/>
       <path id="DejaVuSans-75" d="M 544 1381 
L 544 3500 
L 1119 3500 
L 1119 1403 
Q 1119 906 1312 657 
Q 1506 409 1894 409 
Q 2359 409 2629 706 
Q 2900 1003 2900 1516 
L 2900 3500 
L 3475 3500 
L 3475 0 
L 2900 0 
L 2900 538 
Q 2691 219 2414 64 
Q 2138 -91 1772 -91 
Q 1169 -91 856 284 
Q 544 659 544 1381 
z
M 1991 3584 
L 1991 3584 
z
" transform="scale(0.015625)"/>
       <path id="DejaVuSans-79" d="M 2059 -325 
Q 1816 -950 1584 -1140 
Q 1353 -1331 966 -1331 
L 506 -1331 
L 506 -850 
L 844 -850 
Q 1081 -850 1212 -737 
Q 1344 -625 1503 -206 
L 1606 56 
L 191 3500 
L 800 3500 
L 1894 763 
L 2988 3500 
L 3597 3500 
L 2059 -325 
z
" transform="scale(0.015625)"/>
       <path id="DejaVuSans-28" d="M 1984 4856 
Q 1566 4138 1362 3434 
Q 1159 2731 1159 2009 
Q 1159 1288 1364 580 
Q 1569 -128 1984 -844 
L 1484 -844 
Q 1016 -109 783 600 
Q 550 1309 550 2009 
Q 550 2706 781 3412 
Q 1013 4119 1484 4856 
L 1984 4856 
z
" transform="scale(0.015625)"/>
       <path id="DejaVuSans-29" d="M 513 4856 
L 1013 4856 
Q 1481 4119 1714 3412 
Q 1947 2706 1947 2009 
Q 1947 1309 1714 600 
Q 1481 -109 1013 -844 
L 513 -844 
Q 928 -128 1133 580 
Q 1338 1288 1338 2009 
Q 1338 2731 1133 3434 
Q 928 4138 513 4856 
z
" transform="scale(0.015625)"/>
      </defs>
      <use xlink:href="#DejaVuSans-53"/>
      <use xlink:href="#DejaVuSans-6f" x="63.476562"/>
      <use xlink:href="#DejaVuSans-72" x="124.658203"/>
      <use xlink:href="#DejaVuSans-74" x="165.771484"/>
      <use xlink:href="#DejaVuSans-69" x="204.980469"/>
      <use xlink:href="#DejaVuSans-6e" x="232.763672"/>
      <use xlink:href="#DejaVuSans-67" x="296.142578"/>
      <use xlink:href="#DejaVuSans-20" x="359.619141"/>
      <use xlink:href="#DejaVuSans-61" x="391.40625"/>
      <use xlink:href="#DejaVuSans-63" x="452.685547"/>
      <use xlink:href="#DejaVuSans-63" x="507.666016"/>
      <use xlink:href="#DejaVuSans-75" x="562.646484"/>
      <use xlink:href="#DejaVuSans-72" x="626.025391"/>
      <use xlink:href="#DejaVuSans-61" x="667.138672"/>
      <use xlink:href="#DejaVuSans-63" x="728.417969"/>
      <use xlink:href="#DejaVuSans-79" x="783.398438"/>
      <use xlink:href="#DejaVuSans-20" x="842.578125"/>
      <use xlink:href="#DejaVuSans-28" x="874.365234"/>
      <use xlink:href="#DejaVuSans-72" x="913.378906"/>
      <use xlink:href="#DejaVuSans-61" x="954.492188"/>
      <use xlink:href="#DejaVuSans-74" x="1015.771484"/>
      <use xlink:href="#DejaVuSans-69" x="1054.980469"/>
      <use xlink:href="#DejaVuSans-6f" x="1082.763672"/>
      <use xlink:href="#DejaVuSans-29" x="1143.945312"/>
     </g>
    </g>
   </g>
   <g id="line2d_8">
    <path d="M 40.181831 21.554091 
L 53.573017 21.66197 
L 65.078121 21.959115 
L 67.530028 22.121758 
L 69.227502 22.236292 
L 69.981935 22.295352 
L 71.113585 22.426582 
L 75.074358 23.142661 
L 75.640183 23.4238 
L 78.09209 24.015113 
L 78.469307 24.455613 
L 79.978173 24.926198 
L 80.166781 25.179293 
L 80.732606 26.261997 
L 80.921214 26.470311 
L 81.487039 28.058355 
L 81.675647 28.352703 
L 82.241472 30.996912 
L 82.43008 33.413063 
L 82.618688 34.305892 
L 82.807297 34.568802 
L 82.995905 35.968797 
L 83.373121 36.420788 
L 83.56173 36.572199 
L 83.750338 37.0544 
L 83.938946 37.211398 
L 84.127554 37.994994 
L 84.316163 38.044525 
L 84.504771 38.392269 
L 84.693379 44.252532 
L 84.881988 45.695504 
L 85.070596 50.247125 
L 85.259204 50.340779 
L 85.447812 53.369806 
L 85.636421 53.747917 
L 86.013637 53.787473 
L 86.202245 59.189588 
L 86.390854 60.073806 
L 86.579462 78.05728 
L 86.76807 78.902222 
L 86.956678 79.064804 
L 87.145287 79.070208 
L 87.145287 79.070208 
" clip-path="url(#p4de06feabf)" style="fill: none; stroke: #1f77b4; stroke-width: 0.5; stroke-linecap: square"/>
   </g>
   <g id="line2d_9">
    <path d="M 40.181831 21.647575 
L 47.537553 21.844486 
L 59.042657 22.107431 
L 63.569255 22.342789 
L 67.152812 22.774648 
L 68.661678 22.992385 
L 69.793327 23.232986 
L 70.170544 23.48872 
L 70.54776 23.610368 
L 70.736368 23.627675 
L 70.924977 23.818827 
L 71.868018 23.974957 
L 72.622451 24.236467 
L 73.376884 24.371747 
L 73.942709 24.848694 
L 74.131317 24.848792 
L 74.508534 25.240611 
L 74.88575 25.377145 
L 75.451575 25.992345 
L 75.828791 26.070489 
L 76.394616 26.83911 
L 76.583224 27.452328 
L 77.149049 27.730414 
L 77.337657 28.275261 
L 77.526266 28.415238 
L 77.714874 28.935438 
L 78.09209 29.114468 
L 78.846523 29.471345 
L 79.412348 30.537741 
L 79.978173 32.214635 
L 80.355389 32.58377 
L 80.921214 36.227954 
L 81.298431 38.06032 
L 81.487039 38.501744 
L 81.675647 38.511213 
L 81.864255 39.317547 
L 82.052864 39.475726 
L 82.43008 43.775905 
L 82.618688 44.252053 
L 82.995905 45.877274 
L 83.184513 47.927027 
L 83.373121 47.97016 
L 83.56173 49.589411 
L 83.750338 52.736029 
L 83.938946 53.198268 
L 85.259204 76.958853 
L 85.636421 78.845626 
L 86.202245 78.913181 
L 86.76807 79.051864 
L 87.145287 79.080629 
L 87.145287 79.080629 
" clip-path="url(#p4de06feabf)" style="fill: none; stroke: #ff7f0e; stroke-width: 0.5; stroke-linecap: square"/>
   </g>
   <g id="line2d_10">
    <path d="M 40.181831 21.554091 
L 41.690697 21.597482 
L 61.305956 21.726863 
L 79.600956 22.059472 
L 81.109822 22.164488 
L 82.052864 22.264046 
L 82.43008 22.421266 
L 83.373121 22.524234 
L 84.504771 22.587719 
L 85.070596 22.68763 
L 85.259204 22.731535 
L 85.447812 23.09429 
L 85.825029 23.195719 
L 86.013637 23.599586 
L 86.202245 77.733028 
L 86.390854 78.363307 
L 86.579462 78.369524 
L 86.956678 78.850443 
L 87.145287 78.923347 
L 87.145287 78.923347 
" clip-path="url(#p4de06feabf)" style="fill: none; stroke: #2ca02c; stroke-width: 0.5; stroke-linecap: square"/>
   </g>
   <g id="line2d_11">
    <path d="M 40.181831 21.554091 
L 57.722399 21.664872 
L 71.868018 21.827139 
L 78.469307 21.960525 
L 85.070596 22.509326 
L 85.259204 22.687176 
L 85.447812 22.700573 
L 86.202245 23.384195 
L 86.390854 23.836621 
L 86.579462 24.692051 
L 86.76807 77.864758 
L 86.956678 78.876392 
L 87.145287 78.95882 
L 87.145287 78.95882 
" clip-path="url(#p4de06feabf)" style="fill: none; stroke: #d62728; stroke-width: 0.5; stroke-linecap: square"/>
   </g>
   <g id="line2d_12">
    <path d="M 40.181831 21.554091 
L 54.704667 21.66388 
L 65.455337 21.891529 
L 68.661678 22.138998 
L 69.416111 22.256639 
L 70.170544 22.358492 
L 70.736368 22.776736 
L 71.67941 22.862778 
L 71.868018 23.648168 
L 72.056626 23.737272 
L 72.433843 24.902552 
L 72.622451 25.248023 
L 72.999668 27.84126 
L 73.188276 27.876126 
L 73.376884 29.13015 
L 73.565492 29.162729 
L 73.942709 29.526179 
L 74.131317 30.349904 
L 74.508534 30.621086 
L 74.88575 31.515764 
L 75.074358 31.755574 
L 75.262967 32.414199 
L 75.451575 36.883294 
L 75.828791 39.191483 
L 76.0174 39.263017 
L 76.206008 41.604999 
L 76.394616 41.691901 
L 76.583224 41.999015 
L 76.960441 42.97765 
L 77.714874 44.383071 
L 77.903482 44.537772 
L 78.09209 45.007276 
L 78.280699 45.06219 
L 78.469307 46.227895 
L 78.846523 46.336695 
L 79.035132 49.780794 
L 79.22374 49.892885 
L 79.978173 51.651439 
L 80.543998 52.231198 
L 81.298431 54.944001 
L 81.487039 55.140206 
L 81.675647 55.863732 
L 81.864255 55.963574 
L 82.052864 56.280138 
L 82.241472 57.2362 
L 82.618688 57.308897 
L 82.807297 57.797203 
L 82.995905 57.808004 
L 83.373121 58.204005 
L 83.56173 58.738593 
L 83.938946 58.863812 
L 84.127554 58.945685 
L 84.504771 60.009661 
L 84.693379 60.164724 
L 85.070596 62.15289 
L 85.447812 62.380168 
L 85.636421 63.201613 
L 85.825029 65.083223 
L 86.202245 65.753808 
L 86.390854 67.338368 
L 86.579462 78.927485 
L 87.145287 79.172961 
L 87.145287 79.172961 
" clip-path="url(#p4de06feabf)" style="fill: none; stroke: #9467bd; stroke-width: 0.5; stroke-linecap: square"/>
   </g>
   <g id="line2d_13">
    <path d="M 40.181831 21.571745 
L 41.690697 21.728269 
L 42.067914 21.815022 
L 43.388172 22.031818 
L 45.085646 22.238748 
L 46.78312 22.347222 
L 48.291986 22.606071 
L 49.046419 22.654084 
L 49.235028 22.868445 
L 50.555285 23.068497 
L 50.932502 23.182521 
L 53.007193 23.506195 
L 53.761626 23.689579 
L 56.590749 24.209893 
L 57.345182 24.507875 
L 57.722399 24.765316 
L 57.911007 25.101606 
L 58.288224 25.163665 
L 58.854049 25.593305 
L 59.608482 25.700641 
L 59.79709 25.742613 
L 60.174306 26.753266 
L 60.740131 26.997537 
L 60.928739 27.240614 
L 61.305956 27.396034 
L 61.494564 27.781838 
L 61.683172 27.908419 
L 61.871781 28.291494 
L 62.060389 28.374047 
L 62.437605 29.3514 
L 63.00343 30.979829 
L 63.192038 31.139562 
L 63.380647 33.044907 
L 63.569255 33.238166 
L 63.757863 33.858201 
L 65.078121 35.442724 
L 65.266729 36.354611 
L 65.832554 36.432758 
L 66.586987 37.911215 
L 66.775595 39.081497 
L 67.152812 39.563713 
L 67.34142 39.823359 
L 67.530028 40.992053 
L 67.718636 41.339997 
L 67.907245 43.172085 
L 68.284461 43.306484 
L 68.661678 43.767034 
L 68.850286 44.873132 
L 69.038894 47.184389 
L 69.227502 47.395048 
L 69.793327 48.719075 
L 69.981935 50.258956 
L 70.170544 54.284441 
L 70.359152 54.757799 
L 70.54776 54.88659 
L 70.924977 56.740747 
L 71.490801 57.582838 
L 71.67941 59.05533 
L 71.868018 59.526458 
L 72.056626 59.645717 
L 72.245235 62.283946 
L 72.433843 63.164158 
L 72.811059 63.350141 
L 72.999668 64.587694 
L 73.188276 64.770167 
L 73.565492 66.804571 
L 73.754101 66.91654 
L 73.942709 67.542011 
L 74.319925 67.871618 
L 74.508534 68.503302 
L 74.697142 68.650785 
L 74.88575 69.122661 
L 75.074358 71.677997 
L 75.262967 71.682255 
L 75.451575 72.991861 
L 75.640183 73.419576 
L 75.828791 73.513303 
L 76.0174 73.907598 
L 76.206008 73.910981 
L 76.771833 74.69231 
L 76.960441 74.770999 
L 77.526266 75.597558 
L 77.903482 75.908583 
L 78.280699 76.904387 
L 78.469307 76.906771 
L 79.035132 77.168498 
L 79.600956 77.383482 
L 79.978173 77.906654 
L 80.166781 77.937949 
L 80.543998 78.187948 
L 80.732606 78.224391 
L 81.109822 78.411972 
L 81.298431 78.454559 
L 81.487039 78.620719 
L 82.807297 78.813183 
L 83.184513 78.903793 
L 86.956678 79.152041 
L 87.145287 79.218402 
L 87.145287 79.218402 
" clip-path="url(#p4de06feabf)" style="fill: none; stroke: #8c564b; stroke-width: 0.5; stroke-linecap: square"/>
   </g>
   <g id="line2d_14">
    <path d="M 40.181831 33.174247 
L 89.493459 33.174247 
" clip-path="url(#p4de06feabf)" style="fill: none; stroke-dasharray: 1.85,0.8; stroke-dashoffset: 0; stroke: #ff0000; stroke-width: 0.5"/>
   </g>
   <g id="patch_3">
    <path d="M 37.71625 79.654875 
L 37.71625 18.670875 
" style="fill: none; stroke: #000000; stroke-width: 0.5; stroke-linejoin: miter; stroke-linecap: square"/>
   </g>
   <g id="patch_4">
    <path d="M 40.181831 82.704075 
L 89.493459 82.704075 
" style="fill: none; stroke: #000000; stroke-width: 0.5; stroke-linejoin: miter; stroke-linecap: square"/>
   </g>
   <g id="text_9">
    <!-- S -->
    <g transform="translate(62.552208 12.670875) scale(0.072 -0.072)">
     <use xlink:href="#DejaVuSans-53"/>
    </g>
   </g>
  </g>
  <g id="axes_2">
   <g id="patch_5">
    <path d="M 94.424622 79.654875 
L 143.73625 79.654875 
L 143.73625 18.670875 
L 94.424622 18.670875 
L 94.424622 79.654875 
z
" style="fill: none"/>
   </g>
   <g id="matplotlib.axis_3">
    <g id="xtick_3">
     <g id="line2d_15">
      <g>
       <use xlink:href="#mfbb69323fc" x="94.424622" y="82.704075" style="stroke: #000000; stroke-width: 0.5"/>
      </g>
     </g>
     <g id="text_10">
      <!-- 0 -->
      <g transform="translate(92.515872 94.613137) scale(0.06 -0.06)">
       <use xlink:href="#DejaVuSans-30"/>
      </g>
     </g>
    </g>
    <g id="xtick_4">
     <g id="line2d_16">
      <g>
       <use xlink:href="#mfbb69323fc" x="128.284359" y="82.704075" style="stroke: #000000; stroke-width: 0.5"/>
      </g>
     </g>
     <g id="text_11">
      <!-- 1000 -->
      <g transform="translate(120.649359 94.613137) scale(0.06 -0.06)">
       <use xlink:href="#DejaVuSans-31"/>
       <use xlink:href="#DejaVuSans-30" x="63.623047"/>
       <use xlink:href="#DejaVuSans-30" x="127.246094"/>
       <use xlink:href="#DejaVuSans-30" x="190.869141"/>
      </g>
     </g>
    </g>
    <g id="text_12">
     <!-- True units ranked by accuracy -->
     <g transform="translate(73.953874 104.420012) scale(0.06 -0.06)">
      <defs>
       <path id="DejaVuSans-54" d="M -19 4666 
L 3928 4666 
L 3928 4134 
L 2272 4134 
L 2272 0 
L 1638 0 
L 1638 4134 
L -19 4134 
L -19 4666 
z
" transform="scale(0.015625)"/>
       <path id="DejaVuSans-65" d="M 3597 1894 
L 3597 1613 
L 953 1613 
Q 991 1019 1311 708 
Q 1631 397 2203 397 
Q 2534 397 2845 478 
Q 3156 559 3463 722 
L 3463 178 
Q 3153 47 2828 -22 
Q 2503 -91 2169 -91 
Q 1331 -91 842 396 
Q 353 884 353 1716 
Q 353 2575 817 3079 
Q 1281 3584 2069 3584 
Q 2775 3584 3186 3129 
Q 3597 2675 3597 1894 
z
M 3022 2063 
Q 3016 2534 2758 2815 
Q 2500 3097 2075 3097 
Q 1594 3097 1305 2825 
Q 1016 2553 972 2059 
L 3022 2063 
z
" transform="scale(0.015625)"/>
       <path id="DejaVuSans-73" d="M 2834 3397 
L 2834 2853 
Q 2591 2978 2328 3040 
Q 2066 3103 1784 3103 
Q 1356 3103 1142 2972 
Q 928 2841 928 2578 
Q 928 2378 1081 2264 
Q 1234 2150 1697 2047 
L 1894 2003 
Q 2506 1872 2764 1633 
Q 3022 1394 3022 966 
Q 3022 478 2636 193 
Q 2250 -91 1575 -91 
Q 1294 -91 989 -36 
Q 684 19 347 128 
L 347 722 
Q 666 556 975 473 
Q 1284 391 1588 391 
Q 1994 391 2212 530 
Q 2431 669 2431 922 
Q 2431 1156 2273 1281 
Q 2116 1406 1581 1522 
L 1381 1569 
Q 847 1681 609 1914 
Q 372 2147 372 2553 
Q 372 3047 722 3315 
Q 1072 3584 1716 3584 
Q 2034 3584 2315 3537 
Q 2597 3491 2834 3397 
z
" transform="scale(0.015625)"/>
       <path id="DejaVuSans-6b" d="M 581 4863 
L 1159 4863 
L 1159 1991 
L 2875 3500 
L 3609 3500 
L 1753 1863 
L 3688 0 
L 2938 0 
L 1159 1709 
L 1159 0 
L 581 0 
L 581 4863 
z
" transform="scale(0.015625)"/>
       <path id="DejaVuSans-64" d="M 2906 2969 
L 2906 4863 
L 3481 4863 
L 3481 0 
L 2906 0 
L 2906 525 
Q 2725 213 2448 61 
Q 2172 -91 1784 -91 
Q 1150 -91 751 415 
Q 353 922 353 1747 
Q 353 2572 751 3078 
Q 1150 3584 1784 3584 
Q 2172 3584 2448 3432 
Q 2725 3281 2906 2969 
z
M 947 1747 
Q 947 1113 1208 752 
Q 1469 391 1925 391 
Q 2381 391 2643 752 
Q 2906 1113 2906 1747 
Q 2906 2381 2643 2742 
Q 2381 3103 1925 3103 
Q 1469 3103 1208 2742 
Q 947 2381 947 1747 
z
" transform="scale(0.015625)"/>
       <path id="DejaVuSans-62" d="M 3116 1747 
Q 3116 2381 2855 2742 
Q 2594 3103 2138 3103 
Q 1681 3103 1420 2742 
Q 1159 2381 1159 1747 
Q 1159 1113 1420 752 
Q 1681 391 2138 391 
Q 2594 391 2855 752 
Q 3116 1113 3116 1747 
z
M 1159 2969 
Q 1341 3281 1617 3432 
Q 1894 3584 2278 3584 
Q 2916 3584 3314 3078 
Q 3713 2572 3713 1747 
Q 3713 922 3314 415 
Q 2916 -91 2278 -91 
Q 1894 -91 1617 61 
Q 1341 213 1159 525 
L 1159 0 
L 581 0 
L 581 4863 
L 1159 4863 
L 1159 2969 
z
" transform="scale(0.015625)"/>
      </defs>
      <use xlink:href="#DejaVuSans-54"/>
      <use xlink:href="#DejaVuSans-72" x="46.333984"/>
      <use xlink:href="#DejaVuSans-75" x="87.447266"/>
      <use xlink:href="#DejaVuSans-65" x="150.826172"/>
      <use xlink:href="#DejaVuSans-20" x="212.349609"/>
      <use xlink:href="#DejaVuSans-75" x="244.136719"/>
      <use xlink:href="#DejaVuSans-6e" x="307.515625"/>
      <use xlink:href="#DejaVuSans-69" x="370.894531"/>
      <use xlink:href="#DejaVuSans-74" x="398.677734"/>
      <use xlink:href="#DejaVuSans-73" x="437.886719"/>
      <use xlink:href="#DejaVuSans-20" x="489.986328"/>
      <use xlink:href="#DejaVuSans-72" x="521.773438"/>
      <use xlink:href="#DejaVuSans-61" x="562.886719"/>
      <use xlink:href="#DejaVuSans-6e" x="624.166016"/>
      <use xlink:href="#DejaVuSans-6b" x="687.544922"/>
      <use xlink:href="#DejaVuSans-65" x="741.830078"/>
      <use xlink:href="#DejaVuSans-64" x="803.353516"/>
      <use xlink:href="#DejaVuSans-20" x="866.830078"/>
      <use xlink:href="#DejaVuSans-62" x="898.617188"/>
      <use xlink:href="#DejaVuSans-79" x="962.09375"/>
      <use xlink:href="#DejaVuSans-20" x="1021.273438"/>
      <use xlink:href="#DejaVuSans-61" x="1053.060547"/>
      <use xlink:href="#DejaVuSans-63" x="1114.339844"/>
      <use xlink:href="#DejaVuSans-63" x="1169.320312"/>
      <use xlink:href="#DejaVuSans-75" x="1224.300781"/>
      <use xlink:href="#DejaVuSans-72" x="1287.679688"/>
      <use xlink:href="#DejaVuSans-61" x="1328.792969"/>
      <use xlink:href="#DejaVuSans-63" x="1390.072266"/>
      <use xlink:href="#DejaVuSans-79" x="1445.052734"/>
     </g>
    </g>
   </g>
   <g id="matplotlib.axis_4"/>
   <g id="line2d_17">
    <path d="M 94.424622 21.574875 
L 94.66164 21.680667 
L 95.338835 22.441741 
L 96.591645 27.955862 
L 97.3027 35.851134 
L 97.505858 40.673959 
L 97.539718 40.903948 
L 97.912175 48.980589 
L 97.946035 49.105519 
L 98.115333 52.367289 
L 98.352352 57.901275 
L 98.52165 61.399439 
L 98.724809 66.42669 
L 98.758668 66.649231 
L 98.894107 68.481773 
L 98.961827 68.660764 
L 99.368144 72.573463 
L 99.435863 72.791655 
L 99.672881 73.761752 
L 99.80832 74.057986 
L 99.84218 74.14531 
L 99.977619 74.826053 
L 100.248497 75.289034 
L 100.451655 75.621542 
L 100.553234 75.776999 
L 100.857972 76.168423 
L 102.009203 77.321304 
L 102.178502 77.516436 
L 102.246221 77.687137 
L 102.41552 77.876916 
L 103.092715 78.19411 
L 103.329733 78.364208 
L 103.465172 78.417986 
L 103.600611 78.567235 
L 104.074647 78.692887 
L 104.955 78.839717 
L 106.749566 79.073494 
L 106.952725 79.115883 
L 108.950449 79.263104 
L 117.076786 79.415863 
L 128.250499 79.526945 
L 137.866665 79.654875 
L 141.388077 79.654875 
L 141.388077 79.654875 
" clip-path="url(#p5c534c4ed1)" style="fill: none; stroke: #1f77b4; stroke-width: 0.5; stroke-linecap: square"/>
   </g>
   <g id="line2d_18">
    <path d="M 94.424622 21.764524 
L 94.932518 23.151708 
L 95.203396 25.378603 
L 95.474274 26.563798 
L 95.846731 29.804835 
L 96.049889 31.029759 
L 96.557786 36.979606 
L 96.727084 41.790929 
L 96.862523 43.085986 
L 97.065682 47.344605 
L 97.133401 47.829406 
L 97.3027 50.36453 
L 97.336559 50.370841 
L 97.607437 52.659945 
L 97.776736 57.16088 
L 97.912175 58.382776 
L 98.453931 65.753666 
L 98.995687 70.364912 
L 99.131126 71.01041 
L 99.198845 71.113699 
L 99.435863 72.725591 
L 99.537442 73.10226 
L 99.706741 73.576735 
L 99.943759 74.358271 
L 99.977619 74.374875 
L 100.113058 74.738396 
L 100.282357 75.056875 
L 100.485515 75.480375 
L 100.756393 75.730551 
L 100.993411 76.20568 
L 101.16271 76.646748 
L 101.365868 77.129658 
L 102.009203 77.95787 
L 102.280081 78.079592 
L 102.44938 78.234991 
L 103.431312 78.64101 
L 104.717982 78.963446 
L 106.207811 79.188369 
L 108.510273 79.298556 
L 112.438002 79.357029 
L 127.336286 79.468123 
L 141.388077 79.654875 
L 141.388077 79.654875 
" clip-path="url(#p5c534c4ed1)" style="fill: none; stroke: #ff7f0e; stroke-width: 0.5; stroke-linecap: square"/>
   </g>
   <g id="line2d_19">
    <path d="M 94.424622 21.574875 
L 97.167261 21.677129 
L 97.471998 21.810175 
L 97.641297 21.94798 
L 97.810596 22.128018 
L 98.115333 22.432388 
L 98.352352 22.942863 
L 98.52165 23.686875 
L 98.995687 24.814875 
L 99.063406 25.170304 
L 99.368144 26.556907 
L 99.740601 27.899817 
L 99.80832 28.028208 
L 100.519375 31.301963 
L 100.553234 31.396189 
L 100.756393 33.190875 
L 100.824112 33.190875 
L 101.027271 34.712018 
L 101.061131 34.734614 
L 101.806045 40.934875 
L 101.873764 40.976599 
L 102.043063 43.288444 
L 102.246221 45.237097 
L 102.347801 45.968475 
L 103.024995 54.402701 
L 103.092715 54.486875 
L 103.532891 57.316413 
L 103.566751 57.316413 
L 103.73605 58.17781 
L 104.006928 61.192358 
L 104.074647 61.978353 
L 105.395177 69.974875 
L 105.598335 70.484349 
L 105.869213 71.734875 
L 106.377109 72.394875 
L 106.546408 73.201542 
L 106.580268 73.216142 
L 106.749566 74.226838 
L 107.020444 74.814875 
L 107.122023 74.874302 
L 107.291322 75.187183 
L 107.426761 75.254875 
L 107.62992 75.506304 
L 107.833078 75.589964 
L 107.968517 75.782875 
L 108.036236 75.782875 
L 108.205535 76.187412 
L 108.544132 76.515416 
L 108.984309 76.955941 
L 109.221327 77.129658 
L 109.424486 77.234875 
L 109.661504 77.377228 
L 109.864662 77.444481 
L 110.067821 77.580589 
L 110.270979 77.682049 
L 110.440278 77.811065 
L 110.846595 77.921144 
L 112.065545 78.358011 
L 114.469586 78.686875 
L 115.28222 78.788009 
L 115.756256 78.848208 
L 116.63661 78.959306 
L 118.735913 79.104354 
L 127.776463 79.488457 
L 128.013481 79.526237 
L 131.907351 79.583083 
L 141.388077 79.654875 
L 141.388077 79.654875 
" clip-path="url(#p5c534c4ed1)" style="fill: none; stroke: #2ca02c; stroke-width: 0.5; stroke-linecap: square"/>
   </g>
   <g id="line2d_20">
    <path d="M 94.424622 21.574875 
L 98.081474 21.660729 
L 99.164985 23.02085 
L 99.334284 23.655718 
L 99.368144 23.658869 
L 99.605162 24.874875 
L 99.706741 25.094875 
L 99.943759 25.792485 
L 100.113058 26.042567 
L 100.383936 27.334129 
L 100.553234 28.857492 
L 100.959551 31.457952 
L 101.061131 32.206089 
L 101.230429 34.481542 
L 101.264289 34.481542 
L 101.365868 34.977952 
L 101.501307 36.094875 
L 101.535167 36.094875 
L 101.704466 37.414875 
L 101.738325 37.414875 
L 101.772185 37.527215 
L 102.246221 44.806875 
L 102.280081 44.806875 
L 102.517099 47.710875 
L 102.584819 47.974875 
L 102.889556 50.614875 
L 102.991136 50.614875 
L 103.431312 54.620392 
L 103.871489 56.837732 
L 104.040787 57.874875 
L 104.108507 57.935074 
L 104.345525 60.294875 
L 104.413244 60.357026 
L 104.582543 62.230875 
L 104.751842 62.857044 
L 105.056579 64.166875 
L 105.124299 64.251049 
L 105.361317 64.634185 
L 105.530616 65.134875 
L 105.564476 65.134875 
L 105.733774 65.826304 
L 105.936933 66.344875 
L 106.173951 67.774875 
L 106.952725 69.974875 
L 107.088164 70.057118 
L 107.122023 70.092924 
L 107.392901 71.357732 
L 107.5622 71.452018 
L 107.731499 71.787465 
L 108.002377 72.394875 
L 108.307114 72.451154 
L 108.679571 73.046971 
L 108.713431 73.054875 
L 108.984309 73.846875 
L 109.187467 73.921656 
L 109.390626 74.374875 
L 109.729223 74.477565 
L 110.372558 75.187183 
L 110.474137 75.286025 
L 112.539581 76.889161 
L 112.607301 76.985212 
L 112.7766 77.014875 
L 113.081337 77.101255 
L 113.284496 77.129658 
L 113.724672 77.430362 
L 113.96169 77.503764 
L 114.300288 77.580589 
L 114.469586 77.686061 
L 114.875903 77.781327 
L 115.214501 77.94664 
L 115.756256 78.041542 
L 115.959415 78.126454 
L 116.56889 78.214875 
L 116.839768 78.282906 
L 121.173814 78.859259 
L 122.155747 78.963446 
L 122.900661 79.030359 
L 124.424349 79.140893 
L 126.218915 79.268218 
L 130.180504 79.415172 
L 130.78998 79.482531 
L 131.670333 79.552801 
L 136.647714 79.624014 
L 141.388077 79.654875 
L 141.388077 79.654875 
" clip-path="url(#p5c534c4ed1)" style="fill: none; stroke: #d62728; stroke-width: 0.5; stroke-linecap: square"/>
   </g>
   <g id="line2d_21">
    <path d="M 94.424622 21.574875 
L 96.354627 21.684667 
L 96.523926 21.80264 
L 96.727084 22.017109 
L 96.828663 22.128018 
L 96.930243 22.308003 
L 97.065682 22.52312 
L 97.133401 22.593822 
L 97.979894 24.100092 
L 98.115333 24.353822 
L 98.149193 24.394292 
L 98.55551 26.682248 
L 98.826388 28.233729 
L 99.232705 29.872018 
L 99.266564 29.872018 
L 99.537442 30.658477 
L 99.672881 31.254875 
L 99.80832 31.675745 
L 100.248497 33.190875 
L 100.282357 33.190875 
L 100.620954 34.748163 
L 100.756393 35.403446 
L 100.959551 36.094875 
L 101.09499 37.207993 
L 101.230429 37.658567 
L 101.535167 39.174875 
L 101.806045 39.749569 
L 101.941484 40.934875 
L 102.178502 40.934875 
L 102.686398 43.574875 
L 102.821837 44.161542 
L 103.126574 46.029612 
L 103.329733 46.765651 
L 103.363593 46.779403 
L 103.634471 47.952875 
L 103.66833 47.985991 
L 104.210086 50.614875 
L 104.717982 50.614875 
L 105.02272 53.014875 
L 105.090439 53.104018 
L 105.327457 54.244875 
L 105.361317 54.286599 
L 105.530616 54.997498 
L 105.598335 55.216842 
L 106.038512 56.766205 
L 106.207811 57.028617 
L 106.377109 58.039712 
L 106.817286 60.294875 
L 107.088164 60.294875 
L 107.52834 61.494919 
L 107.731499 62.023446 
L 108.239395 64.013021 
L 108.442553 64.370664 
L 108.713431 65.134875 
L 108.984309 65.134875 
L 109.153608 65.457542 
L 109.289047 65.574875 
L 109.458345 66.102875 
L 109.661504 66.482091 
L 109.830802 67.127816 
L 110.237119 67.953253 
L 110.372558 68.038875 
L 110.507997 68.038875 
L 110.745015 68.616279 
L 110.880454 68.764875 
L 111.015893 68.899319 
L 111.252911 69.490875 
L 111.320631 69.554005 
L 111.45607 69.974875 
L 111.625368 70.019759 
L 112.268703 71.357732 
L 112.471862 71.406828 
L 112.641161 72.394875 
L 112.810459 72.487107 
L 113.182916 73.289943 
L 113.352215 73.541191 
L 113.555373 73.846875 
L 113.826251 73.90438 
L 113.99555 74.111826 
L 114.909763 75.008475 
L 115.011342 75.049412 
L 115.214501 75.352653 
L 115.31608 75.384287 
L 115.451519 75.506304 
L 115.553098 75.551976 
L 115.722397 75.782875 
L 115.790116 75.782875 
L 115.959415 76.024875 
L 116.162573 76.115777 
L 116.365732 76.238404 
L 116.501171 76.318542 
L 116.738189 76.598033 
L 117.076786 76.701375 
L 117.8217 76.932375 
L 117.990999 77.073542 
L 119.514687 77.680101 
L 119.683986 77.734875 
L 120.49662 77.94664 
L 120.665918 78.041542 
L 121.106095 78.139745 
L 121.444692 78.272018 
L 122.155747 78.366086 
L 122.426625 78.41913 
L 123.171539 78.527108 
L 123.814874 78.617732 
L 124.729087 78.727672 
L 126.591372 78.91026 
L 127.945762 79.017245 
L 128.995414 79.101732 
L 137.054031 79.616475 
L 141.388077 79.654875 
L 141.388077 79.654875 
" clip-path="url(#p5c534c4ed1)" style="fill: none; stroke: #9467bd; stroke-width: 0.5; stroke-linecap: square"/>
   </g>
   <g id="line2d_22">
    <path d="M 94.424622 21.574875 
L 94.627781 21.644683 
L 95.169536 22.894875 
L 95.271116 23.021708 
L 95.508134 23.722926 
L 95.541993 23.725986 
L 96.219188 26.335531 
L 96.388487 27.501406 
L 96.794804 30.337822 
L 96.997962 31.764349 
L 97.26884 34.725064 
L 97.438139 35.695242 
L 97.675157 37.203675 
L 97.979894 42.252571 
L 98.081474 42.700748 
L 98.250772 44.515722 
L 98.420071 46.947708 
L 98.58937 48.924716 
L 98.961827 54.337952 
L 99.063406 55.056287 
L 99.232705 57.657137 
L 99.266564 57.763183 
L 99.503583 60.47581 
L 99.605162 60.958105 
L 99.774461 62.192914 
L 99.909899 63.460988 
L 100.180777 66.915393 
L 100.214637 66.916703 
L 100.756393 69.698304 
L 101.061131 70.852928 
L 101.264289 71.248559 
L 101.365868 71.379624 
L 101.535167 72.160681 
L 101.602886 72.183062 
L 101.738325 72.893525 
L 102.009203 73.73729 
L 102.076923 73.873156 
L 102.38166 74.661572 
L 102.483239 74.749089 
L 102.754117 75.148668 
L 102.821837 75.198241 
L 103.126574 75.890431 
L 103.465172 76.268246 
L 103.634471 76.654432 
L 104.616403 77.373787 
L 104.819561 77.503764 
L 104.887281 77.591119 
L 105.056579 77.742776 
L 105.496756 77.995446 
L 105.835353 78.225213 
L 106.343249 78.424367 
L 108.036236 78.862875 
L 112.065545 79.180224 
L 134.887008 79.641141 
L 135.191745 79.654875 
L 141.388077 79.654875 
L 141.388077 79.654875 
" clip-path="url(#p5c534c4ed1)" style="fill: none; stroke: #8c564b; stroke-width: 0.5; stroke-linecap: square"/>
   </g>
   <g id="line2d_23">
    <path d="M 94.424622 33.190875 
L 143.73625 33.190875 
" clip-path="url(#p5c534c4ed1)" style="fill: none; stroke-dasharray: 1.85,0.8; stroke-dashoffset: 0; stroke: #ff0000; stroke-width: 0.5"/>
   </g>
   <g id="patch_6">
    <path d="M 94.424622 82.704075 
L 143.73625 82.704075 
" style="fill: none; stroke: #000000; stroke-width: 0.5; stroke-linejoin: miter; stroke-linecap: square"/>
   </g>
   <g id="text_13">
    <!-- NS -->
    <g transform="translate(114.101749 12.670875) scale(0.072 -0.072)">
     <defs>
      <path id="DejaVuSans-4e" d="M 628 4666 
L 1478 4666 
L 3547 763 
L 3547 4666 
L 4159 4666 
L 4159 0 
L 3309 0 
L 1241 3903 
L 1241 0 
L 628 0 
L 628 4666 
z
" transform="scale(0.015625)"/>
     </defs>
     <use xlink:href="#DejaVuSans-4e"/>
     <use xlink:href="#DejaVuSans-53" x="74.804688"/>
    </g>
   </g>
  </g>
  <g id="axes_3">
   <g id="patch_7">
    <path d="M 148.667413 79.654875 
L 197.979041 79.654875 
L 197.979041 18.670875 
L 148.667413 18.670875 
L 148.667413 79.654875 
z
" style="fill: none"/>
   </g>
   <g id="matplotlib.axis_5">
    <g id="xtick_5">
     <g id="line2d_24">
      <g>
       <use xlink:href="#mfbb69323fc" x="148.667413" y="82.704075" style="stroke: #000000; stroke-width: 0.5"/>
      </g>
     </g>
     <g id="text_14">
      <!-- 0 -->
      <g transform="translate(146.758663 94.613137) scale(0.06 -0.06)">
       <use xlink:href="#DejaVuSans-30"/>
      </g>
     </g>
    </g>
    <g id="xtick_6">
     <g id="line2d_25">
      <g>
       <use xlink:href="#mfbb69323fc" x="174.260576" y="82.704075" style="stroke: #000000; stroke-width: 0.5"/>
      </g>
     </g>
     <g id="text_15">
      <!-- 1000 -->
      <g transform="translate(166.625576 94.613137) scale(0.06 -0.06)">
       <use xlink:href="#DejaVuSans-31"/>
       <use xlink:href="#DejaVuSans-30" x="63.623047"/>
       <use xlink:href="#DejaVuSans-30" x="127.246094"/>
       <use xlink:href="#DejaVuSans-30" x="190.869141"/>
      </g>
     </g>
    </g>
   </g>
   <g id="matplotlib.axis_6"/>
   <g id="line2d_26">
    <path d="M 148.667413 21.574875 
L 149.000124 21.67048 
L 149.460801 22.168538 
L 149.921478 23.643619 
L 150.10063 24.862422 
L 150.330968 25.536483 
L 150.561307 26.727133 
L 150.66368 27.368744 
L 151.329102 33.619115 
L 151.482661 34.945153 
L 151.661813 35.84453 
L 151.687406 35.995287 
L 151.892151 40.641542 
L 152.148083 45.365081 
L 153.09503 63.415401 
L 153.17181 63.746005 
L 153.5813 68.291397 
L 153.786046 70.616715 
L 153.888418 71.255613 
L 154.169943 72.409969 
L 154.246722 72.573786 
L 154.323502 72.787044 
L 154.477061 73.724601 
L 154.860958 74.602026 
L 154.937738 74.689786 
L 155.142483 75.230743 
L 155.244856 75.331654 
L 155.475194 75.678579 
L 155.782312 75.874134 
L 155.987058 76.237346 
L 156.345362 76.438046 
L 156.550107 76.533678 
L 156.754852 76.809788 
L 157.06197 76.928898 
L 158.085697 77.500809 
L 158.571967 77.637625 
L 158.751119 77.737139 
L 159.237389 77.867298 
L 163.792972 78.794643 
L 168.297369 79.093716 
L 171.931598 79.204642 
L 189.488509 79.613061 
L 190.409863 79.654875 
L 195.630868 79.654875 
L 195.630868 79.654875 
" clip-path="url(#p5bc34d617b)" style="fill: none; stroke: #1f77b4; stroke-width: 0.5; stroke-linecap: square"/>
   </g>
   <g id="line2d_27">
    <path d="M 148.667413 21.574875 
L 148.718599 21.654985 
L 149.153683 22.455335 
L 149.844698 25.868727 
L 149.972664 26.540589 
L 150.049444 26.639991 
L 150.151816 27.547641 
L 150.407748 30.336944 
L 150.535714 30.765986 
L 150.66368 31.20114 
L 150.868425 33.593468 
L 150.996391 34.380292 
L 151.226729 36.443355 
L 151.329102 37.027352 
L 151.533847 39.496286 
L 151.585033 39.697582 
L 152.071304 48.031802 
L 152.12249 48.158129 
L 152.378422 52.394204 
L 152.506387 52.925228 
L 152.711133 54.485071 
L 152.736726 54.583465 
L 152.915878 57.556612 
L 153.325369 61.334338 
L 153.478928 63.047482 
L 153.555707 64.280757 
L 153.990791 71.211936 
L 154.809772 74.968824 
L 154.912145 75.38226 
L 155.270449 76.074343 
L 155.347228 76.243206 
L 155.526381 76.398053 
L 155.731126 76.5191 
L 155.935871 76.89196 
L 157.036377 77.590524 
L 157.343495 77.69512 
L 157.727393 77.866179 
L 158.18807 77.994091 
L 158.520781 78.156497 
L 158.955865 78.285064 
L 161.719926 78.828381 
L 174.414135 79.247296 
L 183.448522 79.357029 
L 186.161397 79.407726 
L 188.490375 79.518537 
L 195.630868 79.654875 
L 195.630868 79.654875 
" clip-path="url(#p5bc34d617b)" style="fill: none; stroke: #ff7f0e; stroke-width: 0.5; stroke-linecap: square"/>
   </g>
   <g id="line2d_28">
    <path d="M 148.667413 21.574875 
L 149.665546 21.678589 
L 149.921478 21.847836 
L 150.02385 22.052245 
L 150.510121 23.099535 
L 150.638086 23.456771 
L 151.021984 24.509919 
L 151.201136 26.854875 
L 151.252322 26.923249 
L 151.482661 28.801295 
L 151.508254 28.834875 
L 151.661813 29.482893 
L 151.687406 29.494875 
L 152.250456 39.284022 
L 152.53198 50.614875 
L 152.557574 50.614875 
L 152.60876 52.066875 
L 152.813505 57.874875 
L 152.864692 58.516218 
L 153.043844 63.894035 
L 153.248589 67.619242 
L 153.5813 70.359147 
L 153.760452 71.734875 
L 153.837232 71.836413 
L 153.990791 72.378777 
L 154.016384 72.394875 
L 154.349095 74.089372 
L 154.400281 74.130877 
L 154.55384 74.488456 
L 154.579434 74.497528 
L 154.758586 75.079958 
L 155.807905 76.428208 
L 155.910278 76.534459 
L 156.063837 76.621923 
L 156.294176 76.750875 
L 156.473328 76.889161 
L 156.678073 76.964854 
L 156.806039 77.014875 
L 156.959598 77.10303 
L 157.215529 77.223925 
L 158.495188 77.652116 
L 158.827899 77.754255 
L 159.058237 77.812565 
L 160.312302 78.085145 
L 160.824165 78.195302 
L 161.463995 78.272018 
L 162.334162 78.37947 
L 163.946531 78.516051 
L 165.686867 78.62691 
L 171.880412 78.987289 
L 174.746846 79.118339 
L 176.205657 79.170875 
L 190.077151 79.654875 
L 195.630868 79.654875 
L 195.630868 79.654875 
" clip-path="url(#p5bc34d617b)" style="fill: none; stroke: #2ca02c; stroke-width: 0.5; stroke-linecap: square"/>
   </g>
   <g id="line2d_29">
    <path d="M 148.667413 21.574875 
L 148.795379 40.934875 
L 149.000124 48.354534 
L 149.179276 52.848721 
L 149.435208 54.763446 
L 149.460801 54.763446 
L 150.126223 58.114621 
L 150.151816 58.143192 
L 150.305375 58.595652 
L 151.07317 61.313822 
L 151.329102 63.521542 
L 151.917745 69.094875 
L 151.943338 69.094875 
L 152.659946 73.201542 
L 152.813505 73.846875 
L 152.839098 73.846875 
L 152.992657 74.374875 
L 153.069437 74.393732 
L 153.222996 74.653258 
L 153.248589 74.661412 
L 153.402148 74.909038 
L 154.195536 76.238404 
L 154.272316 76.275467 
L 154.425875 76.428208 
L 154.681806 76.661717 
L 154.809772 76.841665 
L 155.040111 77.042022 
L 155.321635 77.234875 
L 155.475194 77.333411 
L 155.884685 77.544702 
L 156.319769 77.652116 
L 156.524514 77.750613 
L 156.780446 77.894875 
L 157.189936 77.995446 
L 157.471461 78.085145 
L 157.727393 78.170161 
L 157.932138 78.23829 
L 161.66874 78.788009 
L 162.846025 78.893004 
L 163.357889 78.919685 
L 177.050231 79.430194 
L 184.344283 79.582366 
L 193.045958 79.654875 
L 195.630868 79.654875 
L 195.630868 79.654875 
" clip-path="url(#p5bc34d617b)" style="fill: none; stroke: #d62728; stroke-width: 0.5; stroke-linecap: square"/>
   </g>
   <g id="line2d_30">
    <path d="M 148.667413 21.574875 
L 149.358428 21.667655 
L 149.639953 22.184639 
L 150.5869 28.609409 
L 150.714866 29.755157 
L 150.817239 29.951798 
L 150.970798 31.711479 
L 151.892151 46.466304 
L 151.917745 46.466304 
L 152.327235 49.539319 
L 152.404015 50.087612 
L 153.555707 58.87696 
L 153.632487 59.126599 
L 153.811639 60.778875 
L 153.862825 60.929883 
L 154.016384 61.650075 
L 154.605027 64.195241 
L 154.63062 64.20084 
L 156.08943 71.202484 
L 156.268582 71.399034 
L 156.524514 71.836413 
L 157.113157 73.138582 
L 157.317902 73.365958 
L 157.471461 73.727442 
L 157.778579 74.131752 
L 157.932138 74.306689 
L 158.264849 74.832935 
L 158.469594 75.187183 
L 158.59756 75.271479 
L 158.981458 75.537924 
L 159.186203 75.668993 
L 159.365355 75.84635 
L 159.595694 76.16545 
L 160.030777 76.428208 
L 160.235523 76.519022 
L 160.414675 76.614875 
L 160.824165 76.826304 
L 163.357889 77.697122 
L 166.045171 78.23829 
L 166.940932 78.342655 
L 167.324829 78.392266 
L 168.399742 78.493275 
L 168.655674 78.516051 
L 171.522108 78.773661 
L 184.72818 79.289592 
L 187.108344 79.38967 
L 187.441056 79.426214 
L 192.303757 79.654875 
L 195.630868 79.654875 
L 195.630868 79.654875 
" clip-path="url(#p5bc34d617b)" style="fill: none; stroke: #9467bd; stroke-width: 0.5; stroke-linecap: square"/>
   </g>
   <g id="line2d_31">
    <path d="M 148.667413 21.774875 
L 148.820972 23.621318 
L 149.179276 25.414875 
L 149.332835 27.505796 
L 149.409615 27.671671 
L 149.870291 32.568353 
L 149.921478 32.656675 
L 150.177409 35.493755 
L 150.919611 41.135497 
L 151.124356 43.761435 
L 151.226729 44.708434 
L 151.55944 48.895996 
L 151.687406 50.017175 
L 151.943338 53.078244 
L 151.968931 53.079524 
L 152.404015 56.989509 
L 152.659946 58.026758 
L 152.864692 61.35817 
L 153.018251 61.840731 
L 153.17181 63.060589 
L 153.197403 63.072737 
L 153.606893 65.320632 
L 153.65808 66.017848 
L 153.811639 67.06927 
L 153.888418 67.334875 
L 154.374688 70.136208 
L 154.656213 71.763344 
L 154.707399 71.844606 
L 154.860958 72.297581 
L 155.040111 72.577389 
L 155.296042 73.23397 
L 155.551974 73.731865 
L 155.731126 74.371317 
L 157.829765 77.00711 
L 158.18807 77.224681 
L 158.59756 77.473939 
L 158.751119 77.580589 
L 159.365355 77.760095 
L 159.800439 77.884914 
L 160.107557 77.971397 
L 161.336029 78.327537 
L 161.771113 78.436862 
L 163.383482 78.647972 
L 163.639413 78.699088 
L 164.867885 78.859259 
L 166.505848 78.996869 
L 172.238716 79.199346 
L 195.630868 79.654875 
L 195.630868 79.654875 
" clip-path="url(#p5bc34d617b)" style="fill: none; stroke: #8c564b; stroke-width: 0.5; stroke-linecap: square"/>
   </g>
   <g id="line2d_32">
    <path d="M 148.667413 33.190875 
L 197.979041 33.190875 
" clip-path="url(#p5bc34d617b)" style="fill: none; stroke-dasharray: 1.85,0.8; stroke-dashoffset: 0; stroke: #ff0000; stroke-width: 0.5"/>
   </g>
   <g id="patch_8">
    <path d="M 148.667413 82.704075 
L 197.979041 82.704075 
" style="fill: none; stroke: #000000; stroke-width: 0.5; stroke-linejoin: miter; stroke-linecap: square"/>
   </g>
   <g id="text_16">
    <!-- E -->
    <g transform="translate(171.048477 12.670875) scale(0.072 -0.072)">
     <defs>
      <path id="DejaVuSans-45" d="M 628 4666 
L 3578 4666 
L 3578 4134 
L 1259 4134 
L 1259 2753 
L 3481 2753 
L 3481 2222 
L 1259 2222 
L 1259 531 
L 3634 531 
L 3634 0 
L 628 0 
L 628 4666 
z
" transform="scale(0.015625)"/>
     </defs>
     <use xlink:href="#DejaVuSans-45"/>
    </g>
   </g>
  </g>
  <g id="axes_4">
   <g id="patch_9">
    <path d="M 202.910203 79.654875 
L 252.221831 79.654875 
L 252.221831 18.670875 
L 202.910203 18.670875 
L 202.910203 79.654875 
z
" style="fill: none"/>
   </g>
   <g id="matplotlib.axis_7">
    <g id="xtick_7">
     <g id="line2d_33">
      <g>
       <use xlink:href="#mfbb69323fc" x="202.910203" y="82.704075" style="stroke: #000000; stroke-width: 0.5"/>
      </g>
     </g>
     <g id="text_17">
      <!-- 0 -->
      <g transform="translate(201.001453 94.613137) scale(0.06 -0.06)">
       <use xlink:href="#DejaVuSans-30"/>
      </g>
     </g>
    </g>
    <g id="xtick_8">
     <g id="line2d_34">
      <g>
       <use xlink:href="#mfbb69323fc" x="246.015715" y="82.704075" style="stroke: #000000; stroke-width: 0.5"/>
      </g>
     </g>
     <g id="text_18">
      <!-- 2000 -->
      <g transform="translate(238.380715 94.613137) scale(0.06 -0.06)">
       <use xlink:href="#DejaVuSans-32"/>
       <use xlink:href="#DejaVuSans-30" x="63.623047"/>
       <use xlink:href="#DejaVuSans-30" x="127.246094"/>
       <use xlink:href="#DejaVuSans-30" x="190.869141"/>
      </g>
     </g>
    </g>
   </g>
   <g id="matplotlib.axis_8"/>
   <g id="line2d_35">
    <path d="M 202.910203 21.574875 
L 202.996415 21.680379 
L 203.341259 23.932181 
L 203.578339 28.387778 
L 204.074052 61.233635 
L 204.375791 69.150122 
L 204.893057 73.996117 
L 205.53964 77.019866 
L 206.466408 78.126454 
L 206.919016 78.396824 
L 210.324352 79.220632 
L 217.889369 79.393841 
L 249.873659 79.654875 
L 249.873659 79.654875 
" clip-path="url(#p282d996052)" style="fill: none; stroke: #1f77b4; stroke-width: 0.5; stroke-linecap: square"/>
   </g>
   <g id="line2d_36">
    <path d="M 202.910203 21.835323 
L 203.017967 21.907848 
L 203.168837 23.45915 
L 203.556786 38.353542 
L 203.578339 38.421284 
L 203.642997 42.654951 
L 203.815419 52.893231 
L 204.742188 72.614875 
L 205.302559 76.223453 
L 205.53964 77.177529 
L 205.604298 77.292299 
L 205.77672 77.690817 
L 206.078459 77.995446 
L 206.40175 78.246875 
L 206.681936 78.462267 
L 207.02678 78.564171 
L 207.65181 78.821191 
L 208.233734 79.076965 
L 209.117397 79.193923 
L 210.130377 79.254228 
L 225.454386 79.432346 
L 229.204566 79.469316 
L 234.1617 79.580126 
L 244.614786 79.654875 
L 249.873659 79.654875 
L 249.873659 79.654875 
" clip-path="url(#p282d996052)" style="fill: none; stroke: #ff7f0e; stroke-width: 0.5; stroke-linecap: square"/>
   </g>
   <g id="line2d_37">
    <path d="M 202.910203 21.574875 
L 203.987841 21.674583 
L 204.181816 22.283168 
L 204.871504 30.84296 
L 205.15169 38.63881 
L 205.173243 38.841902 
L 205.345665 43.913337 
L 205.453429 46.466304 
L 205.712062 50.614875 
L 205.733615 50.614875 
L 206.207775 60.294875 
L 206.250881 60.294875 
L 206.509514 65.134875 
L 206.574172 65.134875 
L 206.725041 67.741029 
L 206.875911 69.974875 
L 206.897463 69.974875 
L 207.048333 71.113699 
L 207.199202 71.357732 
L 207.436282 73.049484 
L 207.673363 73.604875 
L 207.845785 74.374875 
L 207.931996 74.418154 
L 208.061312 74.935056 
L 208.12597 75.050973 
L 208.341498 75.543017 
L 208.384603 75.668319 
L 208.535473 75.876323 
L 208.578578 75.907778 
L 208.751 76.238404 
L 208.815659 76.238404 
L 208.966528 76.634166 
L 209.13895 76.978377 
L 209.419136 77.234875 
L 209.505347 77.284263 
L 209.656216 77.526677 
L 209.957955 77.718875 
L 210.151929 77.781327 
L 210.302799 77.912475 
L 210.690748 78.052668 
L 210.86317 78.126454 
L 211.057145 78.220801 
L 211.358884 78.334875 
L 211.897703 78.444875 
L 212.199441 78.516051 
L 212.652049 78.621151 
L 213.535712 78.813136 
L 214.096084 78.946582 
L 214.591797 79.027661 
L 216.165148 79.190235 
L 217.436761 79.276092 
L 246.058821 79.654875 
L 249.873659 79.654875 
L 249.873659 79.654875 
" clip-path="url(#p282d996052)" style="fill: none; stroke: #2ca02c; stroke-width: 0.5; stroke-linecap: square"/>
   </g>
   <g id="line2d_38">
    <path d="M 202.910203 21.574875 
L 203.772314 21.622443 
L 203.966289 21.914524 
L 204.009394 21.97405 
L 204.634424 27.419869 
L 204.76374 29.254259 
L 204.871504 30.600821 
L 205.108585 34.481542 
L 205.345665 38.169161 
L 205.38877 38.169161 
L 205.582745 41.425002 
L 205.798273 46.147183 
L 205.970695 49.086454 
L 207.285413 68.038875 
L 207.350071 68.038875 
L 207.50094 69.666595 
L 207.522493 69.672375 
L 208.212181 73.201542 
L 208.298392 73.201542 
L 208.492367 74.156177 
L 208.707895 74.560138 
L 208.837211 74.924377 
L 209.246714 75.782875 
L 209.37603 75.947641 
L 209.76398 76.598033 
L 209.893296 76.644434 
L 210.044166 76.889161 
L 210.173482 76.942968 
L 210.367457 77.244007 
L 212.156336 78.41913 
L 212.889129 78.517835 
L 213.147763 78.598875 
L 213.665029 78.702744 
L 213.923662 78.752077 
L 214.354717 78.825161 
L 214.979747 78.928875 
L 215.47546 79.016633 
L 216.10049 79.101732 
L 217.221233 79.208106 
L 217.695394 79.241154 
L 227.997611 79.460411 
L 240.153366 79.654875 
L 249.873659 79.654875 
L 249.873659 79.654875 
" clip-path="url(#p282d996052)" style="fill: none; stroke: #d62728; stroke-width: 0.5; stroke-linecap: square"/>
   </g>
   <g id="line2d_39">
    <path d="M 202.910203 21.574875 
L 203.944736 21.678961 
L 204.160263 21.84008 
L 204.418896 23.144605 
L 204.483555 23.266525 
L 205.173243 27.591619 
L 205.474981 31.675745 
L 205.518087 32.134875 
L 205.668956 34.020589 
L 206.035353 37.732469 
L 206.293986 40.934875 
L 206.337092 40.934875 
L 207.069885 49.678101 
L 207.112991 49.804995 
L 207.134544 49.87026 
L 207.26386 50.614875 
L 207.436282 50.614875 
L 207.65181 53.01582 
L 207.867337 54.337952 
L 208.082865 55.298746 
L 209.936402 68.038875 
L 210.044166 68.141976 
L 210.238141 69.361627 
L 210.496774 70.150875 
L 210.518326 70.180832 
L 210.712301 71.076906 
L 210.733854 71.095717 
L 210.86317 71.399602 
L 210.884723 71.426875 
L 211.078698 72.394875 
L 211.121803 72.394875 
L 211.445095 73.611869 
L 211.617517 73.846875 
L 211.63907 73.906546 
L 211.768386 74.540913 
L 212.027019 75.187183 
L 212.134783 75.283262 
L 213.083104 76.717496 
L 213.277079 76.889161 
L 213.449501 77.129658 
L 213.665029 77.331675 
L 213.880556 77.438081 
L 215.777199 78.304177 
L 216.165148 78.412723 
L 217.846263 78.747748 
L 218.104896 78.788009 
L 220.217066 79.009542 
L 221.57489 79.117338 
L 222.286131 79.162672 
L 225.497492 79.273246 
L 227.566556 79.315226 
L 234.484991 79.426214 
L 237.157533 79.536586 
L 247.45975 79.654875 
L 249.873659 79.654875 
L 249.873659 79.654875 
" clip-path="url(#p282d996052)" style="fill: none; stroke: #9467bd; stroke-width: 0.5; stroke-linecap: square"/>
   </g>
   <g id="line2d_40">
    <path d="M 202.910203 21.574875 
L 202.953309 21.574875 
L 203.147284 23.510875 
L 203.211942 24.214875 
L 203.362811 26.139179 
L 204.138711 46.35737 
L 204.160263 46.411717 
L 204.332685 50.908208 
L 204.354238 50.973394 
L 205.065479 67.080854 
L 205.561192 71.253366 
L 205.755167 72.685275 
L 206.0138 73.472165 
L 206.078459 73.487087 
L 206.250881 74.234075 
L 206.337092 74.449592 
L 207.134544 76.603768 
L 207.177649 76.661061 
L 207.328518 77.062018 
L 207.522493 77.183386 
L 207.565599 77.249195 
L 207.738021 77.503764 
L 208.039759 77.927982 
L 208.384603 78.137546 
L 208.729448 78.41913 
L 209.13895 78.52667 
L 209.462241 78.635928 
L 209.591558 78.774875 
L 210.087271 78.955116 
L 210.62609 79.06523 
L 212.824471 79.2591 
L 220.94986 79.401987 
L 233.3858 79.59771 
L 236.381633 79.654875 
L 249.873659 79.654875 
L 249.873659 79.654875 
" clip-path="url(#p282d996052)" style="fill: none; stroke: #8c564b; stroke-width: 0.5; stroke-linecap: square"/>
   </g>
   <g id="line2d_41">
    <path d="M 202.910203 33.190875 
L 252.221831 33.190875 
" clip-path="url(#p282d996052)" style="fill: none; stroke-dasharray: 1.85,0.8; stroke-dashoffset: 0; stroke: #ff0000; stroke-width: 0.5"/>
   </g>
   <g id="patch_10">
    <path d="M 202.910203 82.704075 
L 252.221831 82.704075 
" style="fill: none; stroke: #000000; stroke-width: 0.5; stroke-linejoin: miter; stroke-linecap: square"/>
   </g>
   <g id="text_19">
    <!-- DS -->
    <g transform="translate(222.50858 12.670875) scale(0.072 -0.072)">
     <defs>
      <path id="DejaVuSans-44" d="M 1259 4147 
L 1259 519 
L 2022 519 
Q 2988 519 3436 956 
Q 3884 1394 3884 2338 
Q 3884 3275 3436 3711 
Q 2988 4147 2022 4147 
L 1259 4147 
z
M 628 4666 
L 1925 4666 
Q 3281 4666 3915 4102 
Q 4550 3538 4550 2338 
Q 4550 1131 3912 565 
Q 3275 0 1925 0 
L 628 0 
L 628 4666 
z
" transform="scale(0.015625)"/>
     </defs>
     <use xlink:href="#DejaVuSans-44"/>
     <use xlink:href="#DejaVuSans-53" x="77.001953"/>
    </g>
   </g>
  </g>
 </g>
 <defs>
  <clipPath id="p4de06feabf">
   <rect x="40.181831" y="18.670875" width="49.311628" height="60.984"/>
  </clipPath>
  <clipPath id="p5c534c4ed1">
   <rect x="94.424622" y="18.670875" width="49.311628" height="60.984"/>
  </clipPath>
  <clipPath id="p5bc34d617b">
   <rect x="148.667413" y="18.670875" width="49.311628" height="60.984"/>
  </clipPath>
  <clipPath id="p282d996052">
   <rect x="202.910203" y="18.670875" width="49.311628" height="60.984"/>
  </clipPath>
 </defs>
</svg>
