<?xml version="1.0" encoding="utf-8" standalone="no"?>
<!DOCTYPE svg PUBLIC "-//W3C//DTD SVG 1.1//EN"
  "http://www.w3.org/Graphics/SVG/1.1/DTD/svg11.dtd">
<svg xmlns:xlink="http://www.w3.org/1999/xlink" width="88.023379pt" height="82.996875pt" viewBox="0 0 88.023379 82.996875" xmlns="http://www.w3.org/2000/svg" version="1.1">
 <metadata>
  <rdf:RDF xmlns:dc="http://purl.org/dc/elements/1.1/" xmlns:cc="http://creativecommons.org/ns#" xmlns:rdf="http://www.w3.org/1999/02/22-rdf-syntax-ns#">
   <cc:Work>
    <dc:type rdf:resource="http://purl.org/dc/dcmitype/StillImage"/>
    <dc:date>2024-12-02T12:01:30.360064</dc:date>
    <dc:format>image/svg+xml</dc:format>
    <dc:creator>
     <cc:Agent>
      <dc:title>Matplotlib v3.8.4, https://matplotlib.org/</dc:title>
     </cc:Agent>
    </dc:creator>
   </cc:Work>
  </rdf:RDF>
 </metadata>
 <defs>
  <style type="text/css">*{stroke-linejoin: round; stroke-linecap: butt}</style>
 </defs>
 <g id="figure_1">
  <g id="patch_1">
   <path d="M 0 82.996875 
L 88.023379 82.996875 
L 88.023379 0 
L 0 0 
L 0 82.996875 
z
" style="fill: none"/>
  </g>
  <g id="axes_1">
   <g id="patch_2">
    <path d="M 24.091875 62.64 
L 79.891875 62.64 
L 79.891875 7.2 
L 24.091875 7.2 
L 24.091875 62.64 
z
" style="fill: none"/>
   </g>
   <g id="matplotlib.axis_1">
    <g id="xtick_1">
     <g id="line2d_1">
      <defs>
       <path id="ma7f7ff9733" d="M 0 0 
L 0 3.85 
" style="stroke: #000000; stroke-width: 0.5"/>
      </defs>
      <g>
       <use xlink:href="#ma7f7ff9733" x="26.628239" y="62.64" style="stroke: #000000; stroke-width: 0.5"/>
      </g>
     </g>
     <g id="text_1">
      <!-- 0 -->
      <g transform="translate(24.719489 74.549062) scale(0.06 -0.06)">
       <defs>
        <path id="DejaVuSans-30" d="M 2034 4250 
Q 1547 4250 1301 3770 
Q 1056 3291 1056 2328 
Q 1056 1369 1301 889 
Q 1547 409 2034 409 
Q 2525 409 2770 889 
Q 3016 1369 3016 2328 
Q 3016 3291 2770 3770 
Q 2525 4250 2034 4250 
z
M 2034 4750 
Q 2819 4750 3233 4129 
Q 3647 3509 3647 2328 
Q 3647 1150 3233 529 
Q 2819 -91 2034 -91 
Q 1250 -91 836 529 
Q 422 1150 422 2328 
Q 422 3509 836 4129 
Q 1250 4750 2034 4750 
z
" transform="scale(0.015625)"/>
       </defs>
       <use xlink:href="#DejaVuSans-30"/>
      </g>
     </g>
    </g>
    <g id="xtick_2">
     <g id="line2d_2">
      <g>
       <use xlink:href="#ma7f7ff9733" x="49.908309" y="62.64" style="stroke: #000000; stroke-width: 0.5"/>
      </g>
     </g>
     <g id="text_2">
      <!-- 1000 -->
      <g transform="translate(42.273309 74.549062) scale(0.06 -0.06)">
       <defs>
        <path id="DejaVuSans-31" d="M 794 531 
L 1825 531 
L 1825 4091 
L 703 3866 
L 703 4441 
L 1819 4666 
L 2450 4666 
L 2450 531 
L 3481 531 
L 3481 0 
L 794 0 
L 794 531 
z
" transform="scale(0.015625)"/>
       </defs>
       <use xlink:href="#DejaVuSans-31"/>
       <use xlink:href="#DejaVuSans-30" x="63.623047"/>
       <use xlink:href="#DejaVuSans-30" x="127.246094"/>
       <use xlink:href="#DejaVuSans-30" x="190.869141"/>
      </g>
     </g>
    </g>
    <g id="xtick_3">
     <g id="line2d_3">
      <g>
       <use xlink:href="#ma7f7ff9733" x="73.188379" y="62.64" style="stroke: #000000; stroke-width: 0.5"/>
      </g>
     </g>
     <g id="text_3">
      <!-- 2000 -->
      <g transform="translate(65.553379 74.549062) scale(0.06 -0.06)">
       <defs>
        <path id="DejaVuSans-32" d="M 1228 531 
L 3431 531 
L 3431 0 
L 469 0 
L 469 531 
Q 828 903 1448 1529 
Q 2069 2156 2228 2338 
Q 2531 2678 2651 2914 
Q 2772 3150 2772 3378 
Q 2772 3750 2511 3984 
Q 2250 4219 1831 4219 
Q 1534 4219 1204 4116 
Q 875 4013 500 3803 
L 500 4441 
Q 881 4594 1212 4672 
Q 1544 4750 1819 4750 
Q 2544 4750 2975 4387 
Q 3406 4025 3406 3419 
Q 3406 3131 3298 2873 
Q 3191 2616 2906 2266 
Q 2828 2175 2409 1742 
Q 1991 1309 1228 531 
z
" transform="scale(0.015625)"/>
       </defs>
       <use xlink:href="#DejaVuSans-32"/>
       <use xlink:href="#DejaVuSans-30" x="63.623047"/>
       <use xlink:href="#DejaVuSans-30" x="127.246094"/>
       <use xlink:href="#DejaVuSans-30" x="190.869141"/>
      </g>
     </g>
    </g>
   </g>
   <g id="matplotlib.axis_2">
    <g id="ytick_1">
     <g id="line2d_4">
      <defs>
       <path id="m254afefdcf" d="M 0 0 
L -3.85 0 
" style="stroke: #000000; stroke-width: 0.5"/>
      </defs>
      <g>
       <use xlink:href="#m254afefdcf" x="24.091875" y="60.12" style="stroke: #000000; stroke-width: 0.5"/>
      </g>
     </g>
     <g id="text_4">
      <!-- 0.0 -->
      <g transform="translate(7.2 62.399531) scale(0.06 -0.06)">
       <defs>
        <path id="DejaVuSans-2e" d="M 684 794 
L 1344 794 
L 1344 0 
L 684 0 
L 684 794 
z
" transform="scale(0.015625)"/>
       </defs>
       <use xlink:href="#DejaVuSans-30"/>
       <use xlink:href="#DejaVuSans-2e" x="63.623047"/>
       <use xlink:href="#DejaVuSans-30" x="95.410156"/>
      </g>
     </g>
    </g>
    <g id="ytick_2">
     <g id="line2d_5">
      <g>
       <use xlink:href="#m254afefdcf" x="24.091875" y="34.92" style="stroke: #000000; stroke-width: 0.5"/>
      </g>
     </g>
     <g id="text_5">
      <!-- 0.5 -->
      <g transform="translate(7.2 37.199531) scale(0.06 -0.06)">
       <defs>
        <path id="DejaVuSans-35" d="M 691 4666 
L 3169 4666 
L 3169 4134 
L 1269 4134 
L 1269 2991 
Q 1406 3038 1543 3061 
Q 1681 3084 1819 3084 
Q 2600 3084 3056 2656 
Q 3513 2228 3513 1497 
Q 3513 744 3044 326 
Q 2575 -91 1722 -91 
Q 1428 -91 1123 -41 
Q 819 9 494 109 
L 494 744 
Q 775 591 1075 516 
Q 1375 441 1709 441 
Q 2250 441 2565 725 
Q 2881 1009 2881 1497 
Q 2881 1984 2565 2268 
Q 2250 2553 1709 2553 
Q 1456 2553 1204 2497 
Q 953 2441 691 2322 
L 691 4666 
z
" transform="scale(0.015625)"/>
       </defs>
       <use xlink:href="#DejaVuSans-30"/>
       <use xlink:href="#DejaVuSans-2e" x="63.623047"/>
       <use xlink:href="#DejaVuSans-35" x="95.410156"/>
      </g>
     </g>
    </g>
    <g id="ytick_3">
     <g id="line2d_6">
      <g>
       <use xlink:href="#m254afefdcf" x="24.091875" y="9.72" style="stroke: #000000; stroke-width: 0.5"/>
      </g>
     </g>
     <g id="text_6">
      <!-- 1.0 -->
      <g transform="translate(7.2 11.999531) scale(0.06 -0.06)">
       <use xlink:href="#DejaVuSans-31"/>
       <use xlink:href="#DejaVuSans-2e" x="63.623047"/>
       <use xlink:href="#DejaVuSans-30" x="95.410156"/>
      </g>
     </g>
    </g>
   </g>
   <g id="line2d_7">
    <path d="M 26.628239 9.72 
L 26.721359 9.811553 
L 27.07056 11.487452 
L 27.18696 13.404211 
L 27.326641 15.499052 
L 27.349921 15.632023 
L 27.862082 42.942811 
L 28.094883 50.079894 
L 28.141443 50.12 
L 28.350964 53.113722 
L 28.420804 53.494138 
L 28.560484 54.534776 
L 28.700165 55.105497 
L 28.770005 55.209507 
L 29.445127 57.824041 
L 29.654648 57.970797 
L 29.840888 58.287273 
L 30.073689 58.516364 
L 30.166809 58.624451 
L 30.32977 58.724844 
L 31.330813 59.101818 
L 31.912815 59.241295 
L 32.494816 59.428537 
L 33.379459 59.62099 
L 34.659863 59.743881 
L 36.103227 59.805981 
L 38.664035 59.856126 
L 77.355511 60.12 
L 77.355511 60.12 
" clip-path="url(#p8e26c2a0eb)" style="fill: none; stroke: #1f77b4; stroke-width: 0.5; stroke-linecap: square"/>
   </g>
   <g id="line2d_8">
    <path d="M 26.628239 9.946009 
L 26.744639 10.008943 
L 26.907599 11.355115 
L 27.326641 24.28 
L 27.349921 24.338785 
L 27.419761 28.012628 
L 27.606002 36.897086 
L 28.583765 54.010909 
L 28.607045 54.010909 
L 29.165766 57.042137 
L 29.212326 57.142319 
L 29.445127 57.970237 
L 29.538247 58.069831 
L 29.701208 58.331973 
L 29.864168 58.552 
L 30.53929 59.00292 
L 30.678971 59.07115 
L 31.051452 59.169057 
L 31.796414 59.413458 
L 32.099055 59.533953 
L 32.727617 59.661818 
L 35.544505 59.803019 
L 48.581345 59.914076 
L 77.355511 60.12 
L 77.355511 60.12 
" clip-path="url(#p8e26c2a0eb)" style="fill: none; stroke: #ff7f0e; stroke-width: 0.5; stroke-linecap: square"/>
   </g>
   <g id="line2d_9">
    <path d="M 26.628239 9.72 
L 27.792242 9.806524 
L 28.001763 10.334634 
L 28.746725 17.762553 
L 29.026086 24.12 
L 30.213369 43.32 
L 30.23665 43.32 
L 30.49273 47.33194 
L 30.748811 49.781538 
L 30.911772 51.72 
L 30.935052 51.72 
L 31.098012 52.708235 
L 31.260973 52.92 
L 31.517053 54.388049 
L 31.773134 54.87 
L 31.936095 55.538182 
L 32.052495 55.575738 
L 32.192175 56.024289 
L 32.262016 56.124878 
L 32.494816 56.551858 
L 32.541376 56.660592 
L 32.657777 56.76 
L 32.750897 56.868387 
L 32.913858 57.155294 
L 33.006978 57.155294 
L 33.146658 57.467368 
L 33.6821 58.02 
L 33.82178 58.207364 
L 33.984741 58.32 
L 34.147701 58.411525 
L 34.357222 58.494194 
L 34.590023 58.592727 
L 34.985784 58.72 
L 35.358265 58.829072 
L 36.173067 59.04766 
L 36.731789 59.137691 
L 36.94131 59.203636 
L 37.593152 59.307097 
L 37.919073 59.364 
L 40.689401 59.699123 
L 49.186627 59.908057 
L 77.355511 60.12 
L 77.355511 60.12 
" clip-path="url(#p8e26c2a0eb)" style="fill: none; stroke: #2ca02c; stroke-width: 0.5; stroke-linecap: square"/>
   </g>
   <g id="line2d_10">
    <path d="M 26.628239 9.72 
L 27.582722 9.820199 
L 27.815522 10.066392 
L 28.490644 14.792102 
L 28.630325 16.383928 
L 28.746725 17.552432 
L 28.979526 20.92 
L 29.002806 20.92 
L 29.258887 24.12 
L 29.305447 24.12 
L 29.491687 26.901818 
L 29.514967 26.945316 
L 29.747768 31.043077 
L 29.887448 32.981538 
L 29.910729 32.981538 
L 30.190089 37.850233 
L 30.25993 38.52 
L 30.56257 41.792727 
L 30.609131 42.236129 
L 30.772091 45.296471 
L 30.795371 45.296471 
L 31.098012 48.78 
L 31.400653 50.04 
L 31.423933 50.04 
L 31.586894 51.452484 
L 31.633454 51.57 
L 31.796414 51.920957 
L 31.936095 52.92 
L 31.959375 52.92 
L 32.308576 54.402353 
L 32.471536 54.72 
L 32.611217 55.08 
L 32.960418 55.92 
L 33.030258 56.015023 
L 33.472579 56.76 
L 33.61226 56.902979 
L 34.031301 57.467368 
L 34.170981 57.507634 
L 34.333942 57.72 
L 34.496902 57.829091 
L 34.636583 58.02 
L 34.799543 58.104 
L 34.962504 58.229463 
L 35.404825 58.545 
L 35.637626 58.652039 
L 35.847146 58.793684 
L 36.056667 58.905542 
L 37.19739 59.121431 
L 38.175153 59.28 
L 38.477794 59.3325 
L 39.362437 59.438919 
L 39.897879 59.530526 
L 42.621647 59.761183 
L 58.940976 60.054375 
L 77.355511 60.12 
L 77.355511 60.12 
" clip-path="url(#p8e26c2a0eb)" style="fill: none; stroke: #d62728; stroke-width: 0.5; stroke-linecap: square"/>
   </g>
   <g id="line2d_11">
    <path d="M 26.628239 9.72 
L 27.792242 9.82566 
L 27.978483 9.950137 
L 28.257844 11.082162 
L 28.327684 11.187961 
L 29.072646 14.941142 
L 29.258887 16.47 
L 29.282167 16.479657 
L 29.421847 18.614118 
L 29.840888 22.32 
L 29.910729 22.32 
L 30.073689 24.352258 
L 30.096969 24.381818 
L 30.30649 26.52 
L 30.32977 26.52 
L 31.121292 34.107097 
L 31.167852 34.217211 
L 31.191132 34.273846 
L 31.330813 34.92 
L 31.517053 34.92 
L 31.749854 37.003465 
L 31.982655 38.150769 
L 32.215455 38.984516 
L 32.937138 43.580062 
L 33.076818 44.353846 
L 33.100098 44.37 
L 33.286339 45.164614 
L 33.61226 46.778824 
L 33.72866 47.52 
L 33.75194 47.52 
L 34.194261 50.04 
L 34.333942 50.129467 
L 34.520182 51.02 
L 34.683143 51.542737 
L 34.706423 51.547037 
L 34.892664 52.214118 
L 35.009064 52.493684 
L 35.218584 52.956333 
L 35.241865 52.98 
L 35.428105 53.82 
L 35.521225 53.926265 
L 35.870426 54.950769 
L 36.824909 56.667945 
L 36.96459 56.955874 
L 37.12755 57.144622 
L 37.337071 57.198261 
L 37.500031 57.473173 
L 37.756112 57.619237 
L 38.082033 58.02 
L 38.384674 58.116522 
L 38.594195 58.253333 
L 38.850275 58.331613 
L 39.013236 58.382069 
L 39.176196 58.480976 
L 39.734918 58.68 
L 39.921159 58.793684 
L 40.712681 59 
L 45.578216 59.572174 
L 47.277661 59.680532 
L 47.929503 59.706885 
L 52.655357 59.8176 
L 68.415964 60.115356 
L 77.355511 60.12 
L 77.355511 60.12 
" clip-path="url(#p8e26c2a0eb)" style="fill: none; stroke: #9467bd; stroke-width: 0.5; stroke-linecap: square"/>
   </g>
   <g id="line2d_12">
    <path d="M 26.628239 9.72 
L 26.674799 9.72 
L 26.861039 11.388549 
L 26.907599 11.47814 
L 27.18696 14.958023 
L 27.419761 18.776905 
L 27.559441 23.311011 
L 27.885362 29.88 
L 28.001763 32.498648 
L 28.188003 35.231111 
L 28.839845 46.972174 
L 28.886405 47.52 
L 29.026086 49.827042 
L 29.049366 49.834286 
L 29.957289 54.744 
L 30.050409 54.767788 
L 30.213369 55.416 
L 30.30649 55.487647 
L 30.53929 56.132658 
L 30.632411 56.263396 
L 30.772091 56.791698 
L 30.841931 56.954783 
L 31.028172 57.155294 
L 31.214412 57.484706 
L 31.819694 58.249485 
L 31.866254 58.293913 
L 32.052495 58.569231 
L 32.611217 58.838644 
L 32.890577 59.045755 
L 33.65882 59.203636 
L 34.124421 59.448 
L 34.590023 59.558217 
L 35.125464 59.625882 
L 37.779392 59.790157 
L 52.236316 59.946804 
L 74.515343 60.12 
L 77.355511 60.12 
L 77.355511 60.12 
" clip-path="url(#p8e26c2a0eb)" style="fill: none; stroke: #8c564b; stroke-width: 0.5; stroke-linecap: square"/>
   </g>
   <g id="patch_3">
    <path d="M 24.091875 62.64 
L 24.091875 7.2 
" style="fill: none; stroke: #000000; stroke-width: 0.5; stroke-linejoin: miter; stroke-linecap: square"/>
   </g>
   <g id="patch_4">
    <path d="M 79.891875 62.64 
L 79.891875 7.2 
" style="fill: none; stroke: #000000; stroke-width: 0.5; stroke-linejoin: miter; stroke-linecap: square"/>
   </g>
   <g id="patch_5">
    <path d="M 24.091875 62.64 
L 79.891875 62.64 
" style="fill: none; stroke: #000000; stroke-width: 0.5; stroke-linejoin: miter; stroke-linecap: square"/>
   </g>
   <g id="legend_1">
    <g id="line2d_13">
     <path d="M 50.55 15.059062 
L 53.55 15.059062 
L 56.55 15.059062 
" style="fill: none; stroke: #1f77b4; stroke-linecap: square"/>
    </g>
    <g id="text_7">
     <!-- ks4 -->
     <g transform="translate(58.35 17.159062) scale(0.06 -0.06)">
      <defs>
       <path id="DejaVuSans-6b" d="M 581 4863 
L 1159 4863 
L 1159 1991 
L 2875 3500 
L 3609 3500 
L 1753 1863 
L 3688 0 
L 2938 0 
L 1159 1709 
L 1159 0 
L 581 0 
L 581 4863 
z
" transform="scale(0.015625)"/>
       <path id="DejaVuSans-73" d="M 2834 3397 
L 2834 2853 
Q 2591 2978 2328 3040 
Q 2066 3103 1784 3103 
Q 1356 3103 1142 2972 
Q 928 2841 928 2578 
Q 928 2378 1081 2264 
Q 1234 2150 1697 2047 
L 1894 2003 
Q 2506 1872 2764 1633 
Q 3022 1394 3022 966 
Q 3022 478 2636 193 
Q 2250 -91 1575 -91 
Q 1294 -91 989 -36 
Q 684 19 347 128 
L 347 722 
Q 666 556 975 473 
Q 1284 391 1588 391 
Q 1994 391 2212 530 
Q 2431 669 2431 922 
Q 2431 1156 2273 1281 
Q 2116 1406 1581 1522 
L 1381 1569 
Q 847 1681 609 1914 
Q 372 2147 372 2553 
Q 372 3047 722 3315 
Q 1072 3584 1716 3584 
Q 2034 3584 2315 3537 
Q 2597 3491 2834 3397 
z
" transform="scale(0.015625)"/>
       <path id="DejaVuSans-34" d="M 2419 4116 
L 825 1625 
L 2419 1625 
L 2419 4116 
z
M 2253 4666 
L 3047 4666 
L 3047 1625 
L 3713 1625 
L 3713 1100 
L 3047 1100 
L 3047 0 
L 2419 0 
L 2419 1100 
L 313 1100 
L 313 1709 
L 2253 4666 
z
" transform="scale(0.015625)"/>
      </defs>
      <use xlink:href="#DejaVuSans-6b"/>
      <use xlink:href="#DejaVuSans-73" x="57.910156"/>
      <use xlink:href="#DejaVuSans-34" x="110.009766"/>
     </g>
    </g>
    <g id="line2d_14">
     <path d="M 50.55 21.345937 
L 53.55 21.345937 
L 56.55 21.345937 
" style="fill: none; stroke: #ff7f0e; stroke-linecap: square"/>
    </g>
    <g id="text_8">
     <!-- ks3 -->
     <g transform="translate(58.35 23.445937) scale(0.06 -0.06)">
      <defs>
       <path id="DejaVuSans-33" d="M 2597 2516 
Q 3050 2419 3304 2112 
Q 3559 1806 3559 1356 
Q 3559 666 3084 287 
Q 2609 -91 1734 -91 
Q 1441 -91 1130 -33 
Q 819 25 488 141 
L 488 750 
Q 750 597 1062 519 
Q 1375 441 1716 441 
Q 2309 441 2620 675 
Q 2931 909 2931 1356 
Q 2931 1769 2642 2001 
Q 2353 2234 1838 2234 
L 1294 2234 
L 1294 2753 
L 1863 2753 
Q 2328 2753 2575 2939 
Q 2822 3125 2822 3475 
Q 2822 3834 2567 4026 
Q 2313 4219 1838 4219 
Q 1578 4219 1281 4162 
Q 984 4106 628 3988 
L 628 4550 
Q 988 4650 1302 4700 
Q 1616 4750 1894 4750 
Q 2613 4750 3031 4423 
Q 3450 4097 3450 3541 
Q 3450 3153 3228 2886 
Q 3006 2619 2597 2516 
z
" transform="scale(0.015625)"/>
      </defs>
      <use xlink:href="#DejaVuSans-6b"/>
      <use xlink:href="#DejaVuSans-73" x="57.910156"/>
      <use xlink:href="#DejaVuSans-33" x="110.009766"/>
     </g>
    </g>
    <g id="line2d_15">
     <path d="M 50.55 27.632812 
L 53.55 27.632812 
L 56.55 27.632812 
" style="fill: none; stroke: #2ca02c; stroke-linecap: square"/>
    </g>
    <g id="text_9">
     <!-- ks2.5 -->
     <g transform="translate(58.35 29.732812) scale(0.06 -0.06)">
      <use xlink:href="#DejaVuSans-6b"/>
      <use xlink:href="#DejaVuSans-73" x="57.910156"/>
      <use xlink:href="#DejaVuSans-32" x="110.009766"/>
      <use xlink:href="#DejaVuSans-2e" x="173.632812"/>
      <use xlink:href="#DejaVuSans-35" x="205.419922"/>
     </g>
    </g>
    <g id="line2d_16">
     <path d="M 50.55 33.919687 
L 53.55 33.919687 
L 56.55 33.919687 
" style="fill: none; stroke: #d62728; stroke-linecap: square"/>
    </g>
    <g id="text_10">
     <!-- ks2 -->
     <g transform="translate(58.35 36.019687) scale(0.06 -0.06)">
      <use xlink:href="#DejaVuSans-6b"/>
      <use xlink:href="#DejaVuSans-73" x="57.910156"/>
      <use xlink:href="#DejaVuSans-32" x="110.009766"/>
     </g>
    </g>
    <g id="line2d_17">
     <path d="M 50.55 40.206562 
L 53.55 40.206562 
L 56.55 40.206562 
" style="fill: none; stroke: #9467bd; stroke-linecap: square"/>
    </g>
    <g id="text_11">
     <!-- ks -->
     <g transform="translate(58.35 42.306562) scale(0.06 -0.06)">
      <use xlink:href="#DejaVuSans-6b"/>
      <use xlink:href="#DejaVuSans-73" x="57.910156"/>
     </g>
    </g>
    <g id="line2d_18">
     <path d="M 50.55 46.493437 
L 53.55 46.493437 
L 56.55 46.493437 
" style="fill: none; stroke: #8c564b; stroke-linecap: square"/>
    </g>
    <g id="text_12">
     <!-- hs -->
     <g transform="translate(58.35 48.593437) scale(0.06 -0.06)">
      <defs>
       <path id="DejaVuSans-68" d="M 3513 2113 
L 3513 0 
L 2938 0 
L 2938 2094 
Q 2938 2591 2744 2837 
Q 2550 3084 2163 3084 
Q 1697 3084 1428 2787 
Q 1159 2491 1159 1978 
L 1159 0 
L 581 0 
L 581 4863 
L 1159 4863 
L 1159 2956 
Q 1366 3272 1645 3428 
Q 1925 3584 2291 3584 
Q 2894 3584 3203 3211 
Q 3513 2838 3513 2113 
z
" transform="scale(0.015625)"/>
      </defs>
      <use xlink:href="#DejaVuSans-68"/>
      <use xlink:href="#DejaVuSans-73" x="63.378906"/>
     </g>
    </g>
   </g>
  </g>
 </g>
 <defs>
  <clipPath id="p8e26c2a0eb">
   <rect x="24.091875" y="7.2" width="55.8" height="55.44"/>
  </clipPath>
 </defs>
</svg>
