<?xml version="1.0" encoding="utf-8" standalone="no"?>
<!DOCTYPE svg PUBLIC "-//W3C//DTD SVG 1.1//EN"
  "http://www.w3.org/Graphics/SVG/1.1/DTD/svg11.dtd">
<svg xmlns:xlink="http://www.w3.org/1999/xlink" width="221.426875pt" height="120.29575pt" viewBox="0 0 221.426875 120.29575" xmlns="http://www.w3.org/2000/svg" version="1.1">
 <metadata>
  <rdf:RDF xmlns:dc="http://purl.org/dc/elements/1.1/" xmlns:cc="http://creativecommons.org/ns#" xmlns:rdf="http://www.w3.org/1999/02/22-rdf-syntax-ns#">
   <cc:Work>
    <dc:type rdf:resource="http://purl.org/dc/dcmitype/StillImage"/>
    <dc:date>2024-08-22T11:45:05.513747</dc:date>
    <dc:format>image/svg+xml</dc:format>
    <dc:creator>
     <cc:Agent>
      <dc:title>Matplotlib v3.8.4, https://matplotlib.org/</dc:title>
     </cc:Agent>
    </dc:creator>
   </cc:Work>
  </rdf:RDF>
 </metadata>
 <defs>
  <style type="text/css">*{stroke-linejoin: round; stroke-linecap: butt}</style>
 </defs>
 <g id="figure_1">
  <g id="patch_1">
   <path d="M 0 120.29575 
L 221.426875 120.29575 
L 221.426875 0 
L 0 0 
L 0 120.29575 
z
" style="fill: none"/>
  </g>
  <g id="axes_1">
   <g id="patch_2">
    <path d="M 46.826875 87.36 
L 214.226875 87.36 
L 214.226875 31.92 
L 46.826875 31.92 
L 46.826875 87.36 
z
" style="fill: none"/>
   </g>
   <g id="patch_3">
    <path d="M 54.435966 16460.054202 
L 57.59181 16460.054202 
L 57.59181 66.222707 
L 54.435966 66.222707 
z
" clip-path="url(#p5dd890b245)" style="fill: #999999; opacity: 0.4"/>
   </g>
   <g id="patch_4">
    <path d="M 80.734667 16460.054202 
L 83.890511 16460.054202 
L 83.890511 66.490415 
L 80.734667 66.490415 
z
" clip-path="url(#p5dd890b245)" style="fill: #999999; opacity: 0.4"/>
   </g>
   <g id="patch_5">
    <path d="M 107.033369 16460.054202 
L 110.189213 16460.054202 
L 110.189213 59.580384 
L 107.033369 59.580384 
z
" clip-path="url(#p5dd890b245)" style="fill: #999999; opacity: 0.4"/>
   </g>
   <g id="patch_6">
    <path d="M 133.33207 16460.054202 
L 136.487914 16460.054202 
L 136.487914 48.549728 
L 133.33207 48.549728 
z
" clip-path="url(#p5dd890b245)" style="fill: #999999; opacity: 0.4"/>
   </g>
   <g id="patch_7">
    <path d="M 159.630771 16460.054202 
L 162.786615 16460.054202 
L 162.786615 44.395144 
L 159.630771 44.395144 
z
" clip-path="url(#p5dd890b245)" style="fill: #999999; opacity: 0.4"/>
   </g>
   <g id="patch_8">
    <path d="M 185.929472 16460.054202 
L 189.085317 16460.054202 
L 189.085317 65.364501 
L 185.929472 65.364501 
z
" clip-path="url(#p5dd890b245)" style="fill: #999999; opacity: 0.4"/>
   </g>
   <g id="patch_9">
    <path d="M 57.942459 16460.054202 
L 61.098304 16460.054202 
L 61.098304 59.242558 
L 57.942459 59.242558 
z
" clip-path="url(#p5dd890b245)" style="fill: #cd3c3e; opacity: 0.4"/>
   </g>
   <g id="patch_10">
    <path d="M 84.241161 16460.054202 
L 87.397005 16460.054202 
L 87.397005 57.879898 
L 84.241161 57.879898 
z
" clip-path="url(#p5dd890b245)" style="fill: #cd3c3e; opacity: 0.4"/>
   </g>
   <g id="patch_11">
    <path d="M 110.539862 16460.054202 
L 113.695706 16460.054202 
L 113.695706 51.183151 
L 110.539862 51.183151 
z
" clip-path="url(#p5dd890b245)" style="fill: #cd3c3e; opacity: 0.4"/>
   </g>
   <g id="patch_12">
    <path d="M 136.838563 16460.054202 
L 139.994407 16460.054202 
L 139.994407 46.033929 
L 136.838563 46.033929 
z
" clip-path="url(#p5dd890b245)" style="fill: #cd3c3e; opacity: 0.4"/>
   </g>
   <g id="patch_13">
    <path d="M 163.137265 16460.054202 
L 166.293109 16460.054202 
L 166.293109 43.231724 
L 163.137265 43.231724 
z
" clip-path="url(#p5dd890b245)" style="fill: #cd3c3e; opacity: 0.4"/>
   </g>
   <g id="patch_14">
    <path d="M 189.435966 16460.054202 
L 192.59181 16460.054202 
L 192.59181 58.906649 
L 189.435966 58.906649 
z
" clip-path="url(#p5dd890b245)" style="fill: #cd3c3e; opacity: 0.4"/>
   </g>
   <g id="patch_15">
    <path d="M 61.448953 16460.054202 
L 64.604797 16460.054202 
L 64.604797 54.141678 
L 61.448953 54.141678 
z
" clip-path="url(#p5dd890b245)" style="fill: #df7e20; opacity: 0.4"/>
   </g>
   <g id="patch_16">
    <path d="M 87.747654 16460.054202 
L 90.903498 16460.054202 
L 90.903498 52.447187 
L 87.747654 52.447187 
z
" clip-path="url(#p5dd890b245)" style="fill: #df7e20; opacity: 0.4"/>
   </g>
   <g id="patch_17">
    <path d="M 114.046356 16460.054202 
L 117.2022 16460.054202 
L 117.2022 51.134755 
L 114.046356 51.134755 
z
" clip-path="url(#p5dd890b245)" style="fill: #df7e20; opacity: 0.4"/>
   </g>
   <g id="patch_18">
    <path d="M 140.345057 16460.054202 
L 143.500901 16460.054202 
L 143.500901 53.480707 
L 140.345057 53.480707 
z
" clip-path="url(#p5dd890b245)" style="fill: #df7e20; opacity: 0.4"/>
   </g>
   <g id="patch_19">
    <path d="M 166.643758 16460.054202 
L 169.799602 16460.054202 
L 169.799602 41.121169 
L 166.643758 41.121169 
z
" clip-path="url(#p5dd890b245)" style="fill: #df7e20; opacity: 0.4"/>
   </g>
   <g id="patch_20">
    <path d="M 192.942459 16460.054202 
L 196.098304 16460.054202 
L 196.098304 58.764748 
L 192.942459 58.764748 
z
" clip-path="url(#p5dd890b245)" style="fill: #df7e20; opacity: 0.4"/>
   </g>
   <g id="patch_21">
    <path d="M 64.955446 16460.054202 
L 68.111291 16460.054202 
L 68.111291 58.26234 
L 64.955446 58.26234 
z
" clip-path="url(#p5dd890b245)" style="fill: #487ea8; opacity: 0.4"/>
   </g>
   <g id="patch_22">
    <path d="M 91.254148 16460.054202 
L 94.409992 16460.054202 
L 94.409992 58.812065 
L 91.254148 58.812065 
z
" clip-path="url(#p5dd890b245)" style="fill: #487ea8; opacity: 0.4"/>
   </g>
   <g id="patch_23">
    <path d="M 117.552849 16460.054202 
L 120.708693 16460.054202 
L 120.708693 57.612681 
L 117.552849 57.612681 
z
" clip-path="url(#p5dd890b245)" style="fill: #487ea8; opacity: 0.4"/>
   </g>
   <g id="patch_24">
    <path d="M 143.85155 16460.054202 
L 147.007394 16460.054202 
L 147.007394 48.368528 
L 143.85155 48.368528 
z
" clip-path="url(#p5dd890b245)" style="fill: #487ea8; opacity: 0.4"/>
   </g>
   <g id="patch_25">
    <path d="M 170.150252 16460.054202 
L 173.306096 16460.054202 
L 173.306096 49.701254 
L 170.150252 49.701254 
z
" clip-path="url(#p5dd890b245)" style="fill: #487ea8; opacity: 0.4"/>
   </g>
   <g id="patch_26">
    <path d="M 196.448953 16460.054202 
L 199.604797 16460.054202 
L 199.604797 61.782414 
L 196.448953 61.782414 
z
" clip-path="url(#p5dd890b245)" style="fill: #487ea8; opacity: 0.4"/>
   </g>
   <g id="patch_27">
    <path d="M 68.46194 16460.054202 
L 71.617784 16460.054202 
L 71.617784 65.311506 
L 68.46194 65.311506 
z
" clip-path="url(#p5dd890b245)" style="opacity: 0.4"/>
   </g>
   <g id="patch_28">
    <path d="M 94.760641 16460.054202 
L 97.916485 16460.054202 
L 97.916485 62.800722 
L 94.760641 62.800722 
z
" clip-path="url(#p5dd890b245)" style="opacity: 0.4"/>
   </g>
   <g id="patch_29">
    <path d="M 121.059343 16460.054202 
L 124.215187 16460.054202 
L 124.215187 56.875612 
L 121.059343 56.875612 
z
" clip-path="url(#p5dd890b245)" style="opacity: 0.4"/>
   </g>
   <g id="patch_30">
    <path d="M 147.358044 16460.054202 
L 150.513888 16460.054202 
L 150.513888 49.566097 
L 147.358044 49.566097 
z
" clip-path="url(#p5dd890b245)" style="opacity: 0.4"/>
   </g>
   <g id="patch_31">
    <path d="M 173.656745 16460.054202 
L 176.812589 16460.054202 
L 176.812589 43.123973 
L 173.656745 43.123973 
z
" clip-path="url(#p5dd890b245)" style="opacity: 0.4"/>
   </g>
   <g id="patch_32">
    <path d="M 199.955446 16460.054202 
L 203.111291 16460.054202 
L 203.111291 65.846126 
L 199.955446 65.846126 
z
" clip-path="url(#p5dd890b245)" style="opacity: 0.4"/>
   </g>
   <g id="patch_33">
    <path d="M 71.968433 16460.054202 
L 75.124278 16460.054202 
L 75.124278 61.260188 
L 71.968433 61.260188 
z
" clip-path="url(#p5dd890b245)" style="fill: #2a8852; opacity: 0.4"/>
   </g>
   <g id="patch_34">
    <path d="M 98.267135 16460.054202 
L 101.422979 16460.054202 
L 101.422979 60.236945 
L 98.267135 60.236945 
z
" clip-path="url(#p5dd890b245)" style="fill: #2a8852; opacity: 0.4"/>
   </g>
   <g id="patch_35">
    <path d="M 124.565836 16460.054202 
L 127.72168 16460.054202 
L 127.72168 56.095496 
L 124.565836 56.095496 
z
" clip-path="url(#p5dd890b245)" style="fill: #2a8852; opacity: 0.4"/>
   </g>
   <g id="patch_36">
    <path d="M 150.864537 16460.054202 
L 154.020381 16460.054202 
L 154.020381 50.817253 
L 150.864537 50.817253 
z
" clip-path="url(#p5dd890b245)" style="fill: #2a8852; opacity: 0.4"/>
   </g>
   <g id="patch_37">
    <path d="M 177.163239 16460.054202 
L 180.319083 16460.054202 
L 180.319083 46.908796 
L 177.163239 46.908796 
z
" clip-path="url(#p5dd890b245)" style="fill: #2a8852; opacity: 0.4"/>
   </g>
   <g id="patch_38">
    <path d="M 203.46194 16460.054202 
L 206.617784 16460.054202 
L 206.617784 61.379679 
L 203.46194 61.379679 
z
" clip-path="url(#p5dd890b245)" style="fill: #2a8852; opacity: 0.4"/>
   </g>
   <g id="patch_39">
    <path d="M 64.780122 16460.054202 
L 64.780122 16460.054202 
L 64.780122 16460.054202 
L 64.780122 16460.054202 
z
" clip-path="url(#p5dd890b245)" style="fill: #999999; opacity: 0.4"/>
   </g>
   <g id="patch_40">
    <path d="M 64.780122 16460.054202 
L 64.780122 16460.054202 
L 64.780122 16460.054202 
L 64.780122 16460.054202 
z
" clip-path="url(#p5dd890b245)" style="fill: #cd3c3e; opacity: 0.4"/>
   </g>
   <g id="patch_41">
    <path d="M 64.780122 16460.054202 
L 64.780122 16460.054202 
L 64.780122 16460.054202 
L 64.780122 16460.054202 
z
" clip-path="url(#p5dd890b245)" style="fill: #df7e20; opacity: 0.4"/>
   </g>
   <g id="patch_42">
    <path d="M 64.780122 16460.054202 
L 64.780122 16460.054202 
L 64.780122 16460.054202 
L 64.780122 16460.054202 
z
" clip-path="url(#p5dd890b245)" style="fill: #487ea8; opacity: 0.4"/>
   </g>
   <g id="patch_43">
    <path d="M 64.780122 16460.054202 
L 64.780122 16460.054202 
L 64.780122 16460.054202 
L 64.780122 16460.054202 
z
" clip-path="url(#p5dd890b245)" style="opacity: 0.4"/>
   </g>
   <g id="patch_44">
    <path d="M 64.780122 16460.054202 
L 64.780122 16460.054202 
L 64.780122 16460.054202 
L 64.780122 16460.054202 
z
" clip-path="url(#p5dd890b245)" style="fill: #2a8852; opacity: 0.4"/>
   </g>
   <g id="PathCollection_1">
    <path d="M 60.638415 43.792584 
L 58.402348 43.792584 
" clip-path="url(#p5dd890b245)" style="fill: #e62426; stroke: #e62426"/>
    <path d="M 64.057247 42.743446 
L 61.821179 42.743446 
" clip-path="url(#p5dd890b245)" style="fill: #ff7d00; stroke: #ff7d00"/>
    <path d="M 67.739065 61.188465 
L 65.502997 61.188465 
" clip-path="url(#p5dd890b245)" style="fill: #3880b8; stroke: #3880b8"/>
   </g>
   <g id="PathCollection_2">
    <path d="M 86.937117 43.792584 
L 84.701049 43.792584 
" clip-path="url(#p5dd890b245)" style="fill: #e62426; stroke: #e62426"/>
    <path d="M 90.355948 42.743446 
L 88.11988 42.743446 
" clip-path="url(#p5dd890b245)" style="fill: #ff7d00; stroke: #ff7d00"/>
    <path d="M 94.037766 61.188465 
L 91.801698 61.188465 
" clip-path="url(#p5dd890b245)" style="fill: #3880b8; stroke: #3880b8"/>
   </g>
   <g id="PathCollection_3">
    <path d="M 113.235818 43.792584 
L 110.99975 43.792584 
" clip-path="url(#p5dd890b245)" style="fill: #e62426; stroke: #e62426"/>
    <path d="M 116.654649 42.743446 
L 114.418581 42.743446 
" clip-path="url(#p5dd890b245)" style="fill: #ff7d00; stroke: #ff7d00"/>
    <path d="M 120.336467 61.188465 
L 118.100399 61.188465 
" clip-path="url(#p5dd890b245)" style="fill: #3880b8; stroke: #3880b8"/>
   </g>
   <g id="PathCollection_4">
    <path d="M 139.534519 43.792584 
L 137.298451 43.792584 
" clip-path="url(#p5dd890b245)" style="fill: #e62426; stroke: #e62426"/>
    <path d="M 142.953351 42.743446 
L 140.717283 42.743446 
" clip-path="url(#p5dd890b245)" style="fill: #ff7d00; stroke: #ff7d00"/>
    <path d="M 146.635169 61.188465 
L 144.399101 61.188465 
" clip-path="url(#p5dd890b245)" style="fill: #3880b8; stroke: #3880b8"/>
   </g>
   <g id="PathCollection_5">
    <path d="M 165.833221 43.792584 
L 163.597153 43.792584 
" clip-path="url(#p5dd890b245)" style="fill: #e62426; stroke: #e62426"/>
    <path d="M 169.252052 42.743446 
L 167.015984 42.743446 
" clip-path="url(#p5dd890b245)" style="fill: #ff7d00; stroke: #ff7d00"/>
    <path d="M 172.93387 61.188465 
L 170.697802 61.188465 
" clip-path="url(#p5dd890b245)" style="fill: #3880b8; stroke: #3880b8"/>
   </g>
   <g id="PathCollection_6">
    <path d="M 192.131922 43.792584 
L 189.895854 43.792584 
" clip-path="url(#p5dd890b245)" style="fill: #e62426; stroke: #e62426"/>
    <path d="M 195.550753 42.743446 
L 193.314685 42.743446 
" clip-path="url(#p5dd890b245)" style="fill: #ff7d00; stroke: #ff7d00"/>
    <path d="M 199.232571 61.188465 
L 196.996503 61.188465 
" clip-path="url(#p5dd890b245)" style="fill: #3880b8; stroke: #3880b8"/>
   </g>
   <g id="matplotlib.axis_1">
    <g id="xtick_1">
     <g id="line2d_1">
      <defs>
       <path id="md0d8781819" d="M 0 0 
L 0 3.85 
" style="stroke: #000000; stroke-width: 0.5"/>
      </defs>
      <g>
       <use xlink:href="#md0d8781819" x="64.780122" y="90.132" style="stroke: #000000; stroke-width: 0.5"/>
      </g>
     </g>
     <g id="text_1">
      <!-- ks4 -->
      <g transform="translate(59.571372 102.041062) scale(0.06 -0.06)">
       <defs>
        <path id="DejaVuSans-6b" d="M 581 4863 
L 1159 4863 
L 1159 1991 
L 2875 3500 
L 3609 3500 
L 1753 1863 
L 3688 0 
L 2938 0 
L 1159 1709 
L 1159 0 
L 581 0 
L 581 4863 
z
" transform="scale(0.015625)"/>
        <path id="DejaVuSans-73" d="M 2834 3397 
L 2834 2853 
Q 2591 2978 2328 3040 
Q 2066 3103 1784 3103 
Q 1356 3103 1142 2972 
Q 928 2841 928 2578 
Q 928 2378 1081 2264 
Q 1234 2150 1697 2047 
L 1894 2003 
Q 2506 1872 2764 1633 
Q 3022 1394 3022 966 
Q 3022 478 2636 193 
Q 2250 -91 1575 -91 
Q 1294 -91 989 -36 
Q 684 19 347 128 
L 347 722 
Q 666 556 975 473 
Q 1284 391 1588 391 
Q 1994 391 2212 530 
Q 2431 669 2431 922 
Q 2431 1156 2273 1281 
Q 2116 1406 1581 1522 
L 1381 1569 
Q 847 1681 609 1914 
Q 372 2147 372 2553 
Q 372 3047 722 3315 
Q 1072 3584 1716 3584 
Q 2034 3584 2315 3537 
Q 2597 3491 2834 3397 
z
" transform="scale(0.015625)"/>
        <path id="DejaVuSans-34" d="M 2419 4116 
L 825 1625 
L 2419 1625 
L 2419 4116 
z
M 2253 4666 
L 3047 4666 
L 3047 1625 
L 3713 1625 
L 3713 1100 
L 3047 1100 
L 3047 0 
L 2419 0 
L 2419 1100 
L 313 1100 
L 313 1709 
L 2253 4666 
z
" transform="scale(0.015625)"/>
       </defs>
       <use xlink:href="#DejaVuSans-6b"/>
       <use xlink:href="#DejaVuSans-73" x="57.910156"/>
       <use xlink:href="#DejaVuSans-34" x="110.009766"/>
      </g>
     </g>
    </g>
    <g id="xtick_2">
     <g id="line2d_2">
      <g>
       <use xlink:href="#md0d8781819" x="91.078823" y="90.132" style="stroke: #000000; stroke-width: 0.5"/>
      </g>
     </g>
     <g id="text_2">
      <!-- ks3 -->
      <g transform="translate(85.870073 102.041062) scale(0.06 -0.06)">
       <defs>
        <path id="DejaVuSans-33" d="M 2597 2516 
Q 3050 2419 3304 2112 
Q 3559 1806 3559 1356 
Q 3559 666 3084 287 
Q 2609 -91 1734 -91 
Q 1441 -91 1130 -33 
Q 819 25 488 141 
L 488 750 
Q 750 597 1062 519 
Q 1375 441 1716 441 
Q 2309 441 2620 675 
Q 2931 909 2931 1356 
Q 2931 1769 2642 2001 
Q 2353 2234 1838 2234 
L 1294 2234 
L 1294 2753 
L 1863 2753 
Q 2328 2753 2575 2939 
Q 2822 3125 2822 3475 
Q 2822 3834 2567 4026 
Q 2313 4219 1838 4219 
Q 1578 4219 1281 4162 
Q 984 4106 628 3988 
L 628 4550 
Q 988 4650 1302 4700 
Q 1616 4750 1894 4750 
Q 2613 4750 3031 4423 
Q 3450 4097 3450 3541 
Q 3450 3153 3228 2886 
Q 3006 2619 2597 2516 
z
" transform="scale(0.015625)"/>
       </defs>
       <use xlink:href="#DejaVuSans-6b"/>
       <use xlink:href="#DejaVuSans-73" x="57.910156"/>
       <use xlink:href="#DejaVuSans-33" x="110.009766"/>
      </g>
     </g>
    </g>
    <g id="xtick_3">
     <g id="line2d_3">
      <g>
       <use xlink:href="#md0d8781819" x="117.377524" y="90.132" style="stroke: #000000; stroke-width: 0.5"/>
      </g>
     </g>
     <g id="text_3">
      <!-- ks2.5 -->
      <g transform="translate(109.306587 102.041062) scale(0.06 -0.06)">
       <defs>
        <path id="DejaVuSans-32" d="M 1228 531 
L 3431 531 
L 3431 0 
L 469 0 
L 469 531 
Q 828 903 1448 1529 
Q 2069 2156 2228 2338 
Q 2531 2678 2651 2914 
Q 2772 3150 2772 3378 
Q 2772 3750 2511 3984 
Q 2250 4219 1831 4219 
Q 1534 4219 1204 4116 
Q 875 4013 500 3803 
L 500 4441 
Q 881 4594 1212 4672 
Q 1544 4750 1819 4750 
Q 2544 4750 2975 4387 
Q 3406 4025 3406 3419 
Q 3406 3131 3298 2873 
Q 3191 2616 2906 2266 
Q 2828 2175 2409 1742 
Q 1991 1309 1228 531 
z
" transform="scale(0.015625)"/>
        <path id="DejaVuSans-2e" d="M 684 794 
L 1344 794 
L 1344 0 
L 684 0 
L 684 794 
z
" transform="scale(0.015625)"/>
        <path id="DejaVuSans-35" d="M 691 4666 
L 3169 4666 
L 3169 4134 
L 1269 4134 
L 1269 2991 
Q 1406 3038 1543 3061 
Q 1681 3084 1819 3084 
Q 2600 3084 3056 2656 
Q 3513 2228 3513 1497 
Q 3513 744 3044 326 
Q 2575 -91 1722 -91 
Q 1428 -91 1123 -41 
Q 819 9 494 109 
L 494 744 
Q 775 591 1075 516 
Q 1375 441 1709 441 
Q 2250 441 2565 725 
Q 2881 1009 2881 1497 
Q 2881 1984 2565 2268 
Q 2250 2553 1709 2553 
Q 1456 2553 1204 2497 
Q 953 2441 691 2322 
L 691 4666 
z
" transform="scale(0.015625)"/>
       </defs>
       <use xlink:href="#DejaVuSans-6b"/>
       <use xlink:href="#DejaVuSans-73" x="57.910156"/>
       <use xlink:href="#DejaVuSans-32" x="110.009766"/>
       <use xlink:href="#DejaVuSans-2e" x="173.632812"/>
       <use xlink:href="#DejaVuSans-35" x="205.419922"/>
      </g>
     </g>
    </g>
    <g id="xtick_4">
     <g id="line2d_4">
      <g>
       <use xlink:href="#md0d8781819" x="143.676226" y="90.132" style="stroke: #000000; stroke-width: 0.5"/>
      </g>
     </g>
     <g id="text_4">
      <!-- ks2 -->
      <g transform="translate(138.467476 102.041062) scale(0.06 -0.06)">
       <use xlink:href="#DejaVuSans-6b"/>
       <use xlink:href="#DejaVuSans-73" x="57.910156"/>
       <use xlink:href="#DejaVuSans-32" x="110.009766"/>
      </g>
     </g>
    </g>
    <g id="xtick_5">
     <g id="line2d_5">
      <g>
       <use xlink:href="#md0d8781819" x="169.974927" y="90.132" style="stroke: #000000; stroke-width: 0.5"/>
      </g>
     </g>
     <g id="text_5">
      <!-- ks -->
      <g transform="translate(166.674927 102.041062) scale(0.06 -0.06)">
       <use xlink:href="#DejaVuSans-6b"/>
       <use xlink:href="#DejaVuSans-73" x="57.910156"/>
      </g>
     </g>
    </g>
    <g id="xtick_6">
     <g id="line2d_6">
      <g>
       <use xlink:href="#md0d8781819" x="196.273628" y="90.132" style="stroke: #000000; stroke-width: 0.5"/>
      </g>
     </g>
     <g id="text_6">
      <!-- hs -->
      <g transform="translate(192.809566 102.041062) scale(0.06 -0.06)">
       <defs>
        <path id="DejaVuSans-68" d="M 3513 2113 
L 3513 0 
L 2938 0 
L 2938 2094 
Q 2938 2591 2744 2837 
Q 2550 3084 2163 3084 
Q 1697 3084 1428 2787 
Q 1159 2491 1159 1978 
L 1159 0 
L 581 0 
L 581 4863 
L 1159 4863 
L 1159 2956 
Q 1366 3272 1645 3428 
Q 1925 3584 2291 3584 
Q 2894 3584 3203 3211 
Q 3513 2838 3513 2113 
z
" transform="scale(0.015625)"/>
       </defs>
       <use xlink:href="#DejaVuSans-68"/>
       <use xlink:href="#DejaVuSans-73" x="63.378906"/>
      </g>
     </g>
    </g>
    <g id="text_7">
     <!-- Spike sorters -->
     <g transform="translate(111.006719 111.847937) scale(0.06 -0.06)">
      <defs>
       <path id="DejaVuSans-53" d="M 3425 4513 
L 3425 3897 
Q 3066 4069 2747 4153 
Q 2428 4238 2131 4238 
Q 1616 4238 1336 4038 
Q 1056 3838 1056 3469 
Q 1056 3159 1242 3001 
Q 1428 2844 1947 2747 
L 2328 2669 
Q 3034 2534 3370 2195 
Q 3706 1856 3706 1288 
Q 3706 609 3251 259 
Q 2797 -91 1919 -91 
Q 1588 -91 1214 -16 
Q 841 59 441 206 
L 441 856 
Q 825 641 1194 531 
Q 1563 422 1919 422 
Q 2459 422 2753 634 
Q 3047 847 3047 1241 
Q 3047 1584 2836 1778 
Q 2625 1972 2144 2069 
L 1759 2144 
Q 1053 2284 737 2584 
Q 422 2884 422 3419 
Q 422 4038 858 4394 
Q 1294 4750 2059 4750 
Q 2388 4750 2728 4690 
Q 3069 4631 3425 4513 
z
" transform="scale(0.015625)"/>
       <path id="DejaVuSans-70" d="M 1159 525 
L 1159 -1331 
L 581 -1331 
L 581 3500 
L 1159 3500 
L 1159 2969 
Q 1341 3281 1617 3432 
Q 1894 3584 2278 3584 
Q 2916 3584 3314 3078 
Q 3713 2572 3713 1747 
Q 3713 922 3314 415 
Q 2916 -91 2278 -91 
Q 1894 -91 1617 61 
Q 1341 213 1159 525 
z
M 3116 1747 
Q 3116 2381 2855 2742 
Q 2594 3103 2138 3103 
Q 1681 3103 1420 2742 
Q 1159 2381 1159 1747 
Q 1159 1113 1420 752 
Q 1681 391 2138 391 
Q 2594 391 2855 752 
Q 3116 1113 3116 1747 
z
" transform="scale(0.015625)"/>
       <path id="DejaVuSans-69" d="M 603 3500 
L 1178 3500 
L 1178 0 
L 603 0 
L 603 3500 
z
M 603 4863 
L 1178 4863 
L 1178 4134 
L 603 4134 
L 603 4863 
z
" transform="scale(0.015625)"/>
       <path id="DejaVuSans-65" d="M 3597 1894 
L 3597 1613 
L 953 1613 
Q 991 1019 1311 708 
Q 1631 397 2203 397 
Q 2534 397 2845 478 
Q 3156 559 3463 722 
L 3463 178 
Q 3153 47 2828 -22 
Q 2503 -91 2169 -91 
Q 1331 -91 842 396 
Q 353 884 353 1716 
Q 353 2575 817 3079 
Q 1281 3584 2069 3584 
Q 2775 3584 3186 3129 
Q 3597 2675 3597 1894 
z
M 3022 2063 
Q 3016 2534 2758 2815 
Q 2500 3097 2075 3097 
Q 1594 3097 1305 2825 
Q 1016 2553 972 2059 
L 3022 2063 
z
" transform="scale(0.015625)"/>
       <path id="DejaVuSans-20" transform="scale(0.015625)"/>
       <path id="DejaVuSans-6f" d="M 1959 3097 
Q 1497 3097 1228 2736 
Q 959 2375 959 1747 
Q 959 1119 1226 758 
Q 1494 397 1959 397 
Q 2419 397 2687 759 
Q 2956 1122 2956 1747 
Q 2956 2369 2687 2733 
Q 2419 3097 1959 3097 
z
M 1959 3584 
Q 2709 3584 3137 3096 
Q 3566 2609 3566 1747 
Q 3566 888 3137 398 
Q 2709 -91 1959 -91 
Q 1206 -91 779 398 
Q 353 888 353 1747 
Q 353 2609 779 3096 
Q 1206 3584 1959 3584 
z
" transform="scale(0.015625)"/>
       <path id="DejaVuSans-72" d="M 2631 2963 
Q 2534 3019 2420 3045 
Q 2306 3072 2169 3072 
Q 1681 3072 1420 2755 
Q 1159 2438 1159 1844 
L 1159 0 
L 581 0 
L 581 3500 
L 1159 3500 
L 1159 2956 
Q 1341 3275 1631 3429 
Q 1922 3584 2338 3584 
Q 2397 3584 2469 3576 
Q 2541 3569 2628 3553 
L 2631 2963 
z
" transform="scale(0.015625)"/>
       <path id="DejaVuSans-74" d="M 1172 4494 
L 1172 3500 
L 2356 3500 
L 2356 3053 
L 1172 3053 
L 1172 1153 
Q 1172 725 1289 603 
Q 1406 481 1766 481 
L 2356 481 
L 2356 0 
L 1766 0 
Q 1100 0 847 248 
Q 594 497 594 1153 
L 594 3053 
L 172 3053 
L 172 3500 
L 594 3500 
L 594 4494 
L 1172 4494 
z
" transform="scale(0.015625)"/>
      </defs>
      <use xlink:href="#DejaVuSans-53"/>
      <use xlink:href="#DejaVuSans-70" x="63.476562"/>
      <use xlink:href="#DejaVuSans-69" x="126.953125"/>
      <use xlink:href="#DejaVuSans-6b" x="154.736328"/>
      <use xlink:href="#DejaVuSans-65" x="209.021484"/>
      <use xlink:href="#DejaVuSans-20" x="270.544922"/>
      <use xlink:href="#DejaVuSans-73" x="302.332031"/>
      <use xlink:href="#DejaVuSans-6f" x="354.431641"/>
      <use xlink:href="#DejaVuSans-72" x="415.613281"/>
      <use xlink:href="#DejaVuSans-74" x="456.726562"/>
      <use xlink:href="#DejaVuSans-65" x="495.935547"/>
      <use xlink:href="#DejaVuSans-72" x="557.458984"/>
      <use xlink:href="#DejaVuSans-73" x="598.572266"/>
     </g>
    </g>
   </g>
   <g id="matplotlib.axis_2">
    <g id="ytick_1">
     <g id="line2d_7">
      <defs>
       <path id="m412e28080a" d="M 0 0 
L -3.85 0 
" style="stroke: #000000; stroke-width: 0.5"/>
      </defs>
      <g>
       <use xlink:href="#m412e28080a" x="38.456875" y="74.533213" style="stroke: #000000; stroke-width: 0.5"/>
      </g>
     </g>
     <g id="text_8">
      <!-- $\mathdefault{10^{-1}}$ -->
      <g transform="translate(17.006875 76.812744) scale(0.06 -0.06)">
       <defs>
        <path id="DejaVuSans-31" d="M 794 531 
L 1825 531 
L 1825 4091 
L 703 3866 
L 703 4441 
L 1819 4666 
L 2450 4666 
L 2450 531 
L 3481 531 
L 3481 0 
L 794 0 
L 794 531 
z
" transform="scale(0.015625)"/>
        <path id="DejaVuSans-30" d="M 2034 4250 
Q 1547 4250 1301 3770 
Q 1056 3291 1056 2328 
Q 1056 1369 1301 889 
Q 1547 409 2034 409 
Q 2525 409 2770 889 
Q 3016 1369 3016 2328 
Q 3016 3291 2770 3770 
Q 2525 4250 2034 4250 
z
M 2034 4750 
Q 2819 4750 3233 4129 
Q 3647 3509 3647 2328 
Q 3647 1150 3233 529 
Q 2819 -91 2034 -91 
Q 1250 -91 836 529 
Q 422 1150 422 2328 
Q 422 3509 836 4129 
Q 1250 4750 2034 4750 
z
" transform="scale(0.015625)"/>
        <path id="DejaVuSans-2212" d="M 678 2272 
L 4684 2272 
L 4684 1741 
L 678 1741 
L 678 2272 
z
" transform="scale(0.015625)"/>
       </defs>
       <use xlink:href="#DejaVuSans-31" transform="translate(0 0.684375)"/>
       <use xlink:href="#DejaVuSans-30" transform="translate(63.623047 0.684375)"/>
       <use xlink:href="#DejaVuSans-2212" transform="translate(128.203125 38.965625) scale(0.7)"/>
       <use xlink:href="#DejaVuSans-31" transform="translate(186.855469 38.965625) scale(0.7)"/>
      </g>
     </g>
    </g>
    <g id="ytick_2">
     <g id="line2d_8">
      <g>
       <use xlink:href="#m412e28080a" x="38.456875" y="58.13129" style="stroke: #000000; stroke-width: 0.5"/>
      </g>
     </g>
     <g id="text_9">
      <!-- $\mathdefault{10^{0}}$ -->
      <g transform="translate(20.546875 60.410822) scale(0.06 -0.06)">
       <use xlink:href="#DejaVuSans-31" transform="translate(0 0.765625)"/>
       <use xlink:href="#DejaVuSans-30" transform="translate(63.623047 0.765625)"/>
       <use xlink:href="#DejaVuSans-30" transform="translate(128.203125 39.046875) scale(0.7)"/>
      </g>
     </g>
    </g>
    <g id="ytick_3">
     <g id="line2d_9">
      <g>
       <use xlink:href="#m412e28080a" x="38.456875" y="41.729367" style="stroke: #000000; stroke-width: 0.5"/>
      </g>
     </g>
     <g id="text_10">
      <!-- $\mathdefault{10^{1}}$ -->
      <g transform="translate(20.546875 44.008899) scale(0.06 -0.06)">
       <use xlink:href="#DejaVuSans-31" transform="translate(0 0.684375)"/>
       <use xlink:href="#DejaVuSans-30" transform="translate(63.623047 0.684375)"/>
       <use xlink:href="#DejaVuSans-31" transform="translate(128.203125 38.965625) scale(0.7)"/>
      </g>
     </g>
    </g>
    <g id="ytick_4">
     <g id="line2d_10">
      <defs>
       <path id="m2471cb5c3a" d="M 0 0 
L -2.2 0 
" style="stroke: #000000; stroke-width: 0.5"/>
      </defs>
      <g>
       <use xlink:href="#m2471cb5c3a" x="38.456875" y="85.997665" style="stroke: #000000; stroke-width: 0.5"/>
      </g>
     </g>
    </g>
    <g id="ytick_5">
     <g id="line2d_11">
      <g>
       <use xlink:href="#m2471cb5c3a" x="38.456875" y="83.10943" style="stroke: #000000; stroke-width: 0.5"/>
      </g>
     </g>
    </g>
    <g id="ytick_6">
     <g id="line2d_12">
      <g>
       <use xlink:href="#m2471cb5c3a" x="38.456875" y="81.060195" style="stroke: #000000; stroke-width: 0.5"/>
      </g>
     </g>
    </g>
    <g id="ytick_7">
     <g id="line2d_13">
      <g>
       <use xlink:href="#m2471cb5c3a" x="38.456875" y="79.470684" style="stroke: #000000; stroke-width: 0.5"/>
      </g>
     </g>
    </g>
    <g id="ytick_8">
     <g id="line2d_14">
      <g>
       <use xlink:href="#m2471cb5c3a" x="38.456875" y="78.171959" style="stroke: #000000; stroke-width: 0.5"/>
      </g>
     </g>
    </g>
    <g id="ytick_9">
     <g id="line2d_15">
      <g>
       <use xlink:href="#m2471cb5c3a" x="38.456875" y="77.073903" style="stroke: #000000; stroke-width: 0.5"/>
      </g>
     </g>
    </g>
    <g id="ytick_10">
     <g id="line2d_16">
      <g>
       <use xlink:href="#m2471cb5c3a" x="38.456875" y="76.122724" style="stroke: #000000; stroke-width: 0.5"/>
      </g>
     </g>
    </g>
    <g id="ytick_11">
     <g id="line2d_17">
      <g>
       <use xlink:href="#m2471cb5c3a" x="38.456875" y="75.283724" style="stroke: #000000; stroke-width: 0.5"/>
      </g>
     </g>
    </g>
    <g id="ytick_12">
     <g id="line2d_18">
      <g>
       <use xlink:href="#m2471cb5c3a" x="38.456875" y="69.595742" style="stroke: #000000; stroke-width: 0.5"/>
      </g>
     </g>
    </g>
    <g id="ytick_13">
     <g id="line2d_19">
      <g>
       <use xlink:href="#m2471cb5c3a" x="38.456875" y="66.707507" style="stroke: #000000; stroke-width: 0.5"/>
      </g>
     </g>
    </g>
    <g id="ytick_14">
     <g id="line2d_20">
      <g>
       <use xlink:href="#m2471cb5c3a" x="38.456875" y="64.658272" style="stroke: #000000; stroke-width: 0.5"/>
      </g>
     </g>
    </g>
    <g id="ytick_15">
     <g id="line2d_21">
      <g>
       <use xlink:href="#m2471cb5c3a" x="38.456875" y="63.068761" style="stroke: #000000; stroke-width: 0.5"/>
      </g>
     </g>
    </g>
    <g id="ytick_16">
     <g id="line2d_22">
      <g>
       <use xlink:href="#m2471cb5c3a" x="38.456875" y="61.770036" style="stroke: #000000; stroke-width: 0.5"/>
      </g>
     </g>
    </g>
    <g id="ytick_17">
     <g id="line2d_23">
      <g>
       <use xlink:href="#m2471cb5c3a" x="38.456875" y="60.67198" style="stroke: #000000; stroke-width: 0.5"/>
      </g>
     </g>
    </g>
    <g id="ytick_18">
     <g id="line2d_24">
      <g>
       <use xlink:href="#m2471cb5c3a" x="38.456875" y="59.720801" style="stroke: #000000; stroke-width: 0.5"/>
      </g>
     </g>
    </g>
    <g id="ytick_19">
     <g id="line2d_25">
      <g>
       <use xlink:href="#m2471cb5c3a" x="38.456875" y="58.881801" style="stroke: #000000; stroke-width: 0.5"/>
      </g>
     </g>
    </g>
    <g id="ytick_20">
     <g id="line2d_26">
      <g>
       <use xlink:href="#m2471cb5c3a" x="38.456875" y="53.19382" style="stroke: #000000; stroke-width: 0.5"/>
      </g>
     </g>
    </g>
    <g id="ytick_21">
     <g id="line2d_27">
      <g>
       <use xlink:href="#m2471cb5c3a" x="38.456875" y="50.305584" style="stroke: #000000; stroke-width: 0.5"/>
      </g>
     </g>
    </g>
    <g id="ytick_22">
     <g id="line2d_28">
      <g>
       <use xlink:href="#m2471cb5c3a" x="38.456875" y="48.256349" style="stroke: #000000; stroke-width: 0.5"/>
      </g>
     </g>
    </g>
    <g id="ytick_23">
     <g id="line2d_29">
      <g>
       <use xlink:href="#m2471cb5c3a" x="38.456875" y="46.666838" style="stroke: #000000; stroke-width: 0.5"/>
      </g>
     </g>
    </g>
    <g id="ytick_24">
     <g id="line2d_30">
      <g>
       <use xlink:href="#m2471cb5c3a" x="38.456875" y="45.368113" style="stroke: #000000; stroke-width: 0.5"/>
      </g>
     </g>
    </g>
    <g id="ytick_25">
     <g id="line2d_31">
      <g>
       <use xlink:href="#m2471cb5c3a" x="38.456875" y="44.270057" style="stroke: #000000; stroke-width: 0.5"/>
      </g>
     </g>
    </g>
    <g id="ytick_26">
     <g id="line2d_32">
      <g>
       <use xlink:href="#m2471cb5c3a" x="38.456875" y="43.318878" style="stroke: #000000; stroke-width: 0.5"/>
      </g>
     </g>
    </g>
    <g id="ytick_27">
     <g id="line2d_33">
      <g>
       <use xlink:href="#m2471cb5c3a" x="38.456875" y="42.479878" style="stroke: #000000; stroke-width: 0.5"/>
      </g>
     </g>
    </g>
    <g id="ytick_28">
     <g id="line2d_34">
      <g>
       <use xlink:href="#m2471cb5c3a" x="38.456875" y="36.791897" style="stroke: #000000; stroke-width: 0.5"/>
      </g>
     </g>
    </g>
    <g id="ytick_29">
     <g id="line2d_35">
      <g>
       <use xlink:href="#m2471cb5c3a" x="38.456875" y="33.903661" style="stroke: #000000; stroke-width: 0.5"/>
      </g>
     </g>
    </g>
    <g id="text_11">
     <!-- Yield per site (ratio) -->
     <g transform="translate(11.759062 89.301094) rotate(-90) scale(0.06 -0.06)">
      <defs>
       <path id="DejaVuSans-59" d="M -13 4666 
L 666 4666 
L 1959 2747 
L 3244 4666 
L 3922 4666 
L 2272 2222 
L 2272 0 
L 1638 0 
L 1638 2222 
L -13 4666 
z
" transform="scale(0.015625)"/>
       <path id="DejaVuSans-6c" d="M 603 4863 
L 1178 4863 
L 1178 0 
L 603 0 
L 603 4863 
z
" transform="scale(0.015625)"/>
       <path id="DejaVuSans-64" d="M 2906 2969 
L 2906 4863 
L 3481 4863 
L 3481 0 
L 2906 0 
L 2906 525 
Q 2725 213 2448 61 
Q 2172 -91 1784 -91 
Q 1150 -91 751 415 
Q 353 922 353 1747 
Q 353 2572 751 3078 
Q 1150 3584 1784 3584 
Q 2172 3584 2448 3432 
Q 2725 3281 2906 2969 
z
M 947 1747 
Q 947 1113 1208 752 
Q 1469 391 1925 391 
Q 2381 391 2643 752 
Q 2906 1113 2906 1747 
Q 2906 2381 2643 2742 
Q 2381 3103 1925 3103 
Q 1469 3103 1208 2742 
Q 947 2381 947 1747 
z
" transform="scale(0.015625)"/>
       <path id="DejaVuSans-28" d="M 1984 4856 
Q 1566 4138 1362 3434 
Q 1159 2731 1159 2009 
Q 1159 1288 1364 580 
Q 1569 -128 1984 -844 
L 1484 -844 
Q 1016 -109 783 600 
Q 550 1309 550 2009 
Q 550 2706 781 3412 
Q 1013 4119 1484 4856 
L 1984 4856 
z
" transform="scale(0.015625)"/>
       <path id="DejaVuSans-61" d="M 2194 1759 
Q 1497 1759 1228 1600 
Q 959 1441 959 1056 
Q 959 750 1161 570 
Q 1363 391 1709 391 
Q 2188 391 2477 730 
Q 2766 1069 2766 1631 
L 2766 1759 
L 2194 1759 
z
M 3341 1997 
L 3341 0 
L 2766 0 
L 2766 531 
Q 2569 213 2275 61 
Q 1981 -91 1556 -91 
Q 1019 -91 701 211 
Q 384 513 384 1019 
Q 384 1609 779 1909 
Q 1175 2209 1959 2209 
L 2766 2209 
L 2766 2266 
Q 2766 2663 2505 2880 
Q 2244 3097 1772 3097 
Q 1472 3097 1187 3025 
Q 903 2953 641 2809 
L 641 3341 
Q 956 3463 1253 3523 
Q 1550 3584 1831 3584 
Q 2591 3584 2966 3190 
Q 3341 2797 3341 1997 
z
" transform="scale(0.015625)"/>
       <path id="DejaVuSans-29" d="M 513 4856 
L 1013 4856 
Q 1481 4119 1714 3412 
Q 1947 2706 1947 2009 
Q 1947 1309 1714 600 
Q 1481 -109 1013 -844 
L 513 -844 
Q 928 -128 1133 580 
Q 1338 1288 1338 2009 
Q 1338 2731 1133 3434 
Q 928 4138 513 4856 
z
" transform="scale(0.015625)"/>
      </defs>
      <use xlink:href="#DejaVuSans-59"/>
      <use xlink:href="#DejaVuSans-69" x="57.458984"/>
      <use xlink:href="#DejaVuSans-65" x="85.242188"/>
      <use xlink:href="#DejaVuSans-6c" x="146.765625"/>
      <use xlink:href="#DejaVuSans-64" x="174.548828"/>
      <use xlink:href="#DejaVuSans-20" x="238.025391"/>
      <use xlink:href="#DejaVuSans-70" x="269.8125"/>
      <use xlink:href="#DejaVuSans-65" x="333.289062"/>
      <use xlink:href="#DejaVuSans-72" x="394.8125"/>
      <use xlink:href="#DejaVuSans-20" x="435.925781"/>
      <use xlink:href="#DejaVuSans-73" x="467.712891"/>
      <use xlink:href="#DejaVuSans-69" x="519.8125"/>
      <use xlink:href="#DejaVuSans-74" x="547.595703"/>
      <use xlink:href="#DejaVuSans-65" x="586.804688"/>
      <use xlink:href="#DejaVuSans-20" x="648.328125"/>
      <use xlink:href="#DejaVuSans-28" x="680.115234"/>
      <use xlink:href="#DejaVuSans-72" x="719.128906"/>
      <use xlink:href="#DejaVuSans-61" x="760.242188"/>
      <use xlink:href="#DejaVuSans-74" x="821.521484"/>
      <use xlink:href="#DejaVuSans-69" x="860.730469"/>
      <use xlink:href="#DejaVuSans-6f" x="888.513672"/>
      <use xlink:href="#DejaVuSans-29" x="949.695312"/>
     </g>
    </g>
   </g>
   <g id="line2d_36">
    <path d="M 56.013888 83.96341 
L 56.013888 61.586663 
" clip-path="url(#p5dd890b245)" style="fill: none; stroke: #424242; stroke-width: 0.75; stroke-linecap: square"/>
   </g>
   <g id="line2d_37">
    <path d="M 82.312589 84.84 
L 82.312589 61.377254 
" clip-path="url(#p5dd890b245)" style="fill: none; stroke: #424242; stroke-width: 0.75; stroke-linecap: square"/>
   </g>
   <g id="line2d_38">
    <path d="M 108.611291 83.250489 
L 108.611291 55.291678 
" clip-path="url(#p5dd890b245)" style="fill: none; stroke: #424242; stroke-width: 0.75; stroke-linecap: square"/>
   </g>
   <g id="line2d_39">
    <path d="M 134.909992 83.250489 
L 134.909992 43.121744 
" clip-path="url(#p5dd890b245)" style="fill: none; stroke: #424242; stroke-width: 0.75; stroke-linecap: square"/>
   </g>
   <g id="line2d_40">
    <path d="M 161.208693 69.389257 
L 161.208693 41.333529 
" clip-path="url(#p5dd890b245)" style="fill: none; stroke: #424242; stroke-width: 0.75; stroke-linecap: square"/>
   </g>
   <g id="line2d_41">
    <path d="M 187.507394 66.805088 
L 187.507394 64.166817 
" clip-path="url(#p5dd890b245)" style="fill: none; stroke: #424242; stroke-width: 0.75; stroke-linecap: square"/>
   </g>
   <g id="line2d_42">
    <path d="M 59.520381 71.153424 
L 59.520381 54.295722 
" clip-path="url(#p5dd890b245)" style="fill: none; stroke: #424242; stroke-width: 0.75; stroke-linecap: square"/>
   </g>
   <g id="line2d_43">
    <path d="M 85.819083 73.971969 
L 85.819083 52.2265 
" clip-path="url(#p5dd890b245)" style="fill: none; stroke: #424242; stroke-width: 0.75; stroke-linecap: square"/>
   </g>
   <g id="line2d_44">
    <path d="M 112.117784 59.123726 
L 112.117784 47.617441 
" clip-path="url(#p5dd890b245)" style="fill: none; stroke: #424242; stroke-width: 0.75; stroke-linecap: square"/>
   </g>
   <g id="line2d_45">
    <path d="M 138.416485 53.758684 
L 138.416485 41.778414 
" clip-path="url(#p5dd890b245)" style="fill: none; stroke: #424242; stroke-width: 0.75; stroke-linecap: square"/>
   </g>
   <g id="line2d_46">
    <path d="M 164.715187 48.963041 
L 164.715187 39.905598 
" clip-path="url(#p5dd890b245)" style="fill: none; stroke: #424242; stroke-width: 0.75; stroke-linecap: square"/>
   </g>
   <g id="line2d_47">
    <path d="M 191.013888 68.261261 
L 191.013888 54.405978 
" clip-path="url(#p5dd890b245)" style="fill: none; stroke: #424242; stroke-width: 0.75; stroke-linecap: square"/>
   </g>
   <g id="line2d_48">
    <path d="M 63.026875 68.068913 
L 63.026875 48.491198 
" clip-path="url(#p5dd890b245)" style="fill: none; stroke: #424242; stroke-width: 0.75; stroke-linecap: square"/>
   </g>
   <g id="line2d_49">
    <path d="M 89.325576 67.165449 
L 89.325576 46.602412 
" clip-path="url(#p5dd890b245)" style="fill: none; stroke: #424242; stroke-width: 0.75; stroke-linecap: square"/>
   </g>
   <g id="line2d_50">
    <path d="M 115.624278 62.761422 
L 115.624278 45.043772 
" clip-path="url(#p5dd890b245)" style="fill: none; stroke: #424242; stroke-width: 0.75; stroke-linecap: square"/>
   </g>
   <g id="line2d_51">
    <path d="M 141.922979 62.945594 
L 141.922979 47.892401 
" clip-path="url(#p5dd890b245)" style="fill: none; stroke: #424242; stroke-width: 0.75; stroke-linecap: square"/>
   </g>
   <g id="line2d_52">
    <path d="M 168.22168 55.782911 
L 168.22168 34.44 
" clip-path="url(#p5dd890b245)" style="fill: none; stroke: #424242; stroke-width: 0.75; stroke-linecap: square"/>
   </g>
   <g id="line2d_53">
    <path d="M 194.520381 65.484352 
L 194.520381 54.789964 
" clip-path="url(#p5dd890b245)" style="fill: none; stroke: #424242; stroke-width: 0.75; stroke-linecap: square"/>
   </g>
   <g id="line2d_54">
    <path clip-path="url(#p5dd890b245)" style="fill: none; stroke: #424242; stroke-width: 0.75; stroke-linecap: square"/>
   </g>
   <g id="line2d_55">
    <path clip-path="url(#p5dd890b245)" style="fill: none; stroke: #424242; stroke-width: 0.75; stroke-linecap: square"/>
   </g>
   <g id="line2d_56">
    <path clip-path="url(#p5dd890b245)" style="fill: none; stroke: #424242; stroke-width: 0.75; stroke-linecap: square"/>
   </g>
   <g id="line2d_57">
    <path clip-path="url(#p5dd890b245)" style="fill: none; stroke: #424242; stroke-width: 0.75; stroke-linecap: square"/>
   </g>
   <g id="line2d_58">
    <path clip-path="url(#p5dd890b245)" style="fill: none; stroke: #424242; stroke-width: 0.75; stroke-linecap: square"/>
   </g>
   <g id="line2d_59">
    <path clip-path="url(#p5dd890b245)" style="fill: none; stroke: #424242; stroke-width: 0.75; stroke-linecap: square"/>
   </g>
   <g id="line2d_60">
    <path d="M 70.039862 68.125236 
L 70.039862 63.101409 
" clip-path="url(#p5dd890b245)" style="fill: none; stroke: #424242; stroke-width: 0.75; stroke-linecap: square"/>
   </g>
   <g id="line2d_61">
    <path d="M 96.338563 64.781516 
L 96.338563 61.201057 
" clip-path="url(#p5dd890b245)" style="fill: none; stroke: #424242; stroke-width: 0.75; stroke-linecap: square"/>
   </g>
   <g id="line2d_62">
    <path d="M 122.637265 60.743385 
L 122.637265 54.265449 
" clip-path="url(#p5dd890b245)" style="fill: none; stroke: #424242; stroke-width: 0.75; stroke-linecap: square"/>
   </g>
   <g id="line2d_63">
    <path d="M 148.935966 54.373388 
L 148.935966 46.755784 
" clip-path="url(#p5dd890b245)" style="fill: none; stroke: #424242; stroke-width: 0.75; stroke-linecap: square"/>
   </g>
   <g id="line2d_64">
    <path d="M 175.234667 45.920804 
L 175.234667 41.395717 
" clip-path="url(#p5dd890b245)" style="fill: none; stroke: #424242; stroke-width: 0.75; stroke-linecap: square"/>
   </g>
   <g id="line2d_65">
    <path d="M 201.533369 69.886619 
L 201.533369 63.376949 
" clip-path="url(#p5dd890b245)" style="fill: none; stroke: #424242; stroke-width: 0.75; stroke-linecap: square"/>
   </g>
   <g id="line2d_66">
    <path d="M 73.546356 69.103498 
L 73.546356 57.367478 
" clip-path="url(#p5dd890b245)" style="fill: none; stroke: #424242; stroke-width: 0.75; stroke-linecap: square"/>
   </g>
   <g id="line2d_67">
    <path d="M 99.845057 66.03564 
L 99.845057 56.48921 
" clip-path="url(#p5dd890b245)" style="fill: none; stroke: #424242; stroke-width: 0.75; stroke-linecap: square"/>
   </g>
   <g id="line2d_68">
    <path d="M 126.143758 58.528611 
L 126.143758 54.26349 
" clip-path="url(#p5dd890b245)" style="fill: none; stroke: #424242; stroke-width: 0.75; stroke-linecap: square"/>
   </g>
   <g id="line2d_69">
    <path d="M 152.442459 53.478618 
L 152.442459 49.028984 
" clip-path="url(#p5dd890b245)" style="fill: none; stroke: #424242; stroke-width: 0.75; stroke-linecap: square"/>
   </g>
   <g id="line2d_70">
    <path d="M 178.741161 48.150869 
L 178.741161 45.676882 
" clip-path="url(#p5dd890b245)" style="fill: none; stroke: #424242; stroke-width: 0.75; stroke-linecap: square"/>
   </g>
   <g id="line2d_71">
    <path d="M 205.039862 65.446316 
L 205.039862 58.85249 
" clip-path="url(#p5dd890b245)" style="fill: none; stroke: #424242; stroke-width: 0.75; stroke-linecap: square"/>
   </g>
   <g id="patch_45">
    <path d="M 38.456875 87.36 
L 38.456875 31.92 
" style="fill: none; stroke: #000000; stroke-width: 0.5; stroke-linejoin: miter; stroke-linecap: square"/>
   </g>
   <g id="patch_46">
    <path d="M 46.826875 90.132 
L 214.226875 90.132 
" style="fill: none; stroke: #000000; stroke-width: 0.5; stroke-linejoin: miter; stroke-linecap: square"/>
   </g>
   <g id="legend_1">
    <g id="patch_47">
     <path d="M 52.226875 14.159063 
L 64.226875 14.159063 
L 64.226875 9.959063 
L 52.226875 9.959063 
z
" style="fill: #999999; opacity: 0.4"/>
    </g>
    <g id="text_12">
     <!-- M -->
     <g transform="translate(67.226875 14.159063) scale(0.06 -0.06)">
      <defs>
       <path id="DejaVuSans-4d" d="M 628 4666 
L 1569 4666 
L 2759 1491 
L 3956 4666 
L 4897 4666 
L 4897 0 
L 4281 0 
L 4281 4097 
L 3078 897 
L 2444 897 
L 1241 4097 
L 1241 0 
L 628 0 
L 628 4666 
z
" transform="scale(0.015625)"/>
      </defs>
      <use xlink:href="#DejaVuSans-4d"/>
     </g>
    </g>
    <g id="patch_48">
     <path d="M 52.226875 22.965938 
L 64.226875 22.965938 
L 64.226875 18.765938 
L 52.226875 18.765938 
z
" style="fill: #cd3c3e; opacity: 0.4"/>
    </g>
    <g id="text_13">
     <!-- NS -->
     <g transform="translate(67.226875 22.965938) scale(0.06 -0.06)">
      <defs>
       <path id="DejaVuSans-4e" d="M 628 4666 
L 1478 4666 
L 3547 763 
L 3547 4666 
L 4159 4666 
L 4159 0 
L 3309 0 
L 1241 3903 
L 1241 0 
L 628 0 
L 628 4666 
z
" transform="scale(0.015625)"/>
      </defs>
      <use xlink:href="#DejaVuSans-4e"/>
      <use xlink:href="#DejaVuSans-53" x="74.804688"/>
     </g>
    </g>
    <g id="patch_49">
     <path d="M 52.226875 31.772813 
L 64.226875 31.772813 
L 64.226875 27.572813 
L 52.226875 27.572813 
z
" style="fill: #df7e20; opacity: 0.4"/>
    </g>
    <g id="text_14">
     <!-- E -->
     <g transform="translate(67.226875 31.772813) scale(0.06 -0.06)">
      <defs>
       <path id="DejaVuSans-45" d="M 628 4666 
L 3578 4666 
L 3578 4134 
L 1259 4134 
L 1259 2753 
L 3481 2753 
L 3481 2222 
L 1259 2222 
L 1259 531 
L 3634 531 
L 3634 0 
L 628 0 
L 628 4666 
z
" transform="scale(0.015625)"/>
      </defs>
      <use xlink:href="#DejaVuSans-45"/>
     </g>
    </g>
    <g id="patch_50">
     <path d="M 87.524687 14.159063 
L 99.524687 14.159063 
L 99.524687 9.959063 
L 87.524687 9.959063 
z
" style="fill: #487ea8; opacity: 0.4"/>
    </g>
    <g id="text_15">
     <!-- S -->
     <g transform="translate(102.524687 14.159063) scale(0.06 -0.06)">
      <use xlink:href="#DejaVuSans-53"/>
     </g>
    </g>
    <g id="patch_51">
     <path d="M 87.524687 22.965938 
L 99.524687 22.965938 
L 99.524687 18.765938 
L 87.524687 18.765938 
z
" style="opacity: 0.4"/>
    </g>
    <g id="text_16">
     <!-- H -->
     <g transform="translate(102.524687 22.965938) scale(0.06 -0.06)">
      <defs>
       <path id="DejaVuSans-48" d="M 628 4666 
L 1259 4666 
L 1259 2753 
L 3553 2753 
L 3553 4666 
L 4184 4666 
L 4184 0 
L 3553 0 
L 3553 2222 
L 1259 2222 
L 1259 0 
L 628 0 
L 628 4666 
z
" transform="scale(0.015625)"/>
      </defs>
      <use xlink:href="#DejaVuSans-48"/>
     </g>
    </g>
    <g id="patch_52">
     <path d="M 87.524687 31.772813 
L 99.524687 31.772813 
L 99.524687 27.572813 
L 87.524687 27.572813 
z
" style="fill: #2a8852; opacity: 0.4"/>
    </g>
    <g id="text_17">
     <!-- DS -->
     <g transform="translate(102.524687 31.772813) scale(0.06 -0.06)">
      <defs>
       <path id="DejaVuSans-44" d="M 1259 4147 
L 1259 519 
L 2022 519 
Q 2988 519 3436 956 
Q 3884 1394 3884 2338 
Q 3884 3275 3436 3711 
Q 2988 4147 2022 4147 
L 1259 4147 
z
M 628 4666 
L 1925 4666 
Q 3281 4666 3915 4102 
Q 4550 3538 4550 2338 
Q 4550 1131 3912 565 
Q 3275 0 1925 0 
L 628 0 
L 628 4666 
z
" transform="scale(0.015625)"/>
      </defs>
      <use xlink:href="#DejaVuSans-44"/>
      <use xlink:href="#DejaVuSans-53" x="77.001953"/>
     </g>
    </g>
   </g>
  </g>
 </g>
 <defs>
  <clipPath id="p5dd890b245">
   <rect x="46.826875" y="31.92" width="167.4" height="55.44"/>
  </clipPath>
 </defs>
</svg>
