<?xml version="1.0" encoding="utf-8" standalone="no"?>
<!DOCTYPE svg PUBLIC "-//W3C//DTD SVG 1.1//EN"
  "http://www.w3.org/Graphics/SVG/1.1/DTD/svg11.dtd">
<svg xmlns:xlink="http://www.w3.org/1999/xlink" width="216pt" height="144pt" viewBox="0 0 216 144" xmlns="http://www.w3.org/2000/svg" version="1.1">
 <metadata>
  <rdf:RDF xmlns:dc="http://purl.org/dc/elements/1.1/" xmlns:cc="http://creativecommons.org/ns#" xmlns:rdf="http://www.w3.org/1999/02/22-rdf-syntax-ns#">
   <cc:Work>
    <dc:type rdf:resource="http://purl.org/dc/dcmitype/StillImage"/>
    <dc:date>2025-09-25T15:44:39.889836</dc:date>
    <dc:format>image/svg+xml</dc:format>
    <dc:creator>
     <cc:Agent>
      <dc:title>Matplotlib v3.8.4, https://matplotlib.org/</dc:title>
     </cc:Agent>
    </dc:creator>
   </cc:Work>
  </rdf:RDF>
 </metadata>
 <defs>
  <style type="text/css">*{stroke-linejoin: round; stroke-linecap: butt}</style>
 </defs>
 <g id="figure_1">
  <g id="patch_1">
   <path d="M 0 144 
L 216 144 
L 216 0 
L 0 0 
L 0 144 
z
" style="fill: none"/>
  </g>
  <g id="axes_1">
   <g id="patch_2">
    <path d="M 27 128.16 
L 52.363636 128.16 
L 52.363636 17.28 
L 27 17.28 
L 27 128.16 
z
" style="fill: none"/>
   </g>
   <g id="matplotlib.axis_1">
    <g id="xtick_1">
     <g id="line2d_1">
      <defs>
       <path id="m1755492b88" d="M 0 0 
L 0 3.85 
" style="stroke: #000000; stroke-width: 0.5"/>
      </defs>
      <g>
       <use xlink:href="#m1755492b88" x="31.446871" y="133.704" style="stroke: #000000; stroke-width: 0.5"/>
      </g>
     </g>
     <g id="text_1">
      <!-- 1st -->
      <g transform="translate(27.445153 145.348688) scale(0.06 -0.06)">
       <defs>
        <path id="ArialMT-31" d="M 2384 0 
L 1822 0 
L 1822 3584 
Q 1619 3391 1289 3197 
Q 959 3003 697 2906 
L 697 3450 
Q 1169 3672 1522 3987 
Q 1875 4303 2022 4600 
L 2384 4600 
L 2384 0 
z
" transform="scale(0.015625)"/>
        <path id="ArialMT-73" d="M 197 991 
L 753 1078 
Q 800 744 1014 566 
Q 1228 388 1613 388 
Q 2000 388 2187 545 
Q 2375 703 2375 916 
Q 2375 1106 2209 1216 
Q 2094 1291 1634 1406 
Q 1016 1563 777 1677 
Q 538 1791 414 1992 
Q 291 2194 291 2438 
Q 291 2659 392 2848 
Q 494 3038 669 3163 
Q 800 3259 1026 3326 
Q 1253 3394 1513 3394 
Q 1903 3394 2198 3281 
Q 2494 3169 2634 2976 
Q 2775 2784 2828 2463 
L 2278 2388 
Q 2241 2644 2061 2787 
Q 1881 2931 1553 2931 
Q 1166 2931 1000 2803 
Q 834 2675 834 2503 
Q 834 2394 903 2306 
Q 972 2216 1119 2156 
Q 1203 2125 1616 2013 
Q 2213 1853 2448 1751 
Q 2684 1650 2818 1456 
Q 2953 1263 2953 975 
Q 2953 694 2789 445 
Q 2625 197 2315 61 
Q 2006 -75 1616 -75 
Q 969 -75 630 194 
Q 291 463 197 991 
z
" transform="scale(0.015625)"/>
        <path id="ArialMT-74" d="M 1650 503 
L 1731 6 
Q 1494 -44 1306 -44 
Q 1000 -44 831 53 
Q 663 150 594 308 
Q 525 466 525 972 
L 525 2881 
L 113 2881 
L 113 3319 
L 525 3319 
L 525 4141 
L 1084 4478 
L 1084 3319 
L 1650 3319 
L 1650 2881 
L 1084 2881 
L 1084 941 
Q 1084 700 1114 631 
Q 1144 563 1211 522 
Q 1278 481 1403 481 
Q 1497 481 1650 503 
z
" transform="scale(0.015625)"/>
       </defs>
       <use xlink:href="#ArialMT-31"/>
       <use xlink:href="#ArialMT-73" x="55.615234"/>
       <use xlink:href="#ArialMT-74" x="105.615234"/>
      </g>
     </g>
    </g>
    <g id="xtick_2">
     <g id="line2d_2">
      <g>
       <use xlink:href="#m1755492b88" x="47.916765" y="133.704" style="stroke: #000000; stroke-width: 0.5"/>
      </g>
     </g>
     <g id="text_2">
      <!-- 2nd -->
      <g transform="translate(42.911921 145.348688) scale(0.06 -0.06)">
       <defs>
        <path id="ArialMT-32" d="M 3222 541 
L 3222 0 
L 194 0 
Q 188 203 259 391 
Q 375 700 629 1000 
Q 884 1300 1366 1694 
Q 2113 2306 2375 2664 
Q 2638 3022 2638 3341 
Q 2638 3675 2398 3904 
Q 2159 4134 1775 4134 
Q 1369 4134 1125 3890 
Q 881 3647 878 3216 
L 300 3275 
Q 359 3922 746 4261 
Q 1134 4600 1788 4600 
Q 2447 4600 2831 4234 
Q 3216 3869 3216 3328 
Q 3216 3053 3103 2787 
Q 2991 2522 2730 2228 
Q 2469 1934 1863 1422 
Q 1356 997 1212 845 
Q 1069 694 975 541 
L 3222 541 
z
" transform="scale(0.015625)"/>
        <path id="ArialMT-6e" d="M 422 0 
L 422 3319 
L 928 3319 
L 928 2847 
Q 1294 3394 1984 3394 
Q 2284 3394 2536 3286 
Q 2788 3178 2913 3003 
Q 3038 2828 3088 2588 
Q 3119 2431 3119 2041 
L 3119 0 
L 2556 0 
L 2556 2019 
Q 2556 2363 2490 2533 
Q 2425 2703 2258 2804 
Q 2091 2906 1866 2906 
Q 1506 2906 1245 2678 
Q 984 2450 984 1813 
L 984 0 
L 422 0 
z
" transform="scale(0.015625)"/>
        <path id="ArialMT-64" d="M 2575 0 
L 2575 419 
Q 2259 -75 1647 -75 
Q 1250 -75 917 144 
Q 584 363 401 755 
Q 219 1147 219 1656 
Q 219 2153 384 2558 
Q 550 2963 881 3178 
Q 1213 3394 1622 3394 
Q 1922 3394 2156 3267 
Q 2391 3141 2538 2938 
L 2538 4581 
L 3097 4581 
L 3097 0 
L 2575 0 
z
M 797 1656 
Q 797 1019 1065 703 
Q 1334 388 1700 388 
Q 2069 388 2326 689 
Q 2584 991 2584 1609 
Q 2584 2291 2321 2609 
Q 2059 2928 1675 2928 
Q 1300 2928 1048 2622 
Q 797 2316 797 1656 
z
" transform="scale(0.015625)"/>
       </defs>
       <use xlink:href="#ArialMT-32"/>
       <use xlink:href="#ArialMT-6e" x="55.615234"/>
       <use xlink:href="#ArialMT-64" x="111.230469"/>
      </g>
     </g>
    </g>
   </g>
   <g id="matplotlib.axis_2">
    <g id="ytick_1">
     <g id="line2d_3">
      <defs>
       <path id="m9c4625d072" d="M 0 0 
L -3.85 0 
" style="stroke: #000000; stroke-width: 0.5"/>
      </defs>
      <g>
       <use xlink:href="#m9c4625d072" x="25.731818" y="120.816954" style="stroke: #000000; stroke-width: 0.5"/>
      </g>
     </g>
     <g id="text_3">
      <!-- −70 -->
      <g transform="translate(8.204318 122.964297) scale(0.06 -0.06)">
       <defs>
        <path id="ArialMT-2212" d="M 3381 1997 
L 356 1997 
L 356 2522 
L 3381 2522 
L 3381 1997 
z
" transform="scale(0.015625)"/>
        <path id="ArialMT-37" d="M 303 3981 
L 303 4522 
L 3269 4522 
L 3269 4084 
Q 2831 3619 2401 2847 
Q 1972 2075 1738 1259 
Q 1569 684 1522 0 
L 944 0 
Q 953 541 1156 1306 
Q 1359 2072 1739 2783 
Q 2119 3494 2547 3981 
L 303 3981 
z
" transform="scale(0.015625)"/>
        <path id="ArialMT-30" d="M 266 2259 
Q 266 3072 433 3567 
Q 600 4063 929 4331 
Q 1259 4600 1759 4600 
Q 2128 4600 2406 4451 
Q 2684 4303 2865 4023 
Q 3047 3744 3150 3342 
Q 3253 2941 3253 2259 
Q 3253 1453 3087 958 
Q 2922 463 2592 192 
Q 2263 -78 1759 -78 
Q 1097 -78 719 397 
Q 266 969 266 2259 
z
M 844 2259 
Q 844 1131 1108 757 
Q 1372 384 1759 384 
Q 2147 384 2411 759 
Q 2675 1134 2675 2259 
Q 2675 3391 2411 3762 
Q 2147 4134 1753 4134 
Q 1366 4134 1134 3806 
Q 844 3388 844 2259 
z
" transform="scale(0.015625)"/>
       </defs>
       <use xlink:href="#ArialMT-2212"/>
       <use xlink:href="#ArialMT-37" x="58.398438"/>
       <use xlink:href="#ArialMT-30" x="114.013672"/>
      </g>
     </g>
    </g>
    <g id="ytick_2">
     <g id="line2d_4">
      <g>
       <use xlink:href="#m9c4625d072" x="25.731818" y="106.130861" style="stroke: #000000; stroke-width: 0.5"/>
      </g>
     </g>
     <g id="text_4">
      <!-- −60 -->
      <g transform="translate(8.204318 108.278205) scale(0.06 -0.06)">
       <defs>
        <path id="ArialMT-36" d="M 3184 3459 
L 2625 3416 
Q 2550 3747 2413 3897 
Q 2184 4138 1850 4138 
Q 1581 4138 1378 3988 
Q 1113 3794 959 3422 
Q 806 3050 800 2363 
Q 1003 2672 1297 2822 
Q 1591 2972 1913 2972 
Q 2475 2972 2870 2558 
Q 3266 2144 3266 1488 
Q 3266 1056 3080 686 
Q 2894 316 2569 119 
Q 2244 -78 1831 -78 
Q 1128 -78 684 439 
Q 241 956 241 2144 
Q 241 3472 731 4075 
Q 1159 4600 1884 4600 
Q 2425 4600 2770 4297 
Q 3116 3994 3184 3459 
z
M 888 1484 
Q 888 1194 1011 928 
Q 1134 663 1356 523 
Q 1578 384 1822 384 
Q 2178 384 2434 671 
Q 2691 959 2691 1453 
Q 2691 1928 2437 2201 
Q 2184 2475 1800 2475 
Q 1419 2475 1153 2201 
Q 888 1928 888 1484 
z
" transform="scale(0.015625)"/>
       </defs>
       <use xlink:href="#ArialMT-2212"/>
       <use xlink:href="#ArialMT-36" x="58.398438"/>
       <use xlink:href="#ArialMT-30" x="114.013672"/>
      </g>
     </g>
    </g>
    <g id="ytick_3">
     <g id="line2d_5">
      <g>
       <use xlink:href="#m9c4625d072" x="25.731818" y="91.444768" style="stroke: #000000; stroke-width: 0.5"/>
      </g>
     </g>
     <g id="text_5">
      <!-- −50 -->
      <g transform="translate(8.204318 93.592112) scale(0.06 -0.06)">
       <defs>
        <path id="ArialMT-35" d="M 266 1200 
L 856 1250 
Q 922 819 1161 601 
Q 1400 384 1738 384 
Q 2144 384 2425 690 
Q 2706 997 2706 1503 
Q 2706 1984 2436 2262 
Q 2166 2541 1728 2541 
Q 1456 2541 1237 2417 
Q 1019 2294 894 2097 
L 366 2166 
L 809 4519 
L 3088 4519 
L 3088 3981 
L 1259 3981 
L 1013 2750 
Q 1425 3038 1878 3038 
Q 2478 3038 2890 2622 
Q 3303 2206 3303 1553 
Q 3303 931 2941 478 
Q 2500 -78 1738 -78 
Q 1113 -78 717 272 
Q 322 622 266 1200 
z
" transform="scale(0.015625)"/>
       </defs>
       <use xlink:href="#ArialMT-2212"/>
       <use xlink:href="#ArialMT-35" x="58.398438"/>
       <use xlink:href="#ArialMT-30" x="114.013672"/>
      </g>
     </g>
    </g>
    <g id="ytick_4">
     <g id="line2d_6">
      <g>
       <use xlink:href="#m9c4625d072" x="25.731818" y="76.758675" style="stroke: #000000; stroke-width: 0.5"/>
      </g>
     </g>
     <g id="text_6">
      <!-- −40 -->
      <g transform="translate(8.204318 78.906019) scale(0.06 -0.06)">
       <defs>
        <path id="ArialMT-34" d="M 2069 0 
L 2069 1097 
L 81 1097 
L 81 1613 
L 2172 4581 
L 2631 4581 
L 2631 1613 
L 3250 1613 
L 3250 1097 
L 2631 1097 
L 2631 0 
L 2069 0 
z
M 2069 1613 
L 2069 3678 
L 634 1613 
L 2069 1613 
z
" transform="scale(0.015625)"/>
       </defs>
       <use xlink:href="#ArialMT-2212"/>
       <use xlink:href="#ArialMT-34" x="58.398438"/>
       <use xlink:href="#ArialMT-30" x="114.013672"/>
      </g>
     </g>
    </g>
    <g id="ytick_5">
     <g id="line2d_7">
      <g>
       <use xlink:href="#m9c4625d072" x="25.731818" y="62.072583" style="stroke: #000000; stroke-width: 0.5"/>
      </g>
     </g>
     <g id="text_7">
      <!-- −30 -->
      <g transform="translate(8.204318 64.219927) scale(0.06 -0.06)">
       <defs>
        <path id="ArialMT-33" d="M 269 1209 
L 831 1284 
Q 928 806 1161 595 
Q 1394 384 1728 384 
Q 2125 384 2398 659 
Q 2672 934 2672 1341 
Q 2672 1728 2419 1979 
Q 2166 2231 1775 2231 
Q 1616 2231 1378 2169 
L 1441 2663 
Q 1497 2656 1531 2656 
Q 1891 2656 2178 2843 
Q 2466 3031 2466 3422 
Q 2466 3731 2256 3934 
Q 2047 4138 1716 4138 
Q 1388 4138 1169 3931 
Q 950 3725 888 3313 
L 325 3413 
Q 428 3978 793 4289 
Q 1159 4600 1703 4600 
Q 2078 4600 2393 4439 
Q 2709 4278 2876 4000 
Q 3044 3722 3044 3409 
Q 3044 3113 2884 2869 
Q 2725 2625 2413 2481 
Q 2819 2388 3044 2092 
Q 3269 1797 3269 1353 
Q 3269 753 2831 336 
Q 2394 -81 1725 -81 
Q 1122 -81 723 278 
Q 325 638 269 1209 
z
" transform="scale(0.015625)"/>
       </defs>
       <use xlink:href="#ArialMT-2212"/>
       <use xlink:href="#ArialMT-33" x="58.398438"/>
       <use xlink:href="#ArialMT-30" x="114.013672"/>
      </g>
     </g>
    </g>
    <g id="ytick_6">
     <g id="line2d_8">
      <g>
       <use xlink:href="#m9c4625d072" x="25.731818" y="47.38649" style="stroke: #000000; stroke-width: 0.5"/>
      </g>
     </g>
     <g id="text_8">
      <!-- −20 -->
      <g transform="translate(8.204318 49.533834) scale(0.06 -0.06)">
       <use xlink:href="#ArialMT-2212"/>
       <use xlink:href="#ArialMT-32" x="58.398438"/>
       <use xlink:href="#ArialMT-30" x="114.013672"/>
      </g>
     </g>
    </g>
    <g id="ytick_7">
     <g id="line2d_9">
      <g>
       <use xlink:href="#m9c4625d072" x="25.731818" y="32.700397" style="stroke: #000000; stroke-width: 0.5"/>
      </g>
     </g>
     <g id="text_9">
      <!-- −10 -->
      <g transform="translate(8.204318 34.847741) scale(0.06 -0.06)">
       <use xlink:href="#ArialMT-2212"/>
       <use xlink:href="#ArialMT-31" x="58.398438"/>
       <use xlink:href="#ArialMT-30" x="114.013672"/>
      </g>
     </g>
    </g>
    <g id="ytick_8">
     <g id="line2d_10">
      <g>
       <use xlink:href="#m9c4625d072" x="25.731818" y="18.014305" style="stroke: #000000; stroke-width: 0.5"/>
      </g>
     </g>
     <g id="text_10">
      <!-- 0 -->
      <g transform="translate(15.045256 20.161648) scale(0.06 -0.06)">
       <use xlink:href="#ArialMT-30"/>
      </g>
     </g>
    </g>
    <g id="text_11">
     <!-- Trough amplitudes (μV) -->
     <g transform="translate(2.941506 104.013281) rotate(-90) scale(0.06 -0.06)">
      <defs>
       <path id="ArialMT-54" d="M 1659 0 
L 1659 4041 
L 150 4041 
L 150 4581 
L 3781 4581 
L 3781 4041 
L 2266 4041 
L 2266 0 
L 1659 0 
z
" transform="scale(0.015625)"/>
       <path id="ArialMT-72" d="M 416 0 
L 416 3319 
L 922 3319 
L 922 2816 
Q 1116 3169 1280 3281 
Q 1444 3394 1641 3394 
Q 1925 3394 2219 3213 
L 2025 2691 
Q 1819 2813 1613 2813 
Q 1428 2813 1281 2702 
Q 1134 2591 1072 2394 
Q 978 2094 978 1738 
L 978 0 
L 416 0 
z
" transform="scale(0.015625)"/>
       <path id="ArialMT-6f" d="M 213 1659 
Q 213 2581 725 3025 
Q 1153 3394 1769 3394 
Q 2453 3394 2887 2945 
Q 3322 2497 3322 1706 
Q 3322 1066 3130 698 
Q 2938 331 2570 128 
Q 2203 -75 1769 -75 
Q 1072 -75 642 372 
Q 213 819 213 1659 
z
M 791 1659 
Q 791 1022 1069 705 
Q 1347 388 1769 388 
Q 2188 388 2466 706 
Q 2744 1025 2744 1678 
Q 2744 2294 2464 2611 
Q 2184 2928 1769 2928 
Q 1347 2928 1069 2612 
Q 791 2297 791 1659 
z
" transform="scale(0.015625)"/>
       <path id="ArialMT-75" d="M 2597 0 
L 2597 488 
Q 2209 -75 1544 -75 
Q 1250 -75 995 37 
Q 741 150 617 320 
Q 494 491 444 738 
Q 409 903 409 1263 
L 409 3319 
L 972 3319 
L 972 1478 
Q 972 1038 1006 884 
Q 1059 663 1231 536 
Q 1403 409 1656 409 
Q 1909 409 2131 539 
Q 2353 669 2445 892 
Q 2538 1116 2538 1541 
L 2538 3319 
L 3100 3319 
L 3100 0 
L 2597 0 
z
" transform="scale(0.015625)"/>
       <path id="ArialMT-67" d="M 319 -275 
L 866 -356 
Q 900 -609 1056 -725 
Q 1266 -881 1628 -881 
Q 2019 -881 2231 -725 
Q 2444 -569 2519 -288 
Q 2563 -116 2559 434 
Q 2191 0 1641 0 
Q 956 0 581 494 
Q 206 988 206 1678 
Q 206 2153 378 2554 
Q 550 2956 876 3175 
Q 1203 3394 1644 3394 
Q 2231 3394 2613 2919 
L 2613 3319 
L 3131 3319 
L 3131 450 
Q 3131 -325 2973 -648 
Q 2816 -972 2473 -1159 
Q 2131 -1347 1631 -1347 
Q 1038 -1347 672 -1080 
Q 306 -813 319 -275 
z
M 784 1719 
Q 784 1066 1043 766 
Q 1303 466 1694 466 
Q 2081 466 2343 764 
Q 2606 1063 2606 1700 
Q 2606 2309 2336 2618 
Q 2066 2928 1684 2928 
Q 1309 2928 1046 2623 
Q 784 2319 784 1719 
z
" transform="scale(0.015625)"/>
       <path id="ArialMT-68" d="M 422 0 
L 422 4581 
L 984 4581 
L 984 2938 
Q 1378 3394 1978 3394 
Q 2347 3394 2619 3248 
Q 2891 3103 3008 2847 
Q 3125 2591 3125 2103 
L 3125 0 
L 2563 0 
L 2563 2103 
Q 2563 2525 2380 2717 
Q 2197 2909 1863 2909 
Q 1613 2909 1392 2779 
Q 1172 2650 1078 2428 
Q 984 2206 984 1816 
L 984 0 
L 422 0 
z
" transform="scale(0.015625)"/>
       <path id="ArialMT-20" transform="scale(0.015625)"/>
       <path id="ArialMT-61" d="M 2588 409 
Q 2275 144 1986 34 
Q 1697 -75 1366 -75 
Q 819 -75 525 192 
Q 231 459 231 875 
Q 231 1119 342 1320 
Q 453 1522 633 1644 
Q 813 1766 1038 1828 
Q 1203 1872 1538 1913 
Q 2219 1994 2541 2106 
Q 2544 2222 2544 2253 
Q 2544 2597 2384 2738 
Q 2169 2928 1744 2928 
Q 1347 2928 1158 2789 
Q 969 2650 878 2297 
L 328 2372 
Q 403 2725 575 2942 
Q 747 3159 1072 3276 
Q 1397 3394 1825 3394 
Q 2250 3394 2515 3294 
Q 2781 3194 2906 3042 
Q 3031 2891 3081 2659 
Q 3109 2516 3109 2141 
L 3109 1391 
Q 3109 606 3145 398 
Q 3181 191 3288 0 
L 2700 0 
Q 2613 175 2588 409 
z
M 2541 1666 
Q 2234 1541 1622 1453 
Q 1275 1403 1131 1340 
Q 988 1278 909 1158 
Q 831 1038 831 891 
Q 831 666 1001 516 
Q 1172 366 1500 366 
Q 1825 366 2078 508 
Q 2331 650 2450 897 
Q 2541 1088 2541 1459 
L 2541 1666 
z
" transform="scale(0.015625)"/>
       <path id="ArialMT-6d" d="M 422 0 
L 422 3319 
L 925 3319 
L 925 2853 
Q 1081 3097 1340 3245 
Q 1600 3394 1931 3394 
Q 2300 3394 2536 3241 
Q 2772 3088 2869 2813 
Q 3263 3394 3894 3394 
Q 4388 3394 4653 3120 
Q 4919 2847 4919 2278 
L 4919 0 
L 4359 0 
L 4359 2091 
Q 4359 2428 4304 2576 
Q 4250 2725 4106 2815 
Q 3963 2906 3769 2906 
Q 3419 2906 3187 2673 
Q 2956 2441 2956 1928 
L 2956 0 
L 2394 0 
L 2394 2156 
Q 2394 2531 2256 2718 
Q 2119 2906 1806 2906 
Q 1569 2906 1367 2781 
Q 1166 2656 1075 2415 
Q 984 2175 984 1722 
L 984 0 
L 422 0 
z
" transform="scale(0.015625)"/>
       <path id="ArialMT-70" d="M 422 -1272 
L 422 3319 
L 934 3319 
L 934 2888 
Q 1116 3141 1344 3267 
Q 1572 3394 1897 3394 
Q 2322 3394 2647 3175 
Q 2972 2956 3137 2557 
Q 3303 2159 3303 1684 
Q 3303 1175 3120 767 
Q 2938 359 2589 142 
Q 2241 -75 1856 -75 
Q 1575 -75 1351 44 
Q 1128 163 984 344 
L 984 -1272 
L 422 -1272 
z
M 931 1641 
Q 931 1000 1190 694 
Q 1450 388 1819 388 
Q 2194 388 2461 705 
Q 2728 1022 2728 1688 
Q 2728 2322 2467 2637 
Q 2206 2953 1844 2953 
Q 1484 2953 1207 2617 
Q 931 2281 931 1641 
z
" transform="scale(0.015625)"/>
       <path id="ArialMT-6c" d="M 409 0 
L 409 4581 
L 972 4581 
L 972 0 
L 409 0 
z
" transform="scale(0.015625)"/>
       <path id="ArialMT-69" d="M 425 3934 
L 425 4581 
L 988 4581 
L 988 3934 
L 425 3934 
z
M 425 0 
L 425 3319 
L 988 3319 
L 988 0 
L 425 0 
z
" transform="scale(0.015625)"/>
       <path id="ArialMT-65" d="M 2694 1069 
L 3275 997 
Q 3138 488 2766 206 
Q 2394 -75 1816 -75 
Q 1088 -75 661 373 
Q 234 822 234 1631 
Q 234 2469 665 2931 
Q 1097 3394 1784 3394 
Q 2450 3394 2872 2941 
Q 3294 2488 3294 1666 
Q 3294 1616 3291 1516 
L 816 1516 
Q 847 969 1125 678 
Q 1403 388 1819 388 
Q 2128 388 2347 550 
Q 2566 713 2694 1069 
z
M 847 1978 
L 2700 1978 
Q 2663 2397 2488 2606 
Q 2219 2931 1791 2931 
Q 1403 2931 1139 2672 
Q 875 2413 847 1978 
z
" transform="scale(0.015625)"/>
       <path id="ArialMT-28" d="M 1497 -1347 
Q 1031 -759 709 28 
Q 388 816 388 1659 
Q 388 2403 628 3084 
Q 909 3875 1497 4659 
L 1900 4659 
Q 1522 4009 1400 3731 
Q 1209 3300 1100 2831 
Q 966 2247 966 1656 
Q 966 153 1900 -1347 
L 1497 -1347 
z
" transform="scale(0.015625)"/>
       <path id="ArialMT-3bc" d="M 3181 3319 
L 3181 0 
L 2678 0 
L 2678 394 
Q 2516 144 2356 50 
Q 2138 -78 1847 -78 
Q 1588 -78 1388 25 
Q 1238 103 1056 334 
L 1056 -1272 
L 500 -1272 
L 500 3319 
L 1056 3319 
L 1056 1913 
Q 1056 1147 1137 920 
Q 1219 694 1401 562 
Q 1584 431 1822 431 
Q 2072 431 2269 568 
Q 2466 706 2547 923 
Q 2628 1141 2628 1903 
L 2628 3319 
L 3181 3319 
z
" transform="scale(0.015625)"/>
       <path id="ArialMT-56" d="M 1803 0 
L 28 4581 
L 684 4581 
L 1875 1253 
Q 2019 853 2116 503 
Q 2222 878 2363 1253 
L 3600 4581 
L 4219 4581 
L 2425 0 
L 1803 0 
z
" transform="scale(0.015625)"/>
       <path id="ArialMT-29" d="M 791 -1347 
L 388 -1347 
Q 1322 153 1322 1656 
Q 1322 2244 1188 2822 
Q 1081 3291 891 3722 
Q 769 4003 388 4659 
L 791 4659 
Q 1378 3875 1659 3084 
Q 1900 2403 1900 1659 
Q 1900 816 1576 28 
Q 1253 -759 791 -1347 
z
" transform="scale(0.015625)"/>
      </defs>
      <use xlink:href="#ArialMT-54"/>
      <use xlink:href="#ArialMT-72" x="57.333984"/>
      <use xlink:href="#ArialMT-6f" x="90.634766"/>
      <use xlink:href="#ArialMT-75" x="146.25"/>
      <use xlink:href="#ArialMT-67" x="201.865234"/>
      <use xlink:href="#ArialMT-68" x="257.480469"/>
      <use xlink:href="#ArialMT-20" x="313.095703"/>
      <use xlink:href="#ArialMT-61" x="340.878906"/>
      <use xlink:href="#ArialMT-6d" x="396.494141"/>
      <use xlink:href="#ArialMT-70" x="479.794922"/>
      <use xlink:href="#ArialMT-6c" x="535.410156"/>
      <use xlink:href="#ArialMT-69" x="557.626953"/>
      <use xlink:href="#ArialMT-74" x="579.84375"/>
      <use xlink:href="#ArialMT-75" x="607.626953"/>
      <use xlink:href="#ArialMT-64" x="663.242188"/>
      <use xlink:href="#ArialMT-65" x="718.857422"/>
      <use xlink:href="#ArialMT-73" x="774.472656"/>
      <use xlink:href="#ArialMT-20" x="824.472656"/>
      <use xlink:href="#ArialMT-28" x="852.255859"/>
      <use xlink:href="#ArialMT-3bc" x="885.556641"/>
      <use xlink:href="#ArialMT-56" x="943.173828"/>
      <use xlink:href="#ArialMT-29" x="1009.873047"/>
     </g>
    </g>
   </g>
   <g id="patch_3">
    <path d="M 28.152893 40.73466 
L 34.74085 40.73466 
L 34.74085 35.304962 
L 33.093861 31.88185 
L 34.74085 28.458738 
L 34.74085 30.508024 
L 28.152893 30.508024 
L 28.152893 28.458738 
L 29.799882 31.88185 
L 28.152893 35.304962 
L 28.152893 40.73466 
z
" clip-path="url(#p66cad2c7e4)" style="stroke: #000000; stroke-width: 0.5; stroke-linejoin: miter"/>
   </g>
   <g id="line2d_11">
    <path d="M 31.446871 40.73466 
L 31.446871 55.101902 
" clip-path="url(#p66cad2c7e4)" style="fill: none; stroke: #000000; stroke-width: 0.5"/>
   </g>
   <g id="line2d_12">
    <path d="M 31.446871 30.508024 
L 31.446871 28.589529 
" clip-path="url(#p66cad2c7e4)" style="fill: none; stroke: #000000; stroke-width: 0.5"/>
   </g>
   <g id="line2d_13">
    <path d="M 29.799882 55.101902 
L 33.093861 55.101902 
" clip-path="url(#p66cad2c7e4)" style="fill: none; stroke: #000000; stroke-width: 0.5; stroke-linecap: square"/>
   </g>
   <g id="line2d_14">
    <path d="M 29.799882 28.589529 
L 33.093861 28.589529 
" clip-path="url(#p66cad2c7e4)" style="fill: none; stroke: #000000; stroke-width: 0.5; stroke-linecap: square"/>
   </g>
   <g id="line2d_15">
    <defs>
     <path id="m4e0a4e0390" d="M 0 0.75 
C 0.198902 0.75 0.389685 0.670975 0.53033 0.53033 
C 0.670975 0.389685 0.75 0.198902 0.75 0 
C 0.75 -0.198902 0.670975 -0.389685 0.53033 -0.53033 
C 0.389685 -0.670975 0.198902 -0.75 0 -0.75 
C -0.198902 -0.75 -0.389685 -0.670975 -0.53033 -0.53033 
C -0.670975 -0.389685 -0.75 -0.198902 -0.75 0 
C -0.75 0.198902 -0.670975 0.389685 -0.53033 0.53033 
C -0.389685 0.670975 -0.198902 0.75 0 0.75 
z
" style="stroke: #000000"/>
    </defs>
    <g clip-path="url(#p66cad2c7e4)">
     <use xlink:href="#m4e0a4e0390" x="31.446871" y="120.845817" style="fill-opacity: 0; stroke: #000000"/>
     <use xlink:href="#m4e0a4e0390" x="31.446871" y="69.815185" style="fill-opacity: 0; stroke: #000000"/>
     <use xlink:href="#m4e0a4e0390" x="31.446871" y="57.424937" style="fill-opacity: 0; stroke: #000000"/>
    </g>
   </g>
   <g id="patch_4">
    <path d="M 44.622786 36.012977 
L 51.210744 36.012977 
L 51.210744 36.796368 
L 49.563754 32.895029 
L 51.210744 28.99369 
L 51.210744 24.357627 
L 44.622786 24.357627 
L 44.622786 28.99369 
L 46.269776 32.895029 
L 44.622786 36.796368 
L 44.622786 36.012977 
z
" clip-path="url(#p66cad2c7e4)" style="fill: #df2020; stroke: #000000; stroke-width: 0.5; stroke-linejoin: miter"/>
   </g>
   <g id="line2d_16">
    <path d="M 47.916765 36.012977 
L 47.916765 51.379131 
" clip-path="url(#p66cad2c7e4)" style="fill: none; stroke: #000000; stroke-width: 0.5"/>
   </g>
   <g id="line2d_17">
    <path d="M 47.916765 24.357627 
L 47.916765 20.630186 
" clip-path="url(#p66cad2c7e4)" style="fill: none; stroke: #000000; stroke-width: 0.5"/>
   </g>
   <g id="line2d_18">
    <path d="M 46.269776 51.379131 
L 49.563754 51.379131 
" clip-path="url(#p66cad2c7e4)" style="fill: none; stroke: #000000; stroke-width: 0.5; stroke-linecap: square"/>
   </g>
   <g id="line2d_19">
    <path d="M 46.269776 20.630186 
L 49.563754 20.630186 
" clip-path="url(#p66cad2c7e4)" style="fill: none; stroke: #000000; stroke-width: 0.5; stroke-linecap: square"/>
   </g>
   <g id="line2d_20">
    <g clip-path="url(#p66cad2c7e4)">
     <use xlink:href="#m4e0a4e0390" x="47.916765" y="116.688832" style="fill-opacity: 0; stroke: #000000"/>
     <use xlink:href="#m4e0a4e0390" x="47.916765" y="67.00031" style="fill-opacity: 0; stroke: #000000"/>
     <use xlink:href="#m4e0a4e0390" x="47.916765" y="53.660287" style="fill-opacity: 0; stroke: #000000"/>
    </g>
   </g>
   <g id="LineCollection_1">
    <path d="M 28.152893 18.014305 
L 51.210744 18.014305 
" clip-path="url(#p66cad2c7e4)" style="fill: none; stroke-dasharray: 3.7,1.6; stroke-dashoffset: 0; stroke: #000000"/>
   </g>
   <g id="line2d_21">
    <path d="M 29.799882 31.88185 
L 33.093861 31.88185 
" clip-path="url(#p66cad2c7e4)" style="fill: none; stroke: #000000; stroke-width: 0.5"/>
   </g>
   <g id="line2d_22">
    <path d="M 46.269776 32.895029 
L 49.563754 32.895029 
" clip-path="url(#p66cad2c7e4)" style="fill: none; stroke: #000000; stroke-width: 0.5"/>
   </g>
   <g id="patch_5">
    <path d="M 25.731818 128.16 
L 25.731818 17.28 
" style="fill: none; stroke: #000000; stroke-width: 0.5; stroke-linejoin: miter; stroke-linecap: square"/>
   </g>
   <g id="patch_6">
    <path d="M 27 133.704 
L 52.363636 133.704 
" style="fill: none; stroke: #000000; stroke-width: 0.5; stroke-linejoin: miter; stroke-linecap: square"/>
   </g>
   <g id="text_12">
    <!-- 0-21 ms -->
    <g transform="translate(26.678506 11.28) scale(0.072 -0.072)">
     <defs>
      <path id="ArialMT-2d" d="M 203 1375 
L 203 1941 
L 1931 1941 
L 1931 1375 
L 203 1375 
z
" transform="scale(0.015625)"/>
     </defs>
     <use xlink:href="#ArialMT-30"/>
     <use xlink:href="#ArialMT-2d" x="55.615234"/>
     <use xlink:href="#ArialMT-32" x="88.916016"/>
     <use xlink:href="#ArialMT-31" x="144.53125"/>
     <use xlink:href="#ArialMT-20" x="200.146484"/>
     <use xlink:href="#ArialMT-6d" x="227.929688"/>
     <use xlink:href="#ArialMT-73" x="311.230469"/>
    </g>
   </g>
   <g id="legend_1"/>
  </g>
  <g id="axes_2">
   <g id="patch_7">
    <path d="M 62.509091 128.16 
L 87.872727 128.16 
L 87.872727 17.28 
L 62.509091 17.28 
L 62.509091 128.16 
z
" style="fill: none"/>
   </g>
   <g id="matplotlib.axis_3">
    <g id="xtick_3">
     <g id="line2d_23">
      <g>
       <use xlink:href="#m1755492b88" x="66.955962" y="133.704" style="stroke: #000000; stroke-width: 0.5"/>
      </g>
     </g>
     <g id="text_13">
      <!-- 1st -->
      <g transform="translate(62.954243 145.348688) scale(0.06 -0.06)">
       <use xlink:href="#ArialMT-31"/>
       <use xlink:href="#ArialMT-73" x="55.615234"/>
       <use xlink:href="#ArialMT-74" x="105.615234"/>
      </g>
     </g>
    </g>
    <g id="xtick_4">
     <g id="line2d_24">
      <g>
       <use xlink:href="#m1755492b88" x="83.425856" y="133.704" style="stroke: #000000; stroke-width: 0.5"/>
      </g>
     </g>
     <g id="text_14">
      <!-- 2nd -->
      <g transform="translate(78.421012 145.348688) scale(0.06 -0.06)">
       <use xlink:href="#ArialMT-32"/>
       <use xlink:href="#ArialMT-6e" x="55.615234"/>
       <use xlink:href="#ArialMT-64" x="111.230469"/>
      </g>
     </g>
    </g>
    <g id="text_15">
     <!-- Spike order -->
     <g transform="translate(59.850597 154.909) scale(0.06 -0.06)">
      <defs>
       <path id="ArialMT-53" d="M 288 1472 
L 859 1522 
Q 900 1178 1048 958 
Q 1197 738 1509 602 
Q 1822 466 2213 466 
Q 2559 466 2825 569 
Q 3091 672 3220 851 
Q 3350 1031 3350 1244 
Q 3350 1459 3225 1620 
Q 3100 1781 2813 1891 
Q 2628 1963 1997 2114 
Q 1366 2266 1113 2400 
Q 784 2572 623 2826 
Q 463 3081 463 3397 
Q 463 3744 659 4045 
Q 856 4347 1234 4503 
Q 1613 4659 2075 4659 
Q 2584 4659 2973 4495 
Q 3363 4331 3572 4012 
Q 3781 3694 3797 3291 
L 3216 3247 
Q 3169 3681 2898 3903 
Q 2628 4125 2100 4125 
Q 1550 4125 1298 3923 
Q 1047 3722 1047 3438 
Q 1047 3191 1225 3031 
Q 1400 2872 2139 2705 
Q 2878 2538 3153 2413 
Q 3553 2228 3743 1945 
Q 3934 1663 3934 1294 
Q 3934 928 3725 604 
Q 3516 281 3123 101 
Q 2731 -78 2241 -78 
Q 1619 -78 1198 103 
Q 778 284 539 648 
Q 300 1013 288 1472 
z
" transform="scale(0.015625)"/>
       <path id="ArialMT-6b" d="M 425 0 
L 425 4581 
L 988 4581 
L 988 1969 
L 2319 3319 
L 3047 3319 
L 1778 2088 
L 3175 0 
L 2481 0 
L 1384 1697 
L 988 1316 
L 988 0 
L 425 0 
z
" transform="scale(0.015625)"/>
      </defs>
      <use xlink:href="#ArialMT-53"/>
      <use xlink:href="#ArialMT-70" x="66.699219"/>
      <use xlink:href="#ArialMT-69" x="122.314453"/>
      <use xlink:href="#ArialMT-6b" x="144.53125"/>
      <use xlink:href="#ArialMT-65" x="194.53125"/>
      <use xlink:href="#ArialMT-20" x="250.146484"/>
      <use xlink:href="#ArialMT-6f" x="277.929688"/>
      <use xlink:href="#ArialMT-72" x="333.544922"/>
      <use xlink:href="#ArialMT-64" x="366.845703"/>
      <use xlink:href="#ArialMT-65" x="422.460938"/>
      <use xlink:href="#ArialMT-72" x="478.076172"/>
     </g>
    </g>
   </g>
   <g id="matplotlib.axis_4"/>
   <g id="patch_8">
    <path d="M 63.661983 43.691308 
L 70.249941 43.691308 
L 70.249941 39.768199 
L 68.602952 35.511633 
L 70.249941 31.255067 
L 70.249941 30.974706 
L 63.661983 30.974706 
L 63.661983 31.255067 
L 65.308973 35.511633 
L 63.661983 39.768199 
L 63.661983 43.691308 
z
" clip-path="url(#p869007765a)" style="stroke: #000000; stroke-width: 0.5; stroke-linejoin: miter"/>
   </g>
   <g id="line2d_25">
    <path d="M 66.955962 43.691308 
L 66.955962 56.616142 
" clip-path="url(#p869007765a)" style="fill: none; stroke: #000000; stroke-width: 0.5"/>
   </g>
   <g id="line2d_26">
    <path d="M 66.955962 30.974706 
L 66.955962 27.394745 
" clip-path="url(#p869007765a)" style="fill: none; stroke: #000000; stroke-width: 0.5"/>
   </g>
   <g id="line2d_27">
    <path d="M 65.308973 56.616142 
L 68.602952 56.616142 
" clip-path="url(#p869007765a)" style="fill: none; stroke: #000000; stroke-width: 0.5; stroke-linecap: square"/>
   </g>
   <g id="line2d_28">
    <path d="M 65.308973 27.394745 
L 68.602952 27.394745 
" clip-path="url(#p869007765a)" style="fill: none; stroke: #000000; stroke-width: 0.5; stroke-linecap: square"/>
   </g>
   <g id="line2d_29">
    <g clip-path="url(#p869007765a)">
     <use xlink:href="#m4e0a4e0390" x="66.955962" y="121.18135" style="fill-opacity: 0; stroke: #000000"/>
     <use xlink:href="#m4e0a4e0390" x="66.955962" y="70.485736" style="fill-opacity: 0; stroke: #000000"/>
    </g>
   </g>
   <g id="patch_9">
    <path d="M 80.131877 42.651512 
L 86.719835 42.651512 
L 86.719835 38.105558 
L 85.072845 34.164127 
L 86.719835 30.222696 
L 86.719835 30.876385 
L 80.131877 30.876385 
L 80.131877 30.222696 
L 81.778867 34.164127 
L 80.131877 38.105558 
L 80.131877 42.651512 
z
" clip-path="url(#p869007765a)" style="fill: #df2020; stroke: #000000; stroke-width: 0.5; stroke-linejoin: miter"/>
   </g>
   <g id="line2d_30">
    <path d="M 83.425856 42.651512 
L 83.425856 53.993873 
" clip-path="url(#p869007765a)" style="fill: none; stroke: #000000; stroke-width: 0.5"/>
   </g>
   <g id="line2d_31">
    <path d="M 83.425856 30.876385 
L 83.425856 24.287176 
" clip-path="url(#p869007765a)" style="fill: none; stroke: #000000; stroke-width: 0.5"/>
   </g>
   <g id="line2d_32">
    <path d="M 81.778867 53.993873 
L 85.072845 53.993873 
" clip-path="url(#p869007765a)" style="fill: none; stroke: #000000; stroke-width: 0.5; stroke-linecap: square"/>
   </g>
   <g id="line2d_33">
    <path d="M 81.778867 24.287176 
L 85.072845 24.287176 
" clip-path="url(#p869007765a)" style="fill: none; stroke: #000000; stroke-width: 0.5; stroke-linecap: square"/>
   </g>
   <g id="line2d_34">
    <g clip-path="url(#p869007765a)">
     <use xlink:href="#m4e0a4e0390" x="83.425856" y="119.340725" style="fill-opacity: 0; stroke: #000000"/>
     <use xlink:href="#m4e0a4e0390" x="83.425856" y="68.810116" style="fill-opacity: 0; stroke: #000000"/>
    </g>
   </g>
   <g id="LineCollection_2">
    <path d="M 63.661983 18.014305 
L 86.719835 18.014305 
" clip-path="url(#p869007765a)" style="fill: none; stroke-dasharray: 3.7,1.6; stroke-dashoffset: 0; stroke: #000000"/>
   </g>
   <g id="line2d_35">
    <path d="M 65.308973 35.511633 
L 68.602952 35.511633 
" clip-path="url(#p869007765a)" style="fill: none; stroke: #000000; stroke-width: 0.5"/>
   </g>
   <g id="line2d_36">
    <path d="M 81.778867 34.164127 
L 85.072845 34.164127 
" clip-path="url(#p869007765a)" style="fill: none; stroke: #000000; stroke-width: 0.5"/>
   </g>
   <g id="patch_10">
    <path d="M 61.240909 128.16 
L 61.240909 17.28 
" style="fill: none; stroke: #000000; stroke-width: 0.5; stroke-linejoin: miter; stroke-linecap: square"/>
   </g>
   <g id="patch_11">
    <path d="M 62.509091 133.704 
L 87.872727 133.704 
" style="fill: none; stroke: #000000; stroke-width: 0.5; stroke-linejoin: miter; stroke-linecap: square"/>
   </g>
   <g id="text_16">
    <!-- 21-61 ms -->
    <g transform="translate(60.185659 11.28) scale(0.072 -0.072)">
     <use xlink:href="#ArialMT-32"/>
     <use xlink:href="#ArialMT-31" x="55.615234"/>
     <use xlink:href="#ArialMT-2d" x="111.230469"/>
     <use xlink:href="#ArialMT-36" x="144.53125"/>
     <use xlink:href="#ArialMT-31" x="200.146484"/>
     <use xlink:href="#ArialMT-20" x="255.761719"/>
     <use xlink:href="#ArialMT-6d" x="283.544922"/>
     <use xlink:href="#ArialMT-73" x="366.845703"/>
    </g>
   </g>
   <g id="legend_2"/>
  </g>
  <g id="axes_3">
   <g id="patch_12">
    <path d="M 98.018182 128.16 
L 123.381818 128.16 
L 123.381818 17.28 
L 98.018182 17.28 
L 98.018182 128.16 
z
" style="fill: none"/>
   </g>
   <g id="matplotlib.axis_5">
    <g id="xtick_5">
     <g id="line2d_37">
      <g>
       <use xlink:href="#m1755492b88" x="102.465053" y="133.704" style="stroke: #000000; stroke-width: 0.5"/>
      </g>
     </g>
     <g id="text_17">
      <!-- 1st -->
      <g transform="translate(98.463334 145.348688) scale(0.06 -0.06)">
       <use xlink:href="#ArialMT-31"/>
       <use xlink:href="#ArialMT-73" x="55.615234"/>
       <use xlink:href="#ArialMT-74" x="105.615234"/>
      </g>
     </g>
    </g>
    <g id="xtick_6">
     <g id="line2d_38">
      <g>
       <use xlink:href="#m1755492b88" x="118.934947" y="133.704" style="stroke: #000000; stroke-width: 0.5"/>
      </g>
     </g>
     <g id="text_18">
      <!-- 2nd -->
      <g transform="translate(113.930103 145.348688) scale(0.06 -0.06)">
       <use xlink:href="#ArialMT-32"/>
       <use xlink:href="#ArialMT-6e" x="55.615234"/>
       <use xlink:href="#ArialMT-64" x="111.230469"/>
      </g>
     </g>
    </g>
   </g>
   <g id="matplotlib.axis_6"/>
   <g id="patch_13">
    <path d="M 99.171074 34.956022 
L 105.759032 34.956022 
L 105.759032 34.621524 
L 104.112043 32.868202 
L 105.759032 31.114881 
L 105.759032 31.424499 
L 99.171074 31.424499 
L 99.171074 31.114881 
L 100.818064 32.868202 
L 99.171074 34.621524 
L 99.171074 34.956022 
z
" clip-path="url(#p799e51bee3)" style="stroke: #000000; stroke-width: 0.5; stroke-linejoin: miter"/>
   </g>
   <g id="line2d_39">
    <path d="M 102.465053 34.956022 
L 102.465053 35.489225 
" clip-path="url(#p799e51bee3)" style="fill: none; stroke: #000000; stroke-width: 0.5"/>
   </g>
   <g id="line2d_40">
    <path d="M 102.465053 31.424499 
L 102.465053 28.484504 
" clip-path="url(#p799e51bee3)" style="fill: none; stroke: #000000; stroke-width: 0.5"/>
   </g>
   <g id="line2d_41">
    <path d="M 100.818064 35.489225 
L 104.112043 35.489225 
" clip-path="url(#p799e51bee3)" style="fill: none; stroke: #000000; stroke-width: 0.5; stroke-linecap: square"/>
   </g>
   <g id="line2d_42">
    <path d="M 100.818064 28.484504 
L 104.112043 28.484504 
" clip-path="url(#p799e51bee3)" style="fill: none; stroke: #000000; stroke-width: 0.5; stroke-linecap: square"/>
   </g>
   <g id="line2d_43">
    <g clip-path="url(#p799e51bee3)">
     <use xlink:href="#m4e0a4e0390" x="102.465053" y="71.409135" style="fill-opacity: 0; stroke: #000000"/>
     <use xlink:href="#m4e0a4e0390" x="102.465053" y="55.917633" style="fill-opacity: 0; stroke: #000000"/>
    </g>
   </g>
   <g id="patch_14">
    <path d="M 115.640968 34.110312 
L 122.228926 34.110312 
L 122.228926 33.678195 
L 120.581936 31.109539 
L 122.228926 28.540882 
L 122.228926 28.936551 
L 115.640968 28.936551 
L 115.640968 28.540882 
L 117.287957 31.109539 
L 115.640968 33.678195 
L 115.640968 34.110312 
z
" clip-path="url(#p799e51bee3)" style="fill: #df2020; stroke: #000000; stroke-width: 0.5; stroke-linejoin: miter"/>
   </g>
   <g id="line2d_44">
    <path d="M 118.934947 34.110312 
L 118.934947 34.794167 
" clip-path="url(#p799e51bee3)" style="fill: none; stroke: #000000; stroke-width: 0.5"/>
   </g>
   <g id="line2d_45">
    <path d="M 118.934947 28.936551 
L 118.934947 24.066704 
" clip-path="url(#p799e51bee3)" style="fill: none; stroke: #000000; stroke-width: 0.5"/>
   </g>
   <g id="line2d_46">
    <path d="M 117.287957 34.794167 
L 120.581936 34.794167 
" clip-path="url(#p799e51bee3)" style="fill: none; stroke: #000000; stroke-width: 0.5; stroke-linecap: square"/>
   </g>
   <g id="line2d_47">
    <path d="M 117.287957 24.066704 
L 120.581936 24.066704 
" clip-path="url(#p799e51bee3)" style="fill: none; stroke: #000000; stroke-width: 0.5; stroke-linecap: square"/>
   </g>
   <g id="line2d_48">
    <g clip-path="url(#p799e51bee3)">
     <use xlink:href="#m4e0a4e0390" x="118.934947" y="68.850744" style="fill-opacity: 0; stroke: #000000"/>
     <use xlink:href="#m4e0a4e0390" x="118.934947" y="55.113989" style="fill-opacity: 0; stroke: #000000"/>
     <use xlink:href="#m4e0a4e0390" x="118.934947" y="20.778865" style="fill-opacity: 0; stroke: #000000"/>
    </g>
   </g>
   <g id="LineCollection_3">
    <path d="M 99.171074 18.014305 
L 122.228926 18.014305 
" clip-path="url(#p799e51bee3)" style="fill: none; stroke-dasharray: 3.7,1.6; stroke-dashoffset: 0; stroke: #000000"/>
   </g>
   <g id="line2d_49">
    <path d="M 100.818064 32.868202 
L 104.112043 32.868202 
" clip-path="url(#p799e51bee3)" style="fill: none; stroke: #000000; stroke-width: 0.5"/>
   </g>
   <g id="line2d_50">
    <path d="M 117.287957 31.109539 
L 120.581936 31.109539 
" clip-path="url(#p799e51bee3)" style="fill: none; stroke: #000000; stroke-width: 0.5"/>
   </g>
   <g id="patch_15">
    <path d="M 96.75 128.16 
L 96.75 17.28 
" style="fill: none; stroke: #000000; stroke-width: 0.5; stroke-linejoin: miter; stroke-linecap: square"/>
   </g>
   <g id="patch_16">
    <path d="M 98.018182 133.704 
L 123.381818 133.704 
" style="fill: none; stroke: #000000; stroke-width: 0.5; stroke-linejoin: miter; stroke-linecap: square"/>
   </g>
   <g id="text_19">
    <!-- 61-101 ms -->
    <g transform="translate(93.692813 11.28) scale(0.072 -0.072)">
     <use xlink:href="#ArialMT-36"/>
     <use xlink:href="#ArialMT-31" x="55.615234"/>
     <use xlink:href="#ArialMT-2d" x="111.230469"/>
     <use xlink:href="#ArialMT-31" x="144.53125"/>
     <use xlink:href="#ArialMT-30" x="200.146484"/>
     <use xlink:href="#ArialMT-31" x="255.761719"/>
     <use xlink:href="#ArialMT-20" x="311.376953"/>
     <use xlink:href="#ArialMT-6d" x="339.160156"/>
     <use xlink:href="#ArialMT-73" x="422.460938"/>
    </g>
   </g>
   <g id="legend_3"/>
  </g>
  <g id="axes_4">
   <g id="patch_17">
    <path d="M 133.527273 128.16 
L 158.890909 128.16 
L 158.890909 17.28 
L 133.527273 17.28 
L 133.527273 128.16 
z
" style="fill: none"/>
   </g>
   <g id="matplotlib.axis_7">
    <g id="xtick_7">
     <g id="line2d_51">
      <g>
       <use xlink:href="#m1755492b88" x="137.974144" y="133.704" style="stroke: #000000; stroke-width: 0.5"/>
      </g>
     </g>
     <g id="text_20">
      <!-- 1st -->
      <g transform="translate(133.972425 145.348688) scale(0.06 -0.06)">
       <use xlink:href="#ArialMT-31"/>
       <use xlink:href="#ArialMT-73" x="55.615234"/>
       <use xlink:href="#ArialMT-74" x="105.615234"/>
      </g>
     </g>
    </g>
    <g id="xtick_8">
     <g id="line2d_52">
      <g>
       <use xlink:href="#m1755492b88" x="154.444038" y="133.704" style="stroke: #000000; stroke-width: 0.5"/>
      </g>
     </g>
     <g id="text_21">
      <!-- 2nd -->
      <g transform="translate(149.439194 145.348688) scale(0.06 -0.06)">
       <use xlink:href="#ArialMT-32"/>
       <use xlink:href="#ArialMT-6e" x="55.615234"/>
       <use xlink:href="#ArialMT-64" x="111.230469"/>
      </g>
     </g>
    </g>
   </g>
   <g id="matplotlib.axis_8"/>
   <g id="patch_18">
    <path d="M 134.680165 33.720154 
L 141.268123 33.720154 
L 141.268123 35.310661 
L 139.621133 30.957878 
L 141.268123 26.605094 
L 141.268123 24.952823 
L 134.680165 24.952823 
L 134.680165 26.605094 
L 136.327155 30.957878 
L 134.680165 35.310661 
L 134.680165 33.720154 
z
" clip-path="url(#pf4b6411764)" style="stroke: #000000; stroke-width: 0.5; stroke-linejoin: miter"/>
   </g>
   <g id="line2d_53">
    <path d="M 137.974144 33.720154 
L 137.974144 34.213839 
" clip-path="url(#pf4b6411764)" style="fill: none; stroke: #000000; stroke-width: 0.5"/>
   </g>
   <g id="line2d_54">
    <path d="M 137.974144 24.952823 
L 137.974144 23.452212 
" clip-path="url(#pf4b6411764)" style="fill: none; stroke: #000000; stroke-width: 0.5"/>
   </g>
   <g id="line2d_55">
    <path d="M 136.327155 34.213839 
L 139.621133 34.213839 
" clip-path="url(#pf4b6411764)" style="fill: none; stroke: #000000; stroke-width: 0.5; stroke-linecap: square"/>
   </g>
   <g id="line2d_56">
    <path d="M 136.327155 23.452212 
L 139.621133 23.452212 
" clip-path="url(#pf4b6411764)" style="fill: none; stroke: #000000; stroke-width: 0.5; stroke-linecap: square"/>
   </g>
   <g id="line2d_57">
    <g clip-path="url(#pf4b6411764)">
     <use xlink:href="#m4e0a4e0390" x="137.974144" y="70.901762" style="fill-opacity: 0; stroke: #000000"/>
     <use xlink:href="#m4e0a4e0390" x="137.974144" y="53.549353" style="fill-opacity: 0; stroke: #000000"/>
    </g>
   </g>
   <g id="patch_19">
    <path d="M 151.150059 33.819378 
L 157.738017 33.819378 
L 157.738017 33.267257 
L 156.091027 31.442205 
L 157.738017 29.617152 
L 157.738017 30.143376 
L 151.150059 30.143376 
L 151.150059 29.617152 
L 152.797048 31.442205 
L 151.150059 33.267257 
L 151.150059 33.819378 
z
" clip-path="url(#pf4b6411764)" style="fill: #df2020; stroke: #000000; stroke-width: 0.5; stroke-linejoin: miter"/>
   </g>
   <g id="line2d_58">
    <path d="M 154.444038 33.819378 
L 154.444038 34.368614 
" clip-path="url(#pf4b6411764)" style="fill: none; stroke: #000000; stroke-width: 0.5"/>
   </g>
   <g id="line2d_59">
    <path d="M 154.444038 30.143376 
L 154.444038 28.6684 
" clip-path="url(#pf4b6411764)" style="fill: none; stroke: #000000; stroke-width: 0.5"/>
   </g>
   <g id="line2d_60">
    <path d="M 152.797048 34.368614 
L 156.091027 34.368614 
" clip-path="url(#pf4b6411764)" style="fill: none; stroke: #000000; stroke-width: 0.5; stroke-linecap: square"/>
   </g>
   <g id="line2d_61">
    <path d="M 152.797048 28.6684 
L 156.091027 28.6684 
" clip-path="url(#pf4b6411764)" style="fill: none; stroke: #000000; stroke-width: 0.5; stroke-linecap: square"/>
   </g>
   <g id="line2d_62">
    <g clip-path="url(#pf4b6411764)">
     <use xlink:href="#m4e0a4e0390" x="154.444038" y="70.236478" style="fill-opacity: 0; stroke: #000000"/>
     <use xlink:href="#m4e0a4e0390" x="154.444038" y="56.789659" style="fill-opacity: 0; stroke: #000000"/>
    </g>
   </g>
   <g id="LineCollection_4">
    <path d="M 134.680165 18.014305 
L 157.738017 18.014305 
" clip-path="url(#pf4b6411764)" style="fill: none; stroke-dasharray: 3.7,1.6; stroke-dashoffset: 0; stroke: #000000"/>
   </g>
   <g id="line2d_63">
    <path d="M 136.327155 30.957878 
L 139.621133 30.957878 
" clip-path="url(#pf4b6411764)" style="fill: none; stroke: #000000; stroke-width: 0.5"/>
   </g>
   <g id="line2d_64">
    <path d="M 152.797048 31.442205 
L 156.091027 31.442205 
" clip-path="url(#pf4b6411764)" style="fill: none; stroke: #000000; stroke-width: 0.5"/>
   </g>
   <g id="patch_20">
    <path d="M 132.259091 128.16 
L 132.259091 17.28 
" style="fill: none; stroke: #000000; stroke-width: 0.5; stroke-linejoin: miter; stroke-linecap: square"/>
   </g>
   <g id="patch_21">
    <path d="M 133.527273 133.704 
L 158.890909 133.704 
" style="fill: none; stroke: #000000; stroke-width: 0.5; stroke-linejoin: miter; stroke-linecap: square"/>
   </g>
   <g id="text_22">
    <!-- 101-141 ms -->
    <g transform="translate(127.199966 11.28) scale(0.072 -0.072)">
     <use xlink:href="#ArialMT-31"/>
     <use xlink:href="#ArialMT-30" x="55.615234"/>
     <use xlink:href="#ArialMT-31" x="111.230469"/>
     <use xlink:href="#ArialMT-2d" x="166.845703"/>
     <use xlink:href="#ArialMT-31" x="200.146484"/>
     <use xlink:href="#ArialMT-34" x="255.761719"/>
     <use xlink:href="#ArialMT-31" x="311.376953"/>
     <use xlink:href="#ArialMT-20" x="366.992188"/>
     <use xlink:href="#ArialMT-6d" x="394.775391"/>
     <use xlink:href="#ArialMT-73" x="478.076172"/>
    </g>
   </g>
   <g id="legend_4"/>
  </g>
  <g id="axes_5">
   <g id="patch_22">
    <path d="M 169.036364 128.16 
L 194.4 128.16 
L 194.4 17.28 
L 169.036364 17.28 
L 169.036364 128.16 
z
" style="fill: none"/>
   </g>
   <g id="matplotlib.axis_9">
    <g id="xtick_9">
     <g id="line2d_65">
      <g>
       <use xlink:href="#m1755492b88" x="173.483235" y="133.704" style="stroke: #000000; stroke-width: 0.5"/>
      </g>
     </g>
     <g id="text_23">
      <!-- 1st -->
      <g transform="translate(169.481516 145.348688) scale(0.06 -0.06)">
       <use xlink:href="#ArialMT-31"/>
       <use xlink:href="#ArialMT-73" x="55.615234"/>
       <use xlink:href="#ArialMT-74" x="105.615234"/>
      </g>
     </g>
    </g>
    <g id="xtick_10">
     <g id="line2d_66">
      <g>
       <use xlink:href="#m1755492b88" x="189.953129" y="133.704" style="stroke: #000000; stroke-width: 0.5"/>
      </g>
     </g>
     <g id="text_24">
      <!-- 2nd -->
      <g transform="translate(184.948285 145.348688) scale(0.06 -0.06)">
       <use xlink:href="#ArialMT-32"/>
       <use xlink:href="#ArialMT-6e" x="55.615234"/>
       <use xlink:href="#ArialMT-64" x="111.230469"/>
      </g>
     </g>
    </g>
   </g>
   <g id="matplotlib.axis_10"/>
   <g id="patch_23">
    <path d="M 170.189256 36.066515 
L 176.777214 36.066515 
L 176.777214 34.656781 
L 175.130224 31.872996 
L 176.777214 29.089212 
L 176.777214 29.43214 
L 170.189256 29.43214 
L 170.189256 29.089212 
L 171.836246 31.872996 
L 170.189256 34.656781 
L 170.189256 36.066515 
z
" clip-path="url(#pa8e453d97e)" style="stroke: #000000; stroke-width: 0.5; stroke-linejoin: miter"/>
   </g>
   <g id="line2d_67">
    <path d="M 173.483235 36.066515 
L 173.483235 38.110607 
" clip-path="url(#pa8e453d97e)" style="fill: none; stroke: #000000; stroke-width: 0.5"/>
   </g>
   <g id="line2d_68">
    <path d="M 173.483235 29.43214 
L 173.483235 20.467577 
" clip-path="url(#pa8e453d97e)" style="fill: none; stroke: #000000; stroke-width: 0.5"/>
   </g>
   <g id="line2d_69">
    <path d="M 171.836246 38.110607 
L 175.130224 38.110607 
" clip-path="url(#pa8e453d97e)" style="fill: none; stroke: #000000; stroke-width: 0.5; stroke-linecap: square"/>
   </g>
   <g id="line2d_70">
    <path d="M 171.836246 20.467577 
L 175.130224 20.467577 
" clip-path="url(#pa8e453d97e)" style="fill: none; stroke: #000000; stroke-width: 0.5; stroke-linecap: square"/>
   </g>
   <g id="line2d_71">
    <g clip-path="url(#pa8e453d97e)">
     <use xlink:href="#m4e0a4e0390" x="173.483235" y="69.656943" style="fill-opacity: 0; stroke: #000000"/>
     <use xlink:href="#m4e0a4e0390" x="173.483235" y="53.722714" style="fill-opacity: 0; stroke: #000000"/>
    </g>
   </g>
   <g id="patch_24">
    <path d="M 186.65915 35.685078 
L 193.247107 35.685078 
L 193.247107 33.714216 
L 191.600118 31.376667 
L 193.247107 29.039118 
L 193.247107 30.114182 
L 186.65915 30.114182 
L 186.65915 29.039118 
L 188.306139 31.376667 
L 186.65915 33.714216 
L 186.65915 35.685078 
z
" clip-path="url(#pa8e453d97e)" style="fill: #df2020; stroke: #000000; stroke-width: 0.5; stroke-linejoin: miter"/>
   </g>
   <g id="line2d_72">
    <path d="M 189.953129 35.685078 
L 189.953129 37.810538 
" clip-path="url(#pa8e453d97e)" style="fill: none; stroke: #000000; stroke-width: 0.5"/>
   </g>
   <g id="line2d_73">
    <path d="M 189.953129 30.114182 
L 189.953129 28.544665 
" clip-path="url(#pa8e453d97e)" style="fill: none; stroke: #000000; stroke-width: 0.5"/>
   </g>
   <g id="line2d_74">
    <path d="M 188.306139 37.810538 
L 191.600118 37.810538 
" clip-path="url(#pa8e453d97e)" style="fill: none; stroke: #000000; stroke-width: 0.5; stroke-linecap: square"/>
   </g>
   <g id="line2d_75">
    <path d="M 188.306139 28.544665 
L 191.600118 28.544665 
" clip-path="url(#pa8e453d97e)" style="fill: none; stroke: #000000; stroke-width: 0.5; stroke-linecap: square"/>
   </g>
   <g id="line2d_76">
    <g clip-path="url(#pa8e453d97e)">
     <use xlink:href="#m4e0a4e0390" x="189.953129" y="70.878608" style="fill-opacity: 0; stroke: #000000"/>
     <use xlink:href="#m4e0a4e0390" x="189.953129" y="57.199733" style="fill-opacity: 0; stroke: #000000"/>
    </g>
   </g>
   <g id="LineCollection_5">
    <path d="M 170.189256 18.014305 
L 193.247107 18.014305 
" clip-path="url(#pa8e453d97e)" style="fill: none; stroke-dasharray: 3.7,1.6; stroke-dashoffset: 0; stroke: #000000"/>
   </g>
   <g id="line2d_77">
    <path d="M 171.836246 31.872996 
L 175.130224 31.872996 
" clip-path="url(#pa8e453d97e)" style="fill: none; stroke: #000000; stroke-width: 0.5"/>
   </g>
   <g id="line2d_78">
    <path d="M 188.306139 31.376667 
L 191.600118 31.376667 
" clip-path="url(#pa8e453d97e)" style="fill: none; stroke: #000000; stroke-width: 0.5"/>
   </g>
   <g id="patch_25">
    <path d="M 167.768182 128.16 
L 167.768182 17.28 
" style="fill: none; stroke: #000000; stroke-width: 0.5; stroke-linejoin: miter; stroke-linecap: square"/>
   </g>
   <g id="patch_26">
    <path d="M 169.036364 133.704 
L 194.4 133.704 
" style="fill: none; stroke: #000000; stroke-width: 0.5; stroke-linejoin: miter; stroke-linecap: square"/>
   </g>
   <g id="text_25">
    <!-- 141-181 ms -->
    <g transform="translate(162.709057 11.28) scale(0.072 -0.072)">
     <defs>
      <path id="ArialMT-38" d="M 1131 2484 
Q 781 2613 612 2850 
Q 444 3088 444 3419 
Q 444 3919 803 4259 
Q 1163 4600 1759 4600 
Q 2359 4600 2725 4251 
Q 3091 3903 3091 3403 
Q 3091 3084 2923 2848 
Q 2756 2613 2416 2484 
Q 2838 2347 3058 2040 
Q 3278 1734 3278 1309 
Q 3278 722 2862 322 
Q 2447 -78 1769 -78 
Q 1091 -78 675 323 
Q 259 725 259 1325 
Q 259 1772 486 2073 
Q 713 2375 1131 2484 
z
M 1019 3438 
Q 1019 3113 1228 2906 
Q 1438 2700 1772 2700 
Q 2097 2700 2305 2904 
Q 2513 3109 2513 3406 
Q 2513 3716 2298 3927 
Q 2084 4138 1766 4138 
Q 1444 4138 1231 3931 
Q 1019 3725 1019 3438 
z
M 838 1322 
Q 838 1081 952 856 
Q 1066 631 1291 507 
Q 1516 384 1775 384 
Q 2178 384 2440 643 
Q 2703 903 2703 1303 
Q 2703 1709 2433 1975 
Q 2163 2241 1756 2241 
Q 1359 2241 1098 1978 
Q 838 1716 838 1322 
z
" transform="scale(0.015625)"/>
     </defs>
     <use xlink:href="#ArialMT-31"/>
     <use xlink:href="#ArialMT-34" x="55.615234"/>
     <use xlink:href="#ArialMT-31" x="111.230469"/>
     <use xlink:href="#ArialMT-2d" x="166.845703"/>
     <use xlink:href="#ArialMT-31" x="200.146484"/>
     <use xlink:href="#ArialMT-38" x="255.761719"/>
     <use xlink:href="#ArialMT-31" x="311.376953"/>
     <use xlink:href="#ArialMT-20" x="366.992188"/>
     <use xlink:href="#ArialMT-6d" x="394.775391"/>
     <use xlink:href="#ArialMT-73" x="478.076172"/>
    </g>
   </g>
   <g id="legend_5"/>
  </g>
 </g>
 <defs>
  <clipPath id="p66cad2c7e4">
   <rect x="27" y="17.28" width="25.363636" height="110.88"/>
  </clipPath>
  <clipPath id="p869007765a">
   <rect x="62.509091" y="17.28" width="25.363636" height="110.88"/>
  </clipPath>
  <clipPath id="p799e51bee3">
   <rect x="98.018182" y="17.28" width="25.363636" height="110.88"/>
  </clipPath>
  <clipPath id="pf4b6411764">
   <rect x="133.527273" y="17.28" width="25.363636" height="110.88"/>
  </clipPath>
  <clipPath id="pa8e453d97e">
   <rect x="169.036364" y="17.28" width="25.363636" height="110.88"/>
  </clipPath>
 </defs>
</svg>
