<?xml version="1.0" encoding="utf-8" standalone="no"?>
<!DOCTYPE svg PUBLIC "-//W3C//DTD SVG 1.1//EN"
  "http://www.w3.org/Graphics/SVG/1.1/DTD/svg11.dtd">
<svg xmlns:xlink="http://www.w3.org/1999/xlink" width="259.240938pt" height="158.989187pt" viewBox="0 0 259.240938 158.989187" xmlns="http://www.w3.org/2000/svg" version="1.1">
 <metadata>
  <rdf:RDF xmlns:dc="http://purl.org/dc/elements/1.1/" xmlns:cc="http://creativecommons.org/ns#" xmlns:rdf="http://www.w3.org/1999/02/22-rdf-syntax-ns#">
   <cc:Work>
    <dc:type rdf:resource="http://purl.org/dc/dcmitype/StillImage"/>
    <dc:date>2025-09-25T19:52:03.151600</dc:date>
    <dc:format>image/svg+xml</dc:format>
    <dc:creator>
     <cc:Agent>
      <dc:title>Matplotlib v3.8.4, https://matplotlib.org/</dc:title>
     </cc:Agent>
    </dc:creator>
   </cc:Work>
  </rdf:RDF>
 </metadata>
 <defs>
  <style type="text/css">*{stroke-linejoin: round; stroke-linecap: butt}</style>
 </defs>
 <g id="figure_1">
  <g id="patch_1">
   <path d="M 0 158.989187 
L 259.240938 158.989187 
L 259.240938 0 
L 0 0 
L 0 158.989187 
z
" style="fill: none"/>
  </g>
  <g id="axes_1">
   <g id="patch_2">
    <path d="M 34.358125 129.321375 
L 201.758125 129.321375 
L 201.758125 18.441375 
L 34.358125 18.441375 
L 34.358125 129.321375 
z
" style="fill: none"/>
   </g>
   <g id="PolyCollection_1">
    <defs>
     <path id="m9d624b786c" d="M 41.967216 -110.134192 
L 41.967216 -108.75238 
L 45.072967 -108.663667 
L 48.178719 -109.860577 
L 51.28447 -110.650591 
L 54.390221 -110.478002 
L 57.495973 -111.71165 
L 60.601724 -113.394732 
L 63.707476 -115.275385 
L 66.813227 -115.348989 
L 69.918978 -115.843379 
L 73.02473 -118.077812 
L 76.130481 -120.511551 
L 79.236233 -123.880878 
L 82.341984 -126.845125 
L 85.447735 -127.053949 
L 88.553487 -124.785281 
L 91.659238 -121.575082 
L 94.76499 -118.547523 
L 97.870741 -117.147675 
L 100.976492 -112.649151 
L 104.082244 -105.841377 
L 107.187995 -91.853984 
L 110.293747 -73.620381 
L 113.399498 -56.801825 
L 116.505249 -44.605239 
L 119.611001 -42.13096 
L 122.716752 -43.157108 
L 125.822503 -52.775144 
L 128.928255 -66.85066 
L 132.034006 -78.738327 
L 135.139758 -86.320709 
L 138.245509 -89.042977 
L 141.35126 -89.88267 
L 144.457012 -92.731258 
L 147.562763 -93.678603 
L 150.668515 -97.025103 
L 153.774266 -100.846046 
L 156.880017 -105.415963 
L 159.985769 -111.117111 
L 163.09152 -117.202427 
L 166.197272 -122.785401 
L 169.303023 -125.548649 
L 172.408774 -126.317966 
L 175.514526 -124.681048 
L 178.620277 -122.749777 
L 181.726029 -120.374949 
L 184.83178 -120.003356 
L 187.937531 -119.151282 
L 191.043283 -117.226041 
L 194.149034 -115.615999 
L 194.149034 -118.242581 
L 194.149034 -118.242581 
L 191.043283 -119.750694 
L 187.937531 -119.919344 
L 184.83178 -122.160207 
L 181.726029 -123.991406 
L 178.620277 -125.782974 
L 175.514526 -126.283374 
L 172.408774 -127.283081 
L 169.303023 -126.06682 
L 166.197272 -124.765037 
L 163.09152 -123.004481 
L 159.985769 -119.724991 
L 156.880017 -116.039129 
L 153.774266 -110.20513 
L 150.668515 -104.533007 
L 147.562763 -98.623176 
L 144.457012 -93.264155 
L 141.35126 -91.444125 
L 138.245509 -89.975859 
L 135.139758 -88.810429 
L 132.034006 -85.697758 
L 128.928255 -77.650379 
L 125.822503 -65.123339 
L 122.716752 -51.324249 
L 119.611001 -43.406711 
L 116.505249 -50.862976 
L 113.399498 -67.482862 
L 110.293747 -86.914439 
L 107.187995 -103.999706 
L 104.082244 -113.938935 
L 100.976492 -119.551316 
L 97.870741 -120.987264 
L 94.76499 -122.361364 
L 91.659238 -124.631019 
L 88.553487 -126.965311 
L 85.447735 -128.613675 
L 82.341984 -127.616049 
L 79.236233 -125.407946 
L 76.130481 -122.239477 
L 73.02473 -119.290935 
L 69.918978 -117.422457 
L 66.813227 -116.109068 
L 63.707476 -115.511497 
L 60.601724 -115.800141 
L 57.495973 -115.267431 
L 54.390221 -113.703201 
L 51.28447 -111.598212 
L 48.178719 -110.675139 
L 45.072967 -110.715471 
L 41.967216 -110.134192 
z
" style="stroke: #808080; stroke-opacity: 0.3"/>
    </defs>
    <g clip-path="url(#p0def0327dc)">
     <use xlink:href="#m9d624b786c" x="0" y="158.989187" style="fill: #808080; fill-opacity: 0.3; stroke: #808080; stroke-opacity: 0.3"/>
    </g>
   </g>
   <g id="PolyCollection_2">
    <defs>
     <path id="m550af7affa" d="M 41.967216 -121.481813 
L 41.967216 -108.687394 
L 45.072967 -109.086359 
L 48.178719 -109.320943 
L 51.28447 -110.958569 
L 54.390221 -112.190042 
L 57.495973 -114.008618 
L 60.601724 -117.053958 
L 63.707476 -118.307669 
L 66.813227 -117.668754 
L 69.918978 -119.053526 
L 73.02473 -120.508165 
L 76.130481 -123.348665 
L 79.236233 -125.8514 
L 82.341984 -126.035245 
L 85.447735 -123.605289 
L 88.553487 -119.498802 
L 91.659238 -116.782276 
L 94.76499 -112.431918 
L 97.870741 -109.107233 
L 100.976492 -106.10048 
L 104.082244 -97.451909 
L 107.187995 -82.365182 
L 110.293747 -63.459227 
L 113.399498 -45.546163 
L 116.505249 -35.201646 
L 119.611001 -34.707812 
L 122.716752 -42.814686 
L 125.822503 -56.040487 
L 128.928255 -69.596267 
L 132.034006 -80.507107 
L 135.139758 -87.069151 
L 138.245509 -90.208935 
L 141.35126 -93.361002 
L 144.457012 -96.128046 
L 147.562763 -99.312618 
L 150.668515 -104.378774 
L 153.774266 -108.81375 
L 156.880017 -113.250211 
L 159.985769 -116.42337 
L 163.09152 -119.632169 
L 166.197272 -122.191462 
L 169.303023 -124.197069 
L 172.408774 -125.517858 
L 175.514526 -124.963945 
L 178.620277 -123.377575 
L 181.726029 -120.306246 
L 184.83178 -118.428314 
L 187.937531 -116.636688 
L 191.043283 -117.015164 
L 194.149034 -117.759846 
L 194.149034 -118.45492 
L 194.149034 -118.45492 
L 191.043283 -123.643384 
L 187.937531 -126.614937 
L 184.83178 -128.325879 
L 181.726029 -128.975007 
L 178.620277 -129.894804 
L 175.514526 -131.236529 
L 172.408774 -134.240949 
L 169.303023 -135.507812 
L 166.197272 -135.322166 
L 163.09152 -133.334872 
L 159.985769 -129.734719 
L 156.880017 -123.610545 
L 153.774266 -116.047551 
L 150.668515 -108.214401 
L 147.562763 -101.682184 
L 144.457012 -96.307097 
L 141.35126 -93.444489 
L 138.245509 -91.294484 
L 135.139758 -87.49878 
L 132.034006 -80.802469 
L 128.928255 -70.499279 
L 125.822503 -58.169442 
L 122.716752 -48.44989 
L 119.611001 -45.738195 
L 116.505249 -51.514294 
L 113.399498 -63.634038 
L 110.293747 -78.552623 
L 107.187995 -92.050729 
L 104.082244 -101.390733 
L 100.976492 -108.634002 
L 97.870741 -113.898541 
L 94.76499 -115.431882 
L 91.659238 -117.022762 
L 88.553487 -120.696269 
L 85.447735 -124.382748 
L 82.341984 -126.542783 
L 79.236233 -128.832861 
L 76.130481 -128.874397 
L 73.02473 -127.493609 
L 69.918978 -124.173681 
L 66.813227 -121.666296 
L 63.707476 -118.592088 
L 60.601724 -118.63698 
L 57.495973 -119.708081 
L 54.390221 -121.30368 
L 51.28447 -121.361914 
L 48.178719 -121.886122 
L 45.072967 -122.404795 
L 41.967216 -121.481813 
z
" style="stroke: #ffc0cb; stroke-opacity: 0.3"/>
    </defs>
    <g clip-path="url(#p0def0327dc)">
     <use xlink:href="#m550af7affa" x="0" y="158.989187" style="fill: #ffc0cb; fill-opacity: 0.3; stroke: #ffc0cb; stroke-opacity: 0.3"/>
    </g>
   </g>
   <g id="PolyCollection_3">
    <defs>
     <path id="m6017ae000b" d="M 41.967216 -109.862787 
L 41.967216 -109.435093 
L 45.072967 -109.950895 
L 48.178719 -110.65418 
L 51.28447 -111.347672 
L 54.390221 -112.217825 
L 57.495973 -112.36032 
L 60.601724 -113.733395 
L 63.707476 -115.01817 
L 66.813227 -116.792871 
L 69.918978 -119.370585 
L 73.02473 -121.547605 
L 76.130481 -122.834165 
L 79.236233 -124.040068 
L 82.341984 -121.971509 
L 85.447735 -118.788066 
L 88.553487 -113.554628 
L 91.659238 -109.158003 
L 94.76499 -106.535088 
L 97.870741 -105.522725 
L 100.976492 -104.63788 
L 104.082244 -100.649976 
L 107.187995 -90.607876 
L 110.293747 -77.307661 
L 113.399498 -63.721527 
L 116.505249 -53.306689 
L 119.611001 -48.03047 
L 122.716752 -49.363722 
L 125.822503 -57.96602 
L 128.928255 -70.272824 
L 132.034006 -81.481692 
L 135.139758 -88.508912 
L 138.245509 -92.473781 
L 141.35126 -94.472413 
L 144.457012 -96.112347 
L 147.562763 -98.523484 
L 150.668515 -103.434854 
L 153.774266 -108.454452 
L 156.880017 -114.279439 
L 159.985769 -117.756147 
L 163.09152 -120.948934 
L 166.197272 -123.01988 
L 169.303023 -125.610809 
L 172.408774 -126.249731 
L 175.514526 -124.68979 
L 178.620277 -121.945588 
L 181.726029 -119.717384 
L 184.83178 -118.478182 
L 187.937531 -117.349037 
L 191.043283 -115.406609 
L 194.149034 -115.815462 
L 194.149034 -116.285369 
L 194.149034 -116.285369 
L 191.043283 -119.563465 
L 187.937531 -120.420084 
L 184.83178 -122.272665 
L 181.726029 -124.1417 
L 178.620277 -125.966283 
L 175.514526 -126.365934 
L 172.408774 -127.398184 
L 169.303023 -126.495964 
L 166.197272 -125.888707 
L 163.09152 -123.087565 
L 159.985769 -118.815185 
L 156.880017 -114.797662 
L 153.774266 -111.022137 
L 150.668515 -108.296266 
L 147.562763 -104.667898 
L 144.457012 -100.590788 
L 141.35126 -98.388116 
L 138.245509 -96.007296 
L 135.139758 -93.206303 
L 132.034006 -86.725242 
L 128.928255 -77.931034 
L 125.822503 -67.378916 
L 122.716752 -56.779962 
L 119.611001 -51.026714 
L 116.505249 -55.601782 
L 113.399498 -67.937246 
L 110.293747 -82.852373 
L 107.187995 -95.448931 
L 104.082244 -104.379669 
L 100.976492 -108.786364 
L 97.870741 -111.820037 
L 94.76499 -113.075036 
L 91.659238 -116.519045 
L 88.553487 -119.776923 
L 85.447735 -122.025813 
L 82.341984 -124.735679 
L 79.236233 -125.027604 
L 76.130481 -124.752964 
L 73.02473 -122.210802 
L 69.918978 -120.053396 
L 66.813227 -118.269309 
L 63.707476 -115.621343 
L 60.601724 -114.143203 
L 57.495973 -113.547403 
L 54.390221 -112.862158 
L 51.28447 -112.393076 
L 48.178719 -111.283347 
L 45.072967 -110.436738 
L 41.967216 -109.862787 
z
" style="stroke: #ffa500; stroke-opacity: 0.3"/>
    </defs>
    <g clip-path="url(#p0def0327dc)">
     <use xlink:href="#m6017ae000b" x="0" y="158.989187" style="fill: #ffa500; fill-opacity: 0.3; stroke: #ffa500; stroke-opacity: 0.3"/>
    </g>
   </g>
   <g id="matplotlib.axis_1">
    <g id="xtick_1">
     <g id="line2d_1">
      <defs>
       <path id="mb1473b732c" d="M 0 0 
L 0 3.85 
" style="stroke: #000000; stroke-width: 0.5"/>
      </defs>
      <g>
       <use xlink:href="#mb1473b732c" x="41.967216" y="129.321375" style="stroke: #000000; stroke-width: 0.5"/>
      </g>
     </g>
     <g id="text_1">
      <!-- 0 -->
      <g transform="translate(40.298935 140.966062) scale(0.06 -0.06)">
       <defs>
        <path id="ArialMT-30" d="M 266 2259 
Q 266 3072 433 3567 
Q 600 4063 929 4331 
Q 1259 4600 1759 4600 
Q 2128 4600 2406 4451 
Q 2684 4303 2865 4023 
Q 3047 3744 3150 3342 
Q 3253 2941 3253 2259 
Q 3253 1453 3087 958 
Q 2922 463 2592 192 
Q 2263 -78 1759 -78 
Q 1097 -78 719 397 
Q 266 969 266 2259 
z
M 844 2259 
Q 844 1131 1108 757 
Q 1372 384 1759 384 
Q 2147 384 2411 759 
Q 2675 1134 2675 2259 
Q 2675 3391 2411 3762 
Q 2147 4134 1753 4134 
Q 1366 4134 1134 3806 
Q 844 3388 844 2259 
z
" transform="scale(0.015625)"/>
       </defs>
       <use xlink:href="#ArialMT-30"/>
      </g>
     </g>
    </g>
    <g id="xtick_2">
     <g id="line2d_2">
      <g>
       <use xlink:href="#mb1473b732c" x="73.02473" y="129.321375" style="stroke: #000000; stroke-width: 0.5"/>
      </g>
     </g>
     <g id="text_2">
      <!-- 10 -->
      <g transform="translate(69.688167 140.966062) scale(0.06 -0.06)">
       <defs>
        <path id="ArialMT-31" d="M 2384 0 
L 1822 0 
L 1822 3584 
Q 1619 3391 1289 3197 
Q 959 3003 697 2906 
L 697 3450 
Q 1169 3672 1522 3987 
Q 1875 4303 2022 4600 
L 2384 4600 
L 2384 0 
z
" transform="scale(0.015625)"/>
       </defs>
       <use xlink:href="#ArialMT-31"/>
       <use xlink:href="#ArialMT-30" x="55.615234"/>
      </g>
     </g>
    </g>
    <g id="xtick_3">
     <g id="line2d_3">
      <g>
       <use xlink:href="#mb1473b732c" x="104.082244" y="129.321375" style="stroke: #000000; stroke-width: 0.5"/>
      </g>
     </g>
     <g id="text_3">
      <!-- 20 -->
      <g transform="translate(100.745681 140.966062) scale(0.06 -0.06)">
       <defs>
        <path id="ArialMT-32" d="M 3222 541 
L 3222 0 
L 194 0 
Q 188 203 259 391 
Q 375 700 629 1000 
Q 884 1300 1366 1694 
Q 2113 2306 2375 2664 
Q 2638 3022 2638 3341 
Q 2638 3675 2398 3904 
Q 2159 4134 1775 4134 
Q 1369 4134 1125 3890 
Q 881 3647 878 3216 
L 300 3275 
Q 359 3922 746 4261 
Q 1134 4600 1788 4600 
Q 2447 4600 2831 4234 
Q 3216 3869 3216 3328 
Q 3216 3053 3103 2787 
Q 2991 2522 2730 2228 
Q 2469 1934 1863 1422 
Q 1356 997 1212 845 
Q 1069 694 975 541 
L 3222 541 
z
" transform="scale(0.015625)"/>
       </defs>
       <use xlink:href="#ArialMT-32"/>
       <use xlink:href="#ArialMT-30" x="55.615234"/>
      </g>
     </g>
    </g>
    <g id="xtick_4">
     <g id="line2d_4">
      <g>
       <use xlink:href="#mb1473b732c" x="135.139758" y="129.321375" style="stroke: #000000; stroke-width: 0.5"/>
      </g>
     </g>
     <g id="text_4">
      <!-- 30 -->
      <g transform="translate(131.803195 140.966062) scale(0.06 -0.06)">
       <defs>
        <path id="ArialMT-33" d="M 269 1209 
L 831 1284 
Q 928 806 1161 595 
Q 1394 384 1728 384 
Q 2125 384 2398 659 
Q 2672 934 2672 1341 
Q 2672 1728 2419 1979 
Q 2166 2231 1775 2231 
Q 1616 2231 1378 2169 
L 1441 2663 
Q 1497 2656 1531 2656 
Q 1891 2656 2178 2843 
Q 2466 3031 2466 3422 
Q 2466 3731 2256 3934 
Q 2047 4138 1716 4138 
Q 1388 4138 1169 3931 
Q 950 3725 888 3313 
L 325 3413 
Q 428 3978 793 4289 
Q 1159 4600 1703 4600 
Q 2078 4600 2393 4439 
Q 2709 4278 2876 4000 
Q 3044 3722 3044 3409 
Q 3044 3113 2884 2869 
Q 2725 2625 2413 2481 
Q 2819 2388 3044 2092 
Q 3269 1797 3269 1353 
Q 3269 753 2831 336 
Q 2394 -81 1725 -81 
Q 1122 -81 723 278 
Q 325 638 269 1209 
z
" transform="scale(0.015625)"/>
       </defs>
       <use xlink:href="#ArialMT-33"/>
       <use xlink:href="#ArialMT-30" x="55.615234"/>
      </g>
     </g>
    </g>
    <g id="xtick_5">
     <g id="line2d_5">
      <g>
       <use xlink:href="#mb1473b732c" x="166.197272" y="129.321375" style="stroke: #000000; stroke-width: 0.5"/>
      </g>
     </g>
     <g id="text_5">
      <!-- 40 -->
      <g transform="translate(162.860709 140.966062) scale(0.06 -0.06)">
       <defs>
        <path id="ArialMT-34" d="M 2069 0 
L 2069 1097 
L 81 1097 
L 81 1613 
L 2172 4581 
L 2631 4581 
L 2631 1613 
L 3250 1613 
L 3250 1097 
L 2631 1097 
L 2631 0 
L 2069 0 
z
M 2069 1613 
L 2069 3678 
L 634 1613 
L 2069 1613 
z
" transform="scale(0.015625)"/>
       </defs>
       <use xlink:href="#ArialMT-34"/>
       <use xlink:href="#ArialMT-30" x="55.615234"/>
      </g>
     </g>
    </g>
    <g id="xtick_6">
     <g id="line2d_6">
      <g>
       <use xlink:href="#mb1473b732c" x="197.254785" y="129.321375" style="stroke: #000000; stroke-width: 0.5"/>
      </g>
     </g>
     <g id="text_6">
      <!-- 50 -->
      <g transform="translate(193.918223 140.966062) scale(0.06 -0.06)">
       <defs>
        <path id="ArialMT-35" d="M 266 1200 
L 856 1250 
Q 922 819 1161 601 
Q 1400 384 1738 384 
Q 2144 384 2425 690 
Q 2706 997 2706 1503 
Q 2706 1984 2436 2262 
Q 2166 2541 1728 2541 
Q 1456 2541 1237 2417 
Q 1019 2294 894 2097 
L 366 2166 
L 809 4519 
L 3088 4519 
L 3088 3981 
L 1259 3981 
L 1013 2750 
Q 1425 3038 1878 3038 
Q 2478 3038 2890 2622 
Q 3303 2206 3303 1553 
Q 3303 931 2941 478 
Q 2500 -78 1738 -78 
Q 1113 -78 717 272 
Q 322 622 266 1200 
z
" transform="scale(0.015625)"/>
       </defs>
       <use xlink:href="#ArialMT-35"/>
       <use xlink:href="#ArialMT-30" x="55.615234"/>
      </g>
     </g>
    </g>
    <g id="text_7">
     <!-- Time (ms) -->
     <g transform="translate(104.674375 150.526375) scale(0.06 -0.06)">
      <defs>
       <path id="ArialMT-54" d="M 1659 0 
L 1659 4041 
L 150 4041 
L 150 4581 
L 3781 4581 
L 3781 4041 
L 2266 4041 
L 2266 0 
L 1659 0 
z
" transform="scale(0.015625)"/>
       <path id="ArialMT-69" d="M 425 3934 
L 425 4581 
L 988 4581 
L 988 3934 
L 425 3934 
z
M 425 0 
L 425 3319 
L 988 3319 
L 988 0 
L 425 0 
z
" transform="scale(0.015625)"/>
       <path id="ArialMT-6d" d="M 422 0 
L 422 3319 
L 925 3319 
L 925 2853 
Q 1081 3097 1340 3245 
Q 1600 3394 1931 3394 
Q 2300 3394 2536 3241 
Q 2772 3088 2869 2813 
Q 3263 3394 3894 3394 
Q 4388 3394 4653 3120 
Q 4919 2847 4919 2278 
L 4919 0 
L 4359 0 
L 4359 2091 
Q 4359 2428 4304 2576 
Q 4250 2725 4106 2815 
Q 3963 2906 3769 2906 
Q 3419 2906 3187 2673 
Q 2956 2441 2956 1928 
L 2956 0 
L 2394 0 
L 2394 2156 
Q 2394 2531 2256 2718 
Q 2119 2906 1806 2906 
Q 1569 2906 1367 2781 
Q 1166 2656 1075 2415 
Q 984 2175 984 1722 
L 984 0 
L 422 0 
z
" transform="scale(0.015625)"/>
       <path id="ArialMT-65" d="M 2694 1069 
L 3275 997 
Q 3138 488 2766 206 
Q 2394 -75 1816 -75 
Q 1088 -75 661 373 
Q 234 822 234 1631 
Q 234 2469 665 2931 
Q 1097 3394 1784 3394 
Q 2450 3394 2872 2941 
Q 3294 2488 3294 1666 
Q 3294 1616 3291 1516 
L 816 1516 
Q 847 969 1125 678 
Q 1403 388 1819 388 
Q 2128 388 2347 550 
Q 2566 713 2694 1069 
z
M 847 1978 
L 2700 1978 
Q 2663 2397 2488 2606 
Q 2219 2931 1791 2931 
Q 1403 2931 1139 2672 
Q 875 2413 847 1978 
z
" transform="scale(0.015625)"/>
       <path id="ArialMT-20" transform="scale(0.015625)"/>
       <path id="ArialMT-28" d="M 1497 -1347 
Q 1031 -759 709 28 
Q 388 816 388 1659 
Q 388 2403 628 3084 
Q 909 3875 1497 4659 
L 1900 4659 
Q 1522 4009 1400 3731 
Q 1209 3300 1100 2831 
Q 966 2247 966 1656 
Q 966 153 1900 -1347 
L 1497 -1347 
z
" transform="scale(0.015625)"/>
       <path id="ArialMT-73" d="M 197 991 
L 753 1078 
Q 800 744 1014 566 
Q 1228 388 1613 388 
Q 2000 388 2187 545 
Q 2375 703 2375 916 
Q 2375 1106 2209 1216 
Q 2094 1291 1634 1406 
Q 1016 1563 777 1677 
Q 538 1791 414 1992 
Q 291 2194 291 2438 
Q 291 2659 392 2848 
Q 494 3038 669 3163 
Q 800 3259 1026 3326 
Q 1253 3394 1513 3394 
Q 1903 3394 2198 3281 
Q 2494 3169 2634 2976 
Q 2775 2784 2828 2463 
L 2278 2388 
Q 2241 2644 2061 2787 
Q 1881 2931 1553 2931 
Q 1166 2931 1000 2803 
Q 834 2675 834 2503 
Q 834 2394 903 2306 
Q 972 2216 1119 2156 
Q 1203 2125 1616 2013 
Q 2213 1853 2448 1751 
Q 2684 1650 2818 1456 
Q 2953 1263 2953 975 
Q 2953 694 2789 445 
Q 2625 197 2315 61 
Q 2006 -75 1616 -75 
Q 969 -75 630 194 
Q 291 463 197 991 
z
" transform="scale(0.015625)"/>
       <path id="ArialMT-29" d="M 791 -1347 
L 388 -1347 
Q 1322 153 1322 1656 
Q 1322 2244 1188 2822 
Q 1081 3291 891 3722 
Q 769 4003 388 4659 
L 791 4659 
Q 1378 3875 1659 3084 
Q 1900 2403 1900 1659 
Q 1900 816 1576 28 
Q 1253 -759 791 -1347 
z
" transform="scale(0.015625)"/>
      </defs>
      <use xlink:href="#ArialMT-54"/>
      <use xlink:href="#ArialMT-69" x="57.333984"/>
      <use xlink:href="#ArialMT-6d" x="79.550781"/>
      <use xlink:href="#ArialMT-65" x="162.851562"/>
      <use xlink:href="#ArialMT-20" x="218.466797"/>
      <use xlink:href="#ArialMT-28" x="246.25"/>
      <use xlink:href="#ArialMT-6d" x="279.550781"/>
      <use xlink:href="#ArialMT-73" x="362.851562"/>
      <use xlink:href="#ArialMT-29" x="412.851562"/>
     </g>
    </g>
   </g>
   <g id="matplotlib.axis_2">
    <g id="ytick_1">
     <g id="line2d_7">
      <defs>
       <path id="mcd337e04b3" d="M 0 0 
L -3.85 0 
" style="stroke: #000000; stroke-width: 0.5"/>
      </defs>
      <g>
       <use xlink:href="#mcd337e04b3" x="34.358125" y="123.911945" style="stroke: #000000; stroke-width: 0.5"/>
      </g>
     </g>
     <g id="text_8">
      <!-- −30 -->
      <g transform="translate(16.830625 126.059289) scale(0.06 -0.06)">
       <defs>
        <path id="ArialMT-2212" d="M 3381 1997 
L 356 1997 
L 356 2522 
L 3381 2522 
L 3381 1997 
z
" transform="scale(0.015625)"/>
       </defs>
       <use xlink:href="#ArialMT-2212"/>
       <use xlink:href="#ArialMT-33" x="58.398438"/>
       <use xlink:href="#ArialMT-30" x="114.013672"/>
      </g>
     </g>
    </g>
    <g id="ytick_2">
     <g id="line2d_8">
      <g>
       <use xlink:href="#mcd337e04b3" x="34.358125" y="100.7545" style="stroke: #000000; stroke-width: 0.5"/>
      </g>
     </g>
     <g id="text_9">
      <!-- −20 -->
      <g transform="translate(16.830625 102.901843) scale(0.06 -0.06)">
       <use xlink:href="#ArialMT-2212"/>
       <use xlink:href="#ArialMT-32" x="58.398438"/>
       <use xlink:href="#ArialMT-30" x="114.013672"/>
      </g>
     </g>
    </g>
    <g id="ytick_3">
     <g id="line2d_9">
      <g>
       <use xlink:href="#mcd337e04b3" x="34.358125" y="77.597054" style="stroke: #000000; stroke-width: 0.5"/>
      </g>
     </g>
     <g id="text_10">
      <!-- −10 -->
      <g transform="translate(16.830625 79.744398) scale(0.06 -0.06)">
       <use xlink:href="#ArialMT-2212"/>
       <use xlink:href="#ArialMT-31" x="58.398438"/>
       <use xlink:href="#ArialMT-30" x="114.013672"/>
      </g>
     </g>
    </g>
    <g id="ytick_4">
     <g id="line2d_10">
      <g>
       <use xlink:href="#mcd337e04b3" x="34.358125" y="54.439609" style="stroke: #000000; stroke-width: 0.5"/>
      </g>
     </g>
     <g id="text_11">
      <!-- 0 -->
      <g transform="translate(23.671563 56.586953) scale(0.06 -0.06)">
       <use xlink:href="#ArialMT-30"/>
      </g>
     </g>
    </g>
    <g id="ytick_5">
     <g id="line2d_11">
      <g>
       <use xlink:href="#mcd337e04b3" x="34.358125" y="31.282163" style="stroke: #000000; stroke-width: 0.5"/>
      </g>
     </g>
     <g id="text_12">
      <!-- 10 -->
      <g transform="translate(20.335 33.429507) scale(0.06 -0.06)">
       <use xlink:href="#ArialMT-31"/>
       <use xlink:href="#ArialMT-30" x="55.615234"/>
      </g>
     </g>
    </g>
    <g id="text_13">
     <!-- Voltage (uV) -->
     <g transform="translate(11.567812 90.391219) rotate(-90) scale(0.06 -0.06)">
      <defs>
       <path id="ArialMT-56" d="M 1803 0 
L 28 4581 
L 684 4581 
L 1875 1253 
Q 2019 853 2116 503 
Q 2222 878 2363 1253 
L 3600 4581 
L 4219 4581 
L 2425 0 
L 1803 0 
z
" transform="scale(0.015625)"/>
       <path id="ArialMT-6f" d="M 213 1659 
Q 213 2581 725 3025 
Q 1153 3394 1769 3394 
Q 2453 3394 2887 2945 
Q 3322 2497 3322 1706 
Q 3322 1066 3130 698 
Q 2938 331 2570 128 
Q 2203 -75 1769 -75 
Q 1072 -75 642 372 
Q 213 819 213 1659 
z
M 791 1659 
Q 791 1022 1069 705 
Q 1347 388 1769 388 
Q 2188 388 2466 706 
Q 2744 1025 2744 1678 
Q 2744 2294 2464 2611 
Q 2184 2928 1769 2928 
Q 1347 2928 1069 2612 
Q 791 2297 791 1659 
z
" transform="scale(0.015625)"/>
       <path id="ArialMT-6c" d="M 409 0 
L 409 4581 
L 972 4581 
L 972 0 
L 409 0 
z
" transform="scale(0.015625)"/>
       <path id="ArialMT-74" d="M 1650 503 
L 1731 6 
Q 1494 -44 1306 -44 
Q 1000 -44 831 53 
Q 663 150 594 308 
Q 525 466 525 972 
L 525 2881 
L 113 2881 
L 113 3319 
L 525 3319 
L 525 4141 
L 1084 4478 
L 1084 3319 
L 1650 3319 
L 1650 2881 
L 1084 2881 
L 1084 941 
Q 1084 700 1114 631 
Q 1144 563 1211 522 
Q 1278 481 1403 481 
Q 1497 481 1650 503 
z
" transform="scale(0.015625)"/>
       <path id="ArialMT-61" d="M 2588 409 
Q 2275 144 1986 34 
Q 1697 -75 1366 -75 
Q 819 -75 525 192 
Q 231 459 231 875 
Q 231 1119 342 1320 
Q 453 1522 633 1644 
Q 813 1766 1038 1828 
Q 1203 1872 1538 1913 
Q 2219 1994 2541 2106 
Q 2544 2222 2544 2253 
Q 2544 2597 2384 2738 
Q 2169 2928 1744 2928 
Q 1347 2928 1158 2789 
Q 969 2650 878 2297 
L 328 2372 
Q 403 2725 575 2942 
Q 747 3159 1072 3276 
Q 1397 3394 1825 3394 
Q 2250 3394 2515 3294 
Q 2781 3194 2906 3042 
Q 3031 2891 3081 2659 
Q 3109 2516 3109 2141 
L 3109 1391 
Q 3109 606 3145 398 
Q 3181 191 3288 0 
L 2700 0 
Q 2613 175 2588 409 
z
M 2541 1666 
Q 2234 1541 1622 1453 
Q 1275 1403 1131 1340 
Q 988 1278 909 1158 
Q 831 1038 831 891 
Q 831 666 1001 516 
Q 1172 366 1500 366 
Q 1825 366 2078 508 
Q 2331 650 2450 897 
Q 2541 1088 2541 1459 
L 2541 1666 
z
" transform="scale(0.015625)"/>
       <path id="ArialMT-67" d="M 319 -275 
L 866 -356 
Q 900 -609 1056 -725 
Q 1266 -881 1628 -881 
Q 2019 -881 2231 -725 
Q 2444 -569 2519 -288 
Q 2563 -116 2559 434 
Q 2191 0 1641 0 
Q 956 0 581 494 
Q 206 988 206 1678 
Q 206 2153 378 2554 
Q 550 2956 876 3175 
Q 1203 3394 1644 3394 
Q 2231 3394 2613 2919 
L 2613 3319 
L 3131 3319 
L 3131 450 
Q 3131 -325 2973 -648 
Q 2816 -972 2473 -1159 
Q 2131 -1347 1631 -1347 
Q 1038 -1347 672 -1080 
Q 306 -813 319 -275 
z
M 784 1719 
Q 784 1066 1043 766 
Q 1303 466 1694 466 
Q 2081 466 2343 764 
Q 2606 1063 2606 1700 
Q 2606 2309 2336 2618 
Q 2066 2928 1684 2928 
Q 1309 2928 1046 2623 
Q 784 2319 784 1719 
z
" transform="scale(0.015625)"/>
       <path id="ArialMT-75" d="M 2597 0 
L 2597 488 
Q 2209 -75 1544 -75 
Q 1250 -75 995 37 
Q 741 150 617 320 
Q 494 491 444 738 
Q 409 903 409 1263 
L 409 3319 
L 972 3319 
L 972 1478 
Q 972 1038 1006 884 
Q 1059 663 1231 536 
Q 1403 409 1656 409 
Q 1909 409 2131 539 
Q 2353 669 2445 892 
Q 2538 1116 2538 1541 
L 2538 3319 
L 3100 3319 
L 3100 0 
L 2597 0 
z
" transform="scale(0.015625)"/>
      </defs>
      <use xlink:href="#ArialMT-56"/>
      <use xlink:href="#ArialMT-6f" x="61.199219"/>
      <use xlink:href="#ArialMT-6c" x="116.814453"/>
      <use xlink:href="#ArialMT-74" x="139.03125"/>
      <use xlink:href="#ArialMT-61" x="166.814453"/>
      <use xlink:href="#ArialMT-67" x="222.429688"/>
      <use xlink:href="#ArialMT-65" x="278.044922"/>
      <use xlink:href="#ArialMT-20" x="333.660156"/>
      <use xlink:href="#ArialMT-28" x="361.443359"/>
      <use xlink:href="#ArialMT-75" x="394.744141"/>
      <use xlink:href="#ArialMT-56" x="450.359375"/>
      <use xlink:href="#ArialMT-29" x="517.058594"/>
     </g>
    </g>
   </g>
   <g id="line2d_12">
    <path d="M 41.967216 49.545901 
L 45.072967 49.299618 
L 48.178719 48.721329 
L 51.28447 47.864786 
L 54.390221 46.898586 
L 57.495973 45.499647 
L 60.601724 44.391751 
L 63.707476 43.595747 
L 66.813227 43.260159 
L 69.918978 42.356269 
L 73.02473 40.304814 
L 76.130481 37.613673 
L 79.236233 34.344776 
L 82.341984 31.7586 
L 85.447735 31.155375 
L 88.553487 33.113892 
L 91.659238 35.886137 
L 94.76499 38.534744 
L 97.870741 39.921718 
L 100.976492 42.888954 
L 104.082244 49.099032 
L 107.187995 61.062343 
L 110.293747 78.721777 
L 113.399498 96.846844 
L 116.505249 111.25508 
L 119.611001 116.220352 
L 122.716752 111.748509 
L 125.822503 100.039946 
L 128.928255 86.738668 
L 132.034006 76.771145 
L 135.139758 71.423619 
L 138.245509 69.47977 
L 141.35126 68.32579 
L 144.457012 65.991481 
L 147.562763 62.838298 
L 150.668515 58.210132 
L 153.774266 53.463599 
L 156.880017 48.261641 
L 159.985769 43.568136 
L 163.09152 38.885733 
L 166.197272 35.213969 
L 169.303023 33.181453 
L 172.408774 32.188664 
L 175.514526 33.506977 
L 178.620277 34.722812 
L 181.726029 36.80601 
L 184.83178 37.907406 
L 187.937531 39.453874 
L 191.043283 40.50082 
L 194.149034 42.059898 
" clip-path="url(#p0def0327dc)" style="fill: none; stroke: #000000; stroke-width: 2; stroke-linecap: square"/>
   </g>
   <g id="line2d_13">
    <path d="M 41.967216 43.904584 
L 45.072967 43.24361 
L 48.178719 43.385655 
L 51.28447 42.828946 
L 54.390221 42.242327 
L 57.495973 42.130838 
L 60.601724 41.143719 
L 63.707476 40.539309 
L 66.813227 39.321662 
L 69.918978 37.375584 
L 73.02473 34.988301 
L 76.130481 32.877657 
L 79.236233 31.647057 
L 82.341984 32.700173 
L 85.447735 34.995169 
L 88.553487 38.891652 
L 91.659238 42.086669 
L 94.76499 45.057287 
L 97.870741 47.486301 
L 100.976492 51.621947 
L 104.082244 59.567866 
L 107.187995 71.781232 
L 110.293747 87.983263 
L 113.399498 104.399087 
L 116.505249 115.631217 
L 119.611001 118.766184 
L 122.716752 113.356899 
L 125.822503 101.884223 
L 128.928255 88.941414 
L 132.034006 78.334399 
L 135.139758 71.705222 
L 138.245509 68.237478 
L 141.35126 65.586442 
L 144.457012 62.771616 
L 147.562763 58.491787 
L 150.668515 52.6926 
L 153.774266 46.558537 
L 156.880017 40.55881 
L 159.985769 35.910143 
L 163.09152 32.505667 
L 166.197272 30.232374 
L 169.303023 29.136747 
L 172.408774 29.109784 
L 175.514526 30.888951 
L 178.620277 32.352998 
L 181.726029 34.348561 
L 184.83178 35.612091 
L 187.937531 37.363375 
L 191.043283 38.659913 
L 194.149034 40.881805 
" clip-path="url(#p0def0327dc)" style="fill: none; stroke: #ff0000; stroke-width: 2; stroke-linecap: square"/>
   </g>
   <g id="line2d_14">
    <path d="M 41.967216 49.340247 
L 45.072967 48.795371 
L 48.178719 48.020424 
L 51.28447 47.118813 
L 54.390221 46.449196 
L 57.495973 46.035326 
L 60.601724 45.050888 
L 63.707476 43.669431 
L 66.813227 41.458097 
L 69.918978 39.277197 
L 73.02473 37.109984 
L 76.130481 35.195623 
L 79.236233 34.455352 
L 82.341984 35.635593 
L 85.447735 38.582248 
L 88.553487 42.323412 
L 91.659238 46.150664 
L 94.76499 49.184125 
L 97.870741 50.317806 
L 100.976492 52.277066 
L 104.082244 56.474365 
L 107.187995 65.960784 
L 110.293747 78.90917 
L 113.399498 93.159801 
L 116.505249 104.534952 
L 119.611001 109.460595 
L 122.716752 105.917346 
L 125.822503 96.316719 
L 128.928255 84.887258 
L 132.034006 74.88572 
L 135.139758 68.13158 
L 138.245509 64.748649 
L 141.35126 62.558923 
L 144.457012 60.63762 
L 147.562763 57.393497 
L 150.668515 53.123627 
L 153.774266 49.250893 
L 156.880017 44.450637 
L 159.985769 40.703522 
L 163.09152 36.970938 
L 166.197272 34.534894 
L 169.303023 32.935801 
L 172.408774 32.16523 
L 175.514526 33.461325 
L 178.620277 35.033252 
L 181.726029 37.059645 
L 184.83178 38.613764 
L 187.937531 40.104627 
L 191.043283 41.50415 
L 194.149034 42.938772 
" clip-path="url(#p0def0327dc)" style="fill: none; stroke: #ffa500; stroke-width: 2; stroke-linecap: square"/>
   </g>
   <g id="patch_3">
    <path d="M 34.358125 129.321375 
L 34.358125 18.441375 
" style="fill: none; stroke: #000000; stroke-width: 0.5; stroke-linejoin: miter; stroke-linecap: square"/>
   </g>
   <g id="patch_4">
    <path d="M 201.758125 129.321375 
L 201.758125 18.441375 
" style="fill: none; stroke: #000000; stroke-width: 0.5; stroke-linejoin: miter; stroke-linecap: square"/>
   </g>
   <g id="patch_5">
    <path d="M 34.358125 129.321375 
L 201.758125 129.321375 
" style="fill: none; stroke: #000000; stroke-width: 0.5; stroke-linejoin: miter; stroke-linecap: square"/>
   </g>
   <g id="text_14">
    <!-- unit:2873667 | #burst:2 | mtype:L4_LBC | etype:cACint -->
    <g transform="translate(31.205875 12.441375) scale(0.072 -0.072)">
     <defs>
      <path id="ArialMT-6e" d="M 422 0 
L 422 3319 
L 928 3319 
L 928 2847 
Q 1294 3394 1984 3394 
Q 2284 3394 2536 3286 
Q 2788 3178 2913 3003 
Q 3038 2828 3088 2588 
Q 3119 2431 3119 2041 
L 3119 0 
L 2556 0 
L 2556 2019 
Q 2556 2363 2490 2533 
Q 2425 2703 2258 2804 
Q 2091 2906 1866 2906 
Q 1506 2906 1245 2678 
Q 984 2450 984 1813 
L 984 0 
L 422 0 
z
" transform="scale(0.015625)"/>
      <path id="ArialMT-3a" d="M 578 2678 
L 578 3319 
L 1219 3319 
L 1219 2678 
L 578 2678 
z
M 578 0 
L 578 641 
L 1219 641 
L 1219 0 
L 578 0 
z
" transform="scale(0.015625)"/>
      <path id="ArialMT-38" d="M 1131 2484 
Q 781 2613 612 2850 
Q 444 3088 444 3419 
Q 444 3919 803 4259 
Q 1163 4600 1759 4600 
Q 2359 4600 2725 4251 
Q 3091 3903 3091 3403 
Q 3091 3084 2923 2848 
Q 2756 2613 2416 2484 
Q 2838 2347 3058 2040 
Q 3278 1734 3278 1309 
Q 3278 722 2862 322 
Q 2447 -78 1769 -78 
Q 1091 -78 675 323 
Q 259 725 259 1325 
Q 259 1772 486 2073 
Q 713 2375 1131 2484 
z
M 1019 3438 
Q 1019 3113 1228 2906 
Q 1438 2700 1772 2700 
Q 2097 2700 2305 2904 
Q 2513 3109 2513 3406 
Q 2513 3716 2298 3927 
Q 2084 4138 1766 4138 
Q 1444 4138 1231 3931 
Q 1019 3725 1019 3438 
z
M 838 1322 
Q 838 1081 952 856 
Q 1066 631 1291 507 
Q 1516 384 1775 384 
Q 2178 384 2440 643 
Q 2703 903 2703 1303 
Q 2703 1709 2433 1975 
Q 2163 2241 1756 2241 
Q 1359 2241 1098 1978 
Q 838 1716 838 1322 
z
" transform="scale(0.015625)"/>
      <path id="ArialMT-37" d="M 303 3981 
L 303 4522 
L 3269 4522 
L 3269 4084 
Q 2831 3619 2401 2847 
Q 1972 2075 1738 1259 
Q 1569 684 1522 0 
L 944 0 
Q 953 541 1156 1306 
Q 1359 2072 1739 2783 
Q 2119 3494 2547 3981 
L 303 3981 
z
" transform="scale(0.015625)"/>
      <path id="ArialMT-36" d="M 3184 3459 
L 2625 3416 
Q 2550 3747 2413 3897 
Q 2184 4138 1850 4138 
Q 1581 4138 1378 3988 
Q 1113 3794 959 3422 
Q 806 3050 800 2363 
Q 1003 2672 1297 2822 
Q 1591 2972 1913 2972 
Q 2475 2972 2870 2558 
Q 3266 2144 3266 1488 
Q 3266 1056 3080 686 
Q 2894 316 2569 119 
Q 2244 -78 1831 -78 
Q 1128 -78 684 439 
Q 241 956 241 2144 
Q 241 3472 731 4075 
Q 1159 4600 1884 4600 
Q 2425 4600 2770 4297 
Q 3116 3994 3184 3459 
z
M 888 1484 
Q 888 1194 1011 928 
Q 1134 663 1356 523 
Q 1578 384 1822 384 
Q 2178 384 2434 671 
Q 2691 959 2691 1453 
Q 2691 1928 2437 2201 
Q 2184 2475 1800 2475 
Q 1419 2475 1153 2201 
Q 888 1928 888 1484 
z
" transform="scale(0.015625)"/>
      <path id="ArialMT-7c" d="M 588 -1347 
L 588 4659 
L 1078 4659 
L 1078 -1347 
L 588 -1347 
z
" transform="scale(0.015625)"/>
      <path id="ArialMT-23" d="M 322 -78 
L 594 1253 
L 66 1253 
L 66 1719 
L 688 1719 
L 919 2853 
L 66 2853 
L 66 3319 
L 1013 3319 
L 1284 4659 
L 1753 4659 
L 1481 3319 
L 2466 3319 
L 2738 4659 
L 3209 4659 
L 2938 3319 
L 3478 3319 
L 3478 2853 
L 2844 2853 
L 2609 1719 
L 3478 1719 
L 3478 1253 
L 2516 1253 
L 2244 -78 
L 1775 -78 
L 2044 1253 
L 1063 1253 
L 791 -78 
L 322 -78 
z
M 1156 1719 
L 2138 1719 
L 2372 2853 
L 1388 2853 
L 1156 1719 
z
" transform="scale(0.015625)"/>
      <path id="ArialMT-62" d="M 941 0 
L 419 0 
L 419 4581 
L 981 4581 
L 981 2947 
Q 1338 3394 1891 3394 
Q 2197 3394 2470 3270 
Q 2744 3147 2920 2923 
Q 3097 2700 3197 2384 
Q 3297 2069 3297 1709 
Q 3297 856 2875 390 
Q 2453 -75 1863 -75 
Q 1275 -75 941 416 
L 941 0 
z
M 934 1684 
Q 934 1088 1097 822 
Q 1363 388 1816 388 
Q 2184 388 2453 708 
Q 2722 1028 2722 1663 
Q 2722 2313 2464 2622 
Q 2206 2931 1841 2931 
Q 1472 2931 1203 2611 
Q 934 2291 934 1684 
z
" transform="scale(0.015625)"/>
      <path id="ArialMT-72" d="M 416 0 
L 416 3319 
L 922 3319 
L 922 2816 
Q 1116 3169 1280 3281 
Q 1444 3394 1641 3394 
Q 1925 3394 2219 3213 
L 2025 2691 
Q 1819 2813 1613 2813 
Q 1428 2813 1281 2702 
Q 1134 2591 1072 2394 
Q 978 2094 978 1738 
L 978 0 
L 416 0 
z
" transform="scale(0.015625)"/>
      <path id="ArialMT-79" d="M 397 -1278 
L 334 -750 
Q 519 -800 656 -800 
Q 844 -800 956 -737 
Q 1069 -675 1141 -563 
Q 1194 -478 1313 -144 
Q 1328 -97 1363 -6 
L 103 3319 
L 709 3319 
L 1400 1397 
Q 1534 1031 1641 628 
Q 1738 1016 1872 1384 
L 2581 3319 
L 3144 3319 
L 1881 -56 
Q 1678 -603 1566 -809 
Q 1416 -1088 1222 -1217 
Q 1028 -1347 759 -1347 
Q 597 -1347 397 -1278 
z
" transform="scale(0.015625)"/>
      <path id="ArialMT-70" d="M 422 -1272 
L 422 3319 
L 934 3319 
L 934 2888 
Q 1116 3141 1344 3267 
Q 1572 3394 1897 3394 
Q 2322 3394 2647 3175 
Q 2972 2956 3137 2557 
Q 3303 2159 3303 1684 
Q 3303 1175 3120 767 
Q 2938 359 2589 142 
Q 2241 -75 1856 -75 
Q 1575 -75 1351 44 
Q 1128 163 984 344 
L 984 -1272 
L 422 -1272 
z
M 931 1641 
Q 931 1000 1190 694 
Q 1450 388 1819 388 
Q 2194 388 2461 705 
Q 2728 1022 2728 1688 
Q 2728 2322 2467 2637 
Q 2206 2953 1844 2953 
Q 1484 2953 1207 2617 
Q 931 2281 931 1641 
z
" transform="scale(0.015625)"/>
      <path id="ArialMT-4c" d="M 469 0 
L 469 4581 
L 1075 4581 
L 1075 541 
L 3331 541 
L 3331 0 
L 469 0 
z
" transform="scale(0.015625)"/>
      <path id="ArialMT-5f" d="M -97 -1272 
L -97 -866 
L 3631 -866 
L 3631 -1272 
L -97 -1272 
z
" transform="scale(0.015625)"/>
      <path id="ArialMT-42" d="M 469 0 
L 469 4581 
L 2188 4581 
Q 2713 4581 3030 4442 
Q 3347 4303 3526 4014 
Q 3706 3725 3706 3409 
Q 3706 3116 3547 2856 
Q 3388 2597 3066 2438 
Q 3481 2316 3704 2022 
Q 3928 1728 3928 1328 
Q 3928 1006 3792 729 
Q 3656 453 3456 303 
Q 3256 153 2954 76 
Q 2653 0 2216 0 
L 469 0 
z
M 1075 2656 
L 2066 2656 
Q 2469 2656 2644 2709 
Q 2875 2778 2992 2937 
Q 3109 3097 3109 3338 
Q 3109 3566 3000 3739 
Q 2891 3913 2687 3977 
Q 2484 4041 1991 4041 
L 1075 4041 
L 1075 2656 
z
M 1075 541 
L 2216 541 
Q 2509 541 2628 563 
Q 2838 600 2978 687 
Q 3119 775 3209 942 
Q 3300 1109 3300 1328 
Q 3300 1584 3169 1773 
Q 3038 1963 2805 2039 
Q 2572 2116 2134 2116 
L 1075 2116 
L 1075 541 
z
" transform="scale(0.015625)"/>
      <path id="ArialMT-43" d="M 3763 1606 
L 4369 1453 
Q 4178 706 3683 314 
Q 3188 -78 2472 -78 
Q 1731 -78 1267 223 
Q 803 525 561 1097 
Q 319 1669 319 2325 
Q 319 3041 592 3573 
Q 866 4106 1370 4382 
Q 1875 4659 2481 4659 
Q 3169 4659 3637 4309 
Q 4106 3959 4291 3325 
L 3694 3184 
Q 3534 3684 3231 3912 
Q 2928 4141 2469 4141 
Q 1941 4141 1586 3887 
Q 1231 3634 1087 3207 
Q 944 2781 944 2328 
Q 944 1744 1114 1308 
Q 1284 872 1643 656 
Q 2003 441 2422 441 
Q 2931 441 3284 734 
Q 3638 1028 3763 1606 
z
" transform="scale(0.015625)"/>
      <path id="ArialMT-63" d="M 2588 1216 
L 3141 1144 
Q 3050 572 2676 248 
Q 2303 -75 1759 -75 
Q 1078 -75 664 370 
Q 250 816 250 1647 
Q 250 2184 428 2587 
Q 606 2991 970 3192 
Q 1334 3394 1763 3394 
Q 2303 3394 2647 3120 
Q 2991 2847 3088 2344 
L 2541 2259 
Q 2463 2594 2264 2762 
Q 2066 2931 1784 2931 
Q 1359 2931 1093 2626 
Q 828 2322 828 1663 
Q 828 994 1084 691 
Q 1341 388 1753 388 
Q 2084 388 2306 591 
Q 2528 794 2588 1216 
z
" transform="scale(0.015625)"/>
      <path id="ArialMT-41" d="M -9 0 
L 1750 4581 
L 2403 4581 
L 4278 0 
L 3588 0 
L 3053 1388 
L 1138 1388 
L 634 0 
L -9 0 
z
M 1313 1881 
L 2866 1881 
L 2388 3150 
Q 2169 3728 2063 4100 
Q 1975 3659 1816 3225 
L 1313 1881 
z
" transform="scale(0.015625)"/>
     </defs>
     <use xlink:href="#ArialMT-75"/>
     <use xlink:href="#ArialMT-6e" x="55.615234"/>
     <use xlink:href="#ArialMT-69" x="111.230469"/>
     <use xlink:href="#ArialMT-74" x="133.447266"/>
     <use xlink:href="#ArialMT-3a" x="161.230469"/>
     <use xlink:href="#ArialMT-32" x="189.013672"/>
     <use xlink:href="#ArialMT-38" x="244.628906"/>
     <use xlink:href="#ArialMT-37" x="300.244141"/>
     <use xlink:href="#ArialMT-33" x="355.859375"/>
     <use xlink:href="#ArialMT-36" x="411.474609"/>
     <use xlink:href="#ArialMT-36" x="467.089844"/>
     <use xlink:href="#ArialMT-37" x="522.705078"/>
     <use xlink:href="#ArialMT-20" x="578.320312"/>
     <use xlink:href="#ArialMT-7c" x="606.103516"/>
     <use xlink:href="#ArialMT-20" x="632.080078"/>
     <use xlink:href="#ArialMT-23" x="659.863281"/>
     <use xlink:href="#ArialMT-62" x="715.478516"/>
     <use xlink:href="#ArialMT-75" x="771.09375"/>
     <use xlink:href="#ArialMT-72" x="826.708984"/>
     <use xlink:href="#ArialMT-73" x="860.009766"/>
     <use xlink:href="#ArialMT-74" x="910.009766"/>
     <use xlink:href="#ArialMT-3a" x="937.792969"/>
     <use xlink:href="#ArialMT-32" x="965.576172"/>
     <use xlink:href="#ArialMT-20" x="1021.191406"/>
     <use xlink:href="#ArialMT-7c" x="1048.974609"/>
     <use xlink:href="#ArialMT-20" x="1074.951172"/>
     <use xlink:href="#ArialMT-6d" x="1102.734375"/>
     <use xlink:href="#ArialMT-74" x="1186.035156"/>
     <use xlink:href="#ArialMT-79" x="1213.818359"/>
     <use xlink:href="#ArialMT-70" x="1263.818359"/>
     <use xlink:href="#ArialMT-65" x="1319.433594"/>
     <use xlink:href="#ArialMT-3a" x="1375.048828"/>
     <use xlink:href="#ArialMT-4c" x="1402.832031"/>
     <use xlink:href="#ArialMT-34" x="1458.447266"/>
     <use xlink:href="#ArialMT-5f" x="1514.0625"/>
     <use xlink:href="#ArialMT-4c" x="1569.677734"/>
     <use xlink:href="#ArialMT-42" x="1625.292969"/>
     <use xlink:href="#ArialMT-43" x="1691.992188"/>
     <use xlink:href="#ArialMT-20" x="1764.208984"/>
     <use xlink:href="#ArialMT-7c" x="1791.992188"/>
     <use xlink:href="#ArialMT-20" x="1817.96875"/>
     <use xlink:href="#ArialMT-65" x="1845.751953"/>
     <use xlink:href="#ArialMT-74" x="1901.367188"/>
     <use xlink:href="#ArialMT-79" x="1929.150391"/>
     <use xlink:href="#ArialMT-70" x="1979.150391"/>
     <use xlink:href="#ArialMT-65" x="2034.765625"/>
     <use xlink:href="#ArialMT-3a" x="2090.380859"/>
     <use xlink:href="#ArialMT-63" x="2118.164062"/>
     <use xlink:href="#ArialMT-41" x="2168.164062"/>
     <use xlink:href="#ArialMT-43" x="2234.863281"/>
     <use xlink:href="#ArialMT-69" x="2307.080078"/>
     <use xlink:href="#ArialMT-6e" x="2329.296875"/>
     <use xlink:href="#ArialMT-74" x="2384.912109"/>
    </g>
   </g>
   <g id="legend_1">
    <g id="patch_6">
     <path d="M 205.958125 74.217938 
L 250.840938 74.217938 
Q 252.040938 74.217938 252.040938 73.017938 
L 252.040938 22.641375 
Q 252.040938 21.441375 250.840938 21.441375 
L 205.958125 21.441375 
Q 204.758125 21.441375 204.758125 22.641375 
L 204.758125 73.017938 
Q 204.758125 74.217938 205.958125 74.217938 
z
" style="fill: #ffffff; opacity: 0.8; stroke: #cccccc; stroke-linejoin: miter"/>
    </g>
    <g id="line2d_15">
     <path d="M 207.158125 26.053875 
L 213.158125 26.053875 
L 219.158125 26.053875 
" style="fill: none; stroke: #000000; stroke-width: 2; stroke-linecap: square"/>
    </g>
    <g id="text_15">
     <!-- 1st spike -->
     <g transform="translate(223.958125 28.153875) scale(0.06 -0.06)">
      <defs>
       <path id="ArialMT-6b" d="M 425 0 
L 425 4581 
L 988 4581 
L 988 1969 
L 2319 3319 
L 3047 3319 
L 1778 2088 
L 3175 0 
L 2481 0 
L 1384 1697 
L 988 1316 
L 988 0 
L 425 0 
z
" transform="scale(0.015625)"/>
      </defs>
      <use xlink:href="#ArialMT-31"/>
      <use xlink:href="#ArialMT-73" x="55.615234"/>
      <use xlink:href="#ArialMT-74" x="105.615234"/>
      <use xlink:href="#ArialMT-20" x="133.398438"/>
      <use xlink:href="#ArialMT-73" x="161.181641"/>
      <use xlink:href="#ArialMT-70" x="211.181641"/>
      <use xlink:href="#ArialMT-69" x="266.796875"/>
      <use xlink:href="#ArialMT-6b" x="289.013672"/>
      <use xlink:href="#ArialMT-65" x="339.013672"/>
     </g>
    </g>
    <g id="patch_7">
     <path d="M 207.158125 36.641063 
L 219.158125 36.641063 
L 219.158125 32.441063 
L 207.158125 32.441063 
z
" style="fill: #808080; fill-opacity: 0.3; stroke: #808080; stroke-opacity: 0.3; stroke-linejoin: miter"/>
    </g>
    <g id="text_16">
     <!-- 95% CI -->
     <g transform="translate(223.958125 36.641063) scale(0.06 -0.06)">
      <defs>
       <path id="ArialMT-39" d="M 350 1059 
L 891 1109 
Q 959 728 1153 556 
Q 1347 384 1650 384 
Q 1909 384 2104 503 
Q 2300 622 2425 820 
Q 2550 1019 2634 1356 
Q 2719 1694 2719 2044 
Q 2719 2081 2716 2156 
Q 2547 1888 2255 1720 
Q 1963 1553 1622 1553 
Q 1053 1553 659 1965 
Q 266 2378 266 3053 
Q 266 3750 677 4175 
Q 1088 4600 1706 4600 
Q 2153 4600 2523 4359 
Q 2894 4119 3086 3673 
Q 3278 3228 3278 2384 
Q 3278 1506 3087 986 
Q 2897 466 2520 194 
Q 2144 -78 1638 -78 
Q 1100 -78 759 220 
Q 419 519 350 1059 
z
M 2653 3081 
Q 2653 3566 2395 3850 
Q 2138 4134 1775 4134 
Q 1400 4134 1122 3828 
Q 844 3522 844 3034 
Q 844 2597 1108 2323 
Q 1372 2050 1759 2050 
Q 2150 2050 2401 2323 
Q 2653 2597 2653 3081 
z
" transform="scale(0.015625)"/>
       <path id="ArialMT-25" d="M 372 3481 
Q 372 3972 619 4315 
Q 866 4659 1334 4659 
Q 1766 4659 2048 4351 
Q 2331 4044 2331 3447 
Q 2331 2866 2045 2552 
Q 1759 2238 1341 2238 
Q 925 2238 648 2547 
Q 372 2856 372 3481 
z
M 1350 4272 
Q 1141 4272 1002 4090 
Q 863 3909 863 3425 
Q 863 2984 1003 2804 
Q 1144 2625 1350 2625 
Q 1563 2625 1702 2806 
Q 1841 2988 1841 3469 
Q 1841 3913 1700 4092 
Q 1559 4272 1350 4272 
z
M 1353 -169 
L 3859 4659 
L 4316 4659 
L 1819 -169 
L 1353 -169 
z
M 3334 1075 
Q 3334 1569 3581 1911 
Q 3828 2253 4300 2253 
Q 4731 2253 5014 1945 
Q 5297 1638 5297 1041 
Q 5297 459 5011 145 
Q 4725 -169 4303 -169 
Q 3888 -169 3611 142 
Q 3334 453 3334 1075 
z
M 4316 1866 
Q 4103 1866 3964 1684 
Q 3825 1503 3825 1019 
Q 3825 581 3965 400 
Q 4106 219 4313 219 
Q 4528 219 4667 400 
Q 4806 581 4806 1063 
Q 4806 1506 4665 1686 
Q 4525 1866 4316 1866 
z
" transform="scale(0.015625)"/>
       <path id="ArialMT-49" d="M 597 0 
L 597 4581 
L 1203 4581 
L 1203 0 
L 597 0 
z
" transform="scale(0.015625)"/>
      </defs>
      <use xlink:href="#ArialMT-39"/>
      <use xlink:href="#ArialMT-35" x="55.615234"/>
      <use xlink:href="#ArialMT-25" x="111.230469"/>
      <use xlink:href="#ArialMT-20" x="200.146484"/>
      <use xlink:href="#ArialMT-43" x="227.929688"/>
      <use xlink:href="#ArialMT-49" x="300.146484"/>
     </g>
    </g>
    <g id="line2d_16">
     <path d="M 207.158125 43.046062 
L 213.158125 43.046062 
L 219.158125 43.046062 
" style="fill: none; stroke: #ff0000; stroke-width: 2; stroke-linecap: square"/>
    </g>
    <g id="text_17">
     <!-- 2nd spike -->
     <g transform="translate(223.958125 45.146062) scale(0.06 -0.06)">
      <defs>
       <path id="ArialMT-64" d="M 2575 0 
L 2575 419 
Q 2259 -75 1647 -75 
Q 1250 -75 917 144 
Q 584 363 401 755 
Q 219 1147 219 1656 
Q 219 2153 384 2558 
Q 550 2963 881 3178 
Q 1213 3394 1622 3394 
Q 1922 3394 2156 3267 
Q 2391 3141 2538 2938 
L 2538 4581 
L 3097 4581 
L 3097 0 
L 2575 0 
z
M 797 1656 
Q 797 1019 1065 703 
Q 1334 388 1700 388 
Q 2069 388 2326 689 
Q 2584 991 2584 1609 
Q 2584 2291 2321 2609 
Q 2059 2928 1675 2928 
Q 1300 2928 1048 2622 
Q 797 2316 797 1656 
z
" transform="scale(0.015625)"/>
      </defs>
      <use xlink:href="#ArialMT-32"/>
      <use xlink:href="#ArialMT-6e" x="55.615234"/>
      <use xlink:href="#ArialMT-64" x="111.230469"/>
      <use xlink:href="#ArialMT-20" x="166.845703"/>
      <use xlink:href="#ArialMT-73" x="194.628906"/>
      <use xlink:href="#ArialMT-70" x="244.628906"/>
      <use xlink:href="#ArialMT-69" x="300.244141"/>
      <use xlink:href="#ArialMT-6b" x="322.460938"/>
      <use xlink:href="#ArialMT-65" x="372.460938"/>
     </g>
    </g>
    <g id="patch_8">
     <path d="M 207.158125 53.63325 
L 219.158125 53.63325 
L 219.158125 49.43325 
L 207.158125 49.43325 
z
" style="fill: #ffc0cb; fill-opacity: 0.3; stroke: #ffc0cb; stroke-opacity: 0.3; stroke-linejoin: miter"/>
    </g>
    <g id="text_18">
     <!-- 95% CI -->
     <g transform="translate(223.958125 53.63325) scale(0.06 -0.06)">
      <use xlink:href="#ArialMT-39"/>
      <use xlink:href="#ArialMT-35" x="55.615234"/>
      <use xlink:href="#ArialMT-25" x="111.230469"/>
      <use xlink:href="#ArialMT-20" x="200.146484"/>
      <use xlink:href="#ArialMT-43" x="227.929688"/>
      <use xlink:href="#ArialMT-49" x="300.146484"/>
     </g>
    </g>
    <g id="line2d_17">
     <path d="M 207.158125 60.03825 
L 213.158125 60.03825 
L 219.158125 60.03825 
" style="fill: none; stroke: #ffa500; stroke-width: 2; stroke-linecap: square"/>
    </g>
    <g id="text_19">
     <!-- 3rd spike -->
     <g transform="translate(223.958125 62.13825) scale(0.06 -0.06)">
      <use xlink:href="#ArialMT-33"/>
      <use xlink:href="#ArialMT-72" x="55.615234"/>
      <use xlink:href="#ArialMT-64" x="88.916016"/>
      <use xlink:href="#ArialMT-20" x="144.53125"/>
      <use xlink:href="#ArialMT-73" x="172.314453"/>
      <use xlink:href="#ArialMT-70" x="222.314453"/>
      <use xlink:href="#ArialMT-69" x="277.929688"/>
      <use xlink:href="#ArialMT-6b" x="300.146484"/>
      <use xlink:href="#ArialMT-65" x="350.146484"/>
     </g>
    </g>
    <g id="patch_9">
     <path d="M 207.158125 70.625438 
L 219.158125 70.625438 
L 219.158125 66.425438 
L 207.158125 66.425438 
z
" style="fill: #ffa500; fill-opacity: 0.3; stroke: #ffa500; stroke-opacity: 0.3; stroke-linejoin: miter"/>
    </g>
    <g id="text_20">
     <!-- 95% CI -->
     <g transform="translate(223.958125 70.625438) scale(0.06 -0.06)">
      <use xlink:href="#ArialMT-39"/>
      <use xlink:href="#ArialMT-35" x="55.615234"/>
      <use xlink:href="#ArialMT-25" x="111.230469"/>
      <use xlink:href="#ArialMT-20" x="200.146484"/>
      <use xlink:href="#ArialMT-43" x="227.929688"/>
      <use xlink:href="#ArialMT-49" x="300.146484"/>
     </g>
    </g>
   </g>
  </g>
 </g>
 <defs>
  <clipPath id="p0def0327dc">
   <rect x="34.358125" y="18.441375" width="167.4" height="110.88"/>
  </clipPath>
 </defs>
</svg>
