<?xml version="1.0" encoding="utf-8" standalone="no"?>
<!DOCTYPE svg PUBLIC "-//W3C//DTD SVG 1.1//EN"
  "http://www.w3.org/Graphics/SVG/1.1/DTD/svg11.dtd">
<svg xmlns:xlink="http://www.w3.org/1999/xlink" width="224.359415pt" height="510.66396pt" viewBox="0 0 224.359415 510.66396" xmlns="http://www.w3.org/2000/svg" version="1.1">
 <metadata>
  <rdf:RDF xmlns:dc="http://purl.org/dc/elements/1.1/" xmlns:cc="http://creativecommons.org/ns#" xmlns:rdf="http://www.w3.org/1999/02/22-rdf-syntax-ns#">
   <cc:Work>
    <dc:type rdf:resource="http://purl.org/dc/dcmitype/StillImage"/>
    <dc:date>2024-07-16T12:08:45.322316</dc:date>
    <dc:format>image/svg+xml</dc:format>
    <dc:creator>
     <cc:Agent>
      <dc:title>Matplotlib v3.8.4, https://matplotlib.org/</dc:title>
     </cc:Agent>
    </dc:creator>
   </cc:Work>
  </rdf:RDF>
 </metadata>
 <defs>
  <style type="text/css">*{stroke-linejoin: round; stroke-linecap: butt}</style>
 </defs>
 <g id="figure_1">
  <g id="patch_1">
   <path d="M 0 510.66396 
L 224.359415 510.66396 
L 224.359415 0 
L 0 0 
L 0 510.66396 
z
" style="fill: none"/>
  </g>
  <g id="axes_1">
   <g id="patch_2">
    <path d="M 40.36396 60.358062 
L 112.549415 60.358062 
L 112.549415 18.54375 
L 40.36396 18.54375 
L 40.36396 60.358062 
z
" style="fill: none"/>
   </g>
   <g id="matplotlib.axis_1"/>
   <g id="matplotlib.axis_2">
    <g id="ytick_1">
     <g id="line2d_1">
      <defs>
       <path id="me72c11b4be" d="M 0 0 
L -3.85 0 
" style="stroke: #000000; stroke-width: 0.5"/>
      </defs>
      <g>
       <use xlink:href="#me72c11b4be" x="36.754688" y="48.746668" style="stroke: #000000; stroke-width: 0.5"/>
      </g>
     </g>
     <g id="text_1">
      <!-- 0.0 -->
      <g transform="translate(19.862813 51.026199) scale(0.06 -0.06)">
       <defs>
        <path id="DejaVuSans-30" d="M 2034 4250 
Q 1547 4250 1301 3770 
Q 1056 3291 1056 2328 
Q 1056 1369 1301 889 
Q 1547 409 2034 409 
Q 2525 409 2770 889 
Q 3016 1369 3016 2328 
Q 3016 3291 2770 3770 
Q 2525 4250 2034 4250 
z
M 2034 4750 
Q 2819 4750 3233 4129 
Q 3647 3509 3647 2328 
Q 3647 1150 3233 529 
Q 2819 -91 2034 -91 
Q 1250 -91 836 529 
Q 422 1150 422 2328 
Q 422 3509 836 4129 
Q 1250 4750 2034 4750 
z
" transform="scale(0.015625)"/>
        <path id="DejaVuSans-2e" d="M 684 794 
L 1344 794 
L 1344 0 
L 684 0 
L 684 794 
z
" transform="scale(0.015625)"/>
       </defs>
       <use xlink:href="#DejaVuSans-30"/>
       <use xlink:href="#DejaVuSans-2e" x="63.623047"/>
       <use xlink:href="#DejaVuSans-30" x="95.410156"/>
      </g>
     </g>
    </g>
    <g id="ytick_2">
     <g id="line2d_2">
      <g>
       <use xlink:href="#me72c11b4be" x="36.754688" y="24.024115" style="stroke: #000000; stroke-width: 0.5"/>
      </g>
     </g>
     <g id="text_2">
      <!-- 0.1 -->
      <g transform="translate(19.862813 26.303646) scale(0.06 -0.06)">
       <defs>
        <path id="DejaVuSans-31" d="M 794 531 
L 1825 531 
L 1825 4091 
L 703 3866 
L 703 4441 
L 1819 4666 
L 2450 4666 
L 2450 531 
L 3481 531 
L 3481 0 
L 794 0 
L 794 531 
z
" transform="scale(0.015625)"/>
       </defs>
       <use xlink:href="#DejaVuSans-30"/>
       <use xlink:href="#DejaVuSans-2e" x="63.623047"/>
       <use xlink:href="#DejaVuSans-31" x="95.410156"/>
      </g>
     </g>
    </g>
   </g>
   <g id="line2d_3">
    <path d="M 43.645117 48.608618 
L 54.788669 48.450375 
L 57.265014 48.266863 
L 58.503187 48.012613 
L 59.328635 47.593821 
L 59.741359 47.153698 
L 60.154083 46.308052 
L 60.566808 44.630172 
L 61.80498 36.223781 
L 62.217704 32.403526 
L 63.043152 22.587673 
L 63.455877 20.444401 
L 63.868601 23.003567 
L 64.694049 37.505449 
L 65.519497 49.711162 
L 65.932222 53.092656 
L 66.344946 55.099692 
L 66.75767 56.126129 
L 67.170394 56.477922 
L 67.583118 56.387113 
L 68.408566 55.530678 
L 70.059463 53.518913 
L 71.297636 52.488993 
L 72.535808 51.732991 
L 73.77398 51.225517 
L 74.599429 51.077085 
L 75.424877 51.161877 
L 76.250325 51.566502 
L 77.488498 52.493189 
L 77.901222 52.631241 
L 78.313946 52.568507 
L 78.72667 52.299283 
L 79.552119 51.350979 
L 80.790291 49.830441 
L 81.615739 49.077253 
L 82.853912 48.324175 
L 84.092084 47.881389 
L 85.742981 47.58119 
L 87.806602 47.452406 
L 91.933843 47.474705 
L 109.268258 47.95567 
L 109.268258 47.95567 
" clip-path="url(#p189654394c)" style="fill: none; stroke: #d62728; stroke-width: 0.5; stroke-linecap: square"/>
   </g>
   <g id="line2d_4">
    <path d="M 43.645117 48.839472 
L 57.265014 49.008354 
L 59.328635 49.17713 
L 60.154083 49.357475 
L 60.566808 49.727367 
L 60.979532 51.544771 
L 61.80498 58.457412 
L 62.217704 57.866034 
L 62.630428 52.92513 
L 63.455877 40.493953 
L 63.868601 38.388543 
L 64.281325 38.998376 
L 64.694049 40.381889 
L 65.106773 41.31836 
L 65.519497 41.620948 
L 65.932222 41.505258 
L 67.995842 40.053452 
L 68.821291 39.797114 
L 70.059463 39.690362 
L 72.535808 39.863556 
L 75.837601 40.2223 
L 76.66305 40.481577 
L 77.488498 41.077345 
L 79.552119 43.444009 
L 80.377567 43.895215 
L 81.615739 44.225697 
L 85.330257 44.806194 
L 91.521119 45.556017 
L 99.775602 46.300588 
L 108.442809 46.85578 
L 109.268258 46.897093 
L 109.268258 46.897093 
" clip-path="url(#p189654394c)" style="fill: none; stroke: #ff7f0e; stroke-width: 0.5; stroke-linecap: square"/>
   </g>
   <g id="patch_3">
    <path d="M 36.754688 60.358062 
L 36.754688 18.54375 
" style="fill: none; stroke: #000000; stroke-width: 0.5; stroke-linejoin: miter; stroke-linecap: square"/>
   </g>
   <g id="patch_4">
    <path d="M 40.36396 62.448778 
L 112.549415 62.448778 
" style="fill: none; stroke: #000000; stroke-width: 0.5; stroke-linejoin: miter; stroke-linecap: square"/>
   </g>
   <g id="text_3">
    <!-- L6_TPC:C -->
    <g transform="translate(59.750437 12.54375) scale(0.072 -0.072)">
     <defs>
      <path id="DejaVuSans-4c" d="M 628 4666 
L 1259 4666 
L 1259 531 
L 3531 531 
L 3531 0 
L 628 0 
L 628 4666 
z
" transform="scale(0.015625)"/>
      <path id="DejaVuSans-36" d="M 2113 2584 
Q 1688 2584 1439 2293 
Q 1191 2003 1191 1497 
Q 1191 994 1439 701 
Q 1688 409 2113 409 
Q 2538 409 2786 701 
Q 3034 994 3034 1497 
Q 3034 2003 2786 2293 
Q 2538 2584 2113 2584 
z
M 3366 4563 
L 3366 3988 
Q 3128 4100 2886 4159 
Q 2644 4219 2406 4219 
Q 1781 4219 1451 3797 
Q 1122 3375 1075 2522 
Q 1259 2794 1537 2939 
Q 1816 3084 2150 3084 
Q 2853 3084 3261 2657 
Q 3669 2231 3669 1497 
Q 3669 778 3244 343 
Q 2819 -91 2113 -91 
Q 1303 -91 875 529 
Q 447 1150 447 2328 
Q 447 3434 972 4092 
Q 1497 4750 2381 4750 
Q 2619 4750 2861 4703 
Q 3103 4656 3366 4563 
z
" transform="scale(0.015625)"/>
      <path id="DejaVuSans-5f" d="M 3263 -1063 
L 3263 -1509 
L -63 -1509 
L -63 -1063 
L 3263 -1063 
z
" transform="scale(0.015625)"/>
      <path id="DejaVuSans-54" d="M -19 4666 
L 3928 4666 
L 3928 4134 
L 2272 4134 
L 2272 0 
L 1638 0 
L 1638 4134 
L -19 4134 
L -19 4666 
z
" transform="scale(0.015625)"/>
      <path id="DejaVuSans-50" d="M 1259 4147 
L 1259 2394 
L 2053 2394 
Q 2494 2394 2734 2622 
Q 2975 2850 2975 3272 
Q 2975 3691 2734 3919 
Q 2494 4147 2053 4147 
L 1259 4147 
z
M 628 4666 
L 2053 4666 
Q 2838 4666 3239 4311 
Q 3641 3956 3641 3272 
Q 3641 2581 3239 2228 
Q 2838 1875 2053 1875 
L 1259 1875 
L 1259 0 
L 628 0 
L 628 4666 
z
" transform="scale(0.015625)"/>
      <path id="DejaVuSans-43" d="M 4122 4306 
L 4122 3641 
Q 3803 3938 3442 4084 
Q 3081 4231 2675 4231 
Q 1875 4231 1450 3742 
Q 1025 3253 1025 2328 
Q 1025 1406 1450 917 
Q 1875 428 2675 428 
Q 3081 428 3442 575 
Q 3803 722 4122 1019 
L 4122 359 
Q 3791 134 3420 21 
Q 3050 -91 2638 -91 
Q 1578 -91 968 557 
Q 359 1206 359 2328 
Q 359 3453 968 4101 
Q 1578 4750 2638 4750 
Q 3056 4750 3426 4639 
Q 3797 4528 4122 4306 
z
" transform="scale(0.015625)"/>
      <path id="DejaVuSans-3a" d="M 750 794 
L 1409 794 
L 1409 0 
L 750 0 
L 750 794 
z
M 750 3309 
L 1409 3309 
L 1409 2516 
L 750 2516 
L 750 3309 
z
" transform="scale(0.015625)"/>
     </defs>
     <use xlink:href="#DejaVuSans-4c"/>
     <use xlink:href="#DejaVuSans-36" x="55.712891"/>
     <use xlink:href="#DejaVuSans-5f" x="119.335938"/>
     <use xlink:href="#DejaVuSans-54" x="169.335938"/>
     <use xlink:href="#DejaVuSans-50" x="230.419922"/>
     <use xlink:href="#DejaVuSans-43" x="290.722656"/>
     <use xlink:href="#DejaVuSans-3a" x="360.546875"/>
     <use xlink:href="#DejaVuSans-43" x="394.238281"/>
    </g>
   </g>
   <g id="legend_1"/>
  </g>
  <g id="axes_2">
   <g id="patch_5">
    <path d="M 144.97396 60.358062 
L 217.159415 60.358062 
L 217.159415 18.54375 
L 144.97396 18.54375 
L 144.97396 60.358062 
z
" style="fill: none"/>
   </g>
   <g id="matplotlib.axis_3"/>
   <g id="matplotlib.axis_4">
    <g id="ytick_3">
     <g id="line2d_5">
      <g>
       <use xlink:href="#me72c11b4be" x="141.364688" y="50.068538" style="stroke: #000000; stroke-width: 0.5"/>
      </g>
     </g>
     <g id="text_4">
      <!-- −0.02 -->
      <g transform="translate(115.6275 52.348069) scale(0.06 -0.06)">
       <defs>
        <path id="DejaVuSans-2212" d="M 678 2272 
L 4684 2272 
L 4684 1741 
L 678 1741 
L 678 2272 
z
" transform="scale(0.015625)"/>
        <path id="DejaVuSans-32" d="M 1228 531 
L 3431 531 
L 3431 0 
L 469 0 
L 469 531 
Q 828 903 1448 1529 
Q 2069 2156 2228 2338 
Q 2531 2678 2651 2914 
Q 2772 3150 2772 3378 
Q 2772 3750 2511 3984 
Q 2250 4219 1831 4219 
Q 1534 4219 1204 4116 
Q 875 4013 500 3803 
L 500 4441 
Q 881 4594 1212 4672 
Q 1544 4750 1819 4750 
Q 2544 4750 2975 4387 
Q 3406 4025 3406 3419 
Q 3406 3131 3298 2873 
Q 3191 2616 2906 2266 
Q 2828 2175 2409 1742 
Q 1991 1309 1228 531 
z
" transform="scale(0.015625)"/>
       </defs>
       <use xlink:href="#DejaVuSans-2212"/>
       <use xlink:href="#DejaVuSans-30" x="83.789062"/>
       <use xlink:href="#DejaVuSans-2e" x="147.412109"/>
       <use xlink:href="#DejaVuSans-30" x="179.199219"/>
       <use xlink:href="#DejaVuSans-32" x="242.822266"/>
      </g>
     </g>
    </g>
    <g id="ytick_4">
     <g id="line2d_6">
      <g>
       <use xlink:href="#me72c11b4be" x="141.364688" y="35.795442" style="stroke: #000000; stroke-width: 0.5"/>
      </g>
     </g>
     <g id="text_5">
      <!-- 0.00 -->
      <g transform="translate(120.655313 38.074974) scale(0.06 -0.06)">
       <use xlink:href="#DejaVuSans-30"/>
       <use xlink:href="#DejaVuSans-2e" x="63.623047"/>
       <use xlink:href="#DejaVuSans-30" x="95.410156"/>
       <use xlink:href="#DejaVuSans-30" x="159.033203"/>
      </g>
     </g>
    </g>
    <g id="ytick_5">
     <g id="line2d_7">
      <g>
       <use xlink:href="#me72c11b4be" x="141.364688" y="21.522347" style="stroke: #000000; stroke-width: 0.5"/>
      </g>
     </g>
     <g id="text_6">
      <!-- 0.02 -->
      <g transform="translate(120.655313 23.801878) scale(0.06 -0.06)">
       <use xlink:href="#DejaVuSans-30"/>
       <use xlink:href="#DejaVuSans-2e" x="63.623047"/>
       <use xlink:href="#DejaVuSans-30" x="95.410156"/>
       <use xlink:href="#DejaVuSans-32" x="159.033203"/>
      </g>
     </g>
    </g>
   </g>
   <g id="line2d_8">
    <path d="M 148.255117 35.70258 
L 158.985945 35.568433 
L 161.46229 35.325145 
L 162.700463 34.955047 
L 163.113187 34.710266 
L 163.525911 34.324585 
L 163.938635 33.662249 
L 164.351359 32.395828 
L 164.764083 29.766757 
L 165.589532 21.715069 
L 166.002256 20.81957 
L 166.41498 21.834094 
L 166.827704 25.060107 
L 167.240428 31.245316 
L 168.065877 46.387493 
L 168.478601 51.03588 
L 168.891325 53.259347 
L 169.304049 53.709303 
L 169.716773 53.064437 
L 170.542222 50.3675 
L 172.605842 43.01665 
L 173.844015 39.385004 
L 175.082187 36.410842 
L 176.733084 33.083323 
L 177.971256 30.905184 
L 178.796705 29.793013 
L 179.209429 29.437311 
L 179.622153 29.266186 
L 180.034877 29.289713 
L 180.860325 29.608628 
L 181.27305 29.577434 
L 181.685774 29.243768 
L 182.511222 27.888613 
L 183.33667 26.520273 
L 184.162119 25.686674 
L 184.987567 25.321781 
L 185.813015 25.237889 
L 187.051188 25.371366 
L 189.114809 25.870089 
L 197.369292 28.095949 
L 202.734706 29.259012 
L 207.687395 30.106457 
L 213.878258 30.957541 
L 213.878258 30.957541 
" clip-path="url(#p3c0ea23ff2)" style="fill: none; stroke: #d62728; stroke-width: 0.5; stroke-linecap: square"/>
   </g>
   <g id="line2d_9">
    <path d="M 148.255117 36.32989 
L 155.684152 36.604649 
L 158.985945 36.899913 
L 161.049566 37.283585 
L 162.287738 37.760217 
L 163.113187 38.381397 
L 163.525911 38.912983 
L 163.938635 39.765578 
L 164.351359 41.299057 
L 164.764083 44.450145 
L 165.589532 58.457412 
L 166.002256 57.470333 
L 166.41498 48.262345 
L 166.827704 36.358316 
L 167.240428 29.443542 
L 167.653152 30.432459 
L 168.478601 39.092209 
L 168.891325 41.239487 
L 169.304049 41.781802 
L 169.716773 41.332159 
L 170.542222 39.207129 
L 172.193118 34.544843 
L 173.431291 31.751419 
L 174.669463 29.516262 
L 176.32036 27.002946 
L 177.558532 25.506067 
L 178.38398 24.772707 
L 181.27305 22.692538 
L 183.33667 20.848121 
L 184.162119 20.496974 
L 184.987567 20.454324 
L 186.225739 20.715787 
L 188.702084 21.608023 
L 195.305671 24.08663 
L 199.845637 25.556491 
L 203.972878 26.659274 
L 208.10012 27.543565 
L 213.878258 28.536388 
L 213.878258 28.536388 
" clip-path="url(#p3c0ea23ff2)" style="fill: none; stroke: #ff7f0e; stroke-width: 0.5; stroke-linecap: square"/>
   </g>
   <g id="patch_6">
    <path d="M 141.364688 60.358062 
L 141.364688 18.54375 
" style="fill: none; stroke: #000000; stroke-width: 0.5; stroke-linejoin: miter; stroke-linecap: square"/>
   </g>
   <g id="patch_7">
    <path d="M 144.97396 62.448778 
L 217.159415 62.448778 
" style="fill: none; stroke: #000000; stroke-width: 0.5; stroke-linejoin: miter; stroke-linecap: square"/>
   </g>
   <g id="text_7">
    <!-- L6_BPC -->
    <g transform="translate(167.815875 12.54375) scale(0.072 -0.072)">
     <defs>
      <path id="DejaVuSans-42" d="M 1259 2228 
L 1259 519 
L 2272 519 
Q 2781 519 3026 730 
Q 3272 941 3272 1375 
Q 3272 1813 3026 2020 
Q 2781 2228 2272 2228 
L 1259 2228 
z
M 1259 4147 
L 1259 2741 
L 2194 2741 
Q 2656 2741 2882 2914 
Q 3109 3088 3109 3444 
Q 3109 3797 2882 3972 
Q 2656 4147 2194 4147 
L 1259 4147 
z
M 628 4666 
L 2241 4666 
Q 2963 4666 3353 4366 
Q 3744 4066 3744 3513 
Q 3744 3084 3544 2831 
Q 3344 2578 2956 2516 
Q 3422 2416 3680 2098 
Q 3938 1781 3938 1306 
Q 3938 681 3513 340 
Q 3088 0 2303 0 
L 628 0 
L 628 4666 
z
" transform="scale(0.015625)"/>
     </defs>
     <use xlink:href="#DejaVuSans-4c"/>
     <use xlink:href="#DejaVuSans-36" x="55.712891"/>
     <use xlink:href="#DejaVuSans-5f" x="119.335938"/>
     <use xlink:href="#DejaVuSans-42" x="169.335938"/>
     <use xlink:href="#DejaVuSans-50" x="237.939453"/>
     <use xlink:href="#DejaVuSans-43" x="298.242188"/>
    </g>
   </g>
   <g id="legend_2"/>
  </g>
  <g id="axes_3">
   <g id="patch_8">
    <path d="M 40.36396 120.079695 
L 112.549415 120.079695 
L 112.549415 78.265383 
L 40.36396 78.265383 
L 40.36396 120.079695 
z
" style="fill: none"/>
   </g>
   <g id="matplotlib.axis_5"/>
   <g id="matplotlib.axis_6">
    <g id="ytick_6">
     <g id="line2d_10">
      <g>
       <use xlink:href="#me72c11b4be" x="36.754688" y="114.784639" style="stroke: #000000; stroke-width: 0.5"/>
      </g>
     </g>
     <g id="text_8">
      <!-- −0.1 -->
      <g transform="translate(14.835 117.06417) scale(0.06 -0.06)">
       <use xlink:href="#DejaVuSans-2212"/>
       <use xlink:href="#DejaVuSans-30" x="83.789062"/>
       <use xlink:href="#DejaVuSans-2e" x="147.412109"/>
       <use xlink:href="#DejaVuSans-31" x="179.199219"/>
      </g>
     </g>
    </g>
    <g id="ytick_7">
     <g id="line2d_11">
      <g>
       <use xlink:href="#me72c11b4be" x="36.754688" y="91.799593" style="stroke: #000000; stroke-width: 0.5"/>
      </g>
     </g>
     <g id="text_9">
      <!-- 0.0 -->
      <g transform="translate(19.862813 94.079124) scale(0.06 -0.06)">
       <use xlink:href="#DejaVuSans-30"/>
       <use xlink:href="#DejaVuSans-2e" x="63.623047"/>
       <use xlink:href="#DejaVuSans-30" x="95.410156"/>
      </g>
     </g>
    </g>
   </g>
   <g id="line2d_12">
    <path d="M 43.645117 91.784375 
L 48.597807 91.681149 
L 55.201394 91.457331 
L 56.85229 91.218748 
L 58.090463 90.820108 
L 58.915911 90.308077 
L 59.328635 89.895831 
L 59.741359 89.299155 
L 60.154083 88.411255 
L 60.566808 87.085507 
L 61.80498 81.134408 
L 62.217704 80.166034 
L 62.630428 80.360771 
L 63.043152 81.663256 
L 63.455877 83.987557 
L 63.868601 87.411812 
L 64.281325 92.229256 
L 65.519497 111.176752 
L 65.932222 114.642112 
L 66.344946 116.366773 
L 66.75767 116.964721 
L 67.170394 116.861273 
L 67.583118 116.318122 
L 68.408566 114.559808 
L 70.472187 109.80208 
L 72.535808 105.7484 
L 74.599429 102.194689 
L 77.075774 98.094333 
L 78.313946 95.481326 
L 80.790291 89.586486 
L 81.615739 88.439491 
L 82.441188 87.740239 
L 83.266636 87.325713 
L 84.504809 87.002426 
L 86.568429 86.808251 
L 89.870223 86.781403 
L 94.410188 87.075252 
L 105.966465 88.241335 
L 109.268258 88.467039 
L 109.268258 88.467039 
" clip-path="url(#p5583f6bc7e)" style="fill: none; stroke: #d62728; stroke-width: 0.5; stroke-linecap: square"/>
   </g>
   <g id="line2d_13">
    <path d="M 43.645117 92.907937 
L 52.725049 93.285671 
L 56.026842 93.847007 
L 57.677738 94.369909 
L 58.503187 94.819147 
L 59.328635 95.558175 
L 59.741359 96.135428 
L 60.154083 96.970977 
L 60.566808 98.26473 
L 60.979532 100.412341 
L 61.392256 103.957963 
L 62.217704 113.715618 
L 62.630428 116.934132 
L 63.043152 118.179045 
L 63.455877 118.012528 
L 63.868601 117.129734 
L 64.694049 114.546598 
L 65.519497 110.491742 
L 66.75767 104.167373 
L 67.583118 100.752482 
L 68.408566 98.016805 
L 69.234015 95.850318 
L 70.059463 94.129234 
L 71.297636 92.162998 
L 72.535808 90.649998 
L 74.599429 88.559623 
L 77.075774 86.084127 
L 79.964843 82.808145 
L 80.790291 82.197606 
L 81.615739 81.786107 
L 82.853912 81.477269 
L 84.092084 81.407159 
L 86.155705 81.545537 
L 89.870223 82.053636 
L 96.886533 83.41475 
L 102.251947 84.375671 
L 106.791913 85.121223 
L 109.268258 85.425169 
L 109.268258 85.425169 
" clip-path="url(#p5583f6bc7e)" style="fill: none; stroke: #ff7f0e; stroke-width: 0.5; stroke-linecap: square"/>
   </g>
   <g id="patch_9">
    <path d="M 36.754688 120.079695 
L 36.754688 78.265383 
" style="fill: none; stroke: #000000; stroke-width: 0.5; stroke-linejoin: miter; stroke-linecap: square"/>
   </g>
   <g id="patch_10">
    <path d="M 40.36396 122.170411 
L 112.549415 122.170411 
" style="fill: none; stroke: #000000; stroke-width: 0.5; stroke-linejoin: miter; stroke-linecap: square"/>
   </g>
   <g id="text_10">
    <!-- L5_TPC:C -->
    <g transform="translate(59.750437 72.265383) scale(0.072 -0.072)">
     <defs>
      <path id="DejaVuSans-35" d="M 691 4666 
L 3169 4666 
L 3169 4134 
L 1269 4134 
L 1269 2991 
Q 1406 3038 1543 3061 
Q 1681 3084 1819 3084 
Q 2600 3084 3056 2656 
Q 3513 2228 3513 1497 
Q 3513 744 3044 326 
Q 2575 -91 1722 -91 
Q 1428 -91 1123 -41 
Q 819 9 494 109 
L 494 744 
Q 775 591 1075 516 
Q 1375 441 1709 441 
Q 2250 441 2565 725 
Q 2881 1009 2881 1497 
Q 2881 1984 2565 2268 
Q 2250 2553 1709 2553 
Q 1456 2553 1204 2497 
Q 953 2441 691 2322 
L 691 4666 
z
" transform="scale(0.015625)"/>
     </defs>
     <use xlink:href="#DejaVuSans-4c"/>
     <use xlink:href="#DejaVuSans-35" x="55.712891"/>
     <use xlink:href="#DejaVuSans-5f" x="119.335938"/>
     <use xlink:href="#DejaVuSans-54" x="169.335938"/>
     <use xlink:href="#DejaVuSans-50" x="230.419922"/>
     <use xlink:href="#DejaVuSans-43" x="290.722656"/>
     <use xlink:href="#DejaVuSans-3a" x="360.546875"/>
     <use xlink:href="#DejaVuSans-43" x="394.238281"/>
    </g>
   </g>
   <g id="legend_3"/>
  </g>
  <g id="axes_4">
   <g id="patch_11">
    <path d="M 144.97396 120.079695 
L 217.159415 120.079695 
L 217.159415 78.265383 
L 144.97396 78.265383 
L 144.97396 120.079695 
z
" style="fill: none"/>
   </g>
   <g id="matplotlib.axis_7"/>
   <g id="matplotlib.axis_8">
    <g id="ytick_8">
     <g id="line2d_14">
      <g>
       <use xlink:href="#me72c11b4be" x="141.364688" y="115.566655" style="stroke: #000000; stroke-width: 0.5"/>
      </g>
     </g>
     <g id="text_11">
      <!-- −0.1 -->
      <g transform="translate(119.445 117.846186) scale(0.06 -0.06)">
       <use xlink:href="#DejaVuSans-2212"/>
       <use xlink:href="#DejaVuSans-30" x="83.789062"/>
       <use xlink:href="#DejaVuSans-2e" x="147.412109"/>
       <use xlink:href="#DejaVuSans-31" x="179.199219"/>
      </g>
     </g>
    </g>
    <g id="ytick_9">
     <g id="line2d_15">
      <g>
       <use xlink:href="#me72c11b4be" x="141.364688" y="89.542592" style="stroke: #000000; stroke-width: 0.5"/>
      </g>
     </g>
     <g id="text_12">
      <!-- 0.0 -->
      <g transform="translate(124.472813 91.822123) scale(0.06 -0.06)">
       <use xlink:href="#DejaVuSans-30"/>
       <use xlink:href="#DejaVuSans-2e" x="63.623047"/>
       <use xlink:href="#DejaVuSans-30" x="95.410156"/>
      </g>
     </g>
    </g>
   </g>
   <g id="line2d_16">
    <path d="M 148.255117 89.320727 
L 158.160497 89.207628 
L 161.875014 89.014096 
L 163.113187 88.761082 
L 163.938635 88.346661 
L 164.351359 87.960963 
L 164.764083 87.348886 
L 165.176808 86.409863 
L 166.002256 84.019107 
L 166.41498 83.193438 
L 166.827704 82.768815 
L 167.240428 82.643032 
L 168.065877 82.793669 
L 168.891325 83.072809 
L 169.304049 83.343765 
L 169.716773 83.882874 
L 170.129497 84.914706 
L 170.542222 86.748477 
L 170.954946 89.766939 
L 171.36767 94.281247 
L 172.605842 111.589963 
L 173.018566 115.248705 
L 173.431291 117.332068 
L 173.844015 118.179045 
L 174.256739 118.15736 
L 174.669463 117.57958 
L 175.494911 115.635705 
L 179.622153 104.780147 
L 181.27305 101.31711 
L 183.749395 96.762836 
L 186.225739 92.157553 
L 188.28936 88.141773 
L 189.114809 86.866683 
L 189.940257 85.917882 
L 190.765705 85.274914 
L 191.591153 84.864522 
L 192.829326 84.542511 
L 194.480223 84.428277 
L 196.956567 84.56182 
L 203.560154 85.298321 
L 213.878258 86.408567 
L 213.878258 86.408567 
" clip-path="url(#p082691459f)" style="fill: none; stroke: #d62728; stroke-width: 0.5; stroke-linecap: square"/>
   </g>
   <g id="line2d_17">
    <path d="M 148.255117 89.883054 
L 158.985945 90.162265 
L 161.875014 90.447792 
L 163.938635 90.879484 
L 164.764083 91.263017 
L 165.176808 91.82223 
L 165.589532 93.439696 
L 166.002256 97.074994 
L 166.827704 107.283034 
L 167.240428 110.591116 
L 167.653152 112.056234 
L 168.065877 112.110044 
L 168.478601 111.233806 
L 169.304049 108.062739 
L 170.542222 103.03221 
L 170.954946 101.948834 
L 171.36767 101.410326 
L 171.780394 101.430285 
L 172.605842 102.017482 
L 173.018566 101.95058 
L 173.431291 101.531677 
L 174.256739 99.989505 
L 176.32036 95.481798 
L 177.558532 93.373083 
L 178.796705 91.657325 
L 180.860325 89.277565 
L 187.876636 81.783158 
L 189.114809 80.938279 
L 190.352981 80.446094 
L 191.591153 80.220341 
L 193.24205 80.175578 
L 195.305671 80.369689 
L 198.607464 80.950882 
L 205.623775 82.253143 
L 213.878258 83.583821 
L 213.878258 83.583821 
" clip-path="url(#p082691459f)" style="fill: none; stroke: #ff7f0e; stroke-width: 0.5; stroke-linecap: square"/>
   </g>
   <g id="patch_12">
    <path d="M 141.364688 120.079695 
L 141.364688 78.265383 
" style="fill: none; stroke: #000000; stroke-width: 0.5; stroke-linejoin: miter; stroke-linecap: square"/>
   </g>
   <g id="patch_13">
    <path d="M 144.97396 122.170411 
L 217.159415 122.170411 
" style="fill: none; stroke: #000000; stroke-width: 0.5; stroke-linejoin: miter; stroke-linecap: square"/>
   </g>
   <g id="text_13">
    <!-- L5_UPC -->
    <g transform="translate(167.651062 72.265383) scale(0.072 -0.072)">
     <defs>
      <path id="DejaVuSans-55" d="M 556 4666 
L 1191 4666 
L 1191 1831 
Q 1191 1081 1462 751 
Q 1734 422 2344 422 
Q 2950 422 3222 751 
Q 3494 1081 3494 1831 
L 3494 4666 
L 4128 4666 
L 4128 1753 
Q 4128 841 3676 375 
Q 3225 -91 2344 -91 
Q 1459 -91 1007 375 
Q 556 841 556 1753 
L 556 4666 
z
" transform="scale(0.015625)"/>
     </defs>
     <use xlink:href="#DejaVuSans-4c"/>
     <use xlink:href="#DejaVuSans-35" x="55.712891"/>
     <use xlink:href="#DejaVuSans-5f" x="119.335938"/>
     <use xlink:href="#DejaVuSans-55" x="169.335938"/>
     <use xlink:href="#DejaVuSans-50" x="242.529297"/>
     <use xlink:href="#DejaVuSans-43" x="302.832031"/>
    </g>
   </g>
   <g id="legend_4"/>
  </g>
  <g id="axes_5">
   <g id="patch_14">
    <path d="M 40.36396 179.801329 
L 112.549415 179.801329 
L 112.549415 137.987016 
L 40.36396 137.987016 
L 40.36396 179.801329 
z
" style="fill: none"/>
   </g>
   <g id="matplotlib.axis_9"/>
   <g id="matplotlib.axis_10">
    <g id="ytick_10">
     <g id="line2d_18">
      <g>
       <use xlink:href="#me72c11b4be" x="36.754688" y="169.334419" style="stroke: #000000; stroke-width: 0.5"/>
      </g>
     </g>
     <g id="text_14">
      <!-- −0.025 -->
      <g transform="translate(7.2 171.61395) scale(0.06 -0.06)">
       <use xlink:href="#DejaVuSans-2212"/>
       <use xlink:href="#DejaVuSans-30" x="83.789062"/>
       <use xlink:href="#DejaVuSans-2e" x="147.412109"/>
       <use xlink:href="#DejaVuSans-30" x="179.199219"/>
       <use xlink:href="#DejaVuSans-32" x="242.822266"/>
       <use xlink:href="#DejaVuSans-35" x="306.445312"/>
      </g>
     </g>
    </g>
    <g id="ytick_11">
     <g id="line2d_19">
      <g>
       <use xlink:href="#me72c11b4be" x="36.754688" y="153.430768" style="stroke: #000000; stroke-width: 0.5"/>
      </g>
     </g>
     <g id="text_15">
      <!-- 0.000 -->
      <g transform="translate(12.227813 155.7103) scale(0.06 -0.06)">
       <use xlink:href="#DejaVuSans-30"/>
       <use xlink:href="#DejaVuSans-2e" x="63.623047"/>
       <use xlink:href="#DejaVuSans-30" x="95.410156"/>
       <use xlink:href="#DejaVuSans-30" x="159.033203"/>
       <use xlink:href="#DejaVuSans-30" x="222.65625"/>
      </g>
     </g>
    </g>
   </g>
   <g id="line2d_20">
    <path d="M 43.645117 153.296297 
L 53.550497 153.156838 
L 56.439566 152.950786 
L 57.677738 152.691153 
L 58.503187 152.324105 
L 58.915911 151.996827 
L 59.328635 151.459867 
L 59.741359 150.483709 
L 60.154083 148.509301 
L 60.979532 140.747953 
L 61.392256 139.887667 
L 61.80498 142.107243 
L 62.630428 151.81372 
L 63.455877 161.967652 
L 64.281325 169.137965 
L 64.694049 171.142928 
L 65.106773 171.635163 
L 65.519497 170.800863 
L 66.344946 167.114769 
L 67.583118 161.409263 
L 68.408566 158.60613 
L 69.234015 156.453959 
L 70.472187 153.925592 
L 72.535808 150.448422 
L 74.599429 147.279626 
L 75.424877 146.483341 
L 75.837601 146.313783 
L 77.488498 146.093493 
L 79.552119 145.158756 
L 80.790291 144.970592 
L 82.441188 145.024123 
L 85.330257 145.436013 
L 93.58474 146.998216 
L 100.188326 148.091685 
L 106.791913 148.968863 
L 109.268258 149.253222 
L 109.268258 149.253222 
" clip-path="url(#pcb15761ed5)" style="fill: none; stroke: #d62728; stroke-width: 0.5; stroke-linecap: square"/>
   </g>
   <g id="line2d_21">
    <path d="M 43.645117 153.963332 
L 51.8996 154.255347 
L 54.788669 154.528766 
L 56.85229 154.934329 
L 57.677738 155.230327 
L 58.503187 155.736041 
L 58.915911 156.152057 
L 59.328635 156.79223 
L 59.741359 157.883355 
L 60.154083 160.018289 
L 60.566808 164.794535 
L 60.979532 173.489121 
L 61.392256 177.900678 
L 61.80498 175.492916 
L 62.630428 167.084056 
L 63.043152 164.284512 
L 63.455877 163.328138 
L 63.868601 164.239971 
L 64.694049 167.672686 
L 65.106773 167.906567 
L 65.519497 166.898175 
L 67.583118 158.787062 
L 68.408566 156.853799 
L 69.646739 154.754867 
L 72.535808 150.311991 
L 73.77398 147.879884 
L 75.012153 144.880641 
L 76.250325 141.679086 
L 76.66305 140.879008 
L 77.075774 140.382147 
L 77.488498 140.199807 
L 77.901222 140.255861 
L 79.552119 141.120407 
L 81.203015 141.793897 
L 84.504809 142.82081 
L 89.870223 144.228379 
L 94.822912 145.299127 
L 101.013775 146.386047 
L 107.204637 147.265055 
L 109.268258 147.524376 
L 109.268258 147.524376 
" clip-path="url(#pcb15761ed5)" style="fill: none; stroke: #ff7f0e; stroke-width: 0.5; stroke-linecap: square"/>
   </g>
   <g id="patch_15">
    <path d="M 36.754688 179.801329 
L 36.754688 137.987016 
" style="fill: none; stroke: #000000; stroke-width: 0.5; stroke-linejoin: miter; stroke-linecap: square"/>
   </g>
   <g id="patch_16">
    <path d="M 40.36396 181.892044 
L 112.549415 181.892044 
" style="fill: none; stroke: #000000; stroke-width: 0.5; stroke-linejoin: miter; stroke-linecap: square"/>
   </g>
   <g id="text_16">
    <!-- L6_IPC -->
    <g transform="translate(64.613812 131.987016) scale(0.072 -0.072)">
     <defs>
      <path id="DejaVuSans-49" d="M 628 4666 
L 1259 4666 
L 1259 0 
L 628 0 
L 628 4666 
z
" transform="scale(0.015625)"/>
     </defs>
     <use xlink:href="#DejaVuSans-4c"/>
     <use xlink:href="#DejaVuSans-36" x="55.712891"/>
     <use xlink:href="#DejaVuSans-5f" x="119.335938"/>
     <use xlink:href="#DejaVuSans-49" x="169.335938"/>
     <use xlink:href="#DejaVuSans-50" x="198.828125"/>
     <use xlink:href="#DejaVuSans-43" x="259.130859"/>
    </g>
   </g>
   <g id="legend_5"/>
  </g>
  <g id="axes_6">
   <g id="patch_17">
    <path d="M 144.97396 179.801329 
L 217.159415 179.801329 
L 217.159415 137.987016 
L 144.97396 137.987016 
L 144.97396 179.801329 
z
" style="fill: none"/>
   </g>
   <g id="matplotlib.axis_11"/>
   <g id="matplotlib.axis_12">
    <g id="ytick_12">
     <g id="line2d_22">
      <g>
       <use xlink:href="#me72c11b4be" x="141.364688" y="178.948134" style="stroke: #000000; stroke-width: 0.5"/>
      </g>
     </g>
     <g id="text_17">
      <!-- −0.10 -->
      <g transform="translate(115.6275 181.227666) scale(0.06 -0.06)">
       <use xlink:href="#DejaVuSans-2212"/>
       <use xlink:href="#DejaVuSans-30" x="83.789062"/>
       <use xlink:href="#DejaVuSans-2e" x="147.412109"/>
       <use xlink:href="#DejaVuSans-31" x="179.199219"/>
       <use xlink:href="#DejaVuSans-30" x="242.822266"/>
      </g>
     </g>
    </g>
    <g id="ytick_13">
     <g id="line2d_23">
      <g>
       <use xlink:href="#me72c11b4be" x="141.364688" y="163.776441" style="stroke: #000000; stroke-width: 0.5"/>
      </g>
     </g>
     <g id="text_18">
      <!-- −0.05 -->
      <g transform="translate(115.6275 166.055972) scale(0.06 -0.06)">
       <use xlink:href="#DejaVuSans-2212"/>
       <use xlink:href="#DejaVuSans-30" x="83.789062"/>
       <use xlink:href="#DejaVuSans-2e" x="147.412109"/>
       <use xlink:href="#DejaVuSans-30" x="179.199219"/>
       <use xlink:href="#DejaVuSans-35" x="242.822266"/>
      </g>
     </g>
    </g>
    <g id="ytick_14">
     <g id="line2d_24">
      <g>
       <use xlink:href="#me72c11b4be" x="141.364688" y="148.604747" style="stroke: #000000; stroke-width: 0.5"/>
      </g>
     </g>
     <g id="text_19">
      <!-- 0.00 -->
      <g transform="translate(120.655313 150.884278) scale(0.06 -0.06)">
       <use xlink:href="#DejaVuSans-30"/>
       <use xlink:href="#DejaVuSans-2e" x="63.623047"/>
       <use xlink:href="#DejaVuSans-30" x="95.410156"/>
       <use xlink:href="#DejaVuSans-30" x="159.033203"/>
      </g>
     </g>
    </g>
   </g>
   <g id="line2d_25">
    <path d="M 148.255117 148.5688 
L 160.636842 148.492966 
L 162.700463 148.338024 
L 163.525911 148.146778 
L 163.938635 147.96228 
L 164.351359 147.648069 
L 164.764083 147.084692 
L 165.176808 146.109917 
L 166.002256 143.783135 
L 166.41498 143.561774 
L 166.827704 144.480343 
L 167.240428 146.602789 
L 168.065877 153.401747 
L 169.716773 171.041333 
L 170.129497 171.532793 
L 170.542222 170.593848 
L 171.36767 167.134094 
L 172.605842 162.025712 
L 173.431291 159.468768 
L 174.256739 157.492338 
L 175.494911 155.204214 
L 177.558532 152.10989 
L 178.796705 150.142139 
L 179.622153 148.549242 
L 180.447601 146.588729 
L 182.511222 141.168352 
L 182.923946 140.528246 
L 183.33667 140.125962 
L 183.749395 139.928376 
L 184.574843 139.957094 
L 185.813015 140.488776 
L 188.702084 141.901939 
L 190.765705 142.664459 
L 193.654774 143.44234 
L 197.782016 144.272705 
L 203.972878 145.242317 
L 210.576465 145.905436 
L 213.878258 146.205675 
L 213.878258 146.205675 
" clip-path="url(#pb5f12ba411)" style="fill: none; stroke: #d62728; stroke-width: 0.5; stroke-linecap: square"/>
   </g>
   <g id="line2d_26">
    <path d="M 148.255117 149.043171 
L 158.573221 149.338363 
L 161.875014 149.625758 
L 163.938635 150.02024 
L 164.764083 150.249147 
L 165.176808 150.594547 
L 165.589532 152.32792 
L 166.002256 157.588106 
L 166.827704 173.878 
L 167.240428 177.807867 
L 167.653152 177.900678 
L 168.065877 175.683869 
L 169.304049 165.217711 
L 169.716773 163.960869 
L 170.954946 162.635697 
L 171.780394 161.074497 
L 173.431291 157.760385 
L 174.669463 155.866734 
L 175.907636 154.466125 
L 177.145808 153.417762 
L 178.38398 152.635709 
L 180.034877 151.896891 
L 180.860325 151.508456 
L 181.685774 150.783014 
L 182.511222 149.433776 
L 184.574843 145.185309 
L 185.400291 144.015178 
L 186.225739 143.23396 
L 187.051188 142.740407 
L 188.28936 142.330511 
L 189.527533 142.165905 
L 191.178429 142.174583 
L 193.654774 142.441329 
L 199.020188 143.337773 
L 203.14743 144.052298 
L 209.751016 144.828373 
L 213.878258 145.263711 
L 213.878258 145.263711 
" clip-path="url(#pb5f12ba411)" style="fill: none; stroke: #ff7f0e; stroke-width: 0.5; stroke-linecap: square"/>
   </g>
   <g id="patch_18">
    <path d="M 141.364688 179.801329 
L 141.364688 137.987016 
" style="fill: none; stroke: #000000; stroke-width: 0.5; stroke-linejoin: miter; stroke-linecap: square"/>
   </g>
   <g id="patch_19">
    <path d="M 144.97396 181.892044 
L 217.159415 181.892044 
" style="fill: none; stroke: #000000; stroke-width: 0.5; stroke-linejoin: miter; stroke-linecap: square"/>
   </g>
   <g id="text_20">
    <!-- L4_TPC -->
    <g transform="translate(168.087 131.987016) scale(0.072 -0.072)">
     <defs>
      <path id="DejaVuSans-34" d="M 2419 4116 
L 825 1625 
L 2419 1625 
L 2419 4116 
z
M 2253 4666 
L 3047 4666 
L 3047 1625 
L 3713 1625 
L 3713 1100 
L 3047 1100 
L 3047 0 
L 2419 0 
L 2419 1100 
L 313 1100 
L 313 1709 
L 2253 4666 
z
" transform="scale(0.015625)"/>
     </defs>
     <use xlink:href="#DejaVuSans-4c"/>
     <use xlink:href="#DejaVuSans-34" x="55.712891"/>
     <use xlink:href="#DejaVuSans-5f" x="119.335938"/>
     <use xlink:href="#DejaVuSans-54" x="169.335938"/>
     <use xlink:href="#DejaVuSans-50" x="230.419922"/>
     <use xlink:href="#DejaVuSans-43" x="290.722656"/>
    </g>
   </g>
   <g id="legend_6"/>
  </g>
  <g id="axes_7">
   <g id="patch_20">
    <path d="M 40.36396 239.522962 
L 112.549415 239.522962 
L 112.549415 197.70865 
L 40.36396 197.70865 
L 40.36396 239.522962 
z
" style="fill: none"/>
   </g>
   <g id="matplotlib.axis_13"/>
   <g id="matplotlib.axis_14">
    <g id="ytick_15">
     <g id="line2d_27">
      <g>
       <use xlink:href="#me72c11b4be" x="36.754688" y="234.88038" style="stroke: #000000; stroke-width: 0.5"/>
      </g>
     </g>
     <g id="text_21">
      <!-- −0.1 -->
      <g transform="translate(14.835 237.159912) scale(0.06 -0.06)">
       <use xlink:href="#DejaVuSans-2212"/>
       <use xlink:href="#DejaVuSans-30" x="83.789062"/>
       <use xlink:href="#DejaVuSans-2e" x="147.412109"/>
       <use xlink:href="#DejaVuSans-31" x="179.199219"/>
      </g>
     </g>
    </g>
    <g id="ytick_16">
     <g id="line2d_28">
      <g>
       <use xlink:href="#me72c11b4be" x="36.754688" y="208.055984" style="stroke: #000000; stroke-width: 0.5"/>
      </g>
     </g>
     <g id="text_22">
      <!-- 0.0 -->
      <g transform="translate(19.862813 210.335515) scale(0.06 -0.06)">
       <use xlink:href="#DejaVuSans-30"/>
       <use xlink:href="#DejaVuSans-2e" x="63.623047"/>
       <use xlink:href="#DejaVuSans-30" x="95.410156"/>
      </g>
     </g>
    </g>
   </g>
   <g id="line2d_29">
    <path d="M 43.645117 207.962358 
L 56.85229 207.805619 
L 58.503187 207.640269 
L 59.328635 207.424587 
L 59.741359 207.214307 
L 60.154083 206.852013 
L 60.566808 206.23627 
L 61.392256 204.240688 
L 62.630428 200.978254 
L 63.043152 200.172481 
L 63.455877 199.656727 
L 63.868601 199.6093 
L 64.281325 200.328568 
L 64.694049 202.240311 
L 65.106773 205.668657 
L 65.932222 214.063122 
L 66.344946 216.52712 
L 66.75767 217.570425 
L 67.170394 217.680265 
L 67.583118 217.277895 
L 68.821291 215.14011 
L 70.059463 213.192268 
L 71.297636 211.765654 
L 72.535808 210.67902 
L 76.250325 207.698007 
L 77.488498 206.263132 
L 78.72667 204.824934 
L 79.552119 204.313647 
L 80.377567 204.202807 
L 81.615739 204.40431 
L 85.742981 205.308495 
L 89.457498 205.810023 
L 95.235637 206.342181 
L 103.077395 206.833602 
L 109.268258 207.114864 
L 109.268258 207.114864 
" clip-path="url(#pbb8796b645)" style="fill: none; stroke: #d62728; stroke-width: 0.5; stroke-linecap: square"/>
   </g>
   <g id="line2d_30">
    <path d="M 43.645117 208.352211 
L 55.201394 208.522814 
L 59.741359 208.594465 
L 60.566808 208.36397 
L 60.979532 208.701303 
L 61.392256 210.491357 
L 61.80498 214.899446 
L 63.043152 236.253448 
L 63.455877 237.622311 
L 63.868601 235.83657 
L 64.694049 228.36224 
L 65.519497 220.979695 
L 66.344946 216.687646 
L 67.170394 214.051197 
L 67.995842 212.356086 
L 68.821291 211.280436 
L 69.646739 210.577501 
L 70.884911 209.886598 
L 72.535808 209.293363 
L 74.186705 208.940337 
L 76.250325 208.783889 
L 77.075774 208.669954 
L 77.901222 208.243888 
L 78.72667 207.366908 
L 80.377567 205.311605 
L 81.203015 204.690755 
L 82.028464 204.363795 
L 83.266636 204.168952 
L 84.917533 204.162445 
L 87.393878 204.403978 
L 98.950154 205.84093 
L 105.141016 206.309488 
L 109.268258 206.566713 
L 109.268258 206.566713 
" clip-path="url(#pbb8796b645)" style="fill: none; stroke: #ff7f0e; stroke-width: 0.5; stroke-linecap: square"/>
   </g>
   <g id="patch_21">
    <path d="M 36.754688 239.522962 
L 36.754688 197.70865 
" style="fill: none; stroke: #000000; stroke-width: 0.5; stroke-linejoin: miter; stroke-linecap: square"/>
   </g>
   <g id="patch_22">
    <path d="M 40.36396 241.613677 
L 112.549415 241.613677 
" style="fill: none; stroke: #000000; stroke-width: 0.5; stroke-linejoin: miter; stroke-linecap: square"/>
   </g>
   <g id="text_23">
    <!-- L4_UPC -->
    <g transform="translate(63.041062 191.70865) scale(0.072 -0.072)">
     <use xlink:href="#DejaVuSans-4c"/>
     <use xlink:href="#DejaVuSans-34" x="55.712891"/>
     <use xlink:href="#DejaVuSans-5f" x="119.335938"/>
     <use xlink:href="#DejaVuSans-55" x="169.335938"/>
     <use xlink:href="#DejaVuSans-50" x="242.529297"/>
     <use xlink:href="#DejaVuSans-43" x="302.832031"/>
    </g>
   </g>
   <g id="legend_7"/>
  </g>
  <g id="axes_8">
   <g id="patch_23">
    <path d="M 144.97396 239.522962 
L 217.159415 239.522962 
L 217.159415 197.70865 
L 144.97396 197.70865 
L 144.97396 239.522962 
z
" style="fill: none"/>
   </g>
   <g id="matplotlib.axis_15"/>
   <g id="matplotlib.axis_16">
    <g id="ytick_17">
     <g id="line2d_31">
      <g>
       <use xlink:href="#me72c11b4be" x="141.364688" y="230.136533" style="stroke: #000000; stroke-width: 0.5"/>
      </g>
     </g>
     <g id="text_24">
      <!-- −0.05 -->
      <g transform="translate(115.6275 232.416064) scale(0.06 -0.06)">
       <use xlink:href="#DejaVuSans-2212"/>
       <use xlink:href="#DejaVuSans-30" x="83.789062"/>
       <use xlink:href="#DejaVuSans-2e" x="147.412109"/>
       <use xlink:href="#DejaVuSans-30" x="179.199219"/>
       <use xlink:href="#DejaVuSans-35" x="242.822266"/>
      </g>
     </g>
    </g>
    <g id="ytick_18">
     <g id="line2d_32">
      <g>
       <use xlink:href="#me72c11b4be" x="141.364688" y="211.839871" style="stroke: #000000; stroke-width: 0.5"/>
      </g>
     </g>
     <g id="text_25">
      <!-- 0.00 -->
      <g transform="translate(120.655313 214.119402) scale(0.06 -0.06)">
       <use xlink:href="#DejaVuSans-30"/>
       <use xlink:href="#DejaVuSans-2e" x="63.623047"/>
       <use xlink:href="#DejaVuSans-30" x="95.410156"/>
       <use xlink:href="#DejaVuSans-30" x="159.033203"/>
      </g>
     </g>
    </g>
   </g>
   <g id="line2d_33">
    <path d="M 148.255117 211.603563 
L 162.700463 211.544859 
L 163.938635 211.393614 
L 164.351359 211.255204 
L 164.764083 210.988011 
L 165.589532 209.79889 
L 166.002256 209.268627 
L 166.41498 209.030691 
L 166.827704 209.083476 
L 167.240428 209.351639 
L 168.065877 210.347787 
L 169.304049 212.070984 
L 170.542222 213.368609 
L 172.193118 214.729969 
L 173.431291 215.517149 
L 174.669463 216.030049 
L 175.907636 216.30428 
L 177.971256 216.461994 
L 183.33667 216.689582 
L 187.051188 217.130629 
L 187.463912 217.655171 
L 187.876636 219.170433 
L 188.28936 222.084624 
L 189.114809 229.472353 
L 189.527533 231.901566 
L 189.940257 232.994127 
L 190.352981 232.964379 
L 190.765705 232.155785 
L 191.591153 229.418289 
L 192.829326 225.075516 
L 194.067498 221.667961 
L 195.305671 219.087434 
L 196.956567 216.363551 
L 198.607464 213.72519 
L 199.432912 211.971251 
L 201.909257 205.594204 
L 202.734706 204.529146 
L 203.560154 204.027827 
L 204.385602 203.872829 
L 205.623775 203.966776 
L 207.687395 204.4152 
L 213.878258 206.016915 
L 213.878258 206.016915 
" clip-path="url(#pb3607ecf37)" style="fill: none; stroke: #d62728; stroke-width: 0.5; stroke-linecap: square"/>
   </g>
   <g id="line2d_34">
    <path d="M 148.255117 211.711971 
L 162.700463 211.888022 
L 164.351359 212.060555 
L 165.176808 212.411188 
L 166.002256 213.179355 
L 166.41498 213.344109 
L 167.240428 213.158913 
L 168.065877 213.064928 
L 173.431291 213.898305 
L 181.685774 215.878607 
L 182.923946 216.521919 
L 183.749395 217.178996 
L 184.574843 218.183906 
L 185.400291 219.84408 
L 185.813015 221.098736 
L 186.225739 222.793251 
L 186.638464 225.078466 
L 187.463912 231.576888 
L 187.876636 234.969114 
L 188.28936 237.194286 
L 188.702084 237.622311 
L 189.114809 236.463222 
L 189.940257 231.839685 
L 191.178429 224.902389 
L 192.003878 221.534809 
L 192.829326 218.981046 
L 194.067498 216.031845 
L 197.369292 208.966086 
L 198.607464 205.359034 
L 199.845637 201.685938 
L 200.671085 200.161758 
L 201.083809 199.782088 
L 201.496533 199.615642 
L 202.321981 199.711831 
L 203.560154 200.331688 
L 207.274671 202.43406 
L 210.16374 203.758644 
L 213.052809 204.871144 
L 213.878258 205.149807 
L 213.878258 205.149807 
" clip-path="url(#pb3607ecf37)" style="fill: none; stroke: #ff7f0e; stroke-width: 0.5; stroke-linecap: square"/>
   </g>
   <g id="patch_24">
    <path d="M 141.364688 239.522962 
L 141.364688 197.70865 
" style="fill: none; stroke: #000000; stroke-width: 0.5; stroke-linejoin: miter; stroke-linecap: square"/>
   </g>
   <g id="patch_25">
    <path d="M 144.97396 241.613677 
L 217.159415 241.613677 
" style="fill: none; stroke: #000000; stroke-width: 0.5; stroke-linejoin: miter; stroke-linecap: square"/>
   </g>
   <g id="text_26">
    <!-- L4_SSC -->
    <g transform="translate(167.885625 191.70865) scale(0.072 -0.072)">
     <defs>
      <path id="DejaVuSans-53" d="M 3425 4513 
L 3425 3897 
Q 3066 4069 2747 4153 
Q 2428 4238 2131 4238 
Q 1616 4238 1336 4038 
Q 1056 3838 1056 3469 
Q 1056 3159 1242 3001 
Q 1428 2844 1947 2747 
L 2328 2669 
Q 3034 2534 3370 2195 
Q 3706 1856 3706 1288 
Q 3706 609 3251 259 
Q 2797 -91 1919 -91 
Q 1588 -91 1214 -16 
Q 841 59 441 206 
L 441 856 
Q 825 641 1194 531 
Q 1563 422 1919 422 
Q 2459 422 2753 634 
Q 3047 847 3047 1241 
Q 3047 1584 2836 1778 
Q 2625 1972 2144 2069 
L 1759 2144 
Q 1053 2284 737 2584 
Q 422 2884 422 3419 
Q 422 4038 858 4394 
Q 1294 4750 2059 4750 
Q 2388 4750 2728 4690 
Q 3069 4631 3425 4513 
z
" transform="scale(0.015625)"/>
     </defs>
     <use xlink:href="#DejaVuSans-4c"/>
     <use xlink:href="#DejaVuSans-34" x="55.712891"/>
     <use xlink:href="#DejaVuSans-5f" x="119.335938"/>
     <use xlink:href="#DejaVuSans-53" x="169.335938"/>
     <use xlink:href="#DejaVuSans-53" x="232.8125"/>
     <use xlink:href="#DejaVuSans-43" x="296.289062"/>
    </g>
   </g>
   <g id="legend_8"/>
  </g>
  <g id="axes_9">
   <g id="patch_26">
    <path d="M 40.36396 299.244595 
L 112.549415 299.244595 
L 112.549415 257.430283 
L 40.36396 257.430283 
L 40.36396 299.244595 
z
" style="fill: none"/>
   </g>
   <g id="matplotlib.axis_17"/>
   <g id="matplotlib.axis_18">
    <g id="ytick_19">
     <g id="line2d_35">
      <g>
       <use xlink:href="#me72c11b4be" x="36.754688" y="296.284007" style="stroke: #000000; stroke-width: 0.5"/>
      </g>
     </g>
     <g id="text_27">
      <!-- −0.1 -->
      <g transform="translate(14.835 298.563538) scale(0.06 -0.06)">
       <use xlink:href="#DejaVuSans-2212"/>
       <use xlink:href="#DejaVuSans-30" x="83.789062"/>
       <use xlink:href="#DejaVuSans-2e" x="147.412109"/>
       <use xlink:href="#DejaVuSans-31" x="179.199219"/>
      </g>
     </g>
    </g>
    <g id="ytick_20">
     <g id="line2d_36">
      <g>
       <use xlink:href="#me72c11b4be" x="36.754688" y="270.913037" style="stroke: #000000; stroke-width: 0.5"/>
      </g>
     </g>
     <g id="text_28">
      <!-- 0.0 -->
      <g transform="translate(19.862813 273.192568) scale(0.06 -0.06)">
       <use xlink:href="#DejaVuSans-30"/>
       <use xlink:href="#DejaVuSans-2e" x="63.623047"/>
       <use xlink:href="#DejaVuSans-30" x="95.410156"/>
      </g>
     </g>
    </g>
   </g>
   <g id="line2d_37">
    <path d="M 43.645117 270.830132 
L 54.788669 270.686535 
L 57.265014 270.495778 
L 58.503187 270.212133 
L 59.328635 269.722382 
L 59.741359 269.193846 
L 60.154083 268.158939 
L 60.566808 266.063282 
L 61.392256 260.516006 
L 61.80498 259.330933 
L 62.217704 259.731239 
L 62.630428 262.082371 
L 63.868601 272.905834 
L 64.281325 274.795745 
L 64.694049 275.729262 
L 65.106773 276.0262 
L 65.519497 275.957148 
L 66.344946 275.38215 
L 68.408566 273.815209 
L 72.535808 271.145495 
L 73.77398 270.56528 
L 74.599429 270.444211 
L 75.424877 270.707345 
L 76.66305 271.497404 
L 77.075774 271.532856 
L 77.488498 271.369168 
L 79.964843 269.675211 
L 81.203015 269.351854 
L 83.266636 269.118191 
L 86.981153 268.954895 
L 91.108395 268.985933 
L 101.839223 269.409356 
L 109.268258 269.648636 
L 109.268258 269.648636 
" clip-path="url(#pc3688cf813)" style="fill: none; stroke: #d62728; stroke-width: 0.5; stroke-linecap: square"/>
   </g>
   <g id="line2d_38">
    <path d="M 43.645117 271.231879 
L 53.137773 271.437198 
L 56.439566 271.666439 
L 58.090463 271.940167 
L 58.915911 272.20485 
L 59.741359 272.706346 
L 60.154083 273.193639 
L 60.566808 274.469194 
L 60.979532 280.050821 
L 61.392256 291.487661 
L 61.80498 297.343944 
L 62.217704 295.215023 
L 63.043152 286.908071 
L 63.868601 281.542013 
L 64.694049 277.778618 
L 65.519497 275.313529 
L 66.344946 273.715048 
L 67.170394 272.603393 
L 68.408566 271.397261 
L 70.059463 270.213553 
L 72.123084 269.068124 
L 73.77398 268.13883 
L 74.599429 267.428546 
L 75.424877 266.252076 
L 77.075774 262.892801 
L 77.488498 262.496374 
L 77.901222 262.378355 
L 78.72667 262.614925 
L 81.203015 263.745392 
L 83.266636 264.43013 
L 85.742981 265.023503 
L 89.044774 265.574343 
L 95.235637 266.327085 
L 104.315568 267.213849 
L 109.268258 267.591242 
L 109.268258 267.591242 
" clip-path="url(#pc3688cf813)" style="fill: none; stroke: #ff7f0e; stroke-width: 0.5; stroke-linecap: square"/>
   </g>
   <g id="patch_27">
    <path d="M 36.754688 299.244595 
L 36.754688 257.430283 
" style="fill: none; stroke: #000000; stroke-width: 0.5; stroke-linejoin: miter; stroke-linecap: square"/>
   </g>
   <g id="patch_28">
    <path d="M 40.36396 301.335311 
L 112.549415 301.335311 
" style="fill: none; stroke: #000000; stroke-width: 0.5; stroke-linejoin: miter; stroke-linecap: square"/>
   </g>
   <g id="text_29">
    <!-- L6_TPC:A -->
    <g transform="translate(59.801625 251.430283) scale(0.072 -0.072)">
     <defs>
      <path id="DejaVuSans-41" d="M 2188 4044 
L 1331 1722 
L 3047 1722 
L 2188 4044 
z
M 1831 4666 
L 2547 4666 
L 4325 0 
L 3669 0 
L 3244 1197 
L 1141 1197 
L 716 0 
L 50 0 
L 1831 4666 
z
" transform="scale(0.015625)"/>
     </defs>
     <use xlink:href="#DejaVuSans-4c"/>
     <use xlink:href="#DejaVuSans-36" x="55.712891"/>
     <use xlink:href="#DejaVuSans-5f" x="119.335938"/>
     <use xlink:href="#DejaVuSans-54" x="169.335938"/>
     <use xlink:href="#DejaVuSans-50" x="230.419922"/>
     <use xlink:href="#DejaVuSans-43" x="290.722656"/>
     <use xlink:href="#DejaVuSans-3a" x="360.546875"/>
     <use xlink:href="#DejaVuSans-41" x="394.238281"/>
    </g>
   </g>
   <g id="legend_9"/>
  </g>
  <g id="axes_10">
   <g id="patch_29">
    <path d="M 144.97396 299.244595 
L 217.159415 299.244595 
L 217.159415 257.430283 
L 144.97396 257.430283 
L 144.97396 299.244595 
z
" style="fill: none"/>
   </g>
   <g id="matplotlib.axis_19"/>
   <g id="matplotlib.axis_20">
    <g id="ytick_21">
     <g id="line2d_39">
      <g>
       <use xlink:href="#me72c11b4be" x="141.364688" y="293.886693" style="stroke: #000000; stroke-width: 0.5"/>
      </g>
     </g>
     <g id="text_30">
      <!-- −0.1 -->
      <g transform="translate(119.445 296.166224) scale(0.06 -0.06)">
       <use xlink:href="#DejaVuSans-2212"/>
       <use xlink:href="#DejaVuSans-30" x="83.789062"/>
       <use xlink:href="#DejaVuSans-2e" x="147.412109"/>
       <use xlink:href="#DejaVuSans-31" x="179.199219"/>
      </g>
     </g>
    </g>
    <g id="ytick_22">
     <g id="line2d_40">
      <g>
       <use xlink:href="#me72c11b4be" x="141.364688" y="266.314279" style="stroke: #000000; stroke-width: 0.5"/>
      </g>
     </g>
     <g id="text_31">
      <!-- 0.0 -->
      <g transform="translate(124.472813 268.59381) scale(0.06 -0.06)">
       <use xlink:href="#DejaVuSans-30"/>
       <use xlink:href="#DejaVuSans-2e" x="63.623047"/>
       <use xlink:href="#DejaVuSans-30" x="95.410156"/>
      </g>
     </g>
    </g>
   </g>
   <g id="line2d_41">
    <path d="M 148.255117 266.530703 
L 156.922324 266.69094 
L 162.287738 266.686686 
L 163.525911 266.430016 
L 163.938635 266.212762 
L 164.351359 265.844018 
L 164.764083 265.233131 
L 165.176808 264.371044 
L 165.589532 263.806855 
L 166.002256 265.093681 
L 166.41498 269.205879 
L 168.065877 292.299473 
L 168.478601 295.792675 
L 168.891325 297.343944 
L 169.304049 297.236634 
L 169.716773 296.028659 
L 172.605842 283.828633 
L 173.844015 280.381328 
L 175.494911 276.602861 
L 177.971256 270.969358 
L 180.034877 265.416037 
L 181.27305 262.389491 
L 182.098498 260.977224 
L 182.923946 260.099785 
L 183.749395 259.630461 
L 184.574843 259.415903 
L 185.813015 259.330933 
L 188.28936 259.428302 
L 191.591153 259.757143 
L 194.892947 260.352148 
L 198.19474 260.885383 
L 202.734706 261.399223 
L 213.878258 262.577491 
L 213.878258 262.577491 
" clip-path="url(#pc16bb8043c)" style="fill: none; stroke: #d62728; stroke-width: 0.5; stroke-linecap: square"/>
   </g>
   <g id="line2d_42">
    <path d="M 148.255117 266.851014 
L 154.033255 267.066615 
L 158.985945 267.519805 
L 161.049566 267.911376 
L 162.287738 268.328581 
L 163.113187 268.801437 
L 163.938635 269.626827 
L 164.351359 270.305587 
L 164.764083 271.309255 
L 165.176808 272.792095 
L 166.002256 276.574774 
L 167.240428 280.133519 
L 168.478601 288.443964 
L 168.891325 289.439556 
L 169.304049 289.228154 
L 169.716773 288.255979 
L 172.605842 279.097207 
L 173.844015 276.338262 
L 175.907636 272.462944 
L 177.971256 268.528009 
L 180.860325 262.613418 
L 181.685774 261.474627 
L 182.511222 260.780215 
L 183.33667 260.428806 
L 184.162119 260.298781 
L 185.400291 260.326659 
L 188.28936 260.707427 
L 191.178429 260.996025 
L 193.24205 260.976958 
L 196.131119 260.677719 
L 199.020188 260.450034 
L 201.496533 260.502947 
L 205.211051 260.837553 
L 213.878258 261.843496 
L 213.878258 261.843496 
" clip-path="url(#pc16bb8043c)" style="fill: none; stroke: #ff7f0e; stroke-width: 0.5; stroke-linecap: square"/>
   </g>
   <g id="patch_30">
    <path d="M 141.364688 299.244595 
L 141.364688 257.430283 
" style="fill: none; stroke: #000000; stroke-width: 0.5; stroke-linejoin: miter; stroke-linecap: square"/>
   </g>
   <g id="patch_31">
    <path d="M 144.97396 301.335311 
L 217.159415 301.335311 
" style="fill: none; stroke: #000000; stroke-width: 0.5; stroke-linejoin: miter; stroke-linecap: square"/>
   </g>
   <g id="text_32">
    <!-- L3_TPC:C -->
    <g transform="translate(164.360437 251.430283) scale(0.072 -0.072)">
     <defs>
      <path id="DejaVuSans-33" d="M 2597 2516 
Q 3050 2419 3304 2112 
Q 3559 1806 3559 1356 
Q 3559 666 3084 287 
Q 2609 -91 1734 -91 
Q 1441 -91 1130 -33 
Q 819 25 488 141 
L 488 750 
Q 750 597 1062 519 
Q 1375 441 1716 441 
Q 2309 441 2620 675 
Q 2931 909 2931 1356 
Q 2931 1769 2642 2001 
Q 2353 2234 1838 2234 
L 1294 2234 
L 1294 2753 
L 1863 2753 
Q 2328 2753 2575 2939 
Q 2822 3125 2822 3475 
Q 2822 3834 2567 4026 
Q 2313 4219 1838 4219 
Q 1578 4219 1281 4162 
Q 984 4106 628 3988 
L 628 4550 
Q 988 4650 1302 4700 
Q 1616 4750 1894 4750 
Q 2613 4750 3031 4423 
Q 3450 4097 3450 3541 
Q 3450 3153 3228 2886 
Q 3006 2619 2597 2516 
z
" transform="scale(0.015625)"/>
     </defs>
     <use xlink:href="#DejaVuSans-4c"/>
     <use xlink:href="#DejaVuSans-33" x="55.712891"/>
     <use xlink:href="#DejaVuSans-5f" x="119.335938"/>
     <use xlink:href="#DejaVuSans-54" x="169.335938"/>
     <use xlink:href="#DejaVuSans-50" x="230.419922"/>
     <use xlink:href="#DejaVuSans-43" x="290.722656"/>
     <use xlink:href="#DejaVuSans-3a" x="360.546875"/>
     <use xlink:href="#DejaVuSans-43" x="394.238281"/>
    </g>
   </g>
   <g id="legend_10"/>
  </g>
  <g id="axes_11">
   <g id="patch_32">
    <path d="M 40.36396 358.966228 
L 112.549415 358.966228 
L 112.549415 317.151916 
L 40.36396 317.151916 
L 40.36396 358.966228 
z
" style="fill: none"/>
   </g>
   <g id="matplotlib.axis_21"/>
   <g id="matplotlib.axis_22">
    <g id="ytick_23">
     <g id="line2d_43">
      <g>
       <use xlink:href="#me72c11b4be" x="36.754688" y="355.761665" style="stroke: #000000; stroke-width: 0.5"/>
      </g>
     </g>
     <g id="text_33">
      <!-- −0.1 -->
      <g transform="translate(14.835 358.041196) scale(0.06 -0.06)">
       <use xlink:href="#DejaVuSans-2212"/>
       <use xlink:href="#DejaVuSans-30" x="83.789062"/>
       <use xlink:href="#DejaVuSans-2e" x="147.412109"/>
       <use xlink:href="#DejaVuSans-31" x="179.199219"/>
      </g>
     </g>
    </g>
    <g id="ytick_24">
     <g id="line2d_44">
      <g>
       <use xlink:href="#me72c11b4be" x="36.754688" y="331.080954" style="stroke: #000000; stroke-width: 0.5"/>
      </g>
     </g>
     <g id="text_34">
      <!-- 0.0 -->
      <g transform="translate(19.862813 333.360486) scale(0.06 -0.06)">
       <use xlink:href="#DejaVuSans-30"/>
       <use xlink:href="#DejaVuSans-2e" x="63.623047"/>
       <use xlink:href="#DejaVuSans-30" x="95.410156"/>
      </g>
     </g>
    </g>
   </g>
   <g id="line2d_45">
    <path d="M 43.645117 330.852853 
L 54.788669 330.645435 
L 56.85229 330.323697 
L 57.677738 330.055178 
L 58.503187 329.55982 
L 58.915911 329.144943 
L 59.328635 328.52349 
L 59.741359 327.554688 
L 60.154083 326.012517 
L 61.392256 319.052567 
L 61.80498 319.419415 
L 62.217704 321.824777 
L 63.043152 330.1305 
L 64.281325 345.744212 
L 64.694049 349.382476 
L 65.106773 351.480002 
L 65.519497 352.229097 
L 65.932222 352.010027 
L 66.344946 351.193121 
L 67.583118 347.540799 
L 68.821291 344.095398 
L 70.059463 341.267517 
L 72.123084 337.24337 
L 73.77398 333.938825 
L 75.424877 330.116972 
L 76.66305 327.233516 
L 77.488498 325.703375 
L 78.313946 324.649561 
L 79.139395 324.038956 
L 79.964843 323.742469 
L 81.203015 323.639477 
L 82.441188 323.782282 
L 84.504809 324.282322 
L 86.568429 325.024114 
L 91.521119 327.031832 
L 93.172016 327.387688 
L 96.473809 327.776988 
L 109.268258 328.731221 
L 109.268258 328.731221 
" clip-path="url(#pb9693685c0)" style="fill: none; stroke: #d62728; stroke-width: 0.5; stroke-linecap: square"/>
   </g>
   <g id="line2d_46">
    <path d="M 43.645117 331.767966 
L 47.772359 332.019205 
L 52.312324 332.464738 
L 54.788669 332.902978 
L 56.439566 333.444178 
L 57.265014 333.890178 
L 58.090463 334.561068 
L 58.915911 335.676414 
L 59.328635 336.559563 
L 59.741359 337.848537 
L 60.154083 339.835822 
L 60.566808 343.006855 
L 61.80498 356.370222 
L 62.217704 357.065578 
L 62.630428 356.310358 
L 63.455877 354.228202 
L 64.694049 352.151694 
L 65.519497 349.753612 
L 67.170394 344.540595 
L 68.408566 341.654849 
L 69.646739 339.474464 
L 71.297636 337.181358 
L 74.186705 333.781563 
L 77.901222 329.537562 
L 78.72667 328.956842 
L 79.964843 328.440032 
L 81.203015 328.187504 
L 85.330257 327.615398 
L 86.981153 327.09219 
L 89.457498 325.999239 
L 91.933843 324.959464 
L 93.58474 324.550586 
L 95.235637 324.429115 
L 97.299257 324.529724 
L 99.775602 324.888327 
L 108.030085 326.179318 
L 109.268258 326.309077 
L 109.268258 326.309077 
" clip-path="url(#pb9693685c0)" style="fill: none; stroke: #ff7f0e; stroke-width: 0.5; stroke-linecap: square"/>
   </g>
   <g id="patch_33">
    <path d="M 36.754688 358.966228 
L 36.754688 317.151916 
" style="fill: none; stroke: #000000; stroke-width: 0.5; stroke-linejoin: miter; stroke-linecap: square"/>
   </g>
   <g id="patch_34">
    <path d="M 40.36396 361.056944 
L 112.549415 361.056944 
" style="fill: none; stroke: #000000; stroke-width: 0.5; stroke-linejoin: miter; stroke-linecap: square"/>
   </g>
   <g id="text_35">
    <!-- L2_IPC -->
    <g transform="translate(64.613812 311.151916) scale(0.072 -0.072)">
     <use xlink:href="#DejaVuSans-4c"/>
     <use xlink:href="#DejaVuSans-32" x="55.712891"/>
     <use xlink:href="#DejaVuSans-5f" x="119.335938"/>
     <use xlink:href="#DejaVuSans-49" x="169.335938"/>
     <use xlink:href="#DejaVuSans-50" x="198.828125"/>
     <use xlink:href="#DejaVuSans-43" x="259.130859"/>
    </g>
   </g>
   <g id="legend_11"/>
  </g>
  <g id="axes_12">
   <g id="patch_35">
    <path d="M 144.97396 358.966228 
L 217.159415 358.966228 
L 217.159415 317.151916 
L 144.97396 317.151916 
L 144.97396 358.966228 
z
" style="fill: none"/>
   </g>
   <g id="matplotlib.axis_23"/>
   <g id="matplotlib.axis_24">
    <g id="ytick_25">
     <g id="line2d_47">
      <g>
       <use xlink:href="#me72c11b4be" x="141.364688" y="357.676072" style="stroke: #000000; stroke-width: 0.5"/>
      </g>
     </g>
     <g id="text_36">
      <!-- −0.2 -->
      <g transform="translate(119.445 359.955603) scale(0.06 -0.06)">
       <use xlink:href="#DejaVuSans-2212"/>
       <use xlink:href="#DejaVuSans-30" x="83.789062"/>
       <use xlink:href="#DejaVuSans-2e" x="147.412109"/>
       <use xlink:href="#DejaVuSans-32" x="179.199219"/>
      </g>
     </g>
    </g>
    <g id="ytick_26">
     <g id="line2d_48">
      <g>
       <use xlink:href="#me72c11b4be" x="141.364688" y="332.586905" style="stroke: #000000; stroke-width: 0.5"/>
      </g>
     </g>
     <g id="text_37">
      <!-- 0.0 -->
      <g transform="translate(124.472813 334.866436) scale(0.06 -0.06)">
       <use xlink:href="#DejaVuSans-30"/>
       <use xlink:href="#DejaVuSans-2e" x="63.623047"/>
       <use xlink:href="#DejaVuSans-30" x="95.410156"/>
      </g>
     </g>
    </g>
   </g>
   <g id="line2d_49">
    <path d="M 148.255117 332.496391 
L 161.46229 332.372442 
L 163.113187 332.18189 
L 163.938635 331.961497 
L 164.764083 331.508883 
L 165.589532 330.606294 
L 166.41498 329.556426 
L 166.827704 329.387504 
L 167.240428 329.633296 
L 167.653152 330.345962 
L 168.065877 331.598481 
L 168.478601 333.594247 
L 168.891325 336.745023 
L 170.129497 352.031552 
L 170.542222 353.97896 
L 170.954946 353.693177 
L 171.780394 350.645775 
L 173.018566 345.587728 
L 174.256739 341.527851 
L 175.494911 338.497492 
L 176.733084 336.152901 
L 178.38398 333.627018 
L 181.27305 329.475368 
L 182.511222 327.153933 
L 184.162119 323.69867 
L 184.987567 322.536625 
L 185.400291 322.21402 
L 185.813015 322.047829 
L 186.638464 322.05025 
L 187.876636 322.462429 
L 193.24205 324.643381 
L 196.131119 325.527427 
L 200.671085 326.648959 
L 204.798326 327.447562 
L 208.925568 328.052338 
L 213.878258 328.682253 
L 213.878258 328.682253 
" clip-path="url(#p9962e2045d)" style="fill: none; stroke: #d62728; stroke-width: 0.5; stroke-linecap: square"/>
   </g>
   <g id="line2d_50">
    <path d="M 148.255117 333.144574 
L 156.096876 333.434055 
L 158.985945 333.724877 
L 161.46229 334.165292 
L 162.700463 334.535136 
L 163.525911 334.927442 
L 164.351359 335.561852 
L 164.764083 336.05487 
L 165.176808 336.774723 
L 165.589532 337.910231 
L 166.002256 339.786882 
L 166.41498 342.7214 
L 167.653152 353.935205 
L 168.065877 356.016133 
L 168.478601 356.939436 
L 168.891325 357.065578 
L 169.304049 356.801328 
L 169.716773 356.367154 
L 170.129497 355.532275 
L 170.542222 353.872805 
L 171.36767 348.540779 
L 172.605842 340.47267 
L 173.431291 336.441216 
L 174.256739 333.461216 
L 175.082187 331.268612 
L 175.907636 329.603502 
L 177.145808 327.712738 
L 178.38398 326.272432 
L 180.447601 324.339163 
L 182.098498 322.693773 
L 184.987567 319.453795 
L 185.813015 319.102632 
L 186.638464 319.065756 
L 187.876636 319.352571 
L 190.352981 320.307162 
L 194.892947 322.127034 
L 199.020188 323.503491 
L 202.734706 324.560649 
L 206.861947 325.484282 
L 213.878258 326.649635 
L 213.878258 326.649635 
" clip-path="url(#p9962e2045d)" style="fill: none; stroke: #ff7f0e; stroke-width: 0.5; stroke-linecap: square"/>
   </g>
   <g id="patch_36">
    <path d="M 141.364688 358.966228 
L 141.364688 317.151916 
" style="fill: none; stroke: #000000; stroke-width: 0.5; stroke-linejoin: miter; stroke-linecap: square"/>
   </g>
   <g id="patch_37">
    <path d="M 144.97396 361.056944 
L 217.159415 361.056944 
" style="fill: none; stroke: #000000; stroke-width: 0.5; stroke-linejoin: miter; stroke-linecap: square"/>
   </g>
   <g id="text_38">
    <!-- L5_TPC:B -->
    <g transform="translate(164.404313 311.151916) scale(0.072 -0.072)">
     <use xlink:href="#DejaVuSans-4c"/>
     <use xlink:href="#DejaVuSans-35" x="55.712891"/>
     <use xlink:href="#DejaVuSans-5f" x="119.335938"/>
     <use xlink:href="#DejaVuSans-54" x="169.335938"/>
     <use xlink:href="#DejaVuSans-50" x="230.419922"/>
     <use xlink:href="#DejaVuSans-43" x="290.722656"/>
     <use xlink:href="#DejaVuSans-3a" x="360.546875"/>
     <use xlink:href="#DejaVuSans-42" x="394.238281"/>
    </g>
   </g>
   <g id="legend_12"/>
  </g>
  <g id="axes_13">
   <g id="patch_38">
    <path d="M 40.36396 418.687861 
L 112.549415 418.687861 
L 112.549415 376.873549 
L 40.36396 376.873549 
L 40.36396 418.687861 
z
" style="fill: none"/>
   </g>
   <g id="matplotlib.axis_25"/>
   <g id="matplotlib.axis_26">
    <g id="ytick_27">
     <g id="line2d_51">
      <g>
       <use xlink:href="#me72c11b4be" x="36.754688" y="417.163313" style="stroke: #000000; stroke-width: 0.5"/>
      </g>
     </g>
     <g id="text_39">
      <!-- −0.05 -->
      <g transform="translate(11.0175 419.442844) scale(0.06 -0.06)">
       <use xlink:href="#DejaVuSans-2212"/>
       <use xlink:href="#DejaVuSans-30" x="83.789062"/>
       <use xlink:href="#DejaVuSans-2e" x="147.412109"/>
       <use xlink:href="#DejaVuSans-30" x="179.199219"/>
       <use xlink:href="#DejaVuSans-35" x="242.822266"/>
      </g>
     </g>
    </g>
    <g id="ytick_28">
     <g id="line2d_52">
      <g>
       <use xlink:href="#me72c11b4be" x="36.754688" y="391.681059" style="stroke: #000000; stroke-width: 0.5"/>
      </g>
     </g>
     <g id="text_40">
      <!-- 0.00 -->
      <g transform="translate(16.045313 393.96059) scale(0.06 -0.06)">
       <use xlink:href="#DejaVuSans-30"/>
       <use xlink:href="#DejaVuSans-2e" x="63.623047"/>
       <use xlink:href="#DejaVuSans-30" x="95.410156"/>
       <use xlink:href="#DejaVuSans-30" x="159.033203"/>
      </g>
     </g>
    </g>
   </g>
   <g id="line2d_53">
    <path d="M 43.645117 391.447773 
L 56.439566 391.308967 
L 58.503187 391.129545 
L 59.328635 390.925632 
L 59.741359 390.728871 
L 60.154083 390.383846 
L 60.566808 389.761105 
L 61.392256 388.177058 
L 62.217704 387.262966 
L 62.630428 386.232129 
L 63.455877 382.491748 
L 64.281325 378.997557 
L 64.694049 378.7742 
L 65.106773 380.749975 
L 65.519497 385.857982 
L 66.344946 401.941019 
L 66.75767 406.798724 
L 67.170394 408.188971 
L 67.583118 407.583537 
L 68.408566 404.36851 
L 69.646739 399.307415 
L 70.472187 396.670687 
L 71.297636 394.672755 
L 72.123084 393.182289 
L 72.948532 392.045141 
L 74.186705 390.726985 
L 77.075774 387.899941 
L 78.313946 386.188043 
L 80.790291 382.270855 
L 81.203015 382.004168 
L 81.615739 381.930459 
L 82.028464 382.026253 
L 82.853912 382.566317 
L 86.568429 385.758059 
L 88.219326 386.770156 
L 89.870223 387.543844 
L 91.933843 388.263047 
L 94.822912 388.989251 
L 98.124706 389.560441 
L 103.077395 390.145318 
L 108.030085 390.521293 
L 109.268258 390.59222 
L 109.268258 390.59222 
" clip-path="url(#p35631c3bab)" style="fill: none; stroke: #d62728; stroke-width: 0.5; stroke-linecap: square"/>
   </g>
   <g id="line2d_54">
    <path d="M 43.645117 391.834076 
L 53.550497 392.047712 
L 57.265014 392.314704 
L 58.915911 392.625462 
L 59.741359 392.934026 
L 60.154083 393.187532 
L 60.566808 393.731511 
L 60.979532 395.919968 
L 61.392256 402.548002 
L 61.80498 411.480891 
L 62.217704 416.787211 
L 62.630428 416.659741 
L 63.043152 412.761678 
L 64.281325 396.016104 
L 64.694049 392.160278 
L 65.106773 390.324309 
L 65.519497 391.067308 
L 65.932222 394.275561 
L 66.344946 398.36987 
L 66.75767 401.187497 
L 67.170394 402.012239 
L 67.583118 401.410651 
L 68.408566 398.579572 
L 69.646739 394.329756 
L 70.472187 392.20137 
L 71.297636 390.614574 
L 72.123084 389.454111 
L 72.948532 388.600684 
L 74.186705 387.685222 
L 78.72667 384.925076 
L 80.377567 383.654355 
L 81.203015 383.348044 
L 82.028464 383.376296 
L 83.266636 383.777611 
L 89.870223 386.32136 
L 93.172016 387.349579 
L 96.473809 388.165858 
L 100.188326 388.825344 
L 105.55374 389.524602 
L 109.268258 389.836798 
L 109.268258 389.836798 
" clip-path="url(#p35631c3bab)" style="fill: none; stroke: #ff7f0e; stroke-width: 0.5; stroke-linecap: square"/>
   </g>
   <g id="patch_39">
    <path d="M 36.754688 418.687861 
L 36.754688 376.873549 
" style="fill: none; stroke: #000000; stroke-width: 0.5; stroke-linejoin: miter; stroke-linecap: square"/>
   </g>
   <g id="patch_40">
    <path d="M 40.36396 420.778577 
L 112.549415 420.778577 
" style="fill: none; stroke: #000000; stroke-width: 0.5; stroke-linejoin: miter; stroke-linecap: square"/>
   </g>
   <g id="text_41">
    <!-- L2_TPC:A -->
    <g transform="translate(59.801625 370.873549) scale(0.072 -0.072)">
     <use xlink:href="#DejaVuSans-4c"/>
     <use xlink:href="#DejaVuSans-32" x="55.712891"/>
     <use xlink:href="#DejaVuSans-5f" x="119.335938"/>
     <use xlink:href="#DejaVuSans-54" x="169.335938"/>
     <use xlink:href="#DejaVuSans-50" x="230.419922"/>
     <use xlink:href="#DejaVuSans-43" x="290.722656"/>
     <use xlink:href="#DejaVuSans-3a" x="360.546875"/>
     <use xlink:href="#DejaVuSans-41" x="394.238281"/>
    </g>
   </g>
   <g id="legend_13"/>
  </g>
  <g id="axes_14">
   <g id="patch_41">
    <path d="M 144.97396 418.687861 
L 217.159415 418.687861 
L 217.159415 376.873549 
L 144.97396 376.873549 
L 144.97396 418.687861 
z
" style="fill: none"/>
   </g>
   <g id="matplotlib.axis_27"/>
   <g id="matplotlib.axis_28">
    <g id="ytick_29">
     <g id="line2d_55">
      <g>
       <use xlink:href="#me72c11b4be" x="141.364688" y="417.864765" style="stroke: #000000; stroke-width: 0.5"/>
      </g>
     </g>
     <g id="text_42">
      <!-- −0.2 -->
      <g transform="translate(119.445 420.144297) scale(0.06 -0.06)">
       <use xlink:href="#DejaVuSans-2212"/>
       <use xlink:href="#DejaVuSans-30" x="83.789062"/>
       <use xlink:href="#DejaVuSans-2e" x="147.412109"/>
       <use xlink:href="#DejaVuSans-32" x="179.199219"/>
      </g>
     </g>
    </g>
    <g id="ytick_30">
     <g id="line2d_56">
      <g>
       <use xlink:href="#me72c11b4be" x="141.364688" y="403.274962" style="stroke: #000000; stroke-width: 0.5"/>
      </g>
     </g>
     <g id="text_43">
      <!-- −0.1 -->
      <g transform="translate(119.445 405.554493) scale(0.06 -0.06)">
       <use xlink:href="#DejaVuSans-2212"/>
       <use xlink:href="#DejaVuSans-30" x="83.789062"/>
       <use xlink:href="#DejaVuSans-2e" x="147.412109"/>
       <use xlink:href="#DejaVuSans-31" x="179.199219"/>
      </g>
     </g>
    </g>
    <g id="ytick_31">
     <g id="line2d_57">
      <g>
       <use xlink:href="#me72c11b4be" x="141.364688" y="388.685158" style="stroke: #000000; stroke-width: 0.5"/>
      </g>
     </g>
     <g id="text_44">
      <!-- 0.0 -->
      <g transform="translate(124.472813 390.964689) scale(0.06 -0.06)">
       <use xlink:href="#DejaVuSans-30"/>
       <use xlink:href="#DejaVuSans-2e" x="63.623047"/>
       <use xlink:href="#DejaVuSans-30" x="95.410156"/>
      </g>
     </g>
    </g>
   </g>
   <g id="line2d_58">
    <path d="M 148.255117 388.576757 
L 160.224118 388.409161 
L 162.700463 388.227455 
L 163.938635 387.922301 
L 164.764083 387.379492 
L 165.176808 386.87231 
L 166.002256 385.507403 
L 166.41498 385.065511 
L 166.827704 384.911738 
L 167.240428 384.976147 
L 167.653152 385.208634 
L 168.065877 385.60818 
L 168.478601 386.221796 
L 168.891325 387.155774 
L 169.304049 388.594873 
L 169.716773 390.79523 
L 170.542222 397.802806 
L 170.954946 401.424424 
L 171.36767 403.834181 
L 171.780394 404.814943 
L 172.193118 404.763238 
L 172.605842 404.14109 
L 173.844015 401.207197 
L 175.494911 397.413897 
L 176.733084 395.184281 
L 177.971256 393.435928 
L 179.622153 391.587625 
L 184.162119 386.894928 
L 186.225739 384.382849 
L 187.051188 383.685529 
L 187.876636 383.28475 
L 188.702084 383.12679 
L 189.940257 383.152423 
L 192.829326 383.552588 
L 201.496533 384.771555 
L 207.687395 385.387764 
L 213.878258 385.902776 
L 213.878258 385.902776 
" clip-path="url(#pc48a5113ed)" style="fill: none; stroke: #d62728; stroke-width: 0.5; stroke-linecap: square"/>
   </g>
   <g id="line2d_59">
    <path d="M 148.255117 389.065716 
L 157.335049 389.260074 
L 161.049566 389.548585 
L 162.700463 389.842546 
L 163.938635 390.271157 
L 164.764083 390.851261 
L 165.176808 391.427604 
L 165.589532 392.602048 
L 166.002256 395.076118 
L 166.827704 404.516351 
L 167.653152 413.44133 
L 168.065877 415.794424 
L 168.478601 416.787211 
L 168.891325 416.77801 
L 169.304049 416.138416 
L 170.129497 414.136074 
L 170.542222 412.886532 
L 170.954946 410.995826 
L 171.780394 405.21209 
L 172.605842 399.388829 
L 173.431291 394.79764 
L 174.256739 391.421843 
L 175.082187 389.003831 
L 175.907636 387.267721 
L 176.733084 385.987751 
L 177.971256 384.596469 
L 179.209429 383.583873 
L 181.27305 382.288178 
L 183.33667 380.986105 
L 185.813015 379.240824 
L 186.638464 378.906969 
L 187.463912 378.778707 
L 188.702084 378.843073 
L 191.178429 379.315838 
L 205.623775 382.416148 
L 210.16374 383.040116 
L 213.878258 383.529459 
L 213.878258 383.529459 
" clip-path="url(#pc48a5113ed)" style="fill: none; stroke: #ff7f0e; stroke-width: 0.5; stroke-linecap: square"/>
   </g>
   <g id="patch_42">
    <path d="M 141.364688 418.687861 
L 141.364688 376.873549 
" style="fill: none; stroke: #000000; stroke-width: 0.5; stroke-linejoin: miter; stroke-linecap: square"/>
   </g>
   <g id="patch_43">
    <path d="M 144.97396 420.778577 
L 217.159415 420.778577 
" style="fill: none; stroke: #000000; stroke-width: 0.5; stroke-linejoin: miter; stroke-linecap: square"/>
   </g>
   <g id="text_45">
    <!-- L5_TPC:A -->
    <g transform="translate(164.411625 370.873549) scale(0.072 -0.072)">
     <use xlink:href="#DejaVuSans-4c"/>
     <use xlink:href="#DejaVuSans-35" x="55.712891"/>
     <use xlink:href="#DejaVuSans-5f" x="119.335938"/>
     <use xlink:href="#DejaVuSans-54" x="169.335938"/>
     <use xlink:href="#DejaVuSans-50" x="230.419922"/>
     <use xlink:href="#DejaVuSans-43" x="290.722656"/>
     <use xlink:href="#DejaVuSans-3a" x="360.546875"/>
     <use xlink:href="#DejaVuSans-41" x="394.238281"/>
    </g>
   </g>
   <g id="legend_14"/>
  </g>
  <g id="axes_15">
   <g id="patch_44">
    <path d="M 40.36396 478.409495 
L 112.549415 478.409495 
L 112.549415 436.595183 
L 40.36396 436.595183 
L 40.36396 478.409495 
z
" style="fill: none"/>
   </g>
   <g id="matplotlib.axis_29">
    <g id="xtick_1">
     <g id="line2d_60">
      <defs>
       <path id="m9c5bcbbab2" d="M 0 0 
L 0 3.85 
" style="stroke: #000000; stroke-width: 0.5"/>
      </defs>
      <g>
       <use xlink:href="#m9c5bcbbab2" x="43.645117" y="480.50021" style="stroke: #000000; stroke-width: 0.5"/>
      </g>
     </g>
     <g id="text_46">
      <!-- -1 -->
      <g transform="translate(40.654024 492.409273) scale(0.06 -0.06)">
       <defs>
        <path id="DejaVuSans-2d" d="M 313 2009 
L 1997 2009 
L 1997 1497 
L 313 1497 
L 313 2009 
z
" transform="scale(0.015625)"/>
       </defs>
       <use xlink:href="#DejaVuSans-2d"/>
       <use xlink:href="#DejaVuSans-31" x="36.083984"/>
      </g>
     </g>
    </g>
    <g id="xtick_2">
     <g id="line2d_61">
      <g>
       <use xlink:href="#m9c5bcbbab2" x="60.154083" y="480.50021" style="stroke: #000000; stroke-width: 0.5"/>
      </g>
     </g>
     <g id="text_47">
      <!-- 0 -->
      <g transform="translate(58.245333 492.409273) scale(0.06 -0.06)">
       <use xlink:href="#DejaVuSans-30"/>
      </g>
     </g>
    </g>
    <g id="xtick_3">
     <g id="line2d_62">
      <g>
       <use xlink:href="#m9c5bcbbab2" x="109.680982" y="480.50021" style="stroke: #000000; stroke-width: 0.5"/>
      </g>
     </g>
     <g id="text_48">
      <!-- 3 -->
      <g transform="translate(107.772232 492.409273) scale(0.06 -0.06)">
       <use xlink:href="#DejaVuSans-33"/>
      </g>
     </g>
    </g>
    <g id="text_49">
     <!-- Time (ms) -->
     <g transform="translate(61.337156 502.216148) scale(0.06 -0.06)">
      <defs>
       <path id="DejaVuSans-69" d="M 603 3500 
L 1178 3500 
L 1178 0 
L 603 0 
L 603 3500 
z
M 603 4863 
L 1178 4863 
L 1178 4134 
L 603 4134 
L 603 4863 
z
" transform="scale(0.015625)"/>
       <path id="DejaVuSans-6d" d="M 3328 2828 
Q 3544 3216 3844 3400 
Q 4144 3584 4550 3584 
Q 5097 3584 5394 3201 
Q 5691 2819 5691 2113 
L 5691 0 
L 5113 0 
L 5113 2094 
Q 5113 2597 4934 2840 
Q 4756 3084 4391 3084 
Q 3944 3084 3684 2787 
Q 3425 2491 3425 1978 
L 3425 0 
L 2847 0 
L 2847 2094 
Q 2847 2600 2669 2842 
Q 2491 3084 2119 3084 
Q 1678 3084 1418 2786 
Q 1159 2488 1159 1978 
L 1159 0 
L 581 0 
L 581 3500 
L 1159 3500 
L 1159 2956 
Q 1356 3278 1631 3431 
Q 1906 3584 2284 3584 
Q 2666 3584 2933 3390 
Q 3200 3197 3328 2828 
z
" transform="scale(0.015625)"/>
       <path id="DejaVuSans-65" d="M 3597 1894 
L 3597 1613 
L 953 1613 
Q 991 1019 1311 708 
Q 1631 397 2203 397 
Q 2534 397 2845 478 
Q 3156 559 3463 722 
L 3463 178 
Q 3153 47 2828 -22 
Q 2503 -91 2169 -91 
Q 1331 -91 842 396 
Q 353 884 353 1716 
Q 353 2575 817 3079 
Q 1281 3584 2069 3584 
Q 2775 3584 3186 3129 
Q 3597 2675 3597 1894 
z
M 3022 2063 
Q 3016 2534 2758 2815 
Q 2500 3097 2075 3097 
Q 1594 3097 1305 2825 
Q 1016 2553 972 2059 
L 3022 2063 
z
" transform="scale(0.015625)"/>
       <path id="DejaVuSans-20" transform="scale(0.015625)"/>
       <path id="DejaVuSans-28" d="M 1984 4856 
Q 1566 4138 1362 3434 
Q 1159 2731 1159 2009 
Q 1159 1288 1364 580 
Q 1569 -128 1984 -844 
L 1484 -844 
Q 1016 -109 783 600 
Q 550 1309 550 2009 
Q 550 2706 781 3412 
Q 1013 4119 1484 4856 
L 1984 4856 
z
" transform="scale(0.015625)"/>
       <path id="DejaVuSans-73" d="M 2834 3397 
L 2834 2853 
Q 2591 2978 2328 3040 
Q 2066 3103 1784 3103 
Q 1356 3103 1142 2972 
Q 928 2841 928 2578 
Q 928 2378 1081 2264 
Q 1234 2150 1697 2047 
L 1894 2003 
Q 2506 1872 2764 1633 
Q 3022 1394 3022 966 
Q 3022 478 2636 193 
Q 2250 -91 1575 -91 
Q 1294 -91 989 -36 
Q 684 19 347 128 
L 347 722 
Q 666 556 975 473 
Q 1284 391 1588 391 
Q 1994 391 2212 530 
Q 2431 669 2431 922 
Q 2431 1156 2273 1281 
Q 2116 1406 1581 1522 
L 1381 1569 
Q 847 1681 609 1914 
Q 372 2147 372 2553 
Q 372 3047 722 3315 
Q 1072 3584 1716 3584 
Q 2034 3584 2315 3537 
Q 2597 3491 2834 3397 
z
" transform="scale(0.015625)"/>
       <path id="DejaVuSans-29" d="M 513 4856 
L 1013 4856 
Q 1481 4119 1714 3412 
Q 1947 2706 1947 2009 
Q 1947 1309 1714 600 
Q 1481 -109 1013 -844 
L 513 -844 
Q 928 -128 1133 580 
Q 1338 1288 1338 2009 
Q 1338 2731 1133 3434 
Q 928 4138 513 4856 
z
" transform="scale(0.015625)"/>
      </defs>
      <use xlink:href="#DejaVuSans-54"/>
      <use xlink:href="#DejaVuSans-69" x="57.958984"/>
      <use xlink:href="#DejaVuSans-6d" x="85.742188"/>
      <use xlink:href="#DejaVuSans-65" x="183.154297"/>
      <use xlink:href="#DejaVuSans-20" x="244.677734"/>
      <use xlink:href="#DejaVuSans-28" x="276.464844"/>
      <use xlink:href="#DejaVuSans-6d" x="315.478516"/>
      <use xlink:href="#DejaVuSans-73" x="412.890625"/>
      <use xlink:href="#DejaVuSans-29" x="464.990234"/>
     </g>
    </g>
   </g>
   <g id="matplotlib.axis_30">
    <g id="ytick_32">
     <g id="line2d_63">
      <g>
       <use xlink:href="#me72c11b4be" x="36.754688" y="474.346493" style="stroke: #000000; stroke-width: 0.5"/>
      </g>
     </g>
     <g id="text_50">
      <!-- −0.1 -->
      <g transform="translate(14.835 476.626025) scale(0.06 -0.06)">
       <use xlink:href="#DejaVuSans-2212"/>
       <use xlink:href="#DejaVuSans-30" x="83.789062"/>
       <use xlink:href="#DejaVuSans-2e" x="147.412109"/>
       <use xlink:href="#DejaVuSans-31" x="179.199219"/>
      </g>
     </g>
    </g>
    <g id="ytick_33">
     <g id="line2d_64">
      <g>
       <use xlink:href="#me72c11b4be" x="36.754688" y="447.781062" style="stroke: #000000; stroke-width: 0.5"/>
      </g>
     </g>
     <g id="text_51">
      <!-- 0.0 -->
      <g transform="translate(19.862813 450.060593) scale(0.06 -0.06)">
       <use xlink:href="#DejaVuSans-30"/>
       <use xlink:href="#DejaVuSans-2e" x="63.623047"/>
       <use xlink:href="#DejaVuSans-30" x="95.410156"/>
      </g>
     </g>
    </g>
   </g>
   <g id="line2d_65">
    <path d="M 43.645117 447.610193 
L 53.550497 447.520803 
L 56.85229 447.328133 
L 58.090463 447.089625 
L 58.915911 446.737278 
L 59.328635 446.419222 
L 59.741359 445.904155 
L 60.154083 445.015352 
L 60.566808 443.441109 
L 61.392256 438.888928 
L 61.80498 438.495833 
L 62.217704 439.815204 
L 62.630428 442.343409 
L 63.043152 446.006387 
L 64.281325 460.973026 
L 64.694049 463.656662 
L 65.106773 464.762697 
L 65.519497 464.858842 
L 65.932222 464.377154 
L 66.75767 462.647082 
L 68.408566 458.823664 
L 69.646739 456.519364 
L 70.884911 454.692669 
L 72.535808 452.673156 
L 75.012153 449.677611 
L 76.250325 447.813756 
L 78.72667 443.764639 
L 79.552119 443.019696 
L 80.377567 442.710905 
L 81.203015 442.703044 
L 82.441188 442.963747 
L 86.155705 443.951118 
L 89.044774 444.421776 
L 98.950154 445.567517 
L 105.141016 446.004201 
L 109.268258 446.262625 
L 109.268258 446.262625 
" clip-path="url(#pf10bfabb7f)" style="fill: none; stroke: #d62728; stroke-width: 0.5; stroke-linecap: square"/>
   </g>
   <g id="line2d_66">
    <path d="M 43.645117 448.32937 
L 51.8996 448.675408 
L 54.788669 448.966168 
L 56.85229 449.383338 
L 58.090463 449.865419 
L 58.915911 450.440501 
L 59.328635 450.890459 
L 59.741359 451.547376 
L 60.154083 452.589269 
L 60.566808 454.464401 
L 60.979532 458.410498 
L 61.80498 473.52351 
L 62.217704 476.508844 
L 62.630428 476.155256 
L 63.455877 473.965807 
L 63.868601 473.344852 
L 64.281325 472.418775 
L 65.106773 469.174589 
L 66.75767 462.292843 
L 67.995842 458.377631 
L 68.821291 456.373713 
L 70.059463 454.044587 
L 71.297636 452.264967 
L 72.948532 450.385429 
L 76.66305 446.486808 
L 79.552119 443.024767 
L 80.790291 442.132846 
L 82.028464 441.552724 
L 83.266636 441.210623 
L 84.917533 441.014771 
L 86.981153 441.057218 
L 89.457498 441.363119 
L 92.346567 441.926524 
L 100.188326 443.484382 
L 104.315568 444.054 
L 109.268258 444.607262 
L 109.268258 444.607262 
" clip-path="url(#pf10bfabb7f)" style="fill: none; stroke: #ff7f0e; stroke-width: 0.5; stroke-linecap: square"/>
   </g>
   <g id="patch_45">
    <path d="M 36.754688 478.409495 
L 36.754688 436.595183 
" style="fill: none; stroke: #000000; stroke-width: 0.5; stroke-linejoin: miter; stroke-linecap: square"/>
   </g>
   <g id="patch_46">
    <path d="M 40.36396 480.50021 
L 112.549415 480.50021 
" style="fill: none; stroke: #000000; stroke-width: 0.5; stroke-linejoin: miter; stroke-linecap: square"/>
   </g>
   <g id="text_52">
    <!-- L2_TPC:B -->
    <g transform="translate(59.794312 430.595183) scale(0.072 -0.072)">
     <use xlink:href="#DejaVuSans-4c"/>
     <use xlink:href="#DejaVuSans-32" x="55.712891"/>
     <use xlink:href="#DejaVuSans-5f" x="119.335938"/>
     <use xlink:href="#DejaVuSans-54" x="169.335938"/>
     <use xlink:href="#DejaVuSans-50" x="230.419922"/>
     <use xlink:href="#DejaVuSans-43" x="290.722656"/>
     <use xlink:href="#DejaVuSans-3a" x="360.546875"/>
     <use xlink:href="#DejaVuSans-42" x="394.238281"/>
    </g>
   </g>
   <g id="legend_15"/>
  </g>
  <g id="axes_16">
   <g id="patch_47">
    <path d="M 144.97396 478.409495 
L 217.159415 478.409495 
L 217.159415 436.595183 
L 144.97396 436.595183 
L 144.97396 478.409495 
z
" style="fill: none"/>
   </g>
   <g id="matplotlib.axis_31">
    <g id="xtick_4">
     <g id="line2d_67">
      <g>
       <use xlink:href="#m9c5bcbbab2" x="148.255117" y="480.50021" style="stroke: #000000; stroke-width: 0.5"/>
      </g>
     </g>
     <g id="text_53">
      <!-- -1 -->
      <g transform="translate(145.264024 492.409273) scale(0.06 -0.06)">
       <use xlink:href="#DejaVuSans-2d"/>
       <use xlink:href="#DejaVuSans-31" x="36.083984"/>
      </g>
     </g>
    </g>
    <g id="xtick_5">
     <g id="line2d_68">
      <g>
       <use xlink:href="#m9c5bcbbab2" x="164.764083" y="480.50021" style="stroke: #000000; stroke-width: 0.5"/>
      </g>
     </g>
     <g id="text_54">
      <!-- 0 -->
      <g transform="translate(162.855333 492.409273) scale(0.06 -0.06)">
       <use xlink:href="#DejaVuSans-30"/>
      </g>
     </g>
    </g>
    <g id="xtick_6">
     <g id="line2d_69">
      <g>
       <use xlink:href="#m9c5bcbbab2" x="214.290982" y="480.50021" style="stroke: #000000; stroke-width: 0.5"/>
      </g>
     </g>
     <g id="text_55">
      <!-- 3 -->
      <g transform="translate(212.382232 492.409273) scale(0.06 -0.06)">
       <use xlink:href="#DejaVuSans-33"/>
      </g>
     </g>
    </g>
    <g id="text_56">
     <!-- Time (ms) -->
     <g transform="translate(165.947156 502.216148) scale(0.06 -0.06)">
      <use xlink:href="#DejaVuSans-54"/>
      <use xlink:href="#DejaVuSans-69" x="57.958984"/>
      <use xlink:href="#DejaVuSans-6d" x="85.742188"/>
      <use xlink:href="#DejaVuSans-65" x="183.154297"/>
      <use xlink:href="#DejaVuSans-20" x="244.677734"/>
      <use xlink:href="#DejaVuSans-28" x="276.464844"/>
      <use xlink:href="#DejaVuSans-6d" x="315.478516"/>
      <use xlink:href="#DejaVuSans-73" x="412.890625"/>
      <use xlink:href="#DejaVuSans-29" x="464.990234"/>
     </g>
    </g>
   </g>
   <g id="matplotlib.axis_32">
    <g id="ytick_34">
     <g id="line2d_70">
      <g>
       <use xlink:href="#me72c11b4be" x="141.364688" y="473.219734" style="stroke: #000000; stroke-width: 0.5"/>
      </g>
     </g>
     <g id="text_57">
      <!-- −0.2 -->
      <g transform="translate(119.445 475.499265) scale(0.06 -0.06)">
       <use xlink:href="#DejaVuSans-2212"/>
       <use xlink:href="#DejaVuSans-30" x="83.789062"/>
       <use xlink:href="#DejaVuSans-2e" x="147.412109"/>
       <use xlink:href="#DejaVuSans-32" x="179.199219"/>
      </g>
     </g>
    </g>
    <g id="ytick_35">
     <g id="line2d_71">
      <g>
       <use xlink:href="#me72c11b4be" x="141.364688" y="446.812689" style="stroke: #000000; stroke-width: 0.5"/>
      </g>
     </g>
     <g id="text_58">
      <!-- 0.0 -->
      <g transform="translate(124.472813 449.09222) scale(0.06 -0.06)">
       <use xlink:href="#DejaVuSans-30"/>
       <use xlink:href="#DejaVuSans-2e" x="63.623047"/>
       <use xlink:href="#DejaVuSans-30" x="95.410156"/>
      </g>
     </g>
    </g>
   </g>
   <g id="line2d_72">
    <path d="M 148.255117 446.790473 
L 159.811394 446.78903 
L 161.875014 446.643318 
L 163.113187 446.356375 
L 163.938635 445.890274 
L 164.351359 445.453454 
L 164.764083 444.766704 
L 165.589532 442.719203 
L 166.002256 442.638579 
L 166.41498 444.429502 
L 166.827704 447.739219 
L 167.653152 456.992189 
L 168.478601 465.806574 
L 168.891325 467.629991 
L 169.304049 467.660995 
L 169.716773 466.538011 
L 171.780394 458.223078 
L 172.605842 455.919756 
L 173.844015 453.347814 
L 175.494911 450.628468 
L 177.558532 447.168328 
L 178.796705 444.656934 
L 180.860325 440.289303 
L 181.685774 439.166319 
L 182.511222 438.613222 
L 183.33667 438.495833 
L 184.574843 438.728734 
L 187.463912 439.703828 
L 190.765705 441.005385 
L 194.480223 442.48968 
L 196.543843 443.064789 
L 199.432912 443.605495 
L 203.972878 444.174102 
L 209.338292 444.643148 
L 213.878258 444.983444 
L 213.878258 444.983444 
" clip-path="url(#p53112a9ab8)" style="fill: none; stroke: #d62728; stroke-width: 0.5; stroke-linecap: square"/>
   </g>
   <g id="line2d_73">
    <path d="M 148.255117 447.616837 
L 154.44598 448.021246 
L 157.747773 448.454702 
L 159.811394 448.917967 
L 161.049566 449.377722 
L 161.875014 449.833942 
L 162.700463 450.510517 
L 163.525911 451.637254 
L 163.938635 452.521544 
L 164.351359 453.795369 
L 164.764083 455.725707 
L 165.176808 458.773425 
L 165.589532 463.488867 
L 166.41498 474.483424 
L 166.827704 476.508844 
L 167.240428 476.219318 
L 167.653152 474.81939 
L 168.478601 470.841061 
L 170.129497 461.92928 
L 170.954946 458.60407 
L 171.780394 456.231762 
L 172.605842 454.537518 
L 173.431291 453.275161 
L 174.669463 451.854871 
L 176.32036 450.421976 
L 182.098498 446.062535 
L 183.33667 445.495642 
L 184.574843 445.195886 
L 188.28936 444.484631 
L 189.940257 443.850906 
L 194.480223 441.802573 
L 196.131119 441.427191 
L 197.782016 441.313623 
L 199.845637 441.42934 
L 203.560154 441.945089 
L 209.751016 442.800286 
L 213.878258 443.300352 
L 213.878258 443.300352 
" clip-path="url(#p53112a9ab8)" style="fill: none; stroke: #ff7f0e; stroke-width: 0.5; stroke-linecap: square"/>
   </g>
   <g id="patch_48">
    <path d="M 141.364688 478.409495 
L 141.364688 436.595183 
" style="fill: none; stroke: #000000; stroke-width: 0.5; stroke-linejoin: miter; stroke-linecap: square"/>
   </g>
   <g id="patch_49">
    <path d="M 144.97396 480.50021 
L 217.159415 480.50021 
" style="fill: none; stroke: #000000; stroke-width: 0.5; stroke-linejoin: miter; stroke-linecap: square"/>
   </g>
   <g id="text_59">
    <!-- L3_TPC:A -->
    <g transform="translate(164.411625 430.595183) scale(0.072 -0.072)">
     <use xlink:href="#DejaVuSans-4c"/>
     <use xlink:href="#DejaVuSans-33" x="55.712891"/>
     <use xlink:href="#DejaVuSans-5f" x="119.335938"/>
     <use xlink:href="#DejaVuSans-54" x="169.335938"/>
     <use xlink:href="#DejaVuSans-50" x="230.419922"/>
     <use xlink:href="#DejaVuSans-43" x="290.722656"/>
     <use xlink:href="#DejaVuSans-3a" x="360.546875"/>
     <use xlink:href="#DejaVuSans-41" x="394.238281"/>
    </g>
   </g>
   <g id="legend_16"/>
  </g>
 </g>
 <defs>
  <clipPath id="p189654394c">
   <rect x="40.36396" y="18.54375" width="72.185455" height="41.814312"/>
  </clipPath>
  <clipPath id="p3c0ea23ff2">
   <rect x="144.97396" y="18.54375" width="72.185455" height="41.814312"/>
  </clipPath>
  <clipPath id="p5583f6bc7e">
   <rect x="40.36396" y="78.265383" width="72.185455" height="41.814312"/>
  </clipPath>
  <clipPath id="p082691459f">
   <rect x="144.97396" y="78.265383" width="72.185455" height="41.814312"/>
  </clipPath>
  <clipPath id="pcb15761ed5">
   <rect x="40.36396" y="137.987016" width="72.185455" height="41.814312"/>
  </clipPath>
  <clipPath id="pb5f12ba411">
   <rect x="144.97396" y="137.987016" width="72.185455" height="41.814312"/>
  </clipPath>
  <clipPath id="pbb8796b645">
   <rect x="40.36396" y="197.70865" width="72.185455" height="41.814312"/>
  </clipPath>
  <clipPath id="pb3607ecf37">
   <rect x="144.97396" y="197.70865" width="72.185455" height="41.814312"/>
  </clipPath>
  <clipPath id="pc3688cf813">
   <rect x="40.36396" y="257.430283" width="72.185455" height="41.814312"/>
  </clipPath>
  <clipPath id="pc16bb8043c">
   <rect x="144.97396" y="257.430283" width="72.185455" height="41.814312"/>
  </clipPath>
  <clipPath id="pb9693685c0">
   <rect x="40.36396" y="317.151916" width="72.185455" height="41.814312"/>
  </clipPath>
  <clipPath id="p9962e2045d">
   <rect x="144.97396" y="317.151916" width="72.185455" height="41.814312"/>
  </clipPath>
  <clipPath id="p35631c3bab">
   <rect x="40.36396" y="376.873549" width="72.185455" height="41.814312"/>
  </clipPath>
  <clipPath id="pc48a5113ed">
   <rect x="144.97396" y="376.873549" width="72.185455" height="41.814312"/>
  </clipPath>
  <clipPath id="pf10bfabb7f">
   <rect x="40.36396" y="436.595183" width="72.185455" height="41.814312"/>
  </clipPath>
  <clipPath id="p53112a9ab8">
   <rect x="144.97396" y="436.595183" width="72.185455" height="41.814312"/>
  </clipPath>
 </defs>
</svg>
