<?xml version="1.0" encoding="utf-8" standalone="no"?>
<!DOCTYPE svg PUBLIC "-//W3C//DTD SVG 1.1//EN"
  "http://www.w3.org/Graphics/SVG/1.1/DTD/svg11.dtd">
<svg xmlns:xlink="http://www.w3.org/1999/xlink" width="255.904375pt" height="158.989187pt" viewBox="0 0 255.904375 158.989187" xmlns="http://www.w3.org/2000/svg" version="1.1">
 <metadata>
  <rdf:RDF xmlns:dc="http://purl.org/dc/elements/1.1/" xmlns:cc="http://creativecommons.org/ns#" xmlns:rdf="http://www.w3.org/1999/02/22-rdf-syntax-ns#">
   <cc:Work>
    <dc:type rdf:resource="http://purl.org/dc/dcmitype/StillImage"/>
    <dc:date>2025-09-25T19:52:04.265121</dc:date>
    <dc:format>image/svg+xml</dc:format>
    <dc:creator>
     <cc:Agent>
      <dc:title>Matplotlib v3.8.4, https://matplotlib.org/</dc:title>
     </cc:Agent>
    </dc:creator>
   </cc:Work>
  </rdf:RDF>
 </metadata>
 <defs>
  <style type="text/css">*{stroke-linejoin: round; stroke-linecap: butt}</style>
 </defs>
 <g id="figure_1">
  <g id="patch_1">
   <path d="M 0 158.989187 
L 255.904375 158.989187 
L 255.904375 0 
L 0 0 
L 0 158.989187 
z
" style="fill: none"/>
  </g>
  <g id="axes_1">
   <g id="patch_2">
    <path d="M 31.021563 129.321375 
L 198.421562 129.321375 
L 198.421562 18.441375 
L 31.021563 18.441375 
L 31.021563 129.321375 
z
" style="fill: none"/>
   </g>
   <g id="PolyCollection_1">
    <defs>
     <path id="md70c0376e1" d="M 38.630653 -122.379734 
L 38.630653 -109.316813 
L 41.736405 -111.024386 
L 44.842156 -113.147857 
L 47.947908 -113.378712 
L 51.053659 -113.291127 
L 54.15941 -114.961097 
L 57.265162 -113.879809 
L 60.370913 -114.304666 
L 63.476665 -113.514305 
L 66.582416 -114.268635 
L 69.688167 -114.886847 
L 72.793919 -115.754343 
L 75.89967 -118.690679 
L 79.005421 -117.973386 
L 82.111173 -116.462097 
L 85.216924 -110.916288 
L 88.322676 -108.04794 
L 91.428427 -103.487444 
L 94.534178 -106.839202 
L 97.63993 -113.178674 
L 100.745681 -117.87624 
L 103.851433 -111.891227 
L 106.957184 -93.634751 
L 110.062935 -69.194592 
L 113.168687 -48.376094 
L 116.274438 -34.707813 
L 119.38019 -46.065756 
L 122.485941 -62.370854 
L 125.591692 -84.10004 
L 128.697444 -100.784862 
L 131.803195 -108.219243 
L 134.908947 -106.465731 
L 138.014698 -99.778246 
L 141.120449 -99.113961 
L 144.226201 -100.684215 
L 147.331952 -107.430378 
L 150.437704 -114.937202 
L 153.543455 -118.1018 
L 156.649206 -119.314573 
L 159.754958 -116.441587 
L 162.860709 -112.551246 
L 165.96646 -108.707161 
L 169.072212 -107.391085 
L 172.177963 -109.397886 
L 175.283715 -110.7684 
L 178.389466 -113.963782 
L 181.495217 -116.351241 
L 184.600969 -115.058561 
L 187.70672 -112.908463 
L 190.812472 -111.50923 
L 190.812472 -127.12535 
L 190.812472 -127.12535 
L 187.70672 -129.84377 
L 184.600969 -132.025642 
L 181.495217 -133.638133 
L 178.389466 -130.704504 
L 175.283715 -126.546954 
L 172.177963 -124.786891 
L 169.072212 -122.77318 
L 165.96646 -125.303791 
L 162.860709 -130.685687 
L 159.754958 -134.567388 
L 156.649206 -135.507812 
L 153.543455 -132.242782 
L 150.437704 -127.884337 
L 147.331952 -121.370063 
L 144.226201 -115.937764 
L 141.120449 -116.223696 
L 138.014698 -117.144958 
L 134.908947 -123.941495 
L 131.803195 -125.64474 
L 128.697444 -117.67725 
L 125.591692 -99.882395 
L 122.485941 -76.847485 
L 119.38019 -59.899901 
L 116.274438 -48.459809 
L 113.168687 -61.504857 
L 110.062935 -82.693637 
L 106.957184 -107.532688 
L 103.851433 -124.79731 
L 100.745681 -130.45443 
L 97.63993 -127.856498 
L 94.534178 -122.2058 
L 91.428427 -119.094354 
L 88.322676 -121.978298 
L 85.216924 -124.052659 
L 82.111173 -130.041433 
L 79.005421 -131.984972 
L 75.89967 -132.230225 
L 72.793919 -129.24244 
L 69.688167 -128.791848 
L 66.582416 -129.33903 
L 63.476665 -128.349893 
L 60.370913 -130.437493 
L 57.265162 -129.843966 
L 54.15941 -130.878739 
L 51.053659 -129.288101 
L 47.947908 -128.416016 
L 44.842156 -127.487058 
L 41.736405 -124.021393 
L 38.630653 -122.379734 
z
" style="stroke: #808080; stroke-opacity: 0.3"/>
    </defs>
    <g clip-path="url(#pd41713dda3)">
     <use xlink:href="#md70c0376e1" x="0" y="158.989187" style="fill: #808080; fill-opacity: 0.3; stroke: #808080; stroke-opacity: 0.3"/>
    </g>
   </g>
   <g id="PolyCollection_2">
    <defs>
     <path id="med2fe4b6c9" d="M 38.630653 -123.973727 
L 38.630653 -109.622414 
L 41.736405 -110.241577 
L 44.842156 -108.533992 
L 47.947908 -110.062692 
L 51.053659 -112.907255 
L 54.15941 -114.958637 
L 57.265162 -114.98683 
L 60.370913 -115.266053 
L 63.476665 -113.657088 
L 66.582416 -109.73259 
L 69.688167 -109.057309 
L 72.793919 -109.540918 
L 75.89967 -113.322119 
L 79.005421 -116.695611 
L 82.111173 -114.00918 
L 85.216924 -109.119052 
L 88.322676 -102.97448 
L 91.428427 -101.204196 
L 94.534178 -104.790194 
L 97.63993 -112.477034 
L 100.745681 -116.758427 
L 103.851433 -113.444779 
L 106.957184 -97.932307 
L 110.062935 -75.411845 
L 113.168687 -55.736997 
L 116.274438 -43.596714 
L 119.38019 -55.376 
L 122.485941 -73.965964 
L 125.591692 -96.537312 
L 128.697444 -113.742059 
L 131.803195 -118.920268 
L 134.908947 -114.724982 
L 138.014698 -106.074723 
L 141.120449 -99.505326 
L 144.226201 -99.261598 
L 147.331952 -104.219565 
L 150.437704 -108.930804 
L 153.543455 -112.466322 
L 156.649206 -112.035787 
L 159.754958 -110.527776 
L 162.860709 -111.220024 
L 165.96646 -111.771538 
L 169.072212 -115.864013 
L 172.177963 -117.935023 
L 175.283715 -117.77324 
L 178.389466 -117.113809 
L 181.495217 -114.808132 
L 184.600969 -112.35163 
L 187.70672 -110.04554 
L 190.812472 -109.146678 
L 190.812472 -120.002473 
L 190.812472 -120.002473 
L 187.70672 -123.058154 
L 184.600969 -127.381271 
L 181.495217 -129.980877 
L 178.389466 -132.503915 
L 175.283715 -131.784493 
L 172.177963 -130.68698 
L 169.072212 -129.739139 
L 165.96646 -128.165596 
L 162.860709 -129.289603 
L 159.754958 -127.579384 
L 156.649206 -126.785337 
L 153.543455 -125.47213 
L 150.437704 -121.172048 
L 147.331952 -116.292548 
L 144.226201 -110.923353 
L 141.120449 -111.496934 
L 138.014698 -118.572724 
L 134.908947 -126.806589 
L 131.803195 -131.773317 
L 128.697444 -126.76296 
L 125.591692 -109.725323 
L 122.485941 -86.247614 
L 119.38019 -67.047734 
L 116.274438 -55.015471 
L 113.168687 -67.040992 
L 110.062935 -86.816418 
L 106.957184 -109.277589 
L 103.851433 -125.740795 
L 100.745681 -128.596721 
L 97.63993 -124.215462 
L 94.534178 -117.535028 
L 91.428427 -114.51317 
L 88.322676 -116.922878 
L 85.216924 -121.858143 
L 82.111173 -125.869881 
L 79.005421 -127.79154 
L 75.89967 -126.778417 
L 72.793919 -124.512575 
L 69.688167 -125.039936 
L 66.582416 -125.247457 
L 63.476665 -128.459187 
L 60.370913 -129.026963 
L 57.265162 -127.2886 
L 54.15941 -125.398732 
L 51.053659 -124.482016 
L 47.947908 -121.896475 
L 44.842156 -120.444159 
L 41.736405 -123.671617 
L 38.630653 -123.973727 
z
" style="stroke: #ffc0cb; stroke-opacity: 0.3"/>
    </defs>
    <g clip-path="url(#pd41713dda3)">
     <use xlink:href="#med2fe4b6c9" x="0" y="158.989187" style="fill: #ffc0cb; fill-opacity: 0.3; stroke: #ffc0cb; stroke-opacity: 0.3"/>
    </g>
   </g>
   <g id="PolyCollection_3">
    <defs>
     <path id="ma3ea4ce41c" d="M 38.630653 -120.87507 
L 38.630653 -108.792151 
L 41.736405 -107.720595 
L 44.842156 -106.436567 
L 47.947908 -106.141336 
L 51.053659 -106.87122 
L 54.15941 -108.751198 
L 57.265162 -109.999059 
L 60.370913 -110.472502 
L 63.476665 -111.529883 
L 66.582416 -110.945072 
L 69.688167 -111.144526 
L 72.793919 -111.079529 
L 75.89967 -112.044013 
L 79.005421 -113.661063 
L 82.111173 -113.204565 
L 85.216924 -111.578649 
L 88.322676 -109.653138 
L 91.428427 -109.167367 
L 94.534178 -111.026736 
L 97.63993 -116.694747 
L 100.745681 -119.52922 
L 103.851433 -113.501995 
L 106.957184 -102.438649 
L 110.062935 -84.016088 
L 113.168687 -69.085666 
L 116.274438 -58.019381 
L 119.38019 -69.039571 
L 122.485941 -83.708025 
L 125.591692 -99.863102 
L 128.697444 -113.537041 
L 131.803195 -118.365377 
L 134.908947 -114.108805 
L 138.014698 -108.428666 
L 141.120449 -105.02692 
L 144.226201 -103.739887 
L 147.331952 -108.287476 
L 150.437704 -111.176898 
L 153.543455 -113.916451 
L 156.649206 -115.370534 
L 159.754958 -112.623201 
L 162.860709 -112.424049 
L 165.96646 -109.779392 
L 169.072212 -111.195606 
L 172.177963 -113.53084 
L 175.283715 -115.823808 
L 178.389466 -116.877297 
L 181.495217 -115.595746 
L 184.600969 -113.489801 
L 187.70672 -110.947439 
L 190.812472 -109.08193 
L 190.812472 -121.440238 
L 190.812472 -121.440238 
L 187.70672 -122.117674 
L 184.600969 -123.704507 
L 181.495217 -125.327421 
L 178.389466 -127.063207 
L 175.283715 -126.858731 
L 172.177963 -124.780651 
L 169.072212 -123.055496 
L 165.96646 -121.458713 
L 162.860709 -123.045869 
L 159.754958 -123.195314 
L 156.649206 -126.925557 
L 153.543455 -125.817651 
L 150.437704 -121.812698 
L 147.331952 -118.365691 
L 144.226201 -114.108965 
L 141.120449 -115.531526 
L 138.014698 -118.868065 
L 134.908947 -124.645533 
L 131.803195 -129.515965 
L 128.697444 -125.216035 
L 125.591692 -110.473924 
L 122.485941 -92.675729 
L 119.38019 -76.330048 
L 116.274438 -64.026666 
L 113.168687 -75.469276 
L 110.062935 -91.926958 
L 106.957184 -111.847225 
L 103.851433 -124.418188 
L 100.745681 -131.475097 
L 97.63993 -128.470651 
L 94.534178 -122.862136 
L 91.428427 -121.377758 
L 88.322676 -122.124752 
L 85.216924 -125.099675 
L 82.111173 -126.068638 
L 79.005421 -125.470184 
L 75.89967 -122.803046 
L 72.793919 -122.54023 
L 69.688167 -122.627562 
L 66.582416 -122.444201 
L 63.476665 -122.445151 
L 60.370913 -122.157106 
L 57.265162 -122.29583 
L 54.15941 -120.1991 
L 51.053659 -117.776852 
L 47.947908 -117.047376 
L 44.842156 -118.201569 
L 41.736405 -119.669888 
L 38.630653 -120.87507 
z
" style="stroke: #ffa500; stroke-opacity: 0.3"/>
    </defs>
    <g clip-path="url(#pd41713dda3)">
     <use xlink:href="#ma3ea4ce41c" x="0" y="158.989187" style="fill: #ffa500; fill-opacity: 0.3; stroke: #ffa500; stroke-opacity: 0.3"/>
    </g>
   </g>
   <g id="matplotlib.axis_1">
    <g id="xtick_1">
     <g id="line2d_1">
      <defs>
       <path id="m4bb095bca9" d="M 0 0 
L 0 3.85 
" style="stroke: #000000; stroke-width: 0.5"/>
      </defs>
      <g>
       <use xlink:href="#m4bb095bca9" x="38.630653" y="129.321375" style="stroke: #000000; stroke-width: 0.5"/>
      </g>
     </g>
     <g id="text_1">
      <!-- 0 -->
      <g transform="translate(36.962372 140.966062) scale(0.06 -0.06)">
       <defs>
        <path id="ArialMT-30" d="M 266 2259 
Q 266 3072 433 3567 
Q 600 4063 929 4331 
Q 1259 4600 1759 4600 
Q 2128 4600 2406 4451 
Q 2684 4303 2865 4023 
Q 3047 3744 3150 3342 
Q 3253 2941 3253 2259 
Q 3253 1453 3087 958 
Q 2922 463 2592 192 
Q 2263 -78 1759 -78 
Q 1097 -78 719 397 
Q 266 969 266 2259 
z
M 844 2259 
Q 844 1131 1108 757 
Q 1372 384 1759 384 
Q 2147 384 2411 759 
Q 2675 1134 2675 2259 
Q 2675 3391 2411 3762 
Q 2147 4134 1753 4134 
Q 1366 4134 1134 3806 
Q 844 3388 844 2259 
z
" transform="scale(0.015625)"/>
       </defs>
       <use xlink:href="#ArialMT-30"/>
      </g>
     </g>
    </g>
    <g id="xtick_2">
     <g id="line2d_2">
      <g>
       <use xlink:href="#m4bb095bca9" x="69.688167" y="129.321375" style="stroke: #000000; stroke-width: 0.5"/>
      </g>
     </g>
     <g id="text_2">
      <!-- 10 -->
      <g transform="translate(66.351605 140.966062) scale(0.06 -0.06)">
       <defs>
        <path id="ArialMT-31" d="M 2384 0 
L 1822 0 
L 1822 3584 
Q 1619 3391 1289 3197 
Q 959 3003 697 2906 
L 697 3450 
Q 1169 3672 1522 3987 
Q 1875 4303 2022 4600 
L 2384 4600 
L 2384 0 
z
" transform="scale(0.015625)"/>
       </defs>
       <use xlink:href="#ArialMT-31"/>
       <use xlink:href="#ArialMT-30" x="55.615234"/>
      </g>
     </g>
    </g>
    <g id="xtick_3">
     <g id="line2d_3">
      <g>
       <use xlink:href="#m4bb095bca9" x="100.745681" y="129.321375" style="stroke: #000000; stroke-width: 0.5"/>
      </g>
     </g>
     <g id="text_3">
      <!-- 20 -->
      <g transform="translate(97.409119 140.966062) scale(0.06 -0.06)">
       <defs>
        <path id="ArialMT-32" d="M 3222 541 
L 3222 0 
L 194 0 
Q 188 203 259 391 
Q 375 700 629 1000 
Q 884 1300 1366 1694 
Q 2113 2306 2375 2664 
Q 2638 3022 2638 3341 
Q 2638 3675 2398 3904 
Q 2159 4134 1775 4134 
Q 1369 4134 1125 3890 
Q 881 3647 878 3216 
L 300 3275 
Q 359 3922 746 4261 
Q 1134 4600 1788 4600 
Q 2447 4600 2831 4234 
Q 3216 3869 3216 3328 
Q 3216 3053 3103 2787 
Q 2991 2522 2730 2228 
Q 2469 1934 1863 1422 
Q 1356 997 1212 845 
Q 1069 694 975 541 
L 3222 541 
z
" transform="scale(0.015625)"/>
       </defs>
       <use xlink:href="#ArialMT-32"/>
       <use xlink:href="#ArialMT-30" x="55.615234"/>
      </g>
     </g>
    </g>
    <g id="xtick_4">
     <g id="line2d_4">
      <g>
       <use xlink:href="#m4bb095bca9" x="131.803195" y="129.321375" style="stroke: #000000; stroke-width: 0.5"/>
      </g>
     </g>
     <g id="text_4">
      <!-- 30 -->
      <g transform="translate(128.466633 140.966062) scale(0.06 -0.06)">
       <defs>
        <path id="ArialMT-33" d="M 269 1209 
L 831 1284 
Q 928 806 1161 595 
Q 1394 384 1728 384 
Q 2125 384 2398 659 
Q 2672 934 2672 1341 
Q 2672 1728 2419 1979 
Q 2166 2231 1775 2231 
Q 1616 2231 1378 2169 
L 1441 2663 
Q 1497 2656 1531 2656 
Q 1891 2656 2178 2843 
Q 2466 3031 2466 3422 
Q 2466 3731 2256 3934 
Q 2047 4138 1716 4138 
Q 1388 4138 1169 3931 
Q 950 3725 888 3313 
L 325 3413 
Q 428 3978 793 4289 
Q 1159 4600 1703 4600 
Q 2078 4600 2393 4439 
Q 2709 4278 2876 4000 
Q 3044 3722 3044 3409 
Q 3044 3113 2884 2869 
Q 2725 2625 2413 2481 
Q 2819 2388 3044 2092 
Q 3269 1797 3269 1353 
Q 3269 753 2831 336 
Q 2394 -81 1725 -81 
Q 1122 -81 723 278 
Q 325 638 269 1209 
z
" transform="scale(0.015625)"/>
       </defs>
       <use xlink:href="#ArialMT-33"/>
       <use xlink:href="#ArialMT-30" x="55.615234"/>
      </g>
     </g>
    </g>
    <g id="xtick_5">
     <g id="line2d_5">
      <g>
       <use xlink:href="#m4bb095bca9" x="162.860709" y="129.321375" style="stroke: #000000; stroke-width: 0.5"/>
      </g>
     </g>
     <g id="text_5">
      <!-- 40 -->
      <g transform="translate(159.524147 140.966062) scale(0.06 -0.06)">
       <defs>
        <path id="ArialMT-34" d="M 2069 0 
L 2069 1097 
L 81 1097 
L 81 1613 
L 2172 4581 
L 2631 4581 
L 2631 1613 
L 3250 1613 
L 3250 1097 
L 2631 1097 
L 2631 0 
L 2069 0 
z
M 2069 1613 
L 2069 3678 
L 634 1613 
L 2069 1613 
z
" transform="scale(0.015625)"/>
       </defs>
       <use xlink:href="#ArialMT-34"/>
       <use xlink:href="#ArialMT-30" x="55.615234"/>
      </g>
     </g>
    </g>
    <g id="xtick_6">
     <g id="line2d_6">
      <g>
       <use xlink:href="#m4bb095bca9" x="193.918223" y="129.321375" style="stroke: #000000; stroke-width: 0.5"/>
      </g>
     </g>
     <g id="text_6">
      <!-- 50 -->
      <g transform="translate(190.58166 140.966062) scale(0.06 -0.06)">
       <defs>
        <path id="ArialMT-35" d="M 266 1200 
L 856 1250 
Q 922 819 1161 601 
Q 1400 384 1738 384 
Q 2144 384 2425 690 
Q 2706 997 2706 1503 
Q 2706 1984 2436 2262 
Q 2166 2541 1728 2541 
Q 1456 2541 1237 2417 
Q 1019 2294 894 2097 
L 366 2166 
L 809 4519 
L 3088 4519 
L 3088 3981 
L 1259 3981 
L 1013 2750 
Q 1425 3038 1878 3038 
Q 2478 3038 2890 2622 
Q 3303 2206 3303 1553 
Q 3303 931 2941 478 
Q 2500 -78 1738 -78 
Q 1113 -78 717 272 
Q 322 622 266 1200 
z
" transform="scale(0.015625)"/>
       </defs>
       <use xlink:href="#ArialMT-35"/>
       <use xlink:href="#ArialMT-30" x="55.615234"/>
      </g>
     </g>
    </g>
    <g id="text_7">
     <!-- Time (ms) -->
     <g transform="translate(101.337812 150.526375) scale(0.06 -0.06)">
      <defs>
       <path id="ArialMT-54" d="M 1659 0 
L 1659 4041 
L 150 4041 
L 150 4581 
L 3781 4581 
L 3781 4041 
L 2266 4041 
L 2266 0 
L 1659 0 
z
" transform="scale(0.015625)"/>
       <path id="ArialMT-69" d="M 425 3934 
L 425 4581 
L 988 4581 
L 988 3934 
L 425 3934 
z
M 425 0 
L 425 3319 
L 988 3319 
L 988 0 
L 425 0 
z
" transform="scale(0.015625)"/>
       <path id="ArialMT-6d" d="M 422 0 
L 422 3319 
L 925 3319 
L 925 2853 
Q 1081 3097 1340 3245 
Q 1600 3394 1931 3394 
Q 2300 3394 2536 3241 
Q 2772 3088 2869 2813 
Q 3263 3394 3894 3394 
Q 4388 3394 4653 3120 
Q 4919 2847 4919 2278 
L 4919 0 
L 4359 0 
L 4359 2091 
Q 4359 2428 4304 2576 
Q 4250 2725 4106 2815 
Q 3963 2906 3769 2906 
Q 3419 2906 3187 2673 
Q 2956 2441 2956 1928 
L 2956 0 
L 2394 0 
L 2394 2156 
Q 2394 2531 2256 2718 
Q 2119 2906 1806 2906 
Q 1569 2906 1367 2781 
Q 1166 2656 1075 2415 
Q 984 2175 984 1722 
L 984 0 
L 422 0 
z
" transform="scale(0.015625)"/>
       <path id="ArialMT-65" d="M 2694 1069 
L 3275 997 
Q 3138 488 2766 206 
Q 2394 -75 1816 -75 
Q 1088 -75 661 373 
Q 234 822 234 1631 
Q 234 2469 665 2931 
Q 1097 3394 1784 3394 
Q 2450 3394 2872 2941 
Q 3294 2488 3294 1666 
Q 3294 1616 3291 1516 
L 816 1516 
Q 847 969 1125 678 
Q 1403 388 1819 388 
Q 2128 388 2347 550 
Q 2566 713 2694 1069 
z
M 847 1978 
L 2700 1978 
Q 2663 2397 2488 2606 
Q 2219 2931 1791 2931 
Q 1403 2931 1139 2672 
Q 875 2413 847 1978 
z
" transform="scale(0.015625)"/>
       <path id="ArialMT-20" transform="scale(0.015625)"/>
       <path id="ArialMT-28" d="M 1497 -1347 
Q 1031 -759 709 28 
Q 388 816 388 1659 
Q 388 2403 628 3084 
Q 909 3875 1497 4659 
L 1900 4659 
Q 1522 4009 1400 3731 
Q 1209 3300 1100 2831 
Q 966 2247 966 1656 
Q 966 153 1900 -1347 
L 1497 -1347 
z
" transform="scale(0.015625)"/>
       <path id="ArialMT-73" d="M 197 991 
L 753 1078 
Q 800 744 1014 566 
Q 1228 388 1613 388 
Q 2000 388 2187 545 
Q 2375 703 2375 916 
Q 2375 1106 2209 1216 
Q 2094 1291 1634 1406 
Q 1016 1563 777 1677 
Q 538 1791 414 1992 
Q 291 2194 291 2438 
Q 291 2659 392 2848 
Q 494 3038 669 3163 
Q 800 3259 1026 3326 
Q 1253 3394 1513 3394 
Q 1903 3394 2198 3281 
Q 2494 3169 2634 2976 
Q 2775 2784 2828 2463 
L 2278 2388 
Q 2241 2644 2061 2787 
Q 1881 2931 1553 2931 
Q 1166 2931 1000 2803 
Q 834 2675 834 2503 
Q 834 2394 903 2306 
Q 972 2216 1119 2156 
Q 1203 2125 1616 2013 
Q 2213 1853 2448 1751 
Q 2684 1650 2818 1456 
Q 2953 1263 2953 975 
Q 2953 694 2789 445 
Q 2625 197 2315 61 
Q 2006 -75 1616 -75 
Q 969 -75 630 194 
Q 291 463 197 991 
z
" transform="scale(0.015625)"/>
       <path id="ArialMT-29" d="M 791 -1347 
L 388 -1347 
Q 1322 153 1322 1656 
Q 1322 2244 1188 2822 
Q 1081 3291 891 3722 
Q 769 4003 388 4659 
L 791 4659 
Q 1378 3875 1659 3084 
Q 1900 2403 1900 1659 
Q 1900 816 1576 28 
Q 1253 -759 791 -1347 
z
" transform="scale(0.015625)"/>
      </defs>
      <use xlink:href="#ArialMT-54"/>
      <use xlink:href="#ArialMT-69" x="57.333984"/>
      <use xlink:href="#ArialMT-6d" x="79.550781"/>
      <use xlink:href="#ArialMT-65" x="162.851562"/>
      <use xlink:href="#ArialMT-20" x="218.466797"/>
      <use xlink:href="#ArialMT-28" x="246.25"/>
      <use xlink:href="#ArialMT-6d" x="279.550781"/>
      <use xlink:href="#ArialMT-73" x="362.851562"/>
      <use xlink:href="#ArialMT-29" x="412.851562"/>
     </g>
    </g>
   </g>
   <g id="matplotlib.axis_2">
    <g id="ytick_1">
     <g id="line2d_7">
      <defs>
       <path id="macfcd2830f" d="M 0 0 
L -3.85 0 
" style="stroke: #000000; stroke-width: 0.5"/>
      </defs>
      <g>
       <use xlink:href="#macfcd2830f" x="31.021563" y="118.823451" style="stroke: #000000; stroke-width: 0.5"/>
      </g>
     </g>
     <g id="text_8">
      <!-- −3 -->
      <g transform="translate(16.830625 120.970794) scale(0.06 -0.06)">
       <defs>
        <path id="ArialMT-2212" d="M 3381 1997 
L 356 1997 
L 356 2522 
L 3381 2522 
L 3381 1997 
z
" transform="scale(0.015625)"/>
       </defs>
       <use xlink:href="#ArialMT-2212"/>
       <use xlink:href="#ArialMT-33" x="58.398438"/>
      </g>
     </g>
    </g>
    <g id="ytick_2">
     <g id="line2d_8">
      <g>
       <use xlink:href="#macfcd2830f" x="31.021563" y="94.968859" style="stroke: #000000; stroke-width: 0.5"/>
      </g>
     </g>
     <g id="text_9">
      <!-- −2 -->
      <g transform="translate(16.830625 97.116203) scale(0.06 -0.06)">
       <use xlink:href="#ArialMT-2212"/>
       <use xlink:href="#ArialMT-32" x="58.398438"/>
      </g>
     </g>
    </g>
    <g id="ytick_3">
     <g id="line2d_9">
      <g>
       <use xlink:href="#macfcd2830f" x="31.021563" y="71.114268" style="stroke: #000000; stroke-width: 0.5"/>
      </g>
     </g>
     <g id="text_10">
      <!-- −1 -->
      <g transform="translate(16.830625 73.261612) scale(0.06 -0.06)">
       <use xlink:href="#ArialMT-2212"/>
       <use xlink:href="#ArialMT-31" x="58.398438"/>
      </g>
     </g>
    </g>
    <g id="ytick_4">
     <g id="line2d_10">
      <g>
       <use xlink:href="#macfcd2830f" x="31.021563" y="47.259677" style="stroke: #000000; stroke-width: 0.5"/>
      </g>
     </g>
     <g id="text_11">
      <!-- 0 -->
      <g transform="translate(20.335 49.40702) scale(0.06 -0.06)">
       <use xlink:href="#ArialMT-30"/>
      </g>
     </g>
    </g>
    <g id="ytick_5">
     <g id="line2d_11">
      <g>
       <use xlink:href="#macfcd2830f" x="31.021563" y="23.405085" style="stroke: #000000; stroke-width: 0.5"/>
      </g>
     </g>
     <g id="text_12">
      <!-- 1 -->
      <g transform="translate(20.335 25.552429) scale(0.06 -0.06)">
       <use xlink:href="#ArialMT-31"/>
      </g>
     </g>
    </g>
    <g id="text_13">
     <!-- Voltage (uV) -->
     <g transform="translate(11.567813 90.391219) rotate(-90) scale(0.06 -0.06)">
      <defs>
       <path id="ArialMT-56" d="M 1803 0 
L 28 4581 
L 684 4581 
L 1875 1253 
Q 2019 853 2116 503 
Q 2222 878 2363 1253 
L 3600 4581 
L 4219 4581 
L 2425 0 
L 1803 0 
z
" transform="scale(0.015625)"/>
       <path id="ArialMT-6f" d="M 213 1659 
Q 213 2581 725 3025 
Q 1153 3394 1769 3394 
Q 2453 3394 2887 2945 
Q 3322 2497 3322 1706 
Q 3322 1066 3130 698 
Q 2938 331 2570 128 
Q 2203 -75 1769 -75 
Q 1072 -75 642 372 
Q 213 819 213 1659 
z
M 791 1659 
Q 791 1022 1069 705 
Q 1347 388 1769 388 
Q 2188 388 2466 706 
Q 2744 1025 2744 1678 
Q 2744 2294 2464 2611 
Q 2184 2928 1769 2928 
Q 1347 2928 1069 2612 
Q 791 2297 791 1659 
z
" transform="scale(0.015625)"/>
       <path id="ArialMT-6c" d="M 409 0 
L 409 4581 
L 972 4581 
L 972 0 
L 409 0 
z
" transform="scale(0.015625)"/>
       <path id="ArialMT-74" d="M 1650 503 
L 1731 6 
Q 1494 -44 1306 -44 
Q 1000 -44 831 53 
Q 663 150 594 308 
Q 525 466 525 972 
L 525 2881 
L 113 2881 
L 113 3319 
L 525 3319 
L 525 4141 
L 1084 4478 
L 1084 3319 
L 1650 3319 
L 1650 2881 
L 1084 2881 
L 1084 941 
Q 1084 700 1114 631 
Q 1144 563 1211 522 
Q 1278 481 1403 481 
Q 1497 481 1650 503 
z
" transform="scale(0.015625)"/>
       <path id="ArialMT-61" d="M 2588 409 
Q 2275 144 1986 34 
Q 1697 -75 1366 -75 
Q 819 -75 525 192 
Q 231 459 231 875 
Q 231 1119 342 1320 
Q 453 1522 633 1644 
Q 813 1766 1038 1828 
Q 1203 1872 1538 1913 
Q 2219 1994 2541 2106 
Q 2544 2222 2544 2253 
Q 2544 2597 2384 2738 
Q 2169 2928 1744 2928 
Q 1347 2928 1158 2789 
Q 969 2650 878 2297 
L 328 2372 
Q 403 2725 575 2942 
Q 747 3159 1072 3276 
Q 1397 3394 1825 3394 
Q 2250 3394 2515 3294 
Q 2781 3194 2906 3042 
Q 3031 2891 3081 2659 
Q 3109 2516 3109 2141 
L 3109 1391 
Q 3109 606 3145 398 
Q 3181 191 3288 0 
L 2700 0 
Q 2613 175 2588 409 
z
M 2541 1666 
Q 2234 1541 1622 1453 
Q 1275 1403 1131 1340 
Q 988 1278 909 1158 
Q 831 1038 831 891 
Q 831 666 1001 516 
Q 1172 366 1500 366 
Q 1825 366 2078 508 
Q 2331 650 2450 897 
Q 2541 1088 2541 1459 
L 2541 1666 
z
" transform="scale(0.015625)"/>
       <path id="ArialMT-67" d="M 319 -275 
L 866 -356 
Q 900 -609 1056 -725 
Q 1266 -881 1628 -881 
Q 2019 -881 2231 -725 
Q 2444 -569 2519 -288 
Q 2563 -116 2559 434 
Q 2191 0 1641 0 
Q 956 0 581 494 
Q 206 988 206 1678 
Q 206 2153 378 2554 
Q 550 2956 876 3175 
Q 1203 3394 1644 3394 
Q 2231 3394 2613 2919 
L 2613 3319 
L 3131 3319 
L 3131 450 
Q 3131 -325 2973 -648 
Q 2816 -972 2473 -1159 
Q 2131 -1347 1631 -1347 
Q 1038 -1347 672 -1080 
Q 306 -813 319 -275 
z
M 784 1719 
Q 784 1066 1043 766 
Q 1303 466 1694 466 
Q 2081 466 2343 764 
Q 2606 1063 2606 1700 
Q 2606 2309 2336 2618 
Q 2066 2928 1684 2928 
Q 1309 2928 1046 2623 
Q 784 2319 784 1719 
z
" transform="scale(0.015625)"/>
       <path id="ArialMT-75" d="M 2597 0 
L 2597 488 
Q 2209 -75 1544 -75 
Q 1250 -75 995 37 
Q 741 150 617 320 
Q 494 491 444 738 
Q 409 903 409 1263 
L 409 3319 
L 972 3319 
L 972 1478 
Q 972 1038 1006 884 
Q 1059 663 1231 536 
Q 1403 409 1656 409 
Q 1909 409 2131 539 
Q 2353 669 2445 892 
Q 2538 1116 2538 1541 
L 2538 3319 
L 3100 3319 
L 3100 0 
L 2597 0 
z
" transform="scale(0.015625)"/>
      </defs>
      <use xlink:href="#ArialMT-56"/>
      <use xlink:href="#ArialMT-6f" x="61.199219"/>
      <use xlink:href="#ArialMT-6c" x="116.814453"/>
      <use xlink:href="#ArialMT-74" x="139.03125"/>
      <use xlink:href="#ArialMT-61" x="166.814453"/>
      <use xlink:href="#ArialMT-67" x="222.429688"/>
      <use xlink:href="#ArialMT-65" x="278.044922"/>
      <use xlink:href="#ArialMT-20" x="333.660156"/>
      <use xlink:href="#ArialMT-28" x="361.443359"/>
      <use xlink:href="#ArialMT-75" x="394.744141"/>
      <use xlink:href="#ArialMT-56" x="450.359375"/>
      <use xlink:href="#ArialMT-29" x="517.058594"/>
     </g>
    </g>
   </g>
   <g id="line2d_12">
    <path d="M 38.630653 43.140914 
L 41.736405 41.466298 
L 44.842156 38.67173 
L 47.947908 38.091823 
L 51.053659 37.699573 
L 54.15941 36.069269 
L 57.265162 37.1273 
L 60.370913 36.618108 
L 63.476665 38.057088 
L 66.582416 37.185355 
L 69.688167 37.14984 
L 72.793919 36.490796 
L 75.89967 33.528736 
L 79.005421 34.010009 
L 82.111173 35.737422 
L 85.216924 41.504714 
L 88.322676 43.976069 
L 91.428427 47.698289 
L 94.534178 44.466687 
L 97.63993 38.471602 
L 100.745681 34.823852 
L 103.851433 40.644919 
L 106.957184 58.405468 
L 110.062935 83.045073 
L 113.168687 104.048712 
L 116.274438 117.405377 
L 119.38019 106.006359 
L 122.485941 89.380018 
L 125.591692 66.99797 
L 128.697444 49.758132 
L 131.803195 42.057196 
L 134.908947 43.785574 
L 138.014698 50.527586 
L 141.120449 51.320359 
L 144.226201 50.678198 
L 147.331952 44.588967 
L 150.437704 37.578418 
L 153.543455 33.816897 
L 156.649206 31.577995 
L 159.754958 33.4847 
L 162.860709 37.370721 
L 165.96646 41.983712 
L 169.072212 43.907055 
L 172.177963 41.896799 
L 175.283715 40.331511 
L 178.389466 36.655045 
L 181.495217 33.994501 
L 184.600969 35.447086 
L 187.70672 37.613071 
L 190.812472 39.671898 
" clip-path="url(#pd41713dda3)" style="fill: none; stroke: #000000; stroke-width: 2; stroke-linecap: square"/>
   </g>
   <g id="line2d_13">
    <path d="M 38.630653 42.191117 
L 41.736405 42.032591 
L 44.842156 44.500112 
L 47.947908 43.009604 
L 51.053659 40.294552 
L 54.15941 38.810503 
L 57.265162 37.851473 
L 60.370913 36.84268 
L 63.476665 37.93105 
L 66.582416 41.499164 
L 69.688167 41.940565 
L 72.793919 41.962441 
L 75.89967 38.938919 
L 79.005421 36.745612 
L 82.111173 39.049657 
L 85.216924 43.50059 
L 88.322676 49.040508 
L 91.428427 51.130504 
L 94.534178 47.826577 
L 97.63993 40.642939 
L 100.745681 36.311614 
L 103.851433 39.3964 
L 106.957184 55.384239 
L 110.062935 77.875056 
L 113.168687 97.600193 
L 116.274438 109.683095 
L 119.38019 97.77732 
L 122.485941 78.882398 
L 125.591692 55.85787 
L 128.697444 38.736678 
L 131.803195 33.642395 
L 134.908947 38.223402 
L 138.014698 46.665464 
L 141.120449 53.488058 
L 144.226201 53.896712 
L 147.331952 48.733131 
L 150.437704 43.937762 
L 153.543455 40.019962 
L 156.649206 39.578625 
L 159.754958 39.935607 
L 162.860709 38.734374 
L 165.96646 39.02062 
L 169.072212 36.187612 
L 172.177963 34.678186 
L 175.283715 34.210321 
L 178.389466 34.180326 
L 181.495217 36.594683 
L 184.600969 39.122737 
L 187.70672 42.43734 
L 190.812472 44.414612 
" clip-path="url(#pd41713dda3)" style="fill: none; stroke: #ff0000; stroke-width: 2; stroke-linecap: square"/>
   </g>
   <g id="line2d_14">
    <path d="M 38.630653 44.155577 
L 41.736405 45.293946 
L 44.842156 46.67012 
L 47.947908 47.394832 
L 51.053659 46.665152 
L 54.15941 44.514039 
L 57.265162 42.841743 
L 60.370913 42.674383 
L 63.476665 42.00167 
L 66.582416 42.294551 
L 69.688167 42.103143 
L 72.793919 42.179308 
L 75.89967 41.565658 
L 79.005421 39.423564 
L 82.111173 39.352586 
L 85.216924 40.650026 
L 88.322676 43.100243 
L 91.428427 43.716625 
L 94.534178 42.044751 
L 97.63993 36.406488 
L 100.745681 33.487029 
L 103.851433 40.029096 
L 106.957184 51.84625 
L 110.062935 71.017665 
L 113.168687 86.711717 
L 116.274438 97.966164 
L 119.38019 86.304378 
L 122.485941 70.79731 
L 125.591692 53.820675 
L 128.697444 39.612649 
L 131.803195 35.048517 
L 134.908947 39.612019 
L 138.014698 45.340822 
L 141.120449 48.709965 
L 144.226201 50.064762 
L 147.331952 45.662604 
L 150.437704 42.494389 
L 153.543455 39.122137 
L 156.649206 37.841142 
L 159.754958 41.07993 
L 162.860709 41.254229 
L 165.96646 43.370135 
L 169.072212 41.863636 
L 172.177963 39.833442 
L 175.283715 37.647918 
L 178.389466 37.018935 
L 181.495217 38.527604 
L 184.600969 40.392033 
L 187.70672 42.456631 
L 190.812472 43.728104 
" clip-path="url(#pd41713dda3)" style="fill: none; stroke: #ffa500; stroke-width: 2; stroke-linecap: square"/>
   </g>
   <g id="patch_3">
    <path d="M 31.021563 129.321375 
L 31.021563 18.441375 
" style="fill: none; stroke: #000000; stroke-width: 0.5; stroke-linejoin: miter; stroke-linecap: square"/>
   </g>
   <g id="patch_4">
    <path d="M 198.421562 129.321375 
L 198.421562 18.441375 
" style="fill: none; stroke: #000000; stroke-width: 0.5; stroke-linejoin: miter; stroke-linecap: square"/>
   </g>
   <g id="patch_5">
    <path d="M 31.021563 129.321375 
L 198.421562 129.321375 
" style="fill: none; stroke: #000000; stroke-width: 0.5; stroke-linejoin: miter; stroke-linecap: square"/>
   </g>
   <g id="text_14">
    <!-- unit:506676 | #burst:68 | mtype:L23_SBC | etype:cACint -->
    <g transform="translate(25.468 12.441375) scale(0.072 -0.072)">
     <defs>
      <path id="ArialMT-6e" d="M 422 0 
L 422 3319 
L 928 3319 
L 928 2847 
Q 1294 3394 1984 3394 
Q 2284 3394 2536 3286 
Q 2788 3178 2913 3003 
Q 3038 2828 3088 2588 
Q 3119 2431 3119 2041 
L 3119 0 
L 2556 0 
L 2556 2019 
Q 2556 2363 2490 2533 
Q 2425 2703 2258 2804 
Q 2091 2906 1866 2906 
Q 1506 2906 1245 2678 
Q 984 2450 984 1813 
L 984 0 
L 422 0 
z
" transform="scale(0.015625)"/>
      <path id="ArialMT-3a" d="M 578 2678 
L 578 3319 
L 1219 3319 
L 1219 2678 
L 578 2678 
z
M 578 0 
L 578 641 
L 1219 641 
L 1219 0 
L 578 0 
z
" transform="scale(0.015625)"/>
      <path id="ArialMT-36" d="M 3184 3459 
L 2625 3416 
Q 2550 3747 2413 3897 
Q 2184 4138 1850 4138 
Q 1581 4138 1378 3988 
Q 1113 3794 959 3422 
Q 806 3050 800 2363 
Q 1003 2672 1297 2822 
Q 1591 2972 1913 2972 
Q 2475 2972 2870 2558 
Q 3266 2144 3266 1488 
Q 3266 1056 3080 686 
Q 2894 316 2569 119 
Q 2244 -78 1831 -78 
Q 1128 -78 684 439 
Q 241 956 241 2144 
Q 241 3472 731 4075 
Q 1159 4600 1884 4600 
Q 2425 4600 2770 4297 
Q 3116 3994 3184 3459 
z
M 888 1484 
Q 888 1194 1011 928 
Q 1134 663 1356 523 
Q 1578 384 1822 384 
Q 2178 384 2434 671 
Q 2691 959 2691 1453 
Q 2691 1928 2437 2201 
Q 2184 2475 1800 2475 
Q 1419 2475 1153 2201 
Q 888 1928 888 1484 
z
" transform="scale(0.015625)"/>
      <path id="ArialMT-37" d="M 303 3981 
L 303 4522 
L 3269 4522 
L 3269 4084 
Q 2831 3619 2401 2847 
Q 1972 2075 1738 1259 
Q 1569 684 1522 0 
L 944 0 
Q 953 541 1156 1306 
Q 1359 2072 1739 2783 
Q 2119 3494 2547 3981 
L 303 3981 
z
" transform="scale(0.015625)"/>
      <path id="ArialMT-7c" d="M 588 -1347 
L 588 4659 
L 1078 4659 
L 1078 -1347 
L 588 -1347 
z
" transform="scale(0.015625)"/>
      <path id="ArialMT-23" d="M 322 -78 
L 594 1253 
L 66 1253 
L 66 1719 
L 688 1719 
L 919 2853 
L 66 2853 
L 66 3319 
L 1013 3319 
L 1284 4659 
L 1753 4659 
L 1481 3319 
L 2466 3319 
L 2738 4659 
L 3209 4659 
L 2938 3319 
L 3478 3319 
L 3478 2853 
L 2844 2853 
L 2609 1719 
L 3478 1719 
L 3478 1253 
L 2516 1253 
L 2244 -78 
L 1775 -78 
L 2044 1253 
L 1063 1253 
L 791 -78 
L 322 -78 
z
M 1156 1719 
L 2138 1719 
L 2372 2853 
L 1388 2853 
L 1156 1719 
z
" transform="scale(0.015625)"/>
      <path id="ArialMT-62" d="M 941 0 
L 419 0 
L 419 4581 
L 981 4581 
L 981 2947 
Q 1338 3394 1891 3394 
Q 2197 3394 2470 3270 
Q 2744 3147 2920 2923 
Q 3097 2700 3197 2384 
Q 3297 2069 3297 1709 
Q 3297 856 2875 390 
Q 2453 -75 1863 -75 
Q 1275 -75 941 416 
L 941 0 
z
M 934 1684 
Q 934 1088 1097 822 
Q 1363 388 1816 388 
Q 2184 388 2453 708 
Q 2722 1028 2722 1663 
Q 2722 2313 2464 2622 
Q 2206 2931 1841 2931 
Q 1472 2931 1203 2611 
Q 934 2291 934 1684 
z
" transform="scale(0.015625)"/>
      <path id="ArialMT-72" d="M 416 0 
L 416 3319 
L 922 3319 
L 922 2816 
Q 1116 3169 1280 3281 
Q 1444 3394 1641 3394 
Q 1925 3394 2219 3213 
L 2025 2691 
Q 1819 2813 1613 2813 
Q 1428 2813 1281 2702 
Q 1134 2591 1072 2394 
Q 978 2094 978 1738 
L 978 0 
L 416 0 
z
" transform="scale(0.015625)"/>
      <path id="ArialMT-38" d="M 1131 2484 
Q 781 2613 612 2850 
Q 444 3088 444 3419 
Q 444 3919 803 4259 
Q 1163 4600 1759 4600 
Q 2359 4600 2725 4251 
Q 3091 3903 3091 3403 
Q 3091 3084 2923 2848 
Q 2756 2613 2416 2484 
Q 2838 2347 3058 2040 
Q 3278 1734 3278 1309 
Q 3278 722 2862 322 
Q 2447 -78 1769 -78 
Q 1091 -78 675 323 
Q 259 725 259 1325 
Q 259 1772 486 2073 
Q 713 2375 1131 2484 
z
M 1019 3438 
Q 1019 3113 1228 2906 
Q 1438 2700 1772 2700 
Q 2097 2700 2305 2904 
Q 2513 3109 2513 3406 
Q 2513 3716 2298 3927 
Q 2084 4138 1766 4138 
Q 1444 4138 1231 3931 
Q 1019 3725 1019 3438 
z
M 838 1322 
Q 838 1081 952 856 
Q 1066 631 1291 507 
Q 1516 384 1775 384 
Q 2178 384 2440 643 
Q 2703 903 2703 1303 
Q 2703 1709 2433 1975 
Q 2163 2241 1756 2241 
Q 1359 2241 1098 1978 
Q 838 1716 838 1322 
z
" transform="scale(0.015625)"/>
      <path id="ArialMT-79" d="M 397 -1278 
L 334 -750 
Q 519 -800 656 -800 
Q 844 -800 956 -737 
Q 1069 -675 1141 -563 
Q 1194 -478 1313 -144 
Q 1328 -97 1363 -6 
L 103 3319 
L 709 3319 
L 1400 1397 
Q 1534 1031 1641 628 
Q 1738 1016 1872 1384 
L 2581 3319 
L 3144 3319 
L 1881 -56 
Q 1678 -603 1566 -809 
Q 1416 -1088 1222 -1217 
Q 1028 -1347 759 -1347 
Q 597 -1347 397 -1278 
z
" transform="scale(0.015625)"/>
      <path id="ArialMT-70" d="M 422 -1272 
L 422 3319 
L 934 3319 
L 934 2888 
Q 1116 3141 1344 3267 
Q 1572 3394 1897 3394 
Q 2322 3394 2647 3175 
Q 2972 2956 3137 2557 
Q 3303 2159 3303 1684 
Q 3303 1175 3120 767 
Q 2938 359 2589 142 
Q 2241 -75 1856 -75 
Q 1575 -75 1351 44 
Q 1128 163 984 344 
L 984 -1272 
L 422 -1272 
z
M 931 1641 
Q 931 1000 1190 694 
Q 1450 388 1819 388 
Q 2194 388 2461 705 
Q 2728 1022 2728 1688 
Q 2728 2322 2467 2637 
Q 2206 2953 1844 2953 
Q 1484 2953 1207 2617 
Q 931 2281 931 1641 
z
" transform="scale(0.015625)"/>
      <path id="ArialMT-4c" d="M 469 0 
L 469 4581 
L 1075 4581 
L 1075 541 
L 3331 541 
L 3331 0 
L 469 0 
z
" transform="scale(0.015625)"/>
      <path id="ArialMT-5f" d="M -97 -1272 
L -97 -866 
L 3631 -866 
L 3631 -1272 
L -97 -1272 
z
" transform="scale(0.015625)"/>
      <path id="ArialMT-53" d="M 288 1472 
L 859 1522 
Q 900 1178 1048 958 
Q 1197 738 1509 602 
Q 1822 466 2213 466 
Q 2559 466 2825 569 
Q 3091 672 3220 851 
Q 3350 1031 3350 1244 
Q 3350 1459 3225 1620 
Q 3100 1781 2813 1891 
Q 2628 1963 1997 2114 
Q 1366 2266 1113 2400 
Q 784 2572 623 2826 
Q 463 3081 463 3397 
Q 463 3744 659 4045 
Q 856 4347 1234 4503 
Q 1613 4659 2075 4659 
Q 2584 4659 2973 4495 
Q 3363 4331 3572 4012 
Q 3781 3694 3797 3291 
L 3216 3247 
Q 3169 3681 2898 3903 
Q 2628 4125 2100 4125 
Q 1550 4125 1298 3923 
Q 1047 3722 1047 3438 
Q 1047 3191 1225 3031 
Q 1400 2872 2139 2705 
Q 2878 2538 3153 2413 
Q 3553 2228 3743 1945 
Q 3934 1663 3934 1294 
Q 3934 928 3725 604 
Q 3516 281 3123 101 
Q 2731 -78 2241 -78 
Q 1619 -78 1198 103 
Q 778 284 539 648 
Q 300 1013 288 1472 
z
" transform="scale(0.015625)"/>
      <path id="ArialMT-42" d="M 469 0 
L 469 4581 
L 2188 4581 
Q 2713 4581 3030 4442 
Q 3347 4303 3526 4014 
Q 3706 3725 3706 3409 
Q 3706 3116 3547 2856 
Q 3388 2597 3066 2438 
Q 3481 2316 3704 2022 
Q 3928 1728 3928 1328 
Q 3928 1006 3792 729 
Q 3656 453 3456 303 
Q 3256 153 2954 76 
Q 2653 0 2216 0 
L 469 0 
z
M 1075 2656 
L 2066 2656 
Q 2469 2656 2644 2709 
Q 2875 2778 2992 2937 
Q 3109 3097 3109 3338 
Q 3109 3566 3000 3739 
Q 2891 3913 2687 3977 
Q 2484 4041 1991 4041 
L 1075 4041 
L 1075 2656 
z
M 1075 541 
L 2216 541 
Q 2509 541 2628 563 
Q 2838 600 2978 687 
Q 3119 775 3209 942 
Q 3300 1109 3300 1328 
Q 3300 1584 3169 1773 
Q 3038 1963 2805 2039 
Q 2572 2116 2134 2116 
L 1075 2116 
L 1075 541 
z
" transform="scale(0.015625)"/>
      <path id="ArialMT-43" d="M 3763 1606 
L 4369 1453 
Q 4178 706 3683 314 
Q 3188 -78 2472 -78 
Q 1731 -78 1267 223 
Q 803 525 561 1097 
Q 319 1669 319 2325 
Q 319 3041 592 3573 
Q 866 4106 1370 4382 
Q 1875 4659 2481 4659 
Q 3169 4659 3637 4309 
Q 4106 3959 4291 3325 
L 3694 3184 
Q 3534 3684 3231 3912 
Q 2928 4141 2469 4141 
Q 1941 4141 1586 3887 
Q 1231 3634 1087 3207 
Q 944 2781 944 2328 
Q 944 1744 1114 1308 
Q 1284 872 1643 656 
Q 2003 441 2422 441 
Q 2931 441 3284 734 
Q 3638 1028 3763 1606 
z
" transform="scale(0.015625)"/>
      <path id="ArialMT-63" d="M 2588 1216 
L 3141 1144 
Q 3050 572 2676 248 
Q 2303 -75 1759 -75 
Q 1078 -75 664 370 
Q 250 816 250 1647 
Q 250 2184 428 2587 
Q 606 2991 970 3192 
Q 1334 3394 1763 3394 
Q 2303 3394 2647 3120 
Q 2991 2847 3088 2344 
L 2541 2259 
Q 2463 2594 2264 2762 
Q 2066 2931 1784 2931 
Q 1359 2931 1093 2626 
Q 828 2322 828 1663 
Q 828 994 1084 691 
Q 1341 388 1753 388 
Q 2084 388 2306 591 
Q 2528 794 2588 1216 
z
" transform="scale(0.015625)"/>
      <path id="ArialMT-41" d="M -9 0 
L 1750 4581 
L 2403 4581 
L 4278 0 
L 3588 0 
L 3053 1388 
L 1138 1388 
L 634 0 
L -9 0 
z
M 1313 1881 
L 2866 1881 
L 2388 3150 
Q 2169 3728 2063 4100 
Q 1975 3659 1816 3225 
L 1313 1881 
z
" transform="scale(0.015625)"/>
     </defs>
     <use xlink:href="#ArialMT-75"/>
     <use xlink:href="#ArialMT-6e" x="55.615234"/>
     <use xlink:href="#ArialMT-69" x="111.230469"/>
     <use xlink:href="#ArialMT-74" x="133.447266"/>
     <use xlink:href="#ArialMT-3a" x="161.230469"/>
     <use xlink:href="#ArialMT-35" x="189.013672"/>
     <use xlink:href="#ArialMT-30" x="244.628906"/>
     <use xlink:href="#ArialMT-36" x="300.244141"/>
     <use xlink:href="#ArialMT-36" x="355.859375"/>
     <use xlink:href="#ArialMT-37" x="411.474609"/>
     <use xlink:href="#ArialMT-36" x="467.089844"/>
     <use xlink:href="#ArialMT-20" x="522.705078"/>
     <use xlink:href="#ArialMT-7c" x="550.488281"/>
     <use xlink:href="#ArialMT-20" x="576.464844"/>
     <use xlink:href="#ArialMT-23" x="604.248047"/>
     <use xlink:href="#ArialMT-62" x="659.863281"/>
     <use xlink:href="#ArialMT-75" x="715.478516"/>
     <use xlink:href="#ArialMT-72" x="771.09375"/>
     <use xlink:href="#ArialMT-73" x="804.394531"/>
     <use xlink:href="#ArialMT-74" x="854.394531"/>
     <use xlink:href="#ArialMT-3a" x="882.177734"/>
     <use xlink:href="#ArialMT-36" x="909.960938"/>
     <use xlink:href="#ArialMT-38" x="965.576172"/>
     <use xlink:href="#ArialMT-20" x="1021.191406"/>
     <use xlink:href="#ArialMT-7c" x="1048.974609"/>
     <use xlink:href="#ArialMT-20" x="1074.951172"/>
     <use xlink:href="#ArialMT-6d" x="1102.734375"/>
     <use xlink:href="#ArialMT-74" x="1186.035156"/>
     <use xlink:href="#ArialMT-79" x="1213.818359"/>
     <use xlink:href="#ArialMT-70" x="1263.818359"/>
     <use xlink:href="#ArialMT-65" x="1319.433594"/>
     <use xlink:href="#ArialMT-3a" x="1375.048828"/>
     <use xlink:href="#ArialMT-4c" x="1402.832031"/>
     <use xlink:href="#ArialMT-32" x="1458.447266"/>
     <use xlink:href="#ArialMT-33" x="1514.0625"/>
     <use xlink:href="#ArialMT-5f" x="1569.677734"/>
     <use xlink:href="#ArialMT-53" x="1625.292969"/>
     <use xlink:href="#ArialMT-42" x="1691.992188"/>
     <use xlink:href="#ArialMT-43" x="1758.691406"/>
     <use xlink:href="#ArialMT-20" x="1830.908203"/>
     <use xlink:href="#ArialMT-7c" x="1858.691406"/>
     <use xlink:href="#ArialMT-20" x="1884.667969"/>
     <use xlink:href="#ArialMT-65" x="1912.451172"/>
     <use xlink:href="#ArialMT-74" x="1968.066406"/>
     <use xlink:href="#ArialMT-79" x="1995.849609"/>
     <use xlink:href="#ArialMT-70" x="2045.849609"/>
     <use xlink:href="#ArialMT-65" x="2101.464844"/>
     <use xlink:href="#ArialMT-3a" x="2157.080078"/>
     <use xlink:href="#ArialMT-63" x="2184.863281"/>
     <use xlink:href="#ArialMT-41" x="2234.863281"/>
     <use xlink:href="#ArialMT-43" x="2301.5625"/>
     <use xlink:href="#ArialMT-69" x="2373.779297"/>
     <use xlink:href="#ArialMT-6e" x="2395.996094"/>
     <use xlink:href="#ArialMT-74" x="2451.611328"/>
    </g>
   </g>
   <g id="legend_1">
    <g id="patch_6">
     <path d="M 202.621562 74.217938 
L 247.504375 74.217938 
Q 248.704375 74.217938 248.704375 73.017938 
L 248.704375 22.641375 
Q 248.704375 21.441375 247.504375 21.441375 
L 202.621562 21.441375 
Q 201.421562 21.441375 201.421562 22.641375 
L 201.421562 73.017938 
Q 201.421562 74.217938 202.621562 74.217938 
z
" style="fill: #ffffff; opacity: 0.8; stroke: #cccccc; stroke-linejoin: miter"/>
    </g>
    <g id="line2d_15">
     <path d="M 203.821562 26.053875 
L 209.821562 26.053875 
L 215.821562 26.053875 
" style="fill: none; stroke: #000000; stroke-width: 2; stroke-linecap: square"/>
    </g>
    <g id="text_15">
     <!-- 1st spike -->
     <g transform="translate(220.621563 28.153875) scale(0.06 -0.06)">
      <defs>
       <path id="ArialMT-6b" d="M 425 0 
L 425 4581 
L 988 4581 
L 988 1969 
L 2319 3319 
L 3047 3319 
L 1778 2088 
L 3175 0 
L 2481 0 
L 1384 1697 
L 988 1316 
L 988 0 
L 425 0 
z
" transform="scale(0.015625)"/>
      </defs>
      <use xlink:href="#ArialMT-31"/>
      <use xlink:href="#ArialMT-73" x="55.615234"/>
      <use xlink:href="#ArialMT-74" x="105.615234"/>
      <use xlink:href="#ArialMT-20" x="133.398438"/>
      <use xlink:href="#ArialMT-73" x="161.181641"/>
      <use xlink:href="#ArialMT-70" x="211.181641"/>
      <use xlink:href="#ArialMT-69" x="266.796875"/>
      <use xlink:href="#ArialMT-6b" x="289.013672"/>
      <use xlink:href="#ArialMT-65" x="339.013672"/>
     </g>
    </g>
    <g id="patch_7">
     <path d="M 203.821562 36.641063 
L 215.821562 36.641063 
L 215.821562 32.441063 
L 203.821562 32.441063 
z
" style="fill: #808080; fill-opacity: 0.3; stroke: #808080; stroke-opacity: 0.3; stroke-linejoin: miter"/>
    </g>
    <g id="text_16">
     <!-- 95% CI -->
     <g transform="translate(220.621563 36.641063) scale(0.06 -0.06)">
      <defs>
       <path id="ArialMT-39" d="M 350 1059 
L 891 1109 
Q 959 728 1153 556 
Q 1347 384 1650 384 
Q 1909 384 2104 503 
Q 2300 622 2425 820 
Q 2550 1019 2634 1356 
Q 2719 1694 2719 2044 
Q 2719 2081 2716 2156 
Q 2547 1888 2255 1720 
Q 1963 1553 1622 1553 
Q 1053 1553 659 1965 
Q 266 2378 266 3053 
Q 266 3750 677 4175 
Q 1088 4600 1706 4600 
Q 2153 4600 2523 4359 
Q 2894 4119 3086 3673 
Q 3278 3228 3278 2384 
Q 3278 1506 3087 986 
Q 2897 466 2520 194 
Q 2144 -78 1638 -78 
Q 1100 -78 759 220 
Q 419 519 350 1059 
z
M 2653 3081 
Q 2653 3566 2395 3850 
Q 2138 4134 1775 4134 
Q 1400 4134 1122 3828 
Q 844 3522 844 3034 
Q 844 2597 1108 2323 
Q 1372 2050 1759 2050 
Q 2150 2050 2401 2323 
Q 2653 2597 2653 3081 
z
" transform="scale(0.015625)"/>
       <path id="ArialMT-25" d="M 372 3481 
Q 372 3972 619 4315 
Q 866 4659 1334 4659 
Q 1766 4659 2048 4351 
Q 2331 4044 2331 3447 
Q 2331 2866 2045 2552 
Q 1759 2238 1341 2238 
Q 925 2238 648 2547 
Q 372 2856 372 3481 
z
M 1350 4272 
Q 1141 4272 1002 4090 
Q 863 3909 863 3425 
Q 863 2984 1003 2804 
Q 1144 2625 1350 2625 
Q 1563 2625 1702 2806 
Q 1841 2988 1841 3469 
Q 1841 3913 1700 4092 
Q 1559 4272 1350 4272 
z
M 1353 -169 
L 3859 4659 
L 4316 4659 
L 1819 -169 
L 1353 -169 
z
M 3334 1075 
Q 3334 1569 3581 1911 
Q 3828 2253 4300 2253 
Q 4731 2253 5014 1945 
Q 5297 1638 5297 1041 
Q 5297 459 5011 145 
Q 4725 -169 4303 -169 
Q 3888 -169 3611 142 
Q 3334 453 3334 1075 
z
M 4316 1866 
Q 4103 1866 3964 1684 
Q 3825 1503 3825 1019 
Q 3825 581 3965 400 
Q 4106 219 4313 219 
Q 4528 219 4667 400 
Q 4806 581 4806 1063 
Q 4806 1506 4665 1686 
Q 4525 1866 4316 1866 
z
" transform="scale(0.015625)"/>
       <path id="ArialMT-49" d="M 597 0 
L 597 4581 
L 1203 4581 
L 1203 0 
L 597 0 
z
" transform="scale(0.015625)"/>
      </defs>
      <use xlink:href="#ArialMT-39"/>
      <use xlink:href="#ArialMT-35" x="55.615234"/>
      <use xlink:href="#ArialMT-25" x="111.230469"/>
      <use xlink:href="#ArialMT-20" x="200.146484"/>
      <use xlink:href="#ArialMT-43" x="227.929688"/>
      <use xlink:href="#ArialMT-49" x="300.146484"/>
     </g>
    </g>
    <g id="line2d_16">
     <path d="M 203.821562 43.046062 
L 209.821562 43.046062 
L 215.821562 43.046062 
" style="fill: none; stroke: #ff0000; stroke-width: 2; stroke-linecap: square"/>
    </g>
    <g id="text_17">
     <!-- 2nd spike -->
     <g transform="translate(220.621563 45.146062) scale(0.06 -0.06)">
      <defs>
       <path id="ArialMT-64" d="M 2575 0 
L 2575 419 
Q 2259 -75 1647 -75 
Q 1250 -75 917 144 
Q 584 363 401 755 
Q 219 1147 219 1656 
Q 219 2153 384 2558 
Q 550 2963 881 3178 
Q 1213 3394 1622 3394 
Q 1922 3394 2156 3267 
Q 2391 3141 2538 2938 
L 2538 4581 
L 3097 4581 
L 3097 0 
L 2575 0 
z
M 797 1656 
Q 797 1019 1065 703 
Q 1334 388 1700 388 
Q 2069 388 2326 689 
Q 2584 991 2584 1609 
Q 2584 2291 2321 2609 
Q 2059 2928 1675 2928 
Q 1300 2928 1048 2622 
Q 797 2316 797 1656 
z
" transform="scale(0.015625)"/>
      </defs>
      <use xlink:href="#ArialMT-32"/>
      <use xlink:href="#ArialMT-6e" x="55.615234"/>
      <use xlink:href="#ArialMT-64" x="111.230469"/>
      <use xlink:href="#ArialMT-20" x="166.845703"/>
      <use xlink:href="#ArialMT-73" x="194.628906"/>
      <use xlink:href="#ArialMT-70" x="244.628906"/>
      <use xlink:href="#ArialMT-69" x="300.244141"/>
      <use xlink:href="#ArialMT-6b" x="322.460938"/>
      <use xlink:href="#ArialMT-65" x="372.460938"/>
     </g>
    </g>
    <g id="patch_8">
     <path d="M 203.821562 53.63325 
L 215.821562 53.63325 
L 215.821562 49.43325 
L 203.821562 49.43325 
z
" style="fill: #ffc0cb; fill-opacity: 0.3; stroke: #ffc0cb; stroke-opacity: 0.3; stroke-linejoin: miter"/>
    </g>
    <g id="text_18">
     <!-- 95% CI -->
     <g transform="translate(220.621563 53.63325) scale(0.06 -0.06)">
      <use xlink:href="#ArialMT-39"/>
      <use xlink:href="#ArialMT-35" x="55.615234"/>
      <use xlink:href="#ArialMT-25" x="111.230469"/>
      <use xlink:href="#ArialMT-20" x="200.146484"/>
      <use xlink:href="#ArialMT-43" x="227.929688"/>
      <use xlink:href="#ArialMT-49" x="300.146484"/>
     </g>
    </g>
    <g id="line2d_17">
     <path d="M 203.821562 60.03825 
L 209.821562 60.03825 
L 215.821562 60.03825 
" style="fill: none; stroke: #ffa500; stroke-width: 2; stroke-linecap: square"/>
    </g>
    <g id="text_19">
     <!-- 3rd spike -->
     <g transform="translate(220.621563 62.13825) scale(0.06 -0.06)">
      <use xlink:href="#ArialMT-33"/>
      <use xlink:href="#ArialMT-72" x="55.615234"/>
      <use xlink:href="#ArialMT-64" x="88.916016"/>
      <use xlink:href="#ArialMT-20" x="144.53125"/>
      <use xlink:href="#ArialMT-73" x="172.314453"/>
      <use xlink:href="#ArialMT-70" x="222.314453"/>
      <use xlink:href="#ArialMT-69" x="277.929688"/>
      <use xlink:href="#ArialMT-6b" x="300.146484"/>
      <use xlink:href="#ArialMT-65" x="350.146484"/>
     </g>
    </g>
    <g id="patch_9">
     <path d="M 203.821562 70.625438 
L 215.821562 70.625438 
L 215.821562 66.425438 
L 203.821562 66.425438 
z
" style="fill: #ffa500; fill-opacity: 0.3; stroke: #ffa500; stroke-opacity: 0.3; stroke-linejoin: miter"/>
    </g>
    <g id="text_20">
     <!-- 95% CI -->
     <g transform="translate(220.621563 70.625438) scale(0.06 -0.06)">
      <use xlink:href="#ArialMT-39"/>
      <use xlink:href="#ArialMT-35" x="55.615234"/>
      <use xlink:href="#ArialMT-25" x="111.230469"/>
      <use xlink:href="#ArialMT-20" x="200.146484"/>
      <use xlink:href="#ArialMT-43" x="227.929688"/>
      <use xlink:href="#ArialMT-49" x="300.146484"/>
     </g>
    </g>
   </g>
  </g>
 </g>
 <defs>
  <clipPath id="pd41713dda3">
   <rect x="31.021563" y="18.441375" width="167.4" height="110.88"/>
  </clipPath>
 </defs>
</svg>
